<?xml version="1.0" encoding="UTF-8"?><!DOCTYPE svg PUBLIC "-//W3C//DTD SVG 1.1//EN" "/SysSchema/SVG11/svg11.dtd">
<svg xmlns:xlink="http://www.w3.org/1999/xlink" xmlns="http://www.w3.org/2000/svg" width="259mm" height="196mm" viewBox="0 0 25900 19600" stroke-width="28.222" stroke-linejoin="round" xml:space="preserve" preserveAspectRatio="xMidYMid meet" zoomAndPan="magnify" version="1.1" contentScriptType="text/ecmascript" contentStyleType="text/css">
 <path fill="rgb(128,128,128)" stroke="none" d="M 7923,1366 L 7923,1366 C 7817,1366 7712,1471 7712,1577 L 7712,2421 7712,2421 C 7712,2527 7817,2632 7923,2632 L 11942,2632 11942,2632 C 12047,2632 12153,2527 12153,2421 L 12153,1577 12153,1577 C 12153,1471 12047,1366 11942,1366 L 7923,1366 Z"/>
 <path fill="none" stroke="rgb(128,128,128)" d="M 7923,1366 L 7923,1366 C 7817,1366 7712,1471 7712,1577 L 7712,2421 7712,2421 C 7712,2527 7817,2632 7923,2632 L 11942,2632 11942,2632 C 12047,2632 12153,2527 12153,2421 L 12153,1577 12153,1577 C 12153,1471 12047,1366 11942,1366 L 7923,1366 Z"/>
 <g fill="rgb(128,128,128)" stroke="none" font-family="Arial" font-size="352" font-style="normal" font-weight="400">
  <text x="9543" y="1801">
   <tspan x="9543 9640 9894 10089">IDLE</tspan></text>
  <path d="M 9543,1833 L 10283,1833 10283,1853 9543,1853 Z"/>
 </g>
 <g fill="rgb(128,128,128)" stroke="none" font-family="Arial" font-size="281" font-style="normal" font-weight="400">
  <text x="8477" y="2129">
   <tspan x="8477 8634 8790 8871 8951 9044 9201 9358 9438 9582 9739 9980 10221 10378 10534 10691 10771 10915 10996 11152 11233">do/free command state</tspan></text>
  <text fill="rgb(128,128,128)" stroke="none" x="9051" y="2446">
   <tspan x="9051 9195 9275 9369 9525 9669 9750 9906 9999 10156 10236 10317 10516 10672 10736">structure, wait</tspan></text>
  <path fill="rgb(153,204,255)" stroke="none" d="M 7821,1265 L 7821,1265 C 7715,1265 7610,1369 7610,1475 L 7610,2320 7610,2320 C 7610,2425 7715,2531 7821,2531 L 11840,2531 11840,2531 C 11946,2531 12051,2425 12051,2320 L 12051,1475 12051,1475 C 12051,1369 11946,1265 11840,1265 L 7821,1265 Z"/>
  <path fill="none" stroke="rgb(0,0,0)" d="M 7821,1265 L 7821,1265 C 7715,1265 7610,1369 7610,1475 L 7610,2320 7610,2320 C 7610,2425 7715,2531 7821,2531 L 11840,2531 11840,2531 C 11946,2531 12051,2425 12051,2320 L 12051,1475 12051,1475 C 12051,1369 11946,1265 11840,1265 L 7821,1265 Z"/>
 </g>
 <g fill="rgb(0,0,0)" stroke="none" font-family="Arial" font-size="352" font-style="normal" font-weight="400">
  <text x="9441" y="1699">
   <tspan x="9441 9538 9792 9987">IDLE</tspan></text>
  <path d="M 9441,1731 L 10181,1731 10181,1751 9441,1751 Z"/>
 </g>
 <g fill="rgb(0,0,0)" stroke="none" font-family="Arial" font-size="281" font-style="normal" font-weight="400">
  <text x="8376" y="2028">
   <tspan x="8376 8533 8689 8770 8850 8943 9100 9257 9337 9481 9638 9879 10120 10277 10433 10590 10670 10814 10895 11051 11132">do/free command state</tspan></text>
  <text fill="rgb(0,0,0)" stroke="none" x="8949" y="2344">
   <tspan x="8949 9093 9173 9267 9423 9567 9648 9804 9897 10054 10134 10215 10414 10570 10634">structure, wait</tspan></text>
  <path fill="rgb(128,128,128)" stroke="none" d="M 13632,4529 L 13632,4529 C 13526,4529 13421,4633 13421,4739 L 13421,5583 13421,5583 C 13421,5689 13526,5794 13632,5794 L 17650,5794 17650,5794 C 17756,5794 17862,5689 17862,5583 L 17862,4739 17862,4739 C 17862,4633 17756,4529 17650,4529 L 13632,4529 Z"/>
  <path fill="none" stroke="rgb(128,128,128)" d="M 13632,4529 L 13632,4529 C 13526,4529 13421,4633 13421,4739 L 13421,5583 13421,5583 C 13421,5689 13526,5794 13632,5794 L 17650,5794 17650,5794 C 17756,5794 17862,5689 17862,5583 L 17862,4739 17862,4739 C 17862,4633 17756,4529 17650,4529 L 13632,4529 Z"/>
 </g>
 <g fill="rgb(128,128,128)" stroke="none" font-family="Arial" font-size="352" font-style="normal" font-weight="400">
  <text x="14059" y="4963">
   <tspan x="14059 14156 14410 14508 14728 14923 15177 15409 15702 15896 15994 16269 16464 16718 16950">INIT_NVM_IO_REQ</tspan></text>
  <path d="M 14059,4995 L 17048,4995 17048,5015 14059,5015 Z"/>
 </g>
 <g fill="rgb(128,128,128)" stroke="none" font-family="Arial" font-size="281" font-style="normal" font-weight="400">
  <text x="13926" y="5292">
   <tspan x="13926 14083 14239 14320 14383 14540 14603 14684 14747 14904 14967 15031 15171 15327 15408 15552 15708 15950 16191 16347 16504 16661 16741 16885 16966 17122 17203">do/initialize command state</tspan></text>
  <text fill="rgb(128,128,128)" stroke="none" x="13639" y="5608">
   <tspan x="13639 13842 13999 14155 14236 14393 14528 14608 14689 14769 14833 14977 15121 15277 15434 15514 15671 15862 16035 16116 16179 16336 16480 16624 16704 16797 16954 17110 17267 17424 17568">Context, issue LBA lock request</tspan></text>
  <path fill="rgb(153,204,255)" stroke="none" d="M 13530,4427 L 13530,4427 C 13424,4427 13319,4532 13319,4637 L 13319,5482 13319,5482 C 13319,5587 13424,5693 13530,5693 L 17548,5693 17548,5693 C 17654,5693 17760,5587 17760,5482 L 17760,4637 17760,4637 C 17760,4532 17654,4427 17548,4427 L 13530,4427 Z"/>
  <path fill="none" stroke="rgb(0,0,0)" d="M 13530,4427 L 13530,4427 C 13424,4427 13319,4532 13319,4637 L 13319,5482 13319,5482 C 13319,5587 13424,5693 13530,5693 L 17548,5693 17548,5693 C 17654,5693 17760,5587 17760,5482 L 17760,4637 17760,4637 C 17760,4532 17654,4427 17548,4427 L 13530,4427 Z"/>
 </g>
 <g fill="rgb(0,0,0)" stroke="none" font-family="Arial" font-size="352" font-style="normal" font-weight="400">
  <text x="13957" y="4861">
   <tspan x="13957 14054 14308 14406 14626 14821 15075 15307 15600 15794 15892 16167 16362 16616 16848">INIT_NVM_IO_REQ</tspan></text>
  <path d="M 13957,4893 L 16946,4893 16946,4913 13957,4913 Z"/>
 </g>
 <g fill="rgb(0,0,0)" stroke="none" font-family="Arial" font-size="281" font-style="normal" font-weight="400">
  <text x="13824" y="5190">
   <tspan x="13824 13981 14137 14218 14281 14438 14501 14582 14645 14802 14865 14929 15069 15225 15306 15450 15606 15848 16089 16245 16402 16559 16639 16783 16864 17020 17101">do/initialize command state</tspan></text>
  <text fill="rgb(0,0,0)" stroke="none" x="13537" y="5507">
   <tspan x="13537 13740 13897 14053 14134 14291 14426 14506 14587 14667 14731 14875 15019 15175 15332 15412 15569 15760 15933 16014 16077 16234 16378 16522 16602 16695 16852 17008 17165 17322 17466">Context, issue LBA lock request</tspan></text>
  <path fill="none" stroke="rgb(0,0,0)" d="M 12051,1897 L 12051,1897 C 14377,1897 15363,2620 15521,4069"/>
  <path fill="rgb(0,0,0)" stroke="none" d="M 15540,4427 L 15659,3970 15361,3990 15540,4427 Z"/>
  <text fill="rgb(0,0,0)" stroke="none" x="12279" y="3257">
   <tspan x="12279 12359 12563 12804 12961 13164 13320 13477 13634 13773 13930 14087 14167 14260 14417 14561 14717 14781 14921 15077 15234">[CmdReady64 received]</tspan></text>
  <path fill="rgb(128,128,128)" stroke="none" d="M 12997,7691 L 12997,7691 C 12891,7691 12787,7795 12787,7901 L 12787,8745 12787,8745 C 12787,8851 12891,8957 12997,8957 L 18284,8957 18284,8957 C 18390,8957 18496,8851 18496,8745 L 18496,7901 18496,7901 C 18496,7795 18390,7691 18284,7691 L 12997,7691 Z"/>
  <path fill="none" stroke="rgb(128,128,128)" d="M 12997,7691 L 12997,7691 C 12891,7691 12787,7795 12787,7901 L 12787,8745 12787,8745 C 12787,8851 12891,8957 12997,8957 L 18284,8957 18284,8957 C 18390,8957 18496,8851 18496,8745 L 18496,7901 18496,7901 C 18496,7795 18390,7691 18284,7691 L 12997,7691 Z"/>
 </g>
 <g fill="rgb(128,128,128)" stroke="none" font-family="Arial" font-size="352" font-style="normal" font-weight="400">
  <text x="14153" y="8283">
   <tspan x="14153 14492 14725 14822 15042 15237 15453 15728 15982 16177 16371 16646 16900">WAIT_FOR_LOCK</tspan></text>
  <path d="M 14153,8315 L 17010,8315 17010,8335 14153,8335 Z"/>
 </g>
 <g fill="rgb(128,128,128)" stroke="none" font-family="Arial" font-size="281" font-style="normal" font-weight="400">
  <text x="15195" y="8612">
   <tspan x="15195 15352 15508 15589 15788 15944 16008">do/wait</tspan></text>
  <path fill="rgb(153,204,255)" stroke="none" d="M 12895,7589 L 12895,7589 C 12790,7589 12685,7694 12685,7799 L 12685,8644 12685,8644 C 12685,8749 12790,8855 12895,8855 L 18183,8855 18183,8855 C 18288,8855 18394,8749 18394,8644 L 18394,7799 18394,7799 C 18394,7694 18288,7589 18183,7589 L 12895,7589 Z"/>
  <path fill="none" stroke="rgb(0,0,0)" d="M 12895,7589 L 12895,7589 C 12790,7589 12685,7694 12685,7799 L 12685,8644 12685,8644 C 12685,8749 12790,8855 12895,8855 L 18183,8855 18183,8855 C 18288,8855 18394,8749 18394,8644 L 18394,7799 18394,7799 C 18394,7694 18288,7589 18183,7589 L 12895,7589 Z"/>
 </g>
 <g fill="rgb(0,0,0)" stroke="none" font-family="Arial" font-size="352" font-style="normal" font-weight="400">
  <text x="14051" y="8182">
   <tspan x="14051 14390 14623 14720 14940 15135 15351 15626 15880 16075 16269 16544 16798">WAIT_FOR_LOCK</tspan></text>
  <path d="M 14051,8214 L 16908,8214 16908,8234 14051,8234 Z"/>
 </g>
 <g fill="rgb(0,0,0)" stroke="none" font-family="Arial" font-size="281" font-style="normal" font-weight="400">
  <text x="15093" y="8510">
   <tspan x="15093 15250 15406 15487 15686 15842 15906">do/wait</tspan></text>
  <path fill="none" stroke="rgb(0,0,0)" d="M 15540,5692 L 15540,7231"/>
  <path fill="rgb(0,0,0)" stroke="none" d="M 15540,7589 L 15689,7141 15390,7141 15540,7589 Z"/>
  <text fill="rgb(0,0,0)" stroke="none" x="13943" y="6736">
   <tspan x="13943 14023 14180 14371 14544 14625 14688 14845 14989 15133 15213 15306 15463 15619 15776 15933 16077 16157 16237 16301 16445 16589 16745 16902 17059">[LBA lock request issued]</tspan></text>
  <path fill="rgb(128,128,128)" stroke="none" d="M 7923,10853 L 7923,10853 C 7817,10853 7712,10958 7712,11063 L 7712,11908 7712,11908 C 7712,12013 7817,12119 7923,12119 L 11942,12119 11942,12119 C 12047,12119 12153,12013 12153,11908 L 12153,11063 12153,11063 C 12153,10958 12047,10853 11942,10853 L 7923,10853 Z"/>
  <path fill="none" stroke="rgb(128,128,128)" d="M 7923,10853 L 7923,10853 C 7817,10853 7712,10958 7712,11063 L 7712,11908 7712,11908 C 7712,12013 7817,12119 7923,12119 L 11942,12119 11942,12119 C 12047,12119 12153,12013 12153,11908 L 12153,11063 12153,11063 C 12153,10958 12047,10853 11942,10853 L 7923,10853 Z"/>
 </g>
 <g fill="rgb(128,128,128)" stroke="none" font-family="Arial" font-size="352" font-style="normal" font-weight="400">
  <text x="7708" y="11446">
   <tspan x="7708 7941 8195 8470 8724 8957 9190 9423 9617 9871 10079 10273 10506 10701 10917 11171 11404 11696 11929">PROCESS_DATA_FRAMES</tspan></text>
  <path d="M 7708,11478 L 12126,11478 12126,11498 7708,11498 Z"/>
 </g>
 <g fill="rgb(128,128,128)" stroke="none" font-family="Arial" font-size="281" font-style="normal" font-weight="400">
  <text x="8102" y="11774">
   <tspan x="8102 8259 8415 8496 8559 8703 8847 9004 9160 9241 9397 9554 9634 9791 9872 9952 10045 10202 10443 10600 10680 10773 10930 11087 11243 11400 11544 11624">do/issue data frame requests</tspan></text>
  <path fill="rgb(153,204,255)" stroke="none" d="M 7821,10751 L 7821,10751 C 7715,10751 7610,10856 7610,10961 L 7610,11806 7610,11806 C 7610,11912 7715,12017 7821,12017 L 11840,12017 11840,12017 C 11946,12017 12051,11912 12051,11806 L 12051,10961 12051,10961 C 12051,10856 11946,10751 11840,10751 L 7821,10751 Z"/>
  <path fill="none" stroke="rgb(0,0,0)" d="M 7821,10751 L 7821,10751 C 7715,10751 7610,10856 7610,10961 L 7610,11806 7610,11806 C 7610,11912 7715,12017 7821,12017 L 11840,12017 11840,12017 C 11946,12017 12051,11912 12051,11806 L 12051,10961 12051,10961 C 12051,10856 11946,10751 11840,10751 L 7821,10751 Z"/>
 </g>
 <g fill="rgb(0,0,0)" stroke="none" font-family="Arial" font-size="352" font-style="normal" font-weight="400">
  <text x="7606" y="11344">
   <tspan x="7606 7839 8093 8368 8622 8855 9088 9321 9515 9769 9977 10171 10404 10599 10815 11069 11302 11594 11827">PROCESS_DATA_FRAMES</tspan></text>
  <path d="M 7606,11376 L 12024,11376 12024,11396 7606,11396 Z"/>
 </g>
 <g fill="rgb(0,0,0)" stroke="none" font-family="Arial" font-size="281" font-style="normal" font-weight="400">
  <text x="8000" y="11673">
   <tspan x="8000 8157 8313 8394 8457 8601 8745 8902 9058 9139 9295 9452 9532 9689 9770 9850 9943 10100 10341 10498 10578 10671 10828 10985 11141 11298 11442 11522">do/issue data frame requests</tspan></text>
  <path fill="none" stroke="rgb(0,0,0)" d="M 15540,8854 L 15540,8854 C 15540,10541 14498,11291 12414,11377"/>
  <path fill="rgb(0,0,0)" stroke="none" d="M 12051,11384 L 12505,11522 12497,11223 12051,11384 Z"/>
  <text fill="rgb(0,0,0)" stroke="none" x="12643" y="10214">
   <tspan x="12643 12723 12880 13071 13244 13325 13388 13545 13689 13833 13913 14070 14163 14319 14476 14556 14713 14870">[LBA lock granted]</tspan></text>
  <path fill="rgb(128,128,128)" stroke="none" d="M 1580,7691 L 1580,7691 C 1474,7691 1369,7795 1369,7901 L 1369,8745 1369,8745 C 1369,8851 1474,8957 1580,8957 L 6867,8957 6867,8957 C 6973,8957 7079,8851 7079,8745 L 7079,7901 7079,7901 C 7079,7795 6973,7691 6867,7691 L 1580,7691 Z"/>
  <path fill="none" stroke="rgb(128,128,128)" d="M 1580,7691 L 1580,7691 C 1474,7691 1369,7795 1369,7901 L 1369,8745 1369,8745 C 1369,8851 1474,8957 1580,8957 L 6867,8957 6867,8957 C 6973,8957 7079,8851 7079,8745 L 7079,7901 7079,7901 C 7079,7795 6973,7691 6867,7691 L 1580,7691 Z"/>
 </g>
 <g fill="rgb(128,128,128)" stroke="none" font-family="Arial" font-size="352" font-style="normal" font-weight="400">
  <text x="1943" y="8283">
   <tspan x="1943 2282 2515 2612 2832 3027 3243 3518 3772 3967 4221 4428 4623 4856 5050 5266 5520 5753 6045 6278">WAIT_FOR_DATA_FRAMES</tspan></text>
  <path d="M 1943,8315 L 6413,8315 6413,8335 1943,8335 Z"/>
 </g>
 <g fill="rgb(128,128,128)" stroke="none" font-family="Arial" font-size="281" font-style="normal" font-weight="400">
  <text x="3778" y="8612">
   <tspan x="3778 3935 4091 4172 4371 4527 4591">do/wait</tspan></text>
  <path fill="rgb(153,204,255)" stroke="none" d="M 1478,7589 L 1478,7589 C 1372,7589 1268,7694 1268,7799 L 1268,8644 1268,8644 C 1268,8749 1372,8855 1478,8855 L 6765,8855 6765,8855 C 6871,8855 6977,8749 6977,8644 L 6977,7799 6977,7799 C 6977,7694 6871,7589 6765,7589 L 1478,7589 Z"/>
  <path fill="none" stroke="rgb(0,0,0)" d="M 1478,7589 L 1478,7589 C 1372,7589 1268,7694 1268,7799 L 1268,8644 1268,8644 C 1268,8749 1372,8855 1478,8855 L 6765,8855 6765,8855 C 6871,8855 6977,8749 6977,8644 L 6977,7799 6977,7799 C 6977,7694 6871,7589 6765,7589 L 1478,7589 Z"/>
 </g>
 <g fill="rgb(0,0,0)" stroke="none" font-family="Arial" font-size="352" font-style="normal" font-weight="400">
  <text x="1841" y="8182">
   <tspan x="1841 2180 2413 2510 2730 2925 3141 3416 3670 3865 4119 4326 4521 4754 4948 5164 5418 5651 5943 6176">WAIT_FOR_DATA_FRAMES</tspan></text>
  <path d="M 1841,8214 L 6311,8214 6311,8234 1841,8234 Z"/>
 </g>
 <g fill="rgb(0,0,0)" stroke="none" font-family="Arial" font-size="281" font-style="normal" font-weight="400">
  <text x="3676" y="8510">
   <tspan x="3676 3833 3989 4070 4269 4425 4489">do/wait</tspan></text>
  <path fill="none" stroke="rgb(0,0,0)" d="M 7611,11384 L 7611,11384 C 5285,11384 4299,10661 4141,9212"/>
  <path fill="rgb(0,0,0)" stroke="none" d="M 4122,8854 L 4002,9311 4301,9291 4122,8854 Z"/>
  <text fill="rgb(0,0,0)" stroke="none" x="3875" y="10214">
   <tspan x="3875 3955 4146 4209 4273 4353 4510 4667 4747 4904 4984 5065 5158 5314 5556 5712 5793 5886 6042 6199 6356 6512 6656 6737 6881 6961 7025 7169 7312 7469 7626 7782">[All data frame requests issued]</tspan></text>
  <path fill="rgb(128,128,128)" stroke="none" d="M 1580,4529 L 1580,4529 C 1474,4529 1369,4633 1369,4739 L 1369,5583 1369,5583 C 1369,5689 1474,5794 1580,5794 L 6867,5794 6867,5794 C 6973,5794 7079,5689 7079,5583 L 7079,4739 7079,4739 C 7079,4633 6973,4529 6867,4529 L 1580,4529 Z"/>
  <path fill="none" stroke="rgb(128,128,128)" d="M 1580,4529 L 1580,4529 C 1474,4529 1369,4633 1369,4739 L 1369,5583 1369,5583 C 1369,5689 1474,5794 1580,5794 L 6867,5794 6867,5794 C 6973,5794 7079,5689 7079,5583 L 7079,4739 7079,4739 C 7079,4633 6973,4529 6867,4529 L 1580,4529 Z"/>
 </g>
 <g fill="rgb(128,128,128)" stroke="none" font-family="Arial" font-size="352" font-style="normal" font-weight="400">
  <text x="1714" y="4963">
   <tspan x="1714 2053 2286 2383 2603 2798 3014 3289 3543 3738 3992 4267 4461 4715 4948 5202 5410 5630 5863 6057 6311 6544">WAIT_FOR_CQ_UPDATE_CPL</tspan></text>
  <path d="M 1714,4995 L 6555,4995 6555,5015 1714,5015 Z"/>
 </g>
 <g fill="rgb(128,128,128)" stroke="none" font-family="Arial" font-size="281" font-style="normal" font-weight="400">
  <text x="2930" y="5292">
   <tspan x="2930 3087 3243 3324 3417 3573 3637 3794 3950 4094 4251 4331 4488 4678 4852 4932 4996 5153 5296 5440">do/release LBA lock,</tspan></text>
  <text fill="rgb(128,128,128)" stroke="none" x="2433" y="5608">
   <tspan x="2433 2497 2640 2784 2941 3098 3178 3381 3538 3601 3822 3978 4135 4291 4448 4651 4808 4965 5121 5202 5358 5439 5519 5718 5875 5938">issue CplQueueUpdate, wait</tspan></text>
  <path fill="rgb(153,204,255)" stroke="none" d="M 1478,4427 L 1478,4427 C 1372,4427 1268,4532 1268,4637 L 1268,5482 1268,5482 C 1268,5587 1372,5693 1478,5693 L 6765,5693 6765,5693 C 6871,5693 6977,5587 6977,5482 L 6977,4637 6977,4637 C 6977,4532 6871,4427 6765,4427 L 1478,4427 Z"/>
  <path fill="none" stroke="rgb(0,0,0)" d="M 1478,4427 L 1478,4427 C 1372,4427 1268,4532 1268,4637 L 1268,5482 1268,5482 C 1268,5587 1372,5693 1478,5693 L 6765,5693 6765,5693 C 6871,5693 6977,5587 6977,5482 L 6977,4637 6977,4637 C 6977,4532 6871,4427 6765,4427 L 1478,4427 Z"/>
 </g>
 <g fill="rgb(0,0,0)" stroke="none" font-family="Arial" font-size="352" font-style="normal" font-weight="400">
  <text x="1612" y="4861">
   <tspan x="1612 1951 2184 2281 2501 2696 2912 3187 3441 3636 3890 4165 4359 4613 4846 5100 5308 5528 5761 5955 6209 6442">WAIT_FOR_CQ_UPDATE_CPL</tspan></text>
  <path d="M 1612,4893 L 6453,4893 6453,4913 1612,4913 Z"/>
 </g>
 <g fill="rgb(0,0,0)" stroke="none" font-family="Arial" font-size="281" font-style="normal" font-weight="400">
  <text x="2828" y="5190">
   <tspan x="2828 2985 3141 3222 3315 3471 3535 3692 3848 3992 4149 4229 4386 4576 4750 4830 4894 5051 5194 5338">do/release LBA lock,</tspan></text>
  <text fill="rgb(0,0,0)" stroke="none" x="2331" y="5507">
   <tspan x="2331 2395 2538 2682 2839 2996 3076 3279 3436 3499 3720 3876 4033 4189 4346 4549 4706 4863 5019 5100 5256 5337 5417 5616 5773 5836">issue CplQueueUpdate, wait</tspan></text>
  <path fill="none" stroke="rgb(0,0,0)" d="M 4122,7589 L 4122,6050"/>
  <path fill="rgb(0,0,0)" stroke="none" d="M 4122,5692 L 3973,6140 4272,6140 4122,5692 Z"/>
  <text fill="rgb(0,0,0)" stroke="none" x="2397" y="6736">
   <tspan x="2397 2477 2668 2731 2795 2875 3032 3189 3269 3426 3506 3587 3680 3836 4078 4234 4378 4459 4603 4759 5001 5157 5221 5377 5458 5614 5771">[All data frames completed]</tspan></text>
  <path fill="none" stroke="rgb(0,0,0)" d="M 4122,4427 L 4122,4427 C 4122,2740 5164,1990 7249,1904"/>
  <path fill="rgb(0,0,0)" stroke="none" d="M 7611,1897 L 7158,1759 7166,2058 7611,1897 Z"/>
  <text fill="rgb(0,0,0)" stroke="none" x="3913" y="3257">
   <tspan x="3913 3993 4197 4353 4417 4637 4794 4950 5107 5263 5467 5623 5780 5937 6017 6174 6377 6533 6597 6677 6771 6927 7071 7228 7291 7431 7588 7744">[CplQueueUpdateCpl received]</tspan></text>
  <path fill="rgb(128,128,128)" stroke="none" d="M 8663,101 L 8663,101 C 8843,101 8981,237 8981,416 8981,596 8843,733 8663,733 8483,733 8347,596 8347,416 8347,237 8483,101 8663,101 Z"/>
  <path fill="none" stroke="rgb(128,128,128)" d="M 8663,101 L 8663,101 C 8843,101 8981,237 8981,416 8981,596 8843,733 8663,733 8483,733 8347,596 8347,416 8347,237 8483,101 8663,101 Z"/>
  <path fill="rgb(128,128,128)" stroke="none" d="M 8559,286 L 8559,286 C 8578,286 8593,300 8593,319 8593,338 8578,353 8559,353 8540,353 8526,338 8526,319 8526,300 8540,286 8559,286 Z"/>
  <path fill="none" stroke="rgb(128,128,128)" d="M 8559,286 L 8559,286 C 8578,286 8593,300 8593,319 8593,338 8578,353 8559,353 8540,353 8526,338 8526,319 8526,300 8540,286 8559,286 Z"/>
  <path fill="rgb(128,128,128)" stroke="none" d="M 8764,286 L 8764,286 C 8783,286 8798,300 8798,319 8798,338 8783,353 8764,353 8745,353 8731,338 8731,319 8731,300 8745,286 8764,286 Z"/>
  <path fill="none" stroke="rgb(128,128,128)" d="M 8764,286 L 8764,286 C 8783,286 8798,300 8798,319 8798,338 8783,353 8764,353 8745,353 8731,338 8731,319 8731,300 8745,286 8764,286 Z"/>
  <path fill="none" stroke="rgb(128,128,128)" d="M 8489,555 L 8489,555 C 8601,614 8726,614 8838,555"/>
  <path fill="rgb(153,204,255)" stroke="none" d="M 8561,-1 L 8561,-1 C 8741,-1 8879,135 8879,315 8879,494 8741,631 8561,631 8382,631 8245,494 8245,315 8245,135 8382,-1 8561,-1 Z"/>
  <path fill="none" stroke="rgb(0,0,0)" d="M 8561,-1 L 8561,-1 C 8741,-1 8879,135 8879,315 8879,494 8741,631 8561,631 8382,631 8245,494 8245,315 8245,135 8382,-1 8561,-1 Z"/>
  <path fill="rgb(122,163,204)" stroke="none" d="M 8457,184 L 8457,184 C 8476,184 8491,198 8491,217 8491,236 8476,251 8457,251 8438,251 8425,236 8425,217 8425,198 8438,184 8457,184 Z"/>
  <path fill="none" stroke="rgb(0,0,0)" d="M 8457,184 L 8457,184 C 8476,184 8491,198 8491,217 8491,236 8476,251 8457,251 8438,251 8425,236 8425,217 8425,198 8438,184 8457,184 Z"/>
  <path fill="rgb(122,163,204)" stroke="none" d="M 8662,184 L 8662,184 C 8681,184 8696,198 8696,217 8696,236 8681,251 8662,251 8643,251 8629,236 8629,217 8629,198 8643,184 8662,184 Z"/>
  <path fill="none" stroke="rgb(0,0,0)" d="M 8662,184 L 8662,184 C 8681,184 8696,198 8696,217 8696,236 8681,251 8662,251 8643,251 8629,236 8629,217 8629,198 8643,184 8662,184 Z"/>
  <path fill="none" stroke="rgb(0,0,0)" d="M 8388,453 L 8388,453 C 8499,512 8624,512 8736,453"/>
  <path fill="none" stroke="rgb(0,0,0)" d="M 8880,317 L 8880,317 C 9514,317 9685,515 9790,910"/>
  <path fill="rgb(0,0,0)" stroke="none" d="M 9831,1265 L 9910,799 9614,845 9831,1265 Z"/>
  <path fill="rgb(128,128,128)" stroke="none" d="M 12997,4529 L 12997,4529 C 12891,4529 12787,4633 12787,4739 L 12787,5583 12787,5583 C 12787,5689 12891,5794 12997,5794 L 18284,5794 18284,5794 C 18390,5794 18496,5689 18496,5583 L 18496,4739 18496,4739 C 18496,4633 18390,4529 18284,4529 L 12997,4529 Z"/>
  <path fill="none" stroke="rgb(128,128,128)" d="M 12997,4529 L 12997,4529 C 12891,4529 12787,4633 12787,4739 L 12787,5583 12787,5583 C 12787,5689 12891,5794 12997,5794 L 18284,5794 18284,5794 C 18390,5794 18496,5689 18496,5583 L 18496,4739 18496,4739 C 18496,4633 18390,4529 18284,4529 L 12997,4529 Z"/>
 </g>
 <g fill="rgb(128,128,128)" stroke="none" font-family="Arial" font-size="352" font-style="normal" font-weight="400">
  <text x="14059" y="4963">
   <tspan x="14059 14156 14410 14508 14728 14923 15177 15409 15702 15896 15994 16269 16464 16718 16950">INIT_NVM_IO_REQ</tspan></text>
  <path d="M 14059,4995 L 17048,4995 17048,5015 14059,5015 Z"/>
 </g>
 <g fill="rgb(128,128,128)" stroke="none" font-family="Arial" font-size="281" font-style="normal" font-weight="400">
  <text x="13720" y="5292">
   <tspan x="13720 13877 14033 14114 14270 14334 14397 14554 14698 14855 14935 15092 15172 15236 15392 15456 15536 15617 15760 15917 16158 16400 16556 16713 16870 16950 17094 17174 17331 17411">do/allocate/init command state</tspan></text>
  <text fill="rgb(128,128,128)" stroke="none" x="14079" y="5608">
   <tspan x="14079 14223 14303 14397 14553 14697 14778 14934 15027 15184 15264 15345 15408 15552 15696 15853 16009 16090 16246 16403 16547 16691 16894 17051">structure, issue LockReq</tspan></text>
  <path fill="rgb(153,204,255)" stroke="none" d="M 12895,4427 L 12895,4427 C 12790,4427 12685,4532 12685,4637 L 12685,5482 12685,5482 C 12685,5587 12790,5693 12895,5693 L 18183,5693 18183,5693 C 18288,5693 18394,5587 18394,5482 L 18394,4637 18394,4637 C 18394,4532 18288,4427 18183,4427 L 12895,4427 Z"/>
  <path fill="none" stroke="rgb(0,0,0)" d="M 12895,4427 L 12895,4427 C 12790,4427 12685,4532 12685,4637 L 12685,5482 12685,5482 C 12685,5587 12790,5693 12895,5693 L 18183,5693 18183,5693 C 18288,5693 18394,5587 18394,5482 L 18394,4637 18394,4637 C 18394,4532 18288,4427 18183,4427 L 12895,4427 Z"/>
 </g>
 <g fill="rgb(0,0,0)" stroke="none" font-family="Arial" font-size="352" font-style="normal" font-weight="400">
  <text x="13957" y="4861">
   <tspan x="13957 14054 14308 14406 14626 14821 15075 15307 15600 15794 15892 16167 16362 16616 16848">INIT_NVM_IO_REQ</tspan></text>
  <path d="M 13957,4893 L 16946,4893 16946,4913 13957,4913 Z"/>
 </g>
 <g fill="rgb(0,0,0)" stroke="none" font-family="Arial" font-size="281" font-style="normal" font-weight="400">
  <text x="13618" y="5190">
   <tspan x="13618 13775 13931 14012 14168 14232 14295 14452 14596 14753 14833 14990 15070 15134 15290 15354 15434 15515 15658 15815 16056 16298 16454 16611 16768 16848 16992 17072 17229 17309">do/allocate/init command state</tspan></text>
  <text fill="rgb(0,0,0)" stroke="none" x="13977" y="5507">
   <tspan x="13977 14121 14201 14295 14451 14595 14676 14832 14925 15082 15162 15243 15306 15450 15594 15751 15907 15988 16144 16301 16445 16589 16792 16949">structure, issue LockReq</tspan></text>
 </g>
</svg>