<?xml version="1.0" encoding="UTF-8"?><!DOCTYPE svg PUBLIC "-//W3C//DTD SVG 1.1//EN" "/SysSchema/SVG11/svg11.dtd">
<svg xmlns:xlink="http://www.w3.org/1999/xlink" xmlns="http://www.w3.org/2000/svg" width="259mm" height="196mm" viewBox="0 0 25900 19600" stroke-width="28.222" stroke-linejoin="round" xml:space="preserve" preserveAspectRatio="xMidYMid meet" zoomAndPan="magnify" version="1.1" contentScriptType="text/ecmascript" contentStyleType="text/css">
 <path fill="rgb(128,128,128)" stroke="none" d="M 7289,1999 L 7289,1999 C 7183,1999 7078,2103 7078,2209 L 7078,3054 7078,3054 C 7078,3159 7183,3265 7289,3265 L 12576,3265 12576,3265 C 12682,3265 12788,3159 12788,3054 L 12788,2209 12788,2209 C 12788,2103 12682,1999 12576,1999 L 7289,1999 Z"/>
 <path fill="none" stroke="rgb(128,128,128)" d="M 7289,1999 L 7289,1999 C 7183,1999 7078,2103 7078,2209 L 7078,3054 7078,3054 C 7078,3159 7183,3265 7289,3265 L 12576,3265 12576,3265 C 12682,3265 12788,3159 12788,3054 L 12788,2209 12788,2209 C 12788,2103 12682,1999 12576,1999 L 7289,1999 Z"/>
 <g fill="rgb(128,128,128)" stroke="none" font-family="Arial" font-size="352" font-style="normal" font-weight="400">
  <text x="9543" y="2433">
   <tspan x="9543 9640 9894 10089">IDLE</tspan></text>
  <path d="M 9543,2465 L 10283,2465 10283,2485 9543,2485 Z"/>
 </g>
 <g fill="rgb(128,128,128)" stroke="none" font-family="Arial" font-size="281" font-style="normal" font-weight="400">
  <text x="8477" y="2762">
   <tspan x="8477 8634 8790 8871 8951 9044 9201 9358 9438 9582 9739 9980 10221 10378 10534 10691 10771 10915 10996 11152 11233">do/free command state</tspan></text>
  <text fill="rgb(128,128,128)" stroke="none" x="9051" y="3079">
   <tspan x="9051 9195 9275 9369 9525 9669 9750 9906 9999 10156 10236 10317 10516 10672 10736">structure, wait</tspan></text>
  <path fill="rgb(153,204,255)" stroke="none" d="M 7187,1897 L 7187,1897 C 7081,1897 6976,2002 6976,2107 L 6976,2952 6976,2952 C 6976,3058 7081,3163 7187,3163 L 12474,3163 12474,3163 C 12580,3163 12686,3058 12686,2952 L 12686,2107 12686,2107 C 12686,2002 12580,1897 12474,1897 L 7187,1897 Z"/>
  <path fill="none" stroke="rgb(0,0,0)" d="M 7187,1897 L 7187,1897 C 7081,1897 6976,2002 6976,2107 L 6976,2952 6976,2952 C 6976,3058 7081,3163 7187,3163 L 12474,3163 12474,3163 C 12580,3163 12686,3058 12686,2952 L 12686,2107 12686,2107 C 12686,2002 12580,1897 12474,1897 L 7187,1897 Z"/>
 </g>
 <g fill="rgb(0,0,0)" stroke="none" font-family="Arial" font-size="352" font-style="normal" font-weight="400">
  <text x="9441" y="2332">
   <tspan x="9441 9538 9792 9987">IDLE</tspan></text>
  <path d="M 9441,2364 L 10181,2364 10181,2384 9441,2384 Z"/>
 </g>
 <g fill="rgb(0,0,0)" stroke="none" font-family="Arial" font-size="281" font-style="normal" font-weight="400">
  <text x="8376" y="2660">
   <tspan x="8376 8533 8689 8770 8850 8943 9100 9257 9337 9481 9638 9879 10120 10277 10433 10590 10670 10814 10895 11051 11132">do/free command state</tspan></text>
  <text fill="rgb(0,0,0)" stroke="none" x="8949" y="2977">
   <tspan x="8949 9093 9173 9267 9423 9567 9648 9804 9897 10054 10134 10215 10414 10570 10634">structure, wait</tspan></text>
  <path fill="none" stroke="rgb(0,0,0)" d="M 12686,2530 L 12686,2530 C 14589,2530 15235,2834 15477,3446"/>
  <path fill="rgb(0,0,0)" stroke="none" d="M 15540,3795 L 15583,3325 15292,3392 15540,3795 Z"/>
  <text fill="rgb(0,0,0)" stroke="none" x="12597" y="3257">
   <tspan x="12597 12677 12881 13122 13279 13482 13638 13795 13952 14091 14248 14405 14485 14578 14735 14879 15035 15099 15239 15395 15552">[CmdReady64 received]</tspan></text>
  <path fill="rgb(128,128,128)" stroke="none" d="M 12997,6426 L 12997,6426 C 12891,6426 12787,6530 12787,6636 L 12787,7481 12787,7481 C 12787,7586 12891,7692 12997,7692 L 18284,7692 18284,7692 C 18390,7692 18496,7586 18496,7481 L 18496,6636 18496,6636 C 18496,6530 18390,6426 18284,6426 L 12997,6426 Z"/>
  <path fill="none" stroke="rgb(128,128,128)" d="M 12997,6426 L 12997,6426 C 12891,6426 12787,6530 12787,6636 L 12787,7481 12787,7481 C 12787,7586 12891,7692 12997,7692 L 18284,7692 18284,7692 C 18390,7692 18496,7586 18496,7481 L 18496,6636 18496,6636 C 18496,6530 18390,6426 18284,6426 L 12997,6426 Z"/>
 </g>
 <g fill="rgb(128,128,128)" stroke="none" font-family="Arial" font-size="352" font-style="normal" font-weight="400">
  <text x="14153" y="7019">
   <tspan x="14153 14492 14725 14822 15042 15237 15453 15728 15982 16177 16371 16646 16900">WAIT_FOR_LOCK</tspan></text>
  <path d="M 14153,7051 L 17010,7051 17010,7071 14153,7071 Z"/>
 </g>
 <g fill="rgb(128,128,128)" stroke="none" font-family="Arial" font-size="281" font-style="normal" font-weight="400">
  <text x="15195" y="7347">
   <tspan x="15195 15352 15508 15589 15788 15944 16008">do/wait</tspan></text>
  <path fill="rgb(153,204,255)" stroke="none" d="M 12895,6324 L 12895,6324 C 12790,6324 12685,6429 12685,6534 L 12685,7379 12685,7379 C 12685,7485 12790,7590 12895,7590 L 18183,7590 18183,7590 C 18288,7590 18394,7485 18394,7379 L 18394,6534 18394,6534 C 18394,6429 18288,6324 18183,6324 L 12895,6324 Z"/>
  <path fill="none" stroke="rgb(0,0,0)" d="M 12895,6324 L 12895,6324 C 12790,6324 12685,6429 12685,6534 L 12685,7379 12685,7379 C 12685,7485 12790,7590 12895,7590 L 18183,7590 18183,7590 C 18288,7590 18394,7485 18394,7379 L 18394,6534 18394,6534 C 18394,6429 18288,6324 18183,6324 L 12895,6324 Z"/>
 </g>
 <g fill="rgb(0,0,0)" stroke="none" font-family="Arial" font-size="352" font-style="normal" font-weight="400">
  <text x="14051" y="6917">
   <tspan x="14051 14390 14623 14720 14940 15135 15351 15626 15880 16075 16269 16544 16798">WAIT_FOR_LOCK</tspan></text>
  <path d="M 14051,6949 L 16908,6949 16908,6969 14051,6969 Z"/>
 </g>
 <g fill="rgb(0,0,0)" stroke="none" font-family="Arial" font-size="281" font-style="normal" font-weight="400">
  <text x="15093" y="7246">
   <tspan x="15093 15250 15406 15487 15686 15842 15906">do/wait</tspan></text>
  <path fill="none" stroke="rgb(0,0,0)" d="M 15540,5059 L 15540,5966"/>
  <path fill="rgb(0,0,0)" stroke="none" d="M 15540,6324 L 15689,5876 15390,5876 15540,6324 Z"/>
  <text fill="rgb(0,0,0)" stroke="none" x="13943" y="5787">
   <tspan x="13943 14023 14180 14371 14544 14625 14688 14845 14989 15133 15213 15306 15463 15619 15776 15933 16077 16157 16237 16301 16445 16589 16745 16902 17059">[LBA lock request issued]</tspan></text>
  <path fill="rgb(128,128,128)" stroke="none" d="M 3483,10221 L 3483,10221 C 3377,10221 3272,10325 3272,10431 L 3272,11275 3272,11275 C 3272,11381 3377,11486 3483,11486 L 8770,11486 8770,11486 C 8876,11486 8982,11381 8982,11275 L 8982,10431 8982,10431 C 8982,10325 8876,10221 8770,10221 L 3483,10221 Z"/>
  <path fill="none" stroke="rgb(128,128,128)" d="M 3483,10221 L 3483,10221 C 3377,10221 3272,10325 3272,10431 L 3272,11275 3272,11275 C 3272,11381 3377,11486 3483,11486 L 8770,11486 8770,11486 C 8876,11486 8982,11381 8982,11275 L 8982,10431 8982,10431 C 8982,10325 8876,10221 8770,10221 L 3483,10221 Z"/>
 </g>
 <g fill="rgb(128,128,128)" stroke="none" font-family="Arial" font-size="352" font-style="normal" font-weight="400">
  <text x="3903" y="10813">
   <tspan x="3903 4136 4390 4665 4919 5152 5385 5618 5812 6066 6274 6468 6701 6896 7112 7366 7599 7891 8124">PROCESS_DATA_FRAMES</tspan></text>
  <path d="M 3903,10845 L 8321,10845 8321,10865 3903,10865 Z"/>
 </g>
 <g fill="rgb(128,128,128)" stroke="none" font-family="Arial" font-size="281" font-style="normal" font-weight="400">
  <text x="4296" y="11142">
   <tspan x="4296 4453 4609 4690 4753 4897 5041 5198 5354 5435 5591 5748 5828 5985 6066 6146 6239 6396 6637 6794 6874 6967 7124 7281 7437 7594 7738 7818">do/issue data frame requests</tspan></text>
  <path fill="rgb(153,204,255)" stroke="none" d="M 3381,10119 L 3381,10119 C 3275,10119 3170,10223 3170,10329 L 3170,11174 3170,11174 C 3170,11279 3275,11385 3381,11385 L 8668,11385 8668,11385 C 8774,11385 8880,11279 8880,11174 L 8880,10329 8880,10329 C 8880,10223 8774,10119 8668,10119 L 3381,10119 Z"/>
  <path fill="none" stroke="rgb(0,0,0)" d="M 3381,10119 L 3381,10119 C 3275,10119 3170,10223 3170,10329 L 3170,11174 3170,11174 C 3170,11279 3275,11385 3381,11385 L 8668,11385 8668,11385 C 8774,11385 8880,11279 8880,11174 L 8880,10329 8880,10329 C 8880,10223 8774,10119 8668,10119 L 3381,10119 Z"/>
 </g>
 <g fill="rgb(0,0,0)" stroke="none" font-family="Arial" font-size="352" font-style="normal" font-weight="400">
  <text x="3801" y="10712">
   <tspan x="3801 4034 4288 4563 4817 5050 5283 5516 5710 5964 6172 6366 6599 6794 7010 7264 7497 7789 8022">PROCESS_DATA_FRAMES</tspan></text>
  <path d="M 3801,10744 L 8219,10744 8219,10764 3801,10764 Z"/>
 </g>
 <g fill="rgb(0,0,0)" stroke="none" font-family="Arial" font-size="281" font-style="normal" font-weight="400">
  <text x="4194" y="11040">
   <tspan x="4194 4351 4507 4588 4651 4795 4939 5096 5252 5333 5489 5646 5726 5883 5964 6044 6137 6294 6535 6692 6772 6865 7022 7179 7335 7492 7636 7716">do/issue data frame requests</tspan></text>
  <path fill="none" stroke="rgb(0,0,0)" d="M 13637,10119 L 13637,10119 C 13637,7647 6697,7652 6070,9799"/>
  <path fill="rgb(0,0,0)" stroke="none" d="M 6025,10119 L 6253,9705 5958,9651 6025,10119 Z"/>
  <text fill="rgb(0,0,0)" stroke="none" x="7888" y="9286">
   <tspan x="7888 7968 8159 8362 8548 8629 8692 8756 8900 8980 9061 9141 9234 9391 9547 9691 9772 9928 10022 10115 10271 10428 10508 10589 10682 10839 11080 11160 11317 11474 11618 11698">[PRP list transferred from host]</tspan></text>
  <path fill="rgb(128,128,128)" stroke="none" d="M 1580,6426 L 1580,6426 C 1474,6426 1369,6530 1369,6636 L 1369,7481 1369,7481 C 1369,7586 1474,7692 1580,7692 L 6867,7692 6867,7692 C 6973,7692 7079,7586 7079,7481 L 7079,6636 7079,6636 C 7079,6530 6973,6426 6867,6426 L 1580,6426 Z"/>
  <path fill="none" stroke="rgb(128,128,128)" d="M 1580,6426 L 1580,6426 C 1474,6426 1369,6530 1369,6636 L 1369,7481 1369,7481 C 1369,7586 1474,7692 1580,7692 L 6867,7692 6867,7692 C 6973,7692 7079,7586 7079,7481 L 7079,6636 7079,6636 C 7079,6530 6973,6426 6867,6426 L 1580,6426 Z"/>
 </g>
 <g fill="rgb(128,128,128)" stroke="none" font-family="Arial" font-size="352" font-style="normal" font-weight="400">
  <text x="1943" y="7019">
   <tspan x="1943 2282 2515 2612 2832 3027 3243 3518 3772 3967 4221 4428 4623 4856 5050 5266 5520 5753 6045 6278">WAIT_FOR_DATA_FRAMES</tspan></text>
  <path d="M 1943,7051 L 6413,7051 6413,7071 1943,7071 Z"/>
 </g>
 <g fill="rgb(128,128,128)" stroke="none" font-family="Arial" font-size="281" font-style="normal" font-weight="400">
  <text x="3778" y="7347">
   <tspan x="3778 3935 4091 4172 4371 4527 4591">do/wait</tspan></text>
  <path fill="rgb(153,204,255)" stroke="none" d="M 1478,6324 L 1478,6324 C 1372,6324 1268,6429 1268,6534 L 1268,7379 1268,7379 C 1268,7485 1372,7590 1478,7590 L 6765,7590 6765,7590 C 6871,7590 6977,7485 6977,7379 L 6977,6534 6977,6534 C 6977,6429 6871,6324 6765,6324 L 1478,6324 Z"/>
  <path fill="none" stroke="rgb(0,0,0)" d="M 1478,6324 L 1478,6324 C 1372,6324 1268,6429 1268,6534 L 1268,7379 1268,7379 C 1268,7485 1372,7590 1478,7590 L 6765,7590 6765,7590 C 6871,7590 6977,7485 6977,7379 L 6977,6534 6977,6534 C 6977,6429 6871,6324 6765,6324 L 1478,6324 Z"/>
 </g>
 <g fill="rgb(0,0,0)" stroke="none" font-family="Arial" font-size="352" font-style="normal" font-weight="400">
  <text x="1841" y="6917">
   <tspan x="1841 2180 2413 2510 2730 2925 3141 3416 3670 3865 4119 4326 4521 4754 4948 5164 5418 5651 5943 6176">WAIT_FOR_DATA_FRAMES</tspan></text>
  <path d="M 1841,6949 L 6311,6949 6311,6969 1841,6969 Z"/>
 </g>
 <g fill="rgb(0,0,0)" stroke="none" font-family="Arial" font-size="281" font-style="normal" font-weight="400">
  <text x="3676" y="7246">
   <tspan x="3676 3833 3989 4070 4269 4425 4489">do/wait</tspan></text>
  <path fill="none" stroke="rgb(0,0,0)" d="M 3171,10751 L 3171,10751 C 2419,10751 2545,9828 2970,9531 3394,9235 4025,9522 4112,7959"/>
  <path fill="rgb(0,0,0)" stroke="none" d="M 4122,7589 L 3958,8032 4257,8042 4122,7589 Z"/>
  <text fill="rgb(0,0,0)" stroke="none" x="1383" y="9265">
   <tspan x="1383 1463 1654 1717 1781 1861 2018 2175 2255 2412 2492 2573 2666 2822 3064 3220 3301 3394 3550 3707 3864 4020 4164 4245 4389 4469 4533 4677 4820 4977 5134 5290">[All data frame requests issued]</tspan></text>
  <path fill="rgb(128,128,128)" stroke="none" d="M 1580,3896 L 1580,3896 C 1474,3896 1369,4001 1369,4106 L 1369,4951 1369,4951 C 1369,5056 1474,5162 1580,5162 L 6867,5162 6867,5162 C 6973,5162 7079,5056 7079,4951 L 7079,4106 7079,4106 C 7079,4001 6973,3896 6867,3896 L 1580,3896 Z"/>
  <path fill="none" stroke="rgb(128,128,128)" d="M 1580,3896 L 1580,3896 C 1474,3896 1369,4001 1369,4106 L 1369,4951 1369,4951 C 1369,5056 1474,5162 1580,5162 L 6867,5162 6867,5162 C 6973,5162 7079,5056 7079,4951 L 7079,4106 7079,4106 C 7079,4001 6973,3896 6867,3896 L 1580,3896 Z"/>
 </g>
 <g fill="rgb(128,128,128)" stroke="none" font-family="Arial" font-size="352" font-style="normal" font-weight="400">
  <text x="1714" y="4330">
   <tspan x="1714 2053 2286 2383 2603 2798 3014 3289 3543 3738 3992 4267 4461 4715 4948 5202 5410 5630 5863 6057 6311 6544">WAIT_FOR_CQ_UPDATE_CPL</tspan></text>
  <path d="M 1714,4362 L 6555,4362 6555,4382 1714,4382 Z"/>
 </g>
 <g fill="rgb(128,128,128)" stroke="none" font-family="Arial" font-size="281" font-style="normal" font-weight="400">
  <text x="2930" y="4659">
   <tspan x="2930 3087 3243 3324 3417 3573 3637 3794 3950 4094 4251 4331 4488 4678 4852 4932 4996 5153 5296 5440">do/release LBA lock,</tspan></text>
  <text fill="rgb(128,128,128)" stroke="none" x="2433" y="4976">
   <tspan x="2433 2497 2640 2784 2941 3098 3178 3381 3538 3601 3822 3978 4135 4291 4448 4651 4808 4965 5121 5202 5358 5439 5519 5718 5875 5938">issue CplQueueUpdate, wait</tspan></text>
  <path fill="rgb(153,204,255)" stroke="none" d="M 1478,3795 L 1478,3795 C 1372,3795 1268,3899 1268,4005 L 1268,4849 1268,4849 C 1268,4955 1372,5060 1478,5060 L 6765,5060 6765,5060 C 6871,5060 6977,4955 6977,4849 L 6977,4005 6977,4005 C 6977,3899 6871,3795 6765,3795 L 1478,3795 Z"/>
  <path fill="none" stroke="rgb(0,0,0)" d="M 1478,3795 L 1478,3795 C 1372,3795 1268,3899 1268,4005 L 1268,4849 1268,4849 C 1268,4955 1372,5060 1478,5060 L 6765,5060 6765,5060 C 6871,5060 6977,4955 6977,4849 L 6977,4005 6977,4005 C 6977,3899 6871,3795 6765,3795 L 1478,3795 Z"/>
 </g>
 <g fill="rgb(0,0,0)" stroke="none" font-family="Arial" font-size="352" font-style="normal" font-weight="400">
  <text x="1612" y="4229">
   <tspan x="1612 1951 2184 2281 2501 2696 2912 3187 3441 3636 3890 4165 4359 4613 4846 5100 5308 5528 5761 5955 6209 6442">WAIT_FOR_CQ_UPDATE_CPL</tspan></text>
  <path d="M 1612,4261 L 6453,4261 6453,4281 1612,4281 Z"/>
 </g>
 <g fill="rgb(0,0,0)" stroke="none" font-family="Arial" font-size="281" font-style="normal" font-weight="400">
  <text x="2828" y="4557">
   <tspan x="2828 2985 3141 3222 3315 3471 3535 3692 3848 3992 4149 4229 4386 4576 4750 4830 4894 5051 5194 5338">do/release LBA lock,</tspan></text>
  <text fill="rgb(0,0,0)" stroke="none" x="2331" y="4874">
   <tspan x="2331 2395 2538 2682 2839 2996 3076 3279 3436 3499 3720 3876 4033 4189 4346 4549 4706 4863 5019 5100 5256 5337 5417 5616 5773 5836">issue CplQueueUpdate, wait</tspan></text>
  <path fill="none" stroke="rgb(0,0,0)" d="M 4122,6324 L 4122,5418"/>
  <path fill="rgb(0,0,0)" stroke="none" d="M 4122,5059 L 3973,5508 4272,5508 4122,5059 Z"/>
  <text fill="rgb(0,0,0)" stroke="none" x="2397" y="5787">
   <tspan x="2397 2477 2668 2731 2795 2875 3032 3189 3269 3426 3506 3587 3680 3836 4078 4234 4378 4459 4603 4759 5001 5157 5221 5377 5458 5614 5771">[All data frames completed]</tspan></text>
  <path fill="none" stroke="rgb(0,0,0)" d="M 4122,3795 L 4122,3795 C 4122,2951 4952,2586 6615,2535"/>
  <path fill="rgb(0,0,0)" stroke="none" d="M 6977,2530 L 6525,2389 6531,2688 6977,2530 Z"/>
  <text fill="rgb(0,0,0)" stroke="none" x="3596" y="3257">
   <tspan x="3596 3676 3880 4036 4100 4320 4477 4633 4790 4946 5150 5306 5463 5620 5700 5857 6060 6216 6280 6360 6454 6610 6754 6911 6974 7114 7271 7427">[CplQueueUpdateCpl received]</tspan></text>
  <path fill="rgb(128,128,128)" stroke="none" d="M 8663,733 L 8663,733 C 8843,733 8981,869 8981,1049 8981,1228 8843,1365 8663,1365 8483,1365 8347,1228 8347,1049 8347,869 8483,733 8663,733 Z"/>
  <path fill="none" stroke="rgb(128,128,128)" d="M 8663,733 L 8663,733 C 8843,733 8981,869 8981,1049 8981,1228 8843,1365 8663,1365 8483,1365 8347,1228 8347,1049 8347,869 8483,733 8663,733 Z"/>
  <path fill="rgb(128,128,128)" stroke="none" d="M 8559,918 L 8559,918 C 8578,918 8593,932 8593,951 8593,970 8578,985 8559,985 8540,985 8526,970 8526,951 8526,932 8540,918 8559,918 Z"/>
  <path fill="none" stroke="rgb(128,128,128)" d="M 8559,918 L 8559,918 C 8578,918 8593,932 8593,951 8593,970 8578,985 8559,985 8540,985 8526,970 8526,951 8526,932 8540,918 8559,918 Z"/>
  <path fill="rgb(128,128,128)" stroke="none" d="M 8764,918 L 8764,918 C 8783,918 8798,932 8798,951 8798,970 8783,985 8764,985 8745,985 8731,970 8731,951 8731,932 8745,918 8764,918 Z"/>
  <path fill="none" stroke="rgb(128,128,128)" d="M 8764,918 L 8764,918 C 8783,918 8798,932 8798,951 8798,970 8783,985 8764,985 8745,985 8731,970 8731,951 8731,932 8745,918 8764,918 Z"/>
  <path fill="none" stroke="rgb(128,128,128)" d="M 8489,1187 L 8489,1187 C 8601,1246 8726,1246 8838,1187"/>
  <path fill="rgb(153,204,255)" stroke="none" d="M 8561,631 L 8561,631 C 8741,631 8879,768 8879,947 8879,1126 8741,1264 8561,1264 8382,1264 8245,1126 8245,947 8245,768 8382,631 8561,631 Z"/>
  <path fill="none" stroke="rgb(0,0,0)" d="M 8561,631 L 8561,631 C 8741,631 8879,768 8879,947 8879,1126 8741,1264 8561,1264 8382,1264 8245,1126 8245,947 8245,768 8382,631 8561,631 Z"/>
  <path fill="rgb(122,163,204)" stroke="none" d="M 8457,817 L 8457,817 C 8476,817 8491,831 8491,850 8491,868 8476,883 8457,883 8438,883 8425,868 8425,850 8425,831 8438,817 8457,817 Z"/>
  <path fill="none" stroke="rgb(0,0,0)" d="M 8457,817 L 8457,817 C 8476,817 8491,831 8491,850 8491,868 8476,883 8457,883 8438,883 8425,868 8425,850 8425,831 8438,817 8457,817 Z"/>
  <path fill="rgb(122,163,204)" stroke="none" d="M 8662,817 L 8662,817 C 8681,817 8696,831 8696,850 8696,868 8681,883 8662,883 8643,883 8629,868 8629,850 8629,831 8643,817 8662,817 Z"/>
  <path fill="none" stroke="rgb(0,0,0)" d="M 8662,817 L 8662,817 C 8681,817 8696,831 8696,850 8696,868 8681,883 8662,883 8643,883 8629,868 8629,850 8629,831 8643,817 8662,817 Z"/>
  <path fill="none" stroke="rgb(0,0,0)" d="M 8388,1086 L 8388,1086 C 8499,1144 8624,1144 8736,1086"/>
  <path fill="none" stroke="rgb(0,0,0)" d="M 8880,949 L 8880,949 C 9514,949 9685,1147 9790,1543"/>
  <path fill="rgb(0,0,0)" stroke="none" d="M 9831,1897 L 9910,1431 9614,1477 9831,1897 Z"/>
  <path fill="rgb(128,128,128)" stroke="none" d="M 12997,3896 L 12997,3896 C 12891,3896 12787,4001 12787,4106 L 12787,4951 12787,4951 C 12787,5056 12891,5162 12997,5162 L 18284,5162 18284,5162 C 18390,5162 18496,5056 18496,4951 L 18496,4106 18496,4106 C 18496,4001 18390,3896 18284,3896 L 12997,3896 Z"/>
  <path fill="none" stroke="rgb(128,128,128)" d="M 12997,3896 L 12997,3896 C 12891,3896 12787,4001 12787,4106 L 12787,4951 12787,4951 C 12787,5056 12891,5162 12997,5162 L 18284,5162 18284,5162 C 18390,5162 18496,5056 18496,4951 L 18496,4106 18496,4106 C 18496,4001 18390,3896 18284,3896 L 12997,3896 Z"/>
 </g>
 <g fill="rgb(128,128,128)" stroke="none" font-family="Arial" font-size="352" font-style="normal" font-weight="400">
  <text x="14059" y="4330">
   <tspan x="14059 14156 14410 14508 14728 14923 15177 15409 15702 15896 15994 16269 16464 16718 16950">INIT_NVM_IO_REQ</tspan></text>
  <path d="M 14059,4362 L 17048,4362 17048,4382 14059,4382 Z"/>
 </g>
 <g fill="rgb(128,128,128)" stroke="none" font-family="Arial" font-size="281" font-style="normal" font-weight="400">
  <text x="13720" y="4659">
   <tspan x="13720 13877 14033 14114 14270 14334 14397 14554 14698 14855 14935 15092 15172 15236 15392 15456 15536 15617 15760 15917 16158 16400 16556 16713 16870 16950 17094 17174 17331 17411">do/allocate/init command state</tspan></text>
  <text fill="rgb(128,128,128)" stroke="none" x="14079" y="4976">
   <tspan x="14079 14223 14303 14397 14553 14697 14778 14934 15027 15184 15264 15345 15408 15552 15696 15853 16009 16090 16246 16403 16547 16691 16894 17051">structure, issue LockReq</tspan></text>
  <path fill="rgb(153,204,255)" stroke="none" d="M 12895,3795 L 12895,3795 C 12790,3795 12685,3899 12685,4005 L 12685,4849 12685,4849 C 12685,4955 12790,5060 12895,5060 L 18183,5060 18183,5060 C 18288,5060 18394,4955 18394,4849 L 18394,4005 18394,4005 C 18394,3899 18288,3795 18183,3795 L 12895,3795 Z"/>
  <path fill="none" stroke="rgb(0,0,0)" d="M 12895,3795 L 12895,3795 C 12790,3795 12685,3899 12685,4005 L 12685,4849 12685,4849 C 12685,4955 12790,5060 12895,5060 L 18183,5060 18183,5060 C 18288,5060 18394,4955 18394,4849 L 18394,4005 18394,4005 C 18394,3899 18288,3795 18183,3795 L 12895,3795 Z"/>
 </g>
 <g fill="rgb(0,0,0)" stroke="none" font-family="Arial" font-size="352" font-style="normal" font-weight="400">
  <text x="13957" y="4229">
   <tspan x="13957 14054 14308 14406 14626 14821 15075 15307 15600 15794 15892 16167 16362 16616 16848">INIT_NVM_IO_REQ</tspan></text>
  <path d="M 13957,4261 L 16946,4261 16946,4281 13957,4281 Z"/>
 </g>
 <g fill="rgb(0,0,0)" stroke="none" font-family="Arial" font-size="281" font-style="normal" font-weight="400">
  <text x="13618" y="4557">
   <tspan x="13618 13775 13931 14012 14168 14232 14295 14452 14596 14753 14833 14990 15070 15134 15290 15354 15434 15515 15658 15815 16056 16298 16454 16611 16768 16848 16992 17072 17229 17309">do/allocate/init command state</tspan></text>
  <text fill="rgb(0,0,0)" stroke="none" x="13977" y="4874">
   <tspan x="13977 14121 14201 14295 14451 14595 14676 14832 14925 15082 15162 15243 15306 15450 15594 15751 15907 15988 16144 16301 16445 16589 16792 16949">structure, issue LockReq</tspan></text>
 </g>
 <g fill="rgb(0,0,0)" stroke="none" font-family="Arial" font-size="632" font-style="normal" font-weight="400">
  <text x="7227" y="18403">
   <tspan x="7227 7683 8035 8386 8737 8915 9503 9714 9854 10032 10383 10561 11005 11145 11323 11674 11852 12275 12732 13142 13320 13460 13599 13917 14095 14273 14696 14874 15225 15403 15754 15919 16288 16499 16851 17202 17519 17659 17837 17977 18328 18679">Read Write with PRP list State Transitions</tspan></text>
  <path fill="rgb(128,128,128)" stroke="none" d="M 11095,10221 L 11095,10221 C 10989,10221 10884,10325 10884,10431 L 10884,11275 10884,11275 C 10884,11381 10989,11486 11095,11486 L 16382,11486 16382,11486 C 16487,11486 16593,11381 16593,11275 L 16593,10431 16593,10431 C 16593,10325 16487,10221 16382,10221 L 11095,10221 Z"/>
  <path fill="none" stroke="rgb(128,128,128)" d="M 11095,10221 L 11095,10221 C 10989,10221 10884,10325 10884,10431 L 10884,11275 10884,11275 C 10884,11381 10989,11486 11095,11486 L 16382,11486 16382,11486 C 16487,11486 16593,11381 16593,11275 L 16593,10431 16593,10431 C 16593,10325 16487,10221 16382,10221 L 11095,10221 Z"/>
 </g>
 <g fill="rgb(128,128,128)" stroke="none" font-family="Arial" font-size="352" font-style="normal" font-weight="400">
  <text x="11899" y="10655">
   <tspan x="11899 12238 12471 12568 12788 12983 13199 13474 13728 13923 14155 14409 14642 14837 15032 15129 15362">WAIT_FOR_PRP_LIST</tspan></text>
  <path d="M 11899,10687 L 15417,10687 15417,10707 11899,10707 Z"/>
 </g>
 <g fill="rgb(128,128,128)" stroke="none" font-family="Arial" font-size="281" font-style="normal" font-weight="400">
  <text x="10975" y="10983">
   <tspan x="10975 11132 11288 11369 11432 11576 11720 11877 12033 12114 12317 12550 12723 12804 12897 13054 13210 13367 13523 13667 13748 13828 13909 14065 14146 14226 14383 14463 14607 14764 14844 15035 15238 15424 15505 15568 15632 15776 15856 15936 16017 16110 16267">do/issue DMA request to fetch PRP list from</tspan></text>
  <text fill="rgb(128,128,128)" stroke="none" x="12597" y="11300">
   <tspan x="12597 12754 12910 13054 13135 13215 13456 13613 13854 14011 14104 14223 14303 14383 14582 14739 14803">host memory, wait</tspan></text>
  <path fill="rgb(153,204,255)" stroke="none" d="M 10993,10119 L 10993,10119 C 10887,10119 10782,10223 10782,10329 L 10782,11174 10782,11174 C 10782,11279 10887,11385 10993,11385 L 16280,11385 16280,11385 C 16386,11385 16491,11279 16491,11174 L 16491,10329 16491,10329 C 16491,10223 16386,10119 16280,10119 L 10993,10119 Z"/>
  <path fill="none" stroke="rgb(0,0,0)" d="M 10993,10119 L 10993,10119 C 10887,10119 10782,10223 10782,10329 L 10782,11174 10782,11174 C 10782,11279 10887,11385 10993,11385 L 16280,11385 16280,11385 C 16386,11385 16491,11279 16491,11174 L 16491,10329 16491,10329 C 16491,10223 16386,10119 16280,10119 L 10993,10119 Z"/>
 </g>
 <g fill="rgb(0,0,0)" stroke="none" font-family="Arial" font-size="352" font-style="normal" font-weight="400">
  <text x="11797" y="10553">
   <tspan x="11797 12136 12369 12466 12686 12881 13097 13372 13626 13821 14053 14307 14540 14735 14930 15027 15260">WAIT_FOR_PRP_LIST</tspan></text>
  <path d="M 11797,10585 L 15315,10585 15315,10605 11797,10605 Z"/>
 </g>
 <g fill="rgb(0,0,0)" stroke="none" font-family="Arial" font-size="281" font-style="normal" font-weight="400">
  <text x="10873" y="10882">
   <tspan x="10873 11030 11186 11267 11330 11474 11618 11775 11931 12012 12215 12448 12621 12702 12795 12952 13108 13265 13421 13565 13646 13726 13807 13963 14044 14124 14281 14361 14505 14662 14742 14933 15136 15322 15403 15466 15530 15674 15754 15834 15915 16008 16165">do/issue DMA request to fetch PRP list from</tspan></text>
  <text fill="rgb(0,0,0)" stroke="none" x="12495" y="11199">
   <tspan x="12495 12652 12808 12952 13033 13113 13354 13511 13752 13909 14002 14121 14201 14281 14480 14637 14701">host memory, wait</tspan></text>
  <path fill="none" stroke="rgb(0,0,0)" d="M 15540,7589 L 15540,7589 C 15540,9564 16317,9235 16781,9531 17246,9828 17339,10475 16843,10689"/>
  <path fill="rgb(0,0,0)" stroke="none" d="M 16491,10751 L 16964,10792 16894,10501 16491,10751 Z"/>
  <text fill="rgb(0,0,0)" stroke="none" x="15192" y="9265">
   <tspan x="15192 15272 15429 15620 15793 15874 15937 16094 16238 16382 16462 16619 16712 16868 17025 17105 17262 17419">[LBA lock granted]</tspan></text>
  <path fill="rgb(128,128,128)" stroke="none" d="M 7289,12750 L 7289,12750 C 7183,12750 7078,12855 7078,12960 L 7078,13805 7078,13805 C 7078,13911 7183,14016 7289,14016 L 12576,14016 12576,14016 C 12682,14016 12788,13911 12788,13805 L 12788,12960 12788,12960 C 12788,12855 12682,12750 12576,12750 L 7289,12750 Z"/>
  <path fill="none" stroke="rgb(128,128,128)" d="M 7289,12750 L 7289,12750 C 7183,12750 7078,12855 7078,12960 L 7078,13805 7078,13805 C 7078,13911 7183,14016 7289,14016 L 12576,14016 12576,14016 C 12682,14016 12788,13911 12788,13805 L 12788,12960 12788,12960 C 12788,12855 12682,12750 12576,12750 L 7289,12750 Z"/>
 </g>
 <g fill="rgb(128,128,128)" stroke="none" font-family="Arial" font-size="352" font-style="normal" font-weight="400">
  <text x="7499" y="13184">
   <tspan x="7499 7838 8071 8168 8388 8583 8799 9074 9328 9523 9755 10009 10242 10437 10632 10729 10962 11182 11377 11610 11864 12118">WAIT_FOR_PRP_LIST_ADDR</tspan></text>
  <path d="M 7499,13216 L 12155,13216 12155,13236 7499,13236 Z"/>
 </g>
 <g fill="rgb(128,128,128)" stroke="none" font-family="Arial" font-size="281" font-style="normal" font-weight="400">
  <text x="7839" y="13513">
   <tspan x="7839 7996 8152 8233 8296 8440 8584 8741 8897 8978 9134 9291 9371 9528 9609 9765 9922 10002 10201 10358 10451 10595 10675 10768 10925 11082 11238 11395 11539 11619 11700 11780 11937">do/issue data network request for</tspan></text>
  <text fill="rgb(128,128,128)" stroke="none" x="8884" y="13830">
   <tspan x="8884 9075 9278 9464 9544 9608 9671 9815 9896 9976 10133 10289 10446 10539 10696 10840">PRP list address</tspan></text>
  <path fill="rgb(153,204,255)" stroke="none" d="M 7187,12649 L 7187,12649 C 7081,12649 6976,12753 6976,12859 L 6976,13703 6976,13703 C 6976,13809 7081,13915 7187,13915 L 12474,13915 12474,13915 C 12580,13915 12686,13809 12686,13703 L 12686,12859 12686,12859 C 12686,12753 12580,12649 12474,12649 L 7187,12649 Z"/>
  <path fill="none" stroke="rgb(0,0,0)" d="M 7187,12649 L 7187,12649 C 7081,12649 6976,12753 6976,12859 L 6976,13703 6976,13703 C 6976,13809 7081,13915 7187,13915 L 12474,13915 12474,13915 C 12580,13915 12686,13809 12686,13703 L 12686,12859 12686,12859 C 12686,12753 12580,12649 12474,12649 L 7187,12649 Z"/>
 </g>
 <g fill="rgb(0,0,0)" stroke="none" font-family="Arial" font-size="352" font-style="normal" font-weight="400">
  <text x="7397" y="13083">
   <tspan x="7397 7736 7969 8066 8286 8481 8697 8972 9226 9421 9653 9907 10140 10335 10530 10627 10860 11080 11275 11508 11762 12016">WAIT_FOR_PRP_LIST_ADDR</tspan></text>
  <path d="M 7397,13115 L 12053,13115 12053,13135 7397,13135 Z"/>
 </g>
 <g fill="rgb(0,0,0)" stroke="none" font-family="Arial" font-size="281" font-style="normal" font-weight="400">
  <text x="7737" y="13412">
   <tspan x="7737 7894 8050 8131 8194 8338 8482 8639 8795 8876 9032 9189 9269 9426 9507 9663 9820 9900 10099 10256 10349 10493 10573 10666 10823 10980 11136 11293 11437 11517 11598 11678 11835">do/issue data network request for</tspan></text>
  <text fill="rgb(0,0,0)" stroke="none" x="8782" y="13728">
   <tspan x="8782 8973 9176 9362 9442 9506 9569 9713 9794 9874 10031 10187 10344 10437 10594 10738">PRP list address</tspan></text>
  <path fill="none" stroke="rgb(0,0,0)" d="M 6025,11384 L 6025,11384 C 6025,12649 6227,12999 6632,13203"/>
  <path fill="rgb(0,0,0)" stroke="none" d="M 6977,13281 L 6588,13012 6504,13299 6977,13281 Z"/>
  <text fill="rgb(0,0,0)" stroke="none" x="4915" y="12428">
   <tspan x="4915 4995 5186 5343 5499 5580 5736 5817 5897 6088 6291 6477 6558 6621 6685 6828 6909 6989 7082 7239 7396 7540 7696 7853 8010">[End of PRP list reached]</tspan></text>
  <path fill="none" stroke="rgb(0,0,0)" d="M 12686,13281 L 12686,13281 C 13320,13281 13571,12767 13628,11740"/>
  <path fill="rgb(0,0,0)" stroke="none" d="M 13637,11384 L 13472,11827 13771,11837 13637,11384 Z"/>
  <text fill="rgb(0,0,0)" stroke="none" x="11527" y="12428">
   <tspan x="11527 11607 11798 12001 12187 12268 12331 12395 12539 12619 12700 12856 13013 13170 13263 13419 13563 13707 13788 13868 14025 14105 14249 14406 14562 14719">[PRP list address fetched]</tspan></text>
 </g>
</svg>