<?xml version="1.0" encoding="UTF-8"?><!DOCTYPE svg PUBLIC "-//W3C//DTD SVG 1.1//EN" "/SysSchema/SVG11/svg11.dtd">
<svg xmlns:xlink="http://www.w3.org/1999/xlink" xmlns="http://www.w3.org/2000/svg" width="259mm" height="196mm" viewBox="0 0 25900 19600" stroke-width="28.222" stroke-linejoin="round" xml:space="preserve" preserveAspectRatio="xMidYMid meet" zoomAndPan="magnify" version="1.1" contentScriptType="text/ecmascript" contentStyleType="text/css">
 <path fill="rgb(128,128,128)" stroke="none" d="M 10693,5793 L 10693,5793 C 10165,5793 9636,6320 9636,6847 L 9636,11064 9636,11064 C 9636,11591 10165,12119 10693,12119 L 16825,12119 16825,12119 C 17353,12119 17883,11591 17883,11064 L 17883,6847 17883,6847 C 17883,6320 17353,5793 16825,5793 L 10693,5793 Z"/>
 <path fill="none" stroke="rgb(128,128,128)" d="M 10693,5793 L 10693,5793 C 10165,5793 9636,6320 9636,6847 L 9636,11064 9636,11064 C 9636,11591 10165,12119 10693,12119 L 16825,12119 16825,12119 C 17353,12119 17883,11591 17883,11064 L 17883,6847 17883,6847 C 17883,6320 17353,5793 16825,5793 L 10693,5793 Z"/>
 <path fill="rgb(153,204,255)" stroke="none" d="M 10591,5692 L 10591,5692 C 10063,5692 9534,6219 9534,6746 L 9534,10962 9534,10962 C 9534,11489 10063,12017 10591,12017 L 16723,12017 16723,12017 C 17252,12017 17781,11489 17781,10962 L 17781,6746 17781,6746 C 17781,6219 17252,5692 16723,5692 L 10591,5692 Z"/>
 <path fill="none" stroke="rgb(0,0,0)" d="M 10591,5692 L 10591,5692 C 10063,5692 9534,6219 9534,6746 L 9534,10962 9534,10962 C 9534,11489 10063,12017 10591,12017 L 16723,12017 16723,12017 C 17252,12017 17781,11489 17781,10962 L 17781,6746 17781,6746 C 17781,6219 17252,5692 16723,5692 L 10591,5692 Z"/>
 <path fill="rgb(128,128,128)" stroke="none" d="M 11729,1366 L 11729,1366 C 11623,1366 11518,1471 11518,1577 L 11518,2421 11518,2421 C 11518,2527 11623,2632 11729,2632 L 15747,2632 15747,2632 C 15853,2632 15959,2527 15959,2421 L 15959,1577 15959,1577 C 15959,1471 15853,1366 15747,1366 L 11729,1366 Z"/>
 <path fill="none" stroke="rgb(128,128,128)" d="M 11729,1366 L 11729,1366 C 11623,1366 11518,1471 11518,1577 L 11518,2421 11518,2421 C 11518,2527 11623,2632 11729,2632 L 15747,2632 15747,2632 C 15853,2632 15959,2527 15959,2421 L 15959,1577 15959,1577 C 15959,1471 15853,1366 15747,1366 L 11729,1366 Z"/>
 <g fill="rgb(128,128,128)" stroke="none" font-family="Arial" font-size="352" font-style="normal" font-weight="400">
  <text x="13349" y="1801">
   <tspan x="13349 13446 13700 13895">IDLE</tspan></text>
  <path d="M 13349,1833 L 14089,1833 14089,1853 13349,1853 Z"/>
 </g>
 <g fill="rgb(128,128,128)" stroke="none" font-family="Arial" font-size="281" font-style="normal" font-weight="400">
  <text x="12161" y="2129">
   <tspan x="12161 12318 12474 12555 12635 12728 12885 13042 13122 13325 13482 13562 13719 13799 13973 14066 14223 14464 14621 14701 14845 14925 15082 15162">do/free Data Frame state</tspan></text>
  <text fill="rgb(128,128,128)" stroke="none" x="12857" y="2446">
   <tspan x="12857 13001 13081 13175 13331 13475 13556 13712 13805 13962 14042 14123 14322 14478 14542">structure, wait</tspan></text>
  <path fill="rgb(153,204,255)" stroke="none" d="M 11627,1265 L 11627,1265 C 11521,1265 11416,1369 11416,1475 L 11416,2320 11416,2320 C 11416,2425 11521,2531 11627,2531 L 15645,2531 15645,2531 C 15751,2531 15857,2425 15857,2320 L 15857,1475 15857,1475 C 15857,1369 15751,1265 15645,1265 L 11627,1265 Z"/>
  <path fill="none" stroke="rgb(0,0,0)" d="M 11627,1265 L 11627,1265 C 11521,1265 11416,1369 11416,1475 L 11416,2320 11416,2320 C 11416,2425 11521,2531 11627,2531 L 15645,2531 15645,2531 C 15751,2531 15857,2425 15857,2320 L 15857,1475 15857,1475 C 15857,1369 15751,1265 15645,1265 L 11627,1265 Z"/>
 </g>
 <g fill="rgb(0,0,0)" stroke="none" font-family="Arial" font-size="352" font-style="normal" font-weight="400">
  <text x="13247" y="1699">
   <tspan x="13247 13344 13598 13793">IDLE</tspan></text>
  <path d="M 13247,1731 L 13987,1731 13987,1751 13247,1751 Z"/>
 </g>
 <g fill="rgb(0,0,0)" stroke="none" font-family="Arial" font-size="281" font-style="normal" font-weight="400">
  <text x="12059" y="2028">
   <tspan x="12059 12216 12372 12453 12533 12626 12783 12940 13020 13223 13380 13460 13617 13697 13871 13964 14121 14362 14519 14599 14743 14823 14980 15060">do/free Data Frame state</tspan></text>
  <text fill="rgb(0,0,0)" stroke="none" x="12755" y="2344">
   <tspan x="12755 12899 12979 13073 13229 13373 13454 13610 13703 13860 13940 14021 14220 14376 14440">structure, wait</tspan></text>
  <path fill="rgb(128,128,128)" stroke="none" d="M 12469,101 L 12469,101 C 12649,101 12787,237 12787,416 12787,596 12649,733 12469,733 12289,733 12152,596 12152,416 12152,237 12289,101 12469,101 Z"/>
  <path fill="none" stroke="rgb(128,128,128)" d="M 12469,101 L 12469,101 C 12649,101 12787,237 12787,416 12787,596 12649,733 12469,733 12289,733 12152,596 12152,416 12152,237 12289,101 12469,101 Z"/>
  <path fill="rgb(128,128,128)" stroke="none" d="M 12365,286 L 12365,286 C 12384,286 12399,300 12399,319 12399,338 12384,353 12365,353 12346,353 12332,338 12332,319 12332,300 12346,286 12365,286 Z"/>
  <path fill="none" stroke="rgb(128,128,128)" d="M 12365,286 L 12365,286 C 12384,286 12399,300 12399,319 12399,338 12384,353 12365,353 12346,353 12332,338 12332,319 12332,300 12346,286 12365,286 Z"/>
  <path fill="rgb(128,128,128)" stroke="none" d="M 12570,286 L 12570,286 C 12589,286 12604,300 12604,319 12604,338 12589,353 12570,353 12551,353 12537,338 12537,319 12537,300 12551,286 12570,286 Z"/>
  <path fill="none" stroke="rgb(128,128,128)" d="M 12570,286 L 12570,286 C 12589,286 12604,300 12604,319 12604,338 12589,353 12570,353 12551,353 12537,338 12537,319 12537,300 12551,286 12570,286 Z"/>
  <path fill="none" stroke="rgb(128,128,128)" d="M 12295,555 L 12295,555 C 12407,614 12532,614 12644,555"/>
  <path fill="rgb(153,204,255)" stroke="none" d="M 12367,-1 L 12367,-1 C 12547,-1 12685,135 12685,315 12685,494 12547,631 12367,631 12187,631 12050,494 12050,315 12050,135 12187,-1 12367,-1 Z"/>
  <path fill="none" stroke="rgb(0,0,0)" d="M 12367,-1 L 12367,-1 C 12547,-1 12685,135 12685,315 12685,494 12547,631 12367,631 12187,631 12050,494 12050,315 12050,135 12187,-1 12367,-1 Z"/>
  <path fill="rgb(122,163,204)" stroke="none" d="M 12263,184 L 12263,184 C 12282,184 12297,198 12297,217 12297,236 12282,251 12263,251 12244,251 12230,236 12230,217 12230,198 12244,184 12263,184 Z"/>
  <path fill="none" stroke="rgb(0,0,0)" d="M 12263,184 L 12263,184 C 12282,184 12297,198 12297,217 12297,236 12282,251 12263,251 12244,251 12230,236 12230,217 12230,198 12244,184 12263,184 Z"/>
  <path fill="rgb(122,163,204)" stroke="none" d="M 12468,184 L 12468,184 C 12487,184 12502,198 12502,217 12502,236 12487,251 12468,251 12449,251 12435,236 12435,217 12435,198 12449,184 12468,184 Z"/>
  <path fill="none" stroke="rgb(0,0,0)" d="M 12468,184 L 12468,184 C 12487,184 12502,198 12502,217 12502,236 12487,251 12468,251 12449,251 12435,236 12435,217 12435,198 12449,184 12468,184 Z"/>
  <path fill="none" stroke="rgb(0,0,0)" d="M 12193,453 L 12193,453 C 12305,512 12430,512 12542,453"/>
  <path fill="none" stroke="rgb(0,0,0)" d="M 12686,317 L 12686,317 C 13320,317 13491,515 13596,910"/>
  <path fill="rgb(0,0,0)" stroke="none" d="M 13637,1265 L 13716,799 13420,845 13637,1265 Z"/>
  <path fill="none" stroke="rgb(0,0,0)" d="M 15857,1897 L 15857,1897 C 18183,1897 19106,2412 19312,3442"/>
  <path fill="rgb(0,0,0)" stroke="none" d="M 19345,3795 L 19440,3331 19142,3367 19345,3795 Z"/>
  <text fill="rgb(0,0,0)" stroke="none" x="15842" y="2941">
   <tspan x="15842 15922 16079 16172 16329 16473 16629 16773 16917 16998 17091 17247 17404 17561 17641 17844 18001 18081 18238 18319 18492 18585 18742 18983 19140 19284">[process read Data Frames]</tspan></text>
  <path fill="rgb(128,128,128)" stroke="none" d="M 17437,3896 L 17437,3896 C 17331,3896 17227,4001 17227,4106 L 17227,4951 17227,4951 C 17227,5056 17331,5162 17437,5162 L 21456,5162 21456,5162 C 21562,5162 21668,5056 21668,4951 L 21668,4106 21668,4106 C 21668,4001 21562,3896 21456,3896 L 17437,3896 Z"/>
  <path fill="none" stroke="rgb(128,128,128)" d="M 17437,3896 L 17437,3896 C 17331,3896 17227,4001 17227,4106 L 17227,4951 17227,4951 C 17227,5056 17331,5162 17437,5162 L 21456,5162 21456,5162 C 21562,5162 21668,5056 21668,4951 L 21668,4106 21668,4106 C 21668,4001 21562,3896 21456,3896 L 17437,3896 Z"/>
 </g>
 <g fill="rgb(128,128,128)" stroke="none" font-family="Arial" font-size="352" font-style="normal" font-weight="400">
  <text x="17288" y="4489">
   <tspan x="17288 17627 17860 17957 18177 18372 18588 18863 19117 19312 19527 19722 19955 20188 20442 20637 20891 21123 21356">WAIT_FOR_FLASH_READ</tspan></text>
  <path d="M 17288,4521 L 21467,4521 21467,4541 17288,4541 Z"/>
 </g>
 <g fill="rgb(128,128,128)" stroke="none" font-family="Arial" font-size="281" font-style="normal" font-weight="400">
  <text x="17305" y="4817">
   <tspan x="17305 17462 17618 17699 17762 17906 18050 18207 18363 18444 18537 18694 18850 19007 19087 19180 19337 19494 19650 19807 19951 20031 20112 20192 20349 20429 20603 20776 20933 21013 21094 21293 21449 21513">do/issue read request to FTL, wait</tspan></text>
  <path fill="rgb(153,204,255)" stroke="none" d="M 17335,3795 L 17335,3795 C 17230,3795 17125,3899 17125,4005 L 17125,4849 17125,4849 C 17125,4955 17230,5060 17335,5060 L 21354,5060 21354,5060 C 21460,5060 21566,4955 21566,4849 L 21566,4005 21566,4005 C 21566,3899 21460,3795 21354,3795 L 17335,3795 Z"/>
  <path fill="none" stroke="rgb(0,0,0)" d="M 17335,3795 L 17335,3795 C 17230,3795 17125,3899 17125,4005 L 17125,4849 17125,4849 C 17125,4955 17230,5060 17335,5060 L 21354,5060 21354,5060 C 21460,5060 21566,4955 21566,4849 L 21566,4005 21566,4005 C 21566,3899 21460,3795 21354,3795 L 17335,3795 Z"/>
 </g>
 <g fill="rgb(0,0,0)" stroke="none" font-family="Arial" font-size="352" font-style="normal" font-weight="400">
  <text x="17186" y="4387">
   <tspan x="17186 17525 17758 17855 18075 18270 18486 18761 19015 19210 19425 19620 19853 20086 20340 20535 20789 21021 21254">WAIT_FOR_FLASH_READ</tspan></text>
  <path d="M 17186,4419 L 21365,4419 21365,4439 17186,4439 Z"/>
 </g>
 <g fill="rgb(0,0,0)" stroke="none" font-family="Arial" font-size="281" font-style="normal" font-weight="400">
  <text x="17203" y="4716">
   <tspan x="17203 17360 17516 17597 17660 17804 17948 18105 18261 18342 18435 18592 18748 18905 18985 19078 19235 19392 19548 19705 19849 19929 20010 20090 20247 20327 20501 20674 20831 20911 20992 21191 21347 21411">do/issue read request to FTL, wait</tspan></text>
  <path fill="rgb(128,128,128)" stroke="none" d="M 6655,3896 L 6655,3896 C 6549,3896 6444,4001 6444,4106 L 6444,4951 6444,4951 C 6444,5056 6549,5162 6655,5162 L 10673,5162 10673,5162 C 10779,5162 10885,5056 10885,4951 L 10885,4106 10885,4106 C 10885,4001 10779,3896 10673,3896 L 6655,3896 Z"/>
  <path fill="none" stroke="rgb(128,128,128)" d="M 6655,3896 L 6655,3896 C 6549,3896 6444,4001 6444,4106 L 6444,4951 6444,4951 C 6444,5056 6549,5162 6655,5162 L 10673,5162 10673,5162 C 10779,5162 10885,5056 10885,4951 L 10885,4106 10885,4106 C 10885,4001 10779,3896 10673,3896 L 6655,3896 Z"/>
 </g>
 <g fill="rgb(128,128,128)" stroke="none" font-family="Arial" font-size="352" font-style="normal" font-weight="400">
  <text x="6678" y="4489">
   <tspan x="6678 7017 7250 7347 7567 7762 7978 8253 8507 8702 8934 9167 9400 9654 9874 10128 10420">WAIT_FOR_ESECTDMA</tspan></text>
  <path d="M 6678,4521 L 10513,4521 10513,4541 6678,4541 Z"/>
 </g>
 <g fill="rgb(128,128,128)" stroke="none" font-family="Arial" font-size="281" font-style="normal" font-weight="400">
  <text x="7112" y="4817">
   <tspan x="7112 7269 7425 7506 7569 7713 7857 8014 8170 8251 8441 8644 8877 9051 9131 9224 9381 9538 9694 9851 9995 10075">do/issue EDMA requests</tspan></text>
  <path fill="rgb(153,204,255)" stroke="none" d="M 6553,3795 L 6553,3795 C 6447,3795 6342,3899 6342,4005 L 6342,4849 6342,4849 C 6342,4955 6447,5060 6553,5060 L 10571,5060 10571,5060 C 10677,5060 10783,4955 10783,4849 L 10783,4005 10783,4005 C 10783,3899 10677,3795 10571,3795 L 6553,3795 Z"/>
  <path fill="none" stroke="rgb(0,0,0)" d="M 6553,3795 L 6553,3795 C 6447,3795 6342,3899 6342,4005 L 6342,4849 6342,4849 C 6342,4955 6447,5060 6553,5060 L 10571,5060 10571,5060 C 10677,5060 10783,4955 10783,4849 L 10783,4005 10783,4005 C 10783,3899 10677,3795 10571,3795 L 6553,3795 Z"/>
 </g>
 <g fill="rgb(0,0,0)" stroke="none" font-family="Arial" font-size="352" font-style="normal" font-weight="400">
  <text x="6577" y="4387">
   <tspan x="6577 6916 7149 7246 7466 7661 7877 8152 8406 8601 8833 9066 9299 9553 9773 10027 10319">WAIT_FOR_ESECTDMA</tspan></text>
  <path d="M 6577,4419 L 10412,4419 10412,4439 6577,4439 Z"/>
 </g>
 <g fill="rgb(0,0,0)" stroke="none" font-family="Arial" font-size="281" font-style="normal" font-weight="400">
  <text x="7010" y="4716">
   <tspan x="7010 7167 7323 7404 7467 7611 7755 7912 8068 8149 8339 8542 8775 8949 9029 9122 9279 9436 9592 9749 9893 9973">do/issue EDMA requests</tspan></text>
 </g>
 <g fill="rgb(0,0,0)" stroke="none" font-family="Arial" font-size="632" font-style="normal" font-weight="400">
  <text x="7227" y="18402">
   <tspan x="7227 7683 8035 8386 8737 8915 9338 9516 9868 10045 10397 10562 10930 11142 11493 11845 12162 12302 12480 12619 12971 13322 13640 13817 14417 14557 14735 15086 15264 15687 16144 16554 16732 17155 17507 17685 17896 18205 18383 18773 19124 19302 19619">Read State Transitions With PRP Entry Fetch</tspan></text>
  <path fill="none" stroke="rgb(0,0,0)" d="M 8562,3795 L 8562,3795 C 8562,2530 9392,1983 11056,1905"/>
  <path fill="rgb(0,0,0)" stroke="none" d="M 11417,1897 L 10964,1761 10972,2060 11417,1897 Z"/>
 </g>
 <g fill="rgb(0,0,0)" stroke="none" font-family="Arial" font-size="281" font-style="normal" font-weight="400">
  <text x="7831" y="2941">
   <tspan x="7831 7911 8102 8292 8483 8686 8860 9063 9296 9469 9550 9694 9850 10092 10248 10312 10468 10549 10612 10769 10926 11006 11099 11256 11400 11556 11620 11760 11916 12073">[ESECTDMA completion received]</tspan></text>
  <path fill="rgb(128,128,128)" stroke="none" d="M 11115,6426 L 11115,6426 C 11010,6426 10905,6530 10905,6636 L 10905,7481 10905,7481 C 10905,7586 11010,7692 11115,7692 L 16403,7692 16403,7692 C 16508,7692 16614,7586 16614,7481 L 16614,6636 16614,6636 C 16614,6530 16508,6426 16403,6426 L 11115,6426 Z"/>
  <path fill="none" stroke="rgb(128,128,128)" d="M 11115,6426 L 11115,6426 C 11010,6426 10905,6530 10905,6636 L 10905,7481 10905,7481 C 10905,7586 11010,7692 11115,7692 L 16403,7692 16403,7692 C 16508,7692 16614,7586 16614,7481 L 16614,6636 16614,6636 C 16614,6530 16508,6426 16403,6426 L 11115,6426 Z"/>
 </g>
 <g fill="rgb(128,128,128)" stroke="none" font-family="Arial" font-size="352" font-style="normal" font-weight="400">
  <text x="11093" y="6860">
   <tspan x="11093 11432 11665 11762 11982 12177 12393 12668 12922 13117 13332 13430 13684 13917 14137 14332 14564 14818 15051 15246 15479 15733 15953 16203">WAIT_FOR_FIRST_PRP_ENTRY</tspan></text>
  <path d="M 11093,6892 L 16198,6892 16198,6912 11093,6912 Z"/>
 </g>
 <g fill="rgb(128,128,128)" stroke="none" font-family="Arial" font-size="281" font-style="normal" font-weight="400">
  <text x="11653" y="7189">
   <tspan x="11653 11810 11966 12047 12110 12254 12398 12555 12711 12792 12885 13042 13198 13355 13435 13592 13672 13753 13833 13990 14146 14227 14430 14587 14667 14824 14904 15078 15171 15328 15569 15725">do/issue read of the Data Frames</tspan></text>
  <text fill="rgb(128,128,128)" stroke="none" x="12526" y="7506">
   <tspan x="12526 12606 12670 12763 12907 12987 13068 13258 13462 13648 13728 13885 14042 14122 14215 14334 14414 14495 14693 14850 14914">first PRP entry, wait</tspan></text>
  <path fill="rgb(153,204,255)" stroke="none" d="M 11014,6324 L 11014,6324 C 10908,6324 10803,6429 10803,6534 L 10803,7379 10803,7379 C 10803,7485 10908,7590 11014,7590 L 16301,7590 16301,7590 C 16407,7590 16512,7485 16512,7379 L 16512,6534 16512,6534 C 16512,6429 16407,6324 16301,6324 L 11014,6324 Z"/>
  <path fill="none" stroke="rgb(0,0,0)" d="M 11014,6324 L 11014,6324 C 10908,6324 10803,6429 10803,6534 L 10803,7379 10803,7379 C 10803,7485 10908,7590 11014,7590 L 16301,7590 16301,7590 C 16407,7590 16512,7485 16512,7379 L 16512,6534 16512,6534 C 16512,6429 16407,6324 16301,6324 L 11014,6324 Z"/>
 </g>
 <g fill="rgb(0,0,0)" stroke="none" font-family="Arial" font-size="352" font-style="normal" font-weight="400">
  <text x="10991" y="6759">
   <tspan x="10991 11330 11563 11660 11880 12075 12291 12566 12820 13015 13230 13328 13582 13815 14035 14230 14462 14716 14949 15144 15377 15631 15851 16101">WAIT_FOR_FIRST_PRP_ENTRY</tspan></text>
  <path d="M 10991,6791 L 16096,6791 16096,6811 10991,6811 Z"/>
 </g>
 <g fill="rgb(0,0,0)" stroke="none" font-family="Arial" font-size="281" font-style="normal" font-weight="400">
  <text x="11551" y="7087">
   <tspan x="11551 11708 11864 11945 12008 12152 12296 12453 12609 12690 12783 12940 13096 13253 13333 13490 13570 13651 13731 13888 14044 14125 14328 14485 14565 14722 14802 14976 15069 15226 15467 15623">do/issue read of the Data Frames</tspan></text>
  <text fill="rgb(0,0,0)" stroke="none" x="12424" y="7404">
   <tspan x="12424 12504 12568 12661 12805 12885 12966 13156 13360 13546 13626 13783 13940 14020 14113 14232 14312 14393 14591 14748 14812">first PRP entry, wait</tspan></text>
  <path fill="rgb(128,128,128)" stroke="none" d="M 11115,8323 L 11115,8323 C 11010,8323 10905,8428 10905,8533 L 10905,9378 10905,9378 C 10905,9483 11010,9589 11115,9589 L 16403,9589 16403,9589 C 16508,9589 16614,9483 16614,9378 L 16614,8533 16614,8533 C 16614,8428 16508,8323 16403,8323 L 11115,8323 Z"/>
  <path fill="none" stroke="rgb(128,128,128)" d="M 11115,8323 L 11115,8323 C 11010,8323 10905,8428 10905,8533 L 10905,9378 10905,9378 C 10905,9483 11010,9589 11115,9589 L 16403,9589 16403,9589 C 16508,9589 16614,9483 16614,9378 L 16614,8533 16614,8533 C 16614,8428 16508,8323 16403,8323 L 11115,8323 Z"/>
 </g>
 <g fill="rgb(128,128,128)" stroke="none" font-family="Arial" font-size="352" font-style="normal" font-weight="400">
  <text x="10852" y="8757">
   <tspan x="10852 11191 11424 11521 11741 11936 12152 12427 12681 12876 13108 13341 13595 13870 14124 14378 14573 14806 15060 15293 15488 15720 15974 16194 16444">WAIT_FOR_SECOND_PRP_ENTRY</tspan></text>
  <path d="M 10852,8789 L 16460,8789 16460,8809 10852,8809 Z"/>
 </g>
 <g fill="rgb(128,128,128)" stroke="none" font-family="Arial" font-size="281" font-style="normal" font-weight="400">
  <text x="11654" y="9086">
   <tspan x="11654 11811 11967 12048 12111 12255 12399 12556 12712 12793 12886 13043 13199 13356 13436 13593 13673 13754 13834 13991 14147 14228 14431 14588 14668 14825 14905 15079 15172 15329 15570 15726">do/issue read of the Data Frames</tspan></text>
  <text fill="rgb(128,128,128)" stroke="none" x="12300" y="9403">
   <tspan x="12300 12444 12601 12745 12901 13058 13214 13295 13485 13689 13875 13955 14112 14269 14349 14442 14561 14641 14721 14920 15077 15141">second PRP entry, wait</tspan></text>
  <path fill="rgb(153,204,255)" stroke="none" d="M 11014,8222 L 11014,8222 C 10908,8222 10803,8326 10803,8432 L 10803,9276 10803,9276 C 10803,9382 10908,9487 11014,9487 L 16301,9487 16301,9487 C 16407,9487 16512,9382 16512,9276 L 16512,8432 16512,8432 C 16512,8326 16407,8222 16301,8222 L 11014,8222 Z"/>
  <path fill="none" stroke="rgb(0,0,0)" d="M 11014,8222 L 11014,8222 C 10908,8222 10803,8326 10803,8432 L 10803,9276 10803,9276 C 10803,9382 10908,9487 11014,9487 L 16301,9487 16301,9487 C 16407,9487 16512,9382 16512,9276 L 16512,8432 16512,8432 C 16512,8326 16407,8222 16301,8222 L 11014,8222 Z"/>
 </g>
 <g fill="rgb(0,0,0)" stroke="none" font-family="Arial" font-size="352" font-style="normal" font-weight="400">
  <text x="10750" y="8656">
   <tspan x="10750 11089 11322 11419 11639 11834 12050 12325 12579 12774 13006 13239 13493 13768 14022 14276 14471 14704 14958 15191 15386 15618 15872 16092 16342">WAIT_FOR_SECOND_PRP_ENTRY</tspan></text>
  <path d="M 10750,8688 L 16358,8688 16358,8708 10750,8708 Z"/>
 </g>
 <g fill="rgb(0,0,0)" stroke="none" font-family="Arial" font-size="281" font-style="normal" font-weight="400">
  <text x="11552" y="8985">
   <tspan x="11552 11709 11865 11946 12009 12153 12297 12454 12610 12691 12784 12941 13097 13254 13334 13491 13571 13652 13732 13889 14045 14126 14329 14486 14566 14723 14803 14977 15070 15227 15468 15624">do/issue read of the Data Frames</tspan></text>
  <text fill="rgb(0,0,0)" stroke="none" x="12198" y="9301">
   <tspan x="12198 12342 12499 12643 12799 12956 13112 13193 13383 13587 13773 13853 14010 14167 14247 14340 14459 14539 14619 14818 14975 15039">second PRP entry, wait</tspan></text>
  <path fill="rgb(128,128,128)" stroke="none" d="M 11115,10221 L 11115,10221 C 11010,10221 10905,10325 10905,10431 L 10905,11275 10905,11275 C 10905,11381 11010,11486 11115,11486 L 16403,11486 16403,11486 C 16508,11486 16614,11381 16614,11275 L 16614,10431 16614,10431 C 16614,10325 16508,10221 16403,10221 L 11115,10221 Z"/>
  <path fill="none" stroke="rgb(128,128,128)" d="M 11115,10221 L 11115,10221 C 11010,10221 10905,10325 10905,10431 L 10905,11275 10905,11275 C 10905,11381 11010,11486 11115,11486 L 16403,11486 16403,11486 C 16508,11486 16614,11381 16614,11275 L 16614,10431 16614,10431 C 16614,10325 16508,10221 16403,10221 L 11115,10221 Z"/>
 </g>
 <g fill="rgb(128,128,128)" stroke="none" font-family="Arial" font-size="352" font-style="normal" font-weight="400">
  <text x="10943" y="10655">
   <tspan x="10943 11282 11515 11612 11832 12027 12243 12518 12772 12967 13199 13475 13695 13949 14143 14376 14630 14863 15058 15291 15545 15765 16019 16116 16349">WAIT_FOR_BOTH_PRP_ENTRIES</tspan></text>
  <path d="M 10943,10687 L 16340,10687 16340,10707 10943,10707 Z"/>
 </g>
 <g fill="rgb(128,128,128)" stroke="none" font-family="Arial" font-size="281" font-style="normal" font-weight="400">
  <text x="11654" y="10983">
   <tspan x="11654 11811 11967 12048 12111 12255 12399 12556 12712 12793 12886 13043 13199 13356 13436 13593 13673 13754 13834 13991 14147 14228 14431 14588 14668 14825 14905 15079 15172 15329 15570 15726">do/issue read of the Data Frames</tspan></text>
  <text fill="rgb(128,128,128)" stroke="none" x="11632" y="11300">
   <tspan x="11632 11712 11776 11869 12013 12093 12174 12331 12487 12644 12724 12868 13025 13169 13325 13482 13639 13719 13910 14113 14299 14379 14536 14693 14773 14866 14930 15086 15230 15311 15391 15590 15747 15810">first and second PRP entries, wait</tspan></text>
  <path fill="rgb(153,204,255)" stroke="none" d="M 11014,10119 L 11014,10119 C 10908,10119 10803,10223 10803,10329 L 10803,11174 10803,11174 C 10803,11279 10908,11385 11014,11385 L 16301,11385 16301,11385 C 16407,11385 16512,11279 16512,11174 L 16512,10329 16512,10329 C 16512,10223 16407,10119 16301,10119 L 11014,10119 Z"/>
  <path fill="none" stroke="rgb(0,0,0)" d="M 11014,10119 L 11014,10119 C 10908,10119 10803,10223 10803,10329 L 10803,11174 10803,11174 C 10803,11279 10908,11385 11014,11385 L 16301,11385 16301,11385 C 16407,11385 16512,11279 16512,11174 L 16512,10329 16512,10329 C 16512,10223 16407,10119 16301,10119 L 11014,10119 Z"/>
 </g>
 <g fill="rgb(0,0,0)" stroke="none" font-family="Arial" font-size="352" font-style="normal" font-weight="400">
  <text x="10841" y="10553">
   <tspan x="10841 11180 11413 11510 11730 11925 12141 12416 12670 12865 13097 13373 13593 13847 14041 14274 14528 14761 14956 15189 15443 15663 15917 16014 16247">WAIT_FOR_BOTH_PRP_ENTRIES</tspan></text>
  <path d="M 10841,10585 L 16238,10585 16238,10605 10841,10605 Z"/>
 </g>
 <g fill="rgb(0,0,0)" stroke="none" font-family="Arial" font-size="281" font-style="normal" font-weight="400">
  <text x="11552" y="10882">
   <tspan x="11552 11709 11865 11946 12009 12153 12297 12454 12610 12691 12784 12941 13097 13254 13334 13491 13571 13652 13732 13889 14045 14126 14329 14486 14566 14723 14803 14977 15070 15227 15468 15624">do/issue read of the Data Frames</tspan></text>
  <text fill="rgb(0,0,0)" stroke="none" x="11530" y="11199">
   <tspan x="11530 11610 11674 11767 11911 11991 12072 12229 12385 12542 12622 12766 12923 13067 13223 13380 13537 13617 13808 14011 14197 14277 14434 14591 14671 14764 14828 14984 15128 15209 15289 15488 15645 15708">first and second PRP entries, wait</tspan></text>
  <path fill="none" stroke="rgb(0,0,0)" d="M 19345,5059 L 19345,5059 C 19345,7589 18941,8534 18132,8800"/>
  <path fill="rgb(0,0,0)" stroke="none" d="M 17781,8854 L 18251,8914 18193,8621 17781,8854 Z"/>
  <text fill="rgb(0,0,0)" stroke="none" x="17361" y="7051">
   <tspan x="17361 17441 17645 17801 17958 18115 18318 18474 18538 18618 18711 18868 19012 19169 19232 19372 19528 19685">[ReadCpl received]</tspan></text>
  <path fill="none" stroke="rgb(0,0,0)" d="M 9535,8854 L 9535,8854 C 8886,8854 8595,7711 8564,5423"/>
  <path fill="rgb(0,0,0)" stroke="none" d="M 8562,5059 L 8417,5509 8716,5507 8562,5059 Z"/>
  <text fill="rgb(0,0,0)" stroke="none" x="7640" y="7051">
   <tspan x="7640 7720 7911 8114 8300 8381 8537 8694 8775 8868 8931 9088 9232 9312 9405 9562 9706 9863 9926 10066 10222 10379">[PRP entries received]</tspan></text>
  <path fill="none" stroke="rgb(0,0,0)" d="M 17781,8854 L 17781,8854 C 17761,8854 17741,8853 17722,8852"/>
  <path fill="none" stroke="rgb(0,0,0)" d="M 17666,8847 L 17666,8847 C 17649,8844 17631,8841 17615,8838"/>
  <path fill="none" stroke="rgb(0,0,0)" d="M 17566,8825 L 17566,8825 C 17550,8820 17534,8815 17519,8809"/>
  <path fill="none" stroke="rgb(0,0,0)" d="M 17469,8786 L 17469,8786 C 17453,8777 17437,8768 17423,8758"/>
  <path fill="none" stroke="rgb(0,0,0)" d="M 17382,8727 L 17382,8727 C 17368,8716 17356,8704 17344,8692"/>
  <path fill="none" stroke="rgb(0,0,0)" d="M 17311,8652 L 17311,8652 C 17300,8638 17290,8623 17280,8608"/>
  <path fill="none" stroke="rgb(0,0,0)" d="M 17253,8562 L 17253,8562 C 17245,8546 17237,8531 17230,8515"/>
  <path fill="none" stroke="rgb(0,0,0)" d="M 17210,8467 L 17210,8467 C 17203,8451 17198,8434 17192,8417"/>
  <path fill="none" stroke="rgb(0,0,0)" d="M 17177,8365 L 17177,8365 C 17172,8348 17167,8331 17163,8313"/>
  <path fill="none" stroke="rgb(0,0,0)" d="M 17152,8262 L 17152,8262 C 17148,8246 17145,8229 17142,8211"/>
  <path fill="none" stroke="rgb(0,0,0)" d="M 17133,8158 L 17133,8158 C 17130,8140 17127,8123 17125,8105"/>
  <path fill="none" stroke="rgb(0,0,0)" d="M 17118,8052 L 17118,8052 C 17115,8035 17113,8017 17111,8001"/>
  <path fill="none" stroke="rgb(0,0,0)" d="M 17105,7948 L 17105,7948 C 17103,7930 17101,7913 17099,7895"/>
  <path fill="none" stroke="rgb(0,0,0)" d="M 17093,7842 L 17093,7842 C 17091,7824 17089,7806 17087,7788"/>
  <path fill="none" stroke="rgb(0,0,0)" d="M 17081,7737 L 17081,7737 C 17078,7719 17076,7702 17074,7684"/>
  <path fill="none" stroke="rgb(0,0,0)" d="M 17067,7632 L 17067,7632 C 17064,7614 17061,7596 17058,7578"/>
  <path fill="none" stroke="rgb(0,0,0)" d="M 17049,7525 L 17049,7525 C 17046,7509 17042,7491 17039,7474"/>
  <path fill="none" stroke="rgb(0,0,0)" d="M 17027,7424 L 17027,7424 C 17023,7406 17018,7389 17013,7372"/>
  <path fill="none" stroke="rgb(0,0,0)" d="M 16996,7320 L 16996,7320 C 16990,7303 16984,7287 16977,7271"/>
  <path fill="none" stroke="rgb(0,0,0)" d="M 16956,7225 L 16956,7225 C 16948,7209 16939,7193 16930,7178"/>
  <path fill="none" stroke="rgb(0,0,0)" d="M 16899,7134 L 16899,7134 C 16888,7120 16877,7107 16865,7094"/>
  <path fill="rgb(0,0,0)" stroke="none" d="M 16512,6957 L 16859,7279 16984,7008 16512,6957 Z"/>
  <path fill="none" stroke="rgb(0,0,0)" d="M 17781,8854 L 17728,8854"/>
  <path fill="none" stroke="rgb(0,0,0)" d="M 17675,8854 L 17622,8854"/>
  <path fill="none" stroke="rgb(0,0,0)" d="M 17569,8854 L 17516,8854"/>
  <path fill="none" stroke="rgb(0,0,0)" d="M 17462,8854 L 17409,8854"/>
  <path fill="none" stroke="rgb(0,0,0)" d="M 17356,8854 L 17304,8854"/>
  <path fill="none" stroke="rgb(0,0,0)" d="M 17251,8854 L 17198,8854"/>
  <path fill="none" stroke="rgb(0,0,0)" d="M 17145,8854 L 17092,8854"/>
  <path fill="none" stroke="rgb(0,0,0)" d="M 17039,8854 L 16986,8854"/>
  <path fill="none" stroke="rgb(0,0,0)" d="M 16933,8854 L 16879,8854"/>
  <path fill="rgb(0,0,0)" stroke="none" d="M 16512,8854 L 16962,9003 16962,8705 16512,8854 Z"/>
  <path fill="none" stroke="rgb(0,0,0)" d="M 17781,8854 L 17781,8854 C 17761,8854 17741,8855 17722,8856"/>
  <path fill="none" stroke="rgb(0,0,0)" d="M 17666,8861 L 17666,8861 C 17649,8864 17631,8867 17615,8870"/>
  <path fill="none" stroke="rgb(0,0,0)" d="M 17566,8883 L 17566,8883 C 17550,8888 17534,8893 17519,8899"/>
  <path fill="none" stroke="rgb(0,0,0)" d="M 17469,8922 L 17469,8922 C 17453,8931 17437,8940 17423,8950"/>
  <path fill="none" stroke="rgb(0,0,0)" d="M 17382,8982 L 17382,8982 C 17368,8992 17356,9004 17344,9016"/>
  <path fill="none" stroke="rgb(0,0,0)" d="M 17311,9056 L 17311,9056 C 17300,9070 17290,9085 17280,9100"/>
  <path fill="none" stroke="rgb(0,0,0)" d="M 17253,9146 L 17253,9146 C 17245,9162 17237,9177 17230,9193"/>
  <path fill="none" stroke="rgb(0,0,0)" d="M 17210,9241 L 17210,9241 C 17203,9257 17198,9274 17192,9291"/>
  <path fill="none" stroke="rgb(0,0,0)" d="M 17177,9343 L 17177,9343 C 17172,9360 17167,9377 17163,9395"/>
  <path fill="none" stroke="rgb(0,0,0)" d="M 17152,9446 L 17152,9446 C 17148,9463 17145,9480 17142,9497"/>
  <path fill="none" stroke="rgb(0,0,0)" d="M 17133,9550 L 17133,9550 C 17130,9568 17127,9585 17125,9603"/>
  <path fill="none" stroke="rgb(0,0,0)" d="M 17118,9656 L 17118,9656 C 17115,9673 17113,9691 17111,9708"/>
  <path fill="none" stroke="rgb(0,0,0)" d="M 17105,9760 L 17105,9760 C 17103,9778 17101,9795 17099,9813"/>
  <path fill="none" stroke="rgb(0,0,0)" d="M 17093,9866 L 17093,9866 C 17091,9884 17089,9902 17087,9920"/>
  <path fill="none" stroke="rgb(0,0,0)" d="M 17081,9972 L 17081,9972 C 17078,9989 17076,10006 17074,10024"/>
  <path fill="none" stroke="rgb(0,0,0)" d="M 17067,10076 L 17067,10076 C 17064,10094 17061,10112 17058,10130"/>
  <path fill="none" stroke="rgb(0,0,0)" d="M 17049,10183 L 17049,10183 C 17046,10200 17042,10218 17039,10234"/>
  <path fill="none" stroke="rgb(0,0,0)" d="M 17027,10284 L 17027,10284 C 17023,10302 17018,10319 17013,10336"/>
  <path fill="none" stroke="rgb(0,0,0)" d="M 16996,10388 L 16996,10388 C 16990,10405 16984,10421 16977,10437"/>
  <path fill="none" stroke="rgb(0,0,0)" d="M 16956,10483 L 16956,10483 C 16948,10499 16939,10515 16930,10530"/>
  <path fill="none" stroke="rgb(0,0,0)" d="M 16899,10574 L 16899,10574 C 16888,10588 16877,10601 16865,10614"/>
  <path fill="rgb(0,0,0)" stroke="none" d="M 16512,10751 L 16984,10701 16859,10429 16512,10751 Z"/>
  <path fill="none" stroke="rgb(0,0,0)" d="M 10804,6957 L 10804,6957 C 10784,6957 10764,6957 10745,6958"/>
  <path fill="none" stroke="rgb(0,0,0)" d="M 10689,6962 L 10689,6962 C 10670,6964 10653,6966 10636,6969"/>
  <path fill="none" stroke="rgb(0,0,0)" d="M 10586,6978 L 10586,6978 C 10569,6982 10554,6986 10538,6990"/>
  <path fill="none" stroke="rgb(0,0,0)" d="M 10487,7006 L 10487,7006 C 10469,7013 10452,7020 10436,7027"/>
  <path fill="none" stroke="rgb(0,0,0)" d="M 10389,7051 L 10389,7051 C 10374,7060 10360,7069 10346,7079"/>
  <path fill="none" stroke="rgb(0,0,0)" d="M 10305,7110 L 10305,7110 C 10291,7122 10278,7134 10266,7147"/>
  <path fill="none" stroke="rgb(0,0,0)" d="M 10231,7187 L 10231,7187 C 10220,7201 10210,7215 10200,7230"/>
  <path fill="none" stroke="rgb(0,0,0)" d="M 10173,7273 L 10173,7273 C 10164,7289 10156,7304 10148,7320"/>
  <path fill="none" stroke="rgb(0,0,0)" d="M 10127,7369 L 10127,7369 C 10120,7385 10114,7402 10108,7419"/>
  <path fill="none" stroke="rgb(0,0,0)" d="M 10092,7470 L 10092,7470 C 10087,7487 10083,7503 10078,7519"/>
  <path fill="none" stroke="rgb(0,0,0)" d="M 10067,7571 L 10067,7571 C 10063,7589 10059,7606 10056,7624"/>
  <path fill="none" stroke="rgb(0,0,0)" d="M 10047,7677 L 10047,7677 C 10044,7694 10042,7712 10040,7729"/>
  <path fill="none" stroke="rgb(0,0,0)" d="M 10033,7781 L 10033,7781 C 10031,7798 10029,7816 10027,7834"/>
  <path fill="none" stroke="rgb(0,0,0)" d="M 10022,7887 L 10022,7887 C 10020,7905 10018,7922 10017,7940"/>
  <path fill="none" stroke="rgb(0,0,0)" d="M 10012,7993 L 10012,7993 C 10011,8010 10009,8028 10008,8045"/>
  <path fill="none" stroke="rgb(0,0,0)" d="M 10003,8098 L 10003,8098 C 10001,8116 10000,8133 9998,8151"/>
  <path fill="none" stroke="rgb(0,0,0)" d="M 9993,8205 L 9993,8205 C 9991,8223 9989,8241 9987,8257"/>
  <path fill="none" stroke="rgb(0,0,0)" d="M 9980,8309 L 9980,8309 C 9977,8327 9975,8343 9972,8360"/>
  <path fill="none" stroke="rgb(0,0,0)" d="M 9962,8415 L 9962,8415 C 9958,8433 9954,8450 9950,8467"/>
  <path fill="none" stroke="rgb(0,0,0)" d="M 9936,8517 L 9936,8517 C 9931,8533 9926,8550 9920,8566"/>
  <path fill="none" stroke="rgb(0,0,0)" d="M 9899,8617 L 9899,8617 C 9891,8633 9883,8649 9874,8664"/>
  <path fill="none" stroke="rgb(0,0,0)" d="M 9845,8706 L 9845,8706 C 9844,8708 9843,8710 9841,8712"/>
  <path fill="rgb(0,0,0)" stroke="none" d="M 9535,8854 L 9997,8746 9839,8492 9535,8854 Z"/>
  <path fill="none" stroke="rgb(0,0,0)" d="M 10804,8854 L 10751,8854"/>
  <path fill="none" stroke="rgb(0,0,0)" d="M 10698,8854 L 10645,8854"/>
  <path fill="none" stroke="rgb(0,0,0)" d="M 10592,8854 L 10539,8854"/>
  <path fill="none" stroke="rgb(0,0,0)" d="M 10485,8854 L 10432,8854"/>
  <path fill="none" stroke="rgb(0,0,0)" d="M 10379,8854 L 10326,8854"/>
  <path fill="none" stroke="rgb(0,0,0)" d="M 10273,8854 L 10220,8854"/>
  <path fill="none" stroke="rgb(0,0,0)" d="M 10168,8854 L 10115,8854"/>
  <path fill="none" stroke="rgb(0,0,0)" d="M 10062,8854 L 10009,8854"/>
  <path fill="none" stroke="rgb(0,0,0)" d="M 9956,8854 L 9902,8854"/>
  <path fill="rgb(0,0,0)" stroke="none" d="M 9535,8854 L 9985,9003 9985,8705 9535,8854 Z"/>
  <path fill="none" stroke="rgb(0,0,0)" d="M 10804,10751 L 10804,10751 C 10784,10751 10764,10751 10745,10750"/>
  <path fill="none" stroke="rgb(0,0,0)" d="M 10689,10746 L 10689,10746 C 10670,10744 10653,10742 10636,10739"/>
  <path fill="none" stroke="rgb(0,0,0)" d="M 10586,10730 L 10586,10730 C 10569,10726 10554,10722 10538,10718"/>
  <path fill="none" stroke="rgb(0,0,0)" d="M 10487,10703 L 10487,10703 C 10469,10696 10452,10689 10436,10681"/>
  <path fill="none" stroke="rgb(0,0,0)" d="M 10389,10657 L 10389,10657 C 10374,10648 10360,10639 10346,10629"/>
  <path fill="none" stroke="rgb(0,0,0)" d="M 10305,10598 L 10305,10598 C 10291,10586 10278,10574 10266,10561"/>
  <path fill="none" stroke="rgb(0,0,0)" d="M 10231,10521 L 10231,10521 C 10220,10507 10210,10493 10200,10478"/>
  <path fill="none" stroke="rgb(0,0,0)" d="M 10173,10435 L 10173,10435 C 10164,10419 10156,10404 10148,10388"/>
  <path fill="none" stroke="rgb(0,0,0)" d="M 10127,10339 L 10127,10339 C 10120,10323 10114,10306 10108,10289"/>
  <path fill="none" stroke="rgb(0,0,0)" d="M 10092,10238 L 10092,10238 C 10087,10222 10083,10206 10078,10189"/>
  <path fill="none" stroke="rgb(0,0,0)" d="M 10067,10137 L 10067,10137 C 10063,10119 10059,10102 10056,10084"/>
  <path fill="none" stroke="rgb(0,0,0)" d="M 10047,10031 L 10047,10031 C 10044,10014 10042,9996 10040,9979"/>
  <path fill="none" stroke="rgb(0,0,0)" d="M 10033,9927 L 10033,9927 C 10031,9910 10029,9892 10027,9874"/>
  <path fill="none" stroke="rgb(0,0,0)" d="M 10022,9821 L 10022,9821 C 10020,9803 10018,9786 10017,9768"/>
  <path fill="none" stroke="rgb(0,0,0)" d="M 10012,9716 L 10012,9716 C 10011,9698 10009,9680 10008,9663"/>
  <path fill="none" stroke="rgb(0,0,0)" d="M 10003,9610 L 10003,9610 C 10001,9592 10000,9575 9998,9557"/>
  <path fill="none" stroke="rgb(0,0,0)" d="M 9993,9503 L 9993,9503 C 9991,9485 9989,9468 9987,9451"/>
  <path fill="none" stroke="rgb(0,0,0)" d="M 9980,9399 L 9980,9399 C 9977,9381 9975,9365 9972,9348"/>
  <path fill="none" stroke="rgb(0,0,0)" d="M 9962,9293 L 9962,9293 C 9958,9275 9954,9258 9950,9241"/>
  <path fill="none" stroke="rgb(0,0,0)" d="M 9936,9191 L 9936,9191 C 9931,9175 9926,9158 9920,9142"/>
  <path fill="none" stroke="rgb(0,0,0)" d="M 9899,9091 L 9899,9091 C 9891,9075 9883,9059 9874,9044"/>
  <path fill="none" stroke="rgb(0,0,0)" d="M 9845,9002 L 9845,9002 C 9844,9000 9843,8998 9841,8996"/>
  <path fill="rgb(0,0,0)" stroke="none" d="M 9535,8854 L 9839,9217 9997,8962 9535,8854 Z"/>
 </g>
</svg>