<?xml version="1.0" encoding="UTF-8"?><!DOCTYPE svg PUBLIC "-//W3C//DTD SVG 1.1//EN" "/SysSchema/SVG11/svg11.dtd">
<svg xmlns:xlink="http://www.w3.org/1999/xlink" xmlns="http://www.w3.org/2000/svg" width="259mm" height="196mm" viewBox="0 0 25900 19600" stroke-width="28.222" stroke-linejoin="round" xml:space="preserve" preserveAspectRatio="xMidYMid meet" zoomAndPan="magnify" version="1.1" contentScriptType="text/ecmascript" contentStyleType="text/css">
 <path fill="rgb(128,128,128)" stroke="none" d="M 11729,1366 L 11729,1366 C 11623,1366 11518,1471 11518,1577 L 11518,2421 11518,2421 C 11518,2527 11623,2632 11729,2632 L 15747,2632 15747,2632 C 15853,2632 15959,2527 15959,2421 L 15959,1577 15959,1577 C 15959,1471 15853,1366 15747,1366 L 11729,1366 Z"/>
 <path fill="none" stroke="rgb(128,128,128)" d="M 11729,1366 L 11729,1366 C 11623,1366 11518,1471 11518,1577 L 11518,2421 11518,2421 C 11518,2527 11623,2632 11729,2632 L 15747,2632 15747,2632 C 15853,2632 15959,2527 15959,2421 L 15959,1577 15959,1577 C 15959,1471 15853,1366 15747,1366 L 11729,1366 Z"/>
 <g fill="rgb(128,128,128)" stroke="none" font-family="Arial" font-size="352" font-style="normal" font-weight="400">
  <text x="13349" y="1801">
   <tspan x="13349 13446 13700 13895">IDLE</tspan></text>
  <path d="M 13349,1833 L 14089,1833 14089,1853 13349,1853 Z"/>
 </g>
 <g fill="rgb(128,128,128)" stroke="none" font-family="Arial" font-size="281" font-style="normal" font-weight="400">
  <text x="12161" y="2129">
   <tspan x="12161 12318 12474 12555 12635 12728 12885 13042 13122 13325 13482 13562 13719 13799 13973 14066 14223 14464 14621 14701 14845 14925 15082 15162">do/free Data Frame state</tspan></text>
  <text fill="rgb(128,128,128)" stroke="none" x="12857" y="2446">
   <tspan x="12857 13001 13081 13175 13331 13475 13556 13712 13805 13962 14042 14123 14322 14478 14542">structure, wait</tspan></text>
  <path fill="rgb(153,204,255)" stroke="none" d="M 11627,1265 L 11627,1265 C 11521,1265 11416,1369 11416,1475 L 11416,2320 11416,2320 C 11416,2425 11521,2531 11627,2531 L 15645,2531 15645,2531 C 15751,2531 15857,2425 15857,2320 L 15857,1475 15857,1475 C 15857,1369 15751,1265 15645,1265 L 11627,1265 Z"/>
  <path fill="none" stroke="rgb(0,0,0)" d="M 11627,1265 L 11627,1265 C 11521,1265 11416,1369 11416,1475 L 11416,2320 11416,2320 C 11416,2425 11521,2531 11627,2531 L 15645,2531 15645,2531 C 15751,2531 15857,2425 15857,2320 L 15857,1475 15857,1475 C 15857,1369 15751,1265 15645,1265 L 11627,1265 Z"/>
 </g>
 <g fill="rgb(0,0,0)" stroke="none" font-family="Arial" font-size="352" font-style="normal" font-weight="400">
  <text x="13247" y="1699">
   <tspan x="13247 13344 13598 13793">IDLE</tspan></text>
  <path d="M 13247,1731 L 13987,1731 13987,1751 13247,1751 Z"/>
 </g>
 <g fill="rgb(0,0,0)" stroke="none" font-family="Arial" font-size="281" font-style="normal" font-weight="400">
  <text x="12059" y="2028">
   <tspan x="12059 12216 12372 12453 12533 12626 12783 12940 13020 13223 13380 13460 13617 13697 13871 13964 14121 14362 14519 14599 14743 14823 14980 15060">do/free Data Frame state</tspan></text>
  <text fill="rgb(0,0,0)" stroke="none" x="12755" y="2344">
   <tspan x="12755 12899 12979 13073 13229 13373 13454 13610 13703 13860 13940 14021 14220 14376 14440">structure, wait</tspan></text>
  <path fill="rgb(128,128,128)" stroke="none" d="M 12469,101 L 12469,101 C 12649,101 12787,237 12787,416 12787,596 12649,733 12469,733 12289,733 12152,596 12152,416 12152,237 12289,101 12469,101 Z"/>
  <path fill="none" stroke="rgb(128,128,128)" d="M 12469,101 L 12469,101 C 12649,101 12787,237 12787,416 12787,596 12649,733 12469,733 12289,733 12152,596 12152,416 12152,237 12289,101 12469,101 Z"/>
  <path fill="rgb(128,128,128)" stroke="none" d="M 12365,286 L 12365,286 C 12384,286 12399,300 12399,319 12399,338 12384,353 12365,353 12346,353 12332,338 12332,319 12332,300 12346,286 12365,286 Z"/>
  <path fill="none" stroke="rgb(128,128,128)" d="M 12365,286 L 12365,286 C 12384,286 12399,300 12399,319 12399,338 12384,353 12365,353 12346,353 12332,338 12332,319 12332,300 12346,286 12365,286 Z"/>
  <path fill="rgb(128,128,128)" stroke="none" d="M 12570,286 L 12570,286 C 12589,286 12604,300 12604,319 12604,338 12589,353 12570,353 12551,353 12537,338 12537,319 12537,300 12551,286 12570,286 Z"/>
  <path fill="none" stroke="rgb(128,128,128)" d="M 12570,286 L 12570,286 C 12589,286 12604,300 12604,319 12604,338 12589,353 12570,353 12551,353 12537,338 12537,319 12537,300 12551,286 12570,286 Z"/>
  <path fill="none" stroke="rgb(128,128,128)" d="M 12295,555 L 12295,555 C 12407,614 12532,614 12644,555"/>
  <path fill="rgb(153,204,255)" stroke="none" d="M 12367,-1 L 12367,-1 C 12547,-1 12685,135 12685,315 12685,494 12547,631 12367,631 12187,631 12050,494 12050,315 12050,135 12187,-1 12367,-1 Z"/>
  <path fill="none" stroke="rgb(0,0,0)" d="M 12367,-1 L 12367,-1 C 12547,-1 12685,135 12685,315 12685,494 12547,631 12367,631 12187,631 12050,494 12050,315 12050,135 12187,-1 12367,-1 Z"/>
  <path fill="rgb(122,163,204)" stroke="none" d="M 12263,184 L 12263,184 C 12282,184 12297,198 12297,217 12297,236 12282,251 12263,251 12244,251 12230,236 12230,217 12230,198 12244,184 12263,184 Z"/>
  <path fill="none" stroke="rgb(0,0,0)" d="M 12263,184 L 12263,184 C 12282,184 12297,198 12297,217 12297,236 12282,251 12263,251 12244,251 12230,236 12230,217 12230,198 12244,184 12263,184 Z"/>
  <path fill="rgb(122,163,204)" stroke="none" d="M 12468,184 L 12468,184 C 12487,184 12502,198 12502,217 12502,236 12487,251 12468,251 12449,251 12435,236 12435,217 12435,198 12449,184 12468,184 Z"/>
  <path fill="none" stroke="rgb(0,0,0)" d="M 12468,184 L 12468,184 C 12487,184 12502,198 12502,217 12502,236 12487,251 12468,251 12449,251 12435,236 12435,217 12435,198 12449,184 12468,184 Z"/>
  <path fill="none" stroke="rgb(0,0,0)" d="M 12193,453 L 12193,453 C 12305,512 12430,512 12542,453"/>
  <path fill="none" stroke="rgb(0,0,0)" d="M 12686,317 L 12686,317 C 13320,317 13491,515 13596,910"/>
  <path fill="rgb(0,0,0)" stroke="none" d="M 13637,1265 L 13716,799 13420,845 13637,1265 Z"/>
  <path fill="rgb(128,128,128)" stroke="none" d="M 16803,7058 L 16803,7058 C 16697,7058 16592,7163 16592,7268 L 16592,8113 16592,8113 C 16592,8219 16697,8324 16803,8324 L 20822,8324 20822,8324 C 20927,8324 21033,8219 21033,8113 L 21033,7268 21033,7268 C 21033,7163 20927,7058 20822,7058 L 16803,7058 Z"/>
  <path fill="none" stroke="rgb(128,128,128)" d="M 16803,7058 L 16803,7058 C 16697,7058 16592,7163 16592,7268 L 16592,8113 16592,8113 C 16592,8219 16697,8324 16803,8324 L 20822,8324 20822,8324 C 20927,8324 21033,8219 21033,8113 L 21033,7268 21033,7268 C 21033,7163 20927,7058 20822,7058 L 16803,7058 Z"/>
 </g>
 <g fill="rgb(128,128,128)" stroke="none" font-family="Arial" font-size="352" font-style="normal" font-weight="400">
  <text x="16653" y="7651">
   <tspan x="16653 16992 17225 17322 17542 17737 17953 18228 18482 18677 18892 19087 19320 19553 19807 20002 20256 20488 20721">WAIT_FOR_FLASH_READ</tspan></text>
  <path d="M 16653,7683 L 20832,7683 20832,7703 16653,7703 Z"/>
 </g>
 <g fill="rgb(128,128,128)" stroke="none" font-family="Arial" font-size="281" font-style="normal" font-weight="400">
  <text x="16670" y="7980">
   <tspan x="16670 16827 16983 17064 17127 17271 17415 17572 17728 17809 17902 18059 18215 18372 18452 18545 18702 18859 19015 19172 19316 19396 19477 19557 19714 19794 19968 20141 20298 20378 20459 20658 20814 20878">do/issue read request to FTL, wait</tspan></text>
  <path fill="rgb(153,204,255)" stroke="none" d="M 16701,6957 L 16701,6957 C 16595,6957 16490,7061 16490,7167 L 16490,8011 16490,8011 C 16490,8117 16595,8223 16701,8223 L 20720,8223 20720,8223 C 20826,8223 20931,8117 20931,8011 L 20931,7167 20931,7167 C 20931,7061 20826,6957 20720,6957 L 16701,6957 Z"/>
  <path fill="none" stroke="rgb(0,0,0)" d="M 16701,6957 L 16701,6957 C 16595,6957 16490,7061 16490,7167 L 16490,8011 16490,8011 C 16490,8117 16595,8223 16701,8223 L 20720,8223 20720,8223 C 20826,8223 20931,8117 20931,8011 L 20931,7167 20931,7167 C 20931,7061 20826,6957 20720,6957 L 16701,6957 Z"/>
 </g>
 <g fill="rgb(0,0,0)" stroke="none" font-family="Arial" font-size="352" font-style="normal" font-weight="400">
  <text x="16551" y="7549">
   <tspan x="16551 16890 17123 17220 17440 17635 17851 18126 18380 18575 18790 18985 19218 19451 19705 19900 20154 20386 20619">WAIT_FOR_FLASH_READ</tspan></text>
  <path d="M 16551,7581 L 20730,7581 20730,7601 16551,7601 Z"/>
 </g>
 <g fill="rgb(0,0,0)" stroke="none" font-family="Arial" font-size="281" font-style="normal" font-weight="400">
  <text x="16568" y="7878">
   <tspan x="16568 16725 16881 16962 17025 17169 17313 17470 17626 17707 17800 17957 18113 18270 18350 18443 18600 18757 18913 19070 19214 19294 19375 19455 19612 19692 19866 20039 20196 20276 20357 20556 20712 20776">do/issue read request to FTL, wait</tspan></text>
  <path fill="rgb(128,128,128)" stroke="none" d="M 6655,7058 L 6655,7058 C 6549,7058 6444,7163 6444,7268 L 6444,8113 6444,8113 C 6444,8219 6549,8324 6655,8324 L 10673,8324 10673,8324 C 10779,8324 10885,8219 10885,8113 L 10885,7268 10885,7268 C 10885,7163 10779,7058 10673,7058 L 6655,7058 Z"/>
  <path fill="none" stroke="rgb(128,128,128)" d="M 6655,7058 L 6655,7058 C 6549,7058 6444,7163 6444,7268 L 6444,8113 6444,8113 C 6444,8219 6549,8324 6655,8324 L 10673,8324 10673,8324 C 10779,8324 10885,8219 10885,8113 L 10885,7268 10885,7268 C 10885,7163 10779,7058 10673,7058 L 6655,7058 Z"/>
 </g>
 <g fill="rgb(128,128,128)" stroke="none" font-family="Arial" font-size="352" font-style="normal" font-weight="400">
  <text x="6678" y="7651">
   <tspan x="6678 7017 7250 7347 7567 7762 7978 8253 8507 8702 8934 9167 9400 9654 9874 10128 10420">WAIT_FOR_ESECTDMA</tspan></text>
  <path d="M 6678,7683 L 10513,7683 10513,7703 6678,7703 Z"/>
 </g>
 <g fill="rgb(128,128,128)" stroke="none" font-family="Arial" font-size="281" font-style="normal" font-weight="400">
  <text x="7112" y="7980">
   <tspan x="7112 7269 7425 7506 7569 7713 7857 8014 8170 8251 8441 8644 8877 9051 9131 9224 9381 9538 9694 9851 9995 10075">do/issue EDMA requests</tspan></text>
  <path fill="rgb(153,204,255)" stroke="none" d="M 6553,6957 L 6553,6957 C 6447,6957 6342,7061 6342,7167 L 6342,8011 6342,8011 C 6342,8117 6447,8223 6553,8223 L 10571,8223 10571,8223 C 10677,8223 10783,8117 10783,8011 L 10783,7167 10783,7167 C 10783,7061 10677,6957 10571,6957 L 6553,6957 Z"/>
  <path fill="none" stroke="rgb(0,0,0)" d="M 6553,6957 L 6553,6957 C 6447,6957 6342,7061 6342,7167 L 6342,8011 6342,8011 C 6342,8117 6447,8223 6553,8223 L 10571,8223 10571,8223 C 10677,8223 10783,8117 10783,8011 L 10783,7167 10783,7167 C 10783,7061 10677,6957 10571,6957 L 6553,6957 Z"/>
 </g>
 <g fill="rgb(0,0,0)" stroke="none" font-family="Arial" font-size="352" font-style="normal" font-weight="400">
  <text x="6577" y="7549">
   <tspan x="6577 6916 7149 7246 7466 7661 7877 8152 8406 8601 8833 9066 9299 9553 9773 10027 10319">WAIT_FOR_ESECTDMA</tspan></text>
  <path d="M 6577,7581 L 10412,7581 10412,7601 6577,7601 Z"/>
 </g>
 <g fill="rgb(0,0,0)" stroke="none" font-family="Arial" font-size="281" font-style="normal" font-weight="400">
  <text x="7010" y="7878">
   <tspan x="7010 7167 7323 7404 7467 7611 7755 7912 8068 8149 8339 8542 8775 8949 9029 9122 9279 9436 9592 9749 9893 9973">do/issue EDMA requests</tspan></text>
  <path fill="none" stroke="rgb(0,0,0)" d="M 18711,8222 L 18711,8222 C 18711,9124 10204,9118 8767,8431"/>
  <path fill="rgb(0,0,0)" stroke="none" d="M 8562,8222 L 8813,8622 9004,8392 8562,8222 Z"/>
  <text fill="rgb(0,0,0)" stroke="none" x="12435" y="8655">
   <tspan x="12435 12515 12719 12875 13032 13189 13392 13548 13612 13692 13785 13942 14086 14243 14306 14446 14602 14759">[ReadCpl received]</tspan></text>
  <path fill="rgb(128,128,128)" stroke="none" d="M 14900,4529 L 14900,4529 C 14794,4529 14689,4633 14689,4739 L 14689,5583 14689,5583 C 14689,5689 14794,5794 14900,5794 L 18919,5794 18919,5794 C 19025,5794 19130,5689 19130,5583 L 19130,4739 19130,4739 C 19130,4633 19025,4529 18919,4529 L 14900,4529 Z"/>
  <path fill="none" stroke="rgb(128,128,128)" d="M 14900,4529 L 14900,4529 C 14794,4529 14689,4633 14689,4739 L 14689,5583 14689,5583 C 14689,5689 14794,5794 14900,5794 L 18919,5794 18919,5794 C 19025,5794 19130,5689 19130,5583 L 19130,4739 19130,4739 C 19130,4633 19025,4529 18919,4529 L 14900,4529 Z"/>
 </g>
 <g fill="rgb(128,128,128)" stroke="none" font-family="Arial" font-size="352" font-style="normal" font-weight="400">
  <text x="14991" y="5121">
   <tspan x="14991 15330 15563 15660 15880 16075 16291 16566 16820 17015 17112 17345 17578 17832 18052 18306 18598">WAIT_FOR_ISECTDMA</tspan></text>
  <path d="M 14991,5153 L 18668,5153 18668,5173 14991,5173 Z"/>
 </g>
 <g fill="rgb(128,128,128)" stroke="none" font-family="Arial" font-size="281" font-style="normal" font-weight="400">
  <text x="15413" y="5450">
   <tspan x="15413 15570 15726 15807 15870 16014 16158 16315 16471 16552 16632 16835 17068 17242 17322 17415 17572 17729 17885 18042 18186 18266">do/issue IDMA requests</tspan></text>
  <path fill="rgb(153,204,255)" stroke="none" d="M 14798,4427 L 14798,4427 C 14692,4427 14588,4532 14588,4637 L 14588,5482 14588,5482 C 14588,5587 14692,5693 14798,5693 L 18817,5693 18817,5693 C 18923,5693 19029,5587 19029,5482 L 19029,4637 19029,4637 C 19029,4532 18923,4427 18817,4427 L 14798,4427 Z"/>
  <path fill="none" stroke="rgb(0,0,0)" d="M 14798,4427 L 14798,4427 C 14692,4427 14588,4532 14588,4637 L 14588,5482 14588,5482 C 14588,5587 14692,5693 14798,5693 L 18817,5693 18817,5693 C 18923,5693 19029,5587 19029,5482 L 19029,4637 19029,4637 C 19029,4532 18923,4427 18817,4427 L 14798,4427 Z"/>
 </g>
 <g fill="rgb(0,0,0)" stroke="none" font-family="Arial" font-size="352" font-style="normal" font-weight="400">
  <text x="14889" y="5020">
   <tspan x="14889 15228 15461 15558 15778 15973 16189 16464 16718 16913 17010 17243 17476 17730 17950 18204 18496">WAIT_FOR_ISECTDMA</tspan></text>
  <path d="M 14889,5052 L 18566,5052 18566,5072 14889,5072 Z"/>
 </g>
 <g fill="rgb(0,0,0)" stroke="none" font-family="Arial" font-size="281" font-style="normal" font-weight="400">
  <text x="15311" y="5348">
   <tspan x="15311 15468 15624 15705 15768 15912 16056 16213 16369 16450 16530 16733 16966 17140 17220 17313 17470 17627 17783 17940 18084 18164">do/issue IDMA requests</tspan></text>
  <path fill="rgb(128,128,128)" stroke="none" d="M 8557,4529 L 8557,4529 C 8451,4529 8347,4633 8347,4739 L 8347,5583 8347,5583 C 8347,5689 8451,5794 8557,5794 L 12576,5794 12576,5794 C 12682,5794 12788,5689 12788,5583 L 12788,4739 12788,4739 C 12788,4633 12682,4529 12576,4529 L 8557,4529 Z"/>
  <path fill="none" stroke="rgb(128,128,128)" d="M 8557,4529 L 8557,4529 C 8451,4529 8347,4633 8347,4739 L 8347,5583 8347,5583 C 8347,5689 8451,5794 8557,5794 L 12576,5794 12576,5794 C 12682,5794 12788,5689 12788,5583 L 12788,4739 12788,4739 C 12788,4633 12682,4529 12576,4529 L 8557,4529 Z"/>
 </g>
 <g fill="rgb(128,128,128)" stroke="none" font-family="Arial" font-size="352" font-style="normal" font-weight="400">
  <text x="8317" y="5121">
   <tspan x="8317 8656 8889 8986 9206 9401 9617 9892 10146 10341 10556 10751 10984 11217 11471 11666 12017 12271 12368 12588">WAIT_FOR_FLASH_WRITE</tspan></text>
  <path d="M 8317,5153 L 12629,5153 12629,5173 8317,5173 Z"/>
 </g>
 <g fill="rgb(128,128,128)" stroke="none" font-family="Arial" font-size="281" font-style="normal" font-weight="400">
  <text x="8410" y="5450">
   <tspan x="8410 8567 8723 8804 8867 9011 9155 9312 9468 9549 9748 9841 9904 9985 10141 10222 10315 10472 10628 10785 10942 11085 11166 11246 11327 11483 11564 11737 11911 12068 12148 12228 12427 12584 12648">do/issue write request to FTL, wait</tspan></text>
  <path fill="rgb(153,204,255)" stroke="none" d="M 8455,4427 L 8455,4427 C 8350,4427 8245,4532 8245,4637 L 8245,5482 8245,5482 C 8245,5587 8350,5693 8455,5693 L 12474,5693 12474,5693 C 12580,5693 12686,5587 12686,5482 L 12686,4637 12686,4637 C 12686,4532 12580,4427 12474,4427 L 8455,4427 Z"/>
  <path fill="none" stroke="rgb(0,0,0)" d="M 8455,4427 L 8455,4427 C 8350,4427 8245,4532 8245,4637 L 8245,5482 8245,5482 C 8245,5587 8350,5693 8455,5693 L 12474,5693 12474,5693 C 12580,5693 12686,5587 12686,5482 L 12686,4637 12686,4637 C 12686,4532 12580,4427 12474,4427 L 8455,4427 Z"/>
 </g>
 <g fill="rgb(0,0,0)" stroke="none" font-family="Arial" font-size="352" font-style="normal" font-weight="400">
  <text x="8215" y="5020">
   <tspan x="8215 8554 8787 8884 9104 9299 9515 9790 10044 10239 10454 10649 10882 11115 11369 11564 11915 12169 12266 12486">WAIT_FOR_FLASH_WRITE</tspan></text>
  <path d="M 8215,5052 L 12527,5052 12527,5072 8215,5072 Z"/>
 </g>
 <g fill="rgb(0,0,0)" stroke="none" font-family="Arial" font-size="281" font-style="normal" font-weight="400">
  <text x="8308" y="5348">
   <tspan x="8308 8465 8621 8702 8765 8909 9053 9210 9366 9447 9646 9739 9802 9883 10039 10120 10213 10370 10526 10683 10840 10983 11064 11144 11225 11381 11462 11635 11809 11966 12046 12126 12325 12482 12546">do/issue write request to FTL, wait</tspan></text>
  <path fill="none" stroke="rgb(0,0,0)" d="M 16808,5692 L 16808,5692 C 16808,6594 11727,6584 10660,5946"/>
  <path fill="rgb(0,0,0)" stroke="none" d="M 10465,5692 L 10654,6125 10877,5926 10465,5692 Z"/>
  <text fill="rgb(0,0,0)" stroke="none" x="11533" y="6125">
   <tspan x="11533 11613 11694 11884 12075 12278 12452 12655 12888 13061 13142 13286 13442 13684 13840 13904 14060 14141 14204 14361 14518 14598 14691 14848 14992 15148 15212 15351 15508 15665">[ISECTDMA completion received]</tspan></text>
  <path fill="none" stroke="rgb(0,0,0)" d="M 8246,5059 L 8246,5059 C 7436,5059 5922,2041 11044,1902"/>
  <path fill="rgb(0,0,0)" stroke="none" d="M 11417,1897 L 10966,1756 10971,2055 11417,1897 Z"/>
  <text fill="rgb(0,0,0)" stroke="none" x="8210" y="3573">
   <tspan x="8210 8290 8566 8659 8722 8803 8959 9163 9319 9383 9463 9556 9713 9857 10013 10077 10217 10373 10530">[WriteCpl received]</tspan></text>
  <text fill="rgb(0,0,0)" stroke="none" x="15473" y="3540">
   <tspan x="15473 15553 15710 15803 15960 16104 16260 16404 16548 16629 16828 16921 16984 17065 17221 17302 17505 17662 17742 17899 17979 18153 18246 18402 18644 18800 18944">[process write Data Frames]</tspan></text>
 </g>
 <g fill="rgb(0,0,0)" stroke="none" font-family="Arial" font-size="632" font-style="normal" font-weight="400">
  <text x="7227" y="18402">
   <tspan x="7227 7683 8035 8386 8737 8915 9503 9714 9854 10032 10383 10561 10984 11162 11513 11691 12043 12208 12576 12788 13139 13490 13808 13948 14125 14265 14616 14968">Read Write State Transitions</tspan></text>
 </g>
 <g fill="rgb(0,0,0)" stroke="none" font-family="Arial" font-size="281" font-style="normal" font-weight="400">
  <text x="20334" y="3604">
   <tspan x="20334 20414 20571 20664 20821 20965 21121 21265 21409 21490 21583 21739 21896 22053 22133 22336 22493 22573 22730 22811 22984 23077 23234 23475 23632 23776">[process read Data Frames]</tspan></text>
  <path fill="none" stroke="rgb(0,0,0)" d="M 6343,7589 L 6343,7589 C 5591,7589 3128,2065 11054,1901"/>
  <path fill="rgb(0,0,0)" stroke="none" d="M 11417,1897 L 10966,1754 10970,2053 11417,1897 Z"/>
  <text fill="rgb(0,0,0)" stroke="none" x="3421" y="6069">
   <tspan x="3421 3501 3692 3882 4073 4276 4450 4653 4886 5059 5140 5284 5440 5682 5838 5902 6058 6139 6202 6359 6516 6596 6689 6846 6990 7146 7210 7350 7506 7663">[ESECTDMA completion received]</tspan></text>
  <path fill="none" stroke="rgb(0,0,0)" d="M 15857,1897 L 15857,1897 C 24372,1897 22212,6573 21217,7449"/>
  <path fill="rgb(0,0,0)" stroke="none" d="M 20931,7589 L 21396,7496 21246,7237 20931,7589 Z"/>
  <path fill="none" stroke="rgb(0,0,0)" d="M 15857,1897 L 15857,1897 C 21518,1897 20194,4397 19343,4952"/>
  <path fill="rgb(0,0,0)" stroke="none" d="M 19029,5059 L 19501,5027 19387,4751 19029,5059 Z"/>
 </g>
</svg>