<?xml version="1.0" encoding="UTF-8"?><!DOCTYPE svg PUBLIC "-//W3C//DTD SVG 1.1//EN" "/SysSchema/SVG11/svg11.dtd">
<svg xmlns:xlink="http://www.w3.org/1999/xlink" xmlns="http://www.w3.org/2000/svg" width="259mm" height="196mm" viewBox="0 0 25900 19600" stroke-width="28.222" stroke-linejoin="round" xml:space="preserve" preserveAspectRatio="xMidYMid meet" zoomAndPan="magnify" version="1.1" contentScriptType="text/ecmascript" contentStyleType="text/css">
 <path fill="rgb(128,128,128)" stroke="none" d="M 6020,4529 L 6020,4529 C 5914,4529 5809,4633 5809,4739 L 5809,5583 5809,5583 C 5809,5689 5914,5794 6020,5794 L 11307,5794 11307,5794 C 11413,5794 11519,5689 11519,5583 L 11519,4739 11519,4739 C 11519,4633 11413,4529 11307,4529 L 6020,4529 Z"/>
 <path fill="none" stroke="rgb(128,128,128)" d="M 6020,4529 L 6020,4529 C 5914,4529 5809,4633 5809,4739 L 5809,5583 5809,5583 C 5809,5689 5914,5794 6020,5794 L 11307,5794 11307,5794 C 11413,5794 11519,5689 11519,5583 L 11519,4739 11519,4739 C 11519,4633 11413,4529 11307,4529 L 6020,4529 Z"/>
 <g fill="rgb(128,128,128)" stroke="none" font-family="Arial" font-size="352" font-style="normal" font-weight="400">
  <text x="6415" y="5121">
   <tspan x="6415 6754 6987 7084 7304 7499 7715 7990 8244 8439 8654 8849 9082 9315 9569 9764 10115 10369 10466 10686">WAIT_FOR_FLASH_WRITE</tspan></text>
  <path d="M 6415,5153 L 10727,5153 10727,5173 6415,5173 Z"/>
 </g>
 <g fill="rgb(128,128,128)" stroke="none" font-family="Arial" font-size="281" font-style="normal" font-weight="400">
  <text x="6508" y="5450">
   <tspan x="6508 6665 6821 6902 6965 7109 7253 7410 7566 7647 7846 7939 8002 8083 8239 8320 8413 8570 8726 8883 9040 9183 9264 9344 9425 9581 9662 9835 10009 10166 10246 10326 10525 10682 10746">do/issue write request to FTL, wait</tspan></text>
  <path fill="rgb(153,204,255)" stroke="none" d="M 5918,4427 L 5918,4427 C 5812,4427 5708,4532 5708,4637 L 5708,5482 5708,5482 C 5708,5587 5812,5693 5918,5693 L 11205,5693 11205,5693 C 11311,5693 11417,5587 11417,5482 L 11417,4637 11417,4637 C 11417,4532 11311,4427 11205,4427 L 5918,4427 Z"/>
  <path fill="none" stroke="rgb(0,0,0)" d="M 5918,4427 L 5918,4427 C 5812,4427 5708,4532 5708,4637 L 5708,5482 5708,5482 C 5708,5587 5812,5693 5918,5693 L 11205,5693 11205,5693 C 11311,5693 11417,5587 11417,5482 L 11417,4637 11417,4637 C 11417,4532 11311,4427 11205,4427 L 5918,4427 Z"/>
 </g>
 <g fill="rgb(0,0,0)" stroke="none" font-family="Arial" font-size="352" font-style="normal" font-weight="400">
  <text x="6313" y="5020">
   <tspan x="6313 6652 6885 6982 7202 7397 7613 7888 8142 8337 8552 8747 8980 9213 9467 9662 10013 10267 10364 10584">WAIT_FOR_FLASH_WRITE</tspan></text>
  <path d="M 6313,5052 L 10625,5052 10625,5072 6313,5072 Z"/>
 </g>
 <g fill="rgb(0,0,0)" stroke="none" font-family="Arial" font-size="281" font-style="normal" font-weight="400">
  <text x="6406" y="5348">
   <tspan x="6406 6563 6719 6800 6863 7007 7151 7308 7464 7545 7744 7837 7900 7981 8137 8218 8311 8468 8624 8781 8938 9081 9162 9242 9323 9479 9560 9733 9907 10064 10144 10224 10423 10580 10644">do/issue write request to FTL, wait</tspan></text>
  <path fill="rgb(128,128,128)" stroke="none" d="M 11095,1366 L 11095,1366 C 10989,1366 10884,1471 10884,1577 L 10884,2421 10884,2421 C 10884,2527 10989,2632 11095,2632 L 16382,2632 16382,2632 C 16487,2632 16593,2527 16593,2421 L 16593,1577 16593,1577 C 16593,1471 16487,1366 16382,1366 L 11095,1366 Z"/>
  <path fill="none" stroke="rgb(128,128,128)" d="M 11095,1366 L 11095,1366 C 10989,1366 10884,1471 10884,1577 L 10884,2421 10884,2421 C 10884,2527 10989,2632 11095,2632 L 16382,2632 16382,2632 C 16487,2632 16593,2527 16593,2421 L 16593,1577 16593,1577 C 16593,1471 16487,1366 16382,1366 L 11095,1366 Z"/>
 </g>
 <g fill="rgb(128,128,128)" stroke="none" font-family="Arial" font-size="352" font-style="normal" font-weight="400">
  <text x="13349" y="1801">
   <tspan x="13349 13446 13700 13895">IDLE</tspan></text>
  <path d="M 13349,1833 L 14089,1833 14089,1853 13349,1853 Z"/>
 </g>
 <g fill="rgb(128,128,128)" stroke="none" font-family="Arial" font-size="281" font-style="normal" font-weight="400">
  <text x="12161" y="2129">
   <tspan x="12161 12318 12474 12555 12635 12728 12885 13042 13122 13325 13482 13562 13719 13799 13973 14066 14223 14464 14621 14701 14845 14925 15082 15162">do/free Data Frame state</tspan></text>
  <text fill="rgb(128,128,128)" stroke="none" x="12857" y="2446">
   <tspan x="12857 13001 13081 13175 13331 13475 13556 13712 13805 13962 14042 14123 14322 14478 14542">structure, wait</tspan></text>
  <path fill="rgb(153,204,255)" stroke="none" d="M 10993,1265 L 10993,1265 C 10887,1265 10782,1369 10782,1475 L 10782,2320 10782,2320 C 10782,2425 10887,2531 10993,2531 L 16280,2531 16280,2531 C 16386,2531 16491,2425 16491,2320 L 16491,1475 16491,1475 C 16491,1369 16386,1265 16280,1265 L 10993,1265 Z"/>
  <path fill="none" stroke="rgb(0,0,0)" d="M 10993,1265 L 10993,1265 C 10887,1265 10782,1369 10782,1475 L 10782,2320 10782,2320 C 10782,2425 10887,2531 10993,2531 L 16280,2531 16280,2531 C 16386,2531 16491,2425 16491,2320 L 16491,1475 16491,1475 C 16491,1369 16386,1265 16280,1265 L 10993,1265 Z"/>
 </g>
 <g fill="rgb(0,0,0)" stroke="none" font-family="Arial" font-size="352" font-style="normal" font-weight="400">
  <text x="13247" y="1699">
   <tspan x="13247 13344 13598 13793">IDLE</tspan></text>
  <path d="M 13247,1731 L 13987,1731 13987,1751 13247,1751 Z"/>
 </g>
 <g fill="rgb(0,0,0)" stroke="none" font-family="Arial" font-size="281" font-style="normal" font-weight="400">
  <text x="12059" y="2028">
   <tspan x="12059 12216 12372 12453 12533 12626 12783 12940 13020 13223 13380 13460 13617 13697 13871 13964 14121 14362 14519 14599 14743 14823 14980 15060">do/free Data Frame state</tspan></text>
  <text fill="rgb(0,0,0)" stroke="none" x="12755" y="2344">
   <tspan x="12755 12899 12979 13073 13229 13373 13454 13610 13703 13860 13940 14021 14220 14376 14440">structure, wait</tspan></text>
  <path fill="rgb(128,128,128)" stroke="none" d="M 12469,101 L 12469,101 C 12649,101 12787,237 12787,416 12787,596 12649,733 12469,733 12289,733 12152,596 12152,416 12152,237 12289,101 12469,101 Z"/>
  <path fill="none" stroke="rgb(128,128,128)" d="M 12469,101 L 12469,101 C 12649,101 12787,237 12787,416 12787,596 12649,733 12469,733 12289,733 12152,596 12152,416 12152,237 12289,101 12469,101 Z"/>
  <path fill="rgb(128,128,128)" stroke="none" d="M 12365,286 L 12365,286 C 12384,286 12399,300 12399,319 12399,338 12384,353 12365,353 12346,353 12332,338 12332,319 12332,300 12346,286 12365,286 Z"/>
  <path fill="none" stroke="rgb(128,128,128)" d="M 12365,286 L 12365,286 C 12384,286 12399,300 12399,319 12399,338 12384,353 12365,353 12346,353 12332,338 12332,319 12332,300 12346,286 12365,286 Z"/>
  <path fill="rgb(128,128,128)" stroke="none" d="M 12570,286 L 12570,286 C 12589,286 12604,300 12604,319 12604,338 12589,353 12570,353 12551,353 12537,338 12537,319 12537,300 12551,286 12570,286 Z"/>
  <path fill="none" stroke="rgb(128,128,128)" d="M 12570,286 L 12570,286 C 12589,286 12604,300 12604,319 12604,338 12589,353 12570,353 12551,353 12537,338 12537,319 12537,300 12551,286 12570,286 Z"/>
  <path fill="none" stroke="rgb(128,128,128)" d="M 12295,555 L 12295,555 C 12407,614 12532,614 12644,555"/>
  <path fill="rgb(153,204,255)" stroke="none" d="M 12367,-1 L 12367,-1 C 12547,-1 12685,135 12685,315 12685,494 12547,631 12367,631 12187,631 12050,494 12050,315 12050,135 12187,-1 12367,-1 Z"/>
  <path fill="none" stroke="rgb(0,0,0)" d="M 12367,-1 L 12367,-1 C 12547,-1 12685,135 12685,315 12685,494 12547,631 12367,631 12187,631 12050,494 12050,315 12050,135 12187,-1 12367,-1 Z"/>
  <path fill="rgb(122,163,204)" stroke="none" d="M 12263,184 L 12263,184 C 12282,184 12297,198 12297,217 12297,236 12282,251 12263,251 12244,251 12230,236 12230,217 12230,198 12244,184 12263,184 Z"/>
  <path fill="none" stroke="rgb(0,0,0)" d="M 12263,184 L 12263,184 C 12282,184 12297,198 12297,217 12297,236 12282,251 12263,251 12244,251 12230,236 12230,217 12230,198 12244,184 12263,184 Z"/>
  <path fill="rgb(122,163,204)" stroke="none" d="M 12468,184 L 12468,184 C 12487,184 12502,198 12502,217 12502,236 12487,251 12468,251 12449,251 12435,236 12435,217 12435,198 12449,184 12468,184 Z"/>
  <path fill="none" stroke="rgb(0,0,0)" d="M 12468,184 L 12468,184 C 12487,184 12502,198 12502,217 12502,236 12487,251 12468,251 12449,251 12435,236 12435,217 12435,198 12449,184 12468,184 Z"/>
  <path fill="none" stroke="rgb(0,0,0)" d="M 12193,453 L 12193,453 C 12305,512 12430,512 12542,453"/>
  <path fill="none" stroke="rgb(0,0,0)" d="M 12686,317 L 12686,317 C 13320,317 13491,515 13596,910"/>
  <path fill="rgb(0,0,0)" stroke="none" d="M 13637,1265 L 13716,799 13420,845 13637,1265 Z"/>
  <path fill="none" stroke="rgb(0,0,0)" d="M 16491,1897 L 16491,1897 C 17972,1897 18598,2620 18699,4067"/>
  <path fill="rgb(0,0,0)" stroke="none" d="M 18711,4427 L 18842,3973 18542,3986 18711,4427 Z"/>
  <text fill="rgb(0,0,0)" stroke="none" x="15083" y="3257">
   <tspan x="15083 15163 15367 15557 15790 15870 16061 16196 16353 16446 16603 16747 16891 16971 17170 17263 17327 17407 17564 17644 17788 17945 18186 18427 18584 18741 18897 18978 19071 19227 19371 19528 19592 19731 19888 20044">[NVM Express write command received]</tspan></text>
  <path fill="rgb(128,128,128)" stroke="none" d="M 16169,4529 L 16169,4529 C 16063,4529 15958,4633 15958,4739 L 15958,5583 15958,5583 C 15958,5689 16063,5794 16169,5794 L 21456,5794 21456,5794 C 21562,5794 21668,5689 21668,5583 L 21668,4739 21668,4739 C 21668,4633 21562,4529 21456,4529 L 16169,4529 Z"/>
  <path fill="none" stroke="rgb(128,128,128)" d="M 16169,4529 L 16169,4529 C 16063,4529 15958,4633 15958,4739 L 15958,5583 15958,5583 C 15958,5689 16063,5794 16169,5794 L 21456,5794 21456,5794 C 21562,5794 21668,5689 21668,5583 L 21668,4739 21668,4739 C 21668,4633 21562,4529 21456,4529 L 16169,4529 Z"/>
 </g>
 <g fill="rgb(128,128,128)" stroke="none" font-family="Arial" font-size="352" font-style="normal" font-weight="400">
  <text x="16108" y="5121">
   <tspan x="16108 16447 16680 16777 16997 17192 17408 17683 17937 18132 18347 18542 18775 19008 19262 19457 19711 20003 20354 20549 20803 21036 21268">WAIT_FOR_FLASH_RMW_READ</tspan></text>
  <path d="M 16108,5153 L 21346,5153 21346,5173 16108,5173 Z"/>
 </g>
 <g fill="rgb(128,128,128)" stroke="none" font-family="Arial" font-size="281" font-style="normal" font-weight="400">
  <text x="16670" y="5450">
   <tspan x="16670 16827 16983 17064 17127 17271 17415 17572 17728 17809 17902 18059 18215 18372 18452 18545 18702 18859 19015 19172 19316 19396 19477 19557 19714 19794 19968 20141 20298 20378 20459 20658 20814 20878">do/issue read request to FTL, wait</tspan></text>
  <path fill="rgb(153,204,255)" stroke="none" d="M 16067,4427 L 16067,4427 C 15961,4427 15856,4532 15856,4637 L 15856,5482 15856,5482 C 15856,5587 15961,5693 16067,5693 L 21354,5693 21354,5693 C 21460,5693 21566,5587 21566,5482 L 21566,4637 21566,4637 C 21566,4532 21460,4427 21354,4427 L 16067,4427 Z"/>
  <path fill="none" stroke="rgb(0,0,0)" d="M 16067,4427 L 16067,4427 C 15961,4427 15856,4532 15856,4637 L 15856,5482 15856,5482 C 15856,5587 15961,5693 16067,5693 L 21354,5693 21354,5693 C 21460,5693 21566,5587 21566,5482 L 21566,4637 21566,4637 C 21566,4532 21460,4427 21354,4427 L 16067,4427 Z"/>
 </g>
 <g fill="rgb(0,0,0)" stroke="none" font-family="Arial" font-size="352" font-style="normal" font-weight="400">
  <text x="16006" y="5020">
   <tspan x="16006 16345 16578 16675 16895 17090 17306 17581 17835 18030 18245 18440 18673 18906 19160 19355 19609 19901 20252 20447 20701 20934 21166">WAIT_FOR_FLASH_RMW_READ</tspan></text>
  <path d="M 16006,5052 L 21244,5052 21244,5072 16006,5072 Z"/>
 </g>
 <g fill="rgb(0,0,0)" stroke="none" font-family="Arial" font-size="281" font-style="normal" font-weight="400">
  <text x="16568" y="5348">
   <tspan x="16568 16725 16881 16962 17025 17169 17313 17470 17626 17707 17800 17957 18113 18270 18350 18443 18600 18757 18913 19070 19214 19294 19375 19455 19612 19692 19866 20039 20196 20276 20357 20556 20712 20776">do/issue read request to FTL, wait</tspan></text>
  <path fill="rgb(128,128,128)" stroke="none" d="M 11095,7691 L 11095,7691 C 10989,7691 10884,7795 10884,7901 L 10884,8745 10884,8745 C 10884,8851 10989,8957 11095,8957 L 16382,8957 16382,8957 C 16487,8957 16593,8851 16593,8745 L 16593,7901 16593,7901 C 16593,7795 16487,7691 16382,7691 L 11095,7691 Z"/>
  <path fill="none" stroke="rgb(128,128,128)" d="M 11095,7691 L 11095,7691 C 10989,7691 10884,7795 10884,7901 L 10884,8745 10884,8745 C 10884,8851 10989,8957 11095,8957 L 16382,8957 16382,8957 C 16487,8957 16593,8851 16593,8745 L 16593,7901 16593,7901 C 16593,7795 16487,7691 16382,7691 L 11095,7691 Z"/>
 </g>
 <g fill="rgb(128,128,128)" stroke="none" font-family="Arial" font-size="352" font-style="normal" font-weight="400">
  <text x="11821" y="8283">
   <tspan x="11821 12160 12393 12490 12710 12905 13121 13396 13650 13845 13942 14175 14408 14662 14882 15136 15428">WAIT_FOR_ISECTDMA</tspan></text>
  <path d="M 11821,8315 L 15498,8315 15498,8335 11821,8335 Z"/>
 </g>
 <g fill="rgb(128,128,128)" stroke="none" font-family="Arial" font-size="281" font-style="normal" font-weight="400">
  <text x="12241" y="8612">
   <tspan x="12241 12398 12554 12635 12698 12842 12986 13143 13299 13380 13460 13663 13896 14070 14150 14243 14400 14557 14713 14870 15014 15094">do/issue IDMA requests</tspan></text>
  <path fill="rgb(153,204,255)" stroke="none" d="M 10993,7589 L 10993,7589 C 10887,7589 10782,7694 10782,7799 L 10782,8644 10782,8644 C 10782,8749 10887,8855 10993,8855 L 16280,8855 16280,8855 C 16386,8855 16491,8749 16491,8644 L 16491,7799 16491,7799 C 16491,7694 16386,7589 16280,7589 L 10993,7589 Z"/>
  <path fill="none" stroke="rgb(0,0,0)" d="M 10993,7589 L 10993,7589 C 10887,7589 10782,7694 10782,7799 L 10782,8644 10782,8644 C 10782,8749 10887,8855 10993,8855 L 16280,8855 16280,8855 C 16386,8855 16491,8749 16491,8644 L 16491,7799 16491,7799 C 16491,7694 16386,7589 16280,7589 L 10993,7589 Z"/>
 </g>
 <g fill="rgb(0,0,0)" stroke="none" font-family="Arial" font-size="352" font-style="normal" font-weight="400">
  <text x="11719" y="8182">
   <tspan x="11719 12058 12291 12388 12608 12803 13019 13294 13548 13743 13840 14073 14306 14560 14780 15034 15326">WAIT_FOR_ISECTDMA</tspan></text>
  <path d="M 11719,8214 L 15396,8214 15396,8234 11719,8234 Z"/>
 </g>
 <g fill="rgb(0,0,0)" stroke="none" font-family="Arial" font-size="281" font-style="normal" font-weight="400">
  <text x="12139" y="8510">
   <tspan x="12139 12296 12452 12533 12596 12740 12884 13041 13197 13278 13358 13561 13794 13968 14048 14141 14298 14455 14611 14768 14912 14992">do/issue IDMA requests</tspan></text>
  <path fill="none" stroke="rgb(0,0,0)" d="M 18711,5692 L 18711,5692 C 18711,7379 18091,8074 16849,8204"/>
  <path fill="rgb(0,0,0)" stroke="none" d="M 16491,8222 L 16950,8342 16931,8044 16491,8222 Z"/>
  <text fill="rgb(0,0,0)" stroke="none" x="16400" y="7051">
   <tspan x="16400 16480 16684 16840 16997 17154 17357 17513 17577 17657 17750 17907 18051 18208 18271 18411 18567 18724">[ReadCpl received]</tspan></text>
  <path fill="none" stroke="rgb(0,0,0)" d="M 10783,8222 L 10783,8222 C 9303,8222 8675,7499 8574,6051"/>
  <path fill="rgb(0,0,0)" stroke="none" d="M 8562,5692 L 8432,6146 8731,6133 8562,5692 Z"/>
  <text fill="rgb(0,0,0)" stroke="none" x="7568" y="7051">
   <tspan x="7568 7648 7729 7919 8110 8313 8487 8690 8923 9096 9177 9321 9477 9719 9875 9939 10095 10176 10239 10396 10553 10633 10726 10883 11027 11183 11247 11386 11543 11700">[ISECTDMA completion received]</tspan></text>
  <path fill="none" stroke="rgb(0,0,0)" d="M 8562,4427 L 8562,4427 C 8562,2740 9184,2045 10425,1915"/>
  <path fill="rgb(0,0,0)" stroke="none" d="M 10783,1897 L 10324,1777 10343,2075 10783,1897 Z"/>
  <text fill="rgb(0,0,0)" stroke="none" x="8473" y="3257">
   <tspan x="8473 8553 8829 8922 8985 9066 9222 9426 9582 9646 9726 9819 9976 10120 10276 10340 10480 10636 10793">[WriteCpl received]</tspan></text>
 </g>
 <g fill="rgb(0,0,0)" stroke="none" font-family="Arial" font-size="632" font-style="normal" font-weight="400">
  <text x="8495" y="18402">
   <tspan x="8495 8951 9375 9903 10081 10504 10817 11168 11380 11732 12049 12367 12544 13001 13529">NVM Express RMW</tspan></text>
 </g>
</svg>