<?xml version="1.0" encoding="UTF-8"?><!DOCTYPE svg PUBLIC "-//W3C//DTD SVG 1.1//EN" "/SysSchema/SVG11/svg11.dtd">
<svg xmlns="http://www.w3.org/2000/svg" xmlns:xlink="http://www.w3.org/1999/xlink" width="201mm" height="142mm" viewBox="0 0 20100 14200" stroke-width="28.222" stroke-linejoin="round" xml:space="preserve" preserveAspectRatio="xMidYMid meet" zoomAndPan="magnify" version="1.1" contentScriptType="text/ecmascript" contentStyleType="text/css">
 <path fill="rgb(153,204,255)" stroke="none" d="M 10170,9855 L 10170,13353 16517,13353 16517,9855 10170,9855 Z"/>
 <path fill="none" stroke="none" d="M 10170,9855 L 10170,13353 16517,13353 16517,9855 10170,9855 Z"/>
 <path stroke-width="35" fill="none" stroke="rgb(0,0,0)" d="M 10170,9855 L 10170,13353 16517,13353 16517,9855 10170,9855 Z"/>
 <rect fill="rgb(192,192,192)" stroke="none" x="3821" y="949" width="12698" height="8908"/>
 <rect fill="rgb(127,127,127)" stroke="none" x="3823" y="952" width="12695" height="8904"/>
 <rect fill="rgb(192,192,192)" stroke="none" x="3821" y="949" width="12698" height="8908"/>
 <path fill="none" stroke="none" d="M 3823,952 L 3823,9855 16517,9855 16517,952 3823,952 Z"/>
 <path stroke-width="35" fill="none" stroke="rgb(0,0,0)" d="M 3823,952 L 3823,9855 16517,9855 16517,952 3823,952 Z"/>
 <g fill="rgb(129,138,143)" stroke="none" font-family="Arial" font-size="424" font-style="normal" font-weight="400">
  <text x="5230" y="8733">
   <tspan x="5230 5514 5819 5937">PCIe</tspan></text>
  <text fill="rgb(129,138,143)" stroke="none" x="4866" y="9238">
   <tspan x="4866 5217 5454 5687 5924 6152 6389">Manager</tspan></text>
  <path fill="rgb(129,138,143)" stroke="none" d="M 5692,8018 C 4874,8018 4212,8374 4212,8813 4212,9252 4874,9608 5692,9608 6510,9608 7173,9252 7173,8813 7173,8374 6510,8018 5692,8018 Z"/>
  <path fill="rgb(204,255,255)" stroke="none" d="M 5622,7947 C 4804,7947 4141,8303 4141,8742 4141,9181 4804,9537 5622,9537 6440,9537 7103,9181 7103,8742 7103,8303 6440,7947 5622,7947 Z"/>
  <path stroke-width="26" fill="none" stroke="rgb(0,0,0)" d="M 5622,7947 C 4804,7947 4141,8303 4141,8742 4141,9181 4804,9537 5622,9537 6440,9537 7103,9181 7103,8742 7103,8303 6440,7947 5622,7947 Z"/>
  <text fill="rgb(0,0,0)" stroke="none" x="5158" y="8661">
   <tspan x="5158 5442 5747 5865">PCIe</tspan></text>
  <text fill="rgb(0,0,0)" stroke="none" x="4794" y="9166">
   <tspan x="4794 5145 5382 5615 5852 6080 6317">Manager</tspan></text>
  <text fill="rgb(129,138,143)" stroke="none" x="5205" y="4918">
   <tspan x="5205 5510 5747 5861 6098">Datal</tspan></text>
  <text fill="rgb(129,138,143)" stroke="none" x="4866" y="5422">
   <tspan x="4866 5217 5454 5687 5924 6152 6389">Manager</tspan></text>
  <path fill="rgb(129,138,143)" stroke="none" d="M 5692,4202 C 4874,4202 4212,4558 4212,4997 4212,5436 4874,5792 5692,5792 6510,5792 7173,5436 7173,4997 7173,4558 6510,4202 5692,4202 Z"/>
  <path fill="rgb(204,255,255)" stroke="none" d="M 5622,4131 C 4804,4131 4141,4487 4141,4926 4141,5366 4804,5721 5622,5721 6440,5721 7103,5366 7103,4926 7103,4487 6440,4131 5622,4131 Z"/>
  <path stroke-width="26" fill="none" stroke="rgb(0,0,0)" d="M 5622,4131 C 4804,4131 4141,4487 4141,4926 4141,5366 4804,5721 5622,5721 6440,5721 7103,5366 7103,4926 7103,4487 6440,4131 5622,4131 Z"/>
  <text fill="rgb(0,0,0)" stroke="none" x="5133" y="4846">
   <tspan x="5133 5438 5675 5789 6026">Datal</tspan></text>
  <text fill="rgb(0,0,0)" stroke="none" x="4794" y="5350">
   <tspan x="4794 5145 5382 5615 5852 6080 6317">Manager</tspan></text>
  <text fill="rgb(129,138,143)" stroke="none" x="5205" y="5236">
   <tspan x="5205 5510 5747 5861 6098">Datal</tspan></text>
  <text fill="rgb(129,138,143)" stroke="none" x="4866" y="5740">
   <tspan x="4866 5217 5454 5687 5924 6152 6389">Manager</tspan></text>
  <path fill="rgb(129,138,143)" stroke="none" d="M 5692,4520 C 4874,4520 4212,4876 4212,5315 4212,5754 4874,6110 5692,6110 6510,6110 7173,5754 7173,5315 7173,4876 6510,4520 5692,4520 Z"/>
  <path fill="rgb(204,255,255)" stroke="none" d="M 5622,4449 C 4804,4449 4141,4805 4141,5244 4141,5684 4804,6039 5622,6039 6440,6039 7103,5684 7103,5244 7103,4805 6440,4449 5622,4449 Z"/>
  <path stroke-width="26" fill="none" stroke="rgb(0,0,0)" d="M 5622,4449 C 4804,4449 4141,4805 4141,5244 4141,5684 4804,6039 5622,6039 6440,6039 7103,5684 7103,5244 7103,4805 6440,4449 5622,4449 Z"/>
  <text fill="rgb(0,0,0)" stroke="none" x="5133" y="5164">
   <tspan x="5133 5438 5675 5789 6026">Datal</tspan></text>
  <text fill="rgb(0,0,0)" stroke="none" x="4794" y="5668">
   <tspan x="4794 5145 5382 5615 5852 6080 6317">Manager</tspan></text>
  <text fill="rgb(129,138,143)" stroke="none" x="5205" y="5554">
   <tspan x="5205 5510 5747 5861 6098">Datal</tspan></text>
  <text fill="rgb(129,138,143)" stroke="none" x="4866" y="6058">
   <tspan x="4866 5217 5454 5687 5924 6152 6389">Manager</tspan></text>
  <path fill="rgb(129,138,143)" stroke="none" d="M 5692,4838 C 4874,4838 4212,5194 4212,5633 4212,6072 4874,6428 5692,6428 6510,6428 7173,6072 7173,5633 7173,5194 6510,4838 5692,4838 Z"/>
  <path fill="rgb(204,255,255)" stroke="none" d="M 5622,4767 C 4804,4767 4141,5123 4141,5562 4141,6001 4804,6357 5622,6357 6440,6357 7103,6001 7103,5562 7103,5123 6440,4767 5622,4767 Z"/>
  <path stroke-width="26" fill="none" stroke="rgb(0,0,0)" d="M 5622,4767 C 4804,4767 4141,5123 4141,5562 4141,6001 4804,6357 5622,6357 6440,6357 7103,6001 7103,5562 7103,5123 6440,4767 5622,4767 Z"/>
  <text fill="rgb(0,0,0)" stroke="none" x="5133" y="5482">
   <tspan x="5133 5438 5675 5789 6026">Datal</tspan></text>
  <text fill="rgb(0,0,0)" stroke="none" x="4794" y="5986">
   <tspan x="4794 5145 5382 5615 5852 6080 6317">Manager</tspan></text>
  <text fill="rgb(129,138,143)" stroke="none" x="5251" y="5872">
   <tspan x="5251 5556 5793 5907">Data</tspan></text>
  <text fill="rgb(129,138,143)" stroke="none" x="4866" y="6376">
   <tspan x="4866 5217 5454 5687 5924 6152 6389">Manager</tspan></text>
  <path fill="rgb(129,138,143)" stroke="none" d="M 5692,5156 C 4874,5156 4212,5512 4212,5951 4212,6390 4874,6746 5692,6746 6510,6746 7173,6390 7173,5951 7173,5512 6510,5156 5692,5156 Z"/>
  <path fill="rgb(204,255,255)" stroke="none" d="M 5622,5085 C 4804,5085 4141,5441 4141,5880 4141,6319 4804,6675 5622,6675 6440,6675 7103,6319 7103,5880 7103,5441 6440,5085 5622,5085 Z"/>
  <path stroke-width="26" fill="none" stroke="rgb(0,0,0)" d="M 5622,5085 C 4804,5085 4141,5441 4141,5880 4141,6319 4804,6675 5622,6675 6440,6675 7103,6319 7103,5880 7103,5441 6440,5085 5622,5085 Z"/>
  <text fill="rgb(0,0,0)" stroke="none" x="5179" y="5800">
   <tspan x="5179 5484 5721 5835">Data</tspan></text>
  <text fill="rgb(0,0,0)" stroke="none" x="4794" y="6304">
   <tspan x="4794 5145 5382 5615 5852 6080 6317">Manager</tspan></text>
  <text fill="rgb(129,138,143)" stroke="none" x="5205" y="4918">
   <tspan x="5205 5510 5747 5861 6098">Datal</tspan></text>
  <text fill="rgb(129,138,143)" stroke="none" x="4866" y="5422">
   <tspan x="4866 5217 5454 5687 5924 6152 6389">Manager</tspan></text>
  <path fill="rgb(129,138,143)" stroke="none" d="M 5692,4202 C 4874,4202 4212,4558 4212,4997 4212,5436 4874,5792 5692,5792 6510,5792 7173,5436 7173,4997 7173,4558 6510,4202 5692,4202 Z"/>
  <path fill="rgb(204,255,255)" stroke="none" d="M 5622,4131 C 4804,4131 4141,4487 4141,4926 4141,5366 4804,5721 5622,5721 6440,5721 7103,5366 7103,4926 7103,4487 6440,4131 5622,4131 Z"/>
  <path stroke-width="26" fill="none" stroke="rgb(0,0,0)" d="M 5622,4131 C 4804,4131 4141,4487 4141,4926 4141,5366 4804,5721 5622,5721 6440,5721 7103,5366 7103,4926 7103,4487 6440,4131 5622,4131 Z"/>
  <text fill="rgb(0,0,0)" stroke="none" x="5133" y="4846">
   <tspan x="5133 5438 5675 5789 6026">Datal</tspan></text>
  <text fill="rgb(0,0,0)" stroke="none" x="4794" y="5350">
   <tspan x="4794 5145 5382 5615 5852 6080 6317">Manager</tspan></text>
  <text fill="rgb(129,138,143)" stroke="none" x="5205" y="5236">
   <tspan x="5205 5510 5747 5861 6098">Datal</tspan></text>
  <text fill="rgb(129,138,143)" stroke="none" x="4866" y="5740">
   <tspan x="4866 5217 5454 5687 5924 6152 6389">Manager</tspan></text>
  <path fill="rgb(129,138,143)" stroke="none" d="M 5692,4520 C 4874,4520 4212,4876 4212,5315 4212,5754 4874,6110 5692,6110 6510,6110 7173,5754 7173,5315 7173,4876 6510,4520 5692,4520 Z"/>
  <path fill="rgb(204,255,255)" stroke="none" d="M 5622,4449 C 4804,4449 4141,4805 4141,5244 4141,5684 4804,6039 5622,6039 6440,6039 7103,5684 7103,5244 7103,4805 6440,4449 5622,4449 Z"/>
  <path stroke-width="26" fill="none" stroke="rgb(0,0,0)" d="M 5622,4449 C 4804,4449 4141,4805 4141,5244 4141,5684 4804,6039 5622,6039 6440,6039 7103,5684 7103,5244 7103,4805 6440,4449 5622,4449 Z"/>
  <text fill="rgb(0,0,0)" stroke="none" x="5133" y="5164">
   <tspan x="5133 5438 5675 5789 6026">Datal</tspan></text>
  <text fill="rgb(0,0,0)" stroke="none" x="4794" y="5668">
   <tspan x="4794 5145 5382 5615 5852 6080 6317">Manager</tspan></text>
  <text fill="rgb(129,138,143)" stroke="none" x="5205" y="5554">
   <tspan x="5205 5510 5747 5861 6098">Datal</tspan></text>
  <text fill="rgb(129,138,143)" stroke="none" x="4866" y="6058">
   <tspan x="4866 5217 5454 5687 5924 6152 6389">Manager</tspan></text>
  <path fill="rgb(129,138,143)" stroke="none" d="M 5692,4838 C 4874,4838 4212,5194 4212,5633 4212,6072 4874,6428 5692,6428 6510,6428 7173,6072 7173,5633 7173,5194 6510,4838 5692,4838 Z"/>
  <path fill="rgb(204,255,255)" stroke="none" d="M 5622,4767 C 4804,4767 4141,5123 4141,5562 4141,6001 4804,6357 5622,6357 6440,6357 7103,6001 7103,5562 7103,5123 6440,4767 5622,4767 Z"/>
  <path stroke-width="26" fill="none" stroke="rgb(0,0,0)" d="M 5622,4767 C 4804,4767 4141,5123 4141,5562 4141,6001 4804,6357 5622,6357 6440,6357 7103,6001 7103,5562 7103,5123 6440,4767 5622,4767 Z"/>
  <text fill="rgb(0,0,0)" stroke="none" x="5133" y="5482">
   <tspan x="5133 5438 5675 5789 6026">Datal</tspan></text>
  <text fill="rgb(0,0,0)" stroke="none" x="4794" y="5986">
   <tspan x="4794 5145 5382 5615 5852 6080 6317">Manager</tspan></text>
  <text fill="rgb(129,138,143)" stroke="none" x="5251" y="5872">
   <tspan x="5251 5556 5793 5907">Data</tspan></text>
  <text fill="rgb(129,138,143)" stroke="none" x="4866" y="6376">
   <tspan x="4866 5217 5454 5687 5924 6152 6389">Manager</tspan></text>
  <path fill="rgb(129,138,143)" stroke="none" d="M 5692,5156 C 4874,5156 4212,5512 4212,5951 4212,6390 4874,6746 5692,6746 6510,6746 7173,6390 7173,5951 7173,5512 6510,5156 5692,5156 Z"/>
  <path fill="rgb(204,255,255)" stroke="none" d="M 5622,5085 C 4804,5085 4141,5441 4141,5880 4141,6319 4804,6675 5622,6675 6440,6675 7103,6319 7103,5880 7103,5441 6440,5085 5622,5085 Z"/>
  <path stroke-width="26" fill="none" stroke="rgb(0,0,0)" d="M 5622,5085 C 4804,5085 4141,5441 4141,5880 4141,6319 4804,6675 5622,6675 6440,6675 7103,6319 7103,5880 7103,5441 6440,5085 5622,5085 Z"/>
  <text fill="rgb(0,0,0)" stroke="none" x="5179" y="5800">
   <tspan x="5179 5484 5721 5835">Data</tspan></text>
  <text fill="rgb(0,0,0)" stroke="none" x="4794" y="6304">
   <tspan x="4794 5145 5382 5615 5852 6080 6317">Manager</tspan></text>
  <path fill="rgb(153,204,255)" stroke="none" d="M 16517,952 L 16517,9855 20008,9855 20008,952 16517,952 Z"/>
  <path fill="none" stroke="none" d="M 16517,952 L 16517,9855 20008,9855 20008,952 16517,952 Z"/>
  <path stroke-width="35" fill="none" stroke="rgb(0,0,0)" d="M 16517,952 L 16517,9855 20008,9855 20008,952 16517,952 Z"/>
  <path fill="rgb(153,204,255)" stroke="none" d="M 15,952 L 15,9855 3823,9855 3823,952 15,952 Z"/>
  <path fill="none" stroke="none" d="M 15,952 L 15,9855 3823,9855 3823,952 15,952 Z"/>
  <path stroke-width="35" fill="none" stroke="rgb(0,0,0)" d="M 15,952 L 15,9855 3823,9855 3823,952 15,952 Z"/>
  <text fill="rgb(129,138,143)" stroke="none" x="474" y="2056">i</text>
  <text fill="rgb(129,138,143)" stroke="none" x="567" y="2056">-</text>
  <text fill="rgb(129,138,143)" stroke="none" x="707" y="2056">
   <tspan x="707 1012 1363 1647 1765 1883">DMA, e</tspan></text>
  <text fill="rgb(129,138,143)" stroke="none" x="2120" y="2056">-</text>
  <text fill="rgb(129,138,143)" stroke="none" x="2260" y="2056">
   <tspan x="2260 2565 2916">DMA</tspan></text>
  <text fill="rgb(129,138,143)" stroke="none" x="1007" y="2560">
   <tspan x="1007 1358 1595 1828 2065 2293 2530">Manager</tspan></text>
  <path fill="rgb(129,138,143)" stroke="none" d="M 1831,1340 C 1042,1340 403,1696 403,2135 403,2574 1042,2930 1831,2930 2620,2930 3259,2574 3259,2135 3259,1696 2620,1340 1831,1340 Z"/>
  <path fill="rgb(255,204,153)" stroke="none" d="M 1760,1269 C 972,1269 332,1626 332,2064 332,2503 972,2859 1760,2859 2549,2859 3189,2503 3189,2064 3189,1626 2549,1269 1760,1269 Z"/>
  <path stroke-width="26" fill="none" stroke="rgb(0,0,0)" d="M 1760,1269 C 972,1269 332,1626 332,2064 332,2503 972,2859 1760,2859 2549,2859 3189,2503 3189,2064 3189,1626 2549,1269 1760,1269 Z"/>
  <text fill="rgb(0,0,0)" stroke="none" x="402" y="1984">i</text>
  <text fill="rgb(0,0,0)" stroke="none" x="495" y="1984">-</text>
  <text fill="rgb(0,0,0)" stroke="none" x="635" y="1984">
   <tspan x="635 940 1291 1575 1693 1811">DMA, e</tspan></text>
  <text fill="rgb(0,0,0)" stroke="none" x="2048" y="1984">-</text>
  <text fill="rgb(0,0,0)" stroke="none" x="2188" y="1984">
   <tspan x="2188 2493 2844">DMA</tspan></text>
  <text fill="rgb(0,0,0)" stroke="none" x="935" y="2488">
   <tspan x="935 1286 1523 1756 1993 2221 2458">Manager</tspan></text>
  <text fill="rgb(129,138,143)" stroke="none" x="804" y="4282">
   <tspan x="804 1088 1321 1554 1909 2002 2214 2426 2515 2752">Submission</tspan></text>
  <text fill="rgb(129,138,143)" stroke="none" x="1058" y="4786">
   <tspan x="1058 1409 1646 1879 2116 2344 2581">Manager</tspan></text>
  <path fill="rgb(129,138,143)" stroke="none" d="M 1884,3566 C 1066,3566 403,3922 403,4361 403,4800 1066,5156 1884,5156 2702,5156 3365,4800 3365,4361 3365,3922 2702,3566 1884,3566 Z"/>
  <path fill="rgb(255,204,153)" stroke="none" d="M 1813,3495 C 996,3495 332,3851 332,4290 332,4730 996,5085 1813,5085 2632,5085 3294,4730 3294,4290 3294,3851 2632,3495 1813,3495 Z"/>
  <path stroke-width="26" fill="none" stroke="rgb(0,0,0)" d="M 1813,3495 C 996,3495 332,3851 332,4290 332,4730 996,5085 1813,5085 2632,5085 3294,4730 3294,4290 3294,3851 2632,3495 1813,3495 Z"/>
  <text fill="rgb(0,0,0)" stroke="none" x="732" y="4210">
   <tspan x="732 1016 1249 1482 1837 1930 2142 2354 2443 2680">Submission</tspan></text>
  <text fill="rgb(0,0,0)" stroke="none" x="986" y="4714">
   <tspan x="986 1337 1574 1807 2044 2272 2509">Manager</tspan></text>
  <text fill="rgb(129,138,143)" stroke="none" x="825" y="6508">
   <tspan x="825 1130 1363 1718 1951 2044 2281 2399 2488 2721">Completion</tspan></text>
  <text fill="rgb(129,138,143)" stroke="none" x="1058" y="7012">
   <tspan x="1058 1409 1646 1879 2116 2344 2581">Manager</tspan></text>
  <path fill="rgb(129,138,143)" stroke="none" d="M 1884,5792 C 1066,5792 403,6148 403,6587 403,7026 1066,7382 1884,7382 2702,7382 3365,7026 3365,6587 3365,6148 2702,5792 1884,5792 Z"/>
  <path fill="rgb(255,204,153)" stroke="none" d="M 1813,5721 C 996,5721 332,6077 332,6516 332,6955 996,7311 1813,7311 2632,7311 3294,6955 3294,6516 3294,6077 2632,5721 1813,5721 Z"/>
  <path stroke-width="26" fill="none" stroke="rgb(0,0,0)" d="M 1813,5721 C 996,5721 332,6077 332,6516 332,6955 996,7311 1813,7311 2632,7311 3294,6955 3294,6516 3294,6077 2632,5721 1813,5721 Z"/>
  <text fill="rgb(0,0,0)" stroke="none" x="753" y="6436">
   <tspan x="753 1058 1291 1646 1879 1972 2209 2327 2416 2649">Completion</tspan></text>
  <text fill="rgb(0,0,0)" stroke="none" x="986" y="6940">
   <tspan x="986 1337 1574 1807 2044 2272 2509">Manager</tspan></text>
  <text fill="rgb(129,138,143)" stroke="none" x="1456" y="8733">
   <tspan x="1456 1761 1998 2210">Host</tspan></text>
  <text fill="rgb(129,138,143)" stroke="none" x="1058" y="9238">
   <tspan x="1058 1409 1646 1879 2116 2344 2581">Manager</tspan></text>
  <path fill="rgb(129,138,143)" stroke="none" d="M 1884,8018 C 1066,8018 403,8374 403,8813 403,9252 1066,9608 1884,9608 2702,9608 3365,9252 3365,8813 3365,8374 2702,8018 1884,8018 Z"/>
  <path fill="rgb(255,204,153)" stroke="none" d="M 1813,7947 C 996,7947 332,8303 332,8742 332,9181 996,9537 1813,9537 2632,9537 3294,9181 3294,8742 3294,8303 2632,7947 1813,7947 Z"/>
  <path stroke-width="26" fill="none" stroke="rgb(0,0,0)" d="M 1813,7947 C 996,7947 332,8303 332,8742 332,9181 996,9537 1813,9537 2632,9537 3294,9181 3294,8742 3294,8303 2632,7947 1813,7947 Z"/>
  <text fill="rgb(0,0,0)" stroke="none" x="1384" y="8661">
   <tspan x="1384 1689 1926 2138">Host</tspan></text>
  <text fill="rgb(0,0,0)" stroke="none" x="986" y="9166">
   <tspan x="986 1337 1574 1807 2044 2272 2509">Manager</tspan></text>
 </g>
 <g fill="rgb(0,0,0)" stroke="none" font-family="Tahoma" font-size="496" font-style="normal" font-weight="400">
  <text x="8205" y="619">
   <tspan x="8205 8476 8654 8925 9153 9415 9635 9855 10126 10299 10456 10752 11019 11434 11709 11823 12081">Processor Complex</tspan></text>
  <text fill="rgb(0,0,0)" stroke="none" x="906" y="619">
   <tspan x="906 1240 1511 1731 1896 2053 2235 2425">Host I/F</tspan></text>
  <text fill="rgb(0,0,0)" stroke="none" x="17408" y="619">
   <tspan x="17408 17666 17780 18038 18258 18533 18690 18876 19062">Flash I/F</tspan></text>
 </g>
 <g fill="rgb(129,138,143)" stroke="none" font-family="Arial" font-size="424" font-style="normal" font-weight="400">
  <text x="17874" y="5236">
   <tspan x="17874 18132 18225 18462 18674">Flash</tspan></text>
  <text fill="rgb(129,138,143)" stroke="none" x="17569" y="5740">
   <tspan x="17569 17687 17924 18042 18279 18414 18532 18769 18981">Interface</tspan></text>
  <path fill="rgb(129,138,143)" stroke="none" d="M 18387,4520 C 17569,4520 16906,4876 16906,5315 16906,5754 17569,6110 18387,6110 19204,6110 19868,5754 19868,5315 19868,4876 19204,4520 18387,4520 Z"/>
  <path fill="rgb(255,204,153)" stroke="none" d="M 18316,4449 C 17498,4449 16835,4805 16835,5244 16835,5684 17498,6039 18316,6039 19135,6039 19797,5684 19797,5244 19797,4805 19135,4449 18316,4449 Z"/>
  <path stroke-width="26" fill="none" stroke="rgb(0,0,0)" d="M 18316,4449 C 17498,4449 16835,4805 16835,5244 16835,5684 17498,6039 18316,6039 19135,6039 19797,5684 19797,5244 19797,4805 19135,4449 18316,4449 Z"/>
  <text fill="rgb(0,0,0)" stroke="none" x="17802" y="5164">
   <tspan x="17802 18060 18153 18390 18602">Flash</tspan></text>
  <text fill="rgb(0,0,0)" stroke="none" x="17497" y="5668">
   <tspan x="17497 17615 17852 17970 18207 18342 18460 18697 18909">Interface</tspan></text>
  <path fill="rgb(153,204,255)" stroke="none" d="M 3823,9855 L 3823,13353 10170,13353 10170,9855 3823,9855 Z"/>
  <path fill="none" stroke="none" d="M 3823,9855 L 3823,13353 10170,13353 10170,9855 3823,9855 Z"/>
  <path stroke-width="35" fill="none" stroke="rgb(0,0,0)" d="M 3823,9855 L 3823,13353 10170,13353 10170,9855 3823,9855 Z"/>
  <text fill="rgb(129,138,143)" stroke="none" x="5124" y="11209">
   <tspan x="5124 5429 5734 6039">DDR3</tspan></text>
  <path fill="rgb(129,138,143)" stroke="none" d="M 5692,10244 C 4874,10244 4212,10599 4212,11039 4212,11478 4874,11834 5692,11834 6510,11834 7173,11478 7173,11039 7173,10599 6510,10244 5692,10244 Z"/>
  <path fill="rgb(255,204,153)" stroke="none" d="M 5622,10173 C 4804,10173 4141,10529 4141,10968 4141,11407 4804,11763 5622,11763 6440,11763 7103,11407 7103,10968 7103,10529 6440,10173 5622,10173 Z"/>
  <path stroke-width="26" fill="none" stroke="rgb(0,0,0)" d="M 5622,10173 C 4804,10173 4141,10529 4141,10968 4141,11407 4804,11763 5622,11763 6440,11763 7103,11407 7103,10968 7103,10529 6440,10173 5622,10173 Z"/>
  <text fill="rgb(0,0,0)" stroke="none" x="5052" y="11137">
   <tspan x="5052 5357 5662 5967">DDR3</tspan></text>
 </g>
 <g fill="rgb(0,0,0)" stroke="none" font-family="Tahoma" font-size="496" font-style="normal" font-weight="400">
  <text x="5031" y="13974">
   <tspan x="5031 5412 5674 6084 6355 6533 6778 6935 7227 7498 7769 7934 8112 8383 8497 8607 8869">Memory Controller</tspan></text>
 </g>
 <g fill="rgb(129,138,143)" stroke="none" font-family="Arial" font-size="424" font-style="normal" font-weight="400">
  <text x="4972" y="2056">
   <tspan x="4972 5205 5442 5654 5866 5955 6192">Locking</tspan></text>
  <text fill="rgb(129,138,143)" stroke="none" x="4866" y="2560">
   <tspan x="4866 5217 5454 5687 5924 6152 6389">Manager</tspan></text>
  <path fill="rgb(129,138,143)" stroke="none" d="M 5692,1341 C 4874,1341 4212,1696 4212,2135 4212,2574 4874,2930 5692,2930 6510,2930 7173,2574 7173,2135 7173,1696 6510,1341 5692,1341 Z"/>
  <path fill="rgb(204,255,255)" stroke="none" d="M 5622,1269 C 4804,1269 4141,1626 4141,2064 4141,2504 4804,2859 5622,2859 6440,2859 7103,2504 7103,2064 7103,1626 6440,1269 5622,1269 Z"/>
  <path stroke-width="26" fill="none" stroke="rgb(0,0,0)" d="M 5622,1269 C 4804,1269 4141,1626 4141,2064 4141,2504 4804,2859 5622,2859 6440,2859 7103,2504 7103,2064 7103,1626 6440,1269 5622,1269 Z"/>
  <text fill="rgb(0,0,0)" stroke="none" x="4900" y="1984">
   <tspan x="4900 5133 5370 5582 5794 5883 6120">Locking</tspan></text>
  <text fill="rgb(0,0,0)" stroke="none" x="4794" y="2488">
   <tspan x="4794 5145 5382 5615 5852 6080 6317">Manager</tspan></text>
  <text fill="rgb(129,138,143)" stroke="none" x="8725" y="6508">
   <tspan x="8725 9009 9242 9597 9686 9923 10041 10346 10697">Admin Cmd</tspan></text>
  <text fill="rgb(129,138,143)" stroke="none" x="8992" y="7012">
   <tspan x="8992 9343 9580 9813 10050 10278 10515">Manager</tspan></text>
  <path fill="rgb(129,138,143)" stroke="none" d="M 9818,5792 C 9000,5792 8337,6148 8337,6587 8337,7026 9000,7382 9818,7382 10636,7382 11299,7026 11299,6587 11299,6148 10636,5792 9818,5792 Z"/>
  <path fill="rgb(204,255,255)" stroke="none" d="M 9747,5721 C 8930,5721 8266,6077 8266,6516 8266,6955 8930,7311 9747,7311 10565,7311 11228,6955 11228,6516 11228,6077 10565,5721 9747,5721 Z"/>
  <path stroke-width="26" fill="none" stroke="rgb(0,0,0)" d="M 9747,5721 C 8930,5721 8266,6077 8266,6516 8266,6955 8930,7311 9747,7311 10565,7311 11228,6955 11228,6516 11228,6077 10565,5721 9747,5721 Z"/>
  <text fill="rgb(0,0,0)" stroke="none" x="8653" y="6436">
   <tspan x="8653 8937 9170 9525 9614 9851 9969 10274 10625">Admin Cmd</tspan></text>
  <text fill="rgb(0,0,0)" stroke="none" x="8920" y="6940">
   <tspan x="8920 9271 9508 9741 9978 10206 10443">Manager</tspan></text>
  <rect fill="rgb(204,255,204)" stroke="none" x="12390" y="1267" width="3812" height="8272"/>
  <rect fill="rgb(127,127,127)" stroke="none" x="12392" y="1269" width="3809" height="8268"/>
  <rect fill="rgb(204,255,204)" stroke="none" x="12390" y="1267" width="3812" height="8272"/>
  <path fill="rgb(0,0,0)" stroke="rgb(0,0,0)" d="M 16200,1288 L 15919,1288 15919,1253 16200,1253 16200,1288 Z M 15813,1288 L 15530,1288 15530,1253 15813,1253 15813,1288 Z M 15425,1288 L 15142,1288 15142,1253 15425,1253 15425,1288 Z M 15036,1288 L 14755,1288 14755,1253 15036,1253 15036,1288 Z M 14649,1288 L 14367,1288 14367,1253 14649,1253 14649,1288 Z M 14261,1288 L 13979,1288 13979,1253 14261,1253 14261,1288 Z M 13873,1288 L 13591,1288 13591,1253 13873,1253 13873,1288 Z M 13486,1288 L 13203,1288 13203,1253 13486,1253 13486,1288 Z M 13097,1288 L 12815,1288 12815,1253 13097,1253 13097,1288 Z M 12709,1288 L 12428,1288 12428,1253 12709,1253 12709,1288 Z M 12410,1341 L 12410,1624 12375,1624 12375,1341 12410,1341 Z M 12410,1729 L 12410,2011 12375,2011 12375,1729 12410,1729 Z M 12410,2117 L 12410,2400 12375,2400 12375,2117 12410,2117 Z M 12410,2506 L 12410,2789 12375,2789 12375,2506 12410,2506 Z M 12410,2895 L 12410,3177 12375,3177 12375,2895 12410,2895 Z M 12410,3283 L 12410,3566 12375,3566 12375,3283 12410,3283 Z M 12410,3672 L 12410,3955 12375,3955 12375,3672 12410,3672 Z M 12410,4061 L 12410,4343 12375,4343 12375,4061 12410,4061 Z M 12410,4449 L 12410,4732 12375,4732 12375,4449 12410,4449 Z M 12410,4838 L 12410,5121 12375,5121 12375,4838 12410,4838 Z M 12410,5227 L 12410,5509 12375,5509 12375,5227 12410,5227 Z M 12410,5615 L 12410,5898 12375,5898 12375,5615 12410,5615 Z M 12410,6004 L 12410,6287 12375,6287 12375,6004 12410,6004 Z M 12410,6393 L 12410,6675 12375,6675 12375,6393 12410,6393 Z M 12410,6781 L 12410,7064 12375,7064 12375,6781 12410,6781 Z M 12410,7170 L 12410,7453 12375,7453 12375,7170 12410,7170 Z M 12410,7559 L 12410,7841 12375,7841 12375,7559 12410,7559 Z M 12410,7947 L 12410,8230 12375,8230 12375,7947 12410,7947 Z M 12410,8336 L 12410,8619 12375,8619 12375,8336 12410,8336 Z M 12410,8725 L 12410,9007 12375,9007 12375,8725 12410,8725 Z M 12410,9113 L 12410,9396 12375,9396 12375,9113 12410,9113 Z M 12410,9502 L 12410,9537 12392,9520 12639,9520 12639,9555 12375,9555 12375,9502 12410,9502 Z M 12745,9520 L 13027,9520 13027,9555 12745,9555 12745,9520 Z M 13132,9520 L 13415,9520 13415,9555 13132,9555 13132,9520 Z M 13521,9520 L 13803,9520 13803,9555 13521,9555 13521,9520 Z M 13909,9520 L 14190,9520 14190,9555 13909,9555 13909,9520 Z M 14296,9520 L 14578,9520 14578,9555 14296,9555 14296,9520 Z M 14684,9520 L 14967,9520 14967,9555 14684,9555 14684,9520 Z M 15072,9520 L 15354,9520 15354,9555 15072,9555 15072,9520 Z M 15460,9520 L 15742,9520 15742,9555 15460,9555 15460,9520 Z M 15848,9520 L 16130,9520 16130,9555 15848,9555 15848,9520 Z M 16183,9502 L 16183,9219 16218,9219 16218,9502 16183,9502 Z M 16183,9113 L 16183,8831 16218,8831 16218,9113 16183,9113 Z M 16183,8725 L 16183,8442 16218,8442 16218,8725 16183,8725 Z M 16183,8336 L 16183,8053 16218,8053 16218,8336 16183,8336 Z M 16183,7947 L 16183,7665 16218,7665 16218,7947 16183,7947 Z M 16183,7559 L 16183,7276 16218,7276 16218,7559 16183,7559 Z M 16183,7170 L 16183,6887 16218,6887 16218,7170 16183,7170 Z M 16183,6781 L 16183,6499 16218,6499 16218,6781 16183,6781 Z M 16183,6393 L 16183,6110 16218,6110 16218,6393 16183,6393 Z M 16183,6004 L 16183,5721 16218,5721 16218,6004 16183,6004 Z M 16183,5615 L 16183,5333 16218,5333 16218,5615 16183,5615 Z M 16183,5227 L 16183,4944 16218,4944 16218,5227 16183,5227 Z M 16183,4838 L 16183,4555 16218,4555 16218,4838 16183,4838 Z M 16183,4449 L 16183,4167 16218,4167 16218,4449 16183,4449 Z M 16183,4061 L 16183,3778 16218,3778 16218,4061 16183,4061 Z M 16183,3672 L 16183,3389 16218,3389 16218,3672 16183,3672 Z M 16183,3283 L 16183,3001 16218,3001 16218,3283 16183,3283 Z M 16183,2895 L 16183,2612 16218,2612 16218,2895 16183,2895 Z M 16183,2506 L 16183,2223 16218,2223 16218,2506 16183,2506 Z M 16183,2117 L 16183,1835 16218,1835 16218,2117 16183,2117 Z M 16183,1729 L 16183,1446 16218,1446 16218,1729 16183,1729 Z M 16183,1341 L 16183,1269 16218,1269 16218,1341 16183,1341 Z"/>
 </g>
 <g fill="rgb(0,0,0)" stroke="none" font-family="Tahoma" font-size="496" font-style="normal" font-weight="400">
  <text x="13900" y="5600">
   <tspan x="13900 14158 14446">FTL</tspan></text>
 </g>
 <g fill="rgb(129,138,143)" stroke="none" font-family="Arial" font-size="424" font-style="normal" font-weight="400">
  <text x="11586" y="10959">
   <tspan x="11586 11865 12195">XOR</tspan></text>
  <text fill="rgb(129,138,143)" stroke="none" x="11391" y="11464">
   <tspan x="11391 11675 11912 12145 12234 12467">Engine</tspan></text>
  <path fill="rgb(129,138,143)" stroke="none" d="M 12040,10244 C 11221,10244 10559,10599 10559,11039 10559,11478 11221,11834 12040,11834 12857,11834 13521,11478 13521,11039 13521,10599 12857,10244 12040,10244 Z"/>
  <path fill="rgb(255,204,153)" stroke="none" d="M 11969,10173 C 11151,10173 10488,10529 10488,10968 10488,11407 11151,11763 11969,11763 12787,11763 13450,11407 13450,10968 13450,10529 12787,10173 11969,10173 Z"/>
  <path stroke-width="26" fill="none" stroke="rgb(0,0,0)" d="M 11969,10173 C 11151,10173 10488,10529 10488,10968 10488,11407 11151,11763 11969,11763 12787,11763 13450,11407 13450,10968 13450,10529 12787,10173 11969,10173 Z"/>
  <text fill="rgb(0,0,0)" stroke="none" x="11514" y="10887">
   <tspan x="11514 11793 12123">XOR</tspan></text>
  <text fill="rgb(0,0,0)" stroke="none" x="11319" y="11392">
   <tspan x="11319 11603 11840 12073 12162 12395">Engine</tspan></text>
  <text fill="rgb(129,138,143)" stroke="none" x="12986" y="12231">
   <tspan x="12986 13223 13316 13528">List</tspan></text>
  <text fill="rgb(129,138,143)" stroke="none" x="12661" y="12736">
   <tspan x="12661 12945 13182 13415 13504 13737">Engine</tspan></text>
  <path fill="rgb(129,138,143)" stroke="none" d="M 13309,11516 C 12491,11516 11828,11871 11828,12311 11828,12749 12491,13106 13309,13106 14127,13106 14790,12749 14790,12311 14790,11871 14127,11516 13309,11516 Z"/>
  <path fill="rgb(255,204,153)" stroke="none" d="M 13238,11445 C 12420,11445 11757,11801 11757,12240 11757,12679 12420,13035 13238,13035 14056,13035 14719,12679 14719,12240 14719,11801 14056,11445 13238,11445 Z"/>
  <path stroke-width="26" fill="none" stroke="rgb(0,0,0)" d="M 13238,11445 C 12420,11445 11757,11801 11757,12240 11757,12679 12420,13035 13238,13035 14056,13035 14719,12679 14719,12240 14719,11801 14056,11445 13238,11445 Z"/>
  <text fill="rgb(0,0,0)" stroke="none" x="12914" y="12159">
   <tspan x="12914 13151 13244 13456">List</tspan></text>
  <text fill="rgb(0,0,0)" stroke="none" x="12589" y="12664">
   <tspan x="12589 12873 13110 13343 13432 13665">Engine</tspan></text>
  <text fill="rgb(129,138,143)" stroke="none" x="7989" y="10959">
   <tspan x="7989 8273 8506 8624 8742 8979">Buffer</tspan></text>
  <text fill="rgb(129,138,143)" stroke="none" x="7943" y="11464">
   <tspan x="7943 8227 8532 8816">SRAM</tspan></text>
  <path fill="rgb(129,138,143)" stroke="none" d="M 8549,10244 C 7730,10244 7068,10599 7068,11039 7068,11478 7730,11834 8549,11834 9366,11834 10030,11478 10030,11039 10030,10599 9366,10244 8549,10244 Z"/>
  <path fill="rgb(255,204,153)" stroke="none" d="M 8478,10173 C 7660,10173 6997,10529 6997,10968 6997,11407 7660,11763 8478,11763 9296,11763 9959,11407 9959,10968 9959,10529 9296,10173 8478,10173 Z"/>
  <path stroke-width="26" fill="none" stroke="rgb(0,0,0)" d="M 8478,10173 C 7660,10173 6997,10529 6997,10968 6997,11407 7660,11763 8478,11763 9296,11763 9959,11407 9959,10968 9959,10529 9296,10173 8478,10173 Z"/>
  <text fill="rgb(0,0,0)" stroke="none" x="7917" y="10887">
   <tspan x="7917 8201 8434 8552 8670 8907">Buffer</tspan></text>
  <text fill="rgb(0,0,0)" stroke="none" x="7871" y="11392">
   <tspan x="7871 8155 8460 8744">SRAM</tspan></text>
 </g>
 <g fill="rgb(0,0,0)" stroke="none" font-family="Tahoma" font-size="496" font-style="normal" font-weight="400">
  <text x="10947" y="13974">
   <tspan x="10947 11281 11539 11717 11992 12360 12618 12796 13054 13211 13507 13735 13963 14225 14335 14597 14775 15033 15194 15465 15643">Hardware Accelerators</tspan></text>
 </g>
 <g fill="rgb(129,138,143)" stroke="none" font-family="Arial" font-size="424" font-style="normal" font-weight="400">
  <text x="14336" y="10959">
   <tspan x="14336 14620 14853 14971 15089 15326">Buffer</tspan></text>
  <text fill="rgb(129,138,143)" stroke="none" x="14070" y="11464">
   <tspan x="14070 14421 14658 14891 15128 15356 15593">Manager</tspan></text>
  <path fill="rgb(129,138,143)" stroke="none" d="M 14896,10244 C 14078,10244 13415,10600 13415,11039 13415,11478 14078,11834 14896,11834 15714,11834 16377,11478 16377,11039 16377,10600 15714,10244 14896,10244 Z"/>
  <path fill="rgb(255,204,153)" stroke="none" d="M 14825,10173 C 14007,10173 13344,10529 13344,10968 13344,11408 14007,11763 14825,11763 15644,11763 16306,11408 16306,10968 16306,10529 15644,10173 14825,10173 Z"/>
  <path stroke-width="26" fill="none" stroke="rgb(0,0,0)" d="M 14825,10173 C 14007,10173 13344,10529 13344,10968 13344,11408 14007,11763 14825,11763 15644,11763 16306,11408 16306,10968 16306,10529 15644,10173 14825,10173 Z"/>
  <text fill="rgb(0,0,0)" stroke="none" x="14264" y="10887">
   <tspan x="14264 14548 14781 14899 15017 15254">Buffer</tspan></text>
  <text fill="rgb(0,0,0)" stroke="none" x="13998" y="11392">
   <tspan x="13998 14349 14586 14819 15056 15284 15521">Manager</tspan></text>
  <text fill="rgb(129,138,143)" stroke="none" x="13456" y="5554">
   <tspan x="13456 13807 14044 14277 14514 14603 14840">Mapping</tspan></text>
  <text fill="rgb(129,138,143)" stroke="none" x="13435" y="6058">
   <tspan x="13435 13786 14023 14256 14493 14721 14958">Manager</tspan></text>
  <path fill="rgb(129,138,143)" stroke="none" d="M 14261,4838 C 13443,4838 12780,5194 12780,5633 12780,6072 13443,6428 14261,6428 15079,6428 15742,6072 15742,5633 15742,5194 15079,4838 14261,4838 Z"/>
  <path fill="rgb(204,255,255)" stroke="none" d="M 14190,4767 C 13372,4767 12709,5123 12709,5562 12709,6002 13372,6357 14190,6357 15009,6357 15671,6002 15671,5562 15671,5123 15009,4767 14190,4767 Z"/>
  <path stroke-width="26" fill="none" stroke="rgb(0,0,0)" d="M 14190,4767 C 13372,4767 12709,5123 12709,5562 12709,6002 13372,6357 14190,6357 15009,6357 15671,6002 15671,5562 15671,5123 15009,4767 14190,4767 Z"/>
  <text fill="rgb(0,0,0)" stroke="none" x="13384" y="5482">
   <tspan x="13384 13735 13972 14205 14442 14531 14768">Mapping</tspan></text>
  <text fill="rgb(0,0,0)" stroke="none" x="13363" y="5986">
   <tspan x="13363 13714 13951 14184 14421 14649 14886">Manager</tspan></text>
  <text fill="rgb(129,138,143)" stroke="none" x="13456" y="5872">
   <tspan x="13456 13807 14044 14277 14514 14603 14840">Mapping</tspan></text>
  <text fill="rgb(129,138,143)" stroke="none" x="13435" y="6376">
   <tspan x="13435 13786 14023 14256 14493 14721 14958">Manager</tspan></text>
  <path fill="rgb(129,138,143)" stroke="none" d="M 14261,5156 C 13443,5156 12780,5512 12780,5951 12780,6390 13443,6746 14261,6746 15079,6746 15742,6390 15742,5951 15742,5512 15079,5156 14261,5156 Z"/>
  <path fill="rgb(204,255,255)" stroke="none" d="M 14190,5085 C 13372,5085 12709,5441 12709,5880 12709,6320 13372,6675 14190,6675 15009,6675 15671,6320 15671,5880 15671,5441 15009,5085 14190,5085 Z"/>
  <path stroke-width="26" fill="none" stroke="rgb(0,0,0)" d="M 14190,5085 C 13372,5085 12709,5441 12709,5880 12709,6320 13372,6675 14190,6675 15009,6675 15671,6320 15671,5880 15671,5441 15009,5085 14190,5085 Z"/>
  <text fill="rgb(0,0,0)" stroke="none" x="13384" y="5800">
   <tspan x="13384 13735 13972 14205 14442 14531 14768">Mapping</tspan></text>
  <text fill="rgb(0,0,0)" stroke="none" x="13363" y="6304">
   <tspan x="13363 13714 13951 14184 14421 14649 14886">Manager</tspan></text>
  <text fill="rgb(129,138,143)" stroke="none" x="13456" y="6190">
   <tspan x="13456 13807 14044 14277 14514 14603 14840">Mapping</tspan></text>
  <text fill="rgb(129,138,143)" stroke="none" x="13435" y="6694">
   <tspan x="13435 13786 14023 14256 14493 14721 14958">Manager</tspan></text>
  <path fill="rgb(129,138,143)" stroke="none" d="M 14261,5474 C 13443,5474 12780,5830 12780,6269 12780,6708 13443,7064 14261,7064 15079,7064 15742,6708 15742,6269 15742,5830 15079,5474 14261,5474 Z"/>
  <path fill="rgb(204,255,255)" stroke="none" d="M 14190,5403 C 13372,5403 12709,5759 12709,6198 12709,6638 13372,6993 14190,6993 15009,6993 15671,6638 15671,6198 15671,5759 15009,5403 14190,5403 Z"/>
  <path stroke-width="26" fill="none" stroke="rgb(0,0,0)" d="M 14190,5403 C 13372,5403 12709,5759 12709,6198 12709,6638 13372,6993 14190,6993 15009,6993 15671,6638 15671,6198 15671,5759 15009,5403 14190,5403 Z"/>
  <text fill="rgb(0,0,0)" stroke="none" x="13384" y="6118">
   <tspan x="13384 13735 13972 14205 14442 14531 14768">Mapping</tspan></text>
  <text fill="rgb(0,0,0)" stroke="none" x="13363" y="6622">
   <tspan x="13363 13714 13951 14184 14421 14649 14886">Manager</tspan></text>
  <text fill="rgb(129,138,143)" stroke="none" x="13456" y="6508">
   <tspan x="13456 13807 14044 14277 14514 14603 14840">Mapping</tspan></text>
  <text fill="rgb(129,138,143)" stroke="none" x="13435" y="7012">
   <tspan x="13435 13786 14023 14256 14493 14721 14958">Manager</tspan></text>
  <path fill="rgb(129,138,143)" stroke="none" d="M 14261,5792 C 13443,5792 12780,6148 12780,6587 12780,7026 13443,7382 14261,7382 15079,7382 15742,7026 15742,6587 15742,6148 15079,5792 14261,5792 Z"/>
  <path fill="rgb(204,255,255)" stroke="none" d="M 14190,5721 C 13372,5721 12709,6077 12709,6516 12709,6956 13372,7311 14190,7311 15009,7311 15671,6956 15671,6516 15671,6077 15009,5721 14190,5721 Z"/>
  <path stroke-width="26" fill="none" stroke="rgb(0,0,0)" d="M 14190,5721 C 13372,5721 12709,6077 12709,6516 12709,6956 13372,7311 14190,7311 15009,7311 15671,6956 15671,6516 15671,6077 15009,5721 14190,5721 Z"/>
  <text fill="rgb(0,0,0)" stroke="none" x="13384" y="6436">
   <tspan x="13384 13735 13972 14205 14442 14531 14768">Mapping</tspan></text>
  <text fill="rgb(0,0,0)" stroke="none" x="13363" y="6940">
   <tspan x="13363 13714 13951 14184 14421 14649 14886">Manager</tspan></text>
  <text fill="rgb(129,138,143)" stroke="none" x="13456" y="5554">
   <tspan x="13456 13807 14044 14277 14514 14603 14840">Mapping</tspan></text>
  <text fill="rgb(129,138,143)" stroke="none" x="13435" y="6058">
   <tspan x="13435 13786 14023 14256 14493 14721 14958">Manager</tspan></text>
  <path fill="rgb(129,138,143)" stroke="none" d="M 14261,4838 C 13443,4838 12780,5194 12780,5633 12780,6072 13443,6428 14261,6428 15079,6428 15742,6072 15742,5633 15742,5194 15079,4838 14261,4838 Z"/>
  <path fill="rgb(204,255,255)" stroke="none" d="M 14190,4767 C 13372,4767 12709,5123 12709,5562 12709,6002 13372,6357 14190,6357 15009,6357 15671,6002 15671,5562 15671,5123 15009,4767 14190,4767 Z"/>
  <path stroke-width="26" fill="none" stroke="rgb(0,0,0)" d="M 14190,4767 C 13372,4767 12709,5123 12709,5562 12709,6002 13372,6357 14190,6357 15009,6357 15671,6002 15671,5562 15671,5123 15009,4767 14190,4767 Z"/>
  <text fill="rgb(0,0,0)" stroke="none" x="13384" y="5482">
   <tspan x="13384 13735 13972 14205 14442 14531 14768">Mapping</tspan></text>
  <text fill="rgb(0,0,0)" stroke="none" x="13363" y="5986">
   <tspan x="13363 13714 13951 14184 14421 14649 14886">Manager</tspan></text>
  <text fill="rgb(129,138,143)" stroke="none" x="13456" y="5872">
   <tspan x="13456 13807 14044 14277 14514 14603 14840">Mapping</tspan></text>
  <text fill="rgb(129,138,143)" stroke="none" x="13435" y="6376">
   <tspan x="13435 13786 14023 14256 14493 14721 14958">Manager</tspan></text>
  <path fill="rgb(129,138,143)" stroke="none" d="M 14261,5156 C 13443,5156 12780,5512 12780,5951 12780,6390 13443,6746 14261,6746 15079,6746 15742,6390 15742,5951 15742,5512 15079,5156 14261,5156 Z"/>
  <path fill="rgb(204,255,255)" stroke="none" d="M 14190,5085 C 13372,5085 12709,5441 12709,5880 12709,6320 13372,6675 14190,6675 15009,6675 15671,6320 15671,5880 15671,5441 15009,5085 14190,5085 Z"/>
  <path stroke-width="26" fill="none" stroke="rgb(0,0,0)" d="M 14190,5085 C 13372,5085 12709,5441 12709,5880 12709,6320 13372,6675 14190,6675 15009,6675 15671,6320 15671,5880 15671,5441 15009,5085 14190,5085 Z"/>
  <text fill="rgb(0,0,0)" stroke="none" x="13384" y="5800">
   <tspan x="13384 13735 13972 14205 14442 14531 14768">Mapping</tspan></text>
  <text fill="rgb(0,0,0)" stroke="none" x="13363" y="6304">
   <tspan x="13363 13714 13951 14184 14421 14649 14886">Manager</tspan></text>
  <text fill="rgb(129,138,143)" stroke="none" x="13456" y="6190">
   <tspan x="13456 13807 14044 14277 14514 14603 14840">Mapping</tspan></text>
  <text fill="rgb(129,138,143)" stroke="none" x="13435" y="6694">
   <tspan x="13435 13786 14023 14256 14493 14721 14958">Manager</tspan></text>
  <path fill="rgb(129,138,143)" stroke="none" d="M 14261,5474 C 13443,5474 12780,5830 12780,6269 12780,6708 13443,7064 14261,7064 15079,7064 15742,6708 15742,6269 15742,5830 15079,5474 14261,5474 Z"/>
  <path fill="rgb(204,255,255)" stroke="none" d="M 14190,5403 C 13372,5403 12709,5759 12709,6198 12709,6638 13372,6993 14190,6993 15009,6993 15671,6638 15671,6198 15671,5759 15009,5403 14190,5403 Z"/>
  <path stroke-width="26" fill="none" stroke="rgb(0,0,0)" d="M 14190,5403 C 13372,5403 12709,5759 12709,6198 12709,6638 13372,6993 14190,6993 15009,6993 15671,6638 15671,6198 15671,5759 15009,5403 14190,5403 Z"/>
  <text fill="rgb(0,0,0)" stroke="none" x="13384" y="6118">
   <tspan x="13384 13735 13972 14205 14442 14531 14768">Mapping</tspan></text>
  <text fill="rgb(0,0,0)" stroke="none" x="13363" y="6622">
   <tspan x="13363 13714 13951 14184 14421 14649 14886">Manager</tspan></text>
  <text fill="rgb(129,138,143)" stroke="none" x="13456" y="6508">
   <tspan x="13456 13807 14044 14277 14514 14603 14840">Mapping</tspan></text>
  <text fill="rgb(129,138,143)" stroke="none" x="13435" y="7012">
   <tspan x="13435 13786 14023 14256 14493 14721 14958">Manager</tspan></text>
  <path fill="rgb(129,138,143)" stroke="none" d="M 14261,5792 C 13443,5792 12780,6148 12780,6587 12780,7026 13443,7382 14261,7382 15079,7382 15742,7026 15742,6587 15742,6148 15079,5792 14261,5792 Z"/>
  <path fill="rgb(204,255,255)" stroke="none" d="M 14190,5721 C 13372,5721 12709,6077 12709,6516 12709,6956 13372,7311 14190,7311 15009,7311 15671,6956 15671,6516 15671,6077 15009,5721 14190,5721 Z"/>
  <path stroke-width="26" fill="none" stroke="rgb(0,0,0)" d="M 14190,5721 C 13372,5721 12709,6077 12709,6516 12709,6956 13372,7311 14190,7311 15009,7311 15671,6956 15671,6516 15671,6077 15009,5721 14190,5721 Z"/>
  <text fill="rgb(0,0,0)" stroke="none" x="13384" y="6436">
   <tspan x="13384 13735 13972 14205 14442 14531 14768">Mapping</tspan></text>
  <text fill="rgb(0,0,0)" stroke="none" x="13363" y="6940">
   <tspan x="13363 13714 13951 14184 14421 14649 14886">Manager</tspan></text>
  <text fill="rgb(129,138,143)" stroke="none" x="13896" y="2374">
   <tspan x="13896 14108 14341 14578 14718 14951 15188">Journal</tspan></text>
  <text fill="rgb(129,138,143)" stroke="none" x="13752" y="2878">
   <tspan x="13752 14103 14340 14573 14810 15038 15275">Manager</tspan></text>
  <path fill="rgb(129,138,143)" stroke="none" d="M 14578,1658 C 13761,1658 13097,2015 13097,2453 13097,2892 13761,3248 14578,3248 15396,3248 16059,2892 16059,2453 16059,2015 15396,1658 14578,1658 Z"/>
  <path fill="rgb(204,255,255)" stroke="none" d="M 14508,1587 C 13690,1587 13027,1944 13027,2382 13027,2822 13690,3177 14508,3177 15326,3177 15989,2822 15989,2382 15989,1944 15326,1587 14508,1587 Z"/>
  <path stroke-width="26" fill="none" stroke="rgb(0,0,0)" d="M 14508,1587 C 13690,1587 13027,1944 13027,2382 13027,2822 13690,3177 14508,3177 15326,3177 15989,2822 15989,2382 15989,1944 15326,1587 14508,1587 Z"/>
  <text fill="rgb(0,0,0)" stroke="none" x="13824" y="2302">
   <tspan x="13824 14036 14269 14506 14646 14879 15116">Journal</tspan></text>
  <text fill="rgb(0,0,0)" stroke="none" x="13680" y="2806">
   <tspan x="13680 14031 14268 14501 14738 14966 15203">Manager</tspan></text>
  <text fill="rgb(129,138,143)" stroke="none" x="14065" y="3964">
   <tspan x="14065 14349 14442 14679 14891">Block</tspan></text>
  <text fill="rgb(129,138,143)" stroke="none" x="13752" y="4468">
   <tspan x="13752 14103 14340 14573 14810 15038 15275">Manager</tspan></text>
  <path fill="rgb(129,138,143)" stroke="none" d="M 14578,3248 C 13761,3248 13097,3604 13097,4043 13097,4482 13761,4838 14578,4838 15396,4838 16059,4482 16059,4043 16059,3604 15396,3248 14578,3248 Z"/>
  <path fill="rgb(204,255,255)" stroke="none" d="M 14508,3177 C 13690,3177 13027,3533 13027,3972 13027,4412 13690,4767 14508,4767 15326,4767 15989,4412 15989,3972 15989,3533 15326,3177 14508,3177 Z"/>
  <path stroke-width="26" fill="none" stroke="rgb(0,0,0)" d="M 14508,3177 C 13690,3177 13027,3533 13027,3972 13027,4412 13690,4767 14508,4767 15326,4767 15989,4412 15989,3972 15989,3533 15326,3177 14508,3177 Z"/>
  <text fill="rgb(0,0,0)" stroke="none" x="13993" y="3892">
   <tspan x="13993 14277 14370 14607 14819">Block</tspan></text>
  <text fill="rgb(0,0,0)" stroke="none" x="13680" y="4396">
   <tspan x="13680 14031 14268 14501 14738 14966 15203">Manager</tspan></text>
  <text fill="rgb(129,138,143)" stroke="none" x="13697" y="8097">
   <tspan x="13697 14002 14239 14446 14683 14890 15127 15267">Recovery</tspan></text>
  <text fill="rgb(129,138,143)" stroke="none" x="13752" y="8602">
   <tspan x="13752 14103 14340 14573 14810 15038 15275">Manager</tspan></text>
  <path fill="rgb(129,138,143)" stroke="none" d="M 14578,7382 C 13761,7382 13097,7738 13097,8177 13097,8616 13761,8972 14578,8972 15396,8972 16059,8616 16059,8177 16059,7738 15396,7382 14578,7382 Z"/>
  <path fill="rgb(204,255,255)" stroke="none" d="M 14508,7311 C 13690,7311 13027,7667 13027,8106 13027,8546 13690,8901 14508,8901 15326,8901 15989,8546 15989,8106 15989,7667 15326,7311 14508,7311 Z"/>
  <path stroke-width="26" fill="none" stroke="rgb(0,0,0)" d="M 14508,7311 C 13690,7311 13027,7667 13027,8106 13027,8546 13690,8901 14508,8901 15326,8901 15989,8546 15989,8106 15989,7667 15326,7311 14508,7311 Z"/>
  <text fill="rgb(0,0,0)" stroke="none" x="13625" y="8025">
   <tspan x="13625 13930 14167 14374 14611 14818 15055 15195">Recovery</tspan></text>
  <text fill="rgb(0,0,0)" stroke="none" x="13680" y="8530">
   <tspan x="13680 14031 14268 14501 14738 14966 15203">Manager</tspan></text>
  <text fill="rgb(129,138,143)" stroke="none" x="13697" y="8415">
   <tspan x="13697 14002 14239 14446 14683 14890 15127 15267">Recovery</tspan></text>
  <text fill="rgb(129,138,143)" stroke="none" x="13752" y="8920">
   <tspan x="13752 14103 14340 14573 14810 15038 15275">Manager</tspan></text>
  <path fill="rgb(129,138,143)" stroke="none" d="M 14578,7700 C 13761,7700 13097,8056 13097,8495 13097,8934 13761,9290 14578,9290 15396,9290 16059,8934 16059,8495 16059,8056 15396,7700 14578,7700 Z"/>
  <path fill="rgb(204,255,255)" stroke="none" d="M 14508,7629 C 13690,7629 13027,7985 13027,8424 13027,8864 13690,9219 14508,9219 15326,9219 15989,8864 15989,8424 15989,7985 15326,7629 14508,7629 Z"/>
  <path stroke-width="26" fill="none" stroke="rgb(0,0,0)" d="M 14508,7629 C 13690,7629 13027,7985 13027,8424 13027,8864 13690,9219 14508,9219 15326,9219 15989,8864 15989,8424 15989,7985 15326,7629 14508,7629 Z"/>
  <text fill="rgb(0,0,0)" stroke="none" x="13625" y="8343">
   <tspan x="13625 13930 14167 14374 14611 14818 15055 15195">Recovery</tspan></text>
  <text fill="rgb(0,0,0)" stroke="none" x="13680" y="8848">
   <tspan x="13680 14031 14268 14501 14738 14966 15203">Manager</tspan></text>
  <text fill="rgb(129,138,143)" stroke="none" x="13697" y="8097">
   <tspan x="13697 14002 14239 14446 14683 14890 15127 15267">Recovery</tspan></text>
  <text fill="rgb(129,138,143)" stroke="none" x="13752" y="8602">
   <tspan x="13752 14103 14340 14573 14810 15038 15275">Manager</tspan></text>
  <path fill="rgb(129,138,143)" stroke="none" d="M 14578,7382 C 13761,7382 13097,7738 13097,8177 13097,8616 13761,8972 14578,8972 15396,8972 16059,8616 16059,8177 16059,7738 15396,7382 14578,7382 Z"/>
  <path fill="rgb(204,255,255)" stroke="none" d="M 14508,7311 C 13690,7311 13027,7667 13027,8106 13027,8546 13690,8901 14508,8901 15326,8901 15989,8546 15989,8106 15989,7667 15326,7311 14508,7311 Z"/>
  <path stroke-width="26" fill="none" stroke="rgb(0,0,0)" d="M 14508,7311 C 13690,7311 13027,7667 13027,8106 13027,8546 13690,8901 14508,8901 15326,8901 15989,8546 15989,8106 15989,7667 15326,7311 14508,7311 Z"/>
  <text fill="rgb(0,0,0)" stroke="none" x="13625" y="8025">
   <tspan x="13625 13930 14167 14374 14611 14818 15055 15195">Recovery</tspan></text>
  <text fill="rgb(0,0,0)" stroke="none" x="13680" y="8530">
   <tspan x="13680 14031 14268 14501 14738 14966 15203">Manager</tspan></text>
  <text fill="rgb(129,138,143)" stroke="none" x="13697" y="8415">
   <tspan x="13697 14002 14239 14446 14683 14890 15127 15267">Recovery</tspan></text>
  <text fill="rgb(129,138,143)" stroke="none" x="13752" y="8920">
   <tspan x="13752 14103 14340 14573 14810 15038 15275">Manager</tspan></text>
  <path fill="rgb(129,138,143)" stroke="none" d="M 14578,7700 C 13761,7700 13097,8056 13097,8495 13097,8934 13761,9290 14578,9290 15396,9290 16059,8934 16059,8495 16059,8056 15396,7700 14578,7700 Z"/>
  <path fill="rgb(204,255,255)" stroke="none" d="M 14508,7629 C 13690,7629 13027,7985 13027,8424 13027,8864 13690,9219 14508,9219 15326,9219 15989,8864 15989,8424 15989,7985 15326,7629 14508,7629 Z"/>
  <path stroke-width="26" fill="none" stroke="rgb(0,0,0)" d="M 14508,7629 C 13690,7629 13027,7985 13027,8424 13027,8864 13690,9219 14508,9219 15326,9219 15989,8864 15989,8424 15989,7985 15326,7629 14508,7629 Z"/>
  <text fill="rgb(0,0,0)" stroke="none" x="13625" y="8343">
   <tspan x="13625 13930 14167 14374 14611 14818 15055 15195">Recovery</tspan></text>
  <text fill="rgb(0,0,0)" stroke="none" x="13680" y="8848">
   <tspan x="13680 14031 14268 14501 14738 14966 15203">Manager</tspan></text>
  <path fill="rgb(0,0,0)" stroke="rgb(0,0,0)" d="M 3471,8724 L 3964,8724 3964,8760 3471,8760 3471,8724 Z M 3506,8848 L 3294,8742 3506,8636 3506,8848 Z M 3929,8636 L 4141,8742 3929,8848 3929,8636 Z"/>
  <path fill="rgb(0,0,0)" stroke="rgb(0,0,0)" d="M 7278,8719 L 7278,8719 7350,8716 7472,8706 7594,8693 7715,8675 7835,8654 7953,8630 8070,8602 8185,8571 8297,8537 8407,8501 8514,8462 8620,8420 8721,8375 8818,8328 8913,8279 9004,8228 9090,8175 9172,8121 9249,8064 9321,8006 9389,7947 9451,7887 9507,7825 9558,7762 9602,7699 9622,7667 9640,7635 9657,7603 9672,7571 9685,7538 9685,7540 9700,7481 9734,7490 9719,7550 9719,7550 C 9719,7550 9718,7551 9718,7552 L 9718,7552 9704,7586 9689,7619 9671,7653 9652,7686 9631,7719 9585,7784 9534,7849 9475,7911 9412,7973 9344,8034 9270,8093 9191,8150 9108,8206 9020,8259 8929,8311 8834,8360 8735,8408 8632,8452 8526,8494 8418,8535 8307,8571 8194,8605 8078,8636 7961,8665 7841,8689 7720,8710 7598,8728 7475,8741 7351,8751 7280,8755 7278,8719 Z M 7317,8842 L 7317,8842 7103,8742 7311,8630 7317,8842 Z M 9607,7502 L 9607,7502 9747,7311 9815,7538 9607,7502 Z"/>
  <path fill="rgb(0,0,0)" stroke="rgb(0,0,0)" d="M 8111,6425 L 8066,6381 8066,6381 C 8065,6380 8064,6379 8064,6377 L 8064,6377 8038,6334 8012,6286 7986,6232 7962,6174 7938,6112 7915,6046 7892,5976 7871,5902 7849,5826 7829,5745 7810,5662 7792,5576 7775,5487 7758,5396 7744,5302 7729,5207 7717,5110 7706,5011 7696,4910 7680,4707 7674,4603 7670,4499 7667,4395 7667,4290 7666,4186 7664,4083 7660,3979 7654,3876 7638,3673 7628,3574 7617,3475 7605,3379 7591,3284 7576,3191 7560,3100 7543,3012 7525,2927 7506,2844 7486,2765 7465,2688 7444,2616 7421,2547 7398,2482 7374,2420 7351,2364 7326,2311 7301,2264 7276,2222 7278,2226 7233,2181 7258,2156 7303,2200 7303,2200 C 7304,2201 7305,2202 7306,2204 L 7306,2204 7332,2248 7358,2297 7383,2350 7408,2408 7431,2469 7455,2536 7477,2606 7499,2679 7520,2756 7540,2836 7559,2919 7578,3006 7595,3094 7611,3185 7626,3279 7639,3374 7652,3471 7664,3570 7673,3670 7689,3874 7695,3978 7699,4082 7701,4186 7702,4290 7703,4394 7706,4497 7709,4601 7715,4704 7731,4907 7741,5007 7752,5105 7764,5202 7778,5297 7793,5390 7809,5481 7827,5569 7844,5654 7864,5737 7883,5816 7904,5892 7926,5965 7948,6034 7971,6099 7994,6160 8019,6217 8043,6269 8068,6316 8094,6359 8091,6356 8136,6401 8111,6425 Z M 8157,6306 L 8157,6306 8266,6516 8033,6478 8157,6306 Z M 7212,2275 L 7212,2275 7103,2064 7336,2103 7212,2275 Z"/>
  <path fill="rgb(0,0,0)" stroke="rgb(0,0,0)" d="M 11405,6499 L 12533,6499 12533,6534 11405,6534 11405,6499 Z M 11440,6622 L 11228,6516 11440,6410 11440,6622 Z M 12498,6410 L 12709,6516 12498,6622 12498,6410 Z"/>
  <path fill="rgb(0,0,0)" stroke="rgb(0,0,0)" d="M 11403,6492 L 11403,6492 11499,6485 11562,6478 11623,6469 11680,6460 11734,6449 11783,6438 11827,6425 11866,6413 11883,6406 11898,6399 11912,6393 11924,6386 11933,6379 11941,6373 11946,6367 11945,6369 11950,6362 11949,6365 11952,6358 11950,6362 11951,6355 11952,6348 11952,6348 C 11953,6346 11953,6344 11954,6343 L 11957,6335 11957,6335 C 11958,6334 11958,6333 11959,6332 L 11964,6325 11964,6325 C 11964,6324 11965,6324 11966,6323 L 11966,6323 11973,6315 11984,6307 11996,6298 12009,6290 12025,6283 12042,6276 12060,6269 12100,6255 12146,6243 12196,6231 12251,6220 12310,6210 12371,6202 12436,6194 12532,6188 12535,6223 12439,6230 12376,6237 12315,6245 12258,6255 12205,6265 12155,6277 12112,6289 12072,6301 12055,6308 12040,6315 12027,6322 12015,6327 12006,6334 11998,6340 11991,6348 11993,6345 11988,6353 11989,6350 11986,6357 11987,6352 11986,6360 11985,6367 11985,6367 C 11985,6369 11985,6370 11984,6372 L 11981,6379 11981,6379 C 11980,6380 11980,6381 11979,6383 L 11974,6390 11974,6390 C 11973,6390 11973,6391 11972,6392 L 11972,6392 11963,6401 11953,6409 11941,6417 11927,6425 11912,6432 11896,6439 11878,6446 11837,6460 11792,6472 11741,6484 11686,6495 11628,6504 11566,6513 11502,6520 11406,6527 11403,6492 Z M 11444,6614 L 11444,6614 11228,6516 11436,6402 11444,6614 Z M 12494,6101 L 12494,6101 12709,6198 12502,6313 12494,6101 Z"/>
  <path fill="rgb(0,0,0)" stroke="rgb(0,0,0)" d="M 11402,6485 L 11498,6472 11560,6457 11621,6441 11678,6422 11731,6401 11780,6378 11824,6353 11862,6328 11879,6315 11894,6302 11907,6288 11920,6275 11929,6262 11938,6248 11943,6235 11948,6222 11951,6209 11951,6197 11952,6182 11956,6165 11962,6148 11970,6131 11980,6115 11991,6100 12005,6084 12021,6069 12037,6054 12055,6040 12096,6013 12142,5988 12193,5964 12248,5942 12307,5922 12369,5905 12434,5890 12531,5876 12536,5911 12442,5925 12378,5939 12318,5956 12261,5974 12208,5996 12159,6018 12115,6043 12077,6068 12060,6081 12045,6094 12031,6107 12019,6120 12009,6133 12002,6147 11995,6160 11990,6172 11988,6185 11987,6200 11985,6217 11981,6234 11975,6251 11967,6267 11958,6283 11945,6299 11932,6314 11917,6328 11900,6343 11881,6357 11841,6384 11795,6410 11744,6433 11689,6455 11630,6475 11568,6492 11503,6507 11406,6520 11402,6485 Z M 11448,6606 L 11228,6516 11431,6394 11448,6606 Z M 12490,5791 L 12709,5880 12507,6003 12490,5791 Z"/>
  <path fill="rgb(0,0,0)" stroke="rgb(0,0,0)" d="M 11400,6478 L 11497,6458 11559,6437 11619,6412 11676,6384 11729,6352 11777,6318 11821,6281 11859,6243 11876,6224 11891,6204 11905,6183 11917,6163 11927,6142 11936,6122 11943,6101 11948,6080 11950,6059 11951,6039 11952,6016 11955,5992 11961,5969 11969,5945 11978,5922 11990,5899 12003,5876 12018,5854 12035,5833 12053,5812 12093,5771 12140,5733 12190,5697 12246,5664 12305,5635 12367,5609 12432,5587 12531,5566 12538,5600 12443,5620 12380,5641 12320,5666 12263,5695 12210,5726 12162,5760 12118,5796 12079,5835 12062,5854 12047,5874 12033,5894 12021,5915 12011,5935 12003,5956 11996,5977 11990,5997 11988,6018 11987,6040 11985,6064 11982,6088 11976,6112 11969,6135 11959,6158 11948,6181 11934,6203 11919,6225 11903,6247 11884,6268 11843,6309 11797,6347 11747,6383 11691,6415 11632,6445 11570,6471 11504,6493 11407,6513 11400,6478 Z M 11451,6597 L 11228,6516 11426,6386 11451,6597 Z M 12487,5482 L 12709,5562 12512,5693 12487,5482 Z"/>
  <path fill="rgb(0,0,0)" stroke="rgb(0,0,0)" d="M 16662,5281 L 16662,5281 16619,5287 16600,5293 16582,5298 16566,5305 16552,5311 16543,5317 16545,5315 16537,5323 16540,5319 16534,5327 16537,5322 16535,5329 16533,5336 16533,5336 C 16532,5339 16531,5340 16530,5342 L 16525,5349 16525,5349 C 16524,5350 16524,5351 16522,5352 L 16513,5360 16513,5360 C 16513,5360 16512,5361 16511,5361 L 16511,5361 16499,5368 16484,5376 16466,5383 16446,5389 16423,5396 16378,5402 16374,5367 16414,5362 16435,5357 16453,5350 16469,5344 16481,5339 16493,5331 16491,5332 16499,5326 16496,5329 16502,5322 16499,5327 16501,5319 16503,5312 16503,5312 C 16504,5310 16504,5308 16506,5307 L 16511,5299 16511,5299 C 16511,5298 16512,5297 16513,5296 L 16522,5289 16522,5289 C 16523,5288 16524,5288 16525,5288 L 16525,5288 16538,5279 16553,5272 16571,5264 16592,5258 16615,5252 16658,5246 16662,5281 Z M 16614,5163 L 16614,5163 16835,5244 16637,5373 16614,5163 Z M 16422,5486 L 16422,5486 16200,5403 16399,5275 16422,5486 Z"/>
 </g>
 <g fill="rgb(129,138,143)" stroke="none" font-family="Tahoma" font-size="496" font-style="normal" font-weight="400">
  <text x="4084" y="8538">1</text>
  <path fill="rgb(129,138,143)" stroke="none" d="M 4212,8018 C 4036,8018 3894,8160 3894,8336 3894,8511 4036,8654 4212,8654 4387,8654 4529,8511 4529,8336 4529,8160 4387,8018 4212,8018 Z"/>
  <path fill="rgb(255,255,255)" stroke="none" d="M 4141,7947 C 3966,7947 3823,8090 3823,8265 3823,8441 3966,8583 4141,8583 4316,8583 4458,8441 4458,8265 4458,8090 4316,7947 4141,7947 Z"/>
  <path stroke-width="35" fill="none" stroke="rgb(255,0,0)" d="M 4141,7947 C 3966,7947 3823,8090 3823,8265 3823,8441 3966,8583 4141,8583 4316,8583 4458,8441 4458,8265 4458,8090 4316,7947 4141,7947 Z"/>
  <text fill="rgb(0,0,0)" stroke="none" x="4012" y="8466">1</text>
  <text fill="rgb(129,138,143)" stroke="none" x="9479" y="8220">2</text>
  <path fill="rgb(129,138,143)" stroke="none" d="M 9607,7700 C 9431,7700 9289,7842 9289,8018 9289,8193 9431,8336 9607,8336 9782,8336 9924,8193 9924,8018 9924,7842 9782,7700 9607,7700 Z"/>
  <path fill="rgb(255,255,255)" stroke="none" d="M 9536,7629 C 9361,7629 9218,7772 9218,7947 9218,8123 9361,8265 9536,8265 9711,8265 9853,8123 9853,7947 9853,7772 9711,7629 9536,7629 Z"/>
  <path stroke-width="35" fill="none" stroke="rgb(255,0,0)" d="M 9536,7629 C 9361,7629 9218,7772 9218,7947 9218,8123 9361,8265 9536,8265 9711,8265 9853,8123 9853,7947 9853,7772 9711,7629 9536,7629 Z"/>
  <text fill="rgb(0,0,0)" stroke="none" x="9407" y="8148">2</text>
  <text fill="rgb(129,138,143)" stroke="none" x="7257" y="3133">3</text>
  <path fill="rgb(129,138,143)" stroke="none" d="M 7385,2612 C 7209,2612 7068,2754 7068,2930 7068,3106 7209,3248 7385,3248 7560,3248 7702,3106 7702,2930 7702,2754 7560,2612 7385,2612 Z"/>
  <path fill="rgb(255,255,255)" stroke="none" d="M 7314,2541 C 7139,2541 6997,2684 6997,2859 6997,3035 7139,3177 7314,3177 7490,3177 7632,3035 7632,2859 7632,2684 7490,2541 7314,2541 Z"/>
  <path stroke-width="35" fill="none" stroke="rgb(255,0,0)" d="M 7314,2541 C 7139,2541 6997,2684 6997,2859 6997,3035 7139,3177 7314,3177 7490,3177 7632,3035 7632,2859 7632,2684 7490,2541 7314,2541 Z"/>
  <text fill="rgb(0,0,0)" stroke="none" x="7185" y="3061">3</text>
  <text fill="rgb(129,138,143)" stroke="none" x="7892" y="5995">4</text>
  <path fill="rgb(129,138,143)" stroke="none" d="M 8020,5474 C 7844,5474 7702,5616 7702,5792 7702,5968 7844,6110 8020,6110 8195,6110 8337,5968 8337,5792 8337,5616 8195,5474 8020,5474 Z"/>
  <path fill="rgb(255,255,255)" stroke="none" d="M 7949,5403 C 7774,5403 7632,5546 7632,5721 7632,5897 7774,6039 7949,6039 8124,6039 8266,5897 8266,5721 8266,5546 8124,5403 7949,5403 Z"/>
  <path stroke-width="35" fill="none" stroke="rgb(255,0,0)" d="M 7949,5403 C 7774,5403 7632,5546 7632,5721 7632,5897 7774,6039 7949,6039 8124,6039 8266,5897 8266,5721 8266,5546 8124,5403 7949,5403 Z"/>
  <text fill="rgb(0,0,0)" stroke="none" x="7820" y="5923">4</text>
  <text fill="rgb(129,138,143)" stroke="none" x="12017" y="5677">5</text>
  <path fill="rgb(129,138,143)" stroke="none" d="M 12145,5156 C 11970,5156 11828,5298 11828,5474 11828,5650 11970,5792 12145,5792 12320,5792 12463,5650 12463,5474 12463,5298 12320,5156 12145,5156 Z"/>
  <path fill="rgb(255,255,255)" stroke="none" d="M 12074,5085 C 11899,5085 11757,5228 11757,5403 11757,5579 11899,5721 12074,5721 12250,5721 12392,5579 12392,5403 12392,5228 12250,5085 12074,5085 Z"/>
  <path stroke-width="35" fill="none" stroke="rgb(255,0,0)" d="M 12074,5085 C 11899,5085 11757,5228 11757,5403 11757,5579 11899,5721 12074,5721 12250,5721 12392,5579 12392,5403 12392,5228 12250,5085 12074,5085 Z"/>
  <text fill="rgb(0,0,0)" stroke="none" x="11945" y="5605">5</text>
  <text fill="rgb(129,138,143)" stroke="none" x="16778" y="5041">6</text>
  <path fill="rgb(129,138,143)" stroke="none" d="M 16906,4520 C 16730,4520 16588,4662 16588,4838 16588,5014 16730,5156 16906,5156 17081,5156 17223,5014 17223,4838 17223,4662 17081,4520 16906,4520 Z"/>
  <path fill="rgb(255,255,255)" stroke="none" d="M 16835,4449 C 16660,4449 16517,4592 16517,4767 16517,4943 16660,5085 16835,5085 17010,5085 17152,4943 17152,4767 17152,4592 17010,4449 16835,4449 Z"/>
  <path stroke-width="35" fill="none" stroke="rgb(255,0,0)" d="M 16835,4449 C 16660,4449 16517,4592 16517,4767 16517,4943 16660,5085 16835,5085 17010,5085 17152,4943 17152,4767 17152,4592 17010,4449 16835,4449 Z"/>
  <text fill="rgb(0,0,0)" stroke="none" x="16706" y="4969">6</text>
  <text fill="rgb(129,138,143)" stroke="none" x="15826" y="5359">7</text>
  <path fill="rgb(129,138,143)" stroke="none" d="M 15954,4838 C 15778,4838 15636,4980 15636,5156 15636,5332 15778,5474 15954,5474 16129,5474 16271,5332 16271,5156 16271,4980 16129,4838 15954,4838 Z"/>
  <path fill="rgb(255,255,255)" stroke="none" d="M 15883,4767 C 15708,4767 15565,4910 15565,5085 15565,5261 15708,5403 15883,5403 16058,5403 16200,5261 16200,5085 16200,4910 16058,4767 15883,4767 Z"/>
  <path stroke-width="35" fill="none" stroke="rgb(255,0,0)" d="M 15883,4767 C 15708,4767 15565,4910 15565,5085 15565,5261 15708,5403 15883,5403 16058,5403 16200,5261 16200,5085 16200,4910 16058,4767 15883,4767 Z"/>
  <text fill="rgb(0,0,0)" stroke="none" x="15754" y="5287">7</text>
  <text fill="rgb(129,138,143)" stroke="none" x="11383" y="7267">8</text>
  <path fill="rgb(129,138,143)" stroke="none" d="M 11511,6746 C 11335,6746 11193,6888 11193,7064 11193,7239 11335,7382 11511,7382 11686,7382 11828,7239 11828,7064 11828,6888 11686,6746 11511,6746 Z"/>
  <path fill="rgb(255,255,255)" stroke="none" d="M 11440,6675 C 11265,6675 11122,6818 11122,6993 11122,7169 11265,7311 11440,7311 11615,7311 11757,7169 11757,6993 11757,6818 11615,6675 11440,6675 Z"/>
  <path stroke-width="35" fill="none" stroke="rgb(255,0,0)" d="M 11440,6675 C 11265,6675 11122,6818 11122,6993 11122,7169 11265,7311 11440,7311 11615,7311 11757,7169 11757,6993 11757,6818 11615,6675 11440,6675 Z"/>
  <text fill="rgb(0,0,0)" stroke="none" x="11311" y="7194">8</text>
  <path fill="rgb(0,0,0)" stroke="rgb(0,0,0)" d="M 10249,1023 L 10242,1060 10242,1060 C 10242,1061 10241,1062 10241,1063 L 10241,1063 10227,1098 10212,1132 10195,1166 10176,1199 10133,1263 10085,1324 10032,1380 9973,1432 9911,1479 9845,1521 9811,1539 9776,1556 9740,1571 9704,1584 9668,1596 9631,1605 9594,1613 9557,1618 9519,1622 9481,1623 9484,1623 9447,1629 9452,1628 9416,1646 9419,1644 9382,1674 9384,1673 9348,1715 9314,1767 9279,1829 9244,1902 9210,1986 9176,2079 9143,2182 9110,2293 9079,2413 9047,2541 9018,2676 8988,2819 8960,2968 8934,3124 8908,3286 8883,3453 8861,3626 8839,3803 8819,3985 8784,4360 8755,4748 8734,5145 8721,5549 8718,5779 8683,5779 8686,5548 8698,5143 8720,4745 8748,4357 8784,3981 8804,3798 8825,3621 8849,3448 8873,3280 8899,3118 8926,2962 8954,2812 8983,2669 9014,2532 9044,2404 9077,2283 9109,2171 9143,2067 9178,1973 9212,1887 9248,1812 9284,1746 9321,1692 9358,1649 9358,1649 C 9358,1649 9359,1648 9360,1647 L 9397,1617 9397,1617 C 9397,1616 9399,1615 9400,1614 L 9436,1596 9436,1596 C 9438,1595 9439,1595 9441,1594 L 9478,1588 9478,1588 C 9479,1588 9480,1588 9481,1588 L 9481,1588 9516,1587 9552,1583 9587,1578 9622,1571 9657,1562 9692,1551 9727,1539 9760,1524 9794,1509 9826,1491 9890,1451 9950,1406 10006,1356 10058,1301 10104,1243 10145,1182 10163,1150 10180,1117 10195,1085 10208,1051 10207,1054 10214,1016 10249,1023 Z M 10121,1035 L 10121,1035 10263,846 10330,1073 10121,1035 Z M 8807,5745 L 8807,5745 8698,5955 8595,5742 8807,5745 Z"/>
  <text fill="rgb(129,138,143)" stroke="none" x="8395" y="5359">
   <tspan x="8395 8666">1a</tspan></text>
  <path fill="rgb(129,138,143)" stroke="none" d="M 8654,4838 C 8479,4838 8337,4980 8337,5156 8337,5332 8479,5474 8654,5474 8830,5474 8972,5332 8972,5156 8972,4980 8830,4838 8654,4838 Z"/>
  <path fill="rgb(255,255,255)" stroke="none" d="M 8584,4767 C 8409,4767 8266,4910 8266,5085 8266,5261 8409,5403 8584,5403 8759,5403 8901,5261 8901,5085 8901,4910 8759,4767 8584,4767 Z"/>
  <path stroke-width="35" fill="none" stroke="rgb(255,0,0)" d="M 8584,4767 C 8409,4767 8266,4910 8266,5085 8266,5261 8409,5403 8584,5403 8759,5403 8901,5261 8901,5085 8901,4910 8759,4767 8584,4767 Z"/>
  <text fill="rgb(0,0,0)" stroke="none" x="8323" y="5287">
   <tspan x="8323 8594">1a</tspan></text>
 </g>
 <g fill="rgb(129,138,143)" stroke="none" font-family="Arial" font-size="424" font-style="normal" font-weight="400">
  <text x="10096" y="3328">
   <tspan x="10096 10401 10634 10871 10989 11129 11366">Control</tspan></text>
  <text fill="rgb(129,138,143)" stroke="none" x="9944" y="3832">
   <tspan x="9944 10295 10532 10765 11002 11230 11467">Manager</tspan></text>
  <path fill="rgb(129,138,143)" stroke="none" d="M 10770,2612 C 9952,2612 9289,2968 9289,3407 9289,3846 9952,4202 10770,4202 11588,4202 12251,3846 12251,3407 12251,2968 11588,2612 10770,2612 Z"/>
  <path fill="rgb(204,255,255)" stroke="none" d="M 10699,2541 C 9882,2541 9218,2898 9218,3336 9218,3776 9882,4131 10699,4131 11518,4131 12180,3776 12180,3336 12180,2898 11518,2541 10699,2541 Z"/>
  <path stroke-width="26" fill="none" stroke="rgb(0,0,0)" d="M 10699,2541 C 9882,2541 9218,2898 9218,3336 9218,3776 9882,4131 10699,4131 11518,4131 12180,3776 12180,3336 12180,2898 11518,2541 10699,2541 Z"/>
  <text fill="rgb(0,0,0)" stroke="none" x="10024" y="3256">
   <tspan x="10024 10329 10562 10799 10917 11057 11294">Control</tspan></text>
  <text fill="rgb(0,0,0)" stroke="none" x="9872" y="3760">
   <tspan x="9872 10223 10460 10693 10930 11158 11395">Manager</tspan></text>
 </g>
 <g fill="rgb(129,138,143)" stroke="none" font-family="Tahoma" font-size="496" font-style="normal" font-weight="400">
  <text x="7435" y="8856">
   <tspan x="7435 7706">13</tspan></text>
  <path fill="rgb(129,138,143)" stroke="none" d="M 7702,8336 C 7527,8336 7385,8478 7385,8654 7385,8829 7527,8972 7702,8972 7877,8972 8020,8829 8020,8654 8020,8478 7877,8336 7702,8336 Z"/>
  <path fill="rgb(255,255,255)" stroke="none" d="M 7632,8265 C 7456,8265 7314,8408 7314,8583 7314,8759 7456,8901 7632,8901 7807,8901 7949,8759 7949,8583 7949,8408 7807,8265 7632,8265 Z"/>
  <path stroke-width="35" fill="none" stroke="rgb(255,0,0)" d="M 7632,8265 C 7456,8265 7314,8408 7314,8583 7314,8759 7456,8901 7632,8901 7807,8901 7949,8759 7949,8583 7949,8408 7807,8265 7632,8265 Z"/>
  <text fill="rgb(0,0,0)" stroke="none" x="7363" y="8784">
   <tspan x="7363 7634">13</tspan></text>
  <text fill="rgb(129,138,143)" stroke="none" x="3280" y="9658">
   <tspan x="3280 3551">14</tspan></text>
  <path fill="rgb(129,138,143)" stroke="none" d="M 3546,9139 C 3371,9139 3228,9282 3228,9457 3228,9633 3371,9775 3546,9775 3721,9775 3863,9633 3863,9457 3863,9282 3721,9139 3546,9139 Z"/>
  <path fill="rgb(255,255,255)" stroke="none" d="M 3475,9069 C 3300,9069 3158,9211 3158,9387 3158,9563 3300,9705 3475,9705 3651,9705 3793,9563 3793,9387 3793,9211 3651,9069 3475,9069 Z"/>
  <path stroke-width="35" fill="none" stroke="rgb(255,0,0)" d="M 3475,9069 C 3300,9069 3158,9211 3158,9387 3158,9563 3300,9705 3475,9705 3651,9705 3793,9563 3793,9387 3793,9211 3651,9069 3475,9069 Z"/>
  <text fill="rgb(0,0,0)" stroke="none" x="3208" y="9586">
   <tspan x="3208 3479">14</tspan></text>
  <path fill="rgb(0,0,0)" stroke="rgb(0,0,0)" d="M 9748,5544 L 9754,5498 9772,5425 9793,5355 9819,5289 9848,5226 9881,5166 9916,5112 9955,5062 9974,5040 9995,5018 10016,4999 10038,4981 10059,4965 10082,4951 10105,4938 10128,4928 10151,4920 10175,4914 10198,4910 10223,4909 10245,4908 10266,4904 10286,4899 10307,4892 10327,4883 10348,4872 10368,4858 10388,4844 10408,4827 10427,4809 10447,4789 10466,4768 10502,4721 10536,4669 10568,4611 10596,4550 10620,4485 10642,4418 10659,4348 10664,4305 10699,4309 10693,4357 10675,4429 10654,4499 10628,4565 10598,4628 10565,4688 10530,4742 10492,4791 10472,4814 10451,4835 10430,4855 10409,4872 10387,4889 10364,4903 10341,4915 10318,4925 10295,4934 10271,4939 10247,4943 10224,4944 10204,4945 10183,4948 10162,4953 10142,4960 10121,4970 10101,4981 10080,4994 10060,5008 10040,5025 10020,5043 10001,5063 9982,5084 9946,5131 9912,5184 9880,5240 9852,5302 9827,5366 9805,5433 9788,5502 9783,5548 9748,5544 Z M 9874,5521 L 9747,5721 9664,5500 9874,5521 Z M 10572,4332 L 10699,4131 10783,4353 10572,4332 Z"/>
  <text fill="rgb(129,138,143)" stroke="none" x="9919" y="5728">
   <tspan x="9919 10190">12</tspan></text>
  <path fill="rgb(129,138,143)" stroke="none" d="M 10184,5209 C 10009,5209 9866,5351 9866,5527 9866,5703 10009,5845 10184,5845 10359,5845 10501,5703 10501,5527 10501,5351 10359,5209 10184,5209 Z"/>
  <path fill="rgb(255,255,255)" stroke="none" d="M 10113,5138 C 9938,5138 9796,5281 9796,5456 9796,5632 9938,5774 10113,5774 10289,5774 10431,5632 10431,5456 10431,5281 10289,5138 10113,5138 Z"/>
  <path stroke-width="35" fill="none" stroke="rgb(255,0,0)" d="M 10113,5138 C 9938,5138 9796,5281 9796,5456 9796,5632 9938,5774 10113,5774 10289,5774 10431,5632 10431,5456 10431,5281 10289,5138 10113,5138 Z"/>
  <text fill="rgb(0,0,0)" stroke="none" x="9847" y="5655">
   <tspan x="9847 10118">12</tspan></text>
  <text fill="rgb(129,138,143)" stroke="none" x="11027" y="4905">9</text>
  <path fill="rgb(129,138,143)" stroke="none" d="M 11158,4383 C 10983,4383 10841,4526 10841,4701 10841,4877 10983,5019 11158,5019 11333,5019 11475,4877 11475,4701 11475,4526 11333,4383 11158,4383 Z"/>
  <path fill="rgb(255,255,255)" stroke="none" d="M 11088,4313 C 10912,4313 10770,4455 10770,4630 10770,4806 10912,4948 11088,4948 11263,4948 11405,4806 11405,4630 11405,4455 11263,4313 11088,4313 Z"/>
  <path stroke-width="35" fill="none" stroke="rgb(255,0,0)" d="M 11088,4313 C 10912,4313 10770,4455 10770,4630 10770,4806 10912,4948 11088,4948 11263,4948 11405,4806 11405,4630 11405,4455 11263,4313 11088,4313 Z"/>
  <text fill="rgb(0,0,0)" stroke="none" x="10955" y="4833">9</text>
  <path fill="rgb(0,0,0)" stroke="rgb(0,0,0)" d="M 12357,3320 L 12357,3320 12475,3323 12767,3331 12912,3337 13056,3345 13197,3353 13337,3364 13474,3374 13608,3387 13741,3400 13869,3414 13994,3430 14115,3446 14233,3462 14346,3480 14455,3498 14557,3518 14657,3538 14749,3558 14837,3579 14917,3601 14956,3612 14992,3623 15028,3634 15061,3646 15093,3657 15123,3669 15151,3681 15177,3692 15202,3704 15225,3716 15246,3729 15265,3741 15282,3753 15297,3766 15310,3778 15321,3792 15331,3806 15337,3820 15337,3820 C 15338,3821 15338,3822 15338,3823 L 15341,3834 15341,3834 C 15342,3836 15342,3837 15342,3838 L 15342,3838 15343,3850 15344,3862 15343,3859 15347,3871 15346,3867 15352,3880 15359,3891 15368,3900 15378,3911 15392,3921 15407,3933 15425,3945 15444,3955 15466,3967 15489,3979 15515,3990 15542,4001 15571,4013 15602,4024 15635,4035 15669,4046 15705,4057 15743,4068 15824,4089 15910,4110 16002,4130 16101,4150 16203,4169 16311,4187 16424,4205 16541,4222 16662,4238 16786,4253 16915,4267 17046,4281 17181,4292 17317,4304 17457,4314 17598,4322 17740,4329 17884,4336 18176,4344 18295,4345 18294,4380 18175,4379 17883,4371 17738,4366 17595,4357 17454,4349 17314,4339 17178,4327 17043,4316 16911,4303 16782,4288 16657,4273 16537,4257 16419,4240 16306,4222 16197,4204 16093,4185 15995,4165 15902,4144 15815,4124 15734,4102 15696,4091 15658,4079 15624,4069 15590,4057 15558,4045 15528,4034 15500,4022 15473,4010 15449,3999 15426,3986 15405,3974 15386,3962 15369,3949 15354,3936 15340,3922 15328,3909 15320,3895 15315,3883 15315,3883 C 15314,3882 15314,3881 15314,3880 L 15309,3868 15309,3868 C 15309,3867 15309,3866 15309,3865 L 15309,3865 15308,3853 15307,3841 15307,3844 15304,3832 15305,3834 15301,3825 15295,3814 15285,3804 15274,3793 15261,3781 15246,3770 15228,3759 15208,3748 15187,3736 15163,3724 15138,3713 15111,3702 15081,3690 15050,3679 15017,3668 14983,3656 14947,3646 14908,3635 14828,3614 14741,3593 14649,3573 14551,3553 14448,3533 14340,3515 14227,3497 14111,3480 13989,3465 13865,3450 13736,3435 13605,3422 13471,3409 13334,3399 13195,3388 13054,3380 12911,3372 12766,3366 12475,3358 12357,3356 12357,3320 Z M 12391,3444 L 12391,3444 12180,3336 12393,3232 12391,3444 Z M 18260,4256 L 18260,4256 18470,4364 18258,4468 18260,4256 Z"/>
  <text fill="rgb(129,138,143)" stroke="none" x="12267" y="3112">
   <tspan x="12267 12538">11</tspan></text>
  <path fill="rgb(129,138,143)" stroke="none" d="M 12533,2590 C 12358,2590 12216,2733 12216,2908 12216,3084 12358,3226 12533,3226 12709,3226 12850,3084 12850,2908 12850,2733 12709,2590 12533,2590 Z"/>
  <path fill="rgb(255,255,255)" stroke="none" d="M 12463,2520 C 12287,2520 12145,2662 12145,2838 12145,3013 12287,3156 12463,3156 12638,3156 12780,3013 12780,2838 12780,2662 12638,2520 12463,2520 Z"/>
  <path stroke-width="35" fill="none" stroke="rgb(255,0,0)" d="M 12463,2520 C 12287,2520 12145,2662 12145,2838 12145,3013 12287,3156 12463,3156 12638,3156 12780,3013 12780,2838 12780,2662 12638,2520 12463,2520 Z"/>
  <text fill="rgb(0,0,0)" stroke="none" x="12195" y="3040">
   <tspan x="12195 12466">11</tspan></text>
  <text fill="rgb(129,138,143)" stroke="none" x="17721" y="4252">
   <tspan x="17721 17992">10</tspan></text>
  <path fill="rgb(129,138,143)" stroke="none" d="M 17986,3734 C 17810,3734 17668,3877 17668,4052 17668,4228 17810,4370 17986,4370 18161,4370 18303,4228 18303,4052 18303,3877 18161,3734 17986,3734 Z"/>
  <path fill="rgb(255,255,255)" stroke="none" d="M 17915,3664 C 17740,3664 17598,3806 17598,3982 17598,4157 17740,4300 17915,4300 18090,4300 18232,4157 18232,3982 18232,3806 18090,3664 17915,3664 Z"/>
  <path stroke-width="35" fill="none" stroke="rgb(255,0,0)" d="M 17915,3664 C 17740,3664 17598,3806 17598,3982 17598,4157 17740,4300 17915,4300 18090,4300 18232,4157 18232,3982 18232,3806 18090,3664 17915,3664 Z"/>
  <text fill="rgb(0,0,0)" stroke="none" x="17649" y="4180">
   <tspan x="17649 17920">10</tspan></text>
 </g>
</svg>