<?xml version="1.0" encoding="UTF-8"?><!DOCTYPE svg PUBLIC "-//W3C//DTD SVG 1.1//EN" "/SysSchema/SVG11/svg11.dtd">
<svg xmlns:xlink="http://www.w3.org/1999/xlink" xmlns="http://www.w3.org/2000/svg" width="201mm" height="142mm" viewBox="0 0 20100 14200" stroke-width="28.222" stroke-linejoin="round" xml:space="preserve" preserveAspectRatio="xMidYMid meet" zoomAndPan="magnify" version="1.1" contentScriptType="text/ecmascript" contentStyleType="text/css">
 <path fill="rgb(153,204,255)" stroke="none" d="M 10189,9855 L 10189,13353 16547,13353 16547,9855 10189,9855 Z"/>
 <path fill="none" stroke="none" d="M 10189,9855 L 10189,13353 16547,13353 16547,9855 10189,9855 Z"/>
 <path stroke-width="35" fill="none" stroke="rgb(0,0,0)" d="M 10189,9855 L 10189,13353 16547,13353 16547,9855 10189,9855 Z"/>
 <rect fill="rgb(192,192,192)" stroke="none" x="3828" y="949" width="12722" height="8908"/>
 <rect fill="rgb(127,127,127)" stroke="none" x="3830" y="952" width="12719" height="8904"/>
 <rect fill="rgb(192,192,192)" stroke="none" x="3828" y="949" width="12722" height="8908"/>
 <path fill="none" stroke="none" d="M 3830,952 L 3830,9855 16547,9855 16547,952 3830,952 Z"/>
 <path stroke-width="35" fill="none" stroke="rgb(0,0,0)" d="M 3830,952 L 3830,9855 16547,9855 16547,952 3830,952 Z"/>
 <g fill="rgb(129,138,143)" stroke="none" font-family="Arial" font-size="424" font-style="normal" font-weight="400">
  <text x="5239" y="8729">
   <tspan x="5239 5523 5828 5947">PCIe</tspan></text>
  <text fill="rgb(129,138,143)" stroke="none" x="4875" y="9234">
   <tspan x="4875 5227 5464 5697 5934 6163 6400">Manager</tspan></text>
  <path fill="rgb(129,138,143)" stroke="none" d="M 5702,8018 C 4883,8018 4219,8374 4219,8813 4219,9252 4883,9608 5702,9608 6522,9608 7186,9252 7186,8813 7186,8374 6522,8018 5702,8018 Z"/>
  <path fill="rgb(204,255,255)" stroke="none" d="M 5631,7947 C 4812,7947 4148,8303 4148,8742 4148,9181 4812,9537 5631,9537 6451,9537 7115,9181 7115,8742 7115,8303 6451,7947 5631,7947 Z"/>
  <path stroke-width="26" fill="none" stroke="rgb(0,0,0)" d="M 5631,7947 C 4812,7947 4148,8303 4148,8742 4148,9181 4812,9537 5631,9537 6451,9537 7115,9181 7115,8742 7115,8303 6451,7947 5631,7947 Z"/>
  <text fill="rgb(0,0,0)" stroke="none" x="5167" y="8657">
   <tspan x="5167 5451 5756 5875">PCIe</tspan></text>
  <text fill="rgb(0,0,0)" stroke="none" x="4803" y="9162">
   <tspan x="4803 5155 5392 5625 5862 6091 6328">Manager</tspan></text>
  <text fill="rgb(129,138,143)" stroke="none" x="5214" y="4913">
   <tspan x="5214 5519 5756 5870 6107">Datal</tspan></text>
  <text fill="rgb(129,138,143)" stroke="none" x="4875" y="5418">
   <tspan x="4875 5227 5464 5697 5934 6163 6400">Manager</tspan></text>
  <path fill="rgb(129,138,143)" stroke="none" d="M 5702,4202 C 4883,4202 4219,4558 4219,4997 4219,5436 4883,5792 5702,5792 6522,5792 7186,5436 7186,4997 7186,4558 6522,4202 5702,4202 Z"/>
  <path fill="rgb(204,255,255)" stroke="none" d="M 5631,4131 C 4812,4131 4148,4487 4148,4926 4148,5366 4812,5721 5631,5721 6451,5721 7115,5366 7115,4926 7115,4487 6451,4131 5631,4131 Z"/>
  <path stroke-width="26" fill="none" stroke="rgb(0,0,0)" d="M 5631,4131 C 4812,4131 4148,4487 4148,4926 4148,5366 4812,5721 5631,5721 6451,5721 7115,5366 7115,4926 7115,4487 6451,4131 5631,4131 Z"/>
  <text fill="rgb(0,0,0)" stroke="none" x="5142" y="4841">
   <tspan x="5142 5447 5684 5798 6035">Datal</tspan></text>
  <text fill="rgb(0,0,0)" stroke="none" x="4803" y="5346">
   <tspan x="4803 5155 5392 5625 5862 6091 6328">Manager</tspan></text>
  <text fill="rgb(129,138,143)" stroke="none" x="5214" y="5231">
   <tspan x="5214 5519 5756 5870 6107">Datal</tspan></text>
  <text fill="rgb(129,138,143)" stroke="none" x="4875" y="5736">
   <tspan x="4875 5227 5464 5697 5934 6163 6400">Manager</tspan></text>
  <path fill="rgb(129,138,143)" stroke="none" d="M 5702,4520 C 4883,4520 4219,4876 4219,5315 4219,5754 4883,6110 5702,6110 6522,6110 7186,5754 7186,5315 7186,4876 6522,4520 5702,4520 Z"/>
  <path fill="rgb(204,255,255)" stroke="none" d="M 5631,4449 C 4812,4449 4148,4805 4148,5244 4148,5684 4812,6039 5631,6039 6451,6039 7115,5684 7115,5244 7115,4805 6451,4449 5631,4449 Z"/>
  <path stroke-width="26" fill="none" stroke="rgb(0,0,0)" d="M 5631,4449 C 4812,4449 4148,4805 4148,5244 4148,5684 4812,6039 5631,6039 6451,6039 7115,5684 7115,5244 7115,4805 6451,4449 5631,4449 Z"/>
  <text fill="rgb(0,0,0)" stroke="none" x="5142" y="5159">
   <tspan x="5142 5447 5684 5798 6035">Datal</tspan></text>
  <text fill="rgb(0,0,0)" stroke="none" x="4803" y="5664">
   <tspan x="4803 5155 5392 5625 5862 6091 6328">Manager</tspan></text>
  <text fill="rgb(129,138,143)" stroke="none" x="5214" y="5549">
   <tspan x="5214 5519 5756 5870 6107">Datal</tspan></text>
  <text fill="rgb(129,138,143)" stroke="none" x="4875" y="6054">
   <tspan x="4875 5227 5464 5697 5934 6163 6400">Manager</tspan></text>
  <path fill="rgb(129,138,143)" stroke="none" d="M 5702,4838 C 4883,4838 4219,5194 4219,5633 4219,6072 4883,6428 5702,6428 6522,6428 7186,6072 7186,5633 7186,5194 6522,4838 5702,4838 Z"/>
  <path fill="rgb(204,255,255)" stroke="none" d="M 5631,4767 C 4812,4767 4148,5123 4148,5562 4148,6001 4812,6357 5631,6357 6451,6357 7115,6001 7115,5562 7115,5123 6451,4767 5631,4767 Z"/>
  <path stroke-width="26" fill="none" stroke="rgb(0,0,0)" d="M 5631,4767 C 4812,4767 4148,5123 4148,5562 4148,6001 4812,6357 5631,6357 6451,6357 7115,6001 7115,5562 7115,5123 6451,4767 5631,4767 Z"/>
  <text fill="rgb(0,0,0)" stroke="none" x="5142" y="5477">
   <tspan x="5142 5447 5684 5798 6035">Datal</tspan></text>
  <text fill="rgb(0,0,0)" stroke="none" x="4803" y="5982">
   <tspan x="4803 5155 5392 5625 5862 6091 6328">Manager</tspan></text>
  <text fill="rgb(129,138,143)" stroke="none" x="5261" y="5867">
   <tspan x="5261 5566 5803 5917">Data</tspan></text>
  <text fill="rgb(129,138,143)" stroke="none" x="4875" y="6372">
   <tspan x="4875 5227 5464 5697 5934 6163 6400">Manager</tspan></text>
  <path fill="rgb(129,138,143)" stroke="none" d="M 5702,5156 C 4883,5156 4219,5512 4219,5951 4219,6390 4883,6746 5702,6746 6522,6746 7186,6390 7186,5951 7186,5512 6522,5156 5702,5156 Z"/>
  <path fill="rgb(204,255,255)" stroke="none" d="M 5631,5085 C 4812,5085 4148,5441 4148,5880 4148,6319 4812,6675 5631,6675 6451,6675 7115,6319 7115,5880 7115,5441 6451,5085 5631,5085 Z"/>
  <path stroke-width="26" fill="none" stroke="rgb(0,0,0)" d="M 5631,5085 C 4812,5085 4148,5441 4148,5880 4148,6319 4812,6675 5631,6675 6451,6675 7115,6319 7115,5880 7115,5441 6451,5085 5631,5085 Z"/>
  <text fill="rgb(0,0,0)" stroke="none" x="5188" y="5795">
   <tspan x="5188 5493 5730 5844">Data</tspan></text>
  <text fill="rgb(0,0,0)" stroke="none" x="4803" y="6300">
   <tspan x="4803 5155 5392 5625 5862 6091 6328">Manager</tspan></text>
  <path fill="rgb(153,204,255)" stroke="none" d="M 16547,952 L 16547,9855 20045,9855 20045,952 16547,952 Z"/>
  <path fill="none" stroke="none" d="M 16547,952 L 16547,9855 20045,9855 20045,952 16547,952 Z"/>
  <path stroke-width="35" fill="none" stroke="rgb(0,0,0)" d="M 16547,952 L 16547,9855 20045,9855 20045,952 16547,952 Z"/>
  <path fill="rgb(153,204,255)" stroke="none" d="M 15,952 L 15,9855 3830,9855 3830,952 15,952 Z"/>
  <path fill="none" stroke="none" d="M 15,952 L 15,9855 3830,9855 3830,952 15,952 Z"/>
  <path stroke-width="36" fill="none" stroke="rgb(0,0,0)" d="M 15,952 L 15,9855 3830,9855 3830,952 15,952 Z"/>
  <text fill="rgb(129,138,143)" stroke="none" x="474" y="2052">i</text>
  <text fill="rgb(129,138,143)" stroke="none" x="568" y="2052">-</text>
  <text fill="rgb(129,138,143)" stroke="none" x="708" y="2052">
   <tspan x="708 1013 1365 1649 1768 1887">DMA, e</tspan></text>
  <text fill="rgb(129,138,143)" stroke="none" x="2124" y="2052">-</text>
  <text fill="rgb(129,138,143)" stroke="none" x="2263" y="2052">
   <tspan x="2263 2568 2920">DMA</tspan></text>
  <text fill="rgb(129,138,143)" stroke="none" x="1009" y="2556">
   <tspan x="1009 1361 1598 1831 2068 2297 2534">Manager</tspan></text>
  <path fill="rgb(129,138,143)" stroke="none" d="M 1834,1340 C 1044,1340 403,1696 403,2135 403,2574 1044,2930 1834,2930 2624,2930 3265,2574 3265,2135 3265,1696 2624,1340 1834,1340 Z"/>
  <path fill="rgb(255,204,153)" stroke="none" d="M 1763,1269 C 973,1269 332,1626 332,2064 332,2503 973,2859 1763,2859 2554,2859 3194,2503 3194,2064 3194,1626 2554,1269 1763,1269 Z"/>
  <path stroke-width="26" fill="none" stroke="rgb(0,0,0)" d="M 1763,1269 C 973,1269 332,1626 332,2064 332,2503 973,2859 1763,2859 2554,2859 3194,2503 3194,2064 3194,1626 2554,1269 1763,1269 Z"/>
  <text fill="rgb(0,0,0)" stroke="none" x="402" y="1980">i</text>
  <text fill="rgb(0,0,0)" stroke="none" x="496" y="1980">-</text>
  <text fill="rgb(0,0,0)" stroke="none" x="636" y="1980">
   <tspan x="636 941 1293 1577 1696 1815">DMA, e</tspan></text>
  <text fill="rgb(0,0,0)" stroke="none" x="2051" y="1980">-</text>
  <text fill="rgb(0,0,0)" stroke="none" x="2191" y="1980">
   <tspan x="2191 2496 2848">DMA</tspan></text>
  <text fill="rgb(0,0,0)" stroke="none" x="937" y="2484">
   <tspan x="937 1289 1526 1759 1996 2225 2462">Manager</tspan></text>
  <text fill="rgb(129,138,143)" stroke="none" x="805" y="4278">
   <tspan x="805 1089 1322 1555 1911 2004 2216 2428 2517 2754">Submission</tspan></text>
  <text fill="rgb(129,138,143)" stroke="none" x="1059" y="4782">
   <tspan x="1059 1411 1648 1881 2118 2347 2584">Manager</tspan></text>
  <path fill="rgb(129,138,143)" stroke="none" d="M 1887,3566 C 1067,3566 403,3922 403,4361 403,4800 1067,5156 1887,5156 2706,5156 3371,4800 3371,4361 3371,3922 2706,3566 1887,3566 Z"/>
  <path fill="rgb(255,204,153)" stroke="none" d="M 1816,3495 C 997,3495 332,3851 332,4290 332,4730 997,5085 1816,5085 2636,5085 3300,4730 3300,4290 3300,3851 2636,3495 1816,3495 Z"/>
  <path stroke-width="26" fill="none" stroke="rgb(0,0,0)" d="M 1816,3495 C 997,3495 332,3851 332,4290 332,4730 997,5085 1816,5085 2636,5085 3300,4730 3300,4290 3300,3851 2636,3495 1816,3495 Z"/>
  <text fill="rgb(0,0,0)" stroke="none" x="733" y="4205">
   <tspan x="733 1017 1250 1483 1839 1932 2144 2356 2445 2682">Submission</tspan></text>
  <text fill="rgb(0,0,0)" stroke="none" x="987" y="4710">
   <tspan x="987 1339 1576 1809 2046 2275 2512">Manager</tspan></text>
  <text fill="rgb(129,138,143)" stroke="none" x="826" y="6503">
   <tspan x="826 1131 1364 1720 1953 2046 2283 2402 2491 2724">Completion</tspan></text>
  <text fill="rgb(129,138,143)" stroke="none" x="1059" y="7008">
   <tspan x="1059 1411 1648 1881 2118 2347 2584">Manager</tspan></text>
  <path fill="rgb(129,138,143)" stroke="none" d="M 1887,5792 C 1067,5792 403,6148 403,6587 403,7026 1067,7382 1887,7382 2706,7382 3371,7026 3371,6587 3371,6148 2706,5792 1887,5792 Z"/>
  <path fill="rgb(255,204,153)" stroke="none" d="M 1816,5721 C 997,5721 332,6077 332,6516 332,6955 997,7311 1816,7311 2636,7311 3300,6955 3300,6516 3300,6077 2636,5721 1816,5721 Z"/>
  <path stroke-width="26" fill="none" stroke="rgb(0,0,0)" d="M 1816,5721 C 997,5721 332,6077 332,6516 332,6955 997,7311 1816,7311 2636,7311 3300,6955 3300,6516 3300,6077 2636,5721 1816,5721 Z"/>
  <text fill="rgb(0,0,0)" stroke="none" x="754" y="6431">
   <tspan x="754 1059 1292 1648 1881 1974 2211 2330 2419 2652">Completion</tspan></text>
  <text fill="rgb(0,0,0)" stroke="none" x="987" y="6936">
   <tspan x="987 1339 1576 1809 2046 2275 2512">Manager</tspan></text>
  <text fill="rgb(129,138,143)" stroke="none" x="1458" y="8729">
   <tspan x="1458 1763 2000 2212">Host</tspan></text>
  <text fill="rgb(129,138,143)" stroke="none" x="1059" y="9234">
   <tspan x="1059 1411 1648 1881 2118 2347 2584">Manager</tspan></text>
  <path fill="rgb(129,138,143)" stroke="none" d="M 1887,8018 C 1067,8018 403,8374 403,8813 403,9252 1067,9608 1887,9608 2706,9608 3371,9252 3371,8813 3371,8374 2706,8018 1887,8018 Z"/>
  <path fill="rgb(255,204,153)" stroke="none" d="M 1816,7947 C 997,7947 332,8303 332,8742 332,9181 997,9537 1816,9537 2636,9537 3300,9181 3300,8742 3300,8303 2636,7947 1816,7947 Z"/>
  <path stroke-width="26" fill="none" stroke="rgb(0,0,0)" d="M 1816,7947 C 997,7947 332,8303 332,8742 332,9181 997,9537 1816,9537 2636,9537 3300,9181 3300,8742 3300,8303 2636,7947 1816,7947 Z"/>
  <text fill="rgb(0,0,0)" stroke="none" x="1386" y="8657">
   <tspan x="1386 1691 1928 2140">Host</tspan></text>
  <text fill="rgb(0,0,0)" stroke="none" x="987" y="9162">
   <tspan x="987 1339 1576 1809 2046 2275 2512">Manager</tspan></text>
 </g>
 <g fill="rgb(0,0,0)" stroke="none" font-family="Tahoma" font-size="496" font-style="normal" font-weight="400">
  <text x="8219" y="619">
   <tspan x="8219 8490 8668 8939 9168 9431 9651 9871 10142 10316 10473 10770 11037 11452 11728 11842 12101">Processor Complex</tspan></text>
  <text fill="rgb(0,0,0)" stroke="none" x="907" y="619">
   <tspan x="907 1242 1513 1733 1898 2055 2237 2428">Host I/F</tspan></text>
  <text fill="rgb(0,0,0)" stroke="none" x="17440" y="619">
   <tspan x="17440 17699 17813 18072 18292 18568 18725 18912 19099">Flash I/F</tspan></text>
 </g>
 <g fill="rgb(129,138,143)" stroke="none" font-family="Arial" font-size="424" font-style="normal" font-weight="400">
  <text x="17906" y="5549">
   <tspan x="17906 18165 18258 18495 18707">Flash</tspan></text>
  <text fill="rgb(129,138,143)" stroke="none" x="17601" y="6054">
   <tspan x="17601 17720 17957 18076 18313 18449 18568 18805 19017">Interface</tspan></text>
  <path fill="rgb(129,138,143)" stroke="none" d="M 18420,4838 C 17601,4838 16936,5194 16936,5633 16936,6072 17601,6428 18420,6428 19239,6428 19904,6072 19904,5633 19904,5194 19239,4838 18420,4838 Z"/>
  <path fill="rgb(255,204,153)" stroke="none" d="M 18349,4767 C 17530,4767 16865,5123 16865,5562 16865,6002 17530,6357 18349,6357 19169,6357 19833,6002 19833,5562 19833,5123 19169,4767 18349,4767 Z"/>
  <path stroke-width="26" fill="none" stroke="rgb(0,0,0)" d="M 18349,4767 C 17530,4767 16865,5123 16865,5562 16865,6002 17530,6357 18349,6357 19169,6357 19833,6002 19833,5562 19833,5123 19169,4767 18349,4767 Z"/>
  <text fill="rgb(0,0,0)" stroke="none" x="17834" y="5477">
   <tspan x="17834 18093 18186 18423 18635">Flash</tspan></text>
  <text fill="rgb(0,0,0)" stroke="none" x="17529" y="5982">
   <tspan x="17529 17648 17885 18004 18241 18377 18496 18733 18945">Interface</tspan></text>
  <path fill="rgb(153,204,255)" stroke="none" d="M 3830,9855 L 3830,13353 10189,13353 10189,9855 3830,9855 Z"/>
  <path fill="none" stroke="none" d="M 3830,9855 L 3830,13353 10189,13353 10189,9855 3830,9855 Z"/>
  <path stroke-width="36" fill="none" stroke="rgb(0,0,0)" d="M 3830,9855 L 3830,13353 10189,13353 10189,9855 3830,9855 Z"/>
  <text fill="rgb(129,138,143)" stroke="none" x="5133" y="11205">
   <tspan x="5133 5438 5743 6048">DDR3</tspan></text>
  <path fill="rgb(129,138,143)" stroke="none" d="M 5702,10244 C 4883,10244 4219,10599 4219,11039 4219,11478 4883,11834 5702,11834 6522,11834 7186,11478 7186,11039 7186,10599 6522,10244 5702,10244 Z"/>
  <path fill="rgb(255,204,153)" stroke="none" d="M 5631,10173 C 4812,10173 4148,10529 4148,10968 4148,11407 4812,11763 5631,11763 6451,11763 7115,11407 7115,10968 7115,10529 6451,10173 5631,10173 Z"/>
  <path stroke-width="26" fill="none" stroke="rgb(0,0,0)" d="M 5631,10173 C 4812,10173 4148,10529 4148,10968 4148,11407 4812,11763 5631,11763 6451,11763 7115,11407 7115,10968 7115,10529 6451,10173 5631,10173 Z"/>
  <text fill="rgb(0,0,0)" stroke="none" x="5061" y="11133">
   <tspan x="5061 5366 5671 5976">DDR3</tspan></text>
 </g>
 <g fill="rgb(0,0,0)" stroke="none" font-family="Tahoma" font-size="496" font-style="normal" font-weight="400">
  <text x="5040" y="13974">
   <tspan x="5040 5422 5685 6096 6367 6545 6791 6948 7241 7512 7783 7948 8126 8397 8511 8621 8884">Memory Controller</tspan></text>
 </g>
 <g fill="rgb(129,138,143)" stroke="none" font-family="Arial" font-size="424" font-style="normal" font-weight="400">
  <text x="4981" y="2052">
   <tspan x="4981 5214 5451 5663 5875 5964 6201">Locking</tspan></text>
  <text fill="rgb(129,138,143)" stroke="none" x="4875" y="2556">
   <tspan x="4875 5227 5464 5697 5934 6163 6400">Manager</tspan></text>
  <path fill="rgb(129,138,143)" stroke="none" d="M 5702,1341 C 4883,1341 4219,1696 4219,2135 4219,2574 4883,2930 5702,2930 6522,2930 7186,2574 7186,2135 7186,1696 6522,1341 5702,1341 Z"/>
  <path fill="rgb(204,255,255)" stroke="none" d="M 5631,1269 C 4812,1269 4148,1626 4148,2064 4148,2504 4812,2859 5631,2859 6451,2859 7115,2504 7115,2064 7115,1626 6451,1269 5631,1269 Z"/>
  <path stroke-width="26" fill="none" stroke="rgb(0,0,0)" d="M 5631,1269 C 4812,1269 4148,1626 4148,2064 4148,2504 4812,2859 5631,2859 6451,2859 7115,2504 7115,2064 7115,1626 6451,1269 5631,1269 Z"/>
  <text fill="rgb(0,0,0)" stroke="none" x="4909" y="1980">
   <tspan x="4909 5142 5379 5591 5803 5892 6129">Locking</tspan></text>
  <text fill="rgb(0,0,0)" stroke="none" x="4803" y="2484">
   <tspan x="4803 5155 5392 5625 5862 6091 6328">Manager</tspan></text>
  <text fill="rgb(129,138,143)" stroke="none" x="8741" y="6503">
   <tspan x="8741 9025 9258 9614 9703 9940">Admin </tspan></text>
  <text fill="rgb(129,138,143)" stroke="none" x="10059" y="6503">
   <tspan x="10059 10364 10716">Cmd</tspan></text>
  <text fill="rgb(129,138,143)" stroke="none" x="9008" y="7008">
   <tspan x="9008 9360 9597 9830 10067 10296 10533">Manager</tspan></text>
  <path fill="rgb(129,138,143)" stroke="none" d="M 9836,5792 C 9016,5792 8352,6148 8352,6587 8352,7026 9016,7382 9836,7382 10655,7382 11319,7026 11319,6587 11319,6148 10655,5792 9836,5792 Z"/>
  <path fill="rgb(204,255,255)" stroke="none" d="M 9765,5721 C 8945,5721 8281,6077 8281,6516 8281,6955 8945,7311 9765,7311 10584,7311 11248,6955 11248,6516 11248,6077 10584,5721 9765,5721 Z"/>
  <path stroke-width="26" fill="none" stroke="rgb(0,0,0)" d="M 9765,5721 C 8945,5721 8281,6077 8281,6516 8281,6955 8945,7311 9765,7311 10584,7311 11248,6955 11248,6516 11248,6077 10584,5721 9765,5721 Z"/>
  <text fill="rgb(0,0,0)" stroke="none" x="8669" y="6431">
   <tspan x="8669 8953 9186 9542 9631 9868">Admin </tspan></text>
  <text fill="rgb(0,0,0)" stroke="none" x="9987" y="6431">
   <tspan x="9987 10292 10644">Cmd</tspan></text>
  <text fill="rgb(0,0,0)" stroke="none" x="8936" y="6936">
   <tspan x="8936 9288 9525 9758 9995 10224 10461">Manager</tspan></text>
  <rect fill="rgb(204,255,204)" stroke="none" x="12412" y="1267" width="3820" height="8272"/>
  <rect fill="rgb(127,127,127)" stroke="none" x="12414" y="1269" width="3816" height="8268"/>
  <rect fill="rgb(204,255,204)" stroke="none" x="12412" y="1267" width="3820" height="8272"/>
  <path fill="rgb(0,0,0)" stroke="rgb(0,0,0)" d="M 16229,1288 L 15948,1288 15948,1253 16229,1253 16229,1288 Z M 15842,1288 L 15559,1288 15559,1253 15842,1253 15842,1288 Z M 15453,1288 L 15170,1288 15170,1253 15453,1253 15453,1288 Z M 15064,1288 L 14782,1288 14782,1253 15064,1253 15064,1288 Z M 14676,1288 L 14393,1288 14393,1253 14676,1253 14676,1288 Z M 14287,1288 L 14004,1288 14004,1253 14287,1253 14287,1288 Z M 13898,1288 L 13616,1288 13616,1253 13898,1253 13898,1288 Z M 13510,1288 L 13227,1288 13227,1253 13510,1253 13510,1288 Z M 13121,1288 L 12838,1288 12838,1253 13121,1253 13121,1288 Z M 12732,1288 L 12450,1288 12450,1253 12732,1253 12732,1288 Z M 12432,1341 L 12432,1624 12397,1624 12397,1341 12432,1341 Z M 12432,1729 L 12432,2011 12397,2011 12397,1729 12432,1729 Z M 12432,2117 L 12432,2400 12397,2400 12397,2117 12432,2117 Z M 12432,2506 L 12432,2789 12397,2789 12397,2506 12432,2506 Z M 12432,2895 L 12432,3177 12397,3177 12397,2895 12432,2895 Z M 12432,3283 L 12432,3566 12397,3566 12397,3283 12432,3283 Z M 12432,3672 L 12432,3955 12397,3955 12397,3672 12432,3672 Z M 12432,4061 L 12432,4343 12397,4343 12397,4061 12432,4061 Z M 12432,4449 L 12432,4732 12397,4732 12397,4449 12432,4449 Z M 12432,4838 L 12432,5121 12397,5121 12397,4838 12432,4838 Z M 12432,5227 L 12432,5509 12397,5509 12397,5227 12432,5227 Z M 12432,5615 L 12432,5898 12397,5898 12397,5615 12432,5615 Z M 12432,6004 L 12432,6287 12397,6287 12397,6004 12432,6004 Z M 12432,6393 L 12432,6675 12397,6675 12397,6393 12432,6393 Z M 12432,6781 L 12432,7064 12397,7064 12397,6781 12432,6781 Z M 12432,7170 L 12432,7453 12397,7453 12397,7170 12432,7170 Z M 12432,7559 L 12432,7841 12397,7841 12397,7559 12432,7559 Z M 12432,7947 L 12432,8230 12397,8230 12397,7947 12432,7947 Z M 12432,8336 L 12432,8619 12397,8619 12397,8336 12432,8336 Z M 12432,8725 L 12432,9007 12397,9007 12397,8725 12432,8725 Z M 12432,9113 L 12432,9396 12397,9396 12397,9113 12432,9113 Z M 12432,9502 L 12432,9537 12414,9520 12662,9520 12662,9555 12397,9555 12397,9502 12432,9502 Z M 12768,9520 L 13050,9520 13050,9555 12768,9555 12768,9520 Z M 13156,9520 L 13439,9520 13439,9555 13156,9555 13156,9520 Z M 13545,9520 L 13828,9520 13828,9555 13545,9555 13545,9520 Z M 13934,9520 L 14216,9520 14216,9555 13934,9555 13934,9520 Z M 14322,9520 L 14605,9520 14605,9555 14322,9555 14322,9520 Z M 14711,9520 L 14994,9520 14994,9555 14711,9555 14711,9520 Z M 15100,9520 L 15382,9520 15382,9555 15100,9555 15100,9520 Z M 15488,9520 L 15771,9520 15771,9555 15488,9555 15488,9520 Z M 15877,9520 L 16160,9520 16160,9555 15877,9555 15877,9520 Z M 16212,9502 L 16212,9219 16247,9219 16247,9502 16212,9502 Z M 16212,9113 L 16212,8831 16247,8831 16247,9113 16212,9113 Z M 16212,8725 L 16212,8442 16247,8442 16247,8725 16212,8725 Z M 16212,8336 L 16212,8053 16247,8053 16247,8336 16212,8336 Z M 16212,7947 L 16212,7665 16247,7665 16247,7947 16212,7947 Z M 16212,7559 L 16212,7276 16247,7276 16247,7559 16212,7559 Z M 16212,7170 L 16212,6887 16247,6887 16247,7170 16212,7170 Z M 16212,6781 L 16212,6499 16247,6499 16247,6781 16212,6781 Z M 16212,6393 L 16212,6110 16247,6110 16247,6393 16212,6393 Z M 16212,6004 L 16212,5721 16247,5721 16247,6004 16212,6004 Z M 16212,5615 L 16212,5333 16247,5333 16247,5615 16212,5615 Z M 16212,5227 L 16212,4944 16247,4944 16247,5227 16212,5227 Z M 16212,4838 L 16212,4555 16247,4555 16247,4838 16212,4838 Z M 16212,4449 L 16212,4167 16247,4167 16247,4449 16212,4449 Z M 16212,4061 L 16212,3778 16247,3778 16247,4061 16212,4061 Z M 16212,3672 L 16212,3389 16247,3389 16247,3672 16212,3672 Z M 16212,3283 L 16212,3001 16247,3001 16247,3283 16212,3283 Z M 16212,2895 L 16212,2612 16247,2612 16247,2895 16212,2895 Z M 16212,2506 L 16212,2223 16247,2223 16247,2506 16212,2506 Z M 16212,2117 L 16212,1835 16247,1835 16247,2117 16212,2117 Z M 16212,1729 L 16212,1446 16247,1446 16247,1729 16212,1729 Z M 16212,1341 L 16212,1269 16247,1269 16247,1341 16212,1341 Z"/>
 </g>
 <g fill="rgb(0,0,0)" stroke="none" font-family="Tahoma" font-size="496" font-style="normal" font-weight="400">
  <text x="13925" y="5600">
   <tspan x="13925 14184 14472">FTL</tspan></text>
 </g>
 <g fill="rgb(129,138,143)" stroke="none" font-family="Arial" font-size="424" font-style="normal" font-weight="400">
  <text x="11607" y="10955">
   <tspan x="11607 11887 12218">XOR</tspan></text>
  <text fill="rgb(129,138,143)" stroke="none" x="11412" y="11460">
   <tspan x="11412 11696 11933 12166 12255 12488">Engine</tspan></text>
  <path fill="rgb(129,138,143)" stroke="none" d="M 12061,10244 C 11242,10244 10578,10599 10578,11039 10578,11478 11242,11834 12061,11834 12880,11834 13545,11478 13545,11039 13545,10599 12880,10244 12061,10244 Z"/>
  <path fill="rgb(255,204,153)" stroke="none" d="M 11990,10173 C 11171,10173 10507,10529 10507,10968 10507,11407 11171,11763 11990,11763 12810,11763 13474,11407 13474,10968 13474,10529 12810,10173 11990,10173 Z"/>
  <path stroke-width="26" fill="none" stroke="rgb(0,0,0)" d="M 11990,10173 C 11171,10173 10507,10529 10507,10968 10507,11407 11171,11763 11990,11763 12810,11763 13474,11407 13474,10968 13474,10529 12810,10173 11990,10173 Z"/>
  <text fill="rgb(0,0,0)" stroke="none" x="11535" y="10883">
   <tspan x="11535 11815 12146">XOR</tspan></text>
  <text fill="rgb(0,0,0)" stroke="none" x="11340" y="11387">
   <tspan x="11340 11624 11861 12094 12183 12416">Engine</tspan></text>
  <text fill="rgb(129,138,143)" stroke="none" x="13010" y="12227">
   <tspan x="13010 13247 13340 13552">List</tspan></text>
  <text fill="rgb(129,138,143)" stroke="none" x="12683" y="12731">
   <tspan x="12683 12967 13204 13437 13526 13759">Engine</tspan></text>
  <path fill="rgb(129,138,143)" stroke="none" d="M 13333,11516 C 12513,11516 11849,11871 11849,12311 11849,12749 12513,13106 13333,13106 14152,13106 14817,12749 14817,12311 14817,11871 14152,11516 13333,11516 Z"/>
  <path fill="rgb(255,204,153)" stroke="none" d="M 13262,11445 C 12443,11445 11778,11801 11778,12240 11778,12679 12443,13035 13262,13035 14082,13035 14746,12679 14746,12240 14746,11801 14082,11445 13262,11445 Z"/>
  <path stroke-width="26" fill="none" stroke="rgb(0,0,0)" d="M 13262,11445 C 12443,11445 11778,11801 11778,12240 11778,12679 12443,13035 13262,13035 14082,13035 14746,12679 14746,12240 14746,11801 14082,11445 13262,11445 Z"/>
  <text fill="rgb(0,0,0)" stroke="none" x="12938" y="12155">
   <tspan x="12938 13175 13268 13480">List</tspan></text>
  <text fill="rgb(0,0,0)" stroke="none" x="12611" y="12659">
   <tspan x="12611 12895 13132 13365 13454 13687">Engine</tspan></text>
  <text fill="rgb(129,138,143)" stroke="none" x="8003" y="10955">
   <tspan x="8003 8287 8520 8639 8758 8995">Buffer</tspan></text>
  <text fill="rgb(129,138,143)" stroke="none" x="7957" y="11460">
   <tspan x="7957 8241 8546 8830">SRAM</tspan></text>
  <path fill="rgb(129,138,143)" stroke="none" d="M 8564,10244 C 7744,10244 7080,10599 7080,11039 7080,11478 7744,11834 8564,11834 9383,11834 10048,11478 10048,11039 10048,10599 9383,10244 8564,10244 Z"/>
  <path fill="rgb(255,204,153)" stroke="none" d="M 8493,10173 C 7674,10173 7009,10529 7009,10968 7009,11407 7674,11763 8493,11763 9313,11763 9977,11407 9977,10968 9977,10529 9313,10173 8493,10173 Z"/>
  <path stroke-width="26" fill="none" stroke="rgb(0,0,0)" d="M 8493,10173 C 7674,10173 7009,10529 7009,10968 7009,11407 7674,11763 8493,11763 9313,11763 9977,11407 9977,10968 9977,10529 9313,10173 8493,10173 Z"/>
  <text fill="rgb(0,0,0)" stroke="none" x="7931" y="10883">
   <tspan x="7931 8215 8448 8567 8686 8923">Buffer</tspan></text>
  <text fill="rgb(0,0,0)" stroke="none" x="7885" y="11387">
   <tspan x="7885 8169 8474 8758">SRAM</tspan></text>
 </g>
 <g fill="rgb(0,0,0)" stroke="none" font-family="Tahoma" font-size="496" font-style="normal" font-weight="400">
  <text x="10966" y="13974">
   <tspan x="10966 11301 11560 11738 12014 12383 12642 12820 13079 13236 13533 13762 13991 14254 14364 14627 14805 15064 15225 15496 15674">Hardware Accelerators</tspan></text>
 </g>
 <g fill="rgb(129,138,143)" stroke="none" font-family="Arial" font-size="424" font-style="normal" font-weight="400">
  <text x="14362" y="10955">
   <tspan x="14362 14646 14879 14998 15117 15354">Buffer</tspan></text>
  <text fill="rgb(129,138,143)" stroke="none" x="14095" y="11460">
   <tspan x="14095 14447 14684 14917 15154 15383 15620">Manager</tspan></text>
  <path fill="rgb(129,138,143)" stroke="none" d="M 14923,10244 C 14103,10244 13439,10600 13439,11039 13439,11478 14103,11834 14923,11834 15742,11834 16406,11478 16406,11039 16406,10600 15742,10244 14923,10244 Z"/>
  <path fill="rgb(255,204,153)" stroke="none" d="M 14852,10173 C 14032,10173 13368,10529 13368,10968 13368,11408 14032,11763 14852,11763 15672,11763 16335,11408 16335,10968 16335,10529 15672,10173 14852,10173 Z"/>
  <path stroke-width="26" fill="none" stroke="rgb(0,0,0)" d="M 14852,10173 C 14032,10173 13368,10529 13368,10968 13368,11408 14032,11763 14852,11763 15672,11763 16335,11408 16335,10968 16335,10529 15672,10173 14852,10173 Z"/>
  <text fill="rgb(0,0,0)" stroke="none" x="14290" y="10883">
   <tspan x="14290 14574 14807 14926 15045 15282">Buffer</tspan></text>
  <text fill="rgb(0,0,0)" stroke="none" x="14023" y="11387">
   <tspan x="14023 14375 14612 14845 15082 15311 15548">Manager</tspan></text>
  <text fill="rgb(129,138,143)" stroke="none" x="13480" y="5549">
   <tspan x="13480 13832 14069 14302 14539 14628 14865">Mapping</tspan></text>
  <text fill="rgb(129,138,143)" stroke="none" x="13459" y="6054">
   <tspan x="13459 13811 14048 14281 14518 14747 14984">Manager</tspan></text>
  <path fill="rgb(129,138,143)" stroke="none" d="M 14287,4838 C 13468,4838 12803,5194 12803,5633 12803,6072 13468,6428 14287,6428 15106,6428 15771,6072 15771,5633 15771,5194 15106,4838 14287,4838 Z"/>
  <path fill="rgb(204,255,255)" stroke="none" d="M 14216,4767 C 13397,4767 12732,5123 12732,5562 12732,6002 13397,6357 14216,6357 15036,6357 15700,6002 15700,5562 15700,5123 15036,4767 14216,4767 Z"/>
  <path stroke-width="26" fill="none" stroke="rgb(0,0,0)" d="M 14216,4767 C 13397,4767 12732,5123 12732,5562 12732,6002 13397,6357 14216,6357 15036,6357 15700,6002 15700,5562 15700,5123 15036,4767 14216,4767 Z"/>
  <text fill="rgb(0,0,0)" stroke="none" x="13408" y="5477">
   <tspan x="13408 13760 13997 14230 14467 14556 14793">Mapping</tspan></text>
  <text fill="rgb(0,0,0)" stroke="none" x="13387" y="5982">
   <tspan x="13387 13739 13976 14209 14446 14675 14912">Manager</tspan></text>
  <text fill="rgb(129,138,143)" stroke="none" x="13480" y="5867">
   <tspan x="13480 13832 14069 14302 14539 14628 14865">Mapping</tspan></text>
  <text fill="rgb(129,138,143)" stroke="none" x="13459" y="6372">
   <tspan x="13459 13811 14048 14281 14518 14747 14984">Manager</tspan></text>
  <path fill="rgb(129,138,143)" stroke="none" d="M 14287,5156 C 13468,5156 12803,5512 12803,5951 12803,6390 13468,6746 14287,6746 15106,6746 15771,6390 15771,5951 15771,5512 15106,5156 14287,5156 Z"/>
  <path fill="rgb(204,255,255)" stroke="none" d="M 14216,5085 C 13397,5085 12732,5441 12732,5880 12732,6320 13397,6675 14216,6675 15036,6675 15700,6320 15700,5880 15700,5441 15036,5085 14216,5085 Z"/>
  <path stroke-width="26" fill="none" stroke="rgb(0,0,0)" d="M 14216,5085 C 13397,5085 12732,5441 12732,5880 12732,6320 13397,6675 14216,6675 15036,6675 15700,6320 15700,5880 15700,5441 15036,5085 14216,5085 Z"/>
  <text fill="rgb(0,0,0)" stroke="none" x="13408" y="5795">
   <tspan x="13408 13760 13997 14230 14467 14556 14793">Mapping</tspan></text>
  <text fill="rgb(0,0,0)" stroke="none" x="13387" y="6300">
   <tspan x="13387 13739 13976 14209 14446 14675 14912">Manager</tspan></text>
  <text fill="rgb(129,138,143)" stroke="none" x="13480" y="6185">
   <tspan x="13480 13832 14069 14302 14539 14628 14865">Mapping</tspan></text>
  <text fill="rgb(129,138,143)" stroke="none" x="13459" y="6690">
   <tspan x="13459 13811 14048 14281 14518 14747 14984">Manager</tspan></text>
  <path fill="rgb(129,138,143)" stroke="none" d="M 14287,5474 C 13468,5474 12803,5830 12803,6269 12803,6708 13468,7064 14287,7064 15106,7064 15771,6708 15771,6269 15771,5830 15106,5474 14287,5474 Z"/>
  <path fill="rgb(204,255,255)" stroke="none" d="M 14216,5403 C 13397,5403 12732,5759 12732,6198 12732,6638 13397,6993 14216,6993 15036,6993 15700,6638 15700,6198 15700,5759 15036,5403 14216,5403 Z"/>
  <path stroke-width="26" fill="none" stroke="rgb(0,0,0)" d="M 14216,5403 C 13397,5403 12732,5759 12732,6198 12732,6638 13397,6993 14216,6993 15036,6993 15700,6638 15700,6198 15700,5759 15036,5403 14216,5403 Z"/>
  <text fill="rgb(0,0,0)" stroke="none" x="13408" y="6113">
   <tspan x="13408 13760 13997 14230 14467 14556 14793">Mapping</tspan></text>
  <text fill="rgb(0,0,0)" stroke="none" x="13387" y="6618">
   <tspan x="13387 13739 13976 14209 14446 14675 14912">Manager</tspan></text>
  <text fill="rgb(129,138,143)" stroke="none" x="13480" y="6503">
   <tspan x="13480 13832 14069 14302 14539 14628 14865">Mapping</tspan></text>
  <text fill="rgb(129,138,143)" stroke="none" x="13459" y="7008">
   <tspan x="13459 13811 14048 14281 14518 14747 14984">Manager</tspan></text>
  <path fill="rgb(129,138,143)" stroke="none" d="M 14287,5792 C 13468,5792 12803,6148 12803,6587 12803,7026 13468,7382 14287,7382 15106,7382 15771,7026 15771,6587 15771,6148 15106,5792 14287,5792 Z"/>
  <path fill="rgb(204,255,255)" stroke="none" d="M 14216,5721 C 13397,5721 12732,6077 12732,6516 12732,6956 13397,7311 14216,7311 15036,7311 15700,6956 15700,6516 15700,6077 15036,5721 14216,5721 Z"/>
  <path stroke-width="26" fill="none" stroke="rgb(0,0,0)" d="M 14216,5721 C 13397,5721 12732,6077 12732,6516 12732,6956 13397,7311 14216,7311 15036,7311 15700,6956 15700,6516 15700,6077 15036,5721 14216,5721 Z"/>
  <text fill="rgb(0,0,0)" stroke="none" x="13408" y="6431">
   <tspan x="13408 13760 13997 14230 14467 14556 14793">Mapping</tspan></text>
  <text fill="rgb(0,0,0)" stroke="none" x="13387" y="6936">
   <tspan x="13387 13739 13976 14209 14446 14675 14912">Manager</tspan></text>
  <text fill="rgb(129,138,143)" stroke="none" x="13921" y="2370">
   <tspan x="13921 14133 14366 14603 14743 14976 15213">Journal</tspan></text>
  <text fill="rgb(129,138,143)" stroke="none" x="13777" y="2874">
   <tspan x="13777 14129 14366 14599 14836 15065 15302">Manager</tspan></text>
  <path fill="rgb(129,138,143)" stroke="none" d="M 14605,1658 C 13786,1658 13121,2015 13121,2453 13121,2892 13786,3248 14605,3248 15424,3248 16088,2892 16088,2453 16088,2015 15424,1658 14605,1658 Z"/>
  <path fill="rgb(204,255,255)" stroke="none" d="M 14534,1587 C 13715,1587 13050,1944 13050,2382 13050,2822 13715,3177 14534,3177 15354,3177 16017,2822 16017,2382 16017,1944 15354,1587 14534,1587 Z"/>
  <path stroke-width="26" fill="none" stroke="rgb(0,0,0)" d="M 14534,1587 C 13715,1587 13050,1944 13050,2382 13050,2822 13715,3177 14534,3177 15354,3177 16017,2822 16017,2382 16017,1944 15354,1587 14534,1587 Z"/>
  <text fill="rgb(0,0,0)" stroke="none" x="13849" y="2298">
   <tspan x="13849 14061 14294 14531 14671 14904 15141">Journal</tspan></text>
  <text fill="rgb(0,0,0)" stroke="none" x="13705" y="2802">
   <tspan x="13705 14057 14294 14527 14764 14993 15230">Manager</tspan></text>
  <text fill="rgb(129,138,143)" stroke="none" x="14091" y="3960">
   <tspan x="14091 14375 14468 14705 14917">Block</tspan></text>
  <text fill="rgb(129,138,143)" stroke="none" x="13777" y="4464">
   <tspan x="13777 14129 14366 14599 14836 15065 15302">Manager</tspan></text>
  <path fill="rgb(129,138,143)" stroke="none" d="M 14605,3248 C 13786,3248 13121,3604 13121,4043 13121,4482 13786,4838 14605,4838 15424,4838 16088,4482 16088,4043 16088,3604 15424,3248 14605,3248 Z"/>
  <path fill="rgb(204,255,255)" stroke="none" d="M 14534,3177 C 13715,3177 13050,3533 13050,3972 13050,4412 13715,4767 14534,4767 15354,4767 16017,4412 16017,3972 16017,3533 15354,3177 14534,3177 Z"/>
  <path stroke-width="26" fill="none" stroke="rgb(0,0,0)" d="M 14534,3177 C 13715,3177 13050,3533 13050,3972 13050,4412 13715,4767 14534,4767 15354,4767 16017,4412 16017,3972 16017,3533 15354,3177 14534,3177 Z"/>
  <text fill="rgb(0,0,0)" stroke="none" x="14019" y="3887">
   <tspan x="14019 14303 14396 14633 14845">Block</tspan></text>
  <text fill="rgb(0,0,0)" stroke="none" x="13705" y="4392">
   <tspan x="13705 14057 14294 14527 14764 14993 15230">Manager</tspan></text>
  <text fill="rgb(129,138,143)" stroke="none" x="13722" y="8093">
   <tspan x="13722 14027 14264 14472 14709 14917 15154 15294">Recovery</tspan></text>
  <text fill="rgb(129,138,143)" stroke="none" x="13777" y="8598">
   <tspan x="13777 14129 14366 14599 14836 15065 15302">Manager</tspan></text>
  <path fill="rgb(129,138,143)" stroke="none" d="M 14605,7382 C 13786,7382 13121,7738 13121,8177 13121,8616 13786,8972 14605,8972 15424,8972 16088,8616 16088,8177 16088,7738 15424,7382 14605,7382 Z"/>
  <path fill="rgb(204,255,255)" stroke="none" d="M 14534,7311 C 13715,7311 13050,7667 13050,8106 13050,8546 13715,8901 14534,8901 15354,8901 16017,8546 16017,8106 16017,7667 15354,7311 14534,7311 Z"/>
  <path stroke-width="26" fill="none" stroke="rgb(0,0,0)" d="M 14534,7311 C 13715,7311 13050,7667 13050,8106 13050,8546 13715,8901 14534,8901 15354,8901 16017,8546 16017,8106 16017,7667 15354,7311 14534,7311 Z"/>
  <text fill="rgb(0,0,0)" stroke="none" x="13650" y="8021">
   <tspan x="13650 13955 14192 14400 14637 14845 15082 15222">Recovery</tspan></text>
  <text fill="rgb(0,0,0)" stroke="none" x="13705" y="8526">
   <tspan x="13705 14057 14294 14527 14764 14993 15230">Manager</tspan></text>
  <text fill="rgb(129,138,143)" stroke="none" x="13722" y="8411">
   <tspan x="13722 14027 14264 14472 14709 14917 15154 15294">Recovery</tspan></text>
  <text fill="rgb(129,138,143)" stroke="none" x="13777" y="8916">
   <tspan x="13777 14129 14366 14599 14836 15065 15302">Manager</tspan></text>
  <path fill="rgb(129,138,143)" stroke="none" d="M 14605,7700 C 13786,7700 13121,8056 13121,8495 13121,8934 13786,9290 14605,9290 15424,9290 16088,8934 16088,8495 16088,8056 15424,7700 14605,7700 Z"/>
  <path fill="rgb(204,255,255)" stroke="none" d="M 14534,7629 C 13715,7629 13050,7985 13050,8424 13050,8864 13715,9219 14534,9219 15354,9219 16017,8864 16017,8424 16017,7985 15354,7629 14534,7629 Z"/>
  <path stroke-width="26" fill="none" stroke="rgb(0,0,0)" d="M 14534,7629 C 13715,7629 13050,7985 13050,8424 13050,8864 13715,9219 14534,9219 15354,9219 16017,8864 16017,8424 16017,7985 15354,7629 14534,7629 Z"/>
  <text fill="rgb(0,0,0)" stroke="none" x="13650" y="8339">
   <tspan x="13650 13955 14192 14400 14637 14845 15082 15222">Recovery</tspan></text>
  <text fill="rgb(0,0,0)" stroke="none" x="13705" y="8844">
   <tspan x="13705 14057 14294 14527 14764 14993 15230">Manager</tspan></text>
 </g>
 <g fill="rgb(129,138,143)" stroke="none" font-family="Tahoma" font-size="496" font-style="normal" font-weight="400">
  <text x="12332" y="6363">1</text>
  <path fill="rgb(129,138,143)" stroke="none" d="M 12459,5845 C 12283,5845 12141,5987 12141,6163 12141,6339 12283,6481 12459,6481 12634,6481 12777,6339 12777,6163 12777,5987 12634,5845 12459,5845 Z"/>
  <path fill="rgb(255,255,255)" stroke="none" d="M 12388,5774 C 12212,5774 12070,5917 12070,6092 12070,6268 12212,6410 12388,6410 12564,6410 12706,6268 12706,6092 12706,5917 12564,5774 12388,5774 Z"/>
  <path stroke-width="36" fill="none" stroke="rgb(255,0,0)" d="M 12388,5774 C 12212,5774 12070,5917 12070,6092 12070,6268 12212,6410 12388,6410 12564,6410 12706,6268 12706,6092 12706,5917 12564,5774 12388,5774 Z"/>
  <text fill="rgb(0,0,0)" stroke="none" x="12259" y="6291">1</text>
  <path fill="rgb(153,204,255)" stroke="none" d="M 10189,9855 L 10189,13353 16547,13353 16547,9855 10189,9855 Z"/>
  <path fill="none" stroke="none" d="M 10189,9855 L 10189,13353 16547,13353 16547,9855 10189,9855 Z"/>
  <path stroke-width="35" fill="none" stroke="rgb(0,0,0)" d="M 10189,9855 L 10189,13353 16547,13353 16547,9855 10189,9855 Z"/>
  <rect fill="rgb(192,192,192)" stroke="none" x="3828" y="949" width="12722" height="8908"/>
  <rect fill="rgb(127,127,127)" stroke="none" x="3830" y="952" width="12719" height="8904"/>
  <rect fill="rgb(192,192,192)" stroke="none" x="3828" y="949" width="12722" height="8908"/>
  <path fill="none" stroke="none" d="M 3830,952 L 3830,9855 16547,9855 16547,952 3830,952 Z"/>
  <path stroke-width="35" fill="none" stroke="rgb(0,0,0)" d="M 3830,952 L 3830,9855 16547,9855 16547,952 3830,952 Z"/>
 </g>
 <g fill="rgb(129,138,143)" stroke="none" font-family="Arial" font-size="424" font-style="normal" font-weight="400">
  <text x="5239" y="8729">
   <tspan x="5239 5523 5828 5947">PCIe</tspan></text>
  <text fill="rgb(129,138,143)" stroke="none" x="4875" y="9234">
   <tspan x="4875 5227 5464 5697 5934 6163 6400">Manager</tspan></text>
  <path fill="rgb(129,138,143)" stroke="none" d="M 5702,8018 C 4883,8018 4219,8374 4219,8813 4219,9252 4883,9608 5702,9608 6522,9608 7186,9252 7186,8813 7186,8374 6522,8018 5702,8018 Z"/>
  <path fill="rgb(204,255,255)" stroke="none" d="M 5631,7947 C 4812,7947 4148,8303 4148,8742 4148,9181 4812,9537 5631,9537 6451,9537 7115,9181 7115,8742 7115,8303 6451,7947 5631,7947 Z"/>
  <path stroke-width="26" fill="none" stroke="rgb(0,0,0)" d="M 5631,7947 C 4812,7947 4148,8303 4148,8742 4148,9181 4812,9537 5631,9537 6451,9537 7115,9181 7115,8742 7115,8303 6451,7947 5631,7947 Z"/>
  <text fill="rgb(0,0,0)" stroke="none" x="5167" y="8657">
   <tspan x="5167 5451 5756 5875">PCIe</tspan></text>
  <text fill="rgb(0,0,0)" stroke="none" x="4803" y="9162">
   <tspan x="4803 5155 5392 5625 5862 6091 6328">Manager</tspan></text>
  <text fill="rgb(129,138,143)" stroke="none" x="5214" y="4913">
   <tspan x="5214 5519 5756 5870 6107">Datal</tspan></text>
  <text fill="rgb(129,138,143)" stroke="none" x="4875" y="5418">
   <tspan x="4875 5227 5464 5697 5934 6163 6400">Manager</tspan></text>
  <path fill="rgb(129,138,143)" stroke="none" d="M 5702,4202 C 4883,4202 4219,4558 4219,4997 4219,5436 4883,5792 5702,5792 6522,5792 7186,5436 7186,4997 7186,4558 6522,4202 5702,4202 Z"/>
  <path fill="rgb(204,255,255)" stroke="none" d="M 5631,4131 C 4812,4131 4148,4487 4148,4926 4148,5366 4812,5721 5631,5721 6451,5721 7115,5366 7115,4926 7115,4487 6451,4131 5631,4131 Z"/>
  <path stroke-width="26" fill="none" stroke="rgb(0,0,0)" d="M 5631,4131 C 4812,4131 4148,4487 4148,4926 4148,5366 4812,5721 5631,5721 6451,5721 7115,5366 7115,4926 7115,4487 6451,4131 5631,4131 Z"/>
  <text fill="rgb(0,0,0)" stroke="none" x="5142" y="4841">
   <tspan x="5142 5447 5684 5798 6035">Datal</tspan></text>
  <text fill="rgb(0,0,0)" stroke="none" x="4803" y="5346">
   <tspan x="4803 5155 5392 5625 5862 6091 6328">Manager</tspan></text>
  <text fill="rgb(129,138,143)" stroke="none" x="5214" y="5231">
   <tspan x="5214 5519 5756 5870 6107">Datal</tspan></text>
  <text fill="rgb(129,138,143)" stroke="none" x="4875" y="5736">
   <tspan x="4875 5227 5464 5697 5934 6163 6400">Manager</tspan></text>
  <path fill="rgb(129,138,143)" stroke="none" d="M 5702,4520 C 4883,4520 4219,4876 4219,5315 4219,5754 4883,6110 5702,6110 6522,6110 7186,5754 7186,5315 7186,4876 6522,4520 5702,4520 Z"/>
  <path fill="rgb(204,255,255)" stroke="none" d="M 5631,4449 C 4812,4449 4148,4805 4148,5244 4148,5684 4812,6039 5631,6039 6451,6039 7115,5684 7115,5244 7115,4805 6451,4449 5631,4449 Z"/>
  <path stroke-width="26" fill="none" stroke="rgb(0,0,0)" d="M 5631,4449 C 4812,4449 4148,4805 4148,5244 4148,5684 4812,6039 5631,6039 6451,6039 7115,5684 7115,5244 7115,4805 6451,4449 5631,4449 Z"/>
  <text fill="rgb(0,0,0)" stroke="none" x="5142" y="5159">
   <tspan x="5142 5447 5684 5798 6035">Datal</tspan></text>
  <text fill="rgb(0,0,0)" stroke="none" x="4803" y="5664">
   <tspan x="4803 5155 5392 5625 5862 6091 6328">Manager</tspan></text>
  <text fill="rgb(129,138,143)" stroke="none" x="5214" y="5549">
   <tspan x="5214 5519 5756 5870 6107">Datal</tspan></text>
  <text fill="rgb(129,138,143)" stroke="none" x="4875" y="6054">
   <tspan x="4875 5227 5464 5697 5934 6163 6400">Manager</tspan></text>
  <path fill="rgb(129,138,143)" stroke="none" d="M 5702,4838 C 4883,4838 4219,5194 4219,5633 4219,6072 4883,6428 5702,6428 6522,6428 7186,6072 7186,5633 7186,5194 6522,4838 5702,4838 Z"/>
  <path fill="rgb(204,255,255)" stroke="none" d="M 5631,4767 C 4812,4767 4148,5123 4148,5562 4148,6001 4812,6357 5631,6357 6451,6357 7115,6001 7115,5562 7115,5123 6451,4767 5631,4767 Z"/>
  <path stroke-width="26" fill="none" stroke="rgb(0,0,0)" d="M 5631,4767 C 4812,4767 4148,5123 4148,5562 4148,6001 4812,6357 5631,6357 6451,6357 7115,6001 7115,5562 7115,5123 6451,4767 5631,4767 Z"/>
  <text fill="rgb(0,0,0)" stroke="none" x="5142" y="5477">
   <tspan x="5142 5447 5684 5798 6035">Datal</tspan></text>
  <text fill="rgb(0,0,0)" stroke="none" x="4803" y="5982">
   <tspan x="4803 5155 5392 5625 5862 6091 6328">Manager</tspan></text>
  <text fill="rgb(129,138,143)" stroke="none" x="5261" y="5867">
   <tspan x="5261 5566 5803 5917">Data</tspan></text>
  <text fill="rgb(129,138,143)" stroke="none" x="4875" y="6372">
   <tspan x="4875 5227 5464 5697 5934 6163 6400">Manager</tspan></text>
  <path fill="rgb(129,138,143)" stroke="none" d="M 5702,5156 C 4883,5156 4219,5512 4219,5951 4219,6390 4883,6746 5702,6746 6522,6746 7186,6390 7186,5951 7186,5512 6522,5156 5702,5156 Z"/>
  <path fill="rgb(204,255,255)" stroke="none" d="M 5631,5085 C 4812,5085 4148,5441 4148,5880 4148,6319 4812,6675 5631,6675 6451,6675 7115,6319 7115,5880 7115,5441 6451,5085 5631,5085 Z"/>
  <path stroke-width="26" fill="none" stroke="rgb(0,0,0)" d="M 5631,5085 C 4812,5085 4148,5441 4148,5880 4148,6319 4812,6675 5631,6675 6451,6675 7115,6319 7115,5880 7115,5441 6451,5085 5631,5085 Z"/>
  <text fill="rgb(0,0,0)" stroke="none" x="5188" y="5795">
   <tspan x="5188 5493 5730 5844">Data</tspan></text>
  <text fill="rgb(0,0,0)" stroke="none" x="4803" y="6300">
   <tspan x="4803 5155 5392 5625 5862 6091 6328">Manager</tspan></text>
  <text fill="rgb(129,138,143)" stroke="none" x="5214" y="4913">
   <tspan x="5214 5519 5756 5870 6107">Datal</tspan></text>
  <text fill="rgb(129,138,143)" stroke="none" x="4875" y="5418">
   <tspan x="4875 5227 5464 5697 5934 6163 6400">Manager</tspan></text>
  <path fill="rgb(129,138,143)" stroke="none" d="M 5702,4202 C 4883,4202 4219,4558 4219,4997 4219,5436 4883,5792 5702,5792 6522,5792 7186,5436 7186,4997 7186,4558 6522,4202 5702,4202 Z"/>
  <path fill="rgb(204,255,255)" stroke="none" d="M 5631,4131 C 4812,4131 4148,4487 4148,4926 4148,5366 4812,5721 5631,5721 6451,5721 7115,5366 7115,4926 7115,4487 6451,4131 5631,4131 Z"/>
  <path stroke-width="26" fill="none" stroke="rgb(0,0,0)" d="M 5631,4131 C 4812,4131 4148,4487 4148,4926 4148,5366 4812,5721 5631,5721 6451,5721 7115,5366 7115,4926 7115,4487 6451,4131 5631,4131 Z"/>
  <text fill="rgb(0,0,0)" stroke="none" x="5142" y="4841">
   <tspan x="5142 5447 5684 5798 6035">Datal</tspan></text>
  <text fill="rgb(0,0,0)" stroke="none" x="4803" y="5346">
   <tspan x="4803 5155 5392 5625 5862 6091 6328">Manager</tspan></text>
  <text fill="rgb(129,138,143)" stroke="none" x="5214" y="5231">
   <tspan x="5214 5519 5756 5870 6107">Datal</tspan></text>
  <text fill="rgb(129,138,143)" stroke="none" x="4875" y="5736">
   <tspan x="4875 5227 5464 5697 5934 6163 6400">Manager</tspan></text>
  <path fill="rgb(129,138,143)" stroke="none" d="M 5702,4520 C 4883,4520 4219,4876 4219,5315 4219,5754 4883,6110 5702,6110 6522,6110 7186,5754 7186,5315 7186,4876 6522,4520 5702,4520 Z"/>
  <path fill="rgb(204,255,255)" stroke="none" d="M 5631,4449 C 4812,4449 4148,4805 4148,5244 4148,5684 4812,6039 5631,6039 6451,6039 7115,5684 7115,5244 7115,4805 6451,4449 5631,4449 Z"/>
  <path stroke-width="26" fill="none" stroke="rgb(0,0,0)" d="M 5631,4449 C 4812,4449 4148,4805 4148,5244 4148,5684 4812,6039 5631,6039 6451,6039 7115,5684 7115,5244 7115,4805 6451,4449 5631,4449 Z"/>
  <text fill="rgb(0,0,0)" stroke="none" x="5142" y="5159">
   <tspan x="5142 5447 5684 5798 6035">Datal</tspan></text>
  <text fill="rgb(0,0,0)" stroke="none" x="4803" y="5664">
   <tspan x="4803 5155 5392 5625 5862 6091 6328">Manager</tspan></text>
  <text fill="rgb(129,138,143)" stroke="none" x="5214" y="5549">
   <tspan x="5214 5519 5756 5870 6107">Datal</tspan></text>
  <text fill="rgb(129,138,143)" stroke="none" x="4875" y="6054">
   <tspan x="4875 5227 5464 5697 5934 6163 6400">Manager</tspan></text>
  <path fill="rgb(129,138,143)" stroke="none" d="M 5702,4838 C 4883,4838 4219,5194 4219,5633 4219,6072 4883,6428 5702,6428 6522,6428 7186,6072 7186,5633 7186,5194 6522,4838 5702,4838 Z"/>
  <path fill="rgb(204,255,255)" stroke="none" d="M 5631,4767 C 4812,4767 4148,5123 4148,5562 4148,6001 4812,6357 5631,6357 6451,6357 7115,6001 7115,5562 7115,5123 6451,4767 5631,4767 Z"/>
  <path stroke-width="26" fill="none" stroke="rgb(0,0,0)" d="M 5631,4767 C 4812,4767 4148,5123 4148,5562 4148,6001 4812,6357 5631,6357 6451,6357 7115,6001 7115,5562 7115,5123 6451,4767 5631,4767 Z"/>
  <text fill="rgb(0,0,0)" stroke="none" x="5142" y="5477">
   <tspan x="5142 5447 5684 5798 6035">Datal</tspan></text>
  <text fill="rgb(0,0,0)" stroke="none" x="4803" y="5982">
   <tspan x="4803 5155 5392 5625 5862 6091 6328">Manager</tspan></text>
  <text fill="rgb(129,138,143)" stroke="none" x="5261" y="5867">
   <tspan x="5261 5566 5803 5917">Data</tspan></text>
  <text fill="rgb(129,138,143)" stroke="none" x="4875" y="6372">
   <tspan x="4875 5227 5464 5697 5934 6163 6400">Manager</tspan></text>
  <path fill="rgb(129,138,143)" stroke="none" d="M 5702,5156 C 4883,5156 4219,5512 4219,5951 4219,6390 4883,6746 5702,6746 6522,6746 7186,6390 7186,5951 7186,5512 6522,5156 5702,5156 Z"/>
  <path fill="rgb(204,255,255)" stroke="none" d="M 5631,5085 C 4812,5085 4148,5441 4148,5880 4148,6319 4812,6675 5631,6675 6451,6675 7115,6319 7115,5880 7115,5441 6451,5085 5631,5085 Z"/>
  <path stroke-width="26" fill="none" stroke="rgb(0,0,0)" d="M 5631,5085 C 4812,5085 4148,5441 4148,5880 4148,6319 4812,6675 5631,6675 6451,6675 7115,6319 7115,5880 7115,5441 6451,5085 5631,5085 Z"/>
  <text fill="rgb(0,0,0)" stroke="none" x="5188" y="5795">
   <tspan x="5188 5493 5730 5844">Data</tspan></text>
  <text fill="rgb(0,0,0)" stroke="none" x="4803" y="6300">
   <tspan x="4803 5155 5392 5625 5862 6091 6328">Manager</tspan></text>
  <path fill="rgb(153,204,255)" stroke="none" d="M 16547,952 L 16547,9855 20045,9855 20045,952 16547,952 Z"/>
  <path fill="none" stroke="none" d="M 16547,952 L 16547,9855 20045,9855 20045,952 16547,952 Z"/>
  <path stroke-width="35" fill="none" stroke="rgb(0,0,0)" d="M 16547,952 L 16547,9855 20045,9855 20045,952 16547,952 Z"/>
  <path fill="rgb(153,204,255)" stroke="none" d="M 15,952 L 15,9855 3830,9855 3830,952 15,952 Z"/>
  <path fill="none" stroke="none" d="M 15,952 L 15,9855 3830,9855 3830,952 15,952 Z"/>
  <path stroke-width="36" fill="none" stroke="rgb(0,0,0)" d="M 15,952 L 15,9855 3830,9855 3830,952 15,952 Z"/>
  <text fill="rgb(129,138,143)" stroke="none" x="474" y="2052">i</text>
  <text fill="rgb(129,138,143)" stroke="none" x="568" y="2052">-</text>
  <text fill="rgb(129,138,143)" stroke="none" x="708" y="2052">
   <tspan x="708 1013 1365 1649 1768 1887">DMA, e</tspan></text>
  <text fill="rgb(129,138,143)" stroke="none" x="2124" y="2052">-</text>
  <text fill="rgb(129,138,143)" stroke="none" x="2263" y="2052">
   <tspan x="2263 2568 2920">DMA</tspan></text>
  <text fill="rgb(129,138,143)" stroke="none" x="1009" y="2556">
   <tspan x="1009 1361 1598 1831 2068 2297 2534">Manager</tspan></text>
  <path fill="rgb(129,138,143)" stroke="none" d="M 1834,1340 C 1044,1340 403,1696 403,2135 403,2574 1044,2930 1834,2930 2624,2930 3265,2574 3265,2135 3265,1696 2624,1340 1834,1340 Z"/>
  <path fill="rgb(255,204,153)" stroke="none" d="M 1763,1269 C 973,1269 332,1626 332,2064 332,2503 973,2859 1763,2859 2554,2859 3194,2503 3194,2064 3194,1626 2554,1269 1763,1269 Z"/>
  <path stroke-width="26" fill="none" stroke="rgb(0,0,0)" d="M 1763,1269 C 973,1269 332,1626 332,2064 332,2503 973,2859 1763,2859 2554,2859 3194,2503 3194,2064 3194,1626 2554,1269 1763,1269 Z"/>
  <text fill="rgb(0,0,0)" stroke="none" x="402" y="1980">i</text>
  <text fill="rgb(0,0,0)" stroke="none" x="496" y="1980">-</text>
  <text fill="rgb(0,0,0)" stroke="none" x="636" y="1980">
   <tspan x="636 941 1293 1577 1696 1815">DMA, e</tspan></text>
  <text fill="rgb(0,0,0)" stroke="none" x="2051" y="1980">-</text>
  <text fill="rgb(0,0,0)" stroke="none" x="2191" y="1980">
   <tspan x="2191 2496 2848">DMA</tspan></text>
  <text fill="rgb(0,0,0)" stroke="none" x="937" y="2484">
   <tspan x="937 1289 1526 1759 1996 2225 2462">Manager</tspan></text>
  <text fill="rgb(129,138,143)" stroke="none" x="805" y="4278">
   <tspan x="805 1089 1322 1555 1911 2004 2216 2428 2517 2754">Submission</tspan></text>
  <text fill="rgb(129,138,143)" stroke="none" x="1059" y="4782">
   <tspan x="1059 1411 1648 1881 2118 2347 2584">Manager</tspan></text>
  <path fill="rgb(129,138,143)" stroke="none" d="M 1887,3566 C 1067,3566 403,3922 403,4361 403,4800 1067,5156 1887,5156 2706,5156 3371,4800 3371,4361 3371,3922 2706,3566 1887,3566 Z"/>
  <path fill="rgb(255,204,153)" stroke="none" d="M 1816,3495 C 997,3495 332,3851 332,4290 332,4730 997,5085 1816,5085 2636,5085 3300,4730 3300,4290 3300,3851 2636,3495 1816,3495 Z"/>
  <path stroke-width="26" fill="none" stroke="rgb(0,0,0)" d="M 1816,3495 C 997,3495 332,3851 332,4290 332,4730 997,5085 1816,5085 2636,5085 3300,4730 3300,4290 3300,3851 2636,3495 1816,3495 Z"/>
  <text fill="rgb(0,0,0)" stroke="none" x="733" y="4205">
   <tspan x="733 1017 1250 1483 1839 1932 2144 2356 2445 2682">Submission</tspan></text>
  <text fill="rgb(0,0,0)" stroke="none" x="987" y="4710">
   <tspan x="987 1339 1576 1809 2046 2275 2512">Manager</tspan></text>
  <text fill="rgb(129,138,143)" stroke="none" x="826" y="6503">
   <tspan x="826 1131 1364 1720 1953 2046 2283 2402 2491 2724">Completion</tspan></text>
  <text fill="rgb(129,138,143)" stroke="none" x="1059" y="7008">
   <tspan x="1059 1411 1648 1881 2118 2347 2584">Manager</tspan></text>
  <path fill="rgb(129,138,143)" stroke="none" d="M 1887,5792 C 1067,5792 403,6148 403,6587 403,7026 1067,7382 1887,7382 2706,7382 3371,7026 3371,6587 3371,6148 2706,5792 1887,5792 Z"/>
  <path fill="rgb(255,204,153)" stroke="none" d="M 1816,5721 C 997,5721 332,6077 332,6516 332,6955 997,7311 1816,7311 2636,7311 3300,6955 3300,6516 3300,6077 2636,5721 1816,5721 Z"/>
  <path stroke-width="26" fill="none" stroke="rgb(0,0,0)" d="M 1816,5721 C 997,5721 332,6077 332,6516 332,6955 997,7311 1816,7311 2636,7311 3300,6955 3300,6516 3300,6077 2636,5721 1816,5721 Z"/>
  <text fill="rgb(0,0,0)" stroke="none" x="754" y="6431">
   <tspan x="754 1059 1292 1648 1881 1974 2211 2330 2419 2652">Completion</tspan></text>
  <text fill="rgb(0,0,0)" stroke="none" x="987" y="6936">
   <tspan x="987 1339 1576 1809 2046 2275 2512">Manager</tspan></text>
  <text fill="rgb(129,138,143)" stroke="none" x="1458" y="8729">
   <tspan x="1458 1763 2000 2212">Host</tspan></text>
  <text fill="rgb(129,138,143)" stroke="none" x="1059" y="9234">
   <tspan x="1059 1411 1648 1881 2118 2347 2584">Manager</tspan></text>
  <path fill="rgb(129,138,143)" stroke="none" d="M 1887,8018 C 1067,8018 403,8374 403,8813 403,9252 1067,9608 1887,9608 2706,9608 3371,9252 3371,8813 3371,8374 2706,8018 1887,8018 Z"/>
  <path fill="rgb(255,204,153)" stroke="none" d="M 1816,7947 C 997,7947 332,8303 332,8742 332,9181 997,9537 1816,9537 2636,9537 3300,9181 3300,8742 3300,8303 2636,7947 1816,7947 Z"/>
  <path stroke-width="26" fill="none" stroke="rgb(0,0,0)" d="M 1816,7947 C 997,7947 332,8303 332,8742 332,9181 997,9537 1816,9537 2636,9537 3300,9181 3300,8742 3300,8303 2636,7947 1816,7947 Z"/>
  <text fill="rgb(0,0,0)" stroke="none" x="1386" y="8657">
   <tspan x="1386 1691 1928 2140">Host</tspan></text>
  <text fill="rgb(0,0,0)" stroke="none" x="987" y="9162">
   <tspan x="987 1339 1576 1809 2046 2275 2512">Manager</tspan></text>
 </g>
 <g fill="rgb(0,0,0)" stroke="none" font-family="Tahoma" font-size="496" font-style="normal" font-weight="400">
  <text x="8219" y="619">
   <tspan x="8219 8490 8668 8939 9168 9431 9651 9871 10142 10316 10473 10770 11037 11452 11728 11842 12101">Processor Complex</tspan></text>
  <text fill="rgb(0,0,0)" stroke="none" x="907" y="619">
   <tspan x="907 1242 1513 1733 1898 2055 2237 2428">Host I/F</tspan></text>
  <text fill="rgb(0,0,0)" stroke="none" x="17440" y="619">
   <tspan x="17440 17699 17813 18072 18292 18568 18725 18912 19099">Flash I/F</tspan></text>
 </g>
 <g fill="rgb(129,138,143)" stroke="none" font-family="Arial" font-size="424" font-style="normal" font-weight="400">
  <text x="17906" y="5549">
   <tspan x="17906 18165 18258 18495 18707">Flash</tspan></text>
  <text fill="rgb(129,138,143)" stroke="none" x="17601" y="6054">
   <tspan x="17601 17720 17957 18076 18313 18449 18568 18805 19017">Interface</tspan></text>
  <path fill="rgb(129,138,143)" stroke="none" d="M 18420,4838 C 17601,4838 16936,5194 16936,5633 16936,6072 17601,6428 18420,6428 19239,6428 19904,6072 19904,5633 19904,5194 19239,4838 18420,4838 Z"/>
  <path fill="rgb(255,204,153)" stroke="none" d="M 18349,4767 C 17530,4767 16865,5123 16865,5562 16865,6002 17530,6357 18349,6357 19169,6357 19833,6002 19833,5562 19833,5123 19169,4767 18349,4767 Z"/>
  <path stroke-width="26" fill="none" stroke="rgb(0,0,0)" d="M 18349,4767 C 17530,4767 16865,5123 16865,5562 16865,6002 17530,6357 18349,6357 19169,6357 19833,6002 19833,5562 19833,5123 19169,4767 18349,4767 Z"/>
  <text fill="rgb(0,0,0)" stroke="none" x="17834" y="5477">
   <tspan x="17834 18093 18186 18423 18635">Flash</tspan></text>
  <text fill="rgb(0,0,0)" stroke="none" x="17529" y="5982">
   <tspan x="17529 17648 17885 18004 18241 18377 18496 18733 18945">Interface</tspan></text>
  <path fill="rgb(153,204,255)" stroke="none" d="M 3830,9855 L 3830,13353 10189,13353 10189,9855 3830,9855 Z"/>
  <path fill="none" stroke="none" d="M 3830,9855 L 3830,13353 10189,13353 10189,9855 3830,9855 Z"/>
  <path stroke-width="36" fill="none" stroke="rgb(0,0,0)" d="M 3830,9855 L 3830,13353 10189,13353 10189,9855 3830,9855 Z"/>
  <text fill="rgb(129,138,143)" stroke="none" x="5133" y="11205">
   <tspan x="5133 5438 5743 6048">DDR3</tspan></text>
  <path fill="rgb(129,138,143)" stroke="none" d="M 5702,10244 C 4883,10244 4219,10599 4219,11039 4219,11478 4883,11834 5702,11834 6522,11834 7186,11478 7186,11039 7186,10599 6522,10244 5702,10244 Z"/>
  <path fill="rgb(255,204,153)" stroke="none" d="M 5631,10173 C 4812,10173 4148,10529 4148,10968 4148,11407 4812,11763 5631,11763 6451,11763 7115,11407 7115,10968 7115,10529 6451,10173 5631,10173 Z"/>
  <path stroke-width="26" fill="none" stroke="rgb(0,0,0)" d="M 5631,10173 C 4812,10173 4148,10529 4148,10968 4148,11407 4812,11763 5631,11763 6451,11763 7115,11407 7115,10968 7115,10529 6451,10173 5631,10173 Z"/>
  <text fill="rgb(0,0,0)" stroke="none" x="5061" y="11133">
   <tspan x="5061 5366 5671 5976">DDR3</tspan></text>
 </g>
 <g fill="rgb(0,0,0)" stroke="none" font-family="Tahoma" font-size="496" font-style="normal" font-weight="400">
  <text x="5040" y="13974">
   <tspan x="5040 5422 5685 6096 6367 6545 6791 6948 7241 7512 7783 7948 8126 8397 8511 8621 8884">Memory Controller</tspan></text>
 </g>
 <g fill="rgb(129,138,143)" stroke="none" font-family="Arial" font-size="424" font-style="normal" font-weight="400">
  <text x="4981" y="2052">
   <tspan x="4981 5214 5451 5663 5875 5964 6201">Locking</tspan></text>
  <text fill="rgb(129,138,143)" stroke="none" x="4875" y="2556">
   <tspan x="4875 5227 5464 5697 5934 6163 6400">Manager</tspan></text>
  <path fill="rgb(129,138,143)" stroke="none" d="M 5702,1341 C 4883,1341 4219,1696 4219,2135 4219,2574 4883,2930 5702,2930 6522,2930 7186,2574 7186,2135 7186,1696 6522,1341 5702,1341 Z"/>
  <path fill="rgb(204,255,255)" stroke="none" d="M 5631,1269 C 4812,1269 4148,1626 4148,2064 4148,2504 4812,2859 5631,2859 6451,2859 7115,2504 7115,2064 7115,1626 6451,1269 5631,1269 Z"/>
  <path stroke-width="26" fill="none" stroke="rgb(0,0,0)" d="M 5631,1269 C 4812,1269 4148,1626 4148,2064 4148,2504 4812,2859 5631,2859 6451,2859 7115,2504 7115,2064 7115,1626 6451,1269 5631,1269 Z"/>
  <text fill="rgb(0,0,0)" stroke="none" x="4909" y="1980">
   <tspan x="4909 5142 5379 5591 5803 5892 6129">Locking</tspan></text>
  <text fill="rgb(0,0,0)" stroke="none" x="4803" y="2484">
   <tspan x="4803 5155 5392 5625 5862 6091 6328">Manager</tspan></text>
  <text fill="rgb(129,138,143)" stroke="none" x="8741" y="6503">
   <tspan x="8741 9025 9258 9614 9703 9940">Admin </tspan></text>
  <text fill="rgb(129,138,143)" stroke="none" x="10059" y="6503">
   <tspan x="10059 10364 10716">Cmd</tspan></text>
  <text fill="rgb(129,138,143)" stroke="none" x="9008" y="7008">
   <tspan x="9008 9360 9597 9830 10067 10296 10533">Manager</tspan></text>
  <path fill="rgb(129,138,143)" stroke="none" d="M 9836,5792 C 9016,5792 8352,6148 8352,6587 8352,7026 9016,7382 9836,7382 10655,7382 11319,7026 11319,6587 11319,6148 10655,5792 9836,5792 Z"/>
  <path fill="rgb(204,255,255)" stroke="none" d="M 9765,5721 C 8945,5721 8281,6077 8281,6516 8281,6955 8945,7311 9765,7311 10584,7311 11248,6955 11248,6516 11248,6077 10584,5721 9765,5721 Z"/>
  <path stroke-width="26" fill="none" stroke="rgb(0,0,0)" d="M 9765,5721 C 8945,5721 8281,6077 8281,6516 8281,6955 8945,7311 9765,7311 10584,7311 11248,6955 11248,6516 11248,6077 10584,5721 9765,5721 Z"/>
  <text fill="rgb(0,0,0)" stroke="none" x="8669" y="6431">
   <tspan x="8669 8953 9186 9542 9631 9868">Admin </tspan></text>
  <text fill="rgb(0,0,0)" stroke="none" x="9987" y="6431">
   <tspan x="9987 10292 10644">Cmd</tspan></text>
  <text fill="rgb(0,0,0)" stroke="none" x="8936" y="6936">
   <tspan x="8936 9288 9525 9758 9995 10224 10461">Manager</tspan></text>
  <rect fill="rgb(204,255,204)" stroke="none" x="12412" y="1267" width="3820" height="8272"/>
  <rect fill="rgb(127,127,127)" stroke="none" x="12414" y="1269" width="3816" height="8268"/>
  <rect fill="rgb(204,255,204)" stroke="none" x="12412" y="1267" width="3820" height="8272"/>
  <path fill="rgb(0,0,0)" stroke="rgb(0,0,0)" d="M 16229,1288 L 15948,1288 15948,1253 16229,1253 16229,1288 Z M 15842,1288 L 15559,1288 15559,1253 15842,1253 15842,1288 Z M 15453,1288 L 15170,1288 15170,1253 15453,1253 15453,1288 Z M 15064,1288 L 14782,1288 14782,1253 15064,1253 15064,1288 Z M 14676,1288 L 14393,1288 14393,1253 14676,1253 14676,1288 Z M 14287,1288 L 14004,1288 14004,1253 14287,1253 14287,1288 Z M 13898,1288 L 13616,1288 13616,1253 13898,1253 13898,1288 Z M 13510,1288 L 13227,1288 13227,1253 13510,1253 13510,1288 Z M 13121,1288 L 12838,1288 12838,1253 13121,1253 13121,1288 Z M 12732,1288 L 12450,1288 12450,1253 12732,1253 12732,1288 Z M 12432,1341 L 12432,1624 12397,1624 12397,1341 12432,1341 Z M 12432,1729 L 12432,2011 12397,2011 12397,1729 12432,1729 Z M 12432,2117 L 12432,2400 12397,2400 12397,2117 12432,2117 Z M 12432,2506 L 12432,2789 12397,2789 12397,2506 12432,2506 Z M 12432,2895 L 12432,3177 12397,3177 12397,2895 12432,2895 Z M 12432,3283 L 12432,3566 12397,3566 12397,3283 12432,3283 Z M 12432,3672 L 12432,3955 12397,3955 12397,3672 12432,3672 Z M 12432,4061 L 12432,4343 12397,4343 12397,4061 12432,4061 Z M 12432,4449 L 12432,4732 12397,4732 12397,4449 12432,4449 Z M 12432,4838 L 12432,5121 12397,5121 12397,4838 12432,4838 Z M 12432,5227 L 12432,5509 12397,5509 12397,5227 12432,5227 Z M 12432,5615 L 12432,5898 12397,5898 12397,5615 12432,5615 Z M 12432,6004 L 12432,6287 12397,6287 12397,6004 12432,6004 Z M 12432,6393 L 12432,6675 12397,6675 12397,6393 12432,6393 Z M 12432,6781 L 12432,7064 12397,7064 12397,6781 12432,6781 Z M 12432,7170 L 12432,7453 12397,7453 12397,7170 12432,7170 Z M 12432,7559 L 12432,7841 12397,7841 12397,7559 12432,7559 Z M 12432,7947 L 12432,8230 12397,8230 12397,7947 12432,7947 Z M 12432,8336 L 12432,8619 12397,8619 12397,8336 12432,8336 Z M 12432,8725 L 12432,9007 12397,9007 12397,8725 12432,8725 Z M 12432,9113 L 12432,9396 12397,9396 12397,9113 12432,9113 Z M 12432,9502 L 12432,9537 12414,9520 12662,9520 12662,9555 12397,9555 12397,9502 12432,9502 Z M 12768,9520 L 13050,9520 13050,9555 12768,9555 12768,9520 Z M 13156,9520 L 13439,9520 13439,9555 13156,9555 13156,9520 Z M 13545,9520 L 13828,9520 13828,9555 13545,9555 13545,9520 Z M 13934,9520 L 14216,9520 14216,9555 13934,9555 13934,9520 Z M 14322,9520 L 14605,9520 14605,9555 14322,9555 14322,9520 Z M 14711,9520 L 14994,9520 14994,9555 14711,9555 14711,9520 Z M 15100,9520 L 15382,9520 15382,9555 15100,9555 15100,9520 Z M 15488,9520 L 15771,9520 15771,9555 15488,9555 15488,9520 Z M 15877,9520 L 16160,9520 16160,9555 15877,9555 15877,9520 Z M 16212,9502 L 16212,9219 16247,9219 16247,9502 16212,9502 Z M 16212,9113 L 16212,8831 16247,8831 16247,9113 16212,9113 Z M 16212,8725 L 16212,8442 16247,8442 16247,8725 16212,8725 Z M 16212,8336 L 16212,8053 16247,8053 16247,8336 16212,8336 Z M 16212,7947 L 16212,7665 16247,7665 16247,7947 16212,7947 Z M 16212,7559 L 16212,7276 16247,7276 16247,7559 16212,7559 Z M 16212,7170 L 16212,6887 16247,6887 16247,7170 16212,7170 Z M 16212,6781 L 16212,6499 16247,6499 16247,6781 16212,6781 Z M 16212,6393 L 16212,6110 16247,6110 16247,6393 16212,6393 Z M 16212,6004 L 16212,5721 16247,5721 16247,6004 16212,6004 Z M 16212,5615 L 16212,5333 16247,5333 16247,5615 16212,5615 Z M 16212,5227 L 16212,4944 16247,4944 16247,5227 16212,5227 Z M 16212,4838 L 16212,4555 16247,4555 16247,4838 16212,4838 Z M 16212,4449 L 16212,4167 16247,4167 16247,4449 16212,4449 Z M 16212,4061 L 16212,3778 16247,3778 16247,4061 16212,4061 Z M 16212,3672 L 16212,3389 16247,3389 16247,3672 16212,3672 Z M 16212,3283 L 16212,3001 16247,3001 16247,3283 16212,3283 Z M 16212,2895 L 16212,2612 16247,2612 16247,2895 16212,2895 Z M 16212,2506 L 16212,2223 16247,2223 16247,2506 16212,2506 Z M 16212,2117 L 16212,1835 16247,1835 16247,2117 16212,2117 Z M 16212,1729 L 16212,1446 16247,1446 16247,1729 16212,1729 Z M 16212,1341 L 16212,1269 16247,1269 16247,1341 16212,1341 Z"/>
 </g>
 <g fill="rgb(0,0,0)" stroke="none" font-family="Tahoma" font-size="496" font-style="normal" font-weight="400">
  <text x="13925" y="5600">
   <tspan x="13925 14184 14472">FTL</tspan></text>
 </g>
 <g fill="rgb(129,138,143)" stroke="none" font-family="Arial" font-size="424" font-style="normal" font-weight="400">
  <text x="11607" y="10955">
   <tspan x="11607 11887 12218">XOR</tspan></text>
  <text fill="rgb(129,138,143)" stroke="none" x="11412" y="11460">
   <tspan x="11412 11696 11933 12166 12255 12488">Engine</tspan></text>
  <path fill="rgb(129,138,143)" stroke="none" d="M 12061,10244 C 11242,10244 10578,10599 10578,11039 10578,11478 11242,11834 12061,11834 12880,11834 13545,11478 13545,11039 13545,10599 12880,10244 12061,10244 Z"/>
  <path fill="rgb(255,204,153)" stroke="none" d="M 11990,10173 C 11171,10173 10507,10529 10507,10968 10507,11407 11171,11763 11990,11763 12810,11763 13474,11407 13474,10968 13474,10529 12810,10173 11990,10173 Z"/>
  <path stroke-width="26" fill="none" stroke="rgb(0,0,0)" d="M 11990,10173 C 11171,10173 10507,10529 10507,10968 10507,11407 11171,11763 11990,11763 12810,11763 13474,11407 13474,10968 13474,10529 12810,10173 11990,10173 Z"/>
  <text fill="rgb(0,0,0)" stroke="none" x="11535" y="10883">
   <tspan x="11535 11815 12146">XOR</tspan></text>
  <text fill="rgb(0,0,0)" stroke="none" x="11340" y="11387">
   <tspan x="11340 11624 11861 12094 12183 12416">Engine</tspan></text>
  <text fill="rgb(129,138,143)" stroke="none" x="13010" y="12227">
   <tspan x="13010 13247 13340 13552">List</tspan></text>
  <text fill="rgb(129,138,143)" stroke="none" x="12683" y="12731">
   <tspan x="12683 12967 13204 13437 13526 13759">Engine</tspan></text>
  <path fill="rgb(129,138,143)" stroke="none" d="M 13333,11516 C 12513,11516 11849,11871 11849,12311 11849,12749 12513,13106 13333,13106 14152,13106 14817,12749 14817,12311 14817,11871 14152,11516 13333,11516 Z"/>
  <path fill="rgb(255,204,153)" stroke="none" d="M 13262,11445 C 12443,11445 11778,11801 11778,12240 11778,12679 12443,13035 13262,13035 14082,13035 14746,12679 14746,12240 14746,11801 14082,11445 13262,11445 Z"/>
  <path stroke-width="26" fill="none" stroke="rgb(0,0,0)" d="M 13262,11445 C 12443,11445 11778,11801 11778,12240 11778,12679 12443,13035 13262,13035 14082,13035 14746,12679 14746,12240 14746,11801 14082,11445 13262,11445 Z"/>
  <text fill="rgb(0,0,0)" stroke="none" x="12938" y="12155">
   <tspan x="12938 13175 13268 13480">List</tspan></text>
  <text fill="rgb(0,0,0)" stroke="none" x="12611" y="12659">
   <tspan x="12611 12895 13132 13365 13454 13687">Engine</tspan></text>
  <text fill="rgb(129,138,143)" stroke="none" x="8003" y="10955">
   <tspan x="8003 8287 8520 8639 8758 8995">Buffer</tspan></text>
  <text fill="rgb(129,138,143)" stroke="none" x="7957" y="11460">
   <tspan x="7957 8241 8546 8830">SRAM</tspan></text>
  <path fill="rgb(129,138,143)" stroke="none" d="M 8564,10244 C 7744,10244 7080,10599 7080,11039 7080,11478 7744,11834 8564,11834 9383,11834 10048,11478 10048,11039 10048,10599 9383,10244 8564,10244 Z"/>
  <path fill="rgb(255,204,153)" stroke="none" d="M 8493,10173 C 7674,10173 7009,10529 7009,10968 7009,11407 7674,11763 8493,11763 9313,11763 9977,11407 9977,10968 9977,10529 9313,10173 8493,10173 Z"/>
  <path stroke-width="26" fill="none" stroke="rgb(0,0,0)" d="M 8493,10173 C 7674,10173 7009,10529 7009,10968 7009,11407 7674,11763 8493,11763 9313,11763 9977,11407 9977,10968 9977,10529 9313,10173 8493,10173 Z"/>
  <text fill="rgb(0,0,0)" stroke="none" x="7931" y="10883">
   <tspan x="7931 8215 8448 8567 8686 8923">Buffer</tspan></text>
  <text fill="rgb(0,0,0)" stroke="none" x="7885" y="11387">
   <tspan x="7885 8169 8474 8758">SRAM</tspan></text>
 </g>
 <g fill="rgb(0,0,0)" stroke="none" font-family="Tahoma" font-size="496" font-style="normal" font-weight="400">
  <text x="10966" y="13974">
   <tspan x="10966 11301 11560 11738 12014 12383 12642 12820 13079 13236 13533 13762 13991 14254 14364 14627 14805 15064 15225 15496 15674">Hardware Accelerators</tspan></text>
 </g>
 <g fill="rgb(129,138,143)" stroke="none" font-family="Arial" font-size="424" font-style="normal" font-weight="400">
  <text x="14362" y="10955">
   <tspan x="14362 14646 14879 14998 15117 15354">Buffer</tspan></text>
  <text fill="rgb(129,138,143)" stroke="none" x="14095" y="11460">
   <tspan x="14095 14447 14684 14917 15154 15383 15620">Manager</tspan></text>
  <path fill="rgb(129,138,143)" stroke="none" d="M 14923,10244 C 14103,10244 13439,10600 13439,11039 13439,11478 14103,11834 14923,11834 15742,11834 16406,11478 16406,11039 16406,10600 15742,10244 14923,10244 Z"/>
  <path fill="rgb(255,204,153)" stroke="none" d="M 14852,10173 C 14032,10173 13368,10529 13368,10968 13368,11408 14032,11763 14852,11763 15672,11763 16335,11408 16335,10968 16335,10529 15672,10173 14852,10173 Z"/>
  <path stroke-width="26" fill="none" stroke="rgb(0,0,0)" d="M 14852,10173 C 14032,10173 13368,10529 13368,10968 13368,11408 14032,11763 14852,11763 15672,11763 16335,11408 16335,10968 16335,10529 15672,10173 14852,10173 Z"/>
  <text fill="rgb(0,0,0)" stroke="none" x="14290" y="10883">
   <tspan x="14290 14574 14807 14926 15045 15282">Buffer</tspan></text>
  <text fill="rgb(0,0,0)" stroke="none" x="14023" y="11387">
   <tspan x="14023 14375 14612 14845 15082 15311 15548">Manager</tspan></text>
  <text fill="rgb(129,138,143)" stroke="none" x="13480" y="5549">
   <tspan x="13480 13832 14069 14302 14539 14628 14865">Mapping</tspan></text>
  <text fill="rgb(129,138,143)" stroke="none" x="13459" y="6054">
   <tspan x="13459 13811 14048 14281 14518 14747 14984">Manager</tspan></text>
  <path fill="rgb(129,138,143)" stroke="none" d="M 14287,4838 C 13468,4838 12803,5194 12803,5633 12803,6072 13468,6428 14287,6428 15106,6428 15771,6072 15771,5633 15771,5194 15106,4838 14287,4838 Z"/>
  <path fill="rgb(204,255,255)" stroke="none" d="M 14216,4767 C 13397,4767 12732,5123 12732,5562 12732,6002 13397,6357 14216,6357 15036,6357 15700,6002 15700,5562 15700,5123 15036,4767 14216,4767 Z"/>
  <path stroke-width="26" fill="none" stroke="rgb(0,0,0)" d="M 14216,4767 C 13397,4767 12732,5123 12732,5562 12732,6002 13397,6357 14216,6357 15036,6357 15700,6002 15700,5562 15700,5123 15036,4767 14216,4767 Z"/>
  <text fill="rgb(0,0,0)" stroke="none" x="13408" y="5477">
   <tspan x="13408 13760 13997 14230 14467 14556 14793">Mapping</tspan></text>
  <text fill="rgb(0,0,0)" stroke="none" x="13387" y="5982">
   <tspan x="13387 13739 13976 14209 14446 14675 14912">Manager</tspan></text>
  <text fill="rgb(129,138,143)" stroke="none" x="13480" y="5867">
   <tspan x="13480 13832 14069 14302 14539 14628 14865">Mapping</tspan></text>
  <text fill="rgb(129,138,143)" stroke="none" x="13459" y="6372">
   <tspan x="13459 13811 14048 14281 14518 14747 14984">Manager</tspan></text>
  <path fill="rgb(129,138,143)" stroke="none" d="M 14287,5156 C 13468,5156 12803,5512 12803,5951 12803,6390 13468,6746 14287,6746 15106,6746 15771,6390 15771,5951 15771,5512 15106,5156 14287,5156 Z"/>
  <path fill="rgb(204,255,255)" stroke="none" d="M 14216,5085 C 13397,5085 12732,5441 12732,5880 12732,6320 13397,6675 14216,6675 15036,6675 15700,6320 15700,5880 15700,5441 15036,5085 14216,5085 Z"/>
  <path stroke-width="26" fill="none" stroke="rgb(0,0,0)" d="M 14216,5085 C 13397,5085 12732,5441 12732,5880 12732,6320 13397,6675 14216,6675 15036,6675 15700,6320 15700,5880 15700,5441 15036,5085 14216,5085 Z"/>
  <text fill="rgb(0,0,0)" stroke="none" x="13408" y="5795">
   <tspan x="13408 13760 13997 14230 14467 14556 14793">Mapping</tspan></text>
  <text fill="rgb(0,0,0)" stroke="none" x="13387" y="6300">
   <tspan x="13387 13739 13976 14209 14446 14675 14912">Manager</tspan></text>
  <text fill="rgb(129,138,143)" stroke="none" x="13480" y="6185">
   <tspan x="13480 13832 14069 14302 14539 14628 14865">Mapping</tspan></text>
  <text fill="rgb(129,138,143)" stroke="none" x="13459" y="6690">
   <tspan x="13459 13811 14048 14281 14518 14747 14984">Manager</tspan></text>
  <path fill="rgb(129,138,143)" stroke="none" d="M 14287,5474 C 13468,5474 12803,5830 12803,6269 12803,6708 13468,7064 14287,7064 15106,7064 15771,6708 15771,6269 15771,5830 15106,5474 14287,5474 Z"/>
  <path fill="rgb(204,255,255)" stroke="none" d="M 14216,5403 C 13397,5403 12732,5759 12732,6198 12732,6638 13397,6993 14216,6993 15036,6993 15700,6638 15700,6198 15700,5759 15036,5403 14216,5403 Z"/>
  <path stroke-width="26" fill="none" stroke="rgb(0,0,0)" d="M 14216,5403 C 13397,5403 12732,5759 12732,6198 12732,6638 13397,6993 14216,6993 15036,6993 15700,6638 15700,6198 15700,5759 15036,5403 14216,5403 Z"/>
  <text fill="rgb(0,0,0)" stroke="none" x="13408" y="6113">
   <tspan x="13408 13760 13997 14230 14467 14556 14793">Mapping</tspan></text>
  <text fill="rgb(0,0,0)" stroke="none" x="13387" y="6618">
   <tspan x="13387 13739 13976 14209 14446 14675 14912">Manager</tspan></text>
  <text fill="rgb(129,138,143)" stroke="none" x="13480" y="6503">
   <tspan x="13480 13832 14069 14302 14539 14628 14865">Mapping</tspan></text>
  <text fill="rgb(129,138,143)" stroke="none" x="13459" y="7008">
   <tspan x="13459 13811 14048 14281 14518 14747 14984">Manager</tspan></text>
  <path fill="rgb(129,138,143)" stroke="none" d="M 14287,5792 C 13468,5792 12803,6148 12803,6587 12803,7026 13468,7382 14287,7382 15106,7382 15771,7026 15771,6587 15771,6148 15106,5792 14287,5792 Z"/>
  <path fill="rgb(204,255,255)" stroke="none" d="M 14216,5721 C 13397,5721 12732,6077 12732,6516 12732,6956 13397,7311 14216,7311 15036,7311 15700,6956 15700,6516 15700,6077 15036,5721 14216,5721 Z"/>
  <path stroke-width="26" fill="none" stroke="rgb(0,0,0)" d="M 14216,5721 C 13397,5721 12732,6077 12732,6516 12732,6956 13397,7311 14216,7311 15036,7311 15700,6956 15700,6516 15700,6077 15036,5721 14216,5721 Z"/>
  <text fill="rgb(0,0,0)" stroke="none" x="13408" y="6431">
   <tspan x="13408 13760 13997 14230 14467 14556 14793">Mapping</tspan></text>
  <text fill="rgb(0,0,0)" stroke="none" x="13387" y="6936">
   <tspan x="13387 13739 13976 14209 14446 14675 14912">Manager</tspan></text>
  <text fill="rgb(129,138,143)" stroke="none" x="13480" y="5549">
   <tspan x="13480 13832 14069 14302 14539 14628 14865">Mapping</tspan></text>
  <text fill="rgb(129,138,143)" stroke="none" x="13459" y="6054">
   <tspan x="13459 13811 14048 14281 14518 14747 14984">Manager</tspan></text>
  <path fill="rgb(129,138,143)" stroke="none" d="M 14287,4838 C 13468,4838 12803,5194 12803,5633 12803,6072 13468,6428 14287,6428 15106,6428 15771,6072 15771,5633 15771,5194 15106,4838 14287,4838 Z"/>
  <path fill="rgb(204,255,255)" stroke="none" d="M 14216,4767 C 13397,4767 12732,5123 12732,5562 12732,6002 13397,6357 14216,6357 15036,6357 15700,6002 15700,5562 15700,5123 15036,4767 14216,4767 Z"/>
  <path stroke-width="26" fill="none" stroke="rgb(0,0,0)" d="M 14216,4767 C 13397,4767 12732,5123 12732,5562 12732,6002 13397,6357 14216,6357 15036,6357 15700,6002 15700,5562 15700,5123 15036,4767 14216,4767 Z"/>
  <text fill="rgb(0,0,0)" stroke="none" x="13408" y="5477">
   <tspan x="13408 13760 13997 14230 14467 14556 14793">Mapping</tspan></text>
  <text fill="rgb(0,0,0)" stroke="none" x="13387" y="5982">
   <tspan x="13387 13739 13976 14209 14446 14675 14912">Manager</tspan></text>
  <text fill="rgb(129,138,143)" stroke="none" x="13480" y="5867">
   <tspan x="13480 13832 14069 14302 14539 14628 14865">Mapping</tspan></text>
  <text fill="rgb(129,138,143)" stroke="none" x="13459" y="6372">
   <tspan x="13459 13811 14048 14281 14518 14747 14984">Manager</tspan></text>
  <path fill="rgb(129,138,143)" stroke="none" d="M 14287,5156 C 13468,5156 12803,5512 12803,5951 12803,6390 13468,6746 14287,6746 15106,6746 15771,6390 15771,5951 15771,5512 15106,5156 14287,5156 Z"/>
  <path fill="rgb(204,255,255)" stroke="none" d="M 14216,5085 C 13397,5085 12732,5441 12732,5880 12732,6320 13397,6675 14216,6675 15036,6675 15700,6320 15700,5880 15700,5441 15036,5085 14216,5085 Z"/>
  <path stroke-width="26" fill="none" stroke="rgb(0,0,0)" d="M 14216,5085 C 13397,5085 12732,5441 12732,5880 12732,6320 13397,6675 14216,6675 15036,6675 15700,6320 15700,5880 15700,5441 15036,5085 14216,5085 Z"/>
  <text fill="rgb(0,0,0)" stroke="none" x="13408" y="5795">
   <tspan x="13408 13760 13997 14230 14467 14556 14793">Mapping</tspan></text>
  <text fill="rgb(0,0,0)" stroke="none" x="13387" y="6300">
   <tspan x="13387 13739 13976 14209 14446 14675 14912">Manager</tspan></text>
  <text fill="rgb(129,138,143)" stroke="none" x="13480" y="6185">
   <tspan x="13480 13832 14069 14302 14539 14628 14865">Mapping</tspan></text>
  <text fill="rgb(129,138,143)" stroke="none" x="13459" y="6690">
   <tspan x="13459 13811 14048 14281 14518 14747 14984">Manager</tspan></text>
  <path fill="rgb(129,138,143)" stroke="none" d="M 14287,5474 C 13468,5474 12803,5830 12803,6269 12803,6708 13468,7064 14287,7064 15106,7064 15771,6708 15771,6269 15771,5830 15106,5474 14287,5474 Z"/>
  <path fill="rgb(204,255,255)" stroke="none" d="M 14216,5403 C 13397,5403 12732,5759 12732,6198 12732,6638 13397,6993 14216,6993 15036,6993 15700,6638 15700,6198 15700,5759 15036,5403 14216,5403 Z"/>
  <path stroke-width="26" fill="none" stroke="rgb(0,0,0)" d="M 14216,5403 C 13397,5403 12732,5759 12732,6198 12732,6638 13397,6993 14216,6993 15036,6993 15700,6638 15700,6198 15700,5759 15036,5403 14216,5403 Z"/>
  <text fill="rgb(0,0,0)" stroke="none" x="13408" y="6113">
   <tspan x="13408 13760 13997 14230 14467 14556 14793">Mapping</tspan></text>
  <text fill="rgb(0,0,0)" stroke="none" x="13387" y="6618">
   <tspan x="13387 13739 13976 14209 14446 14675 14912">Manager</tspan></text>
  <text fill="rgb(129,138,143)" stroke="none" x="13480" y="6503">
   <tspan x="13480 13832 14069 14302 14539 14628 14865">Mapping</tspan></text>
  <text fill="rgb(129,138,143)" stroke="none" x="13459" y="7008">
   <tspan x="13459 13811 14048 14281 14518 14747 14984">Manager</tspan></text>
  <path fill="rgb(129,138,143)" stroke="none" d="M 14287,5792 C 13468,5792 12803,6148 12803,6587 12803,7026 13468,7382 14287,7382 15106,7382 15771,7026 15771,6587 15771,6148 15106,5792 14287,5792 Z"/>
  <path fill="rgb(204,255,255)" stroke="none" d="M 14216,5721 C 13397,5721 12732,6077 12732,6516 12732,6956 13397,7311 14216,7311 15036,7311 15700,6956 15700,6516 15700,6077 15036,5721 14216,5721 Z"/>
  <path stroke-width="26" fill="none" stroke="rgb(0,0,0)" d="M 14216,5721 C 13397,5721 12732,6077 12732,6516 12732,6956 13397,7311 14216,7311 15036,7311 15700,6956 15700,6516 15700,6077 15036,5721 14216,5721 Z"/>
  <text fill="rgb(0,0,0)" stroke="none" x="13408" y="6431">
   <tspan x="13408 13760 13997 14230 14467 14556 14793">Mapping</tspan></text>
  <text fill="rgb(0,0,0)" stroke="none" x="13387" y="6936">
   <tspan x="13387 13739 13976 14209 14446 14675 14912">Manager</tspan></text>
  <text fill="rgb(129,138,143)" stroke="none" x="13921" y="2370">
   <tspan x="13921 14133 14366 14603 14743 14976 15213">Journal</tspan></text>
  <text fill="rgb(129,138,143)" stroke="none" x="13777" y="2874">
   <tspan x="13777 14129 14366 14599 14836 15065 15302">Manager</tspan></text>
  <path fill="rgb(129,138,143)" stroke="none" d="M 14605,1658 C 13786,1658 13121,2015 13121,2453 13121,2892 13786,3248 14605,3248 15424,3248 16088,2892 16088,2453 16088,2015 15424,1658 14605,1658 Z"/>
  <path fill="rgb(204,255,255)" stroke="none" d="M 14534,1587 C 13715,1587 13050,1944 13050,2382 13050,2822 13715,3177 14534,3177 15354,3177 16017,2822 16017,2382 16017,1944 15354,1587 14534,1587 Z"/>
  <path stroke-width="26" fill="none" stroke="rgb(0,0,0)" d="M 14534,1587 C 13715,1587 13050,1944 13050,2382 13050,2822 13715,3177 14534,3177 15354,3177 16017,2822 16017,2382 16017,1944 15354,1587 14534,1587 Z"/>
  <text fill="rgb(0,0,0)" stroke="none" x="13849" y="2298">
   <tspan x="13849 14061 14294 14531 14671 14904 15141">Journal</tspan></text>
  <text fill="rgb(0,0,0)" stroke="none" x="13705" y="2802">
   <tspan x="13705 14057 14294 14527 14764 14993 15230">Manager</tspan></text>
  <text fill="rgb(129,138,143)" stroke="none" x="14091" y="3960">
   <tspan x="14091 14375 14468 14705 14917">Block</tspan></text>
  <text fill="rgb(129,138,143)" stroke="none" x="13777" y="4464">
   <tspan x="13777 14129 14366 14599 14836 15065 15302">Manager</tspan></text>
  <path fill="rgb(129,138,143)" stroke="none" d="M 14605,3248 C 13786,3248 13121,3604 13121,4043 13121,4482 13786,4838 14605,4838 15424,4838 16088,4482 16088,4043 16088,3604 15424,3248 14605,3248 Z"/>
  <path fill="rgb(204,255,255)" stroke="none" d="M 14534,3177 C 13715,3177 13050,3533 13050,3972 13050,4412 13715,4767 14534,4767 15354,4767 16017,4412 16017,3972 16017,3533 15354,3177 14534,3177 Z"/>
  <path stroke-width="26" fill="none" stroke="rgb(0,0,0)" d="M 14534,3177 C 13715,3177 13050,3533 13050,3972 13050,4412 13715,4767 14534,4767 15354,4767 16017,4412 16017,3972 16017,3533 15354,3177 14534,3177 Z"/>
  <text fill="rgb(0,0,0)" stroke="none" x="14019" y="3887">
   <tspan x="14019 14303 14396 14633 14845">Block</tspan></text>
  <text fill="rgb(0,0,0)" stroke="none" x="13705" y="4392">
   <tspan x="13705 14057 14294 14527 14764 14993 15230">Manager</tspan></text>
  <text fill="rgb(129,138,143)" stroke="none" x="13722" y="8093">
   <tspan x="13722 14027 14264 14472 14709 14917 15154 15294">Recovery</tspan></text>
  <text fill="rgb(129,138,143)" stroke="none" x="13777" y="8598">
   <tspan x="13777 14129 14366 14599 14836 15065 15302">Manager</tspan></text>
  <path fill="rgb(129,138,143)" stroke="none" d="M 14605,7382 C 13786,7382 13121,7738 13121,8177 13121,8616 13786,8972 14605,8972 15424,8972 16088,8616 16088,8177 16088,7738 15424,7382 14605,7382 Z"/>
  <path fill="rgb(204,255,255)" stroke="none" d="M 14534,7311 C 13715,7311 13050,7667 13050,8106 13050,8546 13715,8901 14534,8901 15354,8901 16017,8546 16017,8106 16017,7667 15354,7311 14534,7311 Z"/>
  <path stroke-width="26" fill="none" stroke="rgb(0,0,0)" d="M 14534,7311 C 13715,7311 13050,7667 13050,8106 13050,8546 13715,8901 14534,8901 15354,8901 16017,8546 16017,8106 16017,7667 15354,7311 14534,7311 Z"/>
  <text fill="rgb(0,0,0)" stroke="none" x="13650" y="8021">
   <tspan x="13650 13955 14192 14400 14637 14845 15082 15222">Recovery</tspan></text>
  <text fill="rgb(0,0,0)" stroke="none" x="13705" y="8526">
   <tspan x="13705 14057 14294 14527 14764 14993 15230">Manager</tspan></text>
  <text fill="rgb(129,138,143)" stroke="none" x="13722" y="8411">
   <tspan x="13722 14027 14264 14472 14709 14917 15154 15294">Recovery</tspan></text>
  <text fill="rgb(129,138,143)" stroke="none" x="13777" y="8916">
   <tspan x="13777 14129 14366 14599 14836 15065 15302">Manager</tspan></text>
  <path fill="rgb(129,138,143)" stroke="none" d="M 14605,7700 C 13786,7700 13121,8056 13121,8495 13121,8934 13786,9290 14605,9290 15424,9290 16088,8934 16088,8495 16088,8056 15424,7700 14605,7700 Z"/>
  <path fill="rgb(204,255,255)" stroke="none" d="M 14534,7629 C 13715,7629 13050,7985 13050,8424 13050,8864 13715,9219 14534,9219 15354,9219 16017,8864 16017,8424 16017,7985 15354,7629 14534,7629 Z"/>
  <path stroke-width="26" fill="none" stroke="rgb(0,0,0)" d="M 14534,7629 C 13715,7629 13050,7985 13050,8424 13050,8864 13715,9219 14534,9219 15354,9219 16017,8864 16017,8424 16017,7985 15354,7629 14534,7629 Z"/>
  <text fill="rgb(0,0,0)" stroke="none" x="13650" y="8339">
   <tspan x="13650 13955 14192 14400 14637 14845 15082 15222">Recovery</tspan></text>
  <text fill="rgb(0,0,0)" stroke="none" x="13705" y="8844">
   <tspan x="13705 14057 14294 14527 14764 14993 15230">Manager</tspan></text>
  <text fill="rgb(129,138,143)" stroke="none" x="13722" y="8093">
   <tspan x="13722 14027 14264 14472 14709 14917 15154 15294">Recovery</tspan></text>
  <text fill="rgb(129,138,143)" stroke="none" x="13777" y="8598">
   <tspan x="13777 14129 14366 14599 14836 15065 15302">Manager</tspan></text>
  <path fill="rgb(129,138,143)" stroke="none" d="M 14605,7382 C 13786,7382 13121,7738 13121,8177 13121,8616 13786,8972 14605,8972 15424,8972 16088,8616 16088,8177 16088,7738 15424,7382 14605,7382 Z"/>
  <path fill="rgb(204,255,255)" stroke="none" d="M 14534,7311 C 13715,7311 13050,7667 13050,8106 13050,8546 13715,8901 14534,8901 15354,8901 16017,8546 16017,8106 16017,7667 15354,7311 14534,7311 Z"/>
  <path stroke-width="26" fill="none" stroke="rgb(0,0,0)" d="M 14534,7311 C 13715,7311 13050,7667 13050,8106 13050,8546 13715,8901 14534,8901 15354,8901 16017,8546 16017,8106 16017,7667 15354,7311 14534,7311 Z"/>
  <text fill="rgb(0,0,0)" stroke="none" x="13650" y="8021">
   <tspan x="13650 13955 14192 14400 14637 14845 15082 15222">Recovery</tspan></text>
  <text fill="rgb(0,0,0)" stroke="none" x="13705" y="8526">
   <tspan x="13705 14057 14294 14527 14764 14993 15230">Manager</tspan></text>
  <text fill="rgb(129,138,143)" stroke="none" x="13722" y="8411">
   <tspan x="13722 14027 14264 14472 14709 14917 15154 15294">Recovery</tspan></text>
  <text fill="rgb(129,138,143)" stroke="none" x="13777" y="8916">
   <tspan x="13777 14129 14366 14599 14836 15065 15302">Manager</tspan></text>
  <path fill="rgb(129,138,143)" stroke="none" d="M 14605,7700 C 13786,7700 13121,8056 13121,8495 13121,8934 13786,9290 14605,9290 15424,9290 16088,8934 16088,8495 16088,8056 15424,7700 14605,7700 Z"/>
  <path fill="rgb(204,255,255)" stroke="none" d="M 14534,7629 C 13715,7629 13050,7985 13050,8424 13050,8864 13715,9219 14534,9219 15354,9219 16017,8864 16017,8424 16017,7985 15354,7629 14534,7629 Z"/>
  <path stroke-width="26" fill="none" stroke="rgb(0,0,0)" d="M 14534,7629 C 13715,7629 13050,7985 13050,8424 13050,8864 13715,9219 14534,9219 15354,9219 16017,8864 16017,8424 16017,7985 15354,7629 14534,7629 Z"/>
  <text fill="rgb(0,0,0)" stroke="none" x="13650" y="8339">
   <tspan x="13650 13955 14192 14400 14637 14845 15082 15222">Recovery</tspan></text>
  <text fill="rgb(0,0,0)" stroke="none" x="13705" y="8844">
   <tspan x="13705 14057 14294 14527 14764 14993 15230">Manager</tspan></text>
 </g>
 <g fill="rgb(129,138,143)" stroke="none" font-family="Tahoma" font-size="496" font-style="normal" font-weight="400">
  <text x="12332" y="6363">1</text>
  <path fill="rgb(129,138,143)" stroke="none" d="M 12459,5845 C 12283,5845 12141,5987 12141,6163 12141,6339 12283,6481 12459,6481 12634,6481 12777,6339 12777,6163 12777,5987 12634,5845 12459,5845 Z"/>
  <path fill="rgb(255,255,255)" stroke="none" d="M 12388,5774 C 12212,5774 12070,5917 12070,6092 12070,6268 12212,6410 12388,6410 12564,6410 12706,6268 12706,6092 12706,5917 12564,5774 12388,5774 Z"/>
  <path stroke-width="36" fill="none" stroke="rgb(255,0,0)" d="M 12388,5774 C 12212,5774 12070,5917 12070,6092 12070,6268 12212,6410 12388,6410 12564,6410 12706,6268 12706,6092 12706,5917 12564,5774 12388,5774 Z"/>
  <text fill="rgb(0,0,0)" stroke="none" x="12259" y="6291">1</text>
  <path fill="rgb(0,0,0)" stroke="rgb(0,0,0)" d="M 11248,6499 L 12556,6499 12556,6534 11248,6534 11248,6499 Z M 12520,6410 L 12732,6516 12520,6622 12520,6410 Z"/>
 </g>
</svg>