<?xml version="1.0" encoding="UTF-8"?><!DOCTYPE svg PUBLIC "-//W3C//DTD SVG 1.1//EN" "/SysSchema/SVG11/svg11.dtd">
<svg xmlns:xlink="http://www.w3.org/1999/xlink" xmlns="http://www.w3.org/2000/svg" width="234mm" height="71mm" viewBox="0 0 23400 7100" stroke-width="28.222" stroke-linejoin="round" xml:space="preserve" preserveAspectRatio="xMidYMid meet" zoomAndPan="magnify" version="1.1" contentScriptType="text/ecmascript" contentStyleType="text/css">
 <g fill="rgb(129,138,143)" stroke="none" font-family="Arial" font-size="423" font-style="normal" font-weight="400">
  <text x="14101" y="4908">
   <tspan x="14101 14384 14616 14971 15060 15297">Admin </tspan></text>
  <text fill="rgb(129,138,143)" stroke="none" x="15415" y="4908">
   <tspan x="15415 15719 16070">Cmd</tspan></text>
  <text fill="rgb(129,138,143)" stroke="none" x="14367" y="5411">
   <tspan x="14367 14718 14955 15187 15424 15652 15889">Manager</tspan></text>
  <path fill="rgb(129,138,143)" stroke="none" d="M 15192,4194 C 14376,4194 13713,4549 13713,4987 13713,5425 14376,5781 15192,5781 16009,5781 16672,5425 16672,4987 16672,4549 16009,4194 15192,4194 Z"/>
  <path fill="rgb(204,255,255)" stroke="none" d="M 15122,4123 C 14305,4123 13642,4479 13642,4916 13642,5355 14305,5710 15122,5710 15939,5710 16601,5355 16601,4916 16601,4479 15939,4123 15122,4123 Z"/>
  <path stroke-width="26" fill="none" stroke="rgb(0,0,0)" d="M 15122,4123 C 14305,4123 13642,4479 13642,4916 13642,5355 14305,5710 15122,5710 15939,5710 16601,5355 16601,4916 16601,4479 15939,4123 15122,4123 Z"/>
  <text fill="rgb(0,0,0)" stroke="none" x="14029" y="4836">
   <tspan x="14029 14312 14544 14899 14988 15225">Admin </tspan></text>
  <text fill="rgb(0,0,0)" stroke="none" x="15344" y="4836">
   <tspan x="15344 15648 15999">Cmd</tspan></text>
  <text fill="rgb(0,0,0)" stroke="none" x="14295" y="5339">
   <tspan x="14295 14646 14883 15115 15352 15580 15817">Manager</tspan></text>
 </g>
 <g fill="rgb(0,0,0)" stroke="none" font-family="Tahoma" font-size="283" font-style="normal" font-weight="400">
  <text x="11248" y="3262">
   <tspan x="11248 11417 11654 11810 11988 12136 12284 12440 12579 12731">CmdReady64</tspan></text>
  <text fill="rgb(0,0,0)" stroke="none" x="10939" y="5483">
   <tspan x="10939 11117 11265 11421 11577 11725 11852 11945 12034 12203 12355 12592 12748 12811 12959 13056 13119 13275 13431">Request Completions</tspan></text>
 </g>
 <g fill="rgb(129,138,143)" stroke="none" font-family="Arial" font-size="423" font-style="normal" font-weight="400">
  <text x="7414" y="2052">
   <tspan x="7414 7718 7955 8069 8306">Datal</tspan></text>
  <text fill="rgb(129,138,143)" stroke="none" x="7076" y="2556">
   <tspan x="7076 7427 7664 7896 8133 8361 8598">Manager</tspan></text>
  <path fill="rgb(129,138,143)" stroke="none" d="M 7901,1338 C 7084,1338 6422,1693 6422,2131 6422,2569 7084,2925 7901,2925 8718,2925 9381,2569 9381,2131 9381,1693 8718,1338 7901,1338 Z"/>
  <path fill="rgb(204,255,255)" stroke="none" d="M 7830,1267 C 7014,1267 6351,1623 6351,2061 6351,2499 7014,2854 7830,2854 8648,2854 9310,2499 9310,2061 9310,1623 8648,1267 7830,1267 Z"/>
  <path stroke-width="26" fill="none" stroke="rgb(0,0,0)" d="M 7830,1267 C 7014,1267 6351,1623 6351,2061 6351,2499 7014,2854 7830,2854 8648,2854 9310,2499 9310,2061 9310,1623 8648,1267 7830,1267 Z"/>
  <text fill="rgb(0,0,0)" stroke="none" x="7342" y="1980">
   <tspan x="7342 7646 7883 7997 8234">Datal</tspan></text>
  <text fill="rgb(0,0,0)" stroke="none" x="7004" y="2484">
   <tspan x="7004 7355 7592 7824 8061 8289 8526">Manager</tspan></text>
  <text fill="rgb(129,138,143)" stroke="none" x="7414" y="2369">
   <tspan x="7414 7718 7955 8069 8306">Datal</tspan></text>
  <text fill="rgb(129,138,143)" stroke="none" x="7076" y="2873">
   <tspan x="7076 7427 7664 7896 8133 8361 8598">Manager</tspan></text>
  <path fill="rgb(129,138,143)" stroke="none" d="M 7901,1656 C 7084,1656 6422,2010 6422,2449 6422,2887 7084,3242 7901,3242 8718,3242 9381,2887 9381,2449 9381,2010 8718,1656 7901,1656 Z"/>
  <path fill="rgb(204,255,255)" stroke="none" d="M 7830,1585 C 7014,1585 6351,1940 6351,2378 6351,2816 7014,3171 7830,3171 8648,3171 9310,2816 9310,2378 9310,1940 8648,1585 7830,1585 Z"/>
  <path stroke-width="26" fill="none" stroke="rgb(0,0,0)" d="M 7830,1585 C 7014,1585 6351,1940 6351,2378 6351,2816 7014,3171 7830,3171 8648,3171 9310,2816 9310,2378 9310,1940 8648,1585 7830,1585 Z"/>
  <text fill="rgb(0,0,0)" stroke="none" x="7342" y="2298">
   <tspan x="7342 7646 7883 7997 8234">Datal</tspan></text>
  <text fill="rgb(0,0,0)" stroke="none" x="7004" y="2801">
   <tspan x="7004 7355 7592 7824 8061 8289 8526">Manager</tspan></text>
  <text fill="rgb(129,138,143)" stroke="none" x="7414" y="2687">
   <tspan x="7414 7718 7955 8069 8306">Datal</tspan></text>
  <text fill="rgb(129,138,143)" stroke="none" x="7076" y="3190">
   <tspan x="7076 7427 7664 7896 8133 8361 8598">Manager</tspan></text>
  <path fill="rgb(129,138,143)" stroke="none" d="M 7901,1973 C 7084,1973 6422,2328 6422,2766 6422,3204 7084,3559 7901,3559 8718,3559 9381,3204 9381,2766 9381,2328 8718,1973 7901,1973 Z"/>
  <path fill="rgb(204,255,255)" stroke="none" d="M 7830,1902 C 7014,1902 6351,2257 6351,2695 6351,3134 7014,3489 7830,3489 8648,3489 9310,3134 9310,2695 9310,2257 8648,1902 7830,1902 Z"/>
  <path stroke-width="26" fill="none" stroke="rgb(0,0,0)" d="M 7830,1902 C 7014,1902 6351,2257 6351,2695 6351,3134 7014,3489 7830,3489 8648,3489 9310,3134 9310,2695 9310,2257 8648,1902 7830,1902 Z"/>
  <text fill="rgb(0,0,0)" stroke="none" x="7342" y="2615">
   <tspan x="7342 7646 7883 7997 8234">Datal</tspan></text>
  <text fill="rgb(0,0,0)" stroke="none" x="7004" y="3118">
   <tspan x="7004 7355 7592 7824 8061 8289 8526">Manager</tspan></text>
  <text fill="rgb(129,138,143)" stroke="none" x="7461" y="3004">
   <tspan x="7461 7765 8002 8116">Data</tspan></text>
  <text fill="rgb(129,138,143)" stroke="none" x="7076" y="3508">
   <tspan x="7076 7427 7664 7896 8133 8361 8598">Manager</tspan></text>
  <path fill="rgb(129,138,143)" stroke="none" d="M 7901,2290 C 7084,2290 6422,2645 6422,3083 6422,3521 7084,3877 7901,3877 8718,3877 9381,3521 9381,3083 9381,2645 8718,2290 7901,2290 Z"/>
  <path fill="rgb(204,255,255)" stroke="none" d="M 7830,2219 C 7014,2219 6351,2575 6351,3013 6351,3451 7014,3806 7830,3806 8648,3806 9310,3451 9310,3013 9310,2575 8648,2219 7830,2219 Z"/>
  <path stroke-width="26" fill="none" stroke="rgb(0,0,0)" d="M 7830,2219 C 7014,2219 6351,2575 6351,3013 6351,3451 7014,3806 7830,3806 8648,3806 9310,3451 9310,3013 9310,2575 8648,2219 7830,2219 Z"/>
  <text fill="rgb(0,0,0)" stroke="none" x="7389" y="2932">
   <tspan x="7389 7693 7930 8044">Data</tspan></text>
  <text fill="rgb(0,0,0)" stroke="none" x="7004" y="3436">
   <tspan x="7004 7355 7592 7824 8061 8289 8526">Manager</tspan></text>
  <text fill="rgb(129,138,143)" stroke="none" x="7414" y="2052">
   <tspan x="7414 7718 7955 8069 8306">Datal</tspan></text>
  <text fill="rgb(129,138,143)" stroke="none" x="7076" y="2556">
   <tspan x="7076 7427 7664 7896 8133 8361 8598">Manager</tspan></text>
  <path fill="rgb(129,138,143)" stroke="none" d="M 7901,1338 C 7084,1338 6422,1693 6422,2131 6422,2569 7084,2925 7901,2925 8718,2925 9381,2569 9381,2131 9381,1693 8718,1338 7901,1338 Z"/>
  <path fill="rgb(204,255,255)" stroke="none" d="M 7830,1267 C 7014,1267 6351,1623 6351,2061 6351,2499 7014,2854 7830,2854 8648,2854 9310,2499 9310,2061 9310,1623 8648,1267 7830,1267 Z"/>
  <path stroke-width="26" fill="none" stroke="rgb(0,0,0)" d="M 7830,1267 C 7014,1267 6351,1623 6351,2061 6351,2499 7014,2854 7830,2854 8648,2854 9310,2499 9310,2061 9310,1623 8648,1267 7830,1267 Z"/>
  <text fill="rgb(0,0,0)" stroke="none" x="7342" y="1980">
   <tspan x="7342 7646 7883 7997 8234">Datal</tspan></text>
  <text fill="rgb(0,0,0)" stroke="none" x="7004" y="2484">
   <tspan x="7004 7355 7592 7824 8061 8289 8526">Manager</tspan></text>
  <text fill="rgb(129,138,143)" stroke="none" x="7414" y="2369">
   <tspan x="7414 7718 7955 8069 8306">Datal</tspan></text>
  <text fill="rgb(129,138,143)" stroke="none" x="7076" y="2873">
   <tspan x="7076 7427 7664 7896 8133 8361 8598">Manager</tspan></text>
  <path fill="rgb(129,138,143)" stroke="none" d="M 7901,1656 C 7084,1656 6422,2010 6422,2449 6422,2887 7084,3242 7901,3242 8718,3242 9381,2887 9381,2449 9381,2010 8718,1656 7901,1656 Z"/>
  <path fill="rgb(204,255,255)" stroke="none" d="M 7830,1585 C 7014,1585 6351,1940 6351,2378 6351,2816 7014,3171 7830,3171 8648,3171 9310,2816 9310,2378 9310,1940 8648,1585 7830,1585 Z"/>
  <path stroke-width="26" fill="none" stroke="rgb(0,0,0)" d="M 7830,1585 C 7014,1585 6351,1940 6351,2378 6351,2816 7014,3171 7830,3171 8648,3171 9310,2816 9310,2378 9310,1940 8648,1585 7830,1585 Z"/>
  <text fill="rgb(0,0,0)" stroke="none" x="7342" y="2298">
   <tspan x="7342 7646 7883 7997 8234">Datal</tspan></text>
  <text fill="rgb(0,0,0)" stroke="none" x="7004" y="2801">
   <tspan x="7004 7355 7592 7824 8061 8289 8526">Manager</tspan></text>
  <text fill="rgb(129,138,143)" stroke="none" x="7414" y="2687">
   <tspan x="7414 7718 7955 8069 8306">Datal</tspan></text>
  <text fill="rgb(129,138,143)" stroke="none" x="7076" y="3190">
   <tspan x="7076 7427 7664 7896 8133 8361 8598">Manager</tspan></text>
  <path fill="rgb(129,138,143)" stroke="none" d="M 7901,1973 C 7084,1973 6422,2328 6422,2766 6422,3204 7084,3559 7901,3559 8718,3559 9381,3204 9381,2766 9381,2328 8718,1973 7901,1973 Z"/>
  <path fill="rgb(204,255,255)" stroke="none" d="M 7830,1902 C 7014,1902 6351,2257 6351,2695 6351,3134 7014,3489 7830,3489 8648,3489 9310,3134 9310,2695 9310,2257 8648,1902 7830,1902 Z"/>
  <path stroke-width="26" fill="none" stroke="rgb(0,0,0)" d="M 7830,1902 C 7014,1902 6351,2257 6351,2695 6351,3134 7014,3489 7830,3489 8648,3489 9310,3134 9310,2695 9310,2257 8648,1902 7830,1902 Z"/>
  <text fill="rgb(0,0,0)" stroke="none" x="7342" y="2615">
   <tspan x="7342 7646 7883 7997 8234">Datal</tspan></text>
  <text fill="rgb(0,0,0)" stroke="none" x="7004" y="3118">
   <tspan x="7004 7355 7592 7824 8061 8289 8526">Manager</tspan></text>
  <text fill="rgb(129,138,143)" stroke="none" x="7461" y="3004">
   <tspan x="7461 7765 8002 8116">Data</tspan></text>
  <text fill="rgb(129,138,143)" stroke="none" x="7076" y="3508">
   <tspan x="7076 7427 7664 7896 8133 8361 8598">Manager</tspan></text>
  <path fill="rgb(129,138,143)" stroke="none" d="M 7901,2290 C 7084,2290 6422,2645 6422,3083 6422,3521 7084,3877 7901,3877 8718,3877 9381,3521 9381,3083 9381,2645 8718,2290 7901,2290 Z"/>
  <path fill="rgb(204,255,255)" stroke="none" d="M 7830,2219 C 7014,2219 6351,2575 6351,3013 6351,3451 7014,3806 7830,3806 8648,3806 9310,3451 9310,3013 9310,2575 8648,2219 7830,2219 Z"/>
  <path stroke-width="26" fill="none" stroke="rgb(0,0,0)" d="M 7830,2219 C 7014,2219 6351,2575 6351,3013 6351,3451 7014,3806 7830,3806 8648,3806 9310,3451 9310,3013 9310,2575 8648,2219 7830,2219 Z"/>
  <text fill="rgb(0,0,0)" stroke="none" x="7389" y="2932">
   <tspan x="7389 7693 7930 8044">Data</tspan></text>
  <text fill="rgb(0,0,0)" stroke="none" x="7004" y="3436">
   <tspan x="7004 7355 7592 7824 8061 8289 8526">Manager</tspan></text>
  <path fill="rgb(0,0,0)" stroke="rgb(0,0,0)" d="M 9310,2995 L 9394,2998 9479,3004 9562,3015 9643,3029 9721,3047 9796,3069 9868,3093 9934,3120 9996,3150 10024,3165 10052,3182 10077,3198 10101,3215 10122,3233 10142,3251 10161,3269 10177,3288 10191,3307 10203,3326 10213,3346 10220,3367 10224,3387 10226,3408 10227,3427 10231,3442 10237,3459 10244,3476 10254,3493 10267,3509 10281,3526 10298,3543 10316,3559 10337,3575 10360,3592 10384,3607 10410,3623 10437,3638 10496,3666 10561,3693 10631,3716 10704,3737 10781,3755 10860,3769 10932,3776 10929,3812 10854,3804 10773,3789 10694,3771 10619,3750 10548,3725 10482,3698 10420,3669 10391,3653 10364,3637 10339,3620 10315,3603 10293,3586 10273,3567 10254,3549 10239,3530 10224,3511 10212,3491 10203,3471 10196,3450 10192,3429 10191,3411 10189,3394 10186,3378 10181,3362 10173,3345 10163,3328 10150,3311 10136,3294 10119,3277 10101,3260 10080,3244 10057,3228 10033,3212 10007,3197 9980,3182 9921,3153 9856,3127 9787,3103 9713,3082 9637,3064 9558,3050 9476,3040 9394,3033 9310,3031 9310,2995 Z M 10903,3686 L 11106,3806 10888,3897 10903,3686 Z"/>
  <path fill="rgb(0,0,255)" stroke="rgb(0,0,255)" d="M 9839,968 L 9839,968 9794,969 9749,971 9661,980 9575,995 9490,1015 9409,1039 9330,1069 9256,1101 9187,1138 9123,1178 9094,1199 9067,1220 9040,1242 9017,1264 8994,1287 8974,1311 8977,1306 8960,1345 8928,1330 8945,1292 8945,1292 C 8946,1290 8947,1289 8948,1287 L 8948,1287 8969,1263 8993,1239 9018,1215 9045,1192 9074,1170 9105,1148 9170,1107 9242,1069 9318,1036 9398,1006 9482,981 9569,960 9658,945 9748,936 9793,934 9838,933 9839,968 Z M 9055,1344 L 9055,1344 8879,1501 8859,1266 9055,1344 Z"/>
  <path fill="rgb(0,0,255)" stroke="rgb(0,0,255)" d="M 7848,3806 L 7849,3858 7853,3909 7859,3960 7867,4011 7877,4062 7890,4114 7904,4164 7921,4215 7940,4265 7960,4316 7984,4366 8008,4416 8035,4465 8064,4514 8095,4563 8127,4612 8161,4660 8197,4707 8235,4755 8274,4802 8315,4848 8358,4894 8448,4984 8544,5072 8645,5157 8752,5240 8864,5319 8981,5395 9103,5467 9228,5536 9358,5601 9491,5663 9627,5719 9767,5772 9909,5819 10053,5862 10200,5900 10349,5932 10498,5960 10649,5981 10801,5996 10931,6003 10929,6039 10798,6032 10644,6016 10492,5994 10341,5967 10191,5934 10043,5896 9898,5853 9755,5805 9614,5752 9476,5694 9342,5633 9212,5567 9085,5498 8962,5424 8844,5347 8731,5267 8623,5185 8520,5098 8423,5009 8332,4919 8289,4872 8247,4824 8207,4777 8169,4729 8132,4681 8098,4631 8064,4582 8033,4532 8004,4482 7977,4431 7951,4380 7928,4329 7907,4278 7887,4226 7870,4174 7855,4122 7843,4069 7832,4017 7824,3964 7818,3912 7815,3859 7813,3806 7848,3806 Z M 10897,5914 L 11106,6026 10891,6125 10897,5914 Z"/>
 </g>
 <g fill="rgb(0,0,0)" stroke="none" font-family="Tahoma" font-size="283" font-style="normal" font-weight="400">
  <text x="17892" y="5483">
   <tspan x="17892 18061 18217 18280 18479 18635 18783 18939 19087 19273 19429 19585 19733 19826">CplQueueUpdate</tspan></text>
  <path fill="rgb(0,0,255)" stroke="rgb(0,0,255)" d="M 16188,5475 L 16188,5475 16190,5501 16190,5498 16196,5524 16195,5521 16207,5547 16221,5570 16240,5594 16262,5618 16288,5642 16318,5665 16352,5689 16389,5712 16429,5734 16472,5756 16519,5778 16568,5799 16620,5820 16674,5839 16731,5858 16790,5876 16850,5893 16914,5909 16978,5923 17045,5938 17182,5962 17324,5983 17469,5997 17589,6004 17587,6040 17465,6032 17318,6017 17176,5997 17037,5973 16971,5958 16905,5943 16841,5926 16780,5910 16719,5892 16662,5871 16607,5852 16554,5831 16504,5810 16456,5788 16412,5765 16370,5741 16332,5717 16297,5693 16265,5667 16236,5642 16211,5616 16191,5589 16174,5561 16163,5535 16163,5535 C 16162,5534 16162,5534 16162,5533 L 16155,5508 16155,5508 C 16155,5507 16155,5506 16155,5504 L 16153,5478 16188,5475 Z M 17556,5915 L 17556,5915 17763,6027 17549,6126 17556,5915 Z"/>
 </g>
 <g fill="rgb(129,138,143)" stroke="none" font-family="Arial" font-size="423" font-style="normal" font-weight="400">
  <text x="20792" y="4908">
   <tspan x="20792 21096 21328 21683 21915 22008 22245 22363 22452 22684">Completion</tspan></text>
  <text fill="rgb(129,138,143)" stroke="none" x="21024" y="5411">
   <tspan x="21024 21375 21612 21844 22081 22309 22546">Manager</tspan></text>
  <path fill="rgb(129,138,143)" stroke="none" d="M 21850,4194 C 21033,4194 20370,4549 20370,4987 20370,5425 21033,5781 21850,5781 22666,5781 23329,5425 23329,4987 23329,4549 22666,4194 21850,4194 Z"/>
  <path fill="rgb(255,204,153)" stroke="none" d="M 21779,4123 C 20962,4123 20299,4479 20299,4916 20299,5355 20962,5710 21779,5710 22597,5710 23258,5355 23258,4916 23258,4479 22597,4123 21779,4123 Z"/>
  <path stroke-width="26" fill="none" stroke="rgb(0,0,0)" d="M 21779,4123 C 20962,4123 20299,4479 20299,4916 20299,5355 20962,5710 21779,5710 22597,5710 23258,5355 23258,4916 23258,4479 22597,4123 21779,4123 Z"/>
  <text fill="rgb(0,0,0)" stroke="none" x="20720" y="4836">
   <tspan x="20720 21024 21256 21611 21843 21936 22173 22291 22380 22612">Completion</tspan></text>
  <text fill="rgb(0,0,0)" stroke="none" x="20952" y="5339">
   <tspan x="20952 21303 21540 21772 22009 22237 22474">Manager</tspan></text>
  <text fill="rgb(129,138,143)" stroke="none" x="482" y="2052">
   <tspan x="482 765 997 1229 1584 1677 1888 2099 2188 2425">Submission</tspan></text>
  <text fill="rgb(129,138,143)" stroke="none" x="736" y="2556">
   <tspan x="736 1087 1324 1556 1793 2021 2258">Manager</tspan></text>
  <path fill="rgb(129,138,143)" stroke="none" d="M 1561,1338 C 744,1338 81,1693 81,2131 81,2569 744,2924 1561,2924 2378,2924 3040,2569 3040,2131 3040,1693 2378,1338 1561,1338 Z"/>
  <path fill="rgb(255,204,153)" stroke="none" d="M 1490,1267 C 673,1267 11,1623 11,2061 11,2499 673,2854 1490,2854 2307,2854 2970,2499 2970,2061 2970,1623 2307,1267 1490,1267 Z"/>
  <path stroke-width="26" fill="none" stroke="rgb(0,0,0)" d="M 1490,1267 C 673,1267 11,1623 11,2061 11,2499 673,2854 1490,2854 2307,2854 2970,2499 2970,2061 2970,1623 2307,1267 1490,1267 Z"/>
  <text fill="rgb(0,0,0)" stroke="none" x="410" y="1980">
   <tspan x="410 693 925 1157 1512 1605 1816 2027 2116 2353">Submission</tspan></text>
  <text fill="rgb(0,0,0)" stroke="none" x="664" y="2484">
   <tspan x="664 1015 1252 1484 1721 1949 2186">Manager</tspan></text>
 </g>
 <g fill="rgb(0,0,0)" stroke="none" font-family="Tahoma" font-size="283" font-style="normal" font-weight="400">
  <text x="4117" y="406">
   <tspan x="4117 4286 4523 4679 4857 5005 5153 5309 5448 5600">CmdReady64</tspan></text>
  <path fill="rgb(0,0,0)" stroke="rgb(0,0,0)" d="M 2521,1500 L 2523,1474 2523,1474 C 2523,1473 2523,1472 2523,1471 L 2523,1471 2528,1446 2538,1418 2551,1391 2568,1364 2587,1338 2610,1312 2636,1286 2664,1262 2695,1237 2729,1214 2765,1191 2803,1169 2843,1147 2886,1126 2930,1106 2977,1087 3025,1069 3074,1052 3125,1035 3231,1005 3343,980 3457,960 3575,945 3638,941 3640,976 3579,980 3463,995 3350,1015 3241,1039 3136,1069 3086,1085 3037,1102 2990,1120 2945,1138 2901,1158 2860,1178 2821,1199 2783,1221 2749,1243 2717,1265 2687,1288 2660,1312 2637,1335 2616,1359 2598,1383 2583,1406 2571,1430 2563,1454 2558,1479 2558,1477 2556,1502 2521,1500 Z M 3599,855 L 3599,855 3815,950 3609,1066 3599,855 Z"/>
  <text fill="rgb(0,0,0)" stroke="none" x="9980" y="406">
   <tspan x="9980 10149 10305 10542 10605 10761 10850 11028 11176 11332 11488 11636 11763">Admin Request</tspan></text>
  <text fill="rgb(0,0,0)" stroke="none" x="17702" y="3262">
   <tspan x="17702 17871 18027 18090 18289 18445 18593 18749 18897 19083 19239 19395 19543 19636 19784 19953 20109">CplQueueUpdateCpl</tspan></text>
  <path fill="rgb(0,128,0)" stroke="rgb(0,128,0)" d="M 17764,3824 L 17764,3824 17689,3825 17615,3827 17467,3836 17323,3851 17181,3871 17044,3896 16978,3911 16914,3925 16850,3941 16789,3958 16731,3976 16674,3995 16619,4015 16567,4035 16517,4056 16472,4078 16429,4100 16388,4123 16351,4146 16318,4170 16320,4166 16274,4218 16248,4195 16293,4143 16293,4143 C 16295,4142 16296,4141 16297,4141 L 16297,4141 16333,4116 16371,4092 16412,4069 16457,4046 16504,4024 16554,4003 16607,3981 16662,3961 16720,3943 16780,3924 16842,3907 16905,3890 16971,3876 17038,3861 17176,3836 17320,3816 17465,3802 17614,3792 17689,3790 17763,3789 17764,3824 Z M 16371,4231 L 16371,4231 16170,4357 16190,4122 16371,4231 Z"/>
  <path fill="rgb(129,138,143)" stroke="none" d="M 3886,703 L 3886,1338 4889,1338 4889,703 3886,703 Z"/>
  <path fill="rgb(255,255,255)" stroke="none" d="M 3815,633 L 3815,1267 4819,1267 4819,633 3815,633 Z"/>
  <path fill="rgb(129,138,143)" stroke="none" d="M 4837,703 L 4837,1338 5154,1338 5154,703 4837,703 Z"/>
  <path fill="rgb(255,255,255)" stroke="none" d="M 4766,633 L 4766,1267 5083,1267 5083,633 4766,633 Z"/>
  <path fill="none" stroke="none" d="M 4766,633 L 4766,1267 5083,1267 5083,633 4766,633 Z"/>
  <path stroke-width="35" fill="none" stroke="rgb(0,0,0)" d="M 4766,633 L 4766,1267 5083,1267 5083,633 4766,633 Z"/>
  <path fill="rgb(129,138,143)" stroke="none" d="M 5154,703 L 5154,1338 5471,1338 5471,703 5154,703 Z"/>
  <path fill="rgb(255,255,255)" stroke="none" d="M 5083,633 L 5083,1267 5400,1267 5400,633 5083,633 Z"/>
  <path fill="none" stroke="none" d="M 5083,633 L 5083,1267 5400,1267 5400,633 5083,633 Z"/>
  <path stroke-width="35" fill="none" stroke="rgb(0,0,0)" d="M 5083,633 L 5083,1267 5400,1267 5400,633 5083,633 Z"/>
  <path fill="rgb(129,138,143)" stroke="none" d="M 5471,703 L 5471,1338 5788,1338 5788,703 5471,703 Z"/>
  <path fill="rgb(255,255,255)" stroke="none" d="M 5400,633 L 5400,1267 5717,1267 5717,633 5400,633 Z"/>
  <path fill="none" stroke="none" d="M 5400,633 L 5400,1267 5717,1267 5717,633 5400,633 Z"/>
  <path stroke-width="35" fill="none" stroke="rgb(0,0,0)" d="M 5400,633 L 5400,1267 5717,1267 5717,633 5400,633 Z"/>
  <path stroke-width="35" fill="none" stroke="rgb(0,0,0)" d="M 4766,1267 L 3815,1267"/>
  <path stroke-width="35" fill="none" stroke="rgb(0,0,0)" d="M 4766,633 L 3815,633"/>
  <path fill="rgb(129,138,143)" stroke="none" d="M 3886,703 L 3886,1338 4889,1338 4889,703 3886,703 Z"/>
  <path fill="rgb(255,255,255)" stroke="none" d="M 3815,633 L 3815,1267 4819,1267 4819,633 3815,633 Z"/>
  <path fill="rgb(129,138,143)" stroke="none" d="M 4837,703 L 4837,1338 5154,1338 5154,703 4837,703 Z"/>
  <path fill="rgb(255,255,255)" stroke="none" d="M 4766,633 L 4766,1267 5083,1267 5083,633 4766,633 Z"/>
  <path fill="none" stroke="none" d="M 4766,633 L 4766,1267 5083,1267 5083,633 4766,633 Z"/>
  <path stroke-width="35" fill="none" stroke="rgb(0,0,0)" d="M 4766,633 L 4766,1267 5083,1267 5083,633 4766,633 Z"/>
  <path fill="rgb(129,138,143)" stroke="none" d="M 5154,703 L 5154,1338 5471,1338 5471,703 5154,703 Z"/>
  <path fill="rgb(255,255,255)" stroke="none" d="M 5083,633 L 5083,1267 5400,1267 5400,633 5083,633 Z"/>
  <path fill="none" stroke="none" d="M 5083,633 L 5083,1267 5400,1267 5400,633 5083,633 Z"/>
  <path stroke-width="35" fill="none" stroke="rgb(0,0,0)" d="M 5083,633 L 5083,1267 5400,1267 5400,633 5083,633 Z"/>
  <path fill="rgb(129,138,143)" stroke="none" d="M 5471,703 L 5471,1338 5788,1338 5788,703 5471,703 Z"/>
  <path fill="rgb(255,255,255)" stroke="none" d="M 5400,633 L 5400,1267 5717,1267 5717,633 5400,633 Z"/>
  <path fill="none" stroke="none" d="M 5400,633 L 5400,1267 5717,1267 5717,633 5400,633 Z"/>
  <path stroke-width="35" fill="none" stroke="rgb(0,0,0)" d="M 5400,633 L 5400,1267 5717,1267 5717,633 5400,633 Z"/>
  <path stroke-width="35" fill="none" stroke="rgb(0,0,0)" d="M 4766,1267 L 3815,1267"/>
  <path stroke-width="35" fill="none" stroke="rgb(0,0,0)" d="M 4766,633 L 3815,633"/>
  <path fill="rgb(0,0,0)" stroke="rgb(0,0,0)" d="M 5718,933 L 5718,933 5768,933 5818,936 5918,945 6016,960 6112,980 6205,1005 6294,1035 6378,1069 6457,1106 6495,1127 6530,1148 6564,1169 6596,1191 6626,1214 6654,1238 6680,1262 6704,1287 6704,1287 C 6705,1288 6706,1289 6707,1291 L 6707,1291 6728,1332 6697,1348 6675,1307 6678,1311 6656,1288 6632,1265 6605,1242 6576,1220 6545,1199 6513,1178 6478,1158 6442,1138 6365,1102 6283,1069 6196,1039 6105,1015 6011,995 5914,980 5816,971 5767,969 5717,968 5718,933 Z M 6795,1265 L 6795,1265 6783,1501 6602,1350 6795,1265 Z"/>
 </g>
 <g fill="rgb(129,138,143)" stroke="none" font-family="Tahoma" font-size="495" font-style="normal" font-weight="400">
  <text x="4709" y="1858">1</text>
  <path fill="rgb(129,138,143)" stroke="none" d="M 4837,1338 C 4661,1338 4520,1480 4520,1655 4520,1831 4661,1973 4837,1973 5012,1973 5154,1831 5154,1655 5154,1480 5012,1338 4837,1338 Z"/>
  <path fill="rgb(255,255,255)" stroke="none" d="M 4766,1267 C 4591,1267 4449,1410 4449,1585 4449,1760 4591,1902 4766,1902 4941,1902 5083,1760 5083,1585 5083,1410 4941,1267 4766,1267 Z"/>
  <path stroke-width="35" fill="none" stroke="rgb(255,0,0)" d="M 4766,1267 C 4591,1267 4449,1410 4449,1585 4449,1760 4591,1902 4766,1902 4941,1902 5083,1760 5083,1585 5083,1410 4941,1267 4766,1267 Z"/>
  <text fill="rgb(0,0,0)" stroke="none" x="4637" y="1786">1</text>
  <path fill="rgb(129,138,143)" stroke="none" d="M 11177,5781 L 11177,6415 12181,6415 12181,5781 11177,5781 Z"/>
  <path fill="rgb(255,255,255)" stroke="none" d="M 11106,5710 L 11106,6344 12110,6344 12110,5710 11106,5710 Z"/>
  <path fill="rgb(129,138,143)" stroke="none" d="M 12128,5781 L 12128,6415 12445,6415 12445,5781 12128,5781 Z"/>
  <path fill="rgb(255,255,255)" stroke="none" d="M 12057,5710 L 12057,6344 12374,6344 12374,5710 12057,5710 Z"/>
  <path fill="none" stroke="none" d="M 12057,5710 L 12057,6344 12374,6344 12374,5710 12057,5710 Z"/>
  <path stroke-width="35" fill="none" stroke="rgb(0,0,0)" d="M 12057,5710 L 12057,6344 12374,6344 12374,5710 12057,5710 Z"/>
  <path fill="rgb(129,138,143)" stroke="none" d="M 12445,5781 L 12445,6415 12762,6415 12762,5781 12445,5781 Z"/>
  <path fill="rgb(255,255,255)" stroke="none" d="M 12374,5710 L 12374,6344 12691,6344 12691,5710 12374,5710 Z"/>
  <path fill="none" stroke="none" d="M 12374,5710 L 12374,6344 12691,6344 12691,5710 12374,5710 Z"/>
  <path stroke-width="35" fill="none" stroke="rgb(0,0,0)" d="M 12374,5710 L 12374,6344 12691,6344 12691,5710 12374,5710 Z"/>
  <path fill="rgb(129,138,143)" stroke="none" d="M 12762,5781 L 12762,6415 13079,6415 13079,5781 12762,5781 Z"/>
  <path fill="rgb(255,255,255)" stroke="none" d="M 12691,5710 L 12691,6344 13008,6344 13008,5710 12691,5710 Z"/>
  <path fill="none" stroke="none" d="M 12691,5710 L 12691,6344 13008,6344 13008,5710 12691,5710 Z"/>
  <path stroke-width="35" fill="none" stroke="rgb(0,0,0)" d="M 12691,5710 L 12691,6344 13008,6344 13008,5710 12691,5710 Z"/>
  <path stroke-width="35" fill="none" stroke="rgb(0,0,0)" d="M 12057,6344 L 11106,6344"/>
  <path stroke-width="35" fill="none" stroke="rgb(0,0,0)" d="M 12057,5710 L 11106,5710"/>
  <path fill="rgb(129,138,143)" stroke="none" d="M 11177,5781 L 11177,6415 12181,6415 12181,5781 11177,5781 Z"/>
  <path fill="rgb(255,255,255)" stroke="none" d="M 11106,5710 L 11106,6344 12110,6344 12110,5710 11106,5710 Z"/>
  <path fill="rgb(129,138,143)" stroke="none" d="M 12128,5781 L 12128,6415 12445,6415 12445,5781 12128,5781 Z"/>
  <path fill="rgb(255,255,255)" stroke="none" d="M 12057,5710 L 12057,6344 12374,6344 12374,5710 12057,5710 Z"/>
  <path fill="none" stroke="none" d="M 12057,5710 L 12057,6344 12374,6344 12374,5710 12057,5710 Z"/>
  <path stroke-width="35" fill="none" stroke="rgb(0,0,0)" d="M 12057,5710 L 12057,6344 12374,6344 12374,5710 12057,5710 Z"/>
  <path fill="rgb(129,138,143)" stroke="none" d="M 12445,5781 L 12445,6415 12762,6415 12762,5781 12445,5781 Z"/>
  <path fill="rgb(255,255,255)" stroke="none" d="M 12374,5710 L 12374,6344 12691,6344 12691,5710 12374,5710 Z"/>
  <path fill="none" stroke="none" d="M 12374,5710 L 12374,6344 12691,6344 12691,5710 12374,5710 Z"/>
  <path stroke-width="35" fill="none" stroke="rgb(0,0,0)" d="M 12374,5710 L 12374,6344 12691,6344 12691,5710 12374,5710 Z"/>
  <path fill="rgb(129,138,143)" stroke="none" d="M 12762,5781 L 12762,6415 13079,6415 13079,5781 12762,5781 Z"/>
  <path fill="rgb(255,255,255)" stroke="none" d="M 12691,5710 L 12691,6344 13008,6344 13008,5710 12691,5710 Z"/>
  <path fill="none" stroke="none" d="M 12691,5710 L 12691,6344 13008,6344 13008,5710 12691,5710 Z"/>
  <path stroke-width="35" fill="none" stroke="rgb(0,0,0)" d="M 12691,5710 L 12691,6344 13008,6344 13008,5710 12691,5710 Z"/>
  <path stroke-width="35" fill="none" stroke="rgb(0,0,0)" d="M 12057,6344 L 11106,6344"/>
  <path stroke-width="35" fill="none" stroke="rgb(0,0,0)" d="M 12057,5710 L 11106,5710"/>
  <path fill="rgb(129,138,143)" stroke="none" d="M 11177,3559 L 11177,4194 12181,4194 12181,3559 11177,3559 Z"/>
  <path fill="rgb(255,255,255)" stroke="none" d="M 11106,3489 L 11106,4123 12110,4123 12110,3489 11106,3489 Z"/>
  <path fill="rgb(129,138,143)" stroke="none" d="M 12128,3559 L 12128,4194 12445,4194 12445,3559 12128,3559 Z"/>
  <path fill="rgb(255,255,255)" stroke="none" d="M 12057,3489 L 12057,4123 12374,4123 12374,3489 12057,3489 Z"/>
  <path fill="none" stroke="none" d="M 12057,3489 L 12057,4123 12374,4123 12374,3489 12057,3489 Z"/>
  <path stroke-width="35" fill="none" stroke="rgb(0,0,0)" d="M 12057,3489 L 12057,4123 12374,4123 12374,3489 12057,3489 Z"/>
  <path fill="rgb(129,138,143)" stroke="none" d="M 12445,3559 L 12445,4194 12762,4194 12762,3559 12445,3559 Z"/>
  <path fill="rgb(255,255,255)" stroke="none" d="M 12374,3489 L 12374,4123 12691,4123 12691,3489 12374,3489 Z"/>
  <path fill="none" stroke="none" d="M 12374,3489 L 12374,4123 12691,4123 12691,3489 12374,3489 Z"/>
  <path stroke-width="35" fill="none" stroke="rgb(0,0,0)" d="M 12374,3489 L 12374,4123 12691,4123 12691,3489 12374,3489 Z"/>
  <path fill="rgb(129,138,143)" stroke="none" d="M 12762,3559 L 12762,4194 13079,4194 13079,3559 12762,3559 Z"/>
  <path fill="rgb(255,255,255)" stroke="none" d="M 12691,3489 L 12691,4123 13008,4123 13008,3489 12691,3489 Z"/>
  <path fill="none" stroke="none" d="M 12691,3489 L 12691,4123 13008,4123 13008,3489 12691,3489 Z"/>
  <path stroke-width="35" fill="none" stroke="rgb(0,0,0)" d="M 12691,3489 L 12691,4123 13008,4123 13008,3489 12691,3489 Z"/>
  <path stroke-width="35" fill="none" stroke="rgb(0,0,0)" d="M 12057,4123 L 11106,4123"/>
  <path stroke-width="35" fill="none" stroke="rgb(0,0,0)" d="M 12057,3489 L 11106,3489"/>
  <path fill="rgb(129,138,143)" stroke="none" d="M 11177,3559 L 11177,4194 12181,4194 12181,3559 11177,3559 Z"/>
  <path fill="rgb(255,255,255)" stroke="none" d="M 11106,3489 L 11106,4123 12110,4123 12110,3489 11106,3489 Z"/>
  <path fill="rgb(129,138,143)" stroke="none" d="M 12128,3559 L 12128,4194 12445,4194 12445,3559 12128,3559 Z"/>
  <path fill="rgb(255,255,255)" stroke="none" d="M 12057,3489 L 12057,4123 12374,4123 12374,3489 12057,3489 Z"/>
  <path fill="none" stroke="none" d="M 12057,3489 L 12057,4123 12374,4123 12374,3489 12057,3489 Z"/>
  <path stroke-width="35" fill="none" stroke="rgb(0,0,0)" d="M 12057,3489 L 12057,4123 12374,4123 12374,3489 12057,3489 Z"/>
  <path fill="rgb(129,138,143)" stroke="none" d="M 12445,3559 L 12445,4194 12762,4194 12762,3559 12445,3559 Z"/>
  <path fill="rgb(255,255,255)" stroke="none" d="M 12374,3489 L 12374,4123 12691,4123 12691,3489 12374,3489 Z"/>
  <path fill="none" stroke="none" d="M 12374,3489 L 12374,4123 12691,4123 12691,3489 12374,3489 Z"/>
  <path stroke-width="35" fill="none" stroke="rgb(0,0,0)" d="M 12374,3489 L 12374,4123 12691,4123 12691,3489 12374,3489 Z"/>
  <path fill="rgb(129,138,143)" stroke="none" d="M 12762,3559 L 12762,4194 13079,4194 13079,3559 12762,3559 Z"/>
  <path fill="rgb(255,255,255)" stroke="none" d="M 12691,3489 L 12691,4123 13008,4123 13008,3489 12691,3489 Z"/>
  <path fill="none" stroke="none" d="M 12691,3489 L 12691,4123 13008,4123 13008,3489 12691,3489 Z"/>
  <path stroke-width="35" fill="none" stroke="rgb(0,0,0)" d="M 12691,3489 L 12691,4123 13008,4123 13008,3489 12691,3489 Z"/>
  <path stroke-width="35" fill="none" stroke="rgb(0,0,0)" d="M 12057,4123 L 11106,4123"/>
  <path stroke-width="35" fill="none" stroke="rgb(0,0,0)" d="M 12057,3489 L 11106,3489"/>
  <path fill="rgb(0,0,0)" stroke="rgb(0,0,0)" d="M 13009,3788 L 13009,3788 13058,3789 13109,3792 13209,3801 13307,3816 13403,3836 13496,3861 13586,3891 13670,3925 13748,3962 13786,3982 13822,4004 13856,4025 13887,4047 13918,4070 13946,4094 13971,4118 13995,4143 13995,4143 C 13996,4144 13997,4145 13998,4147 L 13998,4147 14019,4188 13988,4204 13967,4163 13970,4167 13948,4144 13923,4121 13896,4098 13867,4076 13837,4055 13804,4034 13770,4014 13734,3994 13656,3958 13574,3925 13487,3895 13396,3871 13302,3851 13205,3836 13108,3827 13058,3824 13008,3824 13009,3788 Z M 14087,4121 L 14087,4121 14074,4357 13893,4206 14087,4121 Z"/>
  <path fill="rgb(0,0,255)" stroke="rgb(0,0,255)" d="M 13008,6010 L 13008,6010 13058,6009 13108,6006 13205,5997 13302,5983 13396,5962 13487,5938 13574,5909 13656,5876 13734,5839 13770,5820 13804,5800 13837,5779 13867,5757 13896,5735 13923,5713 13948,5690 13970,5666 13967,5671 13988,5630 14019,5646 13998,5687 13998,5687 C 13997,5689 13996,5690 13995,5691 L 13995,5691 13971,5715 13946,5740 13918,5764 13887,5786 13856,5809 13822,5830 13786,5851 13748,5871 13670,5909 13585,5942 13496,5972 13403,5997 13307,6017 13209,6032 13109,6042 13058,6044 13009,6045 13008,6010 Z M 13893,5628 L 13893,5628 14074,5476 14087,5713 13893,5628 Z"/>
  <text fill="rgb(129,138,143)" stroke="none" x="12000" y="6934">4</text>
  <path fill="rgb(129,138,143)" stroke="none" d="M 12128,6415 C 11953,6415 11811,6557 11811,6732 11811,6907 11953,7050 12128,7050 12303,7050 12445,6907 12445,6732 12445,6557 12303,6415 12128,6415 Z"/>
  <path fill="rgb(255,255,255)" stroke="none" d="M 12057,6344 C 11882,6344 11740,6487 11740,6662 11740,6837 11882,6979 12057,6979 12233,6979 12374,6837 12374,6662 12374,6487 12233,6344 12057,6344 Z"/>
  <path stroke-width="35" fill="none" stroke="rgb(255,0,0)" d="M 12057,6344 C 11882,6344 11740,6487 11740,6662 11740,6837 11882,6979 12057,6979 12233,6979 12374,6837 12374,6662 12374,6487 12233,6344 12057,6344 Z"/>
  <text fill="rgb(0,0,0)" stroke="none" x="11928" y="6863">4</text>
  <text fill="rgb(129,138,143)" stroke="none" x="12000" y="4713">2</text>
  <path fill="rgb(129,138,143)" stroke="none" d="M 12128,4194 C 11953,4194 11811,4336 11811,4511 11811,4686 11953,4829 12128,4829 12303,4829 12445,4686 12445,4511 12445,4336 12303,4194 12128,4194 Z"/>
  <path fill="rgb(255,255,255)" stroke="none" d="M 12057,4123 C 11882,4123 11740,4265 11740,4440 11740,4616 11882,4758 12057,4758 12233,4758 12374,4616 12374,4440 12374,4265 12233,4123 12057,4123 Z"/>
  <path stroke-width="35" fill="none" stroke="rgb(255,0,0)" d="M 12057,4123 C 11882,4123 11740,4265 11740,4440 11740,4616 11882,4758 12057,4758 12233,4758 12374,4616 12374,4440 12374,4265 12233,4123 12057,4123 Z"/>
  <text fill="rgb(0,0,0)" stroke="none" x="11928" y="4641">2</text>
  <path fill="rgb(129,138,143)" stroke="none" d="M 17834,5781 L 17834,6415 18838,6415 18838,5781 17834,5781 Z"/>
  <path fill="rgb(255,255,255)" stroke="none" d="M 17763,5710 L 17763,6344 18767,6344 18767,5710 17763,5710 Z"/>
  <path fill="rgb(129,138,143)" stroke="none" d="M 18785,5781 L 18785,6415 19102,6415 19102,5781 18785,5781 Z"/>
  <path fill="rgb(255,255,255)" stroke="none" d="M 18714,5710 L 18714,6344 19031,6344 19031,5710 18714,5710 Z"/>
  <path fill="none" stroke="none" d="M 18714,5710 L 18714,6344 19031,6344 19031,5710 18714,5710 Z"/>
  <path stroke-width="35" fill="none" stroke="rgb(0,0,0)" d="M 18714,5710 L 18714,6344 19031,6344 19031,5710 18714,5710 Z"/>
  <path fill="rgb(129,138,143)" stroke="none" d="M 19102,5781 L 19102,6415 19419,6415 19419,5781 19102,5781 Z"/>
  <path fill="rgb(255,255,255)" stroke="none" d="M 19031,5710 L 19031,6344 19348,6344 19348,5710 19031,5710 Z"/>
  <path fill="none" stroke="none" d="M 19031,5710 L 19031,6344 19348,6344 19348,5710 19031,5710 Z"/>
  <path stroke-width="35" fill="none" stroke="rgb(0,0,0)" d="M 19031,5710 L 19031,6344 19348,6344 19348,5710 19031,5710 Z"/>
  <path fill="rgb(129,138,143)" stroke="none" d="M 19419,5781 L 19419,6415 19736,6415 19736,5781 19419,5781 Z"/>
  <path fill="rgb(255,255,255)" stroke="none" d="M 19348,5710 L 19348,6344 19665,6344 19665,5710 19348,5710 Z"/>
  <path fill="none" stroke="none" d="M 19348,5710 L 19348,6344 19665,6344 19665,5710 19348,5710 Z"/>
  <path stroke-width="35" fill="none" stroke="rgb(0,0,0)" d="M 19348,5710 L 19348,6344 19665,6344 19665,5710 19348,5710 Z"/>
  <path stroke-width="35" fill="none" stroke="rgb(0,0,0)" d="M 18714,6344 L 17763,6344"/>
  <path stroke-width="35" fill="none" stroke="rgb(0,0,0)" d="M 18714,5710 L 17763,5710"/>
  <path fill="rgb(129,138,143)" stroke="none" d="M 17834,5781 L 17834,6415 18838,6415 18838,5781 17834,5781 Z"/>
  <path fill="rgb(255,255,255)" stroke="none" d="M 17763,5710 L 17763,6344 18767,6344 18767,5710 17763,5710 Z"/>
  <path fill="rgb(129,138,143)" stroke="none" d="M 18785,5781 L 18785,6415 19102,6415 19102,5781 18785,5781 Z"/>
  <path fill="rgb(255,255,255)" stroke="none" d="M 18714,5710 L 18714,6344 19031,6344 19031,5710 18714,5710 Z"/>
  <path fill="none" stroke="none" d="M 18714,5710 L 18714,6344 19031,6344 19031,5710 18714,5710 Z"/>
  <path stroke-width="35" fill="none" stroke="rgb(0,0,0)" d="M 18714,5710 L 18714,6344 19031,6344 19031,5710 18714,5710 Z"/>
  <path fill="rgb(129,138,143)" stroke="none" d="M 19102,5781 L 19102,6415 19419,6415 19419,5781 19102,5781 Z"/>
  <path fill="rgb(255,255,255)" stroke="none" d="M 19031,5710 L 19031,6344 19348,6344 19348,5710 19031,5710 Z"/>
  <path fill="none" stroke="none" d="M 19031,5710 L 19031,6344 19348,6344 19348,5710 19031,5710 Z"/>
  <path stroke-width="35" fill="none" stroke="rgb(0,0,0)" d="M 19031,5710 L 19031,6344 19348,6344 19348,5710 19031,5710 Z"/>
  <path fill="rgb(129,138,143)" stroke="none" d="M 19419,5781 L 19419,6415 19736,6415 19736,5781 19419,5781 Z"/>
  <path fill="rgb(255,255,255)" stroke="none" d="M 19348,5710 L 19348,6344 19665,6344 19665,5710 19348,5710 Z"/>
  <path fill="none" stroke="none" d="M 19348,5710 L 19348,6344 19665,6344 19665,5710 19348,5710 Z"/>
  <path stroke-width="35" fill="none" stroke="rgb(0,0,0)" d="M 19348,5710 L 19348,6344 19665,6344 19665,5710 19348,5710 Z"/>
  <path stroke-width="35" fill="none" stroke="rgb(0,0,0)" d="M 18714,6344 L 17763,6344"/>
  <path stroke-width="35" fill="none" stroke="rgb(0,0,0)" d="M 18714,5710 L 17763,5710"/>
  <path fill="rgb(0,0,255)" stroke="rgb(0,0,255)" d="M 19665,6010 L 19665,6010 19715,6009 19765,6007 19863,5997 19959,5983 20053,5962 20144,5938 20232,5910 20314,5876 20391,5840 20427,5821 20461,5800 20494,5779 20524,5757 20554,5735 20580,5713 20605,5691 20627,5666 20624,5671 20646,5630 20677,5646 20655,5687 20655,5687 C 20654,5689 20653,5690 20652,5691 L 20652,5691 20629,5716 20603,5740 20575,5764 20545,5787 20513,5809 20479,5830 20443,5851 20406,5871 20327,5909 20242,5942 20154,5972 20061,5997 19964,6017 19866,6032 19767,6042 19716,6044 19666,6045 19665,6010 Z M 20550,5628 L 20550,5628 20732,5477 20744,5713 20550,5628 Z"/>
  <path fill="rgb(255,255,255)" stroke="none" d="M 11423,633 L 11423,1267 11740,1267 11740,633 11423,633 Z"/>
  <path fill="rgb(129,138,143)" stroke="none" d="M 9909,704 L 9909,1338 11811,1338 11811,704 9909,704 Z"/>
  <path fill="rgb(255,255,255)" stroke="none" d="M 9838,633 L 9838,1267 11740,1267 11740,633 9838,633 Z"/>
  <path stroke-width="35" fill="none" stroke="rgb(0,0,0)" d="M 11740,633 L 9838,633 9838,1267 11740,1267"/>
  <path fill="rgb(255,255,255)" stroke="none" d="M 9838,633 L 9838,1267 10155,1267 10155,633 9838,633 Z"/>
  <path fill="none" stroke="none" d="M 10155,1267 L 10155,633 9838,633 9838,1267 10155,1267 Z"/>
  <path stroke-width="35" fill="none" stroke="rgb(0,0,0)" d="M 10155,1267 L 10155,633 9838,633 9838,1267 10155,1267 Z"/>
  <path fill="rgb(255,255,255)" stroke="none" d="M 10155,633 L 10155,1267 10472,1267 10472,633 10155,633 Z"/>
  <path fill="none" stroke="none" d="M 10472,1267 L 10472,633 10155,633 10155,1267 10472,1267 Z"/>
  <path stroke-width="35" fill="none" stroke="rgb(0,0,0)" d="M 10472,1267 L 10472,633 10155,633 10155,1267 10472,1267 Z"/>
  <path fill="rgb(255,255,255)" stroke="none" d="M 10472,633 L 10472,1267 10789,1267 10789,633 10472,633 Z"/>
  <path fill="none" stroke="none" d="M 10789,1267 L 10789,633 10472,633 10472,1267 10789,1267 Z"/>
  <path stroke-width="35" fill="none" stroke="rgb(0,0,0)" d="M 10789,1267 L 10789,633 10472,633 10472,1267 10789,1267 Z"/>
  <path fill="rgb(255,255,255)" stroke="none" d="M 11423,633 L 11423,1267 11740,1267 11740,633 11423,633 Z"/>
  <path fill="rgb(129,138,143)" stroke="none" d="M 9909,704 L 9909,1338 11811,1338 11811,704 9909,704 Z"/>
  <path fill="rgb(255,255,255)" stroke="none" d="M 9838,633 L 9838,1267 11740,1267 11740,633 9838,633 Z"/>
  <path stroke-width="35" fill="none" stroke="rgb(0,0,0)" d="M 11740,633 L 9838,633 9838,1267 11740,1267"/>
  <path fill="rgb(255,255,255)" stroke="none" d="M 9838,633 L 9838,1267 10155,1267 10155,633 9838,633 Z"/>
  <path fill="none" stroke="none" d="M 10155,1267 L 10155,633 9838,633 9838,1267 10155,1267 Z"/>
  <path stroke-width="35" fill="none" stroke="rgb(0,0,0)" d="M 10155,1267 L 10155,633 9838,633 9838,1267 10155,1267 Z"/>
  <path fill="rgb(255,255,255)" stroke="none" d="M 10155,633 L 10155,1267 10472,1267 10472,633 10155,633 Z"/>
  <path fill="none" stroke="none" d="M 10472,1267 L 10472,633 10155,633 10155,1267 10472,1267 Z"/>
  <path stroke-width="35" fill="none" stroke="rgb(0,0,0)" d="M 10472,1267 L 10472,633 10155,633 10155,1267 10472,1267 Z"/>
  <path fill="rgb(255,255,255)" stroke="none" d="M 10472,633 L 10472,1267 10789,1267 10789,633 10472,633 Z"/>
  <path fill="none" stroke="none" d="M 10789,1267 L 10789,633 10472,633 10472,1267 10789,1267 Z"/>
  <path stroke-width="35" fill="none" stroke="rgb(0,0,0)" d="M 10789,1267 L 10789,633 10472,633 10472,1267 10789,1267 Z"/>
  <text fill="rgb(129,138,143)" stroke="none" x="10732" y="1858">3</text>
  <path fill="rgb(129,138,143)" stroke="none" d="M 10860,1338 C 10685,1338 10543,1480 10543,1656 10543,1831 10685,1973 10860,1973 11035,1973 11177,1831 11177,1656 11177,1480 11035,1338 10860,1338 Z"/>
  <path fill="rgb(255,255,255)" stroke="none" d="M 10789,1267 C 10614,1267 10472,1410 10472,1585 10472,1760 10614,1902 10789,1902 10965,1902 11106,1760 11106,1585 11106,1410 10965,1267 10789,1267 Z"/>
  <path stroke-width="35" fill="none" stroke="rgb(255,0,0)" d="M 10789,1267 C 10614,1267 10472,1410 10472,1585 10472,1760 10614,1902 10789,1902 10965,1902 11106,1760 11106,1585 11106,1410 10965,1267 10789,1267 Z"/>
  <text fill="rgb(0,0,0)" stroke="none" x="10660" y="1786">3</text>
  <path fill="rgb(255,255,255)" stroke="none" d="M 19348,3489 L 19348,4123 19665,4123 19665,3489 19348,3489 Z"/>
  <path fill="rgb(129,138,143)" stroke="none" d="M 17834,3559 L 17834,4194 19736,4194 19736,3559 17834,3559 Z"/>
  <path fill="rgb(255,255,255)" stroke="none" d="M 17763,3489 L 17763,4123 19665,4123 19665,3489 17763,3489 Z"/>
  <path stroke-width="35" fill="none" stroke="rgb(0,0,0)" d="M 19665,3489 L 17763,3489 17763,4123 19665,4123"/>
  <path fill="rgb(255,255,255)" stroke="none" d="M 17763,3489 L 17763,4123 18080,4123 18080,3489 17763,3489 Z"/>
  <path fill="none" stroke="none" d="M 18080,4123 L 18080,3489 17763,3489 17763,4123 18080,4123 Z"/>
  <path stroke-width="35" fill="none" stroke="rgb(0,0,0)" d="M 18080,4123 L 18080,3489 17763,3489 17763,4123 18080,4123 Z"/>
  <path fill="rgb(255,255,255)" stroke="none" d="M 18080,3489 L 18080,4123 18397,4123 18397,3489 18080,3489 Z"/>
  <path fill="none" stroke="none" d="M 18397,4123 L 18397,3489 18080,3489 18080,4123 18397,4123 Z"/>
  <path stroke-width="35" fill="none" stroke="rgb(0,0,0)" d="M 18397,4123 L 18397,3489 18080,3489 18080,4123 18397,4123 Z"/>
  <path fill="rgb(255,255,255)" stroke="none" d="M 18397,3489 L 18397,4123 18714,4123 18714,3489 18397,3489 Z"/>
  <path fill="none" stroke="none" d="M 18714,4123 L 18714,3489 18397,3489 18397,4123 18714,4123 Z"/>
  <path stroke-width="35" fill="none" stroke="rgb(0,0,0)" d="M 18714,4123 L 18714,3489 18397,3489 18397,4123 18714,4123 Z"/>
  <path fill="rgb(255,255,255)" stroke="none" d="M 19348,3489 L 19348,4123 19665,4123 19665,3489 19348,3489 Z"/>
  <path fill="rgb(129,138,143)" stroke="none" d="M 17834,3559 L 17834,4194 19736,4194 19736,3559 17834,3559 Z"/>
  <path fill="rgb(255,255,255)" stroke="none" d="M 17763,3489 L 17763,4123 19665,4123 19665,3489 17763,3489 Z"/>
  <path stroke-width="35" fill="none" stroke="rgb(0,0,0)" d="M 19665,3489 L 17763,3489 17763,4123 19665,4123"/>
  <path fill="rgb(255,255,255)" stroke="none" d="M 17763,3489 L 17763,4123 18080,4123 18080,3489 17763,3489 Z"/>
  <path fill="none" stroke="none" d="M 18080,4123 L 18080,3489 17763,3489 17763,4123 18080,4123 Z"/>
  <path stroke-width="35" fill="none" stroke="rgb(0,0,0)" d="M 18080,4123 L 18080,3489 17763,3489 17763,4123 18080,4123 Z"/>
  <path fill="rgb(255,255,255)" stroke="none" d="M 18080,3489 L 18080,4123 18397,4123 18397,3489 18080,3489 Z"/>
  <path fill="none" stroke="none" d="M 18397,4123 L 18397,3489 18080,3489 18080,4123 18397,4123 Z"/>
  <path stroke-width="35" fill="none" stroke="rgb(0,0,0)" d="M 18397,4123 L 18397,3489 18080,3489 18080,4123 18397,4123 Z"/>
  <path fill="rgb(255,255,255)" stroke="none" d="M 18397,3489 L 18397,4123 18714,4123 18714,3489 18397,3489 Z"/>
  <path fill="none" stroke="none" d="M 18714,4123 L 18714,3489 18397,3489 18397,4123 18714,4123 Z"/>
  <path stroke-width="35" fill="none" stroke="rgb(0,0,0)" d="M 18714,4123 L 18714,3489 18397,3489 18397,4123 18714,4123 Z"/>
  <path fill="rgb(0,0,255)" stroke="rgb(0,0,255)" d="M 15104,4124 L 15103,4050 15099,3976 15093,3902 15085,3828 15074,3755 15061,3682 15046,3609 15029,3536 15009,3463 14988,3391 14964,3319 14938,3247 14910,3176 14881,3106 14849,3035 14815,2966 14780,2897 14743,2829 14704,2761 14663,2694 14621,2627 14576,2561 14531,2497 14484,2432 14384,2307 14279,2185 14168,2067 14053,1954 13932,1846 13807,1742 13677,1643 13543,1550 13406,1463 13336,1422 13266,1382 13194,1344 13121,1307 13048,1273 12975,1239 12901,1208 12826,1178 12750,1150 12675,1124 12598,1100 12522,1077 12444,1057 12367,1039 12290,1022 12211,1008 12133,996 12055,986 11976,978 11916,975 11917,939 11980,943 12059,951 12139,961 12218,973 12297,988 12375,1005 12453,1023 12532,1044 12609,1066 12686,1090 12763,1117 12839,1145 12914,1175 12989,1207 13064,1240 13138,1276 13211,1313 13282,1351 13354,1392 13425,1433 13564,1522 13698,1615 13829,1715 13956,1819 14078,1929 14194,2044 14306,2162 14412,2285 14512,2412 14559,2476 14606,2542 14650,2609 14693,2675 14734,2743 14774,2812 14811,2881 14847,2951 14881,3021 14913,3092 14943,3163 14971,3236 14997,3308 15021,3381 15043,3454 15063,3528 15081,3601 15096,3675 15109,3750 15120,3824 15128,3899 15134,3974 15138,4049 15140,4123 15104,4124 Z M 11947,1064 L 11740,950 11956,853 11947,1064 Z"/>
  <path fill="rgb(0,128,0)" stroke="rgb(0,128,0)" d="M 20714,4358 L 20713,4333 20708,4309 20701,4285 20691,4261 20679,4237 20664,4214 20647,4190 20627,4166 20604,4143 20579,4120 20553,4098 20524,4076 20494,4054 20461,4034 20426,4013 20390,3994 20313,3957 20231,3924 20143,3896 20052,3870 19958,3851 19840,3835 19844,3801 19965,3816 20062,3836 20155,3862 20243,3891 20328,3925 20407,3963 20444,3984 20480,4004 20514,4026 20546,4048 20575,4071 20604,4095 20630,4119 20653,4143 20675,4169 20694,4195 20710,4221 20724,4248 20735,4275 20743,4303 20747,4330 20750,4356 20714,4358 Z M 19869,3926 L 19665,3806 19884,3715 19869,3926 Z"/>
  <text fill="rgb(129,138,143)" stroke="none" x="18657" y="6934">5</text>
  <path fill="rgb(129,138,143)" stroke="none" d="M 18785,6415 C 18610,6415 18468,6557 18468,6732 18468,6908 18610,7050 18785,7050 18961,7050 19102,6908 19102,6732 19102,6557 18961,6415 18785,6415 Z"/>
  <path fill="rgb(255,255,255)" stroke="none" d="M 18714,6344 C 18540,6344 18397,6487 18397,6662 18397,6837 18540,6979 18714,6979 18890,6979 19031,6837 19031,6662 19031,6487 18890,6344 18714,6344 Z"/>
  <path stroke-width="35" fill="none" stroke="rgb(255,0,0)" d="M 18714,6344 C 18540,6344 18397,6487 18397,6662 18397,6837 18540,6979 18714,6979 18890,6979 19031,6837 19031,6662 19031,6487 18890,6344 18714,6344 Z"/>
  <text fill="rgb(0,0,0)" stroke="none" x="18585" y="6863">5</text>
  <text fill="rgb(129,138,143)" stroke="none" x="18657" y="4713">6</text>
  <path fill="rgb(129,138,143)" stroke="none" d="M 18785,4194 C 18610,4194 18468,4336 18468,4511 18468,4687 18610,4829 18785,4829 18961,4829 19102,4687 19102,4511 19102,4336 18961,4194 18785,4194 Z"/>
  <path fill="rgb(255,255,255)" stroke="none" d="M 18714,4123 C 18540,4123 18397,4266 18397,4440 18397,4616 18540,4758 18714,4758 18890,4758 19031,4616 19031,4440 19031,4266 18890,4123 18714,4123 Z"/>
  <path stroke-width="35" fill="none" stroke="rgb(255,0,0)" d="M 18714,4123 C 18540,4123 18397,4266 18397,4440 18397,4616 18540,4758 18714,4758 18890,4758 19031,4616 19031,4440 19031,4266 18890,4123 18714,4123 Z"/>
  <text fill="rgb(0,0,0)" stroke="none" x="18585" y="4641">6</text>
 </g>
</svg>