<?xml version="1.0" encoding="UTF-8"?><!DOCTYPE svg PUBLIC "-//W3C//DTD SVG 1.1//EN" "/SysSchema/SVG11/svg11.dtd">
<svg xmlns:xlink="http://www.w3.org/1999/xlink" xmlns="http://www.w3.org/2000/svg" width="200mm" height="142mm" viewBox="0 0 20000 14200" stroke-width="28.222" stroke-linejoin="round" xml:space="preserve" preserveAspectRatio="xMidYMid meet" zoomAndPan="magnify" version="1.1" contentScriptType="text/ecmascript" contentStyleType="text/css">
 <path fill="rgb(153,204,255)" stroke="none" d="M 10159,9834 L 10159,13325 16499,13325 16499,9834 10159,9834 Z"/>
 <path fill="none" stroke="none" d="M 10159,9834 L 10159,13325 16499,13325 16499,9834 10159,9834 Z"/>
 <path stroke-width="35" fill="none" stroke="rgb(0,0,0)" d="M 10159,9834 L 10159,13325 16499,13325 16499,9834 10159,9834 Z"/>
 <rect fill="rgb(192,192,192)" stroke="none" x="3817" y="947" width="12685" height="8889"/>
 <rect fill="rgb(127,127,127)" stroke="none" x="3819" y="950" width="12681" height="8886"/>
 <rect fill="rgb(192,192,192)" stroke="none" x="3817" y="947" width="12685" height="8889"/>
 <path fill="none" stroke="none" d="M 3819,950 L 3819,9834 16499,9834 16499,950 3819,950 Z"/>
 <path stroke-width="35" fill="none" stroke="rgb(0,0,0)" d="M 3819,950 L 3819,9834 16499,9834 16499,950 3819,950 Z"/>
 <g fill="rgb(129,138,143)" stroke="none" font-family="Arial" font-size="423" font-style="normal" font-weight="400">
  <text x="5224" y="8711">
   <tspan x="5224 5507 5811 5929">PCIe</tspan></text>
  <text fill="rgb(129,138,143)" stroke="none" x="4861" y="9219">
   <tspan x="4861 5212 5449 5681 5918 6146 6383">Manager</tspan></text>
  <path fill="rgb(129,138,143)" stroke="none" d="M 5686,8001 C 4869,8001 4207,8356 4207,8794 4207,9232 4869,9588 5686,9588 6503,9588 7166,9232 7166,8794 7166,8356 6503,8001 5686,8001 Z"/>
  <path fill="rgb(204,255,255)" stroke="none" d="M 5615,7930 C 4799,7930 4136,8286 4136,8724 4136,9162 4799,9517 5615,9517 6433,9517 7095,9162 7095,8724 7095,8286 6433,7930 5615,7930 Z"/>
  <path stroke-width="26" fill="none" stroke="rgb(0,0,0)" d="M 5615,7930 C 4799,7930 4136,8286 4136,8724 4136,9162 4799,9517 5615,9517 6433,9517 7095,9162 7095,8724 7095,8286 6433,7930 5615,7930 Z"/>
  <text fill="rgb(0,0,0)" stroke="none" x="5153" y="8639">
   <tspan x="5153 5436 5740 5858">PCIe</tspan></text>
  <text fill="rgb(0,0,0)" stroke="none" x="4789" y="9147">
   <tspan x="4789 5140 5377 5609 5846 6074 6311">Manager</tspan></text>
  <text fill="rgb(129,138,143)" stroke="none" x="5199" y="4903">
   <tspan x="5199 5503 5740 5854 6091">Datal</tspan></text>
  <text fill="rgb(129,138,143)" stroke="none" x="4861" y="5411">
   <tspan x="4861 5212 5449 5681 5918 6146 6383">Manager</tspan></text>
  <path fill="rgb(129,138,143)" stroke="none" d="M 5686,4193 C 4869,4193 4207,4548 4207,4987 4207,5425 4869,5780 5686,5780 6503,5780 7166,5425 7166,4987 7166,4548 6503,4193 5686,4193 Z"/>
  <path fill="rgb(204,255,255)" stroke="none" d="M 5615,4123 C 4799,4123 4136,4478 4136,4916 4136,5354 4799,5709 5615,5709 6433,5709 7095,5354 7095,4916 7095,4478 6433,4123 5615,4123 Z"/>
  <path stroke-width="26" fill="none" stroke="rgb(0,0,0)" d="M 5615,4123 C 4799,4123 4136,4478 4136,4916 4136,5354 4799,5709 5615,5709 6433,5709 7095,5354 7095,4916 7095,4478 6433,4123 5615,4123 Z"/>
  <text fill="rgb(0,0,0)" stroke="none" x="5127" y="4831">
   <tspan x="5127 5431 5668 5782 6019">Datal</tspan></text>
  <text fill="rgb(0,0,0)" stroke="none" x="4789" y="5339">
   <tspan x="4789 5140 5377 5609 5846 6074 6311">Manager</tspan></text>
  <text fill="rgb(129,138,143)" stroke="none" x="5199" y="5220">
   <tspan x="5199 5503 5740 5854 6091">Datal</tspan></text>
  <text fill="rgb(129,138,143)" stroke="none" x="4861" y="5728">
   <tspan x="4861 5212 5449 5681 5918 6146 6383">Manager</tspan></text>
  <path fill="rgb(129,138,143)" stroke="none" d="M 5686,4511 C 4869,4511 4207,4866 4207,5304 4207,5742 4869,6097 5686,6097 6503,6097 7166,5742 7166,5304 7166,4866 6503,4511 5686,4511 Z"/>
  <path fill="rgb(204,255,255)" stroke="none" d="M 5615,4440 C 4799,4440 4136,4795 4136,5233 4136,5672 4799,6026 5615,6026 6433,6026 7095,5672 7095,5233 7095,4795 6433,4440 5615,4440 Z"/>
  <path stroke-width="26" fill="none" stroke="rgb(0,0,0)" d="M 5615,4440 C 4799,4440 4136,4795 4136,5233 4136,5672 4799,6026 5615,6026 6433,6026 7095,5672 7095,5233 7095,4795 6433,4440 5615,4440 Z"/>
  <text fill="rgb(0,0,0)" stroke="none" x="5127" y="5149">
   <tspan x="5127 5431 5668 5782 6019">Datal</tspan></text>
  <text fill="rgb(0,0,0)" stroke="none" x="4789" y="5656">
   <tspan x="4789 5140 5377 5609 5846 6074 6311">Manager</tspan></text>
  <text fill="rgb(129,138,143)" stroke="none" x="5199" y="5538">
   <tspan x="5199 5503 5740 5854 6091">Datal</tspan></text>
  <text fill="rgb(129,138,143)" stroke="none" x="4861" y="6045">
   <tspan x="4861 5212 5449 5681 5918 6146 6383">Manager</tspan></text>
  <path fill="rgb(129,138,143)" stroke="none" d="M 5686,4828 C 4869,4828 4207,5183 4207,5621 4207,6059 4869,6415 5686,6415 6503,6415 7166,6059 7166,5621 7166,5183 6503,4828 5686,4828 Z"/>
  <path fill="rgb(204,255,255)" stroke="none" d="M 5615,4757 C 4799,4757 4136,5113 4136,5550 4136,5989 4799,6344 5615,6344 6433,6344 7095,5989 7095,5550 7095,5113 6433,4757 5615,4757 Z"/>
  <path stroke-width="26" fill="none" stroke="rgb(0,0,0)" d="M 5615,4757 C 4799,4757 4136,5113 4136,5550 4136,5989 4799,6344 5615,6344 6433,6344 7095,5989 7095,5550 7095,5113 6433,4757 5615,4757 Z"/>
  <text fill="rgb(0,0,0)" stroke="none" x="5127" y="5466">
   <tspan x="5127 5431 5668 5782 6019">Datal</tspan></text>
  <text fill="rgb(0,0,0)" stroke="none" x="4789" y="5974">
   <tspan x="4789 5140 5377 5609 5846 6074 6311">Manager</tspan></text>
  <text fill="rgb(129,138,143)" stroke="none" x="5246" y="5855">
   <tspan x="5246 5550 5787 5901">Data</tspan></text>
  <text fill="rgb(129,138,143)" stroke="none" x="4861" y="6363">
   <tspan x="4861 5212 5449 5681 5918 6146 6383">Manager</tspan></text>
  <path fill="rgb(129,138,143)" stroke="none" d="M 5686,5145 C 4869,5145 4207,5500 4207,5939 4207,6377 4869,6732 5686,6732 6503,6732 7166,6377 7166,5939 7166,5500 6503,5145 5686,5145 Z"/>
  <path fill="rgb(204,255,255)" stroke="none" d="M 5615,5075 C 4799,5075 4136,5430 4136,5868 4136,6306 4799,6661 5615,6661 6433,6661 7095,6306 7095,5868 7095,5430 6433,5075 5615,5075 Z"/>
  <path stroke-width="26" fill="none" stroke="rgb(0,0,0)" d="M 5615,5075 C 4799,5075 4136,5430 4136,5868 4136,6306 4799,6661 5615,6661 6433,6661 7095,6306 7095,5868 7095,5430 6433,5075 5615,5075 Z"/>
  <text fill="rgb(0,0,0)" stroke="none" x="5174" y="5783">
   <tspan x="5174 5478 5715 5829">Data</tspan></text>
  <text fill="rgb(0,0,0)" stroke="none" x="4789" y="6291">
   <tspan x="4789 5140 5377 5609 5846 6074 6311">Manager</tspan></text>
  <text fill="rgb(129,138,143)" stroke="none" x="5199" y="4903">
   <tspan x="5199 5503 5740 5854 6091">Datal</tspan></text>
  <text fill="rgb(129,138,143)" stroke="none" x="4861" y="5411">
   <tspan x="4861 5212 5449 5681 5918 6146 6383">Manager</tspan></text>
  <path fill="rgb(129,138,143)" stroke="none" d="M 5686,4193 C 4869,4193 4207,4548 4207,4987 4207,5425 4869,5780 5686,5780 6503,5780 7166,5425 7166,4987 7166,4548 6503,4193 5686,4193 Z"/>
  <path fill="rgb(204,255,255)" stroke="none" d="M 5615,4123 C 4799,4123 4136,4478 4136,4916 4136,5354 4799,5709 5615,5709 6433,5709 7095,5354 7095,4916 7095,4478 6433,4123 5615,4123 Z"/>
  <path stroke-width="26" fill="none" stroke="rgb(0,0,0)" d="M 5615,4123 C 4799,4123 4136,4478 4136,4916 4136,5354 4799,5709 5615,5709 6433,5709 7095,5354 7095,4916 7095,4478 6433,4123 5615,4123 Z"/>
  <text fill="rgb(0,0,0)" stroke="none" x="5127" y="4831">
   <tspan x="5127 5431 5668 5782 6019">Datal</tspan></text>
  <text fill="rgb(0,0,0)" stroke="none" x="4789" y="5339">
   <tspan x="4789 5140 5377 5609 5846 6074 6311">Manager</tspan></text>
  <text fill="rgb(129,138,143)" stroke="none" x="5199" y="5220">
   <tspan x="5199 5503 5740 5854 6091">Datal</tspan></text>
  <text fill="rgb(129,138,143)" stroke="none" x="4861" y="5728">
   <tspan x="4861 5212 5449 5681 5918 6146 6383">Manager</tspan></text>
  <path fill="rgb(129,138,143)" stroke="none" d="M 5686,4511 C 4869,4511 4207,4866 4207,5304 4207,5742 4869,6097 5686,6097 6503,6097 7166,5742 7166,5304 7166,4866 6503,4511 5686,4511 Z"/>
  <path fill="rgb(204,255,255)" stroke="none" d="M 5615,4440 C 4799,4440 4136,4795 4136,5233 4136,5672 4799,6026 5615,6026 6433,6026 7095,5672 7095,5233 7095,4795 6433,4440 5615,4440 Z"/>
  <path stroke-width="26" fill="none" stroke="rgb(0,0,0)" d="M 5615,4440 C 4799,4440 4136,4795 4136,5233 4136,5672 4799,6026 5615,6026 6433,6026 7095,5672 7095,5233 7095,4795 6433,4440 5615,4440 Z"/>
  <text fill="rgb(0,0,0)" stroke="none" x="5127" y="5149">
   <tspan x="5127 5431 5668 5782 6019">Datal</tspan></text>
  <text fill="rgb(0,0,0)" stroke="none" x="4789" y="5656">
   <tspan x="4789 5140 5377 5609 5846 6074 6311">Manager</tspan></text>
  <text fill="rgb(129,138,143)" stroke="none" x="5199" y="5538">
   <tspan x="5199 5503 5740 5854 6091">Datal</tspan></text>
  <text fill="rgb(129,138,143)" stroke="none" x="4861" y="6045">
   <tspan x="4861 5212 5449 5681 5918 6146 6383">Manager</tspan></text>
  <path fill="rgb(129,138,143)" stroke="none" d="M 5686,4828 C 4869,4828 4207,5183 4207,5621 4207,6059 4869,6415 5686,6415 6503,6415 7166,6059 7166,5621 7166,5183 6503,4828 5686,4828 Z"/>
  <path fill="rgb(204,255,255)" stroke="none" d="M 5615,4757 C 4799,4757 4136,5113 4136,5550 4136,5989 4799,6344 5615,6344 6433,6344 7095,5989 7095,5550 7095,5113 6433,4757 5615,4757 Z"/>
  <path stroke-width="26" fill="none" stroke="rgb(0,0,0)" d="M 5615,4757 C 4799,4757 4136,5113 4136,5550 4136,5989 4799,6344 5615,6344 6433,6344 7095,5989 7095,5550 7095,5113 6433,4757 5615,4757 Z"/>
  <text fill="rgb(0,0,0)" stroke="none" x="5127" y="5466">
   <tspan x="5127 5431 5668 5782 6019">Datal</tspan></text>
  <text fill="rgb(0,0,0)" stroke="none" x="4789" y="5974">
   <tspan x="4789 5140 5377 5609 5846 6074 6311">Manager</tspan></text>
  <text fill="rgb(129,138,143)" stroke="none" x="5246" y="5855">
   <tspan x="5246 5550 5787 5901">Data</tspan></text>
  <text fill="rgb(129,138,143)" stroke="none" x="4861" y="6363">
   <tspan x="4861 5212 5449 5681 5918 6146 6383">Manager</tspan></text>
  <path fill="rgb(129,138,143)" stroke="none" d="M 5686,5145 C 4869,5145 4207,5500 4207,5939 4207,6377 4869,6732 5686,6732 6503,6732 7166,6377 7166,5939 7166,5500 6503,5145 5686,5145 Z"/>
  <path fill="rgb(204,255,255)" stroke="none" d="M 5615,5075 C 4799,5075 4136,5430 4136,5868 4136,6306 4799,6661 5615,6661 6433,6661 7095,6306 7095,5868 7095,5430 6433,5075 5615,5075 Z"/>
  <path stroke-width="26" fill="none" stroke="rgb(0,0,0)" d="M 5615,5075 C 4799,5075 4136,5430 4136,5868 4136,6306 4799,6661 5615,6661 6433,6661 7095,6306 7095,5868 7095,5430 6433,5075 5615,5075 Z"/>
  <text fill="rgb(0,0,0)" stroke="none" x="5174" y="5783">
   <tspan x="5174 5478 5715 5829">Data</tspan></text>
  <text fill="rgb(0,0,0)" stroke="none" x="4789" y="6291">
   <tspan x="4789 5140 5377 5609 5846 6074 6311">Manager</tspan></text>
  <path fill="rgb(153,204,255)" stroke="none" d="M 16499,950 L 16499,9834 19986,9834 19986,950 16499,950 Z"/>
  <path fill="none" stroke="none" d="M 16499,950 L 16499,9834 19986,9834 19986,950 16499,950 Z"/>
  <path stroke-width="35" fill="none" stroke="rgb(0,0,0)" d="M 16499,950 L 16499,9834 19986,9834 19986,950 16499,950 Z"/>
  <path fill="rgb(153,204,255)" stroke="none" d="M 15,950 L 15,9834 3819,9834 3819,950 15,950 Z"/>
  <path fill="none" stroke="none" d="M 15,950 L 15,9834 3819,9834 3819,950 15,950 Z"/>
  <path stroke-width="35" fill="none" stroke="rgb(0,0,0)" d="M 15,950 L 15,9834 3819,9834 3819,950 15,950 Z"/>
  <text fill="rgb(129,138,143)" stroke="none" x="474" y="2047">i</text>
  <text fill="rgb(129,138,143)" stroke="none" x="567" y="2047">-</text>
  <text fill="rgb(129,138,143)" stroke="none" x="706" y="2047">
   <tspan x="706 1010 1361 1644 1762 1880">DMA, e</tspan></text>
  <text fill="rgb(129,138,143)" stroke="none" x="2118" y="2047">-</text>
  <text fill="rgb(129,138,143)" stroke="none" x="2257" y="2047">
   <tspan x="2257 2561 2912">DMA</tspan></text>
  <text fill="rgb(129,138,143)" stroke="none" x="1006" y="2555">
   <tspan x="1006 1357 1594 1826 2063 2291 2528">Manager</tspan></text>
  <path fill="rgb(129,138,143)" stroke="none" d="M 1829,1337 C 1041,1337 402,1693 402,2131 402,2569 1041,2924 1829,2924 2617,2924 3256,2569 3256,2131 3256,1693 2617,1337 1829,1337 Z"/>
  <path fill="rgb(255,204,153)" stroke="none" d="M 1758,1267 C 971,1267 332,1622 332,2060 332,2498 971,2853 1758,2853 2546,2853 3185,2498 3185,2060 3185,1622 2546,1267 1758,1267 Z"/>
  <path stroke-width="26" fill="none" stroke="rgb(0,0,0)" d="M 1758,1267 C 971,1267 332,1622 332,2060 332,2498 971,2853 1758,2853 2546,2853 3185,2498 3185,2060 3185,1622 2546,1267 1758,1267 Z"/>
  <text fill="rgb(0,0,0)" stroke="none" x="402" y="1975">i</text>
  <text fill="rgb(0,0,0)" stroke="none" x="495" y="1975">-</text>
  <text fill="rgb(0,0,0)" stroke="none" x="634" y="1975">
   <tspan x="634 938 1289 1572 1690 1808">DMA, e</tspan></text>
  <text fill="rgb(0,0,0)" stroke="none" x="2046" y="1975">-</text>
  <text fill="rgb(0,0,0)" stroke="none" x="2185" y="1975">
   <tspan x="2185 2489 2840">DMA</tspan></text>
  <text fill="rgb(0,0,0)" stroke="none" x="934" y="2483">
   <tspan x="934 1285 1522 1754 1991 2219 2456">Manager</tspan></text>
  <text fill="rgb(129,138,143)" stroke="none" x="803" y="4269">
   <tspan x="803 1086 1318 1550 1905 1998 2209 2420 2509 2746">Submission</tspan></text>
  <text fill="rgb(129,138,143)" stroke="none" x="1057" y="4776">
   <tspan x="1057 1408 1645 1877 2114 2342 2579">Manager</tspan></text>
  <path fill="rgb(129,138,143)" stroke="none" d="M 1882,3559 C 1065,3559 403,3914 403,4352 403,4790 1065,5145 1882,5145 2699,5145 3361,4790 3361,4352 3361,3914 2699,3559 1882,3559 Z"/>
  <path fill="rgb(255,204,153)" stroke="none" d="M 1811,3488 C 994,3488 332,3843 332,4281 332,4720 994,5075 1811,5075 2629,5075 3291,4720 3291,4281 3291,3843 2629,3488 1811,3488 Z"/>
  <path stroke-width="26" fill="none" stroke="rgb(0,0,0)" d="M 1811,3488 C 994,3488 332,3843 332,4281 332,4720 994,5075 1811,5075 2629,5075 3291,4720 3291,4281 3291,3843 2629,3488 1811,3488 Z"/>
  <text fill="rgb(0,0,0)" stroke="none" x="731" y="4197">
   <tspan x="731 1014 1246 1478 1833 1926 2137 2348 2437 2674">Submission</tspan></text>
  <text fill="rgb(0,0,0)" stroke="none" x="985" y="4704">
   <tspan x="985 1336 1573 1805 2042 2270 2507">Manager</tspan></text>
  <text fill="rgb(129,138,143)" stroke="none" x="824" y="6490">
   <tspan x="824 1128 1360 1715 1947 2040 2277 2395 2484 2716">Completion</tspan></text>
  <text fill="rgb(129,138,143)" stroke="none" x="1057" y="6997">
   <tspan x="1057 1408 1645 1877 2114 2342 2579">Manager</tspan></text>
  <path fill="rgb(129,138,143)" stroke="none" d="M 1882,5780 C 1065,5780 403,6135 403,6573 403,7011 1065,7367 1882,7367 2699,7367 3361,7011 3361,6573 3361,6135 2699,5780 1882,5780 Z"/>
  <path fill="rgb(255,204,153)" stroke="none" d="M 1811,5709 C 994,5709 332,6065 332,6502 332,6941 994,7296 1811,7296 2629,7296 3291,6941 3291,6502 3291,6065 2629,5709 1811,5709 Z"/>
  <path stroke-width="26" fill="none" stroke="rgb(0,0,0)" d="M 1811,5709 C 994,5709 332,6065 332,6502 332,6941 994,7296 1811,7296 2629,7296 3291,6941 3291,6502 3291,6065 2629,5709 1811,5709 Z"/>
  <text fill="rgb(0,0,0)" stroke="none" x="753" y="6418">
   <tspan x="753 1057 1289 1644 1876 1969 2206 2324 2413 2645">Completion</tspan></text>
  <text fill="rgb(0,0,0)" stroke="none" x="985" y="6925">
   <tspan x="985 1336 1573 1805 2042 2270 2507">Manager</tspan></text>
  <text fill="rgb(129,138,143)" stroke="none" x="1454" y="8711">
   <tspan x="1454 1758 1995 2206">Host</tspan></text>
  <text fill="rgb(129,138,143)" stroke="none" x="1057" y="9219">
   <tspan x="1057 1408 1645 1877 2114 2342 2579">Manager</tspan></text>
  <path fill="rgb(129,138,143)" stroke="none" d="M 1882,8001 C 1065,8001 403,8356 403,8794 403,9232 1065,9588 1882,9588 2699,9588 3361,9232 3361,8794 3361,8356 2699,8001 1882,8001 Z"/>
  <path fill="rgb(255,204,153)" stroke="none" d="M 1811,7930 C 994,7930 332,8286 332,8724 332,9162 994,9517 1811,9517 2629,9517 3291,9162 3291,8724 3291,8286 2629,7930 1811,7930 Z"/>
  <path stroke-width="26" fill="none" stroke="rgb(0,0,0)" d="M 1811,7930 C 994,7930 332,8286 332,8724 332,9162 994,9517 1811,9517 2629,9517 3291,9162 3291,8724 3291,8286 2629,7930 1811,7930 Z"/>
  <text fill="rgb(0,0,0)" stroke="none" x="1382" y="8639">
   <tspan x="1382 1686 1923 2134">Host</tspan></text>
  <text fill="rgb(0,0,0)" stroke="none" x="985" y="9147">
   <tspan x="985 1336 1573 1805 2042 2270 2507">Manager</tspan></text>
 </g>
 <g fill="rgb(0,0,0)" stroke="none" font-family="Tahoma" font-size="495" font-style="normal" font-weight="400">
  <text x="8196" y="617">
   <tspan x="8196 8467 8645 8916 9144 9406 9626 9846 10117 10290 10446 10742 11008 11422 11697 11811 12069">Processor Complex</tspan></text>
  <text fill="rgb(0,0,0)" stroke="none" x="905" y="617">
   <tspan x="905 1239 1510 1730 1895 2051 2233 2423">Host I/F</tspan></text>
  <text fill="rgb(0,0,0)" stroke="none" x="17389" y="617">
   <tspan x="17389 17647 17761 18019 18239 18514 18670 18856 19042">Flash I/F</tspan></text>
 </g>
 <g fill="rgb(129,138,143)" stroke="none" font-family="Arial" font-size="423" font-style="normal" font-weight="400">
  <text x="17854" y="5220">
   <tspan x="17854 18112 18205 18442 18653">Flash</tspan></text>
  <text fill="rgb(129,138,143)" stroke="none" x="17550" y="5728">
   <tspan x="17550 17668 17905 18023 18260 18395 18513 18750 18961">Interface</tspan></text>
  <path fill="rgb(129,138,143)" stroke="none" d="M 18366,4511 C 17550,4511 16887,4866 16887,5304 16887,5742 17550,6097 18366,6097 19183,6097 19846,5742 19846,5304 19846,4866 19183,4511 18366,4511 Z"/>
  <path fill="rgb(255,204,153)" stroke="none" d="M 18296,4440 C 17479,4440 16816,4795 16816,5233 16816,5672 17479,6026 18296,6026 19114,6026 19775,5672 19775,5233 19775,4795 19114,4440 18296,4440 Z"/>
  <path stroke-width="26" fill="none" stroke="rgb(0,0,0)" d="M 18296,4440 C 17479,4440 16816,4795 16816,5233 16816,5672 17479,6026 18296,6026 19114,6026 19775,5672 19775,5233 19775,4795 19114,4440 18296,4440 Z"/>
  <text fill="rgb(0,0,0)" stroke="none" x="17782" y="5149">
   <tspan x="17782 18040 18133 18370 18581">Flash</tspan></text>
  <text fill="rgb(0,0,0)" stroke="none" x="17478" y="5656">
   <tspan x="17478 17596 17833 17951 18188 18323 18441 18678 18889">Interface</tspan></text>
  <path fill="rgb(153,204,255)" stroke="none" d="M 3819,9834 L 3819,13325 10159,13325 10159,9834 3819,9834 Z"/>
  <path fill="none" stroke="none" d="M 3819,9834 L 3819,13325 10159,13325 10159,9834 3819,9834 Z"/>
  <path stroke-width="35" fill="none" stroke="rgb(0,0,0)" d="M 3819,9834 L 3819,13325 10159,13325 10159,9834 3819,9834 Z"/>
  <text fill="rgb(129,138,143)" stroke="none" x="5119" y="11186">
   <tspan x="5119 5423 5727 6031">DDR3</tspan></text>
  <path fill="rgb(129,138,143)" stroke="none" d="M 5686,10222 C 4869,10222 4207,10577 4207,11016 4207,11453 4869,11809 5686,11809 6503,11809 7166,11453 7166,11016 7166,10577 6503,10222 5686,10222 Z"/>
  <path fill="rgb(255,204,153)" stroke="none" d="M 5615,10151 C 4799,10151 4136,10507 4136,10945 4136,11383 4799,11738 5615,11738 6433,11738 7095,11383 7095,10945 7095,10507 6433,10151 5615,10151 Z"/>
  <path stroke-width="26" fill="none" stroke="rgb(0,0,0)" d="M 5615,10151 C 4799,10151 4136,10507 4136,10945 4136,11383 4799,11738 5615,11738 6433,11738 7095,11383 7095,10945 7095,10507 6433,10151 5615,10151 Z"/>
  <text fill="rgb(0,0,0)" stroke="none" x="5047" y="11114">
   <tspan x="5047 5351 5655 5959">DDR3</tspan></text>
 </g>
 <g fill="rgb(0,0,0)" stroke="none" font-family="Tahoma" font-size="495" font-style="normal" font-weight="400">
  <text x="5026" y="13944">
   <tspan x="5026 5406 5668 6078 6349 6527 6772 6928 7220 7491 7762 7927 8105 8376 8490 8600 8862">Memory Controller</tspan></text>
 </g>
 <g fill="rgb(129,138,143)" stroke="none" font-family="Arial" font-size="423" font-style="normal" font-weight="400">
  <text x="4967" y="2047">
   <tspan x="4967 5199 5436 5647 5858 5947 6184">Locking</tspan></text>
  <text fill="rgb(129,138,143)" stroke="none" x="4861" y="2555">
   <tspan x="4861 5212 5449 5681 5918 6146 6383">Manager</tspan></text>
  <path fill="rgb(129,138,143)" stroke="none" d="M 5686,1338 C 4869,1338 4207,1693 4207,2131 4207,2569 4869,2924 5686,2924 6503,2924 7166,2569 7166,2131 7166,1693 6503,1338 5686,1338 Z"/>
  <path fill="rgb(204,255,255)" stroke="none" d="M 5615,1267 C 4799,1267 4136,1622 4136,2060 4136,2498 4799,2853 5615,2853 6433,2853 7095,2498 7095,2060 7095,1622 6433,1267 5615,1267 Z"/>
  <path stroke-width="26" fill="none" stroke="rgb(0,0,0)" d="M 5615,1267 C 4799,1267 4136,1622 4136,2060 4136,2498 4799,2853 5615,2853 6433,2853 7095,2498 7095,2060 7095,1622 6433,1267 5615,1267 Z"/>
  <text fill="rgb(0,0,0)" stroke="none" x="4895" y="1975">
   <tspan x="4895 5127 5364 5575 5786 5875 6112">Locking</tspan></text>
  <text fill="rgb(0,0,0)" stroke="none" x="4789" y="2483">
   <tspan x="4789 5140 5377 5609 5846 6074 6311">Manager</tspan></text>
  <text fill="rgb(129,138,143)" stroke="none" x="8716" y="7442">
   <tspan x="8716 8999 9231 9586 9675 9912 10030 10334 10685">Admin Cmd</tspan></text>
  <text fill="rgb(129,138,143)" stroke="none" x="8982" y="7949">
   <tspan x="8982 9333 9570 9802 10039 10267 10504">Manager</tspan></text>
  <path fill="rgb(129,138,143)" stroke="none" d="M 9807,6732 C 8990,6732 8328,7087 8328,7525 8328,7963 8990,8318 9807,8318 10624,8318 11287,7963 11287,7525 11287,7087 10624,6732 9807,6732 Z"/>
  <path fill="rgb(204,255,255)" stroke="none" d="M 9736,6661 C 8920,6661 8257,7016 8257,7454 8257,7893 8920,8248 9736,8248 10554,8248 11216,7893 11216,7454 11216,7016 10554,6661 9736,6661 Z"/>
  <path stroke-width="26" fill="none" stroke="rgb(0,0,0)" d="M 9736,6661 C 8920,6661 8257,7016 8257,7454 8257,7893 8920,8248 9736,8248 10554,8248 11216,7893 11216,7454 11216,7016 10554,6661 9736,6661 Z"/>
  <text fill="rgb(0,0,0)" stroke="none" x="8644" y="7370">
   <tspan x="8644 8927 9159 9514 9603 9840 9958 10262 10613">Admin Cmd</tspan></text>
  <text fill="rgb(0,0,0)" stroke="none" x="8910" y="7877">
   <tspan x="8910 9261 9498 9730 9967 10195 10432">Manager</tspan></text>
  <rect fill="rgb(204,255,204)" stroke="none" x="12376" y="1265" width="3808" height="8254"/>
  <rect fill="rgb(127,127,127)" stroke="none" x="12378" y="1267" width="3805" height="8251"/>
  <rect fill="rgb(204,255,204)" stroke="none" x="12376" y="1265" width="3808" height="8254"/>
  <path fill="rgb(0,0,0)" stroke="rgb(0,0,0)" d="M 16182,1285 L 15901,1285 15901,1250 16182,1250 16182,1285 Z M 15796,1285 L 15513,1285 15513,1250 15796,1250 15796,1285 Z M 15408,1285 L 15126,1285 15126,1250 15408,1250 15408,1285 Z M 15020,1285 L 14739,1285 14739,1250 15020,1250 15020,1285 Z M 14633,1285 L 14351,1285 14351,1250 14633,1250 14633,1285 Z M 14245,1285 L 13963,1285 13963,1250 14245,1250 14245,1285 Z M 13858,1285 L 13576,1285 13576,1250 13858,1250 13858,1285 Z M 13471,1285 L 13189,1285 13189,1250 13471,1250 13471,1285 Z M 13083,1285 L 12801,1285 12801,1250 13083,1250 13083,1285 Z M 12695,1285 L 12414,1285 12414,1250 12695,1250 12695,1285 Z M 12396,1338 L 12396,1620 12361,1620 12361,1338 12396,1338 Z M 12396,1726 L 12396,2007 12361,2007 12361,1726 12396,1726 Z M 12396,2113 L 12396,2395 12361,2395 12361,2113 12396,2113 Z M 12396,2501 L 12396,2784 12361,2784 12361,2501 12396,2501 Z M 12396,2889 L 12396,3171 12361,3171 12361,2889 12396,2889 Z M 12396,3276 L 12396,3559 12361,3559 12361,3276 12396,3276 Z M 12396,3665 L 12396,3947 12361,3947 12361,3665 12396,3665 Z M 12396,4053 L 12396,4334 12361,4334 12361,4053 12396,4053 Z M 12396,4440 L 12396,4722 12361,4722 12361,4440 12396,4440 Z M 12396,4828 L 12396,5110 12361,5110 12361,4828 12396,4828 Z M 12396,5216 L 12396,5498 12361,5498 12361,5216 12396,5216 Z M 12396,5603 L 12396,5886 12361,5886 12361,5603 12396,5603 Z M 12396,5992 L 12396,6274 12361,6274 12361,5992 12396,5992 Z M 12396,6380 L 12396,6661 12361,6661 12361,6380 12396,6380 Z M 12396,6767 L 12396,7049 12361,7049 12361,6767 12396,6767 Z M 12396,7155 L 12396,7437 12361,7437 12361,7155 12396,7155 Z M 12396,7543 L 12396,7825 12361,7825 12361,7543 12396,7543 Z M 12396,7930 L 12396,8213 12361,8213 12361,7930 12396,7930 Z M 12396,8318 L 12396,8601 12361,8601 12361,8318 12396,8318 Z M 12396,8707 L 12396,8988 12361,8988 12361,8707 12396,8707 Z M 12396,9094 L 12396,9376 12361,9376 12361,9094 12396,9094 Z M 12396,9482 L 12396,9517 12378,9500 12625,9500 12625,9535 12361,9535 12361,9482 12396,9482 Z M 12731,9500 L 13012,9500 13012,9535 12731,9535 12731,9500 Z M 13118,9500 L 13400,9500 13400,9535 13118,9535 13118,9500 Z M 13506,9500 L 13788,9500 13788,9535 13506,9535 13506,9500 Z M 13894,9500 L 14175,9500 14175,9535 13894,9535 13894,9500 Z M 14280,9500 L 14562,9500 14562,9535 14280,9535 14280,9500 Z M 14668,9500 L 14950,9500 14950,9535 14668,9535 14668,9500 Z M 15056,9500 L 15337,9500 15337,9535 15056,9535 15056,9500 Z M 15443,9500 L 15725,9500 15725,9535 15443,9535 15443,9500 Z M 15830,9500 L 16113,9500 16113,9535 15830,9535 15830,9500 Z M 16165,9482 L 16165,9200 16200,9200 16200,9482 16165,9482 Z M 16165,9094 L 16165,8812 16200,8812 16200,9094 16165,9094 Z M 16165,8707 L 16165,8424 16200,8424 16200,8707 16165,8707 Z M 16165,8318 L 16165,8036 16200,8036 16200,8318 16165,8318 Z M 16165,7930 L 16165,7649 16200,7649 16200,7930 16165,7930 Z M 16165,7543 L 16165,7261 16200,7261 16200,7543 16165,7543 Z M 16165,7155 L 16165,6873 16200,6873 16200,7155 16165,7155 Z M 16165,6767 L 16165,6485 16200,6485 16200,6767 16165,6767 Z M 16165,6380 L 16165,6097 16200,6097 16200,6380 16165,6380 Z M 16165,5992 L 16165,5709 16200,5709 16200,5992 16165,5992 Z M 16165,5603 L 16165,5322 16200,5322 16200,5603 16165,5603 Z M 16165,5216 L 16165,4934 16200,4934 16200,5216 16165,5216 Z M 16165,4828 L 16165,4546 16200,4546 16200,4828 16165,4828 Z M 16165,4440 L 16165,4159 16200,4159 16200,4440 16165,4440 Z M 16165,4053 L 16165,3770 16200,3770 16200,4053 16165,4053 Z M 16165,3665 L 16165,3382 16200,3382 16200,3665 16165,3665 Z M 16165,3276 L 16165,2995 16200,2995 16200,3276 16165,3276 Z M 16165,2889 L 16165,2607 16200,2607 16200,2889 16165,2889 Z M 16165,2501 L 16165,2219 16200,2219 16200,2501 16165,2501 Z M 16165,2113 L 16165,1832 16200,1832 16200,2113 16165,2113 Z M 16165,1726 L 16165,1443 16200,1443 16200,1726 16165,1726 Z M 16165,1338 L 16165,1267 16200,1267 16200,1338 16165,1338 Z"/>
 </g>
 <g fill="rgb(0,0,0)" stroke="none" font-family="Tahoma" font-size="495" font-style="normal" font-weight="400">
  <text x="13885" y="5589">
   <tspan x="13885 14143 14430">FTL</tspan></text>
 </g>
 <g fill="rgb(129,138,143)" stroke="none" font-family="Arial" font-size="423" font-style="normal" font-weight="400">
  <text x="11573" y="10932">
   <tspan x="11573 11852 12182">XOR</tspan></text>
  <text fill="rgb(129,138,143)" stroke="none" x="11379" y="11440">
   <tspan x="11379 11662 11899 12131 12220 12452">Engine</tspan></text>
  <path fill="rgb(129,138,143)" stroke="none" d="M 12026,10222 C 11209,10222 10547,10577 10547,11016 10547,11453 11209,11809 12026,11809 12843,11809 13506,11453 13506,11016 13506,10577 12843,10222 12026,10222 Z"/>
  <path fill="rgb(255,204,153)" stroke="none" d="M 11956,10151 C 11139,10151 10476,10507 10476,10945 10476,11383 11139,11738 11956,11738 12773,11738 13435,11383 13435,10945 13435,10507 12773,10151 11956,10151 Z"/>
  <path stroke-width="26" fill="none" stroke="rgb(0,0,0)" d="M 11956,10151 C 11139,10151 10476,10507 10476,10945 10476,11383 11139,11738 11956,11738 12773,11738 13435,11383 13435,10945 13435,10507 12773,10151 11956,10151 Z"/>
  <text fill="rgb(0,0,0)" stroke="none" x="11501" y="10860">
   <tspan x="11501 11780 12110">XOR</tspan></text>
  <text fill="rgb(0,0,0)" stroke="none" x="11307" y="11368">
   <tspan x="11307 11590 11827 12059 12148 12380">Engine</tspan></text>
  <text fill="rgb(129,138,143)" stroke="none" x="12972" y="12201">
   <tspan x="12972 13209 13302 13513">List</tspan></text>
  <text fill="rgb(129,138,143)" stroke="none" x="12647" y="12709">
   <tspan x="12647 12930 13167 13399 13488 13720">Engine</tspan></text>
  <path fill="rgb(129,138,143)" stroke="none" d="M 13294,11492 C 12477,11492 11815,11846 11815,12285 11815,12723 12477,13078 13294,13078 14111,13078 14774,12723 14774,12285 14774,11846 14111,11492 13294,11492 Z"/>
  <path fill="rgb(255,204,153)" stroke="none" d="M 13224,11421 C 12407,11421 11744,11776 11744,12214 11744,12652 12407,13007 13224,13007 14041,13007 14703,12652 14703,12214 14703,11776 14041,11421 13224,11421 Z"/>
  <path stroke-width="26" fill="none" stroke="rgb(0,0,0)" d="M 13224,11421 C 12407,11421 11744,11776 11744,12214 11744,12652 12407,13007 13224,13007 14041,13007 14703,12652 14703,12214 14703,11776 14041,11421 13224,11421 Z"/>
  <text fill="rgb(0,0,0)" stroke="none" x="12900" y="12129">
   <tspan x="12900 13137 13230 13441">List</tspan></text>
  <text fill="rgb(0,0,0)" stroke="none" x="12575" y="12637">
   <tspan x="12575 12858 13095 13327 13416 13648">Engine</tspan></text>
  <text fill="rgb(129,138,143)" stroke="none" x="7980" y="10932">
   <tspan x="7980 8263 8495 8613 8731 8968">Buffer</tspan></text>
  <text fill="rgb(129,138,143)" stroke="none" x="7934" y="11440">
   <tspan x="7934 8217 8521 8804">SRAM</tspan></text>
  <path fill="rgb(129,138,143)" stroke="none" d="M 8539,10222 C 7722,10222 7060,10577 7060,11016 7060,11453 7722,11809 8539,11809 9356,11809 10019,11453 10019,11016 10019,10577 9356,10222 8539,10222 Z"/>
  <path fill="rgb(255,204,153)" stroke="none" d="M 8468,10151 C 7652,10151 6989,10507 6989,10945 6989,11383 7652,11738 8468,11738 9286,11738 9948,11383 9948,10945 9948,10507 9286,10151 8468,10151 Z"/>
  <path stroke-width="26" fill="none" stroke="rgb(0,0,0)" d="M 8468,10151 C 7652,10151 6989,10507 6989,10945 6989,11383 7652,11738 8468,11738 9286,11738 9948,11383 9948,10945 9948,10507 9286,10151 8468,10151 Z"/>
  <text fill="rgb(0,0,0)" stroke="none" x="7908" y="10860">
   <tspan x="7908 8191 8423 8541 8659 8896">Buffer</tspan></text>
  <text fill="rgb(0,0,0)" stroke="none" x="7862" y="11368">
   <tspan x="7862 8145 8449 8732">SRAM</tspan></text>
 </g>
 <g fill="rgb(0,0,0)" stroke="none" font-family="Tahoma" font-size="495" font-style="normal" font-weight="400">
  <text x="10935" y="13944">
   <tspan x="10935 11269 11527 11705 11980 12348 12606 12784 13042 13198 13494 13722 13950 14212 14322 14584 14762 15020 15181 15452 15630">Hardware Accelerators</tspan></text>
 </g>
 <g fill="rgb(129,138,143)" stroke="none" font-family="Arial" font-size="423" font-style="normal" font-weight="400">
  <text x="14320" y="10932">
   <tspan x="14320 14603 14835 14953 15071 15308">Buffer</tspan></text>
  <text fill="rgb(129,138,143)" stroke="none" x="14054" y="11440">
   <tspan x="14054 14405 14642 14874 15111 15339 15576">Manager</tspan></text>
  <path fill="rgb(129,138,143)" stroke="none" d="M 14879,10222 C 14063,10222 13400,10578 13400,11016 13400,11453 14063,11809 14879,11809 15696,11809 16359,11453 16359,11016 16359,10578 15696,10222 14879,10222 Z"/>
  <path fill="rgb(255,204,153)" stroke="none" d="M 14809,10151 C 13992,10151 13329,10507 13329,10945 13329,11384 13992,11738 14809,11738 15626,11738 16288,11384 16288,10945 16288,10507 15626,10151 14809,10151 Z"/>
  <path stroke-width="26" fill="none" stroke="rgb(0,0,0)" d="M 14809,10151 C 13992,10151 13329,10507 13329,10945 13329,11384 13992,11738 14809,11738 15626,11738 16288,11384 16288,10945 16288,10507 15626,10151 14809,10151 Z"/>
  <text fill="rgb(0,0,0)" stroke="none" x="14249" y="10860">
   <tspan x="14249 14532 14764 14882 15000 15237">Buffer</tspan></text>
  <text fill="rgb(0,0,0)" stroke="none" x="13982" y="11368">
   <tspan x="13982 14333 14570 14802 15039 15267 15504">Manager</tspan></text>
  <text fill="rgb(129,138,143)" stroke="none" x="13441" y="5538">
   <tspan x="13441 13792 14029 14261 14498 14587 14824">Mapping</tspan></text>
  <text fill="rgb(129,138,143)" stroke="none" x="13420" y="6045">
   <tspan x="13420 13771 14008 14240 14477 14705 14942">Manager</tspan></text>
  <path fill="rgb(129,138,143)" stroke="none" d="M 14245,4828 C 13429,4828 12766,5183 12766,5621 12766,6059 13429,6415 14245,6415 15062,6415 15725,6059 15725,5621 15725,5183 15062,4828 14245,4828 Z"/>
  <path fill="rgb(204,255,255)" stroke="none" d="M 14175,4757 C 13358,4757 12695,5113 12695,5550 12695,5989 13358,6344 14175,6344 14992,6344 15654,5989 15654,5550 15654,5113 14992,4757 14175,4757 Z"/>
  <path stroke-width="26" fill="none" stroke="rgb(0,0,0)" d="M 14175,4757 C 13358,4757 12695,5113 12695,5550 12695,5989 13358,6344 14175,6344 14992,6344 15654,5989 15654,5550 15654,5113 14992,4757 14175,4757 Z"/>
  <text fill="rgb(0,0,0)" stroke="none" x="13369" y="5466">
   <tspan x="13369 13720 13957 14189 14426 14515 14752">Mapping</tspan></text>
  <text fill="rgb(0,0,0)" stroke="none" x="13348" y="5974">
   <tspan x="13348 13699 13936 14168 14405 14633 14870">Manager</tspan></text>
  <text fill="rgb(129,138,143)" stroke="none" x="13441" y="5855">
   <tspan x="13441 13792 14029 14261 14498 14587 14824">Mapping</tspan></text>
  <text fill="rgb(129,138,143)" stroke="none" x="13420" y="6363">
   <tspan x="13420 13771 14008 14240 14477 14705 14942">Manager</tspan></text>
  <path fill="rgb(129,138,143)" stroke="none" d="M 14245,5145 C 13429,5145 12766,5501 12766,5939 12766,6377 13429,6732 14245,6732 15062,6732 15725,6377 15725,5939 15725,5501 15062,5145 14245,5145 Z"/>
  <path fill="rgb(204,255,255)" stroke="none" d="M 14175,5075 C 13358,5075 12695,5430 12695,5868 12695,6307 13358,6661 14175,6661 14992,6661 15654,6307 15654,5868 15654,5430 14992,5075 14175,5075 Z"/>
  <path stroke-width="26" fill="none" stroke="rgb(0,0,0)" d="M 14175,5075 C 13358,5075 12695,5430 12695,5868 12695,6307 13358,6661 14175,6661 14992,6661 15654,6307 15654,5868 15654,5430 14992,5075 14175,5075 Z"/>
  <text fill="rgb(0,0,0)" stroke="none" x="13369" y="5783">
   <tspan x="13369 13720 13957 14189 14426 14515 14752">Mapping</tspan></text>
  <text fill="rgb(0,0,0)" stroke="none" x="13348" y="6291">
   <tspan x="13348 13699 13936 14168 14405 14633 14870">Manager</tspan></text>
  <text fill="rgb(129,138,143)" stroke="none" x="13441" y="6172">
   <tspan x="13441 13792 14029 14261 14498 14587 14824">Mapping</tspan></text>
  <text fill="rgb(129,138,143)" stroke="none" x="13420" y="6680">
   <tspan x="13420 13771 14008 14240 14477 14705 14942">Manager</tspan></text>
  <path fill="rgb(129,138,143)" stroke="none" d="M 14245,5463 C 13429,5463 12766,5818 12766,6256 12766,6694 13429,7049 14245,7049 15062,7049 15725,6694 15725,6256 15725,5818 15062,5463 14245,5463 Z"/>
  <path fill="rgb(204,255,255)" stroke="none" d="M 14175,5392 C 13358,5392 12695,5747 12695,6185 12695,6624 13358,6978 14175,6978 14992,6978 15654,6624 15654,6185 15654,5747 14992,5392 14175,5392 Z"/>
  <path stroke-width="26" fill="none" stroke="rgb(0,0,0)" d="M 14175,5392 C 13358,5392 12695,5747 12695,6185 12695,6624 13358,6978 14175,6978 14992,6978 15654,6624 15654,6185 15654,5747 14992,5392 14175,5392 Z"/>
  <text fill="rgb(0,0,0)" stroke="none" x="13369" y="6100">
   <tspan x="13369 13720 13957 14189 14426 14515 14752">Mapping</tspan></text>
  <text fill="rgb(0,0,0)" stroke="none" x="13348" y="6608">
   <tspan x="13348 13699 13936 14168 14405 14633 14870">Manager</tspan></text>
  <text fill="rgb(129,138,143)" stroke="none" x="13441" y="6490">
   <tspan x="13441 13792 14029 14261 14498 14587 14824">Mapping</tspan></text>
  <text fill="rgb(129,138,143)" stroke="none" x="13420" y="6997">
   <tspan x="13420 13771 14008 14240 14477 14705 14942">Manager</tspan></text>
  <path fill="rgb(129,138,143)" stroke="none" d="M 14245,5780 C 13429,5780 12766,6135 12766,6573 12766,7011 13429,7367 14245,7367 15062,7367 15725,7011 15725,6573 15725,6135 15062,5780 14245,5780 Z"/>
  <path fill="rgb(204,255,255)" stroke="none" d="M 14175,5709 C 13358,5709 12695,6065 12695,6502 12695,6941 13358,7296 14175,7296 14992,7296 15654,6941 15654,6502 15654,6065 14992,5709 14175,5709 Z"/>
  <path stroke-width="26" fill="none" stroke="rgb(0,0,0)" d="M 14175,5709 C 13358,5709 12695,6065 12695,6502 12695,6941 13358,7296 14175,7296 14992,7296 15654,6941 15654,6502 15654,6065 14992,5709 14175,5709 Z"/>
  <text fill="rgb(0,0,0)" stroke="none" x="13369" y="6418">
   <tspan x="13369 13720 13957 14189 14426 14515 14752">Mapping</tspan></text>
  <text fill="rgb(0,0,0)" stroke="none" x="13348" y="6925">
   <tspan x="13348 13699 13936 14168 14405 14633 14870">Manager</tspan></text>
  <text fill="rgb(129,138,143)" stroke="none" x="13441" y="5538">
   <tspan x="13441 13792 14029 14261 14498 14587 14824">Mapping</tspan></text>
  <text fill="rgb(129,138,143)" stroke="none" x="13420" y="6045">
   <tspan x="13420 13771 14008 14240 14477 14705 14942">Manager</tspan></text>
  <path fill="rgb(129,138,143)" stroke="none" d="M 14245,4828 C 13429,4828 12766,5183 12766,5621 12766,6059 13429,6415 14245,6415 15062,6415 15725,6059 15725,5621 15725,5183 15062,4828 14245,4828 Z"/>
  <path fill="rgb(204,255,255)" stroke="none" d="M 14175,4757 C 13358,4757 12695,5113 12695,5550 12695,5989 13358,6344 14175,6344 14992,6344 15654,5989 15654,5550 15654,5113 14992,4757 14175,4757 Z"/>
  <path stroke-width="26" fill="none" stroke="rgb(0,0,0)" d="M 14175,4757 C 13358,4757 12695,5113 12695,5550 12695,5989 13358,6344 14175,6344 14992,6344 15654,5989 15654,5550 15654,5113 14992,4757 14175,4757 Z"/>
  <text fill="rgb(0,0,0)" stroke="none" x="13369" y="5466">
   <tspan x="13369 13720 13957 14189 14426 14515 14752">Mapping</tspan></text>
  <text fill="rgb(0,0,0)" stroke="none" x="13348" y="5974">
   <tspan x="13348 13699 13936 14168 14405 14633 14870">Manager</tspan></text>
  <text fill="rgb(129,138,143)" stroke="none" x="13441" y="5855">
   <tspan x="13441 13792 14029 14261 14498 14587 14824">Mapping</tspan></text>
  <text fill="rgb(129,138,143)" stroke="none" x="13420" y="6363">
   <tspan x="13420 13771 14008 14240 14477 14705 14942">Manager</tspan></text>
  <path fill="rgb(129,138,143)" stroke="none" d="M 14245,5145 C 13429,5145 12766,5501 12766,5939 12766,6377 13429,6732 14245,6732 15062,6732 15725,6377 15725,5939 15725,5501 15062,5145 14245,5145 Z"/>
  <path fill="rgb(204,255,255)" stroke="none" d="M 14175,5075 C 13358,5075 12695,5430 12695,5868 12695,6307 13358,6661 14175,6661 14992,6661 15654,6307 15654,5868 15654,5430 14992,5075 14175,5075 Z"/>
  <path stroke-width="26" fill="none" stroke="rgb(0,0,0)" d="M 14175,5075 C 13358,5075 12695,5430 12695,5868 12695,6307 13358,6661 14175,6661 14992,6661 15654,6307 15654,5868 15654,5430 14992,5075 14175,5075 Z"/>
  <text fill="rgb(0,0,0)" stroke="none" x="13369" y="5783">
   <tspan x="13369 13720 13957 14189 14426 14515 14752">Mapping</tspan></text>
  <text fill="rgb(0,0,0)" stroke="none" x="13348" y="6291">
   <tspan x="13348 13699 13936 14168 14405 14633 14870">Manager</tspan></text>
  <text fill="rgb(129,138,143)" stroke="none" x="13441" y="6172">
   <tspan x="13441 13792 14029 14261 14498 14587 14824">Mapping</tspan></text>
  <text fill="rgb(129,138,143)" stroke="none" x="13420" y="6680">
   <tspan x="13420 13771 14008 14240 14477 14705 14942">Manager</tspan></text>
  <path fill="rgb(129,138,143)" stroke="none" d="M 14245,5463 C 13429,5463 12766,5818 12766,6256 12766,6694 13429,7049 14245,7049 15062,7049 15725,6694 15725,6256 15725,5818 15062,5463 14245,5463 Z"/>
  <path fill="rgb(204,255,255)" stroke="none" d="M 14175,5392 C 13358,5392 12695,5747 12695,6185 12695,6624 13358,6978 14175,6978 14992,6978 15654,6624 15654,6185 15654,5747 14992,5392 14175,5392 Z"/>
  <path stroke-width="26" fill="none" stroke="rgb(0,0,0)" d="M 14175,5392 C 13358,5392 12695,5747 12695,6185 12695,6624 13358,6978 14175,6978 14992,6978 15654,6624 15654,6185 15654,5747 14992,5392 14175,5392 Z"/>
  <text fill="rgb(0,0,0)" stroke="none" x="13369" y="6100">
   <tspan x="13369 13720 13957 14189 14426 14515 14752">Mapping</tspan></text>
  <text fill="rgb(0,0,0)" stroke="none" x="13348" y="6608">
   <tspan x="13348 13699 13936 14168 14405 14633 14870">Manager</tspan></text>
  <text fill="rgb(129,138,143)" stroke="none" x="13441" y="6490">
   <tspan x="13441 13792 14029 14261 14498 14587 14824">Mapping</tspan></text>
  <text fill="rgb(129,138,143)" stroke="none" x="13420" y="6997">
   <tspan x="13420 13771 14008 14240 14477 14705 14942">Manager</tspan></text>
  <path fill="rgb(129,138,143)" stroke="none" d="M 14245,5780 C 13429,5780 12766,6135 12766,6573 12766,7011 13429,7367 14245,7367 15062,7367 15725,7011 15725,6573 15725,6135 15062,5780 14245,5780 Z"/>
  <path fill="rgb(204,255,255)" stroke="none" d="M 14175,5709 C 13358,5709 12695,6065 12695,6502 12695,6941 13358,7296 14175,7296 14992,7296 15654,6941 15654,6502 15654,6065 14992,5709 14175,5709 Z"/>
  <path stroke-width="26" fill="none" stroke="rgb(0,0,0)" d="M 14175,5709 C 13358,5709 12695,6065 12695,6502 12695,6941 13358,7296 14175,7296 14992,7296 15654,6941 15654,6502 15654,6065 14992,5709 14175,5709 Z"/>
  <text fill="rgb(0,0,0)" stroke="none" x="13369" y="6418">
   <tspan x="13369 13720 13957 14189 14426 14515 14752">Mapping</tspan></text>
  <text fill="rgb(0,0,0)" stroke="none" x="13348" y="6925">
   <tspan x="13348 13699 13936 14168 14405 14633 14870">Manager</tspan></text>
  <text fill="rgb(129,138,143)" stroke="none" x="13881" y="2365">
   <tspan x="13881 14092 14324 14561 14700 14932 15169">Journal</tspan></text>
  <text fill="rgb(129,138,143)" stroke="none" x="13737" y="2872">
   <tspan x="13737 14088 14325 14557 14794 15022 15259">Manager</tspan></text>
  <path fill="rgb(129,138,143)" stroke="none" d="M 14562,1655 C 13746,1655 13083,2010 13083,2448 13083,2886 13746,3242 14562,3242 15379,3242 16042,2886 16042,2448 16042,2010 15379,1655 14562,1655 Z"/>
  <path fill="rgb(204,255,255)" stroke="none" d="M 14492,1584 C 13675,1584 13012,1940 13012,2377 13012,2816 13675,3171 14492,3171 15309,3171 15971,2816 15971,2377 15971,1940 15309,1584 14492,1584 Z"/>
  <path stroke-width="26" fill="none" stroke="rgb(0,0,0)" d="M 14492,1584 C 13675,1584 13012,1940 13012,2377 13012,2816 13675,3171 14492,3171 15309,3171 15971,2816 15971,2377 15971,1940 15309,1584 14492,1584 Z"/>
  <text fill="rgb(0,0,0)" stroke="none" x="13809" y="2293">
   <tspan x="13809 14020 14252 14489 14628 14860 15097">Journal</tspan></text>
  <text fill="rgb(0,0,0)" stroke="none" x="13665" y="2800">
   <tspan x="13665 14016 14253 14485 14722 14950 15187">Manager</tspan></text>
  <text fill="rgb(129,138,143)" stroke="none" x="14050" y="3951">
   <tspan x="14050 14333 14426 14663 14874">Block</tspan></text>
  <text fill="rgb(129,138,143)" stroke="none" x="13737" y="4459">
   <tspan x="13737 14088 14325 14557 14794 15022 15259">Manager</tspan></text>
  <path fill="rgb(129,138,143)" stroke="none" d="M 14562,3242 C 13746,3242 13083,3597 13083,4035 13083,4473 13746,4828 14562,4828 15379,4828 16042,4473 16042,4035 16042,3597 15379,3242 14562,3242 Z"/>
  <path fill="rgb(204,255,255)" stroke="none" d="M 14492,3171 C 13675,3171 13012,3526 13012,3964 13012,4403 13675,4757 14492,4757 15309,4757 15971,4403 15971,3964 15971,3526 15309,3171 14492,3171 Z"/>
  <path stroke-width="26" fill="none" stroke="rgb(0,0,0)" d="M 14492,3171 C 13675,3171 13012,3526 13012,3964 13012,4403 13675,4757 14492,4757 15309,4757 15971,4403 15971,3964 15971,3526 15309,3171 14492,3171 Z"/>
  <text fill="rgb(0,0,0)" stroke="none" x="13978" y="3879">
   <tspan x="13978 14261 14354 14591 14802">Block</tspan></text>
  <text fill="rgb(0,0,0)" stroke="none" x="13665" y="4387">
   <tspan x="13665 14016 14253 14485 14722 14950 15187">Manager</tspan></text>
  <text fill="rgb(129,138,143)" stroke="none" x="13682" y="8076">
   <tspan x="13682 13986 14223 14430 14667 14874 15111 15250">Recovery</tspan></text>
  <text fill="rgb(129,138,143)" stroke="none" x="13737" y="8584">
   <tspan x="13737 14088 14325 14557 14794 15022 15259">Manager</tspan></text>
  <path fill="rgb(129,138,143)" stroke="none" d="M 14562,7367 C 13746,7367 13083,7722 13083,8160 13083,8598 13746,8953 14562,8953 15379,8953 16042,8598 16042,8160 16042,7722 15379,7367 14562,7367 Z"/>
  <path fill="rgb(204,255,255)" stroke="none" d="M 14492,7296 C 13675,7296 13012,7651 13012,8089 13012,8528 13675,8882 14492,8882 15309,8882 15971,8528 15971,8089 15971,7651 15309,7296 14492,7296 Z"/>
  <path stroke-width="26" fill="none" stroke="rgb(0,0,0)" d="M 14492,7296 C 13675,7296 13012,7651 13012,8089 13012,8528 13675,8882 14492,8882 15309,8882 15971,8528 15971,8089 15971,7651 15309,7296 14492,7296 Z"/>
  <text fill="rgb(0,0,0)" stroke="none" x="13610" y="8004">
   <tspan x="13610 13914 14151 14358 14595 14802 15039 15178">Recovery</tspan></text>
  <text fill="rgb(0,0,0)" stroke="none" x="13665" y="8512">
   <tspan x="13665 14016 14253 14485 14722 14950 15187">Manager</tspan></text>
  <text fill="rgb(129,138,143)" stroke="none" x="13682" y="8394">
   <tspan x="13682 13986 14223 14430 14667 14874 15111 15250">Recovery</tspan></text>
  <text fill="rgb(129,138,143)" stroke="none" x="13737" y="8901">
   <tspan x="13737 14088 14325 14557 14794 15022 15259">Manager</tspan></text>
  <path fill="rgb(129,138,143)" stroke="none" d="M 14562,7684 C 13746,7684 13083,8039 13083,8477 13083,8915 13746,9270 14562,9270 15379,9270 16042,8915 16042,8477 16042,8039 15379,7684 14562,7684 Z"/>
  <path fill="rgb(204,255,255)" stroke="none" d="M 14492,7613 C 13675,7613 13012,7968 13012,8406 13012,8845 13675,9200 14492,9200 15309,9200 15971,8845 15971,8406 15971,7968 15309,7613 14492,7613 Z"/>
  <path stroke-width="26" fill="none" stroke="rgb(0,0,0)" d="M 14492,7613 C 13675,7613 13012,7968 13012,8406 13012,8845 13675,9200 14492,9200 15309,9200 15971,8845 15971,8406 15971,7968 15309,7613 14492,7613 Z"/>
  <text fill="rgb(0,0,0)" stroke="none" x="13610" y="8322">
   <tspan x="13610 13914 14151 14358 14595 14802 15039 15178">Recovery</tspan></text>
  <text fill="rgb(0,0,0)" stroke="none" x="13665" y="8829">
   <tspan x="13665 14016 14253 14485 14722 14950 15187">Manager</tspan></text>
  <text fill="rgb(129,138,143)" stroke="none" x="13682" y="8076">
   <tspan x="13682 13986 14223 14430 14667 14874 15111 15250">Recovery</tspan></text>
  <text fill="rgb(129,138,143)" stroke="none" x="13737" y="8584">
   <tspan x="13737 14088 14325 14557 14794 15022 15259">Manager</tspan></text>
  <path fill="rgb(129,138,143)" stroke="none" d="M 14562,7367 C 13746,7367 13083,7722 13083,8160 13083,8598 13746,8953 14562,8953 15379,8953 16042,8598 16042,8160 16042,7722 15379,7367 14562,7367 Z"/>
  <path fill="rgb(204,255,255)" stroke="none" d="M 14492,7296 C 13675,7296 13012,7651 13012,8089 13012,8528 13675,8882 14492,8882 15309,8882 15971,8528 15971,8089 15971,7651 15309,7296 14492,7296 Z"/>
  <path stroke-width="26" fill="none" stroke="rgb(0,0,0)" d="M 14492,7296 C 13675,7296 13012,7651 13012,8089 13012,8528 13675,8882 14492,8882 15309,8882 15971,8528 15971,8089 15971,7651 15309,7296 14492,7296 Z"/>
  <text fill="rgb(0,0,0)" stroke="none" x="13610" y="8004">
   <tspan x="13610 13914 14151 14358 14595 14802 15039 15178">Recovery</tspan></text>
  <text fill="rgb(0,0,0)" stroke="none" x="13665" y="8512">
   <tspan x="13665 14016 14253 14485 14722 14950 15187">Manager</tspan></text>
  <text fill="rgb(129,138,143)" stroke="none" x="13682" y="8394">
   <tspan x="13682 13986 14223 14430 14667 14874 15111 15250">Recovery</tspan></text>
  <text fill="rgb(129,138,143)" stroke="none" x="13737" y="8901">
   <tspan x="13737 14088 14325 14557 14794 15022 15259">Manager</tspan></text>
  <path fill="rgb(129,138,143)" stroke="none" d="M 14562,7684 C 13746,7684 13083,8039 13083,8477 13083,8915 13746,9270 14562,9270 15379,9270 16042,8915 16042,8477 16042,8039 15379,7684 14562,7684 Z"/>
  <path fill="rgb(204,255,255)" stroke="none" d="M 14492,7613 C 13675,7613 13012,7968 13012,8406 13012,8845 13675,9200 14492,9200 15309,9200 15971,8845 15971,8406 15971,7968 15309,7613 14492,7613 Z"/>
  <path stroke-width="26" fill="none" stroke="rgb(0,0,0)" d="M 14492,7613 C 13675,7613 13012,7968 13012,8406 13012,8845 13675,9200 14492,9200 15309,9200 15971,8845 15971,8406 15971,7968 15309,7613 14492,7613 Z"/>
  <text fill="rgb(0,0,0)" stroke="none" x="13610" y="8322">
   <tspan x="13610 13914 14151 14358 14595 14802 15039 15178">Recovery</tspan></text>
  <text fill="rgb(0,0,0)" stroke="none" x="13665" y="8829">
   <tspan x="13665 14016 14253 14485 14722 14950 15187">Manager</tspan></text>
  <text fill="rgb(129,138,143)" stroke="none" x="9134" y="4586">
   <tspan x="9134 9438 9670 9907 10025 10164 10401">Control</tspan></text>
  <text fill="rgb(129,138,143)" stroke="none" x="8982" y="5094">
   <tspan x="8982 9333 9570 9802 10039 10267 10504">Manager</tspan></text>
  <path fill="rgb(129,138,143)" stroke="none" d="M 9807,3876 C 8990,3876 8328,4231 8328,4669 8328,5107 8990,5463 9807,5463 10624,5463 11287,5107 11287,4669 11287,4231 10624,3876 9807,3876 Z"/>
  <path fill="rgb(204,255,255)" stroke="none" d="M 9736,3805 C 8920,3805 8257,4161 8257,4599 8257,5037 8920,5392 9736,5392 10554,5392 11216,5037 11216,4599 11216,4161 10554,3805 9736,3805 Z"/>
  <path stroke-width="26" fill="none" stroke="rgb(0,0,0)" d="M 9736,3805 C 8920,3805 8257,4161 8257,4599 8257,5037 8920,5392 9736,5392 10554,5392 11216,5037 11216,4599 11216,4161 10554,3805 9736,3805 Z"/>
  <text fill="rgb(0,0,0)" stroke="none" x="9062" y="4514">
   <tspan x="9062 9366 9598 9835 9953 10092 10329">Control</tspan></text>
  <text fill="rgb(0,0,0)" stroke="none" x="8910" y="5022">
   <tspan x="8910 9261 9498 9730 9967 10195 10432">Manager</tspan></text>
  <path fill="rgb(0,0,0)" stroke="rgb(0,0,0)" d="M 11382,7399 L 11382,7399 11449,7374 11446,7376 11479,7358 11511,7337 11541,7315 11571,7291 11601,7266 11630,7238 11658,7209 11711,7145 11760,7077 11804,7004 11843,6927 11860,6887 11876,6846 11890,6804 11903,6762 11913,6720 11922,6676 11929,6634 11934,6590 11937,6546 11938,6502 11939,6457 11942,6412 11948,6367 11955,6323 11964,6278 11975,6234 11988,6190 12003,6148 12019,6105 12036,6064 12077,5984 12122,5908 12173,5838 12228,5773 12257,5742 12287,5713 12317,5687 12349,5662 12381,5639 12415,5618 12448,5599 12448,5599 C 12449,5598 12450,5598 12451,5598 L 12451,5598 12518,5574 12530,5607 12463,5631 12465,5630 12433,5647 12402,5667 12371,5690 12341,5713 12311,5739 12282,5767 12255,5796 12201,5858 12153,5927 12108,6000 12069,6078 12052,6118 12036,6159 12022,6200 12009,6242 11999,6285 11990,6328 11983,6371 11978,6415 11975,6458 11973,6503 11972,6548 11969,6594 11963,6639 11957,6684 11947,6728 11936,6772 11923,6815 11909,6858 11893,6901 11875,6942 11835,7022 11789,7098 11738,7169 11683,7233 11654,7263 11624,7292 11594,7319 11562,7344 11529,7367 11496,7388 11464,7407 11464,7407 C 11463,7407 11462,7407 11461,7408 L 11394,7432 11382,7399 Z M 11446,7510 L 11446,7510 11216,7454 11399,7304 11446,7510 Z M 12466,5495 L 12466,5495 12695,5550 12513,5701 12466,5495 Z"/>
  <path fill="rgb(0,0,0)" stroke="rgb(0,0,0)" d="M 8084,7411 L 8036,7389 8036,7389 C 8035,7388 8034,7388 8033,7387 L 8033,7387 8007,7366 7982,7343 7957,7317 7933,7291 7909,7262 7886,7232 7843,7167 7803,7096 7767,7021 7736,6941 7709,6858 7688,6772 7672,6683 7666,6638 7662,6593 7660,6548 7659,6503 7658,6458 7655,6415 7651,6371 7646,6327 7630,6241 7609,6158 7583,6076 7552,5999 7517,5925 7479,5857 7438,5794 7415,5765 7393,5738 7370,5712 7346,5688 7322,5666 7297,5646 7301,5648 7253,5626 7268,5594 7316,5617 7316,5617 C 7317,5617 7318,5618 7319,5619 L 7319,5619 7346,5640 7371,5663 7396,5688 7420,5715 7444,5744 7467,5775 7510,5840 7550,5910 7585,5986 7617,6066 7643,6149 7665,6235 7681,6323 7687,6368 7690,6412 7693,6457 7694,6502 7694,6546 7697,6590 7701,6634 7707,6677 7722,6763 7743,6847 7769,6928 7800,7005 7834,7079 7872,7148 7914,7211 7936,7240 7959,7267 7982,7293 8006,7317 8029,7338 8055,7359 8052,7357 8099,7379 8084,7411 Z M 8094,7283 L 8094,7283 8257,7454 8023,7483 8094,7283 Z M 7258,5722 L 7258,5722 7095,5550 7330,5522 7258,5722 Z"/>
  <path fill="rgb(0,0,0)" stroke="rgb(0,0,0)" d="M 8083,7420 L 8038,7403 8038,7403 C 8036,7402 8035,7402 8034,7401 L 8034,7401 8009,7384 7983,7364 7958,7344 7934,7321 7887,7272 7844,7218 7804,7158 7768,7095 7737,7029 7710,6959 7688,6887 7672,6813 7666,6775 7662,6738 7660,6700 7659,6662 7658,6625 7655,6588 7651,6552 7646,6516 7630,6445 7609,6375 7583,6308 7553,6244 7518,6182 7480,6126 7438,6073 7394,6026 7371,6005 7347,5986 7323,5968 7299,5951 7302,5953 7257,5936 7270,5903 7315,5920 7315,5920 C 7316,5920 7317,5921 7318,5922 L 7318,5922 7345,5939 7370,5959 7395,5980 7419,6003 7466,6052 7509,6106 7549,6165 7585,6228 7616,6295 7643,6365 7665,6437 7681,6510 7687,6548 7690,6586 7693,6623 7694,6661 7694,6698 7697,6733 7701,6770 7707,6805 7722,6877 7743,6946 7768,7013 7799,7078 7833,7139 7871,7196 7913,7248 7958,7295 7981,7316 8005,7336 8028,7354 8054,7372 8050,7370 8095,7387 8083,7420 Z M 8086,7292 L 8086,7292 8257,7454 8025,7494 8086,7292 Z M 7266,6031 L 7266,6031 7095,5868 7328,5829 7266,6031 Z"/>
  <path fill="rgb(0,0,0)" stroke="rgb(0,0,0)" d="M 8088,7396 L 8034,7360 8034,7360 C 8033,7360 8032,7359 8031,7358 L 8031,7358 8006,7330 7980,7299 7955,7266 7931,7230 7908,7193 7885,7152 7863,7110 7842,7066 7822,7020 7803,6971 7784,6922 7767,6872 7736,6766 7709,6656 7688,6542 7672,6424 7666,6365 7662,6305 7660,6245 7659,6186 7658,6126 7655,6067 7651,6008 7646,5950 7630,5835 7609,5723 7583,5614 7552,5510 7535,5460 7517,5412 7498,5365 7478,5320 7458,5277 7437,5235 7414,5196 7392,5160 7368,5125 7345,5093 7320,5064 7296,5037 7299,5040 7245,5005 7265,4975 7318,5011 7318,5011 C 7319,5012 7320,5012 7321,5013 L 7321,5013 7347,5041 7373,5072 7397,5105 7421,5141 7445,5179 7468,5219 7490,5262 7511,5306 7531,5352 7550,5399 7569,5449 7586,5500 7617,5605 7644,5716 7665,5830 7681,5947 7687,6006 7690,6066 7693,6126 7694,6185 7694,6244 7697,6303 7701,6362 7707,6419 7722,6535 7743,6647 7769,6756 7800,6860 7817,6910 7835,6959 7854,7005 7874,7050 7894,7094 7915,7135 7937,7173 7961,7211 7983,7245 8007,7277 8032,7306 8057,7334 8054,7331 8107,7366 8088,7396 Z M 8110,7270 L 8110,7270 8257,7454 8021,7462 8110,7270 Z M 7243,5101 L 7243,5101 7095,4916 7331,4908 7243,5101 Z"/>
  <path fill="rgb(0,0,0)" stroke="rgb(0,0,0)" d="M 8086,7403 L 8035,7374 8035,7374 C 8034,7374 8033,7373 8032,7372 L 8032,7372 8007,7348 7981,7321 7956,7292 7932,7260 7908,7227 7886,7192 7864,7154 7842,7116 7822,7076 7803,7033 7767,6946 7736,6854 7709,6756 7688,6656 7672,6554 7666,6502 7662,6450 7660,6397 7659,6344 7658,6292 7655,6241 7651,6190 7646,6139 7630,6038 7609,5940 7583,5845 7552,5754 7517,5668 7498,5628 7479,5589 7458,5550 7437,5515 7415,5481 7392,5448 7369,5418 7345,5391 7321,5365 7297,5342 7300,5344 7249,5316 7266,5285 7317,5314 7317,5314 C 7318,5314 7319,5315 7320,5316 L 7320,5316 7347,5341 7372,5367 7397,5397 7421,5428 7445,5462 7467,5497 7489,5534 7510,5573 7531,5613 7550,5655 7586,5743 7617,5836 7644,5933 7665,6033 7681,6135 7687,6187 7690,6239 7693,6291 7694,6344 7694,6395 7697,6446 7701,6498 7707,6548 7722,6649 7743,6747 7769,6842 7800,6933 7835,7019 7853,7060 7873,7099 7894,7136 7915,7172 7937,7207 7960,7239 7983,7269 8007,7297 8030,7322 8056,7346 8053,7344 8103,7372 8086,7403 Z M 8102,7276 L 8102,7276 8257,7454 8021,7472 8102,7276 Z M 7250,5411 L 7250,5411 7095,5233 7330,5216 7250,5411 Z"/>
  <path fill="rgb(0,0,0)" stroke="rgb(0,0,0)" d="M 9754,5568 L 9754,6485 9719,6485 9719,5568 9754,5568 Z M 9631,5603 L 9736,5392 9842,5603 9631,5603 Z M 9842,6450 L 9736,6661 9631,6450 9842,6450 Z"/>
  <path fill="rgb(0,0,0)" stroke="rgb(0,0,0)" d="M 8640,8185 L 8626,8218 8626,8218 C 8626,8220 8625,8222 8624,8223 L 8624,8223 8596,8255 8565,8287 8529,8319 8491,8350 8449,8380 8405,8409 8357,8438 8307,8466 8253,8492 8198,8518 8141,8543 8081,8566 8019,8589 7955,8610 7890,8629 7822,8648 7684,8680 7613,8694 7541,8706 7468,8717 7394,8726 7320,8733 7272,8735 7270,8699 7317,8697 7390,8690 7463,8682 7535,8671 7606,8660 7676,8645 7813,8614 7879,8596 7944,8576 8007,8555 8068,8533 8127,8510 8184,8486 8238,8461 8289,8435 8338,8408 8385,8380 8428,8351 8469,8322 8506,8293 8539,8262 8569,8232 8597,8200 8594,8205 8607,8171 8640,8185 Z M 8513,8172 L 8513,8172 8689,8014 8709,8250 8513,8172 Z M 7310,8821 L 7310,8821 7095,8724 7302,8610 7310,8821 Z"/>
 </g>
 <g fill="rgb(129,138,143)" stroke="none" font-family="Tahoma" font-size="495" font-style="normal" font-weight="400">
  <text x="7503" y="5813">8</text>
  <path fill="rgb(129,138,143)" stroke="none" d="M 7632,5295 C 7457,5295 7315,5437 7315,5612 7315,5788 7457,5930 7632,5930 7807,5930 7949,5788 7949,5612 7949,5437 7807,5295 7632,5295 Z"/>
  <path fill="rgb(255,255,255)" stroke="none" d="M 7562,5225 C 7386,5225 7245,5366 7245,5542 7245,5717 7386,5859 7562,5859 7737,5859 7879,5717 7879,5542 7879,5366 7737,5225 7562,5225 Z"/>
  <path stroke-width="35" fill="none" stroke="rgb(255,0,0)" d="M 7562,5225 C 7386,5225 7245,5366 7245,5542 7245,5717 7386,5859 7562,5859 7737,5859 7879,5717 7879,5542 7879,5366 7737,5225 7562,5225 Z"/>
  <text fill="rgb(0,0,0)" stroke="none" x="7431" y="5741">8</text>
  <text fill="rgb(129,138,143)" stroke="none" x="7465" y="8969">
   <tspan x="7465 7736">10</tspan></text>
  <path fill="rgb(129,138,143)" stroke="none" d="M 7729,8451 C 7554,8451 7412,8592 7412,8768 7412,8943 7554,9085 7729,9085 7904,9085 8046,8943 8046,8768 8046,8592 7904,8451 7729,8451 Z"/>
  <path fill="rgb(255,255,255)" stroke="none" d="M 7659,8380 C 7484,8380 7341,8522 7341,8697 7341,8873 7484,9014 7659,9014 7834,9014 7976,8873 7976,8697 7976,8522 7834,8380 7659,8380 Z"/>
  <path stroke-width="35" fill="none" stroke="rgb(255,0,0)" d="M 7659,8380 C 7484,8380 7341,8522 7341,8697 7341,8873 7484,9014 7659,9014 7834,9014 7976,8873 7976,8697 7976,8522 7834,8380 7659,8380 Z"/>
  <text fill="rgb(0,0,0)" stroke="none" x="7393" y="8897">
   <tspan x="7393 7664">10</tspan></text>
  <text fill="rgb(129,138,143)" stroke="none" x="7765" y="7310">9</text>
  <path fill="rgb(129,138,143)" stroke="none" d="M 7892,6793 C 7717,6793 7575,6936 7575,7111 7575,7286 7717,7428 7892,7428 8067,7428 8209,7286 8209,7111 8209,6936 8067,6793 7892,6793 Z"/>
  <path fill="rgb(255,255,255)" stroke="none" d="M 7821,6723 C 7646,6723 7504,6865 7504,7040 7504,7216 7646,7358 7821,7358 7997,7358 8138,7216 8138,7040 8138,6865 7997,6723 7821,6723 Z"/>
  <path stroke-width="35" fill="none" stroke="rgb(255,0,0)" d="M 7821,6723 C 7646,6723 7504,6865 7504,7040 7504,7216 7646,7358 7821,7358 7997,7358 8138,7216 8138,7040 8138,6865 7997,6723 7821,6723 Z"/>
  <text fill="rgb(0,0,0)" stroke="none" x="7693" y="7239">9</text>
  <path fill="rgb(0,0,0)" stroke="rgb(0,0,0)" d="M 11384,7405 L 11384,7405 11450,7385 11447,7386 11480,7370 11512,7354 11542,7335 11573,7315 11602,7294 11659,7246 11712,7194 11761,7137 11805,7076 11844,7012 11860,6979 11876,6946 11891,6911 11903,6876 11913,6840 11922,6805 11929,6769 11934,6733 11937,6697 11938,6661 11939,6623 11942,6585 11948,6547 11955,6510 11965,6473 11976,6436 11988,6399 12003,6363 12019,6328 12037,6293 12077,6227 12123,6163 12174,6105 12229,6050 12288,6001 12319,5978 12350,5958 12382,5938 12416,5921 12449,5905 12449,5905 C 12450,5905 12451,5904 12452,5904 L 12452,5904 12518,5884 12528,5918 12462,5938 12464,5937 12432,5952 12400,5969 12370,5987 12340,6007 12310,6028 12254,6075 12200,6127 12152,6185 12107,6245 12069,6310 12051,6343 12036,6377 12022,6411 12009,6446 11998,6481 11990,6517 11982,6553 11978,6589 11975,6625 11973,6662 11972,6700 11969,6738 11963,6776 11956,6813 11947,6851 11936,6888 11923,6924 11908,6960 11892,6995 11874,7030 11833,7097 11788,7160 11737,7220 11682,7273 11623,7322 11592,7345 11560,7365 11528,7385 11495,7402 11463,7418 11463,7418 C 11462,7418 11461,7418 11460,7418 L 11394,7438 11384,7405 Z M 11444,7518 L 11444,7518 11216,7454 11403,7311 11444,7518 Z M 12468,5804 L 12468,5804 12695,5868 12508,6012 12468,5804 Z"/>
  <path fill="rgb(0,0,0)" stroke="rgb(0,0,0)" d="M 11385,7410 L 11385,7410 11483,7383 11481,7384 11544,7355 11604,7322 11661,7284 11714,7242 11762,7197 11806,7149 11845,7097 11861,7071 11877,7044 11891,7017 11903,6989 11914,6961 11922,6933 11929,6905 11934,6876 11937,6848 11938,6819 11939,6790 11942,6758 11948,6728 11956,6698 11965,6667 11976,6637 11989,6608 12004,6579 12020,6551 12038,6522 12078,6469 12124,6418 12175,6371 12230,6327 12289,6288 12351,6253 12417,6224 12417,6224 C 12417,6223 12418,6223 12419,6223 L 12419,6223 12517,6196 12526,6230 12428,6257 12431,6256 12369,6284 12308,6317 12252,6355 12199,6397 12150,6442 12107,6490 12068,6542 12051,6568 12035,6595 12021,6622 12009,6650 11998,6677 11989,6705 11982,6734 11978,6762 11975,6791 11973,6821 11972,6851 11969,6883 11963,6913 11956,6943 11947,6974 11935,7004 11922,7033 11907,7062 11891,7090 11873,7118 11832,7172 11786,7223 11736,7270 11680,7314 11621,7353 11559,7387 11495,7416 11495,7416 C 11494,7417 11493,7417 11492,7417 L 11395,7444 11385,7410 Z M 11441,7526 L 11441,7526 11216,7454 11409,7317 11441,7526 Z M 12470,6114 L 12470,6114 12695,6185 12503,6323 12470,6114 Z"/>
  <path fill="rgb(0,0,0)" stroke="rgb(0,0,0)" d="M 11388,7417 L 11484,7396 11546,7376 11606,7351 11663,7322 11716,7291 11764,7257 11808,7220 11846,7182 11863,7162 11878,7143 11892,7122 11904,7102 11914,7081 11923,7061 11930,7040 11934,7019 11937,6998 11938,6978 11939,6956 11942,6931 11948,6908 11956,6884 11965,6861 11977,6839 11990,6816 12005,6794 12022,6773 12040,6751 12080,6711 12126,6673 12177,6637 12232,6604 12291,6575 12353,6549 12418,6527 12517,6506 12524,6540 12429,6561 12367,6581 12307,6606 12250,6635 12197,6666 12148,6700 12105,6736 12066,6774 12049,6794 12034,6814 12020,6834 12008,6854 11998,6875 11989,6895 11982,6916 11977,6937 11975,6957 11973,6979 11972,7003 11969,7028 11963,7051 11956,7074 11946,7097 11934,7120 11921,7142 11906,7164 11889,7186 11871,7207 11830,7248 11784,7286 11734,7321 11678,7354 11620,7383 11557,7409 11491,7431 11394,7451 11388,7417 Z M 11438,7535 L 11216,7454 11413,7325 11438,7535 Z M 12473,6423 L 12695,6502 12498,6632 12473,6423 Z"/>
  <path fill="rgb(0,0,0)" stroke="rgb(0,0,0)" d="M 12849,2442 L 12849,2442 12796,2461 12800,2459 12727,2510 12656,2573 12585,2649 12515,2737 12445,2837 12376,2950 12309,3073 12243,3207 12178,3351 12116,3505 12055,3668 11996,3839 11940,4019 11885,4207 11833,4401 11784,4602 11737,4810 11693,5024 11653,5242 11615,5465 11581,5693 11523,6160 11481,6638 11465,6881 11454,7124 11447,7368 11447,7437 11411,7437 11412,7368 11419,7122 11430,6878 11446,6635 11488,6156 11547,5688 11580,5460 11618,5236 11659,5016 11702,4803 11749,4594 11799,4392 11851,4197 11906,4008 11963,3828 12022,3656 12083,3492 12147,3337 12212,3191 12278,3056 12347,2932 12416,2817 12487,2715 12559,2624 12632,2546 12707,2481 12780,2430 12780,2430 C 12781,2429 12783,2429 12785,2428 L 12837,2409 12849,2442 Z M 12780,2333 L 12780,2333 13012,2377 12838,2537 12780,2333 Z M 11535,7402 L 11535,7402 11427,7613 11324,7401 11535,7402 Z"/>
  <path fill="rgb(0,0,0)" stroke="rgb(0,0,0)" d="M 12845,4014 L 12845,4014 12759,4042 12762,4041 12711,4066 12662,4096 12614,4128 12566,4166 12519,4207 12473,4251 12428,4298 12385,4349 12342,4403 12301,4460 12261,4519 12223,4581 12187,4646 12153,4712 12120,4782 12090,4852 12061,4924 12035,4998 12012,5074 11990,5151 11971,5228 11955,5307 11941,5387 11931,5467 11923,5548 11918,5629 11916,5710 11915,5791 11913,5874 11908,5955 11901,6036 11893,6117 11883,6197 11871,6276 11858,6353 11843,6429 11827,6505 11809,6578 11790,6649 11770,6719 11748,6787 11726,6852 11702,6915 11678,6976 11652,7034 11625,7088 11598,7141 11570,7189 11541,7235 11511,7277 11481,7316 11450,7350 11450,7350 C 11449,7351 11448,7352 11447,7353 L 11447,7353 11387,7396 11366,7367 11427,7324 11423,7327 11453,7294 11482,7257 11511,7216 11539,7172 11567,7124 11594,7074 11620,7019 11645,6962 11669,6903 11692,6841 11715,6776 11736,6710 11756,6640 11775,6570 11792,6497 11808,6423 11823,6347 11836,6270 11848,6192 11858,6113 11866,6033 11873,5953 11877,5872 11881,5791 11882,5709 11883,5627 11888,5544 11896,5463 11906,5381 11920,5300 11937,5220 11956,5141 11978,5063 12002,4987 12028,4912 12058,4838 12089,4766 12121,4696 12157,4629 12194,4563 12232,4500 12273,4439 12315,4381 12358,4326 12403,4274 12448,4225 12496,4180 12545,4138 12594,4100 12644,4065 12695,4035 12745,4009 12745,4009 C 12746,4008 12748,4008 12748,4008 L 12834,3980 12845,4014 Z M 12785,3899 L 12785,3899 13012,3964 12824,4107 12785,3899 Z M 11452,7462 L 11452,7462 11216,7454 11364,7270 11452,7462 Z"/>
  <path fill="rgb(0,0,0)" stroke="rgb(0,0,0)" d="M 12835,8097 L 12835,8097 12761,8091 12680,8079 12602,8065 12527,8048 12456,8029 12390,8007 12329,7983 12299,7971 12273,7958 12247,7945 12223,7931 12202,7917 12181,7903 12163,7888 12147,7873 12133,7857 12120,7842 12110,7825 12110,7825 C 12110,7825 12110,7824 12109,7823 L 12109,7823 12103,7808 12099,7791 12099,7791 C 12098,7790 12098,7789 12098,7788 L 12098,7788 12097,7773 12096,7758 12096,7762 12092,7747 12087,7734 12088,7736 12079,7721 12069,7709 12057,7695 12043,7683 12026,7669 12007,7656 11987,7643 11965,7630 11940,7618 11914,7605 11887,7593 11827,7570 11763,7549 11693,7530 11620,7513 11542,7499 11463,7488 11391,7482 11393,7447 11468,7453 11549,7464 11627,7479 11702,7496 11773,7516 11840,7537 11901,7561 11930,7573 11957,7586 11982,7599 12006,7613 12028,7627 12049,7642 12066,7656 12083,7672 12097,7688 12109,7704 12118,7719 12118,7719 C 12118,7719 12119,7720 12119,7721 L 12119,7721 12126,7738 12130,7753 12130,7753 C 12130,7754 12130,7755 12130,7756 L 12130,7756 12132,7771 12133,7785 12133,7782 12136,7795 12142,7810 12141,7808 12148,7820 12158,7834 12171,7847 12185,7860 12202,7874 12220,7887 12241,7900 12264,7913 12288,7926 12314,7938 12341,7950 12400,7973 12465,7994 12535,8013 12608,8030 12685,8045 12764,8056 12838,8062 12835,8097 Z M 12807,7972 L 12807,7972 13012,8089 12796,8183 12807,7972 Z M 11421,7572 L 11421,7572 11216,7454 11433,7361 11421,7572 Z"/>
  <path fill="rgb(0,0,0)" stroke="rgb(0,0,0)" d="M 12835,8409 L 12761,8400 12679,8383 12601,8361 12525,8335 12454,8306 12387,8273 12326,8238 12297,8220 12270,8200 12245,8180 12221,8160 12199,8139 12178,8117 12161,8095 12144,8073 12130,8050 12119,8028 12109,8004 12102,7980 12098,7956 12097,7931 12096,7909 12092,7889 12086,7868 12078,7848 12068,7828 12055,7808 12040,7787 12024,7767 12005,7747 11984,7727 11962,7708 11938,7689 11912,7671 11884,7653 11825,7618 11760,7587 11691,7558 11618,7534 11541,7512 11462,7496 11390,7487 11394,7452 11469,7461 11550,7479 11629,7500 11705,7526 11776,7555 11842,7588 11904,7624 11932,7642 11959,7662 11985,7681 12009,7702 12031,7723 12051,7745 12069,7767 12085,7789 12099,7812 12110,7835 12120,7859 12126,7883 12130,7907 12132,7929 12133,7950 12137,7970 12142,7991 12150,8011 12161,8032 12173,8052 12187,8073 12204,8093 12223,8113 12243,8133 12266,8152 12291,8171 12316,8190 12343,8208 12403,8242 12468,8273 12537,8302 12610,8327 12687,8348 12765,8366 12839,8375 12835,8409 Z M 12810,8284 L 13012,8406 12793,8495 12810,8284 Z M 11418,7578 L 11216,7454 11436,7367 11418,7578 Z"/>
  <text fill="rgb(129,138,143)" stroke="none" x="12406" y="8394">2</text>
  <path fill="rgb(129,138,143)" stroke="none" d="M 12532,7873 C 12358,7873 12215,8015 12215,8190 12215,8366 12358,8508 12532,8508 12708,8508 12849,8366 12849,8190 12849,8015 12708,7873 12532,7873 Z"/>
  <path fill="rgb(255,255,255)" stroke="none" d="M 12462,7803 C 12287,7803 12145,7945 12145,8120 12145,8295 12287,8437 12462,8437 12637,8437 12779,8295 12779,8120 12779,7945 12637,7803 12462,7803 Z"/>
  <path stroke-width="35" fill="none" stroke="rgb(255,0,0)" d="M 12462,7803 C 12287,7803 12145,7945 12145,8120 12145,8295 12287,8437 12462,8437 12637,8437 12779,8295 12779,8120 12779,7945 12637,7803 12462,7803 Z"/>
  <text fill="rgb(0,0,0)" stroke="none" x="12334" y="8322">2</text>
  <text fill="rgb(129,138,143)" stroke="none" x="10068" y="6642">1</text>
  <path fill="rgb(129,138,143)" stroke="none" d="M 10199,6124 C 10024,6124 9882,6265 9882,6441 9882,6616 10024,6758 10199,6758 10374,6758 10516,6616 10516,6441 10516,6265 10374,6124 10199,6124 Z"/>
  <path fill="rgb(255,255,255)" stroke="none" d="M 10129,6053 C 9954,6053 9812,6195 9812,6370 9812,6546 9954,6687 10129,6687 10304,6687 10446,6546 10446,6370 10446,6195 10304,6053 10129,6053 Z"/>
  <path stroke-width="35" fill="none" stroke="rgb(255,0,0)" d="M 10129,6053 C 9954,6053 9812,6195 9812,6370 9812,6546 9954,6687 10129,6687 10304,6687 10446,6546 10446,6370 10446,6195 10304,6053 10129,6053 Z"/>
  <text fill="rgb(0,0,0)" stroke="none" x="9996" y="6570">1</text>
  <text fill="rgb(129,138,143)" stroke="none" x="12275" y="3266">2</text>
  <path fill="rgb(129,138,143)" stroke="none" d="M 12405,2748 C 12230,2748 12088,2890 12088,3065 12088,3240 12230,3382 12405,3382 12580,3382 12722,3240 12722,3065 12722,2890 12580,2748 12405,2748 Z"/>
  <path fill="rgb(255,255,255)" stroke="none" d="M 12334,2677 C 12159,2677 12017,2820 12017,2995 12017,3170 12159,3312 12334,3312 12510,3312 12651,3170 12651,2995 12651,2820 12510,2677 12334,2677 Z"/>
  <path stroke-width="35" fill="none" stroke="rgb(255,0,0)" d="M 12334,2677 C 12159,2677 12017,2820 12017,2995 12017,3170 12159,3312 12334,3312 12510,3312 12651,3170 12651,2995 12651,2820 12510,2677 12334,2677 Z"/>
  <text fill="rgb(0,0,0)" stroke="none" x="12203" y="3194">2</text>
  <text fill="rgb(129,138,143)" stroke="none" x="12461" y="4476">2</text>
  <path fill="rgb(129,138,143)" stroke="none" d="M 12590,3955 C 12415,3955 12273,4097 12273,4273 12273,4448 12415,4590 12590,4590 12765,4590 12907,4448 12907,4273 12907,4097 12765,3955 12590,3955 Z"/>
  <path fill="rgb(255,255,255)" stroke="none" d="M 12519,3885 C 12344,3885 12202,4027 12202,4202 12202,4377 12344,4519 12519,4519 12695,4519 12836,4377 12836,4202 12836,4027 12695,3885 12519,3885 Z"/>
  <path stroke-width="35" fill="none" stroke="rgb(255,0,0)" d="M 12519,3885 C 12344,3885 12202,4027 12202,4202 12202,4377 12344,4519 12519,4519 12695,4519 12836,4377 12836,4202 12836,4027 12695,3885 12519,3885 Z"/>
  <text fill="rgb(0,0,0)" stroke="none" x="12389" y="4404">2</text>
  <text fill="rgb(129,138,143)" stroke="none" x="12224" y="5927">2</text>
  <path fill="rgb(129,138,143)" stroke="none" d="M 12352,5410 C 12177,5410 12035,5552 12035,5727 12035,5902 12177,6044 12352,6044 12527,6044 12669,5902 12669,5727 12669,5552 12527,5410 12352,5410 Z"/>
  <path fill="rgb(255,255,255)" stroke="none" d="M 12282,5339 C 12107,5339 11965,5481 11965,5656 11965,5832 12107,5974 12282,5974 12457,5974 12599,5832 12599,5656 12599,5481 12457,5339 12282,5339 Z"/>
  <path stroke-width="35" fill="none" stroke="rgb(255,0,0)" d="M 12282,5339 C 12107,5339 11965,5481 11965,5656 11965,5832 12107,5974 12282,5974 12457,5974 12599,5832 12599,5656 12599,5481 12457,5339 12282,5339 Z"/>
  <text fill="rgb(0,0,0)" stroke="none" x="12152" y="5855">2</text>
  <text fill="rgb(129,138,143)" stroke="none" x="10795" y="7251">
   <tspan x="10795 11066 11214 11485 11633">3,5,7</tspan></text>
  <path fill="rgb(129,138,143)" stroke="none" d="M 10806,6732 L 10806,6732 C 10665,6732 10551,6874 10551,7049 10551,7224 10665,7367 10806,7367 L 11881,7367 11881,7367 C 12022,7367 12136,7224 12136,7049 12136,6874 12022,6732 11881,6732 L 10806,6732 Z"/>
  <path fill="rgb(255,255,255)" stroke="none" d="M 10736,6661 L 10736,6661 C 10595,6661 10481,6803 10481,6978 10481,7154 10595,7296 10736,7296 L 11811,7296 11811,7296 C 11952,7296 12066,7154 12066,6978 12066,6803 11952,6661 11811,6661 L 10736,6661 Z"/>
  <path stroke-width="35" fill="none" stroke="rgb(255,0,0)" d="M 10736,6661 L 10736,6661 C 10595,6661 10481,6803 10481,6978 10481,7154 10595,7296 10736,7296 L 11811,7296 11811,7296 C 11952,7296 12066,7154 12066,6978 12066,6803 11952,6661 11811,6661 L 10736,6661 Z"/>
  <text fill="rgb(0,0,0)" stroke="none" x="10723" y="7179">
   <tspan x="10723 10994 11142 11413 11561">3,5,7</tspan></text>
  <text fill="rgb(129,138,143)" stroke="none" x="12871" y="7082">
   <tspan x="12871 13142 13290">4,6</tspan></text>
  <path fill="rgb(129,138,143)" stroke="none" d="M 12776,6564 L 12776,6564 C 12664,6564 12572,6707 12572,6882 12572,7057 12664,7199 12776,7199 L 13636,7199 13636,7199 C 13749,7199 13840,7057 13840,6882 13840,6707 13749,6564 13636,6564 L 12776,6564 Z"/>
  <path fill="rgb(255,255,255)" stroke="none" d="M 12706,6494 L 12706,6494 C 12593,6494 12502,6636 12502,6811 12502,6986 12593,7129 12706,7129 L 13566,7129 13566,7129 C 13678,7129 13770,6986 13770,6811 13770,6636 13678,6494 13566,6494 L 12706,6494 Z"/>
  <path stroke-width="35" fill="none" stroke="rgb(255,0,0)" d="M 12706,6494 L 12706,6494 C 12593,6494 12502,6636 12502,6811 12502,6986 12593,7129 12706,7129 L 13566,7129 13566,7129 C 13678,7129 13770,6986 13770,6811 13770,6636 13678,6494 13566,6494 L 12706,6494 Z"/>
  <text fill="rgb(0,0,0)" stroke="none" x="12799" y="7010">
   <tspan x="12799 13070 13218">4,6</tspan></text>
  <text fill="rgb(129,138,143)" stroke="none" x="8192" y="8673">
   <tspan x="8192 8463">11</tspan></text>
  <path fill="rgb(129,138,143)" stroke="none" d="M 8455,8155 C 8280,8155 8138,8297 8138,8472 8138,8648 8280,8790 8455,8790 8631,8790 8772,8648 8772,8472 8772,8297 8631,8155 8455,8155 Z"/>
  <path fill="rgb(255,255,255)" stroke="none" d="M 8385,8085 C 8210,8085 8068,8227 8068,8402 8068,8578 8210,8719 8385,8719 8560,8719 8702,8578 8702,8402 8702,8227 8560,8085 8385,8085 Z"/>
  <path stroke-width="35" fill="none" stroke="rgb(255,0,0)" d="M 8385,8085 C 8210,8085 8068,8227 8068,8402 8068,8578 8210,8719 8385,8719 8560,8719 8702,8578 8702,8402 8702,8227 8560,8085 8385,8085 Z"/>
  <text fill="rgb(0,0,0)" stroke="none" x="8120" y="8601">
   <tspan x="8120 8391">11</tspan></text>
  <text fill="rgb(129,138,143)" stroke="none" x="9925" y="5961">
   <tspan x="9925 10196">12</tspan></text>
  <path fill="rgb(129,138,143)" stroke="none" d="M 10190,5440 C 10015,5440 9873,5583 9873,5758 9873,5933 10015,6075 10190,6075 10365,6075 10507,5933 10507,5758 10507,5583 10365,5440 10190,5440 Z"/>
  <path fill="rgb(255,255,255)" stroke="none" d="M 10120,5370 C 9945,5370 9803,5512 9803,5687 9803,5862 9945,6005 10120,6005 10295,6005 10437,5862 10437,5687 10437,5512 10295,5370 10120,5370 Z"/>
  <path stroke-width="35" fill="none" stroke="rgb(255,0,0)" d="M 10120,5370 C 9945,5370 9803,5512 9803,5687 9803,5862 9945,6005 10120,6005 10295,6005 10437,5862 10437,5687 10437,5512 10295,5370 10120,5370 Z"/>
  <text fill="rgb(0,0,0)" stroke="none" x="9853" y="5889">
   <tspan x="9853 10124">12</tspan></text>
 </g>
</svg>