<?xml version="1.0" encoding="UTF-8"?><!DOCTYPE svg PUBLIC "-//W3C//DTD SVG 1.1//EN" "/SysSchema/SVG11/svg11.dtd">
<svg xmlns:xlink="http://www.w3.org/1999/xlink" xmlns="http://www.w3.org/2000/svg" width="201mm" height="142mm" viewBox="0 0 20100 14200" stroke-width="28.222" stroke-linejoin="round" xml:space="preserve" preserveAspectRatio="xMidYMid meet" zoomAndPan="magnify" version="1.1" contentScriptType="text/ecmascript" contentStyleType="text/css">
 <path fill="rgb(153,204,255)" stroke="none" d="M 10170,9855 L 10170,13353 16517,13353 16517,9855 10170,9855 Z"/>
 <path fill="none" stroke="none" d="M 10170,9855 L 10170,13353 16517,13353 16517,9855 10170,9855 Z"/>
 <path stroke-width="35" fill="none" stroke="rgb(0,0,0)" d="M 10170,9855 L 10170,13353 16517,13353 16517,9855 10170,9855 Z"/>
 <rect fill="rgb(192,192,192)" stroke="none" x="3821" y="949" width="12698" height="8908"/>
 <rect fill="rgb(127,127,127)" stroke="none" x="3823" y="952" width="12695" height="8904"/>
 <rect fill="rgb(192,192,192)" stroke="none" x="3821" y="949" width="12698" height="8908"/>
 <path fill="none" stroke="none" d="M 3823,952 L 3823,9855 16517,9855 16517,952 3823,952 Z"/>
 <path stroke-width="35" fill="none" stroke="rgb(0,0,0)" d="M 3823,952 L 3823,9855 16517,9855 16517,952 3823,952 Z"/>
 <g fill="rgb(129,138,143)" stroke="none" font-family="Arial" font-size="424" font-style="normal" font-weight="400">
  <text x="5230" y="8733">
   <tspan x="5230 5514 5819 5937">PCIe</tspan></text>
  <text fill="rgb(129,138,143)" stroke="none" x="4866" y="9238">
   <tspan x="4866 5217 5454 5687 5924 6152 6389">Manager</tspan></text>
  <path fill="rgb(129,138,143)" stroke="none" d="M 5692,8018 C 4874,8018 4212,8374 4212,8813 4212,9252 4874,9608 5692,9608 6510,9608 7173,9252 7173,8813 7173,8374 6510,8018 5692,8018 Z"/>
  <path fill="rgb(204,255,255)" stroke="none" d="M 5622,7947 C 4804,7947 4141,8303 4141,8742 4141,9181 4804,9537 5622,9537 6440,9537 7103,9181 7103,8742 7103,8303 6440,7947 5622,7947 Z"/>
  <path stroke-width="26" fill="none" stroke="rgb(0,0,0)" d="M 5622,7947 C 4804,7947 4141,8303 4141,8742 4141,9181 4804,9537 5622,9537 6440,9537 7103,9181 7103,8742 7103,8303 6440,7947 5622,7947 Z"/>
  <text fill="rgb(0,0,0)" stroke="none" x="5158" y="8661">
   <tspan x="5158 5442 5747 5865">PCIe</tspan></text>
  <text fill="rgb(0,0,0)" stroke="none" x="4794" y="9166">
   <tspan x="4794 5145 5382 5615 5852 6080 6317">Manager</tspan></text>
  <text fill="rgb(129,138,143)" stroke="none" x="5205" y="4918">
   <tspan x="5205 5510 5747 5861 6098">Datal</tspan></text>
  <text fill="rgb(129,138,143)" stroke="none" x="4866" y="5422">
   <tspan x="4866 5217 5454 5687 5924 6152 6389">Manager</tspan></text>
  <path fill="rgb(129,138,143)" stroke="none" d="M 5692,4202 C 4874,4202 4212,4558 4212,4997 4212,5436 4874,5792 5692,5792 6510,5792 7173,5436 7173,4997 7173,4558 6510,4202 5692,4202 Z"/>
  <path fill="rgb(204,255,255)" stroke="none" d="M 5622,4131 C 4804,4131 4141,4487 4141,4926 4141,5366 4804,5721 5622,5721 6440,5721 7103,5366 7103,4926 7103,4487 6440,4131 5622,4131 Z"/>
  <path stroke-width="26" fill="none" stroke="rgb(0,0,0)" d="M 5622,4131 C 4804,4131 4141,4487 4141,4926 4141,5366 4804,5721 5622,5721 6440,5721 7103,5366 7103,4926 7103,4487 6440,4131 5622,4131 Z"/>
  <text fill="rgb(0,0,0)" stroke="none" x="5133" y="4846">
   <tspan x="5133 5438 5675 5789 6026">Datal</tspan></text>
  <text fill="rgb(0,0,0)" stroke="none" x="4794" y="5350">
   <tspan x="4794 5145 5382 5615 5852 6080 6317">Manager</tspan></text>
  <text fill="rgb(129,138,143)" stroke="none" x="5205" y="5236">
   <tspan x="5205 5510 5747 5861 6098">Datal</tspan></text>
  <text fill="rgb(129,138,143)" stroke="none" x="4866" y="5740">
   <tspan x="4866 5217 5454 5687 5924 6152 6389">Manager</tspan></text>
  <path fill="rgb(129,138,143)" stroke="none" d="M 5692,4520 C 4874,4520 4212,4876 4212,5315 4212,5754 4874,6110 5692,6110 6510,6110 7173,5754 7173,5315 7173,4876 6510,4520 5692,4520 Z"/>
  <path fill="rgb(204,255,255)" stroke="none" d="M 5622,4449 C 4804,4449 4141,4805 4141,5244 4141,5684 4804,6039 5622,6039 6440,6039 7103,5684 7103,5244 7103,4805 6440,4449 5622,4449 Z"/>
  <path stroke-width="26" fill="none" stroke="rgb(0,0,0)" d="M 5622,4449 C 4804,4449 4141,4805 4141,5244 4141,5684 4804,6039 5622,6039 6440,6039 7103,5684 7103,5244 7103,4805 6440,4449 5622,4449 Z"/>
  <text fill="rgb(0,0,0)" stroke="none" x="5133" y="5164">
   <tspan x="5133 5438 5675 5789 6026">Datal</tspan></text>
  <text fill="rgb(0,0,0)" stroke="none" x="4794" y="5668">
   <tspan x="4794 5145 5382 5615 5852 6080 6317">Manager</tspan></text>
  <text fill="rgb(129,138,143)" stroke="none" x="5205" y="5554">
   <tspan x="5205 5510 5747 5861 6098">Datal</tspan></text>
  <text fill="rgb(129,138,143)" stroke="none" x="4866" y="6058">
   <tspan x="4866 5217 5454 5687 5924 6152 6389">Manager</tspan></text>
  <path fill="rgb(129,138,143)" stroke="none" d="M 5692,4838 C 4874,4838 4212,5194 4212,5633 4212,6072 4874,6428 5692,6428 6510,6428 7173,6072 7173,5633 7173,5194 6510,4838 5692,4838 Z"/>
  <path fill="rgb(204,255,255)" stroke="none" d="M 5622,4767 C 4804,4767 4141,5123 4141,5562 4141,6001 4804,6357 5622,6357 6440,6357 7103,6001 7103,5562 7103,5123 6440,4767 5622,4767 Z"/>
  <path stroke-width="26" fill="none" stroke="rgb(0,0,0)" d="M 5622,4767 C 4804,4767 4141,5123 4141,5562 4141,6001 4804,6357 5622,6357 6440,6357 7103,6001 7103,5562 7103,5123 6440,4767 5622,4767 Z"/>
  <text fill="rgb(0,0,0)" stroke="none" x="5133" y="5482">
   <tspan x="5133 5438 5675 5789 6026">Datal</tspan></text>
  <text fill="rgb(0,0,0)" stroke="none" x="4794" y="5986">
   <tspan x="4794 5145 5382 5615 5852 6080 6317">Manager</tspan></text>
  <text fill="rgb(129,138,143)" stroke="none" x="5251" y="5872">
   <tspan x="5251 5556 5793 5907">Data</tspan></text>
  <text fill="rgb(129,138,143)" stroke="none" x="4866" y="6376">
   <tspan x="4866 5217 5454 5687 5924 6152 6389">Manager</tspan></text>
  <path fill="rgb(129,138,143)" stroke="none" d="M 5692,5156 C 4874,5156 4212,5512 4212,5951 4212,6390 4874,6746 5692,6746 6510,6746 7173,6390 7173,5951 7173,5512 6510,5156 5692,5156 Z"/>
  <path fill="rgb(204,255,255)" stroke="none" d="M 5622,5085 C 4804,5085 4141,5441 4141,5880 4141,6319 4804,6675 5622,6675 6440,6675 7103,6319 7103,5880 7103,5441 6440,5085 5622,5085 Z"/>
  <path stroke-width="26" fill="none" stroke="rgb(0,0,0)" d="M 5622,5085 C 4804,5085 4141,5441 4141,5880 4141,6319 4804,6675 5622,6675 6440,6675 7103,6319 7103,5880 7103,5441 6440,5085 5622,5085 Z"/>
  <text fill="rgb(0,0,0)" stroke="none" x="5179" y="5800">
   <tspan x="5179 5484 5721 5835">Data</tspan></text>
  <text fill="rgb(0,0,0)" stroke="none" x="4794" y="6304">
   <tspan x="4794 5145 5382 5615 5852 6080 6317">Manager</tspan></text>
  <text fill="rgb(129,138,143)" stroke="none" x="5205" y="4918">
   <tspan x="5205 5510 5747 5861 6098">Datal</tspan></text>
  <text fill="rgb(129,138,143)" stroke="none" x="4866" y="5422">
   <tspan x="4866 5217 5454 5687 5924 6152 6389">Manager</tspan></text>
  <path fill="rgb(129,138,143)" stroke="none" d="M 5692,4202 C 4874,4202 4212,4558 4212,4997 4212,5436 4874,5792 5692,5792 6510,5792 7173,5436 7173,4997 7173,4558 6510,4202 5692,4202 Z"/>
  <path fill="rgb(204,255,255)" stroke="none" d="M 5622,4131 C 4804,4131 4141,4487 4141,4926 4141,5366 4804,5721 5622,5721 6440,5721 7103,5366 7103,4926 7103,4487 6440,4131 5622,4131 Z"/>
  <path stroke-width="26" fill="none" stroke="rgb(0,0,0)" d="M 5622,4131 C 4804,4131 4141,4487 4141,4926 4141,5366 4804,5721 5622,5721 6440,5721 7103,5366 7103,4926 7103,4487 6440,4131 5622,4131 Z"/>
  <text fill="rgb(0,0,0)" stroke="none" x="5133" y="4846">
   <tspan x="5133 5438 5675 5789 6026">Datal</tspan></text>
  <text fill="rgb(0,0,0)" stroke="none" x="4794" y="5350">
   <tspan x="4794 5145 5382 5615 5852 6080 6317">Manager</tspan></text>
  <text fill="rgb(129,138,143)" stroke="none" x="5205" y="5236">
   <tspan x="5205 5510 5747 5861 6098">Datal</tspan></text>
  <text fill="rgb(129,138,143)" stroke="none" x="4866" y="5740">
   <tspan x="4866 5217 5454 5687 5924 6152 6389">Manager</tspan></text>
  <path fill="rgb(129,138,143)" stroke="none" d="M 5692,4520 C 4874,4520 4212,4876 4212,5315 4212,5754 4874,6110 5692,6110 6510,6110 7173,5754 7173,5315 7173,4876 6510,4520 5692,4520 Z"/>
  <path fill="rgb(204,255,255)" stroke="none" d="M 5622,4449 C 4804,4449 4141,4805 4141,5244 4141,5684 4804,6039 5622,6039 6440,6039 7103,5684 7103,5244 7103,4805 6440,4449 5622,4449 Z"/>
  <path stroke-width="26" fill="none" stroke="rgb(0,0,0)" d="M 5622,4449 C 4804,4449 4141,4805 4141,5244 4141,5684 4804,6039 5622,6039 6440,6039 7103,5684 7103,5244 7103,4805 6440,4449 5622,4449 Z"/>
  <text fill="rgb(0,0,0)" stroke="none" x="5133" y="5164">
   <tspan x="5133 5438 5675 5789 6026">Datal</tspan></text>
  <text fill="rgb(0,0,0)" stroke="none" x="4794" y="5668">
   <tspan x="4794 5145 5382 5615 5852 6080 6317">Manager</tspan></text>
  <text fill="rgb(129,138,143)" stroke="none" x="5205" y="5554">
   <tspan x="5205 5510 5747 5861 6098">Datal</tspan></text>
  <text fill="rgb(129,138,143)" stroke="none" x="4866" y="6058">
   <tspan x="4866 5217 5454 5687 5924 6152 6389">Manager</tspan></text>
  <path fill="rgb(129,138,143)" stroke="none" d="M 5692,4838 C 4874,4838 4212,5194 4212,5633 4212,6072 4874,6428 5692,6428 6510,6428 7173,6072 7173,5633 7173,5194 6510,4838 5692,4838 Z"/>
  <path fill="rgb(204,255,255)" stroke="none" d="M 5622,4767 C 4804,4767 4141,5123 4141,5562 4141,6001 4804,6357 5622,6357 6440,6357 7103,6001 7103,5562 7103,5123 6440,4767 5622,4767 Z"/>
  <path stroke-width="26" fill="none" stroke="rgb(0,0,0)" d="M 5622,4767 C 4804,4767 4141,5123 4141,5562 4141,6001 4804,6357 5622,6357 6440,6357 7103,6001 7103,5562 7103,5123 6440,4767 5622,4767 Z"/>
  <text fill="rgb(0,0,0)" stroke="none" x="5133" y="5482">
   <tspan x="5133 5438 5675 5789 6026">Datal</tspan></text>
  <text fill="rgb(0,0,0)" stroke="none" x="4794" y="5986">
   <tspan x="4794 5145 5382 5615 5852 6080 6317">Manager</tspan></text>
  <text fill="rgb(129,138,143)" stroke="none" x="5251" y="5872">
   <tspan x="5251 5556 5793 5907">Data</tspan></text>
  <text fill="rgb(129,138,143)" stroke="none" x="4866" y="6376">
   <tspan x="4866 5217 5454 5687 5924 6152 6389">Manager</tspan></text>
  <path fill="rgb(129,138,143)" stroke="none" d="M 5692,5156 C 4874,5156 4212,5512 4212,5951 4212,6390 4874,6746 5692,6746 6510,6746 7173,6390 7173,5951 7173,5512 6510,5156 5692,5156 Z"/>
  <path fill="rgb(204,255,255)" stroke="none" d="M 5622,5085 C 4804,5085 4141,5441 4141,5880 4141,6319 4804,6675 5622,6675 6440,6675 7103,6319 7103,5880 7103,5441 6440,5085 5622,5085 Z"/>
  <path stroke-width="26" fill="none" stroke="rgb(0,0,0)" d="M 5622,5085 C 4804,5085 4141,5441 4141,5880 4141,6319 4804,6675 5622,6675 6440,6675 7103,6319 7103,5880 7103,5441 6440,5085 5622,5085 Z"/>
  <text fill="rgb(0,0,0)" stroke="none" x="5179" y="5800">
   <tspan x="5179 5484 5721 5835">Data</tspan></text>
  <text fill="rgb(0,0,0)" stroke="none" x="4794" y="6304">
   <tspan x="4794 5145 5382 5615 5852 6080 6317">Manager</tspan></text>
  <path fill="rgb(153,204,255)" stroke="none" d="M 16517,952 L 16517,9855 20008,9855 20008,952 16517,952 Z"/>
  <path fill="none" stroke="none" d="M 16517,952 L 16517,9855 20008,9855 20008,952 16517,952 Z"/>
  <path stroke-width="35" fill="none" stroke="rgb(0,0,0)" d="M 16517,952 L 16517,9855 20008,9855 20008,952 16517,952 Z"/>
  <path fill="rgb(153,204,255)" stroke="none" d="M 15,952 L 15,9855 3823,9855 3823,952 15,952 Z"/>
  <path fill="none" stroke="none" d="M 15,952 L 15,9855 3823,9855 3823,952 15,952 Z"/>
  <path stroke-width="35" fill="none" stroke="rgb(0,0,0)" d="M 15,952 L 15,9855 3823,9855 3823,952 15,952 Z"/>
  <text fill="rgb(129,138,143)" stroke="none" x="474" y="2056">i</text>
  <text fill="rgb(129,138,143)" stroke="none" x="567" y="2056">-</text>
  <text fill="rgb(129,138,143)" stroke="none" x="707" y="2056">
   <tspan x="707 1012 1363 1647 1765 1883">DMA, e</tspan></text>
  <text fill="rgb(129,138,143)" stroke="none" x="2120" y="2056">-</text>
  <text fill="rgb(129,138,143)" stroke="none" x="2260" y="2056">
   <tspan x="2260 2565 2916">DMA</tspan></text>
  <text fill="rgb(129,138,143)" stroke="none" x="1007" y="2560">
   <tspan x="1007 1358 1595 1828 2065 2293 2530">Manager</tspan></text>
  <path fill="rgb(129,138,143)" stroke="none" d="M 1831,1340 C 1042,1340 403,1696 403,2135 403,2574 1042,2930 1831,2930 2620,2930 3259,2574 3259,2135 3259,1696 2620,1340 1831,1340 Z"/>
  <path fill="rgb(255,204,153)" stroke="none" d="M 1760,1269 C 972,1269 332,1626 332,2064 332,2503 972,2859 1760,2859 2549,2859 3189,2503 3189,2064 3189,1626 2549,1269 1760,1269 Z"/>
  <path stroke-width="26" fill="none" stroke="rgb(0,0,0)" d="M 1760,1269 C 972,1269 332,1626 332,2064 332,2503 972,2859 1760,2859 2549,2859 3189,2503 3189,2064 3189,1626 2549,1269 1760,1269 Z"/>
  <text fill="rgb(0,0,0)" stroke="none" x="402" y="1984">i</text>
  <text fill="rgb(0,0,0)" stroke="none" x="495" y="1984">-</text>
  <text fill="rgb(0,0,0)" stroke="none" x="635" y="1984">
   <tspan x="635 940 1291 1575 1693 1811">DMA, e</tspan></text>
  <text fill="rgb(0,0,0)" stroke="none" x="2048" y="1984">-</text>
  <text fill="rgb(0,0,0)" stroke="none" x="2188" y="1984">
   <tspan x="2188 2493 2844">DMA</tspan></text>
  <text fill="rgb(0,0,0)" stroke="none" x="935" y="2488">
   <tspan x="935 1286 1523 1756 1993 2221 2458">Manager</tspan></text>
  <text fill="rgb(129,138,143)" stroke="none" x="804" y="4282">
   <tspan x="804 1088 1321 1554 1909 2002 2214 2426 2515 2752">Submission</tspan></text>
  <text fill="rgb(129,138,143)" stroke="none" x="1058" y="4786">
   <tspan x="1058 1409 1646 1879 2116 2344 2581">Manager</tspan></text>
  <path fill="rgb(129,138,143)" stroke="none" d="M 1884,3566 C 1066,3566 403,3922 403,4361 403,4800 1066,5156 1884,5156 2702,5156 3365,4800 3365,4361 3365,3922 2702,3566 1884,3566 Z"/>
  <path fill="rgb(255,204,153)" stroke="none" d="M 1813,3495 C 996,3495 332,3851 332,4290 332,4730 996,5085 1813,5085 2632,5085 3294,4730 3294,4290 3294,3851 2632,3495 1813,3495 Z"/>
  <path stroke-width="26" fill="none" stroke="rgb(0,0,0)" d="M 1813,3495 C 996,3495 332,3851 332,4290 332,4730 996,5085 1813,5085 2632,5085 3294,4730 3294,4290 3294,3851 2632,3495 1813,3495 Z"/>
  <text fill="rgb(0,0,0)" stroke="none" x="732" y="4210">
   <tspan x="732 1016 1249 1482 1837 1930 2142 2354 2443 2680">Submission</tspan></text>
  <text fill="rgb(0,0,0)" stroke="none" x="986" y="4714">
   <tspan x="986 1337 1574 1807 2044 2272 2509">Manager</tspan></text>
  <text fill="rgb(129,138,143)" stroke="none" x="825" y="6508">
   <tspan x="825 1130 1363 1718 1951 2044 2281 2399 2488 2721">Completion</tspan></text>
  <text fill="rgb(129,138,143)" stroke="none" x="1058" y="7012">
   <tspan x="1058 1409 1646 1879 2116 2344 2581">Manager</tspan></text>
  <path fill="rgb(129,138,143)" stroke="none" d="M 1884,5792 C 1066,5792 403,6148 403,6587 403,7026 1066,7382 1884,7382 2702,7382 3365,7026 3365,6587 3365,6148 2702,5792 1884,5792 Z"/>
  <path fill="rgb(255,204,153)" stroke="none" d="M 1813,5721 C 996,5721 332,6077 332,6516 332,6955 996,7311 1813,7311 2632,7311 3294,6955 3294,6516 3294,6077 2632,5721 1813,5721 Z"/>
  <path stroke-width="26" fill="none" stroke="rgb(0,0,0)" d="M 1813,5721 C 996,5721 332,6077 332,6516 332,6955 996,7311 1813,7311 2632,7311 3294,6955 3294,6516 3294,6077 2632,5721 1813,5721 Z"/>
  <text fill="rgb(0,0,0)" stroke="none" x="753" y="6436">
   <tspan x="753 1058 1291 1646 1879 1972 2209 2327 2416 2649">Completion</tspan></text>
  <text fill="rgb(0,0,0)" stroke="none" x="986" y="6940">
   <tspan x="986 1337 1574 1807 2044 2272 2509">Manager</tspan></text>
  <text fill="rgb(129,138,143)" stroke="none" x="1456" y="8733">
   <tspan x="1456 1761 1998 2210">Host</tspan></text>
  <text fill="rgb(129,138,143)" stroke="none" x="1058" y="9238">
   <tspan x="1058 1409 1646 1879 2116 2344 2581">Manager</tspan></text>
  <path fill="rgb(129,138,143)" stroke="none" d="M 1884,8018 C 1066,8018 403,8374 403,8813 403,9252 1066,9608 1884,9608 2702,9608 3365,9252 3365,8813 3365,8374 2702,8018 1884,8018 Z"/>
  <path fill="rgb(255,204,153)" stroke="none" d="M 1813,7947 C 996,7947 332,8303 332,8742 332,9181 996,9537 1813,9537 2632,9537 3294,9181 3294,8742 3294,8303 2632,7947 1813,7947 Z"/>
  <path stroke-width="26" fill="none" stroke="rgb(0,0,0)" d="M 1813,7947 C 996,7947 332,8303 332,8742 332,9181 996,9537 1813,9537 2632,9537 3294,9181 3294,8742 3294,8303 2632,7947 1813,7947 Z"/>
  <text fill="rgb(0,0,0)" stroke="none" x="1384" y="8661">
   <tspan x="1384 1689 1926 2138">Host</tspan></text>
  <text fill="rgb(0,0,0)" stroke="none" x="986" y="9166">
   <tspan x="986 1337 1574 1807 2044 2272 2509">Manager</tspan></text>
 </g>
 <g fill="rgb(0,0,0)" stroke="none" font-family="Tahoma" font-size="496" font-style="normal" font-weight="400">
  <text x="8205" y="619">
   <tspan x="8205 8476 8654 8925 9153 9415 9635 9855 10126 10299 10456 10752 11019 11434 11709 11823 12081">Processor Complex</tspan></text>
  <text fill="rgb(0,0,0)" stroke="none" x="906" y="619">
   <tspan x="906 1240 1511 1731 1896 2053 2235 2425">Host I/F</tspan></text>
  <text fill="rgb(0,0,0)" stroke="none" x="17408" y="619">
   <tspan x="17408 17666 17780 18038 18258 18533 18690 18876 19062">Flash I/F</tspan></text>
 </g>
 <g fill="rgb(129,138,143)" stroke="none" font-family="Arial" font-size="424" font-style="normal" font-weight="400">
  <text x="17874" y="5236">
   <tspan x="17874 18132 18225 18462 18674">Flash</tspan></text>
  <text fill="rgb(129,138,143)" stroke="none" x="17569" y="5740">
   <tspan x="17569 17687 17924 18042 18279 18414 18532 18769 18981">Interface</tspan></text>
  <path fill="rgb(129,138,143)" stroke="none" d="M 18387,4520 C 17569,4520 16906,4876 16906,5315 16906,5754 17569,6110 18387,6110 19204,6110 19868,5754 19868,5315 19868,4876 19204,4520 18387,4520 Z"/>
  <path fill="rgb(255,204,153)" stroke="none" d="M 18316,4449 C 17498,4449 16835,4805 16835,5244 16835,5684 17498,6039 18316,6039 19135,6039 19797,5684 19797,5244 19797,4805 19135,4449 18316,4449 Z"/>
  <path stroke-width="26" fill="none" stroke="rgb(0,0,0)" d="M 18316,4449 C 17498,4449 16835,4805 16835,5244 16835,5684 17498,6039 18316,6039 19135,6039 19797,5684 19797,5244 19797,4805 19135,4449 18316,4449 Z"/>
  <text fill="rgb(0,0,0)" stroke="none" x="17802" y="5164">
   <tspan x="17802 18060 18153 18390 18602">Flash</tspan></text>
  <text fill="rgb(0,0,0)" stroke="none" x="17497" y="5668">
   <tspan x="17497 17615 17852 17970 18207 18342 18460 18697 18909">Interface</tspan></text>
  <path fill="rgb(153,204,255)" stroke="none" d="M 3823,9855 L 3823,13353 10170,13353 10170,9855 3823,9855 Z"/>
  <path fill="none" stroke="none" d="M 3823,9855 L 3823,13353 10170,13353 10170,9855 3823,9855 Z"/>
  <path stroke-width="35" fill="none" stroke="rgb(0,0,0)" d="M 3823,9855 L 3823,13353 10170,13353 10170,9855 3823,9855 Z"/>
  <text fill="rgb(129,138,143)" stroke="none" x="5124" y="11209">
   <tspan x="5124 5429 5734 6039">DDR3</tspan></text>
  <path fill="rgb(129,138,143)" stroke="none" d="M 5692,10244 C 4874,10244 4212,10599 4212,11039 4212,11478 4874,11834 5692,11834 6510,11834 7173,11478 7173,11039 7173,10599 6510,10244 5692,10244 Z"/>
  <path fill="rgb(255,204,153)" stroke="none" d="M 5622,10173 C 4804,10173 4141,10529 4141,10968 4141,11407 4804,11763 5622,11763 6440,11763 7103,11407 7103,10968 7103,10529 6440,10173 5622,10173 Z"/>
  <path stroke-width="26" fill="none" stroke="rgb(0,0,0)" d="M 5622,10173 C 4804,10173 4141,10529 4141,10968 4141,11407 4804,11763 5622,11763 6440,11763 7103,11407 7103,10968 7103,10529 6440,10173 5622,10173 Z"/>
  <text fill="rgb(0,0,0)" stroke="none" x="5052" y="11137">
   <tspan x="5052 5357 5662 5967">DDR3</tspan></text>
 </g>
 <g fill="rgb(0,0,0)" stroke="none" font-family="Tahoma" font-size="496" font-style="normal" font-weight="400">
  <text x="5031" y="13974">
   <tspan x="5031 5412 5674 6084 6355 6533 6778 6935 7227 7498 7769 7934 8112 8383 8497 8607 8869">Memory Controller</tspan></text>
 </g>
 <g fill="rgb(129,138,143)" stroke="none" font-family="Arial" font-size="424" font-style="normal" font-weight="400">
  <text x="4972" y="2056">
   <tspan x="4972 5205 5442 5654 5866 5955 6192">Locking</tspan></text>
  <text fill="rgb(129,138,143)" stroke="none" x="4866" y="2560">
   <tspan x="4866 5217 5454 5687 5924 6152 6389">Manager</tspan></text>
  <path fill="rgb(129,138,143)" stroke="none" d="M 5692,1341 C 4874,1341 4212,1696 4212,2135 4212,2574 4874,2930 5692,2930 6510,2930 7173,2574 7173,2135 7173,1696 6510,1341 5692,1341 Z"/>
  <path fill="rgb(204,255,255)" stroke="none" d="M 5622,1269 C 4804,1269 4141,1626 4141,2064 4141,2504 4804,2859 5622,2859 6440,2859 7103,2504 7103,2064 7103,1626 6440,1269 5622,1269 Z"/>
  <path stroke-width="26" fill="none" stroke="rgb(0,0,0)" d="M 5622,1269 C 4804,1269 4141,1626 4141,2064 4141,2504 4804,2859 5622,2859 6440,2859 7103,2504 7103,2064 7103,1626 6440,1269 5622,1269 Z"/>
  <text fill="rgb(0,0,0)" stroke="none" x="4900" y="1984">
   <tspan x="4900 5133 5370 5582 5794 5883 6120">Locking</tspan></text>
  <text fill="rgb(0,0,0)" stroke="none" x="4794" y="2488">
   <tspan x="4794 5145 5382 5615 5852 6080 6317">Manager</tspan></text>
  <text fill="rgb(129,138,143)" stroke="none" x="8725" y="6508">
   <tspan x="8725 9009 9242 9597 9686 9923 10041 10346 10697">Admin Cmd</tspan></text>
  <text fill="rgb(129,138,143)" stroke="none" x="8992" y="7012">
   <tspan x="8992 9343 9580 9813 10050 10278 10515">Manager</tspan></text>
  <path fill="rgb(129,138,143)" stroke="none" d="M 9818,5792 C 9000,5792 8337,6148 8337,6587 8337,7026 9000,7382 9818,7382 10636,7382 11299,7026 11299,6587 11299,6148 10636,5792 9818,5792 Z"/>
  <path fill="rgb(204,255,255)" stroke="none" d="M 9747,5721 C 8930,5721 8266,6077 8266,6516 8266,6955 8930,7311 9747,7311 10565,7311 11228,6955 11228,6516 11228,6077 10565,5721 9747,5721 Z"/>
  <path stroke-width="26" fill="none" stroke="rgb(0,0,0)" d="M 9747,5721 C 8930,5721 8266,6077 8266,6516 8266,6955 8930,7311 9747,7311 10565,7311 11228,6955 11228,6516 11228,6077 10565,5721 9747,5721 Z"/>
  <text fill="rgb(0,0,0)" stroke="none" x="8653" y="6436">
   <tspan x="8653 8937 9170 9525 9614 9851 9969 10274 10625">Admin Cmd</tspan></text>
  <text fill="rgb(0,0,0)" stroke="none" x="8920" y="6940">
   <tspan x="8920 9271 9508 9741 9978 10206 10443">Manager</tspan></text>
  <rect fill="rgb(204,255,204)" stroke="none" x="12390" y="1267" width="3812" height="8272"/>
  <rect fill="rgb(127,127,127)" stroke="none" x="12392" y="1269" width="3809" height="8268"/>
  <rect fill="rgb(204,255,204)" stroke="none" x="12390" y="1267" width="3812" height="8272"/>
  <path fill="rgb(0,0,0)" stroke="rgb(0,0,0)" d="M 16200,1288 L 15919,1288 15919,1253 16200,1253 16200,1288 Z M 15813,1288 L 15530,1288 15530,1253 15813,1253 15813,1288 Z M 15425,1288 L 15142,1288 15142,1253 15425,1253 15425,1288 Z M 15036,1288 L 14755,1288 14755,1253 15036,1253 15036,1288 Z M 14649,1288 L 14367,1288 14367,1253 14649,1253 14649,1288 Z M 14261,1288 L 13979,1288 13979,1253 14261,1253 14261,1288 Z M 13873,1288 L 13591,1288 13591,1253 13873,1253 13873,1288 Z M 13486,1288 L 13203,1288 13203,1253 13486,1253 13486,1288 Z M 13097,1288 L 12815,1288 12815,1253 13097,1253 13097,1288 Z M 12709,1288 L 12428,1288 12428,1253 12709,1253 12709,1288 Z M 12410,1341 L 12410,1624 12375,1624 12375,1341 12410,1341 Z M 12410,1729 L 12410,2011 12375,2011 12375,1729 12410,1729 Z M 12410,2117 L 12410,2400 12375,2400 12375,2117 12410,2117 Z M 12410,2506 L 12410,2789 12375,2789 12375,2506 12410,2506 Z M 12410,2895 L 12410,3177 12375,3177 12375,2895 12410,2895 Z M 12410,3283 L 12410,3566 12375,3566 12375,3283 12410,3283 Z M 12410,3672 L 12410,3955 12375,3955 12375,3672 12410,3672 Z M 12410,4061 L 12410,4343 12375,4343 12375,4061 12410,4061 Z M 12410,4449 L 12410,4732 12375,4732 12375,4449 12410,4449 Z M 12410,4838 L 12410,5121 12375,5121 12375,4838 12410,4838 Z M 12410,5227 L 12410,5509 12375,5509 12375,5227 12410,5227 Z M 12410,5615 L 12410,5898 12375,5898 12375,5615 12410,5615 Z M 12410,6004 L 12410,6287 12375,6287 12375,6004 12410,6004 Z M 12410,6393 L 12410,6675 12375,6675 12375,6393 12410,6393 Z M 12410,6781 L 12410,7064 12375,7064 12375,6781 12410,6781 Z M 12410,7170 L 12410,7453 12375,7453 12375,7170 12410,7170 Z M 12410,7559 L 12410,7841 12375,7841 12375,7559 12410,7559 Z M 12410,7947 L 12410,8230 12375,8230 12375,7947 12410,7947 Z M 12410,8336 L 12410,8619 12375,8619 12375,8336 12410,8336 Z M 12410,8725 L 12410,9007 12375,9007 12375,8725 12410,8725 Z M 12410,9113 L 12410,9396 12375,9396 12375,9113 12410,9113 Z M 12410,9502 L 12410,9537 12392,9520 12639,9520 12639,9555 12375,9555 12375,9502 12410,9502 Z M 12745,9520 L 13027,9520 13027,9555 12745,9555 12745,9520 Z M 13132,9520 L 13415,9520 13415,9555 13132,9555 13132,9520 Z M 13521,9520 L 13803,9520 13803,9555 13521,9555 13521,9520 Z M 13909,9520 L 14190,9520 14190,9555 13909,9555 13909,9520 Z M 14296,9520 L 14578,9520 14578,9555 14296,9555 14296,9520 Z M 14684,9520 L 14967,9520 14967,9555 14684,9555 14684,9520 Z M 15072,9520 L 15354,9520 15354,9555 15072,9555 15072,9520 Z M 15460,9520 L 15742,9520 15742,9555 15460,9555 15460,9520 Z M 15848,9520 L 16130,9520 16130,9555 15848,9555 15848,9520 Z M 16183,9502 L 16183,9219 16218,9219 16218,9502 16183,9502 Z M 16183,9113 L 16183,8831 16218,8831 16218,9113 16183,9113 Z M 16183,8725 L 16183,8442 16218,8442 16218,8725 16183,8725 Z M 16183,8336 L 16183,8053 16218,8053 16218,8336 16183,8336 Z M 16183,7947 L 16183,7665 16218,7665 16218,7947 16183,7947 Z M 16183,7559 L 16183,7276 16218,7276 16218,7559 16183,7559 Z M 16183,7170 L 16183,6887 16218,6887 16218,7170 16183,7170 Z M 16183,6781 L 16183,6499 16218,6499 16218,6781 16183,6781 Z M 16183,6393 L 16183,6110 16218,6110 16218,6393 16183,6393 Z M 16183,6004 L 16183,5721 16218,5721 16218,6004 16183,6004 Z M 16183,5615 L 16183,5333 16218,5333 16218,5615 16183,5615 Z M 16183,5227 L 16183,4944 16218,4944 16218,5227 16183,5227 Z M 16183,4838 L 16183,4555 16218,4555 16218,4838 16183,4838 Z M 16183,4449 L 16183,4167 16218,4167 16218,4449 16183,4449 Z M 16183,4061 L 16183,3778 16218,3778 16218,4061 16183,4061 Z M 16183,3672 L 16183,3389 16218,3389 16218,3672 16183,3672 Z M 16183,3283 L 16183,3001 16218,3001 16218,3283 16183,3283 Z M 16183,2895 L 16183,2612 16218,2612 16218,2895 16183,2895 Z M 16183,2506 L 16183,2223 16218,2223 16218,2506 16183,2506 Z M 16183,2117 L 16183,1835 16218,1835 16218,2117 16183,2117 Z M 16183,1729 L 16183,1446 16218,1446 16218,1729 16183,1729 Z M 16183,1341 L 16183,1269 16218,1269 16218,1341 16183,1341 Z"/>
 </g>
 <g fill="rgb(0,0,0)" stroke="none" font-family="Tahoma" font-size="496" font-style="normal" font-weight="400">
  <text x="13900" y="5600">
   <tspan x="13900 14158 14446">FTL</tspan></text>
 </g>
 <g fill="rgb(129,138,143)" stroke="none" font-family="Arial" font-size="424" font-style="normal" font-weight="400">
  <text x="11586" y="10959">
   <tspan x="11586 11865 12195">XOR</tspan></text>
  <text fill="rgb(129,138,143)" stroke="none" x="11391" y="11464">
   <tspan x="11391 11675 11912 12145 12234 12467">Engine</tspan></text>
  <path fill="rgb(129,138,143)" stroke="none" d="M 12040,10244 C 11221,10244 10559,10599 10559,11039 10559,11478 11221,11834 12040,11834 12857,11834 13521,11478 13521,11039 13521,10599 12857,10244 12040,10244 Z"/>
  <path fill="rgb(255,204,153)" stroke="none" d="M 11969,10173 C 11151,10173 10488,10529 10488,10968 10488,11407 11151,11763 11969,11763 12787,11763 13450,11407 13450,10968 13450,10529 12787,10173 11969,10173 Z"/>
  <path stroke-width="26" fill="none" stroke="rgb(0,0,0)" d="M 11969,10173 C 11151,10173 10488,10529 10488,10968 10488,11407 11151,11763 11969,11763 12787,11763 13450,11407 13450,10968 13450,10529 12787,10173 11969,10173 Z"/>
  <text fill="rgb(0,0,0)" stroke="none" x="11514" y="10887">
   <tspan x="11514 11793 12123">XOR</tspan></text>
  <text fill="rgb(0,0,0)" stroke="none" x="11319" y="11392">
   <tspan x="11319 11603 11840 12073 12162 12395">Engine</tspan></text>
  <text fill="rgb(129,138,143)" stroke="none" x="12986" y="12231">
   <tspan x="12986 13223 13316 13528">List</tspan></text>
  <text fill="rgb(129,138,143)" stroke="none" x="12661" y="12736">
   <tspan x="12661 12945 13182 13415 13504 13737">Engine</tspan></text>
  <path fill="rgb(129,138,143)" stroke="none" d="M 13309,11516 C 12491,11516 11828,11871 11828,12311 11828,12749 12491,13106 13309,13106 14127,13106 14790,12749 14790,12311 14790,11871 14127,11516 13309,11516 Z"/>
  <path fill="rgb(255,204,153)" stroke="none" d="M 13238,11445 C 12420,11445 11757,11801 11757,12240 11757,12679 12420,13035 13238,13035 14056,13035 14719,12679 14719,12240 14719,11801 14056,11445 13238,11445 Z"/>
  <path stroke-width="26" fill="none" stroke="rgb(0,0,0)" d="M 13238,11445 C 12420,11445 11757,11801 11757,12240 11757,12679 12420,13035 13238,13035 14056,13035 14719,12679 14719,12240 14719,11801 14056,11445 13238,11445 Z"/>
  <text fill="rgb(0,0,0)" stroke="none" x="12914" y="12159">
   <tspan x="12914 13151 13244 13456">List</tspan></text>
  <text fill="rgb(0,0,0)" stroke="none" x="12589" y="12664">
   <tspan x="12589 12873 13110 13343 13432 13665">Engine</tspan></text>
  <text fill="rgb(129,138,143)" stroke="none" x="7989" y="10959">
   <tspan x="7989 8273 8506 8624 8742 8979">Buffer</tspan></text>
  <text fill="rgb(129,138,143)" stroke="none" x="7943" y="11464">
   <tspan x="7943 8227 8532 8816">SRAM</tspan></text>
  <path fill="rgb(129,138,143)" stroke="none" d="M 8549,10244 C 7730,10244 7068,10599 7068,11039 7068,11478 7730,11834 8549,11834 9366,11834 10030,11478 10030,11039 10030,10599 9366,10244 8549,10244 Z"/>
  <path fill="rgb(255,204,153)" stroke="none" d="M 8478,10173 C 7660,10173 6997,10529 6997,10968 6997,11407 7660,11763 8478,11763 9296,11763 9959,11407 9959,10968 9959,10529 9296,10173 8478,10173 Z"/>
  <path stroke-width="26" fill="none" stroke="rgb(0,0,0)" d="M 8478,10173 C 7660,10173 6997,10529 6997,10968 6997,11407 7660,11763 8478,11763 9296,11763 9959,11407 9959,10968 9959,10529 9296,10173 8478,10173 Z"/>
  <text fill="rgb(0,0,0)" stroke="none" x="7917" y="10887">
   <tspan x="7917 8201 8434 8552 8670 8907">Buffer</tspan></text>
  <text fill="rgb(0,0,0)" stroke="none" x="7871" y="11392">
   <tspan x="7871 8155 8460 8744">SRAM</tspan></text>
 </g>
 <g fill="rgb(0,0,0)" stroke="none" font-family="Tahoma" font-size="496" font-style="normal" font-weight="400">
  <text x="10947" y="13974">
   <tspan x="10947 11281 11539 11717 11992 12360 12618 12796 13054 13211 13507 13735 13963 14225 14335 14597 14775 15033 15194 15465 15643">Hardware Accelerators</tspan></text>
 </g>
 <g fill="rgb(129,138,143)" stroke="none" font-family="Arial" font-size="424" font-style="normal" font-weight="400">
  <text x="14336" y="10959">
   <tspan x="14336 14620 14853 14971 15089 15326">Buffer</tspan></text>
  <text fill="rgb(129,138,143)" stroke="none" x="14070" y="11464">
   <tspan x="14070 14421 14658 14891 15128 15356 15593">Manager</tspan></text>
  <path fill="rgb(129,138,143)" stroke="none" d="M 14896,10244 C 14078,10244 13415,10600 13415,11039 13415,11478 14078,11834 14896,11834 15714,11834 16377,11478 16377,11039 16377,10600 15714,10244 14896,10244 Z"/>
  <path fill="rgb(255,204,153)" stroke="none" d="M 14825,10173 C 14007,10173 13344,10529 13344,10968 13344,11408 14007,11763 14825,11763 15644,11763 16306,11408 16306,10968 16306,10529 15644,10173 14825,10173 Z"/>
  <path stroke-width="26" fill="none" stroke="rgb(0,0,0)" d="M 14825,10173 C 14007,10173 13344,10529 13344,10968 13344,11408 14007,11763 14825,11763 15644,11763 16306,11408 16306,10968 16306,10529 15644,10173 14825,10173 Z"/>
  <text fill="rgb(0,0,0)" stroke="none" x="14264" y="10887">
   <tspan x="14264 14548 14781 14899 15017 15254">Buffer</tspan></text>
  <text fill="rgb(0,0,0)" stroke="none" x="13998" y="11392">
   <tspan x="13998 14349 14586 14819 15056 15284 15521">Manager</tspan></text>
  <path fill="rgb(0,0,0)" stroke="rgb(0,0,0)" d="M 3295,4273 L 3295,4273 3355,4274 3415,4279 3476,4286 3536,4296 3596,4309 3655,4324 3713,4342 3770,4362 3826,4385 3881,4409 3935,4437 3988,4465 4040,4495 4090,4528 4138,4562 4184,4598 4229,4635 4271,4674 4311,4714 4350,4756 4386,4798 4419,4842 4450,4887 4478,4933 4503,4979 4526,5026 4545,5074 4545,5074 C 4545,5075 4545,5076 4546,5076 L 4546,5076 4561,5141 4527,5149 4511,5085 4512,5087 4494,5041 4472,4996 4448,4951 4421,4907 4391,4864 4359,4821 4324,4780 4287,4740 4247,4700 4206,4663 4163,4626 4117,4591 4070,4558 4022,4526 3972,4496 3920,4468 3867,4442 3813,4417 3758,4396 3702,4376 3646,4359 3588,4344 3530,4331 3472,4322 3413,4314 3354,4310 3294,4308 3295,4273 Z M 4643,5093 L 4643,5093 4573,5319 4434,5128 4643,5093 Z"/>
  <path fill="rgb(0,0,0)" stroke="rgb(0,0,0)" d="M 8638,7246 L 8613,7289 8613,7289 C 8612,7290 8611,7291 8610,7292 L 8610,7292 8589,7312 8566,7332 8541,7352 8515,7373 8487,7392 8458,7412 8427,7431 8394,7450 8324,7488 8248,7524 8167,7560 8081,7595 7989,7628 7893,7661 7792,7692 7687,7722 7578,7751 7465,7778 7349,7804 7230,7828 7107,7850 6981,7871 6855,7890 6725,7907 6593,7922 6460,7934 6326,7945 6190,7953 6054,7959 5917,7963 5780,7964 5644,7963 5507,7960 5370,7954 5235,7945 5101,7935 4968,7922 4837,7907 4707,7890 4580,7872 4455,7851 4332,7829 4213,7805 4097,7780 3984,7752 3875,7724 3770,7694 3669,7662 3573,7631 3482,7597 3395,7562 3314,7527 3238,7490 3168,7453 3135,7434 3104,7414 3075,7395 3047,7376 3020,7356 2996,7336 2973,7316 2952,7296 2952,7296 C 2951,7295 2949,7294 2949,7292 L 2949,7292 2924,7250 2954,7232 2979,7274 2976,7270 2997,7289 3018,7308 3042,7327 3067,7347 3094,7366 3123,7385 3153,7403 3185,7422 3253,7458 3328,7494 3408,7529 3493,7564 3584,7597 3679,7629 3779,7660 3884,7689 3992,7718 4104,7745 4220,7770 4338,7794 4460,7816 4584,7837 4711,7855 4840,7872 4972,7887 5104,7900 5237,7910 5372,7918 5508,7925 5644,7928 5780,7929 5916,7928 6052,7924 6188,7918 6323,7910 6457,7899 6590,7886 6720,7871 6849,7855 6976,7836 7100,7816 7222,7793 7341,7769 7456,7744 7569,7717 7677,7688 7782,7659 7881,7627 7977,7595 8067,7562 8153,7527 8233,7492 8307,7456 8376,7420 8408,7401 8438,7382 8467,7363 8494,7344 8519,7325 8542,7306 8565,7287 8585,7267 8582,7270 8607,7228 8638,7246 Z M 8512,7223 L 8512,7223 8698,7077 8703,7314 8512,7223 Z M 2859,7319 L 2859,7319 2863,7082 3050,7227 2859,7319 Z"/>
  <text fill="rgb(129,138,143)" stroke="none" x="13456" y="5554">
   <tspan x="13456 13807 14044 14277 14514 14603 14840">Mapping</tspan></text>
  <text fill="rgb(129,138,143)" stroke="none" x="13435" y="6058">
   <tspan x="13435 13786 14023 14256 14493 14721 14958">Manager</tspan></text>
  <path fill="rgb(129,138,143)" stroke="none" d="M 14261,4838 C 13443,4838 12780,5194 12780,5633 12780,6072 13443,6428 14261,6428 15079,6428 15742,6072 15742,5633 15742,5194 15079,4838 14261,4838 Z"/>
  <path fill="rgb(204,255,255)" stroke="none" d="M 14190,4767 C 13372,4767 12709,5123 12709,5562 12709,6002 13372,6357 14190,6357 15009,6357 15671,6002 15671,5562 15671,5123 15009,4767 14190,4767 Z"/>
  <path stroke-width="26" fill="none" stroke="rgb(0,0,0)" d="M 14190,4767 C 13372,4767 12709,5123 12709,5562 12709,6002 13372,6357 14190,6357 15009,6357 15671,6002 15671,5562 15671,5123 15009,4767 14190,4767 Z"/>
  <text fill="rgb(0,0,0)" stroke="none" x="13384" y="5482">
   <tspan x="13384 13735 13972 14205 14442 14531 14768">Mapping</tspan></text>
  <text fill="rgb(0,0,0)" stroke="none" x="13363" y="5986">
   <tspan x="13363 13714 13951 14184 14421 14649 14886">Manager</tspan></text>
  <text fill="rgb(129,138,143)" stroke="none" x="13456" y="5872">
   <tspan x="13456 13807 14044 14277 14514 14603 14840">Mapping</tspan></text>
  <text fill="rgb(129,138,143)" stroke="none" x="13435" y="6376">
   <tspan x="13435 13786 14023 14256 14493 14721 14958">Manager</tspan></text>
  <path fill="rgb(129,138,143)" stroke="none" d="M 14261,5156 C 13443,5156 12780,5512 12780,5951 12780,6390 13443,6746 14261,6746 15079,6746 15742,6390 15742,5951 15742,5512 15079,5156 14261,5156 Z"/>
  <path fill="rgb(204,255,255)" stroke="none" d="M 14190,5085 C 13372,5085 12709,5441 12709,5880 12709,6320 13372,6675 14190,6675 15009,6675 15671,6320 15671,5880 15671,5441 15009,5085 14190,5085 Z"/>
  <path stroke-width="26" fill="none" stroke="rgb(0,0,0)" d="M 14190,5085 C 13372,5085 12709,5441 12709,5880 12709,6320 13372,6675 14190,6675 15009,6675 15671,6320 15671,5880 15671,5441 15009,5085 14190,5085 Z"/>
  <text fill="rgb(0,0,0)" stroke="none" x="13384" y="5800">
   <tspan x="13384 13735 13972 14205 14442 14531 14768">Mapping</tspan></text>
  <text fill="rgb(0,0,0)" stroke="none" x="13363" y="6304">
   <tspan x="13363 13714 13951 14184 14421 14649 14886">Manager</tspan></text>
  <text fill="rgb(129,138,143)" stroke="none" x="13456" y="6190">
   <tspan x="13456 13807 14044 14277 14514 14603 14840">Mapping</tspan></text>
  <text fill="rgb(129,138,143)" stroke="none" x="13435" y="6694">
   <tspan x="13435 13786 14023 14256 14493 14721 14958">Manager</tspan></text>
  <path fill="rgb(129,138,143)" stroke="none" d="M 14261,5474 C 13443,5474 12780,5830 12780,6269 12780,6708 13443,7064 14261,7064 15079,7064 15742,6708 15742,6269 15742,5830 15079,5474 14261,5474 Z"/>
  <path fill="rgb(204,255,255)" stroke="none" d="M 14190,5403 C 13372,5403 12709,5759 12709,6198 12709,6638 13372,6993 14190,6993 15009,6993 15671,6638 15671,6198 15671,5759 15009,5403 14190,5403 Z"/>
  <path stroke-width="26" fill="none" stroke="rgb(0,0,0)" d="M 14190,5403 C 13372,5403 12709,5759 12709,6198 12709,6638 13372,6993 14190,6993 15009,6993 15671,6638 15671,6198 15671,5759 15009,5403 14190,5403 Z"/>
  <text fill="rgb(0,0,0)" stroke="none" x="13384" y="6118">
   <tspan x="13384 13735 13972 14205 14442 14531 14768">Mapping</tspan></text>
  <text fill="rgb(0,0,0)" stroke="none" x="13363" y="6622">
   <tspan x="13363 13714 13951 14184 14421 14649 14886">Manager</tspan></text>
  <text fill="rgb(129,138,143)" stroke="none" x="13456" y="6508">
   <tspan x="13456 13807 14044 14277 14514 14603 14840">Mapping</tspan></text>
  <text fill="rgb(129,138,143)" stroke="none" x="13435" y="7012">
   <tspan x="13435 13786 14023 14256 14493 14721 14958">Manager</tspan></text>
  <path fill="rgb(129,138,143)" stroke="none" d="M 14261,5792 C 13443,5792 12780,6148 12780,6587 12780,7026 13443,7382 14261,7382 15079,7382 15742,7026 15742,6587 15742,6148 15079,5792 14261,5792 Z"/>
  <path fill="rgb(204,255,255)" stroke="none" d="M 14190,5721 C 13372,5721 12709,6077 12709,6516 12709,6956 13372,7311 14190,7311 15009,7311 15671,6956 15671,6516 15671,6077 15009,5721 14190,5721 Z"/>
  <path stroke-width="26" fill="none" stroke="rgb(0,0,0)" d="M 14190,5721 C 13372,5721 12709,6077 12709,6516 12709,6956 13372,7311 14190,7311 15009,7311 15671,6956 15671,6516 15671,6077 15009,5721 14190,5721 Z"/>
  <text fill="rgb(0,0,0)" stroke="none" x="13384" y="6436">
   <tspan x="13384 13735 13972 14205 14442 14531 14768">Mapping</tspan></text>
  <text fill="rgb(0,0,0)" stroke="none" x="13363" y="6940">
   <tspan x="13363 13714 13951 14184 14421 14649 14886">Manager</tspan></text>
  <text fill="rgb(129,138,143)" stroke="none" x="13456" y="5554">
   <tspan x="13456 13807 14044 14277 14514 14603 14840">Mapping</tspan></text>
  <text fill="rgb(129,138,143)" stroke="none" x="13435" y="6058">
   <tspan x="13435 13786 14023 14256 14493 14721 14958">Manager</tspan></text>
  <path fill="rgb(129,138,143)" stroke="none" d="M 14261,4838 C 13443,4838 12780,5194 12780,5633 12780,6072 13443,6428 14261,6428 15079,6428 15742,6072 15742,5633 15742,5194 15079,4838 14261,4838 Z"/>
  <path fill="rgb(204,255,255)" stroke="none" d="M 14190,4767 C 13372,4767 12709,5123 12709,5562 12709,6002 13372,6357 14190,6357 15009,6357 15671,6002 15671,5562 15671,5123 15009,4767 14190,4767 Z"/>
  <path stroke-width="26" fill="none" stroke="rgb(0,0,0)" d="M 14190,4767 C 13372,4767 12709,5123 12709,5562 12709,6002 13372,6357 14190,6357 15009,6357 15671,6002 15671,5562 15671,5123 15009,4767 14190,4767 Z"/>
  <text fill="rgb(0,0,0)" stroke="none" x="13384" y="5482">
   <tspan x="13384 13735 13972 14205 14442 14531 14768">Mapping</tspan></text>
  <text fill="rgb(0,0,0)" stroke="none" x="13363" y="5986">
   <tspan x="13363 13714 13951 14184 14421 14649 14886">Manager</tspan></text>
  <text fill="rgb(129,138,143)" stroke="none" x="13456" y="5872">
   <tspan x="13456 13807 14044 14277 14514 14603 14840">Mapping</tspan></text>
  <text fill="rgb(129,138,143)" stroke="none" x="13435" y="6376">
   <tspan x="13435 13786 14023 14256 14493 14721 14958">Manager</tspan></text>
  <path fill="rgb(129,138,143)" stroke="none" d="M 14261,5156 C 13443,5156 12780,5512 12780,5951 12780,6390 13443,6746 14261,6746 15079,6746 15742,6390 15742,5951 15742,5512 15079,5156 14261,5156 Z"/>
  <path fill="rgb(204,255,255)" stroke="none" d="M 14190,5085 C 13372,5085 12709,5441 12709,5880 12709,6320 13372,6675 14190,6675 15009,6675 15671,6320 15671,5880 15671,5441 15009,5085 14190,5085 Z"/>
  <path stroke-width="26" fill="none" stroke="rgb(0,0,0)" d="M 14190,5085 C 13372,5085 12709,5441 12709,5880 12709,6320 13372,6675 14190,6675 15009,6675 15671,6320 15671,5880 15671,5441 15009,5085 14190,5085 Z"/>
  <text fill="rgb(0,0,0)" stroke="none" x="13384" y="5800">
   <tspan x="13384 13735 13972 14205 14442 14531 14768">Mapping</tspan></text>
  <text fill="rgb(0,0,0)" stroke="none" x="13363" y="6304">
   <tspan x="13363 13714 13951 14184 14421 14649 14886">Manager</tspan></text>
  <text fill="rgb(129,138,143)" stroke="none" x="13456" y="6190">
   <tspan x="13456 13807 14044 14277 14514 14603 14840">Mapping</tspan></text>
  <text fill="rgb(129,138,143)" stroke="none" x="13435" y="6694">
   <tspan x="13435 13786 14023 14256 14493 14721 14958">Manager</tspan></text>
  <path fill="rgb(129,138,143)" stroke="none" d="M 14261,5474 C 13443,5474 12780,5830 12780,6269 12780,6708 13443,7064 14261,7064 15079,7064 15742,6708 15742,6269 15742,5830 15079,5474 14261,5474 Z"/>
  <path fill="rgb(204,255,255)" stroke="none" d="M 14190,5403 C 13372,5403 12709,5759 12709,6198 12709,6638 13372,6993 14190,6993 15009,6993 15671,6638 15671,6198 15671,5759 15009,5403 14190,5403 Z"/>
  <path stroke-width="26" fill="none" stroke="rgb(0,0,0)" d="M 14190,5403 C 13372,5403 12709,5759 12709,6198 12709,6638 13372,6993 14190,6993 15009,6993 15671,6638 15671,6198 15671,5759 15009,5403 14190,5403 Z"/>
  <text fill="rgb(0,0,0)" stroke="none" x="13384" y="6118">
   <tspan x="13384 13735 13972 14205 14442 14531 14768">Mapping</tspan></text>
  <text fill="rgb(0,0,0)" stroke="none" x="13363" y="6622">
   <tspan x="13363 13714 13951 14184 14421 14649 14886">Manager</tspan></text>
  <text fill="rgb(129,138,143)" stroke="none" x="13456" y="6508">
   <tspan x="13456 13807 14044 14277 14514 14603 14840">Mapping</tspan></text>
  <text fill="rgb(129,138,143)" stroke="none" x="13435" y="7012">
   <tspan x="13435 13786 14023 14256 14493 14721 14958">Manager</tspan></text>
  <path fill="rgb(129,138,143)" stroke="none" d="M 14261,5792 C 13443,5792 12780,6148 12780,6587 12780,7026 13443,7382 14261,7382 15079,7382 15742,7026 15742,6587 15742,6148 15079,5792 14261,5792 Z"/>
  <path fill="rgb(204,255,255)" stroke="none" d="M 14190,5721 C 13372,5721 12709,6077 12709,6516 12709,6956 13372,7311 14190,7311 15009,7311 15671,6956 15671,6516 15671,6077 15009,5721 14190,5721 Z"/>
  <path stroke-width="26" fill="none" stroke="rgb(0,0,0)" d="M 14190,5721 C 13372,5721 12709,6077 12709,6516 12709,6956 13372,7311 14190,7311 15009,7311 15671,6956 15671,6516 15671,6077 15009,5721 14190,5721 Z"/>
  <text fill="rgb(0,0,0)" stroke="none" x="13384" y="6436">
   <tspan x="13384 13735 13972 14205 14442 14531 14768">Mapping</tspan></text>
  <text fill="rgb(0,0,0)" stroke="none" x="13363" y="6940">
   <tspan x="13363 13714 13951 14184 14421 14649 14886">Manager</tspan></text>
  <text fill="rgb(129,138,143)" stroke="none" x="13896" y="2374">
   <tspan x="13896 14108 14341 14578 14718 14951 15188">Journal</tspan></text>
  <text fill="rgb(129,138,143)" stroke="none" x="13752" y="2878">
   <tspan x="13752 14103 14340 14573 14810 15038 15275">Manager</tspan></text>
  <path fill="rgb(129,138,143)" stroke="none" d="M 14578,1658 C 13761,1658 13097,2015 13097,2453 13097,2892 13761,3248 14578,3248 15396,3248 16059,2892 16059,2453 16059,2015 15396,1658 14578,1658 Z"/>
  <path fill="rgb(204,255,255)" stroke="none" d="M 14508,1587 C 13690,1587 13027,1944 13027,2382 13027,2822 13690,3177 14508,3177 15326,3177 15989,2822 15989,2382 15989,1944 15326,1587 14508,1587 Z"/>
  <path stroke-width="26" fill="none" stroke="rgb(0,0,0)" d="M 14508,1587 C 13690,1587 13027,1944 13027,2382 13027,2822 13690,3177 14508,3177 15326,3177 15989,2822 15989,2382 15989,1944 15326,1587 14508,1587 Z"/>
  <text fill="rgb(0,0,0)" stroke="none" x="13824" y="2302">
   <tspan x="13824 14036 14269 14506 14646 14879 15116">Journal</tspan></text>
  <text fill="rgb(0,0,0)" stroke="none" x="13680" y="2806">
   <tspan x="13680 14031 14268 14501 14738 14966 15203">Manager</tspan></text>
  <text fill="rgb(129,138,143)" stroke="none" x="14065" y="3964">
   <tspan x="14065 14349 14442 14679 14891">Block</tspan></text>
  <text fill="rgb(129,138,143)" stroke="none" x="13752" y="4468">
   <tspan x="13752 14103 14340 14573 14810 15038 15275">Manager</tspan></text>
  <path fill="rgb(129,138,143)" stroke="none" d="M 14578,3248 C 13761,3248 13097,3604 13097,4043 13097,4482 13761,4838 14578,4838 15396,4838 16059,4482 16059,4043 16059,3604 15396,3248 14578,3248 Z"/>
  <path fill="rgb(204,255,255)" stroke="none" d="M 14508,3177 C 13690,3177 13027,3533 13027,3972 13027,4412 13690,4767 14508,4767 15326,4767 15989,4412 15989,3972 15989,3533 15326,3177 14508,3177 Z"/>
  <path stroke-width="26" fill="none" stroke="rgb(0,0,0)" d="M 14508,3177 C 13690,3177 13027,3533 13027,3972 13027,4412 13690,4767 14508,4767 15326,4767 15989,4412 15989,3972 15989,3533 15326,3177 14508,3177 Z"/>
  <text fill="rgb(0,0,0)" stroke="none" x="13993" y="3892">
   <tspan x="13993 14277 14370 14607 14819">Block</tspan></text>
  <text fill="rgb(0,0,0)" stroke="none" x="13680" y="4396">
   <tspan x="13680 14031 14268 14501 14738 14966 15203">Manager</tspan></text>
  <text fill="rgb(129,138,143)" stroke="none" x="13697" y="8097">
   <tspan x="13697 14002 14239 14446 14683 14890 15127 15267">Recovery</tspan></text>
  <text fill="rgb(129,138,143)" stroke="none" x="13752" y="8602">
   <tspan x="13752 14103 14340 14573 14810 15038 15275">Manager</tspan></text>
  <path fill="rgb(129,138,143)" stroke="none" d="M 14578,7382 C 13761,7382 13097,7738 13097,8177 13097,8616 13761,8972 14578,8972 15396,8972 16059,8616 16059,8177 16059,7738 15396,7382 14578,7382 Z"/>
  <path fill="rgb(204,255,255)" stroke="none" d="M 14508,7311 C 13690,7311 13027,7667 13027,8106 13027,8546 13690,8901 14508,8901 15326,8901 15989,8546 15989,8106 15989,7667 15326,7311 14508,7311 Z"/>
  <path stroke-width="26" fill="none" stroke="rgb(0,0,0)" d="M 14508,7311 C 13690,7311 13027,7667 13027,8106 13027,8546 13690,8901 14508,8901 15326,8901 15989,8546 15989,8106 15989,7667 15326,7311 14508,7311 Z"/>
  <text fill="rgb(0,0,0)" stroke="none" x="13625" y="8025">
   <tspan x="13625 13930 14167 14374 14611 14818 15055 15195">Recovery</tspan></text>
  <text fill="rgb(0,0,0)" stroke="none" x="13680" y="8530">
   <tspan x="13680 14031 14268 14501 14738 14966 15203">Manager</tspan></text>
  <text fill="rgb(129,138,143)" stroke="none" x="13697" y="8415">
   <tspan x="13697 14002 14239 14446 14683 14890 15127 15267">Recovery</tspan></text>
  <text fill="rgb(129,138,143)" stroke="none" x="13752" y="8920">
   <tspan x="13752 14103 14340 14573 14810 15038 15275">Manager</tspan></text>
  <path fill="rgb(129,138,143)" stroke="none" d="M 14578,7700 C 13761,7700 13097,8056 13097,8495 13097,8934 13761,9290 14578,9290 15396,9290 16059,8934 16059,8495 16059,8056 15396,7700 14578,7700 Z"/>
  <path fill="rgb(204,255,255)" stroke="none" d="M 14508,7629 C 13690,7629 13027,7985 13027,8424 13027,8864 13690,9219 14508,9219 15326,9219 15989,8864 15989,8424 15989,7985 15326,7629 14508,7629 Z"/>
  <path stroke-width="26" fill="none" stroke="rgb(0,0,0)" d="M 14508,7629 C 13690,7629 13027,7985 13027,8424 13027,8864 13690,9219 14508,9219 15326,9219 15989,8864 15989,8424 15989,7985 15326,7629 14508,7629 Z"/>
  <text fill="rgb(0,0,0)" stroke="none" x="13625" y="8343">
   <tspan x="13625 13930 14167 14374 14611 14818 15055 15195">Recovery</tspan></text>
  <text fill="rgb(0,0,0)" stroke="none" x="13680" y="8848">
   <tspan x="13680 14031 14268 14501 14738 14966 15203">Manager</tspan></text>
  <text fill="rgb(129,138,143)" stroke="none" x="13697" y="8097">
   <tspan x="13697 14002 14239 14446 14683 14890 15127 15267">Recovery</tspan></text>
  <text fill="rgb(129,138,143)" stroke="none" x="13752" y="8602">
   <tspan x="13752 14103 14340 14573 14810 15038 15275">Manager</tspan></text>
  <path fill="rgb(129,138,143)" stroke="none" d="M 14578,7382 C 13761,7382 13097,7738 13097,8177 13097,8616 13761,8972 14578,8972 15396,8972 16059,8616 16059,8177 16059,7738 15396,7382 14578,7382 Z"/>
  <path fill="rgb(204,255,255)" stroke="none" d="M 14508,7311 C 13690,7311 13027,7667 13027,8106 13027,8546 13690,8901 14508,8901 15326,8901 15989,8546 15989,8106 15989,7667 15326,7311 14508,7311 Z"/>
  <path stroke-width="26" fill="none" stroke="rgb(0,0,0)" d="M 14508,7311 C 13690,7311 13027,7667 13027,8106 13027,8546 13690,8901 14508,8901 15326,8901 15989,8546 15989,8106 15989,7667 15326,7311 14508,7311 Z"/>
  <text fill="rgb(0,0,0)" stroke="none" x="13625" y="8025">
   <tspan x="13625 13930 14167 14374 14611 14818 15055 15195">Recovery</tspan></text>
  <text fill="rgb(0,0,0)" stroke="none" x="13680" y="8530">
   <tspan x="13680 14031 14268 14501 14738 14966 15203">Manager</tspan></text>
  <text fill="rgb(129,138,143)" stroke="none" x="13697" y="8415">
   <tspan x="13697 14002 14239 14446 14683 14890 15127 15267">Recovery</tspan></text>
  <text fill="rgb(129,138,143)" stroke="none" x="13752" y="8920">
   <tspan x="13752 14103 14340 14573 14810 15038 15275">Manager</tspan></text>
  <path fill="rgb(129,138,143)" stroke="none" d="M 14578,7700 C 13761,7700 13097,8056 13097,8495 13097,8934 13761,9290 14578,9290 15396,9290 16059,8934 16059,8495 16059,8056 15396,7700 14578,7700 Z"/>
  <path fill="rgb(204,255,255)" stroke="none" d="M 14508,7629 C 13690,7629 13027,7985 13027,8424 13027,8864 13690,9219 14508,9219 15326,9219 15989,8864 15989,8424 15989,7985 15326,7629 14508,7629 Z"/>
  <path stroke-width="26" fill="none" stroke="rgb(0,0,0)" d="M 14508,7629 C 13690,7629 13027,7985 13027,8424 13027,8864 13690,9219 14508,9219 15326,9219 15989,8864 15989,8424 15989,7985 15326,7629 14508,7629 Z"/>
  <text fill="rgb(0,0,0)" stroke="none" x="13625" y="8343">
   <tspan x="13625 13930 14167 14374 14611 14818 15055 15195">Recovery</tspan></text>
  <text fill="rgb(0,0,0)" stroke="none" x="13680" y="8848">
   <tspan x="13680 14031 14268 14501 14738 14966 15203">Manager</tspan></text>
  <path fill="rgb(0,0,0)" stroke="rgb(0,0,0)" d="M 11400,6478 L 11497,6458 11559,6437 11619,6412 11676,6384 11729,6352 11777,6318 11821,6281 11859,6243 11876,6224 11891,6204 11905,6183 11917,6163 11927,6142 11936,6122 11943,6101 11948,6080 11950,6059 11951,6039 11952,6016 11955,5992 11961,5969 11969,5945 11978,5922 11990,5899 12003,5876 12018,5854 12035,5833 12053,5812 12093,5771 12140,5733 12190,5697 12246,5664 12305,5635 12367,5609 12432,5587 12531,5566 12538,5600 12443,5620 12380,5641 12320,5666 12263,5695 12210,5726 12162,5760 12118,5796 12079,5835 12062,5854 12047,5874 12033,5894 12021,5915 12011,5935 12003,5956 11996,5977 11990,5997 11988,6018 11987,6040 11985,6064 11982,6088 11976,6112 11969,6135 11959,6158 11948,6181 11934,6203 11919,6225 11903,6247 11884,6268 11843,6309 11797,6347 11747,6383 11691,6415 11632,6445 11570,6471 11504,6493 11407,6513 11400,6478 Z M 11451,6597 L 11228,6516 11426,6386 11451,6597 Z M 12487,5482 L 12709,5562 12512,5693 12487,5482 Z"/>
  <path fill="rgb(0,0,0)" stroke="rgb(0,0,0)" d="M 6654,5319 L 6655,5278 6659,5237 6667,5195 6677,5153 6690,5112 6705,5071 6722,5032 6742,4992 6765,4953 6789,4916 6816,4879 6844,4842 6875,4807 6907,4773 6941,4740 6976,4708 7051,4649 7091,4621 7132,4595 7174,4571 7217,4548 7261,4527 7306,4508 7351,4491 7397,4476 7444,4462 7492,4452 7539,4443 7588,4437 7636,4433 7684,4432 7733,4434 7782,4441 7831,4451 7879,4467 7927,4485 7974,4508 8021,4534 8067,4564 8112,4597 8156,4634 8199,4673 8241,4715 8282,4760 8321,4807 8359,4858 8396,4910 8431,4964 8465,5021 8497,5080 8527,5140 8556,5202 8582,5266 8606,5331 8628,5397 8648,5464 8666,5532 8681,5602 8693,5672 8705,5777 8670,5782 8659,5678 8646,5609 8631,5541 8614,5474 8595,5408 8573,5343 8549,5279 8523,5217 8496,5156 8466,5097 8435,5039 8402,4984 8367,4930 8331,4879 8294,4830 8256,4784 8216,4740 8175,4699 8133,4661 8091,4626 8047,4593 8003,4565 7959,4540 7914,4518 7868,4500 7823,4486 7777,4476 7731,4469 7685,4467 7638,4468 7592,4472 7546,4478 7499,4486 7454,4497 7408,4509 7364,4524 7319,4540 7276,4559 7233,4579 7191,4601 7151,4625 7111,4650 7073,4677 6999,4734 6965,4765 6932,4797 6902,4830 6872,4864 6844,4899 6819,4935 6795,4971 6774,5008 6755,5046 6738,5084 6723,5123 6711,5162 6701,5201 6694,5240 6690,5280 6688,5320 6654,5319 Z M 8791,5738 L 8698,5955 8580,5751 8791,5738 Z"/>
  <path fill="rgb(0,0,0)" stroke="rgb(0,0,0)" d="M 16662,5281 L 16662,5281 16619,5287 16600,5293 16582,5298 16566,5305 16552,5311 16543,5317 16545,5315 16537,5323 16540,5319 16534,5327 16537,5322 16535,5329 16533,5336 16533,5336 C 16532,5339 16531,5340 16530,5342 L 16525,5349 16525,5349 C 16524,5350 16524,5351 16522,5352 L 16513,5360 16513,5360 C 16513,5360 16512,5361 16511,5361 L 16511,5361 16499,5368 16484,5376 16466,5383 16446,5389 16423,5396 16378,5402 16374,5367 16414,5362 16435,5357 16453,5350 16469,5344 16481,5339 16493,5331 16491,5332 16499,5326 16496,5329 16502,5322 16499,5327 16501,5319 16503,5312 16503,5312 C 16504,5310 16504,5308 16506,5307 L 16511,5299 16511,5299 C 16511,5298 16512,5297 16513,5296 L 16522,5289 16522,5289 C 16523,5288 16524,5288 16525,5288 L 16525,5288 16538,5279 16553,5272 16571,5264 16592,5258 16615,5252 16658,5246 16662,5281 Z M 16614,5163 L 16614,5163 16835,5244 16637,5373 16614,5163 Z M 16422,5486 L 16422,5486 16200,5403 16399,5275 16422,5486 Z"/>
 </g>
 <g fill="rgb(129,138,143)" stroke="none" font-family="Tahoma" font-size="496" font-style="normal" font-weight="400">
  <text x="4084" y="4405">1</text>
  <path fill="rgb(129,138,143)" stroke="none" d="M 4211,3884 C 4036,3884 3894,4026 3894,4202 3894,4378 4036,4520 4211,4520 4387,4520 4529,4378 4529,4202 4529,4026 4387,3884 4211,3884 Z"/>
  <path fill="rgb(255,255,255)" stroke="none" d="M 4141,3813 C 3966,3813 3823,3956 3823,4131 3823,4307 3966,4449 4141,4449 4316,4449 4458,4307 4458,4131 4458,3956 4316,3813 4141,3813 Z"/>
  <path stroke-width="35" fill="none" stroke="rgb(255,0,0)" d="M 4141,3813 C 3966,3813 3823,3956 3823,4131 3823,4307 3966,4449 4141,4449 4316,4449 4458,4307 4458,4131 4458,3956 4316,3813 4141,3813 Z"/>
  <text fill="rgb(0,0,0)" stroke="none" x="4012" y="4333">1</text>
  <text fill="rgb(129,138,143)" stroke="none" x="7892" y="5359">2</text>
  <path fill="rgb(129,138,143)" stroke="none" d="M 8020,4838 C 7844,4838 7702,4980 7702,5156 7702,5332 7844,5474 8020,5474 8195,5474 8337,5332 8337,5156 8337,4980 8195,4838 8020,4838 Z"/>
  <path fill="rgb(255,255,255)" stroke="none" d="M 7949,4767 C 7774,4767 7632,4910 7632,5085 7632,5261 7774,5403 7949,5403 8124,5403 8266,5261 8266,5085 8266,4910 8124,4767 7949,4767 Z"/>
  <path stroke-width="35" fill="none" stroke="rgb(255,0,0)" d="M 7949,4767 C 7774,4767 7632,4910 7632,5085 7632,5261 7774,5403 7949,5403 8124,5403 8266,5261 8266,5085 8266,4910 8124,4767 7949,4767 Z"/>
  <text fill="rgb(0,0,0)" stroke="none" x="7820" y="5287">2</text>
  <text fill="rgb(129,138,143)" stroke="none" x="10113" y="5359">4</text>
  <path fill="rgb(129,138,143)" stroke="none" d="M 10241,4838 C 10066,4838 9924,4980 9924,5156 9924,5332 10066,5474 10241,5474 10416,5474 10559,5332 10559,5156 10559,4980 10416,4838 10241,4838 Z"/>
  <path fill="rgb(255,255,255)" stroke="none" d="M 10170,4767 C 9995,4767 9853,4910 9853,5085 9853,5261 9995,5403 10170,5403 10346,5403 10488,5261 10488,5085 10488,4910 10346,4767 10170,4767 Z"/>
  <path stroke-width="35" fill="none" stroke="rgb(255,0,0)" d="M 10170,4767 C 9995,4767 9853,4910 9853,5085 9853,5261 9995,5403 10170,5403 10346,5403 10488,5261 10488,5085 10488,4910 10346,4767 10170,4767 Z"/>
  <text fill="rgb(0,0,0)" stroke="none" x="10041" y="5287">4</text>
  <text fill="rgb(129,138,143)" stroke="none" x="11383" y="7267">6</text>
  <path fill="rgb(129,138,143)" stroke="none" d="M 11511,6746 C 11335,6746 11193,6888 11193,7064 11193,7239 11335,7382 11511,7382 11686,7382 11828,7239 11828,7064 11828,6888 11686,6746 11511,6746 Z"/>
  <path fill="rgb(255,255,255)" stroke="none" d="M 11440,6675 C 11265,6675 11122,6818 11122,6993 11122,7169 11265,7311 11440,7311 11615,7311 11757,7169 11757,6993 11757,6818 11615,6675 11440,6675 Z"/>
  <path stroke-width="35" fill="none" stroke="rgb(255,0,0)" d="M 11440,6675 C 11265,6675 11122,6818 11122,6993 11122,7169 11265,7311 11440,7311 11615,7311 11757,7169 11757,6993 11757,6818 11615,6675 11440,6675 Z"/>
  <text fill="rgb(0,0,0)" stroke="none" x="11311" y="7194">6</text>
  <text fill="rgb(129,138,143)" stroke="none" x="12335" y="5677">5</text>
  <path fill="rgb(129,138,143)" stroke="none" d="M 12463,5156 C 12287,5156 12145,5298 12145,5474 12145,5650 12287,5792 12463,5792 12638,5792 12780,5650 12780,5474 12780,5298 12638,5156 12463,5156 Z"/>
  <path fill="rgb(255,255,255)" stroke="none" d="M 12392,5085 C 12217,5085 12074,5228 12074,5403 12074,5579 12217,5721 12392,5721 12567,5721 12709,5579 12709,5403 12709,5228 12567,5085 12392,5085 Z"/>
  <path stroke-width="35" fill="none" stroke="rgb(255,0,0)" d="M 12392,5085 C 12217,5085 12074,5228 12074,5403 12074,5579 12217,5721 12392,5721 12567,5721 12709,5579 12709,5403 12709,5228 12567,5085 12392,5085 Z"/>
  <text fill="rgb(0,0,0)" stroke="none" x="12263" y="5605">5</text>
  <text fill="rgb(129,138,143)" stroke="none" x="3131" y="8220">7</text>
  <path fill="rgb(129,138,143)" stroke="none" d="M 3259,7700 C 3084,7700 2942,7842 2942,8018 2942,8193 3084,8336 3259,8336 3435,8336 3577,8193 3577,8018 3577,7842 3435,7700 3259,7700 Z"/>
  <path fill="rgb(255,255,255)" stroke="none" d="M 3189,7629 C 3013,7629 2871,7772 2871,7947 2871,8123 3013,8265 3189,8265 3364,8265 3506,8123 3506,7947 3506,7772 3364,7629 3189,7629 Z"/>
  <path stroke-width="35" fill="none" stroke="rgb(255,0,0)" d="M 3189,7629 C 3013,7629 2871,7772 2871,7947 2871,8123 3013,8265 3189,8265 3364,8265 3506,8123 3506,7947 3506,7772 3364,7629 3189,7629 Z"/>
  <text fill="rgb(0,0,0)" stroke="none" x="3060" y="8148">7</text>
  <text fill="rgb(129,138,143)" stroke="none" x="8209" y="8220">8</text>
  <path fill="rgb(129,138,143)" stroke="none" d="M 8337,7700 C 8162,7700 8020,7842 8020,8018 8020,8193 8162,8336 8337,8336 8512,8336 8654,8193 8654,8018 8654,7842 8512,7700 8337,7700 Z"/>
  <path fill="rgb(255,255,255)" stroke="none" d="M 8266,7629 C 8091,7629 7949,7772 7949,7947 7949,8123 8091,8265 8266,8265 8442,8265 8584,8123 8584,7947 8584,7772 8442,7629 8266,7629 Z"/>
  <path stroke-width="35" fill="none" stroke="rgb(255,0,0)" d="M 8266,7629 C 8091,7629 7949,7772 7949,7947 7949,8123 8091,8265 8266,8265 8442,8265 8584,8123 8584,7947 8584,7772 8442,7629 8266,7629 Z"/>
  <text fill="rgb(0,0,0)" stroke="none" x="8137" y="8148">8</text>
  <path fill="rgb(0,0,0)" stroke="rgb(0,0,0)" d="M 11402,6485 L 11498,6472 11560,6457 11621,6441 11678,6422 11731,6401 11780,6378 11824,6353 11862,6328 11879,6315 11894,6302 11907,6288 11920,6275 11929,6262 11938,6248 11943,6235 11948,6222 11951,6209 11951,6197 11952,6182 11956,6165 11962,6148 11970,6131 11980,6115 11991,6100 12005,6084 12021,6069 12037,6054 12055,6040 12096,6013 12142,5988 12193,5964 12248,5942 12307,5922 12369,5905 12434,5890 12531,5876 12536,5911 12442,5925 12378,5939 12318,5956 12261,5974 12208,5996 12159,6018 12115,6043 12077,6068 12060,6081 12045,6094 12031,6107 12019,6120 12009,6133 12002,6147 11995,6160 11990,6172 11988,6185 11987,6200 11985,6217 11981,6234 11975,6251 11967,6267 11958,6283 11945,6299 11932,6314 11917,6328 11900,6343 11881,6357 11841,6384 11795,6410 11744,6433 11689,6455 11630,6475 11568,6492 11503,6507 11406,6520 11402,6485 Z M 11448,6606 L 11228,6516 11431,6394 11448,6606 Z M 12490,5791 L 12709,5880 12507,6003 12490,5791 Z"/>
  <path fill="rgb(0,0,0)" stroke="rgb(0,0,0)" d="M 11403,6492 L 11403,6492 11499,6485 11562,6478 11623,6469 11680,6460 11734,6449 11783,6438 11827,6425 11866,6413 11883,6406 11898,6399 11912,6393 11924,6386 11933,6379 11941,6373 11946,6367 11945,6369 11950,6362 11949,6365 11952,6358 11950,6362 11951,6355 11952,6348 11952,6348 C 11953,6346 11953,6344 11954,6343 L 11957,6335 11957,6335 C 11958,6334 11958,6333 11959,6332 L 11964,6325 11964,6325 C 11964,6324 11965,6324 11966,6323 L 11966,6323 11973,6315 11984,6307 11996,6298 12009,6290 12025,6283 12042,6276 12060,6269 12100,6255 12146,6243 12196,6231 12251,6220 12310,6210 12371,6202 12436,6194 12532,6188 12535,6223 12439,6230 12376,6237 12315,6245 12258,6255 12205,6265 12155,6277 12112,6289 12072,6301 12055,6308 12040,6315 12027,6322 12015,6327 12006,6334 11998,6340 11991,6348 11993,6345 11988,6353 11989,6350 11986,6357 11987,6352 11986,6360 11985,6367 11985,6367 C 11985,6369 11985,6370 11984,6372 L 11981,6379 11981,6379 C 11980,6380 11980,6381 11979,6383 L 11974,6390 11974,6390 C 11973,6390 11973,6391 11972,6392 L 11972,6392 11963,6401 11953,6409 11941,6417 11927,6425 11912,6432 11896,6439 11878,6446 11837,6460 11792,6472 11741,6484 11686,6495 11628,6504 11566,6513 11502,6520 11406,6527 11403,6492 Z M 11444,6614 L 11444,6614 11228,6516 11436,6402 11444,6614 Z M 12494,6101 L 12494,6101 12709,6198 12502,6313 12494,6101 Z"/>
  <path fill="rgb(0,0,0)" stroke="rgb(0,0,0)" d="M 11405,6499 L 12533,6499 12533,6534 11405,6534 11405,6499 Z M 11440,6622 L 11228,6516 11440,6410 11440,6622 Z M 12498,6410 L 12709,6516 12498,6622 12498,6410 Z"/>
  <text fill="rgb(129,138,143)" stroke="none" x="3766" y="1861">3</text>
  <path fill="rgb(129,138,143)" stroke="none" d="M 3894,1340 C 3719,1340 3577,1483 3577,1658 3577,1834 3719,1976 3894,1976 4069,1976 4211,1834 4211,1658 4211,1483 4069,1340 3894,1340 Z"/>
  <path fill="rgb(255,255,255)" stroke="none" d="M 3823,1269 C 3648,1269 3506,1412 3506,1587 3506,1763 3648,1905 3823,1905 3999,1905 4141,1763 4141,1587 4141,1412 3999,1269 3823,1269 Z"/>
  <path stroke-width="35" fill="none" stroke="rgb(255,0,0)" d="M 3823,1269 C 3648,1269 3506,1412 3506,1587 3506,1763 3648,1905 3823,1905 3999,1905 4141,1763 4141,1587 4141,1412 3999,1269 3823,1269 Z"/>
  <text fill="rgb(0,0,0)" stroke="none" x="3694" y="1789">3</text>
  <path fill="rgb(0,0,0)" stroke="rgb(0,0,0)" d="M 3365,2050 L 3496,2052 3804,2068 4110,2094 4414,2129 4716,2174 5015,2228 5310,2291 5601,2362 5888,2441 6169,2528 6443,2622 6711,2723 6972,2831 7226,2945 7470,3066 7706,3192 7932,3324 8148,3460 8354,3601 8548,3747 8730,3896 8899,4050 9055,4207 9197,4367 9325,4530 9438,4695 9535,4863 9616,5032 9650,5118 9680,5203 9706,5289 9727,5375 9744,5461 9753,5543 9718,5547 9709,5468 9693,5383 9672,5299 9647,5215 9618,5130 9584,5047 9504,4880 9409,4715 9297,4552 9171,4390 9029,4232 8875,4076 8707,3924 8526,3775 8334,3630 8130,3490 7915,3354 7690,3223 7455,3097 7211,2978 6959,2864 6699,2756 6432,2655 6158,2562 5878,2475 5593,2396 5303,2325 5009,2263 4711,2209 4410,2165 4107,2129 3802,2103 3496,2088 3365,2086 3365,2050 Z M 3399,2174 L 3189,2064 3402,1962 3399,2174 Z M 9838,5502 L 9747,5721 9627,5518 9838,5502 Z"/>
 </g>
</svg>