<?xml version="1.0" encoding="UTF-8"?><!DOCTYPE svg PUBLIC "-//W3C//DTD SVG 1.1//EN" "/SysSchema/SVG11/svg11.dtd">
<svg xmlns:xlink="http://www.w3.org/1999/xlink" xmlns="http://www.w3.org/2000/svg" width="200mm" height="142mm" viewBox="0 0 20000 14200" stroke-width="28.222" stroke-linejoin="round" xml:space="preserve" preserveAspectRatio="xMidYMid meet" zoomAndPan="magnify" version="1.1" contentScriptType="text/ecmascript" contentStyleType="text/css">
 <path fill="rgb(153,204,255)" stroke="none" d="M 10159,9834 L 10159,13325 16499,13325 16499,9834 10159,9834 Z"/>
 <path fill="none" stroke="none" d="M 10159,9834 L 10159,13325 16499,13325 16499,9834 10159,9834 Z"/>
 <path stroke-width="35" fill="none" stroke="rgb(0,0,0)" d="M 10159,9834 L 10159,13325 16499,13325 16499,9834 10159,9834 Z"/>
 <rect fill="rgb(192,192,192)" stroke="none" x="3817" y="947" width="12685" height="8889"/>
 <rect fill="rgb(127,127,127)" stroke="none" x="3819" y="950" width="12681" height="8886"/>
 <rect fill="rgb(192,192,192)" stroke="none" x="3817" y="947" width="12685" height="8889"/>
 <path fill="none" stroke="none" d="M 3819,950 L 3819,9834 16499,9834 16499,950 3819,950 Z"/>
 <path stroke-width="35" fill="none" stroke="rgb(0,0,0)" d="M 3819,950 L 3819,9834 16499,9834 16499,950 3819,950 Z"/>
 <g fill="rgb(129,138,143)" stroke="none" font-family="Arial" font-size="423" font-style="normal" font-weight="400">
  <text x="5224" y="8715">
   <tspan x="5224 5507 5811 5929">PCIe</tspan></text>
  <text fill="rgb(129,138,143)" stroke="none" x="4861" y="9219">
   <tspan x="4861 5212 5449 5681 5918 6146 6383">Manager</tspan></text>
  <path fill="rgb(129,138,143)" stroke="none" d="M 5686,8001 C 4869,8001 4207,8356 4207,8794 4207,9232 4869,9588 5686,9588 6503,9588 7166,9232 7166,8794 7166,8356 6503,8001 5686,8001 Z"/>
  <path fill="rgb(204,255,255)" stroke="none" d="M 5615,7930 C 4799,7930 4136,8286 4136,8724 4136,9162 4799,9517 5615,9517 6433,9517 7095,9162 7095,8724 7095,8286 6433,7930 5615,7930 Z"/>
  <path stroke-width="26" fill="none" stroke="rgb(0,0,0)" d="M 5615,7930 C 4799,7930 4136,8286 4136,8724 4136,9162 4799,9517 5615,9517 6433,9517 7095,9162 7095,8724 7095,8286 6433,7930 5615,7930 Z"/>
  <text fill="rgb(0,0,0)" stroke="none" x="5153" y="8643">
   <tspan x="5153 5436 5740 5858">PCIe</tspan></text>
  <text fill="rgb(0,0,0)" stroke="none" x="4789" y="9147">
   <tspan x="4789 5140 5377 5609 5846 6074 6311">Manager</tspan></text>
  <text fill="rgb(129,138,143)" stroke="none" x="5199" y="4907">
   <tspan x="5199 5503 5740 5854 6091">Datal</tspan></text>
  <text fill="rgb(129,138,143)" stroke="none" x="4861" y="5411">
   <tspan x="4861 5212 5449 5681 5918 6146 6383">Manager</tspan></text>
  <path fill="rgb(129,138,143)" stroke="none" d="M 5686,4193 C 4869,4193 4207,4548 4207,4987 4207,5425 4869,5780 5686,5780 6503,5780 7166,5425 7166,4987 7166,4548 6503,4193 5686,4193 Z"/>
  <path fill="rgb(204,255,255)" stroke="none" d="M 5615,4123 C 4799,4123 4136,4478 4136,4916 4136,5354 4799,5709 5615,5709 6433,5709 7095,5354 7095,4916 7095,4478 6433,4123 5615,4123 Z"/>
  <path stroke-width="26" fill="none" stroke="rgb(0,0,0)" d="M 5615,4123 C 4799,4123 4136,4478 4136,4916 4136,5354 4799,5709 5615,5709 6433,5709 7095,5354 7095,4916 7095,4478 6433,4123 5615,4123 Z"/>
  <text fill="rgb(0,0,0)" stroke="none" x="5127" y="4835">
   <tspan x="5127 5431 5668 5782 6019">Datal</tspan></text>
  <text fill="rgb(0,0,0)" stroke="none" x="4789" y="5339">
   <tspan x="4789 5140 5377 5609 5846 6074 6311">Manager</tspan></text>
  <text fill="rgb(129,138,143)" stroke="none" x="5199" y="5225">
   <tspan x="5199 5503 5740 5854 6091">Datal</tspan></text>
  <text fill="rgb(129,138,143)" stroke="none" x="4861" y="5728">
   <tspan x="4861 5212 5449 5681 5918 6146 6383">Manager</tspan></text>
  <path fill="rgb(129,138,143)" stroke="none" d="M 5686,4511 C 4869,4511 4207,4866 4207,5304 4207,5742 4869,6097 5686,6097 6503,6097 7166,5742 7166,5304 7166,4866 6503,4511 5686,4511 Z"/>
  <path fill="rgb(204,255,255)" stroke="none" d="M 5615,4440 C 4799,4440 4136,4795 4136,5233 4136,5672 4799,6026 5615,6026 6433,6026 7095,5672 7095,5233 7095,4795 6433,4440 5615,4440 Z"/>
  <path stroke-width="26" fill="none" stroke="rgb(0,0,0)" d="M 5615,4440 C 4799,4440 4136,4795 4136,5233 4136,5672 4799,6026 5615,6026 6433,6026 7095,5672 7095,5233 7095,4795 6433,4440 5615,4440 Z"/>
  <text fill="rgb(0,0,0)" stroke="none" x="5127" y="5153">
   <tspan x="5127 5431 5668 5782 6019">Datal</tspan></text>
  <text fill="rgb(0,0,0)" stroke="none" x="4789" y="5656">
   <tspan x="4789 5140 5377 5609 5846 6074 6311">Manager</tspan></text>
  <text fill="rgb(129,138,143)" stroke="none" x="5199" y="5542">
   <tspan x="5199 5503 5740 5854 6091">Datal</tspan></text>
  <text fill="rgb(129,138,143)" stroke="none" x="4861" y="6045">
   <tspan x="4861 5212 5449 5681 5918 6146 6383">Manager</tspan></text>
  <path fill="rgb(129,138,143)" stroke="none" d="M 5686,4828 C 4869,4828 4207,5183 4207,5621 4207,6059 4869,6415 5686,6415 6503,6415 7166,6059 7166,5621 7166,5183 6503,4828 5686,4828 Z"/>
  <path fill="rgb(204,255,255)" stroke="none" d="M 5615,4757 C 4799,4757 4136,5113 4136,5550 4136,5989 4799,6344 5615,6344 6433,6344 7095,5989 7095,5550 7095,5113 6433,4757 5615,4757 Z"/>
  <path stroke-width="26" fill="none" stroke="rgb(0,0,0)" d="M 5615,4757 C 4799,4757 4136,5113 4136,5550 4136,5989 4799,6344 5615,6344 6433,6344 7095,5989 7095,5550 7095,5113 6433,4757 5615,4757 Z"/>
  <text fill="rgb(0,0,0)" stroke="none" x="5127" y="5470">
   <tspan x="5127 5431 5668 5782 6019">Datal</tspan></text>
  <text fill="rgb(0,0,0)" stroke="none" x="4789" y="5974">
   <tspan x="4789 5140 5377 5609 5846 6074 6311">Manager</tspan></text>
  <text fill="rgb(129,138,143)" stroke="none" x="5246" y="5859">
   <tspan x="5246 5550 5787 5901">Data</tspan></text>
  <text fill="rgb(129,138,143)" stroke="none" x="4861" y="6363">
   <tspan x="4861 5212 5449 5681 5918 6146 6383">Manager</tspan></text>
  <path fill="rgb(129,138,143)" stroke="none" d="M 5686,5145 C 4869,5145 4207,5500 4207,5939 4207,6377 4869,6732 5686,6732 6503,6732 7166,6377 7166,5939 7166,5500 6503,5145 5686,5145 Z"/>
  <path fill="rgb(204,255,255)" stroke="none" d="M 5615,5075 C 4799,5075 4136,5430 4136,5868 4136,6306 4799,6661 5615,6661 6433,6661 7095,6306 7095,5868 7095,5430 6433,5075 5615,5075 Z"/>
  <path stroke-width="26" fill="none" stroke="rgb(0,0,0)" d="M 5615,5075 C 4799,5075 4136,5430 4136,5868 4136,6306 4799,6661 5615,6661 6433,6661 7095,6306 7095,5868 7095,5430 6433,5075 5615,5075 Z"/>
  <text fill="rgb(0,0,0)" stroke="none" x="5174" y="5787">
   <tspan x="5174 5478 5715 5829">Data</tspan></text>
  <text fill="rgb(0,0,0)" stroke="none" x="4789" y="6291">
   <tspan x="4789 5140 5377 5609 5846 6074 6311">Manager</tspan></text>
  <text fill="rgb(129,138,143)" stroke="none" x="5199" y="4907">
   <tspan x="5199 5503 5740 5854 6091">Datal</tspan></text>
  <text fill="rgb(129,138,143)" stroke="none" x="4861" y="5411">
   <tspan x="4861 5212 5449 5681 5918 6146 6383">Manager</tspan></text>
  <path fill="rgb(129,138,143)" stroke="none" d="M 5686,4193 C 4869,4193 4207,4548 4207,4987 4207,5425 4869,5780 5686,5780 6503,5780 7166,5425 7166,4987 7166,4548 6503,4193 5686,4193 Z"/>
  <path fill="rgb(204,255,255)" stroke="none" d="M 5615,4123 C 4799,4123 4136,4478 4136,4916 4136,5354 4799,5709 5615,5709 6433,5709 7095,5354 7095,4916 7095,4478 6433,4123 5615,4123 Z"/>
  <path stroke-width="26" fill="none" stroke="rgb(0,0,0)" d="M 5615,4123 C 4799,4123 4136,4478 4136,4916 4136,5354 4799,5709 5615,5709 6433,5709 7095,5354 7095,4916 7095,4478 6433,4123 5615,4123 Z"/>
  <text fill="rgb(0,0,0)" stroke="none" x="5127" y="4835">
   <tspan x="5127 5431 5668 5782 6019">Datal</tspan></text>
  <text fill="rgb(0,0,0)" stroke="none" x="4789" y="5339">
   <tspan x="4789 5140 5377 5609 5846 6074 6311">Manager</tspan></text>
  <text fill="rgb(129,138,143)" stroke="none" x="5199" y="5225">
   <tspan x="5199 5503 5740 5854 6091">Datal</tspan></text>
  <text fill="rgb(129,138,143)" stroke="none" x="4861" y="5728">
   <tspan x="4861 5212 5449 5681 5918 6146 6383">Manager</tspan></text>
  <path fill="rgb(129,138,143)" stroke="none" d="M 5686,4511 C 4869,4511 4207,4866 4207,5304 4207,5742 4869,6097 5686,6097 6503,6097 7166,5742 7166,5304 7166,4866 6503,4511 5686,4511 Z"/>
  <path fill="rgb(204,255,255)" stroke="none" d="M 5615,4440 C 4799,4440 4136,4795 4136,5233 4136,5672 4799,6026 5615,6026 6433,6026 7095,5672 7095,5233 7095,4795 6433,4440 5615,4440 Z"/>
  <path stroke-width="26" fill="none" stroke="rgb(0,0,0)" d="M 5615,4440 C 4799,4440 4136,4795 4136,5233 4136,5672 4799,6026 5615,6026 6433,6026 7095,5672 7095,5233 7095,4795 6433,4440 5615,4440 Z"/>
  <text fill="rgb(0,0,0)" stroke="none" x="5127" y="5153">
   <tspan x="5127 5431 5668 5782 6019">Datal</tspan></text>
  <text fill="rgb(0,0,0)" stroke="none" x="4789" y="5656">
   <tspan x="4789 5140 5377 5609 5846 6074 6311">Manager</tspan></text>
  <text fill="rgb(129,138,143)" stroke="none" x="5199" y="5542">
   <tspan x="5199 5503 5740 5854 6091">Datal</tspan></text>
  <text fill="rgb(129,138,143)" stroke="none" x="4861" y="6045">
   <tspan x="4861 5212 5449 5681 5918 6146 6383">Manager</tspan></text>
  <path fill="rgb(129,138,143)" stroke="none" d="M 5686,4828 C 4869,4828 4207,5183 4207,5621 4207,6059 4869,6415 5686,6415 6503,6415 7166,6059 7166,5621 7166,5183 6503,4828 5686,4828 Z"/>
  <path fill="rgb(204,255,255)" stroke="none" d="M 5615,4757 C 4799,4757 4136,5113 4136,5550 4136,5989 4799,6344 5615,6344 6433,6344 7095,5989 7095,5550 7095,5113 6433,4757 5615,4757 Z"/>
  <path stroke-width="26" fill="none" stroke="rgb(0,0,0)" d="M 5615,4757 C 4799,4757 4136,5113 4136,5550 4136,5989 4799,6344 5615,6344 6433,6344 7095,5989 7095,5550 7095,5113 6433,4757 5615,4757 Z"/>
  <text fill="rgb(0,0,0)" stroke="none" x="5127" y="5470">
   <tspan x="5127 5431 5668 5782 6019">Datal</tspan></text>
  <text fill="rgb(0,0,0)" stroke="none" x="4789" y="5974">
   <tspan x="4789 5140 5377 5609 5846 6074 6311">Manager</tspan></text>
  <text fill="rgb(129,138,143)" stroke="none" x="5246" y="5859">
   <tspan x="5246 5550 5787 5901">Data</tspan></text>
  <text fill="rgb(129,138,143)" stroke="none" x="4861" y="6363">
   <tspan x="4861 5212 5449 5681 5918 6146 6383">Manager</tspan></text>
  <path fill="rgb(129,138,143)" stroke="none" d="M 5686,5145 C 4869,5145 4207,5500 4207,5939 4207,6377 4869,6732 5686,6732 6503,6732 7166,6377 7166,5939 7166,5500 6503,5145 5686,5145 Z"/>
  <path fill="rgb(204,255,255)" stroke="none" d="M 5615,5075 C 4799,5075 4136,5430 4136,5868 4136,6306 4799,6661 5615,6661 6433,6661 7095,6306 7095,5868 7095,5430 6433,5075 5615,5075 Z"/>
  <path stroke-width="26" fill="none" stroke="rgb(0,0,0)" d="M 5615,5075 C 4799,5075 4136,5430 4136,5868 4136,6306 4799,6661 5615,6661 6433,6661 7095,6306 7095,5868 7095,5430 6433,5075 5615,5075 Z"/>
  <text fill="rgb(0,0,0)" stroke="none" x="5174" y="5787">
   <tspan x="5174 5478 5715 5829">Data</tspan></text>
  <text fill="rgb(0,0,0)" stroke="none" x="4789" y="6291">
   <tspan x="4789 5140 5377 5609 5846 6074 6311">Manager</tspan></text>
  <path fill="rgb(153,204,255)" stroke="none" d="M 16499,950 L 16499,9834 19986,9834 19986,950 16499,950 Z"/>
  <path fill="none" stroke="none" d="M 16499,950 L 16499,9834 19986,9834 19986,950 16499,950 Z"/>
  <path stroke-width="35" fill="none" stroke="rgb(0,0,0)" d="M 16499,950 L 16499,9834 19986,9834 19986,950 16499,950 Z"/>
  <path fill="rgb(153,204,255)" stroke="none" d="M 15,950 L 15,9834 3819,9834 3819,950 15,950 Z"/>
  <path fill="none" stroke="none" d="M 15,950 L 15,9834 3819,9834 3819,950 15,950 Z"/>
  <path stroke-width="35" fill="none" stroke="rgb(0,0,0)" d="M 15,950 L 15,9834 3819,9834 3819,950 15,950 Z"/>
  <text fill="rgb(129,138,143)" stroke="none" x="474" y="2052">i</text>
  <text fill="rgb(129,138,143)" stroke="none" x="567" y="2052">-</text>
  <text fill="rgb(129,138,143)" stroke="none" x="706" y="2052">
   <tspan x="706 1010 1361 1644 1762 1880">DMA, e</tspan></text>
  <text fill="rgb(129,138,143)" stroke="none" x="2118" y="2052">-</text>
  <text fill="rgb(129,138,143)" stroke="none" x="2257" y="2052">
   <tspan x="2257 2561 2912">DMA</tspan></text>
  <text fill="rgb(129,138,143)" stroke="none" x="1006" y="2555">
   <tspan x="1006 1357 1594 1826 2063 2291 2528">Manager</tspan></text>
  <path fill="rgb(129,138,143)" stroke="none" d="M 1829,1337 C 1041,1337 402,1693 402,2131 402,2569 1041,2924 1829,2924 2617,2924 3256,2569 3256,2131 3256,1693 2617,1337 1829,1337 Z"/>
  <path fill="rgb(255,204,153)" stroke="none" d="M 1758,1267 C 971,1267 332,1622 332,2060 332,2498 971,2853 1758,2853 2546,2853 3185,2498 3185,2060 3185,1622 2546,1267 1758,1267 Z"/>
  <path stroke-width="26" fill="none" stroke="rgb(0,0,0)" d="M 1758,1267 C 971,1267 332,1622 332,2060 332,2498 971,2853 1758,2853 2546,2853 3185,2498 3185,2060 3185,1622 2546,1267 1758,1267 Z"/>
  <text fill="rgb(0,0,0)" stroke="none" x="402" y="1980">i</text>
  <text fill="rgb(0,0,0)" stroke="none" x="495" y="1980">-</text>
  <text fill="rgb(0,0,0)" stroke="none" x="634" y="1980">
   <tspan x="634 938 1289 1572 1690 1808">DMA, e</tspan></text>
  <text fill="rgb(0,0,0)" stroke="none" x="2046" y="1980">-</text>
  <text fill="rgb(0,0,0)" stroke="none" x="2185" y="1980">
   <tspan x="2185 2489 2840">DMA</tspan></text>
  <text fill="rgb(0,0,0)" stroke="none" x="934" y="2483">
   <tspan x="934 1285 1522 1754 1991 2219 2456">Manager</tspan></text>
  <text fill="rgb(129,138,143)" stroke="none" x="803" y="4273">
   <tspan x="803 1086 1318 1550 1905 1998 2209 2420 2509 2746">Submission</tspan></text>
  <text fill="rgb(129,138,143)" stroke="none" x="1057" y="4776">
   <tspan x="1057 1408 1645 1877 2114 2342 2579">Manager</tspan></text>
  <path fill="rgb(129,138,143)" stroke="none" d="M 1882,3559 C 1065,3559 403,3914 403,4352 403,4790 1065,5145 1882,5145 2699,5145 3361,4790 3361,4352 3361,3914 2699,3559 1882,3559 Z"/>
  <path fill="rgb(255,204,153)" stroke="none" d="M 1811,3488 C 994,3488 332,3843 332,4281 332,4720 994,5075 1811,5075 2629,5075 3291,4720 3291,4281 3291,3843 2629,3488 1811,3488 Z"/>
  <path stroke-width="26" fill="none" stroke="rgb(0,0,0)" d="M 1811,3488 C 994,3488 332,3843 332,4281 332,4720 994,5075 1811,5075 2629,5075 3291,4720 3291,4281 3291,3843 2629,3488 1811,3488 Z"/>
  <text fill="rgb(0,0,0)" stroke="none" x="731" y="4201">
   <tspan x="731 1014 1246 1478 1833 1926 2137 2348 2437 2674">Submission</tspan></text>
  <text fill="rgb(0,0,0)" stroke="none" x="985" y="4704">
   <tspan x="985 1336 1573 1805 2042 2270 2507">Manager</tspan></text>
  <text fill="rgb(129,138,143)" stroke="none" x="824" y="6494">
   <tspan x="824 1128 1360 1715 1947 2040 2277 2395 2484 2716">Completion</tspan></text>
  <text fill="rgb(129,138,143)" stroke="none" x="1057" y="6997">
   <tspan x="1057 1408 1645 1877 2114 2342 2579">Manager</tspan></text>
  <path fill="rgb(129,138,143)" stroke="none" d="M 1882,5780 C 1065,5780 403,6135 403,6573 403,7011 1065,7367 1882,7367 2699,7367 3361,7011 3361,6573 3361,6135 2699,5780 1882,5780 Z"/>
  <path fill="rgb(255,204,153)" stroke="none" d="M 1811,5709 C 994,5709 332,6065 332,6502 332,6941 994,7296 1811,7296 2629,7296 3291,6941 3291,6502 3291,6065 2629,5709 1811,5709 Z"/>
  <path stroke-width="26" fill="none" stroke="rgb(0,0,0)" d="M 1811,5709 C 994,5709 332,6065 332,6502 332,6941 994,7296 1811,7296 2629,7296 3291,6941 3291,6502 3291,6065 2629,5709 1811,5709 Z"/>
  <text fill="rgb(0,0,0)" stroke="none" x="753" y="6422">
   <tspan x="753 1057 1289 1644 1876 1969 2206 2324 2413 2645">Completion</tspan></text>
  <text fill="rgb(0,0,0)" stroke="none" x="985" y="6925">
   <tspan x="985 1336 1573 1805 2042 2270 2507">Manager</tspan></text>
  <text fill="rgb(129,138,143)" stroke="none" x="1454" y="8715">
   <tspan x="1454 1758 1995 2206">Host</tspan></text>
  <text fill="rgb(129,138,143)" stroke="none" x="1057" y="9219">
   <tspan x="1057 1408 1645 1877 2114 2342 2579">Manager</tspan></text>
  <path fill="rgb(129,138,143)" stroke="none" d="M 1882,8001 C 1065,8001 403,8356 403,8794 403,9232 1065,9588 1882,9588 2699,9588 3361,9232 3361,8794 3361,8356 2699,8001 1882,8001 Z"/>
  <path fill="rgb(255,204,153)" stroke="none" d="M 1811,7930 C 994,7930 332,8286 332,8724 332,9162 994,9517 1811,9517 2629,9517 3291,9162 3291,8724 3291,8286 2629,7930 1811,7930 Z"/>
  <path stroke-width="26" fill="none" stroke="rgb(0,0,0)" d="M 1811,7930 C 994,7930 332,8286 332,8724 332,9162 994,9517 1811,9517 2629,9517 3291,9162 3291,8724 3291,8286 2629,7930 1811,7930 Z"/>
  <text fill="rgb(0,0,0)" stroke="none" x="1382" y="8643">
   <tspan x="1382 1686 1923 2134">Host</tspan></text>
  <text fill="rgb(0,0,0)" stroke="none" x="985" y="9147">
   <tspan x="985 1336 1573 1805 2042 2270 2507">Manager</tspan></text>
 </g>
 <g fill="rgb(0,0,0)" stroke="none" font-family="Tahoma" font-size="495" font-style="normal" font-weight="400">
  <text x="8196" y="617">
   <tspan x="8196 8467 8645 8916 9144 9406 9626 9846 10117 10290 10446 10742 11008 11422 11697 11811 12069">Processor Complex</tspan></text>
  <text fill="rgb(0,0,0)" stroke="none" x="905" y="617">
   <tspan x="905 1239 1510 1730 1895 2051 2233 2423">Host I/F</tspan></text>
  <text fill="rgb(0,0,0)" stroke="none" x="17389" y="617">
   <tspan x="17389 17647 17761 18019 18239 18514 18670 18856 19042">Flash I/F</tspan></text>
 </g>
 <g fill="rgb(129,138,143)" stroke="none" font-family="Arial" font-size="423" font-style="normal" font-weight="400">
  <text x="17854" y="5225">
   <tspan x="17854 18112 18205 18442 18653">Flash</tspan></text>
  <text fill="rgb(129,138,143)" stroke="none" x="17550" y="5728">
   <tspan x="17550 17668 17905 18023 18260 18395 18513 18750 18961">Interface</tspan></text>
  <path fill="rgb(129,138,143)" stroke="none" d="M 18366,4511 C 17550,4511 16887,4866 16887,5304 16887,5742 17550,6097 18366,6097 19183,6097 19846,5742 19846,5304 19846,4866 19183,4511 18366,4511 Z"/>
  <path fill="rgb(255,204,153)" stroke="none" d="M 18296,4440 C 17479,4440 16816,4795 16816,5233 16816,5672 17479,6026 18296,6026 19114,6026 19775,5672 19775,5233 19775,4795 19114,4440 18296,4440 Z"/>
  <path stroke-width="26" fill="none" stroke="rgb(0,0,0)" d="M 18296,4440 C 17479,4440 16816,4795 16816,5233 16816,5672 17479,6026 18296,6026 19114,6026 19775,5672 19775,5233 19775,4795 19114,4440 18296,4440 Z"/>
  <text fill="rgb(0,0,0)" stroke="none" x="17782" y="5153">
   <tspan x="17782 18040 18133 18370 18581">Flash</tspan></text>
  <text fill="rgb(0,0,0)" stroke="none" x="17478" y="5656">
   <tspan x="17478 17596 17833 17951 18188 18323 18441 18678 18889">Interface</tspan></text>
  <path fill="rgb(153,204,255)" stroke="none" d="M 3819,9834 L 3819,13325 10159,13325 10159,9834 3819,9834 Z"/>
  <path fill="none" stroke="none" d="M 3819,9834 L 3819,13325 10159,13325 10159,9834 3819,9834 Z"/>
  <path stroke-width="35" fill="none" stroke="rgb(0,0,0)" d="M 3819,9834 L 3819,13325 10159,13325 10159,9834 3819,9834 Z"/>
  <text fill="rgb(129,138,143)" stroke="none" x="5119" y="11186">
   <tspan x="5119 5423 5727 6031">DDR3</tspan></text>
  <path fill="rgb(129,138,143)" stroke="none" d="M 5686,10222 C 4869,10222 4207,10577 4207,11016 4207,11453 4869,11809 5686,11809 6503,11809 7166,11453 7166,11016 7166,10577 6503,10222 5686,10222 Z"/>
  <path fill="rgb(255,204,153)" stroke="none" d="M 5615,10151 C 4799,10151 4136,10507 4136,10945 4136,11383 4799,11738 5615,11738 6433,11738 7095,11383 7095,10945 7095,10507 6433,10151 5615,10151 Z"/>
  <path stroke-width="26" fill="none" stroke="rgb(0,0,0)" d="M 5615,10151 C 4799,10151 4136,10507 4136,10945 4136,11383 4799,11738 5615,11738 6433,11738 7095,11383 7095,10945 7095,10507 6433,10151 5615,10151 Z"/>
  <text fill="rgb(0,0,0)" stroke="none" x="5047" y="11114">
   <tspan x="5047 5351 5655 5959">DDR3</tspan></text>
 </g>
 <g fill="rgb(0,0,0)" stroke="none" font-family="Tahoma" font-size="495" font-style="normal" font-weight="400">
  <text x="5026" y="13944">
   <tspan x="5026 5406 5668 6078 6349 6527 6772 6928 7220 7491 7762 7927 8105 8376 8490 8600 8862">Memory Controller</tspan></text>
 </g>
 <g fill="rgb(129,138,143)" stroke="none" font-family="Arial" font-size="423" font-style="normal" font-weight="400">
  <text x="4967" y="2052">
   <tspan x="4967 5199 5436 5647 5858 5947 6184">Locking</tspan></text>
  <text fill="rgb(129,138,143)" stroke="none" x="4861" y="2555">
   <tspan x="4861 5212 5449 5681 5918 6146 6383">Manager</tspan></text>
  <path fill="rgb(129,138,143)" stroke="none" d="M 5686,1338 C 4869,1338 4207,1693 4207,2131 4207,2569 4869,2924 5686,2924 6503,2924 7166,2569 7166,2131 7166,1693 6503,1338 5686,1338 Z"/>
  <path fill="rgb(204,255,255)" stroke="none" d="M 5615,1267 C 4799,1267 4136,1622 4136,2060 4136,2498 4799,2853 5615,2853 6433,2853 7095,2498 7095,2060 7095,1622 6433,1267 5615,1267 Z"/>
  <path stroke-width="26" fill="none" stroke="rgb(0,0,0)" d="M 5615,1267 C 4799,1267 4136,1622 4136,2060 4136,2498 4799,2853 5615,2853 6433,2853 7095,2498 7095,2060 7095,1622 6433,1267 5615,1267 Z"/>
  <text fill="rgb(0,0,0)" stroke="none" x="4895" y="1980">
   <tspan x="4895 5127 5364 5575 5786 5875 6112">Locking</tspan></text>
  <text fill="rgb(0,0,0)" stroke="none" x="4789" y="2483">
   <tspan x="4789 5140 5377 5609 5846 6074 6311">Manager</tspan></text>
  <text fill="rgb(129,138,143)" stroke="none" x="8716" y="6494">
   <tspan x="8716 8999 9231 9586 9675 9912">Admin </tspan></text>
  <text fill="rgb(129,138,143)" stroke="none" x="10030" y="6494">
   <tspan x="10030 10334 10685">Cmd</tspan></text>
  <text fill="rgb(129,138,143)" stroke="none" x="8982" y="6997">
   <tspan x="8982 9333 9570 9802 10039 10267 10504">Manager</tspan></text>
  <path fill="rgb(129,138,143)" stroke="none" d="M 9807,5780 C 8990,5780 8328,6135 8328,6573 8328,7011 8990,7367 9807,7367 10624,7367 11287,7011 11287,6573 11287,6135 10624,5780 9807,5780 Z"/>
  <path fill="rgb(204,255,255)" stroke="none" d="M 9736,5709 C 8920,5709 8257,6065 8257,6502 8257,6941 8920,7296 9736,7296 10554,7296 11216,6941 11216,6502 11216,6065 10554,5709 9736,5709 Z"/>
  <path stroke-width="26" fill="none" stroke="rgb(0,0,0)" d="M 9736,5709 C 8920,5709 8257,6065 8257,6502 8257,6941 8920,7296 9736,7296 10554,7296 11216,6941 11216,6502 11216,6065 10554,5709 9736,5709 Z"/>
  <text fill="rgb(0,0,0)" stroke="none" x="8644" y="6422">
   <tspan x="8644 8927 9159 9514 9603 9840">Admin </tspan></text>
  <text fill="rgb(0,0,0)" stroke="none" x="9958" y="6422">
   <tspan x="9958 10262 10613">Cmd</tspan></text>
  <text fill="rgb(0,0,0)" stroke="none" x="8910" y="6925">
   <tspan x="8910 9261 9498 9730 9967 10195 10432">Manager</tspan></text>
  <rect fill="rgb(204,255,204)" stroke="none" x="12376" y="1265" width="3808" height="8254"/>
  <rect fill="rgb(127,127,127)" stroke="none" x="12378" y="1267" width="3805" height="8251"/>
  <rect fill="rgb(204,255,204)" stroke="none" x="12376" y="1265" width="3808" height="8254"/>
  <path fill="rgb(0,0,0)" stroke="rgb(0,0,0)" d="M 16182,1285 L 15901,1285 15901,1250 16182,1250 16182,1285 Z M 15796,1285 L 15513,1285 15513,1250 15796,1250 15796,1285 Z M 15408,1285 L 15126,1285 15126,1250 15408,1250 15408,1285 Z M 15020,1285 L 14739,1285 14739,1250 15020,1250 15020,1285 Z M 14633,1285 L 14351,1285 14351,1250 14633,1250 14633,1285 Z M 14245,1285 L 13963,1285 13963,1250 14245,1250 14245,1285 Z M 13858,1285 L 13576,1285 13576,1250 13858,1250 13858,1285 Z M 13471,1285 L 13189,1285 13189,1250 13471,1250 13471,1285 Z M 13083,1285 L 12801,1285 12801,1250 13083,1250 13083,1285 Z M 12695,1285 L 12414,1285 12414,1250 12695,1250 12695,1285 Z M 12396,1338 L 12396,1620 12361,1620 12361,1338 12396,1338 Z M 12396,1726 L 12396,2007 12361,2007 12361,1726 12396,1726 Z M 12396,2113 L 12396,2395 12361,2395 12361,2113 12396,2113 Z M 12396,2501 L 12396,2784 12361,2784 12361,2501 12396,2501 Z M 12396,2889 L 12396,3171 12361,3171 12361,2889 12396,2889 Z M 12396,3276 L 12396,3559 12361,3559 12361,3276 12396,3276 Z M 12396,3665 L 12396,3947 12361,3947 12361,3665 12396,3665 Z M 12396,4053 L 12396,4334 12361,4334 12361,4053 12396,4053 Z M 12396,4440 L 12396,4722 12361,4722 12361,4440 12396,4440 Z M 12396,4828 L 12396,5110 12361,5110 12361,4828 12396,4828 Z M 12396,5216 L 12396,5498 12361,5498 12361,5216 12396,5216 Z M 12396,5603 L 12396,5886 12361,5886 12361,5603 12396,5603 Z M 12396,5992 L 12396,6274 12361,6274 12361,5992 12396,5992 Z M 12396,6380 L 12396,6661 12361,6661 12361,6380 12396,6380 Z M 12396,6767 L 12396,7049 12361,7049 12361,6767 12396,6767 Z M 12396,7155 L 12396,7437 12361,7437 12361,7155 12396,7155 Z M 12396,7543 L 12396,7825 12361,7825 12361,7543 12396,7543 Z M 12396,7930 L 12396,8213 12361,8213 12361,7930 12396,7930 Z M 12396,8318 L 12396,8601 12361,8601 12361,8318 12396,8318 Z M 12396,8707 L 12396,8988 12361,8988 12361,8707 12396,8707 Z M 12396,9094 L 12396,9376 12361,9376 12361,9094 12396,9094 Z M 12396,9482 L 12396,9517 12378,9500 12625,9500 12625,9535 12361,9535 12361,9482 12396,9482 Z M 12731,9500 L 13012,9500 13012,9535 12731,9535 12731,9500 Z M 13118,9500 L 13400,9500 13400,9535 13118,9535 13118,9500 Z M 13506,9500 L 13788,9500 13788,9535 13506,9535 13506,9500 Z M 13894,9500 L 14175,9500 14175,9535 13894,9535 13894,9500 Z M 14280,9500 L 14562,9500 14562,9535 14280,9535 14280,9500 Z M 14668,9500 L 14950,9500 14950,9535 14668,9535 14668,9500 Z M 15056,9500 L 15337,9500 15337,9535 15056,9535 15056,9500 Z M 15443,9500 L 15725,9500 15725,9535 15443,9535 15443,9500 Z M 15830,9500 L 16113,9500 16113,9535 15830,9535 15830,9500 Z M 16165,9482 L 16165,9200 16200,9200 16200,9482 16165,9482 Z M 16165,9094 L 16165,8812 16200,8812 16200,9094 16165,9094 Z M 16165,8707 L 16165,8424 16200,8424 16200,8707 16165,8707 Z M 16165,8318 L 16165,8036 16200,8036 16200,8318 16165,8318 Z M 16165,7930 L 16165,7649 16200,7649 16200,7930 16165,7930 Z M 16165,7543 L 16165,7261 16200,7261 16200,7543 16165,7543 Z M 16165,7155 L 16165,6873 16200,6873 16200,7155 16165,7155 Z M 16165,6767 L 16165,6485 16200,6485 16200,6767 16165,6767 Z M 16165,6380 L 16165,6097 16200,6097 16200,6380 16165,6380 Z M 16165,5992 L 16165,5709 16200,5709 16200,5992 16165,5992 Z M 16165,5603 L 16165,5322 16200,5322 16200,5603 16165,5603 Z M 16165,5216 L 16165,4934 16200,4934 16200,5216 16165,5216 Z M 16165,4828 L 16165,4546 16200,4546 16200,4828 16165,4828 Z M 16165,4440 L 16165,4159 16200,4159 16200,4440 16165,4440 Z M 16165,4053 L 16165,3770 16200,3770 16200,4053 16165,4053 Z M 16165,3665 L 16165,3382 16200,3382 16200,3665 16165,3665 Z M 16165,3276 L 16165,2995 16200,2995 16200,3276 16165,3276 Z M 16165,2889 L 16165,2607 16200,2607 16200,2889 16165,2889 Z M 16165,2501 L 16165,2219 16200,2219 16200,2501 16165,2501 Z M 16165,2113 L 16165,1832 16200,1832 16200,2113 16165,2113 Z M 16165,1726 L 16165,1443 16200,1443 16200,1726 16165,1726 Z M 16165,1338 L 16165,1267 16200,1267 16200,1338 16165,1338 Z"/>
 </g>
 <g fill="rgb(0,0,0)" stroke="none" font-family="Tahoma" font-size="495" font-style="normal" font-weight="400">
  <text x="13885" y="5589">
   <tspan x="13885 14143 14430">FTL</tspan></text>
 </g>
 <g fill="rgb(129,138,143)" stroke="none" font-family="Arial" font-size="423" font-style="normal" font-weight="400">
  <text x="11573" y="10936">
   <tspan x="11573 11852 12182">XOR</tspan></text>
  <text fill="rgb(129,138,143)" stroke="none" x="11379" y="11440">
   <tspan x="11379 11662 11899 12131 12220 12452">Engine</tspan></text>
  <path fill="rgb(129,138,143)" stroke="none" d="M 12026,10222 C 11209,10222 10547,10577 10547,11016 10547,11453 11209,11809 12026,11809 12843,11809 13506,11453 13506,11016 13506,10577 12843,10222 12026,10222 Z"/>
  <path fill="rgb(255,204,153)" stroke="none" d="M 11956,10151 C 11139,10151 10476,10507 10476,10945 10476,11383 11139,11738 11956,11738 12773,11738 13435,11383 13435,10945 13435,10507 12773,10151 11956,10151 Z"/>
  <path stroke-width="26" fill="none" stroke="rgb(0,0,0)" d="M 11956,10151 C 11139,10151 10476,10507 10476,10945 10476,11383 11139,11738 11956,11738 12773,11738 13435,11383 13435,10945 13435,10507 12773,10151 11956,10151 Z"/>
  <text fill="rgb(0,0,0)" stroke="none" x="11501" y="10864">
   <tspan x="11501 11780 12110">XOR</tspan></text>
  <text fill="rgb(0,0,0)" stroke="none" x="11307" y="11368">
   <tspan x="11307 11590 11827 12059 12148 12380">Engine</tspan></text>
  <text fill="rgb(129,138,143)" stroke="none" x="12972" y="12205">
   <tspan x="12972 13209 13302 13513">List</tspan></text>
  <text fill="rgb(129,138,143)" stroke="none" x="12647" y="12709">
   <tspan x="12647 12930 13167 13399 13488 13720">Engine</tspan></text>
  <path fill="rgb(129,138,143)" stroke="none" d="M 13294,11492 C 12477,11492 11815,11846 11815,12285 11815,12723 12477,13078 13294,13078 14111,13078 14774,12723 14774,12285 14774,11846 14111,11492 13294,11492 Z"/>
  <path fill="rgb(255,204,153)" stroke="none" d="M 13224,11421 C 12407,11421 11744,11776 11744,12214 11744,12652 12407,13007 13224,13007 14041,13007 14703,12652 14703,12214 14703,11776 14041,11421 13224,11421 Z"/>
  <path stroke-width="26" fill="none" stroke="rgb(0,0,0)" d="M 13224,11421 C 12407,11421 11744,11776 11744,12214 11744,12652 12407,13007 13224,13007 14041,13007 14703,12652 14703,12214 14703,11776 14041,11421 13224,11421 Z"/>
  <text fill="rgb(0,0,0)" stroke="none" x="12900" y="12134">
   <tspan x="12900 13137 13230 13441">List</tspan></text>
  <text fill="rgb(0,0,0)" stroke="none" x="12575" y="12637">
   <tspan x="12575 12858 13095 13327 13416 13648">Engine</tspan></text>
  <text fill="rgb(129,138,143)" stroke="none" x="7980" y="10936">
   <tspan x="7980 8263 8495 8613 8731 8968">Buffer</tspan></text>
  <text fill="rgb(129,138,143)" stroke="none" x="7934" y="11440">
   <tspan x="7934 8217 8521 8804">SRAM</tspan></text>
  <path fill="rgb(129,138,143)" stroke="none" d="M 8539,10222 C 7722,10222 7060,10577 7060,11016 7060,11453 7722,11809 8539,11809 9356,11809 10019,11453 10019,11016 10019,10577 9356,10222 8539,10222 Z"/>
  <path fill="rgb(255,204,153)" stroke="none" d="M 8468,10151 C 7652,10151 6989,10507 6989,10945 6989,11383 7652,11738 8468,11738 9286,11738 9948,11383 9948,10945 9948,10507 9286,10151 8468,10151 Z"/>
  <path stroke-width="26" fill="none" stroke="rgb(0,0,0)" d="M 8468,10151 C 7652,10151 6989,10507 6989,10945 6989,11383 7652,11738 8468,11738 9286,11738 9948,11383 9948,10945 9948,10507 9286,10151 8468,10151 Z"/>
  <text fill="rgb(0,0,0)" stroke="none" x="7908" y="10864">
   <tspan x="7908 8191 8423 8541 8659 8896">Buffer</tspan></text>
  <text fill="rgb(0,0,0)" stroke="none" x="7862" y="11368">
   <tspan x="7862 8145 8449 8732">SRAM</tspan></text>
 </g>
 <g fill="rgb(0,0,0)" stroke="none" font-family="Tahoma" font-size="495" font-style="normal" font-weight="400">
  <text x="10935" y="13944">
   <tspan x="10935 11269 11527 11705 11980 12348 12606 12784 13042 13198 13494 13722 13950 14212 14322 14584 14762 15020 15181 15452 15630">Hardware Accelerators</tspan></text>
 </g>
 <g fill="rgb(129,138,143)" stroke="none" font-family="Arial" font-size="423" font-style="normal" font-weight="400">
  <text x="14320" y="10936">
   <tspan x="14320 14603 14835 14953 15071 15308">Buffer</tspan></text>
  <text fill="rgb(129,138,143)" stroke="none" x="14054" y="11440">
   <tspan x="14054 14405 14642 14874 15111 15339 15576">Manager</tspan></text>
  <path fill="rgb(129,138,143)" stroke="none" d="M 14879,10222 C 14063,10222 13400,10578 13400,11016 13400,11453 14063,11809 14879,11809 15696,11809 16359,11453 16359,11016 16359,10578 15696,10222 14879,10222 Z"/>
  <path fill="rgb(255,204,153)" stroke="none" d="M 14809,10151 C 13992,10151 13329,10507 13329,10945 13329,11384 13992,11738 14809,11738 15626,11738 16288,11384 16288,10945 16288,10507 15626,10151 14809,10151 Z"/>
  <path stroke-width="26" fill="none" stroke="rgb(0,0,0)" d="M 14809,10151 C 13992,10151 13329,10507 13329,10945 13329,11384 13992,11738 14809,11738 15626,11738 16288,11384 16288,10945 16288,10507 15626,10151 14809,10151 Z"/>
  <text fill="rgb(0,0,0)" stroke="none" x="14249" y="10864">
   <tspan x="14249 14532 14764 14882 15000 15237">Buffer</tspan></text>
  <text fill="rgb(0,0,0)" stroke="none" x="13982" y="11368">
   <tspan x="13982 14333 14570 14802 15039 15267 15504">Manager</tspan></text>
  <path fill="rgb(0,0,0)" stroke="rgb(0,0,0)" d="M 3291,4264 L 3291,4264 3351,4265 3412,4270 3472,4277 3532,4287 3592,4300 3650,4315 3709,4333 3766,4353 3822,4375 3877,4400 3931,4427 3984,4456 4035,4486 4085,4519 4133,4553 4179,4588 4224,4626 4267,4665 4307,4704 4345,4746 4381,4788 4414,4832 4445,4877 4473,4922 4498,4968 4521,5015 4540,5063 4540,5063 C 4540,5064 4540,5065 4541,5066 L 4541,5066 4556,5131 4522,5138 4506,5074 4507,5076 4489,5031 4467,4985 4443,4941 4416,4897 4386,4853 4354,4811 4319,4770 4282,4730 4243,4691 4202,4653 4158,4617 4113,4582 4066,4548 4017,4517 3967,4486 3916,4458 3863,4432 3809,4408 3754,4386 3698,4366 3641,4349 3584,4335 3526,4322 3468,4312 3410,4305 3350,4301 3291,4299 3291,4264 Z M 4638,5082 L 4638,5082 4568,5308 4429,5117 4638,5082 Z"/>
  <path fill="rgb(0,0,0)" stroke="rgb(0,0,0)" d="M 7094,5850 L 7094,5850 7149,5848 7201,5841 7253,5831 7304,5817 7353,5800 7399,5778 7444,5755 7485,5729 7523,5701 7557,5671 7587,5639 7613,5607 7632,5573 7647,5538 7652,5522 7655,5504 7658,5488 7659,5471 7662,5433 7662,5433 C 7662,5432 7662,5431 7662,5430 L 7662,5430 7670,5393 7685,5355 7704,5318 7728,5282 7756,5247 7788,5215 7823,5186 7861,5158 7902,5133 7945,5111 7990,5092 8036,5078 8084,5067 8133,5060 8182,5057 8207,5059 8233,5062 8258,5069 8283,5078 8307,5089 8332,5102 8356,5118 8379,5135 8402,5155 8424,5176 8446,5199 8467,5224 8488,5250 8508,5277 8546,5337 8580,5401 8612,5470 8639,5543 8662,5619 8681,5697 8690,5765 8655,5770 8647,5706 8629,5629 8606,5556 8579,5485 8549,5418 8516,5355 8480,5298 8461,5272 8441,5246 8420,5223 8400,5201 8379,5181 8358,5163 8336,5147 8315,5133 8293,5121 8271,5111 8249,5103 8227,5097 8205,5094 8184,5092 8138,5095 8092,5101 8047,5111 8004,5125 7961,5143 7920,5163 7881,5187 7846,5212 7813,5240 7783,5270 7757,5301 7736,5334 7718,5367 7704,5401 7696,5438 7697,5436 7694,5472 7693,5492 7690,5512 7685,5532 7680,5553 7663,5591 7640,5628 7613,5663 7580,5697 7544,5729 7504,5759 7460,5786 7413,5811 7365,5832 7313,5851 7260,5866 7206,5877 7150,5883 7096,5886 7094,5850 Z M 8774,5723 L 8774,5723 8689,5943 8564,5742 8774,5723 Z"/>
  <path fill="rgb(0,0,0)" stroke="rgb(0,0,0)" d="M 8629,7231 L 8603,7273 8603,7273 C 8602,7275 8601,7276 8600,7277 L 8600,7277 8579,7297 8557,7317 8532,7337 8506,7357 8478,7377 8448,7396 8417,7415 8384,7434 8315,7472 8239,7508 8158,7544 8072,7579 7980,7612 7884,7645 7783,7676 7679,7706 7569,7735 7457,7762 7340,7787 7222,7811 7099,7833 6974,7854 6847,7873 6718,7890 6586,7905 6453,7918 6319,7928 6183,7937 6047,7942 5911,7946 5774,7947 5638,7947 5501,7943 5364,7937 5229,7929 5095,7918 4962,7905 4831,7891 4702,7874 4575,7855 4450,7835 4327,7812 4208,7789 4092,7763 3980,7736 3871,7708 3766,7677 3665,7646 3569,7615 3478,7581 3391,7546 3310,7511 3234,7474 3164,7437 3132,7418 3100,7399 3071,7380 3043,7360 3017,7341 2993,7321 2969,7300 2948,7280 2948,7280 C 2947,7279 2946,7278 2946,7277 L 2946,7277 2921,7235 2951,7217 2976,7259 2973,7255 2993,7274 3014,7293 3039,7312 3063,7331 3090,7350 3119,7369 3150,7388 3181,7406 3249,7443 3324,7479 3404,7514 3489,7548 3580,7581 3675,7613 3775,7644 3879,7673 3988,7702 4100,7728 4215,7754 4334,7777 4455,7800 4579,7820 4706,7839 4835,7856 4966,7871 5098,7883 5231,7894 5366,7902 5502,7908 5638,7912 5773,7912 5910,7911 6045,7908 6181,7901 6316,7893 6450,7882 6582,7869 6713,7855 6842,7838 6968,7820 7093,7799 7214,7777 7333,7753 7448,7728 7560,7701 7669,7672 7773,7643 7872,7611 7968,7579 8058,7546 8144,7511 8224,7477 8298,7441 8366,7404 8399,7385 8429,7367 8457,7347 8484,7328 8510,7310 8533,7290 8555,7271 8576,7251 8573,7255 8598,7213 8629,7231 Z M 8503,7208 L 8503,7208 8689,7062 8694,7299 8503,7208 Z M 2856,7304 L 2856,7304 2860,7067 3047,7212 2856,7304 Z"/>
  <text fill="rgb(129,138,143)" stroke="none" x="13441" y="5542">
   <tspan x="13441 13792 14029 14261 14498 14587 14824">Mapping</tspan></text>
  <text fill="rgb(129,138,143)" stroke="none" x="13420" y="6045">
   <tspan x="13420 13771 14008 14240 14477 14705 14942">Manager</tspan></text>
  <path fill="rgb(129,138,143)" stroke="none" d="M 14245,4828 C 13429,4828 12766,5183 12766,5621 12766,6059 13429,6415 14245,6415 15062,6415 15725,6059 15725,5621 15725,5183 15062,4828 14245,4828 Z"/>
  <path fill="rgb(204,255,255)" stroke="none" d="M 14175,4757 C 13358,4757 12695,5113 12695,5550 12695,5989 13358,6344 14175,6344 14992,6344 15654,5989 15654,5550 15654,5113 14992,4757 14175,4757 Z"/>
  <path stroke-width="26" fill="none" stroke="rgb(0,0,0)" d="M 14175,4757 C 13358,4757 12695,5113 12695,5550 12695,5989 13358,6344 14175,6344 14992,6344 15654,5989 15654,5550 15654,5113 14992,4757 14175,4757 Z"/>
  <text fill="rgb(0,0,0)" stroke="none" x="13369" y="5470">
   <tspan x="13369 13720 13957 14189 14426 14515 14752">Mapping</tspan></text>
  <text fill="rgb(0,0,0)" stroke="none" x="13348" y="5974">
   <tspan x="13348 13699 13936 14168 14405 14633 14870">Manager</tspan></text>
  <text fill="rgb(129,138,143)" stroke="none" x="13441" y="5859">
   <tspan x="13441 13792 14029 14261 14498 14587 14824">Mapping</tspan></text>
  <text fill="rgb(129,138,143)" stroke="none" x="13420" y="6363">
   <tspan x="13420 13771 14008 14240 14477 14705 14942">Manager</tspan></text>
  <path fill="rgb(129,138,143)" stroke="none" d="M 14245,5145 C 13429,5145 12766,5501 12766,5939 12766,6377 13429,6732 14245,6732 15062,6732 15725,6377 15725,5939 15725,5501 15062,5145 14245,5145 Z"/>
  <path fill="rgb(204,255,255)" stroke="none" d="M 14175,5075 C 13358,5075 12695,5430 12695,5868 12695,6307 13358,6661 14175,6661 14992,6661 15654,6307 15654,5868 15654,5430 14992,5075 14175,5075 Z"/>
  <path stroke-width="26" fill="none" stroke="rgb(0,0,0)" d="M 14175,5075 C 13358,5075 12695,5430 12695,5868 12695,6307 13358,6661 14175,6661 14992,6661 15654,6307 15654,5868 15654,5430 14992,5075 14175,5075 Z"/>
  <text fill="rgb(0,0,0)" stroke="none" x="13369" y="5787">
   <tspan x="13369 13720 13957 14189 14426 14515 14752">Mapping</tspan></text>
  <text fill="rgb(0,0,0)" stroke="none" x="13348" y="6291">
   <tspan x="13348 13699 13936 14168 14405 14633 14870">Manager</tspan></text>
  <text fill="rgb(129,138,143)" stroke="none" x="13441" y="6177">
   <tspan x="13441 13792 14029 14261 14498 14587 14824">Mapping</tspan></text>
  <text fill="rgb(129,138,143)" stroke="none" x="13420" y="6680">
   <tspan x="13420 13771 14008 14240 14477 14705 14942">Manager</tspan></text>
  <path fill="rgb(129,138,143)" stroke="none" d="M 14245,5463 C 13429,5463 12766,5818 12766,6256 12766,6694 13429,7049 14245,7049 15062,7049 15725,6694 15725,6256 15725,5818 15062,5463 14245,5463 Z"/>
  <path fill="rgb(204,255,255)" stroke="none" d="M 14175,5392 C 13358,5392 12695,5747 12695,6185 12695,6624 13358,6978 14175,6978 14992,6978 15654,6624 15654,6185 15654,5747 14992,5392 14175,5392 Z"/>
  <path stroke-width="26" fill="none" stroke="rgb(0,0,0)" d="M 14175,5392 C 13358,5392 12695,5747 12695,6185 12695,6624 13358,6978 14175,6978 14992,6978 15654,6624 15654,6185 15654,5747 14992,5392 14175,5392 Z"/>
  <text fill="rgb(0,0,0)" stroke="none" x="13369" y="6105">
   <tspan x="13369 13720 13957 14189 14426 14515 14752">Mapping</tspan></text>
  <text fill="rgb(0,0,0)" stroke="none" x="13348" y="6608">
   <tspan x="13348 13699 13936 14168 14405 14633 14870">Manager</tspan></text>
  <text fill="rgb(129,138,143)" stroke="none" x="13441" y="6494">
   <tspan x="13441 13792 14029 14261 14498 14587 14824">Mapping</tspan></text>
  <text fill="rgb(129,138,143)" stroke="none" x="13420" y="6997">
   <tspan x="13420 13771 14008 14240 14477 14705 14942">Manager</tspan></text>
  <path fill="rgb(129,138,143)" stroke="none" d="M 14245,5780 C 13429,5780 12766,6135 12766,6573 12766,7011 13429,7367 14245,7367 15062,7367 15725,7011 15725,6573 15725,6135 15062,5780 14245,5780 Z"/>
  <path fill="rgb(204,255,255)" stroke="none" d="M 14175,5709 C 13358,5709 12695,6065 12695,6502 12695,6941 13358,7296 14175,7296 14992,7296 15654,6941 15654,6502 15654,6065 14992,5709 14175,5709 Z"/>
  <path stroke-width="26" fill="none" stroke="rgb(0,0,0)" d="M 14175,5709 C 13358,5709 12695,6065 12695,6502 12695,6941 13358,7296 14175,7296 14992,7296 15654,6941 15654,6502 15654,6065 14992,5709 14175,5709 Z"/>
  <text fill="rgb(0,0,0)" stroke="none" x="13369" y="6422">
   <tspan x="13369 13720 13957 14189 14426 14515 14752">Mapping</tspan></text>
  <text fill="rgb(0,0,0)" stroke="none" x="13348" y="6925">
   <tspan x="13348 13699 13936 14168 14405 14633 14870">Manager</tspan></text>
  <text fill="rgb(129,138,143)" stroke="none" x="13441" y="5542">
   <tspan x="13441 13792 14029 14261 14498 14587 14824">Mapping</tspan></text>
  <text fill="rgb(129,138,143)" stroke="none" x="13420" y="6045">
   <tspan x="13420 13771 14008 14240 14477 14705 14942">Manager</tspan></text>
  <path fill="rgb(129,138,143)" stroke="none" d="M 14245,4828 C 13429,4828 12766,5183 12766,5621 12766,6059 13429,6415 14245,6415 15062,6415 15725,6059 15725,5621 15725,5183 15062,4828 14245,4828 Z"/>
  <path fill="rgb(204,255,255)" stroke="none" d="M 14175,4757 C 13358,4757 12695,5113 12695,5550 12695,5989 13358,6344 14175,6344 14992,6344 15654,5989 15654,5550 15654,5113 14992,4757 14175,4757 Z"/>
  <path stroke-width="26" fill="none" stroke="rgb(0,0,0)" d="M 14175,4757 C 13358,4757 12695,5113 12695,5550 12695,5989 13358,6344 14175,6344 14992,6344 15654,5989 15654,5550 15654,5113 14992,4757 14175,4757 Z"/>
  <text fill="rgb(0,0,0)" stroke="none" x="13369" y="5470">
   <tspan x="13369 13720 13957 14189 14426 14515 14752">Mapping</tspan></text>
  <text fill="rgb(0,0,0)" stroke="none" x="13348" y="5974">
   <tspan x="13348 13699 13936 14168 14405 14633 14870">Manager</tspan></text>
  <text fill="rgb(129,138,143)" stroke="none" x="13441" y="5859">
   <tspan x="13441 13792 14029 14261 14498 14587 14824">Mapping</tspan></text>
  <text fill="rgb(129,138,143)" stroke="none" x="13420" y="6363">
   <tspan x="13420 13771 14008 14240 14477 14705 14942">Manager</tspan></text>
  <path fill="rgb(129,138,143)" stroke="none" d="M 14245,5145 C 13429,5145 12766,5501 12766,5939 12766,6377 13429,6732 14245,6732 15062,6732 15725,6377 15725,5939 15725,5501 15062,5145 14245,5145 Z"/>
  <path fill="rgb(204,255,255)" stroke="none" d="M 14175,5075 C 13358,5075 12695,5430 12695,5868 12695,6307 13358,6661 14175,6661 14992,6661 15654,6307 15654,5868 15654,5430 14992,5075 14175,5075 Z"/>
  <path stroke-width="26" fill="none" stroke="rgb(0,0,0)" d="M 14175,5075 C 13358,5075 12695,5430 12695,5868 12695,6307 13358,6661 14175,6661 14992,6661 15654,6307 15654,5868 15654,5430 14992,5075 14175,5075 Z"/>
  <text fill="rgb(0,0,0)" stroke="none" x="13369" y="5787">
   <tspan x="13369 13720 13957 14189 14426 14515 14752">Mapping</tspan></text>
  <text fill="rgb(0,0,0)" stroke="none" x="13348" y="6291">
   <tspan x="13348 13699 13936 14168 14405 14633 14870">Manager</tspan></text>
  <text fill="rgb(129,138,143)" stroke="none" x="13441" y="6177">
   <tspan x="13441 13792 14029 14261 14498 14587 14824">Mapping</tspan></text>
  <text fill="rgb(129,138,143)" stroke="none" x="13420" y="6680">
   <tspan x="13420 13771 14008 14240 14477 14705 14942">Manager</tspan></text>
  <path fill="rgb(129,138,143)" stroke="none" d="M 14245,5463 C 13429,5463 12766,5818 12766,6256 12766,6694 13429,7049 14245,7049 15062,7049 15725,6694 15725,6256 15725,5818 15062,5463 14245,5463 Z"/>
  <path fill="rgb(204,255,255)" stroke="none" d="M 14175,5392 C 13358,5392 12695,5747 12695,6185 12695,6624 13358,6978 14175,6978 14992,6978 15654,6624 15654,6185 15654,5747 14992,5392 14175,5392 Z"/>
  <path stroke-width="26" fill="none" stroke="rgb(0,0,0)" d="M 14175,5392 C 13358,5392 12695,5747 12695,6185 12695,6624 13358,6978 14175,6978 14992,6978 15654,6624 15654,6185 15654,5747 14992,5392 14175,5392 Z"/>
  <text fill="rgb(0,0,0)" stroke="none" x="13369" y="6105">
   <tspan x="13369 13720 13957 14189 14426 14515 14752">Mapping</tspan></text>
  <text fill="rgb(0,0,0)" stroke="none" x="13348" y="6608">
   <tspan x="13348 13699 13936 14168 14405 14633 14870">Manager</tspan></text>
  <text fill="rgb(129,138,143)" stroke="none" x="13441" y="6494">
   <tspan x="13441 13792 14029 14261 14498 14587 14824">Mapping</tspan></text>
  <text fill="rgb(129,138,143)" stroke="none" x="13420" y="6997">
   <tspan x="13420 13771 14008 14240 14477 14705 14942">Manager</tspan></text>
  <path fill="rgb(129,138,143)" stroke="none" d="M 14245,5780 C 13429,5780 12766,6135 12766,6573 12766,7011 13429,7367 14245,7367 15062,7367 15725,7011 15725,6573 15725,6135 15062,5780 14245,5780 Z"/>
  <path fill="rgb(204,255,255)" stroke="none" d="M 14175,5709 C 13358,5709 12695,6065 12695,6502 12695,6941 13358,7296 14175,7296 14992,7296 15654,6941 15654,6502 15654,6065 14992,5709 14175,5709 Z"/>
  <path stroke-width="26" fill="none" stroke="rgb(0,0,0)" d="M 14175,5709 C 13358,5709 12695,6065 12695,6502 12695,6941 13358,7296 14175,7296 14992,7296 15654,6941 15654,6502 15654,6065 14992,5709 14175,5709 Z"/>
  <text fill="rgb(0,0,0)" stroke="none" x="13369" y="6422">
   <tspan x="13369 13720 13957 14189 14426 14515 14752">Mapping</tspan></text>
  <text fill="rgb(0,0,0)" stroke="none" x="13348" y="6925">
   <tspan x="13348 13699 13936 14168 14405 14633 14870">Manager</tspan></text>
  <text fill="rgb(129,138,143)" stroke="none" x="13881" y="2369">
   <tspan x="13881 14092 14324 14561 14700 14932 15169">Journal</tspan></text>
  <text fill="rgb(129,138,143)" stroke="none" x="13737" y="2872">
   <tspan x="13737 14088 14325 14557 14794 15022 15259">Manager</tspan></text>
  <path fill="rgb(129,138,143)" stroke="none" d="M 14562,1655 C 13746,1655 13083,2010 13083,2448 13083,2886 13746,3242 14562,3242 15379,3242 16042,2886 16042,2448 16042,2010 15379,1655 14562,1655 Z"/>
  <path fill="rgb(204,255,255)" stroke="none" d="M 14492,1584 C 13675,1584 13012,1940 13012,2377 13012,2816 13675,3171 14492,3171 15309,3171 15971,2816 15971,2377 15971,1940 15309,1584 14492,1584 Z"/>
  <path stroke-width="26" fill="none" stroke="rgb(0,0,0)" d="M 14492,1584 C 13675,1584 13012,1940 13012,2377 13012,2816 13675,3171 14492,3171 15309,3171 15971,2816 15971,2377 15971,1940 15309,1584 14492,1584 Z"/>
  <text fill="rgb(0,0,0)" stroke="none" x="13809" y="2297">
   <tspan x="13809 14020 14252 14489 14628 14860 15097">Journal</tspan></text>
  <text fill="rgb(0,0,0)" stroke="none" x="13665" y="2800">
   <tspan x="13665 14016 14253 14485 14722 14950 15187">Manager</tspan></text>
  <text fill="rgb(129,138,143)" stroke="none" x="14050" y="3955">
   <tspan x="14050 14333 14426 14663 14874">Block</tspan></text>
  <text fill="rgb(129,138,143)" stroke="none" x="13737" y="4459">
   <tspan x="13737 14088 14325 14557 14794 15022 15259">Manager</tspan></text>
  <path fill="rgb(129,138,143)" stroke="none" d="M 14562,3242 C 13746,3242 13083,3597 13083,4035 13083,4473 13746,4828 14562,4828 15379,4828 16042,4473 16042,4035 16042,3597 15379,3242 14562,3242 Z"/>
  <path fill="rgb(204,255,255)" stroke="none" d="M 14492,3171 C 13675,3171 13012,3526 13012,3964 13012,4403 13675,4757 14492,4757 15309,4757 15971,4403 15971,3964 15971,3526 15309,3171 14492,3171 Z"/>
  <path stroke-width="26" fill="none" stroke="rgb(0,0,0)" d="M 14492,3171 C 13675,3171 13012,3526 13012,3964 13012,4403 13675,4757 14492,4757 15309,4757 15971,4403 15971,3964 15971,3526 15309,3171 14492,3171 Z"/>
  <text fill="rgb(0,0,0)" stroke="none" x="13978" y="3884">
   <tspan x="13978 14261 14354 14591 14802">Block</tspan></text>
  <text fill="rgb(0,0,0)" stroke="none" x="13665" y="4387">
   <tspan x="13665 14016 14253 14485 14722 14950 15187">Manager</tspan></text>
  <text fill="rgb(129,138,143)" stroke="none" x="13682" y="8080">
   <tspan x="13682 13986 14223 14430 14667 14874 15111 15250">Recovery</tspan></text>
  <text fill="rgb(129,138,143)" stroke="none" x="13737" y="8584">
   <tspan x="13737 14088 14325 14557 14794 15022 15259">Manager</tspan></text>
  <path fill="rgb(129,138,143)" stroke="none" d="M 14562,7367 C 13746,7367 13083,7722 13083,8160 13083,8598 13746,8953 14562,8953 15379,8953 16042,8598 16042,8160 16042,7722 15379,7367 14562,7367 Z"/>
  <path fill="rgb(204,255,255)" stroke="none" d="M 14492,7296 C 13675,7296 13012,7651 13012,8089 13012,8528 13675,8882 14492,8882 15309,8882 15971,8528 15971,8089 15971,7651 15309,7296 14492,7296 Z"/>
  <path stroke-width="26" fill="none" stroke="rgb(0,0,0)" d="M 14492,7296 C 13675,7296 13012,7651 13012,8089 13012,8528 13675,8882 14492,8882 15309,8882 15971,8528 15971,8089 15971,7651 15309,7296 14492,7296 Z"/>
  <text fill="rgb(0,0,0)" stroke="none" x="13610" y="8009">
   <tspan x="13610 13914 14151 14358 14595 14802 15039 15178">Recovery</tspan></text>
  <text fill="rgb(0,0,0)" stroke="none" x="13665" y="8512">
   <tspan x="13665 14016 14253 14485 14722 14950 15187">Manager</tspan></text>
  <text fill="rgb(129,138,143)" stroke="none" x="13682" y="8398">
   <tspan x="13682 13986 14223 14430 14667 14874 15111 15250">Recovery</tspan></text>
  <text fill="rgb(129,138,143)" stroke="none" x="13737" y="8901">
   <tspan x="13737 14088 14325 14557 14794 15022 15259">Manager</tspan></text>
  <path fill="rgb(129,138,143)" stroke="none" d="M 14562,7684 C 13746,7684 13083,8039 13083,8477 13083,8915 13746,9270 14562,9270 15379,9270 16042,8915 16042,8477 16042,8039 15379,7684 14562,7684 Z"/>
  <path fill="rgb(204,255,255)" stroke="none" d="M 14492,7613 C 13675,7613 13012,7968 13012,8406 13012,8845 13675,9200 14492,9200 15309,9200 15971,8845 15971,8406 15971,7968 15309,7613 14492,7613 Z"/>
  <path stroke-width="26" fill="none" stroke="rgb(0,0,0)" d="M 14492,7613 C 13675,7613 13012,7968 13012,8406 13012,8845 13675,9200 14492,9200 15309,9200 15971,8845 15971,8406 15971,7968 15309,7613 14492,7613 Z"/>
  <text fill="rgb(0,0,0)" stroke="none" x="13610" y="8326">
   <tspan x="13610 13914 14151 14358 14595 14802 15039 15178">Recovery</tspan></text>
  <text fill="rgb(0,0,0)" stroke="none" x="13665" y="8829">
   <tspan x="13665 14016 14253 14485 14722 14950 15187">Manager</tspan></text>
  <text fill="rgb(129,138,143)" stroke="none" x="13682" y="8080">
   <tspan x="13682 13986 14223 14430 14667 14874 15111 15250">Recovery</tspan></text>
  <text fill="rgb(129,138,143)" stroke="none" x="13737" y="8584">
   <tspan x="13737 14088 14325 14557 14794 15022 15259">Manager</tspan></text>
  <path fill="rgb(129,138,143)" stroke="none" d="M 14562,7367 C 13746,7367 13083,7722 13083,8160 13083,8598 13746,8953 14562,8953 15379,8953 16042,8598 16042,8160 16042,7722 15379,7367 14562,7367 Z"/>
  <path fill="rgb(204,255,255)" stroke="none" d="M 14492,7296 C 13675,7296 13012,7651 13012,8089 13012,8528 13675,8882 14492,8882 15309,8882 15971,8528 15971,8089 15971,7651 15309,7296 14492,7296 Z"/>
  <path stroke-width="26" fill="none" stroke="rgb(0,0,0)" d="M 14492,7296 C 13675,7296 13012,7651 13012,8089 13012,8528 13675,8882 14492,8882 15309,8882 15971,8528 15971,8089 15971,7651 15309,7296 14492,7296 Z"/>
  <text fill="rgb(0,0,0)" stroke="none" x="13610" y="8009">
   <tspan x="13610 13914 14151 14358 14595 14802 15039 15178">Recovery</tspan></text>
  <text fill="rgb(0,0,0)" stroke="none" x="13665" y="8512">
   <tspan x="13665 14016 14253 14485 14722 14950 15187">Manager</tspan></text>
  <text fill="rgb(129,138,143)" stroke="none" x="13682" y="8398">
   <tspan x="13682 13986 14223 14430 14667 14874 15111 15250">Recovery</tspan></text>
  <text fill="rgb(129,138,143)" stroke="none" x="13737" y="8901">
   <tspan x="13737 14088 14325 14557 14794 15022 15259">Manager</tspan></text>
  <path fill="rgb(129,138,143)" stroke="none" d="M 14562,7684 C 13746,7684 13083,8039 13083,8477 13083,8915 13746,9270 14562,9270 15379,9270 16042,8915 16042,8477 16042,8039 15379,7684 14562,7684 Z"/>
  <path fill="rgb(204,255,255)" stroke="none" d="M 14492,7613 C 13675,7613 13012,7968 13012,8406 13012,8845 13675,9200 14492,9200 15309,9200 15971,8845 15971,8406 15971,7968 15309,7613 14492,7613 Z"/>
  <path stroke-width="26" fill="none" stroke="rgb(0,0,0)" d="M 14492,7613 C 13675,7613 13012,7968 13012,8406 13012,8845 13675,9200 14492,9200 15309,9200 15971,8845 15971,8406 15971,7968 15309,7613 14492,7613 Z"/>
  <text fill="rgb(0,0,0)" stroke="none" x="13610" y="8326">
   <tspan x="13610 13914 14151 14358 14595 14802 15039 15178">Recovery</tspan></text>
  <text fill="rgb(0,0,0)" stroke="none" x="13665" y="8829">
   <tspan x="13665 14016 14253 14485 14722 14950 15187">Manager</tspan></text>
 </g>
 <g fill="rgb(129,138,143)" stroke="none" font-family="Tahoma" font-size="495" font-style="normal" font-weight="400">
  <text x="4079" y="4395">1</text>
  <path fill="rgb(129,138,143)" stroke="none" d="M 4207,3876 C 4031,3876 3890,4018 3890,4193 3890,4368 4031,4510 4207,4510 4382,4510 4524,4368 4524,4193 4524,4018 4382,3876 4207,3876 Z"/>
  <path fill="rgb(255,255,255)" stroke="none" d="M 4136,3805 C 3961,3805 3819,3948 3819,4123 3819,4298 3961,4440 4136,4440 4311,4440 4453,4298 4453,4123 4453,3948 4311,3805 4136,3805 Z"/>
  <path stroke-width="35" fill="none" stroke="rgb(255,0,0)" d="M 4136,3805 C 3961,3805 3819,3948 3819,4123 3819,4298 3961,4440 4136,4440 4311,4440 4453,4298 4453,4123 4453,3948 4311,3805 4136,3805 Z"/>
  <text fill="rgb(0,0,0)" stroke="none" x="4007" y="4324">1</text>
  <text fill="rgb(129,138,143)" stroke="none" x="7883" y="5665">2</text>
  <path fill="rgb(129,138,143)" stroke="none" d="M 8011,5145 C 7835,5145 7694,5287 7694,5463 7694,5638 7835,5780 8011,5780 8186,5780 8328,5638 8328,5463 8328,5287 8186,5145 8011,5145 Z"/>
  <path fill="rgb(255,255,255)" stroke="none" d="M 7940,5075 C 7765,5075 7623,5217 7623,5392 7623,5567 7765,5709 7940,5709 8116,5709 8257,5567 8257,5392 8257,5217 8116,5075 7940,5075 Z"/>
  <path stroke-width="35" fill="none" stroke="rgb(255,0,0)" d="M 7940,5075 C 7765,5075 7623,5217 7623,5392 7623,5567 7765,5709 7940,5709 8116,5709 8257,5567 8257,5392 8257,5217 8116,5075 7940,5075 Z"/>
  <text fill="rgb(0,0,0)" stroke="none" x="7811" y="5593">2</text>
  <path fill="rgb(0,0,0)" stroke="rgb(0,0,0)" d="M 9689,5540 L 9689,5540 9674,5477 9674,5480 9649,5421 9619,5365 9585,5309 9545,5254 9501,5199 9453,5145 9401,5093 9344,5042 9285,4992 9221,4944 9154,4897 9083,4852 9010,4808 8934,4767 8855,4728 8774,4691 8690,4656 8604,4623 8517,4593 8428,4566 8337,4541 8245,4520 8152,4502 8058,4486 7963,4474 7867,4465 7772,4459 7676,4458 7580,4458 7484,4462 7388,4466 7293,4472 7199,4480 7105,4489 6922,4512 6833,4526 6745,4541 6659,4557 6575,4575 6494,4593 6415,4613 6338,4633 6265,4655 6194,4678 6127,4701 6063,4726 6003,4751 5946,4776 5894,4803 5846,4830 5802,4857 5763,4884 5766,4881 5719,4935 5693,4912 5740,4858 5740,4858 C 5741,4857 5742,4856 5743,4856 L 5743,4856 5783,4827 5829,4798 5878,4771 5932,4745 5989,4718 6050,4693 6115,4668 6183,4645 6255,4622 6329,4600 6406,4579 6486,4559 6568,4540 6653,4522 6739,4506 6827,4491 6917,4477 7102,4454 7196,4445 7291,4437 7386,4431 7483,4426 7579,4423 7676,4422 7774,4425 7870,4430 7968,4439 8063,4452 8158,4467 8253,4486 8346,4508 8438,4532 8528,4560 8617,4590 8704,4623 8788,4658 8871,4696 8950,4736 9028,4778 9102,4822 9174,4868 9242,4915 9307,4965 9368,5016 9426,5068 9479,5122 9529,5177 9574,5233 9614,5290 9650,5348 9682,5407 9707,5466 9707,5466 C 9707,5466 9707,5467 9707,5468 L 9723,5531 9689,5540 Z M 9804,5483 L 9804,5483 9736,5709 9596,5519 9804,5483 Z M 5815,4948 L 5815,4948 5615,5075 5633,4839 5815,4948 Z"/>
  <path fill="rgb(0,0,0)" stroke="rgb(0,0,0)" d="M 9700,5537 L 9700,5537 9693,5489 9674,5418 9648,5346 9619,5275 9584,5205 9544,5135 9500,5067 9452,5000 9399,4934 9343,4870 9283,4808 9219,4748 9152,4689 9082,4632 9008,4578 8932,4527 8854,4477 8772,4431 8689,4388 8603,4347 8515,4310 8427,4276 8336,4245 8244,4218 8151,4195 8057,4176 7962,4161 7867,4150 7772,4143 7676,4141 7580,4141 7484,4144 7388,4148 7293,4155 7199,4162 7105,4172 6922,4195 6833,4208 6745,4224 6659,4240 6575,4257 6494,4276 6415,4296 6338,4316 6265,4338 6194,4361 6127,4384 6063,4409 6003,4434 5946,4459 5894,4485 5846,4512 5802,4539 5763,4567 5766,4564 5719,4618 5693,4594 5740,4541 5740,4541 C 5741,4540 5742,4539 5743,4538 L 5743,4538 5783,4510 5829,4481 5878,4454 5932,4427 5989,4401 6050,4375 6115,4351 6183,4327 6255,4305 6329,4282 6406,4262 6486,4242 6568,4223 6653,4205 6739,4189 6827,4174 6917,4160 7102,4137 7196,4127 7291,4119 7386,4114 7483,4109 7579,4106 7676,4105 7774,4108 7871,4114 7968,4126 8064,4141 8159,4161 8254,4184 8347,4211 8439,4243 8530,4277 8618,4315 8705,4356 8790,4400 8872,4447 8952,4497 9030,4550 9104,4605 9175,4662 9244,4722 9309,4784 9369,4847 9427,4913 9480,4979 9530,5048 9575,5118 9615,5189 9651,5262 9682,5335 9707,5409 9728,5484 9734,5532 9700,5537 Z M 9818,5487 L 9818,5487 9736,5709 9608,5511 9818,5487 Z M 5815,4630 L 5815,4630 5615,4757 5633,4522 5815,4630 Z"/>
  <path fill="rgb(0,0,0)" stroke="rgb(0,0,0)" d="M 9705,5536 L 9705,5536 9693,5445 9673,5358 9648,5272 9618,5186 9583,5101 9544,5018 9500,4936 9451,4855 9399,4776 9342,4699 9282,4624 9218,4551 9151,4481 9081,4413 9007,4348 8931,4286 8852,4227 8771,4171 8687,4119 8602,4071 8514,4026 8426,3985 8335,3949 8243,3916 8150,3888 8056,3866 7962,3847 7867,3834 7772,3826 7676,3823 7580,3824 7484,3827 7388,3831 7293,3838 7199,3845 7105,3854 6922,3878 6833,3891 6745,3906 6659,3923 6575,3940 6494,3959 6415,3978 6338,3999 6265,4021 6194,4043 6127,4067 6063,4091 6003,4116 5946,4142 5894,4168 5846,4195 5802,4222 5763,4250 5766,4247 5719,4300 5693,4277 5740,4224 5740,4224 C 5741,4223 5742,4221 5743,4221 L 5743,4221 5783,4192 5829,4164 5878,4137 5932,4110 5989,4083 6050,4058 6115,4033 6183,4010 6255,3987 6329,3965 6406,3944 6486,3924 6568,3905 6653,3888 6739,3871 6827,3857 6917,3842 7102,3820 7196,3810 7291,3802 7386,3796 7483,3792 7579,3789 7676,3788 7774,3790 7871,3799 7969,3813 8065,3831 8160,3855 8254,3883 8349,3916 8440,3953 8531,3995 8619,4040 8706,4089 8791,4142 8873,4199 8953,4259 9031,4322 9105,4388 9176,4456 9245,4528 9310,4602 9370,4678 9428,4757 9481,4837 9530,4919 9576,5003 9616,5088 9651,5174 9682,5262 9707,5351 9728,5440 9740,5531 9705,5536 Z M 9825,5490 L 9825,5490 9736,5709 9614,5507 9825,5490 Z M 5815,4313 L 5815,4313 5615,4440 5633,4205 5815,4313 Z"/>
  <path fill="rgb(0,0,0)" stroke="rgb(0,0,0)" d="M 9709,5536 L 9709,5536 9693,5400 9673,5298 9648,5197 9618,5097 9583,4998 9544,4901 9499,4804 9451,4710 9398,4618 9341,4528 9282,4440 9217,4355 9150,4273 9080,4194 9006,4118 8930,4046 8852,3977 8770,3912 8686,3851 8601,3794 8513,3742 8425,3695 8334,3652 8242,3614 8149,3582 8056,3555 7961,3533 7866,3518 7771,3509 7723,3506 7676,3506 7580,3506 7484,3510 7388,3514 7293,3520 7199,3528 7105,3537 6922,3560 6833,3574 6745,3589 6659,3605 6575,3623 6494,3641 6415,3661 6338,3682 6265,3703 6194,3726 6127,3749 6063,3774 6003,3799 5946,3824 5894,3851 5846,3878 5802,3905 5763,3932 5766,3930 5719,3983 5693,3960 5740,3906 5740,3906 C 5741,3905 5742,3904 5743,3904 L 5743,3904 5783,3875 5829,3847 5878,3820 5932,3793 5989,3766 6050,3741 6115,3716 6183,3693 6255,3670 6329,3648 6406,3627 6486,3607 6568,3588 6653,3570 6739,3554 6827,3539 6917,3525 7102,3502 7196,3493 7291,3485 7386,3479 7483,3474 7579,3472 7676,3471 7726,3472 7775,3474 7872,3484 7969,3499 8065,3521 8161,3549 8256,3582 8349,3620 8441,3664 8532,3712 8620,3765 8707,3823 8792,3884 8874,3950 8954,4020 9032,4093 9106,4171 9177,4251 9246,4334 9310,4420 9371,4509 9428,4601 9482,4694 9531,4789 9576,4887 9616,4986 9651,5087 9682,5189 9708,5292 9728,5396 9744,5531 9709,5536 Z M 9830,5492 L 9830,5492 9736,5709 9619,5504 9830,5492 Z M 5815,3996 L 5815,3996 5615,4123 5633,3887 5815,3996 Z"/>
  <text fill="rgb(129,138,143)" stroke="none" x="6298" y="4395">3</text>
  <path fill="rgb(129,138,143)" stroke="none" d="M 6426,3876 C 6250,3876 6109,4018 6109,4193 6109,4368 6250,4510 6426,4510 6601,4510 6743,4368 6743,4193 6743,4018 6601,3876 6426,3876 Z"/>
  <path fill="rgb(255,255,255)" stroke="none" d="M 6355,3805 C 6180,3805 6038,3948 6038,4123 6038,4298 6180,4440 6355,4440 6530,4440 6672,4298 6672,4123 6672,3948 6530,3805 6355,3805 Z"/>
  <path stroke-width="35" fill="none" stroke="rgb(255,0,0)" d="M 6355,3805 C 6180,3805 6038,3948 6038,4123 6038,4298 6180,4440 6355,4440 6530,4440 6672,4298 6672,4123 6672,3948 6530,3805 6355,3805 Z"/>
  <text fill="rgb(0,0,0)" stroke="none" x="6226" y="4324">3</text>
  <text fill="rgb(129,138,143)" stroke="none" x="9468" y="5347">4</text>
  <path fill="rgb(129,138,143)" stroke="none" d="M 9596,4828 C 9421,4828 9279,4970 9279,5145 9279,5320 9421,5463 9596,5463 9771,5463 9913,5320 9913,5145 9913,4970 9771,4828 9596,4828 Z"/>
  <path fill="rgb(255,255,255)" stroke="none" d="M 9525,4757 C 9350,4757 9208,4899 9208,5075 9208,5250 9350,5392 9525,5392 9701,5392 9842,5250 9842,5075 9842,4899 9701,4757 9525,4757 Z"/>
  <path stroke-width="35" fill="none" stroke="rgb(255,0,0)" d="M 9525,4757 C 9350,4757 9208,4899 9208,5075 9208,5250 9350,5392 9525,5392 9701,5392 9842,5250 9842,5075 9842,4899 9701,4757 9525,4757 Z"/>
  <text fill="rgb(0,0,0)" stroke="none" x="9396" y="5275">4</text>
  <text fill="rgb(129,138,143)" stroke="none" x="3445" y="7251">5</text>
  <path fill="rgb(129,138,143)" stroke="none" d="M 3573,6732 C 3397,6732 3256,6874 3256,7049 3256,7224 3397,7367 3573,7367 3748,7367 3890,7224 3890,7049 3890,6874 3748,6732 3573,6732 Z"/>
  <path fill="rgb(255,255,255)" stroke="none" d="M 3502,6661 C 3327,6661 3185,6803 3185,6978 3185,7154 3327,7296 3502,7296 3677,7296 3819,7154 3819,6978 3819,6803 3677,6661 3502,6661 Z"/>
  <path stroke-width="35" fill="none" stroke="rgb(255,0,0)" d="M 3502,6661 C 3327,6661 3185,6803 3185,6978 3185,7154 3327,7296 3502,7296 3677,7296 3819,7154 3819,6978 3819,6803 3677,6661 3502,6661 Z"/>
  <text fill="rgb(0,0,0)" stroke="none" x="3373" y="7179">5</text>
  <text fill="rgb(129,138,143)" stroke="none" x="7883" y="7251">6</text>
  <path fill="rgb(129,138,143)" stroke="none" d="M 8011,6732 C 7835,6732 7694,6874 7694,7049 7694,7224 7835,7367 8011,7367 8186,7367 8328,7224 8328,7049 8328,6874 8186,6732 8011,6732 Z"/>
  <path fill="rgb(255,255,255)" stroke="none" d="M 7940,6661 C 7765,6661 7623,6803 7623,6978 7623,7154 7765,7296 7940,7296 8116,7296 8257,7154 8257,6978 8257,6803 8116,6661 7940,6661 Z"/>
  <path stroke-width="35" fill="none" stroke="rgb(255,0,0)" d="M 7940,6661 C 7765,6661 7623,6803 7623,6978 7623,7154 7765,7296 7940,7296 8116,7296 8257,7154 8257,6978 8257,6803 8116,6661 7940,6661 Z"/>
  <text fill="rgb(0,0,0)" stroke="none" x="7811" y="7179">6</text>
 </g>
</svg>