<?xml version="1.0" encoding="UTF-8"?><!DOCTYPE svg PUBLIC "-//W3C//DTD SVG 1.1//EN" "/SysSchema/SVG11/svg11.dtd">
<svg xmlns:xlink="http://www.w3.org/1999/xlink" xmlns="http://www.w3.org/2000/svg" width="200mm" height="142mm" viewBox="0 0 20000 14200" stroke-width="28.222" stroke-linejoin="round" xml:space="preserve" preserveAspectRatio="xMidYMid meet" zoomAndPan="magnify" version="1.1" contentScriptType="text/ecmascript" contentStyleType="text/css">
 <path fill="rgb(153,204,255)" stroke="none" d="M 10159,9834 L 10159,13325 16499,13325 16499,9834 10159,9834 Z"/>
 <path fill="none" stroke="none" d="M 10159,9834 L 10159,13325 16499,13325 16499,9834 10159,9834 Z"/>
 <path stroke-width="35" fill="none" stroke="rgb(0,0,0)" d="M 10159,9834 L 10159,13325 16499,13325 16499,9834 10159,9834 Z"/>
 <rect fill="rgb(192,192,192)" stroke="none" x="3817" y="947" width="12685" height="8889"/>
 <rect fill="rgb(127,127,127)" stroke="none" x="3819" y="950" width="12681" height="8886"/>
 <rect fill="rgb(192,192,192)" stroke="none" x="3817" y="947" width="12685" height="8889"/>
 <path fill="none" stroke="none" d="M 3819,950 L 3819,9834 16499,9834 16499,950 3819,950 Z"/>
 <path stroke-width="35" fill="none" stroke="rgb(0,0,0)" d="M 3819,950 L 3819,9834 16499,9834 16499,950 3819,950 Z"/>
 <g fill="rgb(129,138,143)" stroke="none" font-family="Arial" font-size="423" font-style="normal" font-weight="400">
  <text x="5224" y="8711">
   <tspan x="5224 5507 5811 5929">PCIe</tspan></text>
  <text fill="rgb(129,138,143)" stroke="none" x="4861" y="9219">
   <tspan x="4861 5212 5449 5681 5918 6146 6383">Manager</tspan></text>
  <path fill="rgb(129,138,143)" stroke="none" d="M 5686,8001 C 4869,8001 4207,8356 4207,8794 4207,9232 4869,9588 5686,9588 6503,9588 7166,9232 7166,8794 7166,8356 6503,8001 5686,8001 Z"/>
  <path fill="rgb(204,255,255)" stroke="none" d="M 5615,7930 C 4799,7930 4136,8286 4136,8724 4136,9162 4799,9517 5615,9517 6433,9517 7095,9162 7095,8724 7095,8286 6433,7930 5615,7930 Z"/>
  <path stroke-width="26" fill="none" stroke="rgb(0,0,0)" d="M 5615,7930 C 4799,7930 4136,8286 4136,8724 4136,9162 4799,9517 5615,9517 6433,9517 7095,9162 7095,8724 7095,8286 6433,7930 5615,7930 Z"/>
  <text fill="rgb(0,0,0)" stroke="none" x="5153" y="8639">
   <tspan x="5153 5436 5740 5858">PCIe</tspan></text>
  <text fill="rgb(0,0,0)" stroke="none" x="4789" y="9147">
   <tspan x="4789 5140 5377 5609 5846 6074 6311">Manager</tspan></text>
  <text fill="rgb(129,138,143)" stroke="none" x="5199" y="4903">
   <tspan x="5199 5503 5740 5854 6091">Datal</tspan></text>
  <text fill="rgb(129,138,143)" stroke="none" x="4861" y="5411">
   <tspan x="4861 5212 5449 5681 5918 6146 6383">Manager</tspan></text>
  <path fill="rgb(129,138,143)" stroke="none" d="M 5686,4193 C 4869,4193 4207,4548 4207,4987 4207,5425 4869,5780 5686,5780 6503,5780 7166,5425 7166,4987 7166,4548 6503,4193 5686,4193 Z"/>
  <path fill="rgb(204,255,255)" stroke="none" d="M 5615,4123 C 4799,4123 4136,4478 4136,4916 4136,5354 4799,5709 5615,5709 6433,5709 7095,5354 7095,4916 7095,4478 6433,4123 5615,4123 Z"/>
  <path stroke-width="26" fill="none" stroke="rgb(0,0,0)" d="M 5615,4123 C 4799,4123 4136,4478 4136,4916 4136,5354 4799,5709 5615,5709 6433,5709 7095,5354 7095,4916 7095,4478 6433,4123 5615,4123 Z"/>
  <text fill="rgb(0,0,0)" stroke="none" x="5127" y="4831">
   <tspan x="5127 5431 5668 5782 6019">Datal</tspan></text>
  <text fill="rgb(0,0,0)" stroke="none" x="4789" y="5339">
   <tspan x="4789 5140 5377 5609 5846 6074 6311">Manager</tspan></text>
  <text fill="rgb(129,138,143)" stroke="none" x="5199" y="5220">
   <tspan x="5199 5503 5740 5854 6091">Datal</tspan></text>
  <text fill="rgb(129,138,143)" stroke="none" x="4861" y="5728">
   <tspan x="4861 5212 5449 5681 5918 6146 6383">Manager</tspan></text>
  <path fill="rgb(129,138,143)" stroke="none" d="M 5686,4511 C 4869,4511 4207,4866 4207,5304 4207,5742 4869,6097 5686,6097 6503,6097 7166,5742 7166,5304 7166,4866 6503,4511 5686,4511 Z"/>
  <path fill="rgb(204,255,255)" stroke="none" d="M 5615,4440 C 4799,4440 4136,4795 4136,5233 4136,5672 4799,6026 5615,6026 6433,6026 7095,5672 7095,5233 7095,4795 6433,4440 5615,4440 Z"/>
  <path stroke-width="26" fill="none" stroke="rgb(0,0,0)" d="M 5615,4440 C 4799,4440 4136,4795 4136,5233 4136,5672 4799,6026 5615,6026 6433,6026 7095,5672 7095,5233 7095,4795 6433,4440 5615,4440 Z"/>
  <text fill="rgb(0,0,0)" stroke="none" x="5127" y="5149">
   <tspan x="5127 5431 5668 5782 6019">Datal</tspan></text>
  <text fill="rgb(0,0,0)" stroke="none" x="4789" y="5656">
   <tspan x="4789 5140 5377 5609 5846 6074 6311">Manager</tspan></text>
  <text fill="rgb(129,138,143)" stroke="none" x="5199" y="5538">
   <tspan x="5199 5503 5740 5854 6091">Datal</tspan></text>
  <text fill="rgb(129,138,143)" stroke="none" x="4861" y="6045">
   <tspan x="4861 5212 5449 5681 5918 6146 6383">Manager</tspan></text>
  <path fill="rgb(129,138,143)" stroke="none" d="M 5686,4828 C 4869,4828 4207,5183 4207,5621 4207,6059 4869,6415 5686,6415 6503,6415 7166,6059 7166,5621 7166,5183 6503,4828 5686,4828 Z"/>
  <path fill="rgb(204,255,255)" stroke="none" d="M 5615,4757 C 4799,4757 4136,5113 4136,5550 4136,5989 4799,6344 5615,6344 6433,6344 7095,5989 7095,5550 7095,5113 6433,4757 5615,4757 Z"/>
  <path stroke-width="26" fill="none" stroke="rgb(0,0,0)" d="M 5615,4757 C 4799,4757 4136,5113 4136,5550 4136,5989 4799,6344 5615,6344 6433,6344 7095,5989 7095,5550 7095,5113 6433,4757 5615,4757 Z"/>
  <text fill="rgb(0,0,0)" stroke="none" x="5127" y="5466">
   <tspan x="5127 5431 5668 5782 6019">Datal</tspan></text>
  <text fill="rgb(0,0,0)" stroke="none" x="4789" y="5974">
   <tspan x="4789 5140 5377 5609 5846 6074 6311">Manager</tspan></text>
  <text fill="rgb(129,138,143)" stroke="none" x="5246" y="5855">
   <tspan x="5246 5550 5787 5901">Data</tspan></text>
  <text fill="rgb(129,138,143)" stroke="none" x="4861" y="6363">
   <tspan x="4861 5212 5449 5681 5918 6146 6383">Manager</tspan></text>
  <path fill="rgb(129,138,143)" stroke="none" d="M 5686,5145 C 4869,5145 4207,5500 4207,5939 4207,6377 4869,6732 5686,6732 6503,6732 7166,6377 7166,5939 7166,5500 6503,5145 5686,5145 Z"/>
  <path fill="rgb(204,255,255)" stroke="none" d="M 5615,5075 C 4799,5075 4136,5430 4136,5868 4136,6306 4799,6661 5615,6661 6433,6661 7095,6306 7095,5868 7095,5430 6433,5075 5615,5075 Z"/>
  <path stroke-width="26" fill="none" stroke="rgb(0,0,0)" d="M 5615,5075 C 4799,5075 4136,5430 4136,5868 4136,6306 4799,6661 5615,6661 6433,6661 7095,6306 7095,5868 7095,5430 6433,5075 5615,5075 Z"/>
  <text fill="rgb(0,0,0)" stroke="none" x="5174" y="5783">
   <tspan x="5174 5478 5715 5829">Data</tspan></text>
  <text fill="rgb(0,0,0)" stroke="none" x="4789" y="6291">
   <tspan x="4789 5140 5377 5609 5846 6074 6311">Manager</tspan></text>
  <text fill="rgb(129,138,143)" stroke="none" x="5199" y="4903">
   <tspan x="5199 5503 5740 5854 6091">Datal</tspan></text>
  <text fill="rgb(129,138,143)" stroke="none" x="4861" y="5411">
   <tspan x="4861 5212 5449 5681 5918 6146 6383">Manager</tspan></text>
  <path fill="rgb(129,138,143)" stroke="none" d="M 5686,4193 C 4869,4193 4207,4548 4207,4987 4207,5425 4869,5780 5686,5780 6503,5780 7166,5425 7166,4987 7166,4548 6503,4193 5686,4193 Z"/>
  <path fill="rgb(204,255,255)" stroke="none" d="M 5615,4123 C 4799,4123 4136,4478 4136,4916 4136,5354 4799,5709 5615,5709 6433,5709 7095,5354 7095,4916 7095,4478 6433,4123 5615,4123 Z"/>
  <path stroke-width="26" fill="none" stroke="rgb(0,0,0)" d="M 5615,4123 C 4799,4123 4136,4478 4136,4916 4136,5354 4799,5709 5615,5709 6433,5709 7095,5354 7095,4916 7095,4478 6433,4123 5615,4123 Z"/>
  <text fill="rgb(0,0,0)" stroke="none" x="5127" y="4831">
   <tspan x="5127 5431 5668 5782 6019">Datal</tspan></text>
  <text fill="rgb(0,0,0)" stroke="none" x="4789" y="5339">
   <tspan x="4789 5140 5377 5609 5846 6074 6311">Manager</tspan></text>
  <text fill="rgb(129,138,143)" stroke="none" x="5199" y="5220">
   <tspan x="5199 5503 5740 5854 6091">Datal</tspan></text>
  <text fill="rgb(129,138,143)" stroke="none" x="4861" y="5728">
   <tspan x="4861 5212 5449 5681 5918 6146 6383">Manager</tspan></text>
  <path fill="rgb(129,138,143)" stroke="none" d="M 5686,4511 C 4869,4511 4207,4866 4207,5304 4207,5742 4869,6097 5686,6097 6503,6097 7166,5742 7166,5304 7166,4866 6503,4511 5686,4511 Z"/>
  <path fill="rgb(204,255,255)" stroke="none" d="M 5615,4440 C 4799,4440 4136,4795 4136,5233 4136,5672 4799,6026 5615,6026 6433,6026 7095,5672 7095,5233 7095,4795 6433,4440 5615,4440 Z"/>
  <path stroke-width="26" fill="none" stroke="rgb(0,0,0)" d="M 5615,4440 C 4799,4440 4136,4795 4136,5233 4136,5672 4799,6026 5615,6026 6433,6026 7095,5672 7095,5233 7095,4795 6433,4440 5615,4440 Z"/>
  <text fill="rgb(0,0,0)" stroke="none" x="5127" y="5149">
   <tspan x="5127 5431 5668 5782 6019">Datal</tspan></text>
  <text fill="rgb(0,0,0)" stroke="none" x="4789" y="5656">
   <tspan x="4789 5140 5377 5609 5846 6074 6311">Manager</tspan></text>
  <text fill="rgb(129,138,143)" stroke="none" x="5199" y="5538">
   <tspan x="5199 5503 5740 5854 6091">Datal</tspan></text>
  <text fill="rgb(129,138,143)" stroke="none" x="4861" y="6045">
   <tspan x="4861 5212 5449 5681 5918 6146 6383">Manager</tspan></text>
  <path fill="rgb(129,138,143)" stroke="none" d="M 5686,4828 C 4869,4828 4207,5183 4207,5621 4207,6059 4869,6415 5686,6415 6503,6415 7166,6059 7166,5621 7166,5183 6503,4828 5686,4828 Z"/>
  <path fill="rgb(204,255,255)" stroke="none" d="M 5615,4757 C 4799,4757 4136,5113 4136,5550 4136,5989 4799,6344 5615,6344 6433,6344 7095,5989 7095,5550 7095,5113 6433,4757 5615,4757 Z"/>
  <path stroke-width="26" fill="none" stroke="rgb(0,0,0)" d="M 5615,4757 C 4799,4757 4136,5113 4136,5550 4136,5989 4799,6344 5615,6344 6433,6344 7095,5989 7095,5550 7095,5113 6433,4757 5615,4757 Z"/>
  <text fill="rgb(0,0,0)" stroke="none" x="5127" y="5466">
   <tspan x="5127 5431 5668 5782 6019">Datal</tspan></text>
  <text fill="rgb(0,0,0)" stroke="none" x="4789" y="5974">
   <tspan x="4789 5140 5377 5609 5846 6074 6311">Manager</tspan></text>
  <text fill="rgb(129,138,143)" stroke="none" x="5246" y="5855">
   <tspan x="5246 5550 5787 5901">Data</tspan></text>
  <text fill="rgb(129,138,143)" stroke="none" x="4861" y="6363">
   <tspan x="4861 5212 5449 5681 5918 6146 6383">Manager</tspan></text>
  <path fill="rgb(129,138,143)" stroke="none" d="M 5686,5145 C 4869,5145 4207,5500 4207,5939 4207,6377 4869,6732 5686,6732 6503,6732 7166,6377 7166,5939 7166,5500 6503,5145 5686,5145 Z"/>
  <path fill="rgb(204,255,255)" stroke="none" d="M 5615,5075 C 4799,5075 4136,5430 4136,5868 4136,6306 4799,6661 5615,6661 6433,6661 7095,6306 7095,5868 7095,5430 6433,5075 5615,5075 Z"/>
  <path stroke-width="26" fill="none" stroke="rgb(0,0,0)" d="M 5615,5075 C 4799,5075 4136,5430 4136,5868 4136,6306 4799,6661 5615,6661 6433,6661 7095,6306 7095,5868 7095,5430 6433,5075 5615,5075 Z"/>
  <text fill="rgb(0,0,0)" stroke="none" x="5174" y="5783">
   <tspan x="5174 5478 5715 5829">Data</tspan></text>
  <text fill="rgb(0,0,0)" stroke="none" x="4789" y="6291">
   <tspan x="4789 5140 5377 5609 5846 6074 6311">Manager</tspan></text>
  <path fill="rgb(153,204,255)" stroke="none" d="M 16499,950 L 16499,9834 19986,9834 19986,950 16499,950 Z"/>
  <path fill="none" stroke="none" d="M 16499,950 L 16499,9834 19986,9834 19986,950 16499,950 Z"/>
  <path stroke-width="35" fill="none" stroke="rgb(0,0,0)" d="M 16499,950 L 16499,9834 19986,9834 19986,950 16499,950 Z"/>
  <path fill="rgb(153,204,255)" stroke="none" d="M 15,950 L 15,9834 3819,9834 3819,950 15,950 Z"/>
  <path fill="none" stroke="none" d="M 15,950 L 15,9834 3819,9834 3819,950 15,950 Z"/>
  <path stroke-width="35" fill="none" stroke="rgb(0,0,0)" d="M 15,950 L 15,9834 3819,9834 3819,950 15,950 Z"/>
  <text fill="rgb(129,138,143)" stroke="none" x="474" y="2047">i</text>
  <text fill="rgb(129,138,143)" stroke="none" x="567" y="2047">-</text>
  <text fill="rgb(129,138,143)" stroke="none" x="706" y="2047">
   <tspan x="706 1010 1361 1644 1762 1880">DMA, e</tspan></text>
  <text fill="rgb(129,138,143)" stroke="none" x="2118" y="2047">-</text>
  <text fill="rgb(129,138,143)" stroke="none" x="2257" y="2047">
   <tspan x="2257 2561 2912">DMA</tspan></text>
  <text fill="rgb(129,138,143)" stroke="none" x="1006" y="2555">
   <tspan x="1006 1357 1594 1826 2063 2291 2528">Manager</tspan></text>
  <path fill="rgb(129,138,143)" stroke="none" d="M 1829,1337 C 1041,1337 402,1693 402,2131 402,2569 1041,2924 1829,2924 2617,2924 3256,2569 3256,2131 3256,1693 2617,1337 1829,1337 Z"/>
  <path fill="rgb(255,204,153)" stroke="none" d="M 1758,1267 C 971,1267 332,1622 332,2060 332,2498 971,2853 1758,2853 2546,2853 3185,2498 3185,2060 3185,1622 2546,1267 1758,1267 Z"/>
  <path stroke-width="26" fill="none" stroke="rgb(0,0,0)" d="M 1758,1267 C 971,1267 332,1622 332,2060 332,2498 971,2853 1758,2853 2546,2853 3185,2498 3185,2060 3185,1622 2546,1267 1758,1267 Z"/>
  <text fill="rgb(0,0,0)" stroke="none" x="402" y="1975">i</text>
  <text fill="rgb(0,0,0)" stroke="none" x="495" y="1975">-</text>
  <text fill="rgb(0,0,0)" stroke="none" x="634" y="1975">
   <tspan x="634 938 1289 1572 1690 1808">DMA, e</tspan></text>
  <text fill="rgb(0,0,0)" stroke="none" x="2046" y="1975">-</text>
  <text fill="rgb(0,0,0)" stroke="none" x="2185" y="1975">
   <tspan x="2185 2489 2840">DMA</tspan></text>
  <text fill="rgb(0,0,0)" stroke="none" x="934" y="2483">
   <tspan x="934 1285 1522 1754 1991 2219 2456">Manager</tspan></text>
  <text fill="rgb(129,138,143)" stroke="none" x="803" y="4269">
   <tspan x="803 1086 1318 1550 1905 1998 2209 2420 2509 2746">Submission</tspan></text>
  <text fill="rgb(129,138,143)" stroke="none" x="1057" y="4776">
   <tspan x="1057 1408 1645 1877 2114 2342 2579">Manager</tspan></text>
  <path fill="rgb(129,138,143)" stroke="none" d="M 1882,3559 C 1065,3559 403,3914 403,4352 403,4790 1065,5145 1882,5145 2699,5145 3361,4790 3361,4352 3361,3914 2699,3559 1882,3559 Z"/>
  <path fill="rgb(255,204,153)" stroke="none" d="M 1811,3488 C 994,3488 332,3843 332,4281 332,4720 994,5075 1811,5075 2629,5075 3291,4720 3291,4281 3291,3843 2629,3488 1811,3488 Z"/>
  <path stroke-width="26" fill="none" stroke="rgb(0,0,0)" d="M 1811,3488 C 994,3488 332,3843 332,4281 332,4720 994,5075 1811,5075 2629,5075 3291,4720 3291,4281 3291,3843 2629,3488 1811,3488 Z"/>
  <text fill="rgb(0,0,0)" stroke="none" x="731" y="4197">
   <tspan x="731 1014 1246 1478 1833 1926 2137 2348 2437 2674">Submission</tspan></text>
  <text fill="rgb(0,0,0)" stroke="none" x="985" y="4704">
   <tspan x="985 1336 1573 1805 2042 2270 2507">Manager</tspan></text>
  <text fill="rgb(129,138,143)" stroke="none" x="824" y="6490">
   <tspan x="824 1128 1360 1715 1947 2040 2277 2395 2484 2716">Completion</tspan></text>
  <text fill="rgb(129,138,143)" stroke="none" x="1057" y="6997">
   <tspan x="1057 1408 1645 1877 2114 2342 2579">Manager</tspan></text>
  <path fill="rgb(129,138,143)" stroke="none" d="M 1882,5780 C 1065,5780 403,6135 403,6573 403,7011 1065,7367 1882,7367 2699,7367 3361,7011 3361,6573 3361,6135 2699,5780 1882,5780 Z"/>
  <path fill="rgb(255,204,153)" stroke="none" d="M 1811,5709 C 994,5709 332,6065 332,6502 332,6941 994,7296 1811,7296 2629,7296 3291,6941 3291,6502 3291,6065 2629,5709 1811,5709 Z"/>
  <path stroke-width="26" fill="none" stroke="rgb(0,0,0)" d="M 1811,5709 C 994,5709 332,6065 332,6502 332,6941 994,7296 1811,7296 2629,7296 3291,6941 3291,6502 3291,6065 2629,5709 1811,5709 Z"/>
  <text fill="rgb(0,0,0)" stroke="none" x="753" y="6418">
   <tspan x="753 1057 1289 1644 1876 1969 2206 2324 2413 2645">Completion</tspan></text>
  <text fill="rgb(0,0,0)" stroke="none" x="985" y="6925">
   <tspan x="985 1336 1573 1805 2042 2270 2507">Manager</tspan></text>
  <text fill="rgb(129,138,143)" stroke="none" x="1454" y="8711">
   <tspan x="1454 1758 1995 2206">Host</tspan></text>
  <text fill="rgb(129,138,143)" stroke="none" x="1057" y="9219">
   <tspan x="1057 1408 1645 1877 2114 2342 2579">Manager</tspan></text>
  <path fill="rgb(129,138,143)" stroke="none" d="M 1882,8001 C 1065,8001 403,8356 403,8794 403,9232 1065,9588 1882,9588 2699,9588 3361,9232 3361,8794 3361,8356 2699,8001 1882,8001 Z"/>
  <path fill="rgb(255,204,153)" stroke="none" d="M 1811,7930 C 994,7930 332,8286 332,8724 332,9162 994,9517 1811,9517 2629,9517 3291,9162 3291,8724 3291,8286 2629,7930 1811,7930 Z"/>
  <path stroke-width="26" fill="none" stroke="rgb(0,0,0)" d="M 1811,7930 C 994,7930 332,8286 332,8724 332,9162 994,9517 1811,9517 2629,9517 3291,9162 3291,8724 3291,8286 2629,7930 1811,7930 Z"/>
  <text fill="rgb(0,0,0)" stroke="none" x="1382" y="8639">
   <tspan x="1382 1686 1923 2134">Host</tspan></text>
  <text fill="rgb(0,0,0)" stroke="none" x="985" y="9147">
   <tspan x="985 1336 1573 1805 2042 2270 2507">Manager</tspan></text>
 </g>
 <g fill="rgb(0,0,0)" stroke="none" font-family="Tahoma" font-size="495" font-style="normal" font-weight="400">
  <text x="8196" y="617">
   <tspan x="8196 8467 8645 8916 9144 9406 9626 9846 10117 10290 10446 10742 11008 11422 11697 11811 12069">Processor Complex</tspan></text>
  <text fill="rgb(0,0,0)" stroke="none" x="905" y="617">
   <tspan x="905 1239 1510 1730 1895 2051 2233 2423">Host I/F</tspan></text>
  <text fill="rgb(0,0,0)" stroke="none" x="17389" y="617">
   <tspan x="17389 17647 17761 18019 18239 18514 18670 18856 19042">Flash I/F</tspan></text>
 </g>
 <g fill="rgb(129,138,143)" stroke="none" font-family="Arial" font-size="423" font-style="normal" font-weight="400">
  <text x="17854" y="5220">
   <tspan x="17854 18112 18205 18442 18653">Flash</tspan></text>
  <text fill="rgb(129,138,143)" stroke="none" x="17550" y="5728">
   <tspan x="17550 17668 17905 18023 18260 18395 18513 18750 18961">Interface</tspan></text>
  <path fill="rgb(129,138,143)" stroke="none" d="M 18366,4511 C 17550,4511 16887,4866 16887,5304 16887,5742 17550,6097 18366,6097 19183,6097 19846,5742 19846,5304 19846,4866 19183,4511 18366,4511 Z"/>
  <path fill="rgb(255,204,153)" stroke="none" d="M 18296,4440 C 17479,4440 16816,4795 16816,5233 16816,5672 17479,6026 18296,6026 19114,6026 19775,5672 19775,5233 19775,4795 19114,4440 18296,4440 Z"/>
  <path stroke-width="26" fill="none" stroke="rgb(0,0,0)" d="M 18296,4440 C 17479,4440 16816,4795 16816,5233 16816,5672 17479,6026 18296,6026 19114,6026 19775,5672 19775,5233 19775,4795 19114,4440 18296,4440 Z"/>
  <text fill="rgb(0,0,0)" stroke="none" x="17782" y="5149">
   <tspan x="17782 18040 18133 18370 18581">Flash</tspan></text>
  <text fill="rgb(0,0,0)" stroke="none" x="17478" y="5656">
   <tspan x="17478 17596 17833 17951 18188 18323 18441 18678 18889">Interface</tspan></text>
  <path fill="rgb(153,204,255)" stroke="none" d="M 3819,9834 L 3819,13325 10159,13325 10159,9834 3819,9834 Z"/>
  <path fill="none" stroke="none" d="M 3819,9834 L 3819,13325 10159,13325 10159,9834 3819,9834 Z"/>
  <path stroke-width="35" fill="none" stroke="rgb(0,0,0)" d="M 3819,9834 L 3819,13325 10159,13325 10159,9834 3819,9834 Z"/>
  <text fill="rgb(129,138,143)" stroke="none" x="5119" y="11186">
   <tspan x="5119 5423 5727 6031">DDR3</tspan></text>
  <path fill="rgb(129,138,143)" stroke="none" d="M 5686,10222 C 4869,10222 4207,10577 4207,11016 4207,11453 4869,11809 5686,11809 6503,11809 7166,11453 7166,11016 7166,10577 6503,10222 5686,10222 Z"/>
  <path fill="rgb(255,204,153)" stroke="none" d="M 5615,10151 C 4799,10151 4136,10507 4136,10945 4136,11383 4799,11738 5615,11738 6433,11738 7095,11383 7095,10945 7095,10507 6433,10151 5615,10151 Z"/>
  <path stroke-width="26" fill="none" stroke="rgb(0,0,0)" d="M 5615,10151 C 4799,10151 4136,10507 4136,10945 4136,11383 4799,11738 5615,11738 6433,11738 7095,11383 7095,10945 7095,10507 6433,10151 5615,10151 Z"/>
  <text fill="rgb(0,0,0)" stroke="none" x="5047" y="11114">
   <tspan x="5047 5351 5655 5959">DDR3</tspan></text>
 </g>
 <g fill="rgb(0,0,0)" stroke="none" font-family="Tahoma" font-size="495" font-style="normal" font-weight="400">
  <text x="5026" y="13944">
   <tspan x="5026 5406 5668 6078 6349 6527 6772 6928 7220 7491 7762 7927 8105 8376 8490 8600 8862">Memory Controller</tspan></text>
 </g>
 <g fill="rgb(129,138,143)" stroke="none" font-family="Arial" font-size="423" font-style="normal" font-weight="400">
  <text x="4967" y="2047">
   <tspan x="4967 5199 5436 5647 5858 5947 6184">Locking</tspan></text>
  <text fill="rgb(129,138,143)" stroke="none" x="4861" y="2555">
   <tspan x="4861 5212 5449 5681 5918 6146 6383">Manager</tspan></text>
  <path fill="rgb(129,138,143)" stroke="none" d="M 5686,1338 C 4869,1338 4207,1693 4207,2131 4207,2569 4869,2924 5686,2924 6503,2924 7166,2569 7166,2131 7166,1693 6503,1338 5686,1338 Z"/>
  <path fill="rgb(204,255,255)" stroke="none" d="M 5615,1267 C 4799,1267 4136,1622 4136,2060 4136,2498 4799,2853 5615,2853 6433,2853 7095,2498 7095,2060 7095,1622 6433,1267 5615,1267 Z"/>
  <path stroke-width="26" fill="none" stroke="rgb(0,0,0)" d="M 5615,1267 C 4799,1267 4136,1622 4136,2060 4136,2498 4799,2853 5615,2853 6433,2853 7095,2498 7095,2060 7095,1622 6433,1267 5615,1267 Z"/>
  <text fill="rgb(0,0,0)" stroke="none" x="4895" y="1975">
   <tspan x="4895 5127 5364 5575 5786 5875 6112">Locking</tspan></text>
  <text fill="rgb(0,0,0)" stroke="none" x="4789" y="2483">
   <tspan x="4789 5140 5377 5609 5846 6074 6311">Manager</tspan></text>
  <text fill="rgb(129,138,143)" stroke="none" x="8716" y="6490">
   <tspan x="8716 8999 9231 9586 9675 9912">Admin </tspan></text>
  <text fill="rgb(129,138,143)" stroke="none" x="10030" y="6490">
   <tspan x="10030 10334 10685">Cmd</tspan></text>
  <text fill="rgb(129,138,143)" stroke="none" x="8982" y="6997">
   <tspan x="8982 9333 9570 9802 10039 10267 10504">Manager</tspan></text>
  <path fill="rgb(129,138,143)" stroke="none" d="M 9807,5780 C 8990,5780 8328,6135 8328,6573 8328,7011 8990,7367 9807,7367 10624,7367 11287,7011 11287,6573 11287,6135 10624,5780 9807,5780 Z"/>
  <path fill="rgb(204,255,255)" stroke="none" d="M 9736,5709 C 8920,5709 8257,6065 8257,6502 8257,6941 8920,7296 9736,7296 10554,7296 11216,6941 11216,6502 11216,6065 10554,5709 9736,5709 Z"/>
  <path stroke-width="26" fill="none" stroke="rgb(0,0,0)" d="M 9736,5709 C 8920,5709 8257,6065 8257,6502 8257,6941 8920,7296 9736,7296 10554,7296 11216,6941 11216,6502 11216,6065 10554,5709 9736,5709 Z"/>
  <text fill="rgb(0,0,0)" stroke="none" x="8644" y="6418">
   <tspan x="8644 8927 9159 9514 9603 9840">Admin </tspan></text>
  <text fill="rgb(0,0,0)" stroke="none" x="9958" y="6418">
   <tspan x="9958 10262 10613">Cmd</tspan></text>
  <text fill="rgb(0,0,0)" stroke="none" x="8910" y="6925">
   <tspan x="8910 9261 9498 9730 9967 10195 10432">Manager</tspan></text>
  <rect fill="rgb(204,255,204)" stroke="none" x="12376" y="1265" width="3808" height="8254"/>
  <rect fill="rgb(127,127,127)" stroke="none" x="12378" y="1267" width="3805" height="8251"/>
  <rect fill="rgb(204,255,204)" stroke="none" x="12376" y="1265" width="3808" height="8254"/>
  <path fill="rgb(0,0,0)" stroke="rgb(0,0,0)" d="M 16182,1285 L 15901,1285 15901,1250 16182,1250 16182,1285 Z M 15796,1285 L 15513,1285 15513,1250 15796,1250 15796,1285 Z M 15408,1285 L 15126,1285 15126,1250 15408,1250 15408,1285 Z M 15020,1285 L 14739,1285 14739,1250 15020,1250 15020,1285 Z M 14633,1285 L 14351,1285 14351,1250 14633,1250 14633,1285 Z M 14245,1285 L 13963,1285 13963,1250 14245,1250 14245,1285 Z M 13858,1285 L 13576,1285 13576,1250 13858,1250 13858,1285 Z M 13471,1285 L 13189,1285 13189,1250 13471,1250 13471,1285 Z M 13083,1285 L 12801,1285 12801,1250 13083,1250 13083,1285 Z M 12695,1285 L 12414,1285 12414,1250 12695,1250 12695,1285 Z M 12396,1338 L 12396,1620 12361,1620 12361,1338 12396,1338 Z M 12396,1726 L 12396,2007 12361,2007 12361,1726 12396,1726 Z M 12396,2113 L 12396,2395 12361,2395 12361,2113 12396,2113 Z M 12396,2501 L 12396,2784 12361,2784 12361,2501 12396,2501 Z M 12396,2889 L 12396,3171 12361,3171 12361,2889 12396,2889 Z M 12396,3276 L 12396,3559 12361,3559 12361,3276 12396,3276 Z M 12396,3665 L 12396,3947 12361,3947 12361,3665 12396,3665 Z M 12396,4053 L 12396,4334 12361,4334 12361,4053 12396,4053 Z M 12396,4440 L 12396,4722 12361,4722 12361,4440 12396,4440 Z M 12396,4828 L 12396,5110 12361,5110 12361,4828 12396,4828 Z M 12396,5216 L 12396,5498 12361,5498 12361,5216 12396,5216 Z M 12396,5603 L 12396,5886 12361,5886 12361,5603 12396,5603 Z M 12396,5992 L 12396,6274 12361,6274 12361,5992 12396,5992 Z M 12396,6380 L 12396,6661 12361,6661 12361,6380 12396,6380 Z M 12396,6767 L 12396,7049 12361,7049 12361,6767 12396,6767 Z M 12396,7155 L 12396,7437 12361,7437 12361,7155 12396,7155 Z M 12396,7543 L 12396,7825 12361,7825 12361,7543 12396,7543 Z M 12396,7930 L 12396,8213 12361,8213 12361,7930 12396,7930 Z M 12396,8318 L 12396,8601 12361,8601 12361,8318 12396,8318 Z M 12396,8707 L 12396,8988 12361,8988 12361,8707 12396,8707 Z M 12396,9094 L 12396,9376 12361,9376 12361,9094 12396,9094 Z M 12396,9482 L 12396,9517 12378,9500 12625,9500 12625,9535 12361,9535 12361,9482 12396,9482 Z M 12731,9500 L 13012,9500 13012,9535 12731,9535 12731,9500 Z M 13118,9500 L 13400,9500 13400,9535 13118,9535 13118,9500 Z M 13506,9500 L 13788,9500 13788,9535 13506,9535 13506,9500 Z M 13894,9500 L 14175,9500 14175,9535 13894,9535 13894,9500 Z M 14280,9500 L 14562,9500 14562,9535 14280,9535 14280,9500 Z M 14668,9500 L 14950,9500 14950,9535 14668,9535 14668,9500 Z M 15056,9500 L 15337,9500 15337,9535 15056,9535 15056,9500 Z M 15443,9500 L 15725,9500 15725,9535 15443,9535 15443,9500 Z M 15830,9500 L 16113,9500 16113,9535 15830,9535 15830,9500 Z M 16165,9482 L 16165,9200 16200,9200 16200,9482 16165,9482 Z M 16165,9094 L 16165,8812 16200,8812 16200,9094 16165,9094 Z M 16165,8707 L 16165,8424 16200,8424 16200,8707 16165,8707 Z M 16165,8318 L 16165,8036 16200,8036 16200,8318 16165,8318 Z M 16165,7930 L 16165,7649 16200,7649 16200,7930 16165,7930 Z M 16165,7543 L 16165,7261 16200,7261 16200,7543 16165,7543 Z M 16165,7155 L 16165,6873 16200,6873 16200,7155 16165,7155 Z M 16165,6767 L 16165,6485 16200,6485 16200,6767 16165,6767 Z M 16165,6380 L 16165,6097 16200,6097 16200,6380 16165,6380 Z M 16165,5992 L 16165,5709 16200,5709 16200,5992 16165,5992 Z M 16165,5603 L 16165,5322 16200,5322 16200,5603 16165,5603 Z M 16165,5216 L 16165,4934 16200,4934 16200,5216 16165,5216 Z M 16165,4828 L 16165,4546 16200,4546 16200,4828 16165,4828 Z M 16165,4440 L 16165,4159 16200,4159 16200,4440 16165,4440 Z M 16165,4053 L 16165,3770 16200,3770 16200,4053 16165,4053 Z M 16165,3665 L 16165,3382 16200,3382 16200,3665 16165,3665 Z M 16165,3276 L 16165,2995 16200,2995 16200,3276 16165,3276 Z M 16165,2889 L 16165,2607 16200,2607 16200,2889 16165,2889 Z M 16165,2501 L 16165,2219 16200,2219 16200,2501 16165,2501 Z M 16165,2113 L 16165,1832 16200,1832 16200,2113 16165,2113 Z M 16165,1726 L 16165,1443 16200,1443 16200,1726 16165,1726 Z M 16165,1338 L 16165,1267 16200,1267 16200,1338 16165,1338 Z"/>
 </g>
 <g fill="rgb(0,0,0)" stroke="none" font-family="Tahoma" font-size="495" font-style="normal" font-weight="400">
  <text x="13885" y="5589">
   <tspan x="13885 14143 14430">FTL</tspan></text>
 </g>
 <g fill="rgb(129,138,143)" stroke="none" font-family="Arial" font-size="423" font-style="normal" font-weight="400">
  <text x="11573" y="10932">
   <tspan x="11573 11852 12182">XOR</tspan></text>
  <text fill="rgb(129,138,143)" stroke="none" x="11379" y="11440">
   <tspan x="11379 11662 11899 12131 12220 12452">Engine</tspan></text>
  <path fill="rgb(129,138,143)" stroke="none" d="M 12026,10222 C 11209,10222 10547,10577 10547,11016 10547,11453 11209,11809 12026,11809 12843,11809 13506,11453 13506,11016 13506,10577 12843,10222 12026,10222 Z"/>
  <path fill="rgb(255,204,153)" stroke="none" d="M 11956,10151 C 11139,10151 10476,10507 10476,10945 10476,11383 11139,11738 11956,11738 12773,11738 13435,11383 13435,10945 13435,10507 12773,10151 11956,10151 Z"/>
  <path stroke-width="26" fill="none" stroke="rgb(0,0,0)" d="M 11956,10151 C 11139,10151 10476,10507 10476,10945 10476,11383 11139,11738 11956,11738 12773,11738 13435,11383 13435,10945 13435,10507 12773,10151 11956,10151 Z"/>
  <text fill="rgb(0,0,0)" stroke="none" x="11501" y="10860">
   <tspan x="11501 11780 12110">XOR</tspan></text>
  <text fill="rgb(0,0,0)" stroke="none" x="11307" y="11368">
   <tspan x="11307 11590 11827 12059 12148 12380">Engine</tspan></text>
  <text fill="rgb(129,138,143)" stroke="none" x="12972" y="12201">
   <tspan x="12972 13209 13302 13513">List</tspan></text>
  <text fill="rgb(129,138,143)" stroke="none" x="12647" y="12709">
   <tspan x="12647 12930 13167 13399 13488 13720">Engine</tspan></text>
  <path fill="rgb(129,138,143)" stroke="none" d="M 13294,11492 C 12477,11492 11815,11846 11815,12285 11815,12723 12477,13078 13294,13078 14111,13078 14774,12723 14774,12285 14774,11846 14111,11492 13294,11492 Z"/>
  <path fill="rgb(255,204,153)" stroke="none" d="M 13224,11421 C 12407,11421 11744,11776 11744,12214 11744,12652 12407,13007 13224,13007 14041,13007 14703,12652 14703,12214 14703,11776 14041,11421 13224,11421 Z"/>
  <path stroke-width="26" fill="none" stroke="rgb(0,0,0)" d="M 13224,11421 C 12407,11421 11744,11776 11744,12214 11744,12652 12407,13007 13224,13007 14041,13007 14703,12652 14703,12214 14703,11776 14041,11421 13224,11421 Z"/>
  <text fill="rgb(0,0,0)" stroke="none" x="12900" y="12129">
   <tspan x="12900 13137 13230 13441">List</tspan></text>
  <text fill="rgb(0,0,0)" stroke="none" x="12575" y="12637">
   <tspan x="12575 12858 13095 13327 13416 13648">Engine</tspan></text>
  <text fill="rgb(129,138,143)" stroke="none" x="7980" y="10932">
   <tspan x="7980 8263 8495 8613 8731 8968">Buffer</tspan></text>
  <text fill="rgb(129,138,143)" stroke="none" x="7934" y="11440">
   <tspan x="7934 8217 8521 8804">SRAM</tspan></text>
  <path fill="rgb(129,138,143)" stroke="none" d="M 8539,10222 C 7722,10222 7060,10577 7060,11016 7060,11453 7722,11809 8539,11809 9356,11809 10019,11453 10019,11016 10019,10577 9356,10222 8539,10222 Z"/>
  <path fill="rgb(255,204,153)" stroke="none" d="M 8468,10151 C 7652,10151 6989,10507 6989,10945 6989,11383 7652,11738 8468,11738 9286,11738 9948,11383 9948,10945 9948,10507 9286,10151 8468,10151 Z"/>
  <path stroke-width="26" fill="none" stroke="rgb(0,0,0)" d="M 8468,10151 C 7652,10151 6989,10507 6989,10945 6989,11383 7652,11738 8468,11738 9286,11738 9948,11383 9948,10945 9948,10507 9286,10151 8468,10151 Z"/>
  <text fill="rgb(0,0,0)" stroke="none" x="7908" y="10860">
   <tspan x="7908 8191 8423 8541 8659 8896">Buffer</tspan></text>
  <text fill="rgb(0,0,0)" stroke="none" x="7862" y="11368">
   <tspan x="7862 8145 8449 8732">SRAM</tspan></text>
 </g>
 <g fill="rgb(0,0,0)" stroke="none" font-family="Tahoma" font-size="495" font-style="normal" font-weight="400">
  <text x="10935" y="13944">
   <tspan x="10935 11269 11527 11705 11980 12348 12606 12784 13042 13198 13494 13722 13950 14212 14322 14584 14762 15020 15181 15452 15630">Hardware Accelerators</tspan></text>
 </g>
 <g fill="rgb(129,138,143)" stroke="none" font-family="Arial" font-size="423" font-style="normal" font-weight="400">
  <text x="14320" y="10932">
   <tspan x="14320 14603 14835 14953 15071 15308">Buffer</tspan></text>
  <text fill="rgb(129,138,143)" stroke="none" x="14054" y="11440">
   <tspan x="14054 14405 14642 14874 15111 15339 15576">Manager</tspan></text>
  <path fill="rgb(129,138,143)" stroke="none" d="M 14879,10222 C 14063,10222 13400,10578 13400,11016 13400,11453 14063,11809 14879,11809 15696,11809 16359,11453 16359,11016 16359,10578 15696,10222 14879,10222 Z"/>
  <path fill="rgb(255,204,153)" stroke="none" d="M 14809,10151 C 13992,10151 13329,10507 13329,10945 13329,11384 13992,11738 14809,11738 15626,11738 16288,11384 16288,10945 16288,10507 15626,10151 14809,10151 Z"/>
  <path stroke-width="26" fill="none" stroke="rgb(0,0,0)" d="M 14809,10151 C 13992,10151 13329,10507 13329,10945 13329,11384 13992,11738 14809,11738 15626,11738 16288,11384 16288,10945 16288,10507 15626,10151 14809,10151 Z"/>
  <text fill="rgb(0,0,0)" stroke="none" x="14249" y="10860">
   <tspan x="14249 14532 14764 14882 15000 15237">Buffer</tspan></text>
  <text fill="rgb(0,0,0)" stroke="none" x="13982" y="11368">
   <tspan x="13982 14333 14570 14802 15039 15267 15504">Manager</tspan></text>
  <path fill="rgb(0,0,0)" stroke="rgb(0,0,0)" d="M 3291,4264 L 3291,4264 3351,4265 3412,4270 3472,4277 3532,4287 3592,4300 3650,4315 3709,4333 3766,4353 3822,4375 3877,4400 3931,4427 3984,4456 4035,4486 4085,4519 4133,4553 4179,4588 4224,4626 4267,4665 4307,4704 4345,4746 4381,4788 4414,4832 4445,4877 4473,4922 4498,4968 4521,5015 4540,5063 4540,5063 C 4540,5064 4540,5065 4541,5066 L 4541,5066 4556,5131 4522,5138 4506,5074 4507,5076 4489,5031 4467,4985 4443,4941 4416,4897 4386,4853 4354,4811 4319,4770 4282,4730 4243,4691 4202,4653 4158,4617 4113,4582 4066,4548 4017,4517 3967,4486 3916,4458 3863,4432 3809,4408 3754,4386 3698,4366 3641,4349 3584,4335 3526,4322 3468,4312 3410,4305 3350,4301 3291,4299 3291,4264 Z M 4638,5082 L 4638,5082 4568,5308 4429,5117 4638,5082 Z"/>
  <path fill="rgb(0,0,0)" stroke="rgb(0,0,0)" d="M 6646,5308 L 6648,5267 6652,5226 6659,5184 6669,5142 6682,5101 6697,5061 6715,5021 6735,4981 6757,4943 6782,4905 6808,4868 6837,4832 6867,4797 6899,4763 6933,4730 6968,4698 7043,4639 7083,4612 7124,4585 7166,4561 7209,4538 7253,4518 7298,4499 7343,4482 7389,4466 7436,4453 7484,4443 7531,4434 7579,4428 7627,4424 7676,4422 7725,4425 7774,4431 7822,4442 7870,4457 7918,4476 7965,4499 8012,4525 8058,4554 8103,4587 8147,4624 8189,4663 8232,4705 8272,4750 8312,4797 8350,4848 8387,4899 8422,4954 8456,5011 8487,5069 8518,5130 8546,5191 8573,5255 8597,5319 8619,5386 8639,5453 8656,5521 8671,5590 8683,5660 8696,5765 8661,5769 8649,5666 8636,5598 8622,5530 8605,5463 8585,5397 8564,5332 8540,5268 8514,5206 8486,5145 8457,5086 8426,5028 8392,4973 8358,4920 8322,4869 8285,4820 8247,4774 8207,4730 8166,4689 8125,4651 8082,4616 8038,4584 7995,4556 7950,4530 7905,4509 7860,4491 7814,4476 7768,4466 7723,4460 7676,4458 7630,4459 7583,4463 7538,4468 7491,4477 7446,4487 7400,4500 7356,4514 7311,4531 7268,4549 7225,4569 7184,4592 7143,4615 7103,4640 7065,4667 6992,4724 6957,4755 6925,4787 6894,4820 6864,4854 6837,4888 6811,4924 6788,4961 6766,4998 6747,5035 6730,5073 6715,5112 6703,5151 6694,5190 6687,5229 6683,5269 6681,5309 6646,5308 Z M 8781,5726 L 8689,5943 8570,5739 8781,5726 Z"/>
  <path fill="rgb(0,0,0)" stroke="rgb(0,0,0)" d="M 8629,7231 L 8603,7273 8603,7273 C 8602,7275 8601,7276 8600,7277 L 8600,7277 8579,7297 8557,7317 8532,7337 8506,7357 8478,7377 8448,7396 8417,7415 8384,7434 8315,7472 8239,7508 8158,7544 8072,7579 7980,7612 7884,7645 7783,7676 7679,7706 7569,7735 7457,7762 7340,7787 7222,7811 7099,7833 6974,7854 6847,7873 6718,7890 6586,7905 6453,7918 6319,7928 6183,7937 6047,7942 5911,7946 5774,7947 5638,7947 5501,7943 5364,7937 5229,7929 5095,7918 4962,7905 4831,7891 4702,7874 4575,7855 4450,7835 4327,7812 4208,7789 4092,7763 3980,7736 3871,7708 3766,7677 3665,7646 3569,7615 3478,7581 3391,7546 3310,7511 3234,7474 3164,7437 3132,7418 3100,7399 3071,7380 3043,7360 3017,7341 2993,7321 2969,7300 2948,7280 2948,7280 C 2947,7279 2946,7278 2946,7277 L 2946,7277 2921,7235 2951,7217 2976,7259 2973,7255 2993,7274 3014,7293 3039,7312 3063,7331 3090,7350 3119,7369 3150,7388 3181,7406 3249,7443 3324,7479 3404,7514 3489,7548 3580,7581 3675,7613 3775,7644 3879,7673 3988,7702 4100,7728 4215,7754 4334,7777 4455,7800 4579,7820 4706,7839 4835,7856 4966,7871 5098,7883 5231,7894 5366,7902 5502,7908 5638,7912 5773,7912 5910,7911 6045,7908 6181,7901 6316,7893 6450,7882 6582,7869 6713,7855 6842,7838 6968,7820 7093,7799 7214,7777 7333,7753 7448,7728 7560,7701 7669,7672 7773,7643 7872,7611 7968,7579 8058,7546 8144,7511 8224,7477 8298,7441 8366,7404 8399,7385 8429,7367 8457,7347 8484,7328 8510,7310 8533,7290 8555,7271 8576,7251 8573,7255 8598,7213 8629,7231 Z M 8503,7208 L 8503,7208 8689,7062 8694,7299 8503,7208 Z M 2856,7304 L 2856,7304 2860,7067 3047,7212 2856,7304 Z"/>
  <text fill="rgb(129,138,143)" stroke="none" x="13441" y="5538">
   <tspan x="13441 13792 14029 14261 14498 14587 14824">Mapping</tspan></text>
  <text fill="rgb(129,138,143)" stroke="none" x="13420" y="6045">
   <tspan x="13420 13771 14008 14240 14477 14705 14942">Manager</tspan></text>
  <path fill="rgb(129,138,143)" stroke="none" d="M 14245,4828 C 13429,4828 12766,5183 12766,5621 12766,6059 13429,6415 14245,6415 15062,6415 15725,6059 15725,5621 15725,5183 15062,4828 14245,4828 Z"/>
  <path fill="rgb(204,255,255)" stroke="none" d="M 14175,4757 C 13358,4757 12695,5113 12695,5550 12695,5989 13358,6344 14175,6344 14992,6344 15654,5989 15654,5550 15654,5113 14992,4757 14175,4757 Z"/>
  <path stroke-width="26" fill="none" stroke="rgb(0,0,0)" d="M 14175,4757 C 13358,4757 12695,5113 12695,5550 12695,5989 13358,6344 14175,6344 14992,6344 15654,5989 15654,5550 15654,5113 14992,4757 14175,4757 Z"/>
  <text fill="rgb(0,0,0)" stroke="none" x="13369" y="5466">
   <tspan x="13369 13720 13957 14189 14426 14515 14752">Mapping</tspan></text>
  <text fill="rgb(0,0,0)" stroke="none" x="13348" y="5974">
   <tspan x="13348 13699 13936 14168 14405 14633 14870">Manager</tspan></text>
  <text fill="rgb(129,138,143)" stroke="none" x="13441" y="5855">
   <tspan x="13441 13792 14029 14261 14498 14587 14824">Mapping</tspan></text>
  <text fill="rgb(129,138,143)" stroke="none" x="13420" y="6363">
   <tspan x="13420 13771 14008 14240 14477 14705 14942">Manager</tspan></text>
  <path fill="rgb(129,138,143)" stroke="none" d="M 14245,5145 C 13429,5145 12766,5501 12766,5939 12766,6377 13429,6732 14245,6732 15062,6732 15725,6377 15725,5939 15725,5501 15062,5145 14245,5145 Z"/>
  <path fill="rgb(204,255,255)" stroke="none" d="M 14175,5075 C 13358,5075 12695,5430 12695,5868 12695,6307 13358,6661 14175,6661 14992,6661 15654,6307 15654,5868 15654,5430 14992,5075 14175,5075 Z"/>
  <path stroke-width="26" fill="none" stroke="rgb(0,0,0)" d="M 14175,5075 C 13358,5075 12695,5430 12695,5868 12695,6307 13358,6661 14175,6661 14992,6661 15654,6307 15654,5868 15654,5430 14992,5075 14175,5075 Z"/>
  <text fill="rgb(0,0,0)" stroke="none" x="13369" y="5783">
   <tspan x="13369 13720 13957 14189 14426 14515 14752">Mapping</tspan></text>
  <text fill="rgb(0,0,0)" stroke="none" x="13348" y="6291">
   <tspan x="13348 13699 13936 14168 14405 14633 14870">Manager</tspan></text>
  <text fill="rgb(129,138,143)" stroke="none" x="13441" y="6172">
   <tspan x="13441 13792 14029 14261 14498 14587 14824">Mapping</tspan></text>
  <text fill="rgb(129,138,143)" stroke="none" x="13420" y="6680">
   <tspan x="13420 13771 14008 14240 14477 14705 14942">Manager</tspan></text>
  <path fill="rgb(129,138,143)" stroke="none" d="M 14245,5463 C 13429,5463 12766,5818 12766,6256 12766,6694 13429,7049 14245,7049 15062,7049 15725,6694 15725,6256 15725,5818 15062,5463 14245,5463 Z"/>
  <path fill="rgb(204,255,255)" stroke="none" d="M 14175,5392 C 13358,5392 12695,5747 12695,6185 12695,6624 13358,6978 14175,6978 14992,6978 15654,6624 15654,6185 15654,5747 14992,5392 14175,5392 Z"/>
  <path stroke-width="26" fill="none" stroke="rgb(0,0,0)" d="M 14175,5392 C 13358,5392 12695,5747 12695,6185 12695,6624 13358,6978 14175,6978 14992,6978 15654,6624 15654,6185 15654,5747 14992,5392 14175,5392 Z"/>
  <text fill="rgb(0,0,0)" stroke="none" x="13369" y="6100">
   <tspan x="13369 13720 13957 14189 14426 14515 14752">Mapping</tspan></text>
  <text fill="rgb(0,0,0)" stroke="none" x="13348" y="6608">
   <tspan x="13348 13699 13936 14168 14405 14633 14870">Manager</tspan></text>
  <text fill="rgb(129,138,143)" stroke="none" x="13441" y="6490">
   <tspan x="13441 13792 14029 14261 14498 14587 14824">Mapping</tspan></text>
  <text fill="rgb(129,138,143)" stroke="none" x="13420" y="6997">
   <tspan x="13420 13771 14008 14240 14477 14705 14942">Manager</tspan></text>
  <path fill="rgb(129,138,143)" stroke="none" d="M 14245,5780 C 13429,5780 12766,6135 12766,6573 12766,7011 13429,7367 14245,7367 15062,7367 15725,7011 15725,6573 15725,6135 15062,5780 14245,5780 Z"/>
  <path fill="rgb(204,255,255)" stroke="none" d="M 14175,5709 C 13358,5709 12695,6065 12695,6502 12695,6941 13358,7296 14175,7296 14992,7296 15654,6941 15654,6502 15654,6065 14992,5709 14175,5709 Z"/>
  <path stroke-width="26" fill="none" stroke="rgb(0,0,0)" d="M 14175,5709 C 13358,5709 12695,6065 12695,6502 12695,6941 13358,7296 14175,7296 14992,7296 15654,6941 15654,6502 15654,6065 14992,5709 14175,5709 Z"/>
  <text fill="rgb(0,0,0)" stroke="none" x="13369" y="6418">
   <tspan x="13369 13720 13957 14189 14426 14515 14752">Mapping</tspan></text>
  <text fill="rgb(0,0,0)" stroke="none" x="13348" y="6925">
   <tspan x="13348 13699 13936 14168 14405 14633 14870">Manager</tspan></text>
  <text fill="rgb(129,138,143)" stroke="none" x="13441" y="5538">
   <tspan x="13441 13792 14029 14261 14498 14587 14824">Mapping</tspan></text>
  <text fill="rgb(129,138,143)" stroke="none" x="13420" y="6045">
   <tspan x="13420 13771 14008 14240 14477 14705 14942">Manager</tspan></text>
  <path fill="rgb(129,138,143)" stroke="none" d="M 14245,4828 C 13429,4828 12766,5183 12766,5621 12766,6059 13429,6415 14245,6415 15062,6415 15725,6059 15725,5621 15725,5183 15062,4828 14245,4828 Z"/>
  <path fill="rgb(204,255,255)" stroke="none" d="M 14175,4757 C 13358,4757 12695,5113 12695,5550 12695,5989 13358,6344 14175,6344 14992,6344 15654,5989 15654,5550 15654,5113 14992,4757 14175,4757 Z"/>
  <path stroke-width="26" fill="none" stroke="rgb(0,0,0)" d="M 14175,4757 C 13358,4757 12695,5113 12695,5550 12695,5989 13358,6344 14175,6344 14992,6344 15654,5989 15654,5550 15654,5113 14992,4757 14175,4757 Z"/>
  <text fill="rgb(0,0,0)" stroke="none" x="13369" y="5466">
   <tspan x="13369 13720 13957 14189 14426 14515 14752">Mapping</tspan></text>
  <text fill="rgb(0,0,0)" stroke="none" x="13348" y="5974">
   <tspan x="13348 13699 13936 14168 14405 14633 14870">Manager</tspan></text>
  <text fill="rgb(129,138,143)" stroke="none" x="13441" y="5855">
   <tspan x="13441 13792 14029 14261 14498 14587 14824">Mapping</tspan></text>
  <text fill="rgb(129,138,143)" stroke="none" x="13420" y="6363">
   <tspan x="13420 13771 14008 14240 14477 14705 14942">Manager</tspan></text>
  <path fill="rgb(129,138,143)" stroke="none" d="M 14245,5145 C 13429,5145 12766,5501 12766,5939 12766,6377 13429,6732 14245,6732 15062,6732 15725,6377 15725,5939 15725,5501 15062,5145 14245,5145 Z"/>
  <path fill="rgb(204,255,255)" stroke="none" d="M 14175,5075 C 13358,5075 12695,5430 12695,5868 12695,6307 13358,6661 14175,6661 14992,6661 15654,6307 15654,5868 15654,5430 14992,5075 14175,5075 Z"/>
  <path stroke-width="26" fill="none" stroke="rgb(0,0,0)" d="M 14175,5075 C 13358,5075 12695,5430 12695,5868 12695,6307 13358,6661 14175,6661 14992,6661 15654,6307 15654,5868 15654,5430 14992,5075 14175,5075 Z"/>
  <text fill="rgb(0,0,0)" stroke="none" x="13369" y="5783">
   <tspan x="13369 13720 13957 14189 14426 14515 14752">Mapping</tspan></text>
  <text fill="rgb(0,0,0)" stroke="none" x="13348" y="6291">
   <tspan x="13348 13699 13936 14168 14405 14633 14870">Manager</tspan></text>
  <text fill="rgb(129,138,143)" stroke="none" x="13441" y="6172">
   <tspan x="13441 13792 14029 14261 14498 14587 14824">Mapping</tspan></text>
  <text fill="rgb(129,138,143)" stroke="none" x="13420" y="6680">
   <tspan x="13420 13771 14008 14240 14477 14705 14942">Manager</tspan></text>
  <path fill="rgb(129,138,143)" stroke="none" d="M 14245,5463 C 13429,5463 12766,5818 12766,6256 12766,6694 13429,7049 14245,7049 15062,7049 15725,6694 15725,6256 15725,5818 15062,5463 14245,5463 Z"/>
  <path fill="rgb(204,255,255)" stroke="none" d="M 14175,5392 C 13358,5392 12695,5747 12695,6185 12695,6624 13358,6978 14175,6978 14992,6978 15654,6624 15654,6185 15654,5747 14992,5392 14175,5392 Z"/>
  <path stroke-width="26" fill="none" stroke="rgb(0,0,0)" d="M 14175,5392 C 13358,5392 12695,5747 12695,6185 12695,6624 13358,6978 14175,6978 14992,6978 15654,6624 15654,6185 15654,5747 14992,5392 14175,5392 Z"/>
  <text fill="rgb(0,0,0)" stroke="none" x="13369" y="6100">
   <tspan x="13369 13720 13957 14189 14426 14515 14752">Mapping</tspan></text>
  <text fill="rgb(0,0,0)" stroke="none" x="13348" y="6608">
   <tspan x="13348 13699 13936 14168 14405 14633 14870">Manager</tspan></text>
  <text fill="rgb(129,138,143)" stroke="none" x="13441" y="6490">
   <tspan x="13441 13792 14029 14261 14498 14587 14824">Mapping</tspan></text>
  <text fill="rgb(129,138,143)" stroke="none" x="13420" y="6997">
   <tspan x="13420 13771 14008 14240 14477 14705 14942">Manager</tspan></text>
  <path fill="rgb(129,138,143)" stroke="none" d="M 14245,5780 C 13429,5780 12766,6135 12766,6573 12766,7011 13429,7367 14245,7367 15062,7367 15725,7011 15725,6573 15725,6135 15062,5780 14245,5780 Z"/>
  <path fill="rgb(204,255,255)" stroke="none" d="M 14175,5709 C 13358,5709 12695,6065 12695,6502 12695,6941 13358,7296 14175,7296 14992,7296 15654,6941 15654,6502 15654,6065 14992,5709 14175,5709 Z"/>
  <path stroke-width="26" fill="none" stroke="rgb(0,0,0)" d="M 14175,5709 C 13358,5709 12695,6065 12695,6502 12695,6941 13358,7296 14175,7296 14992,7296 15654,6941 15654,6502 15654,6065 14992,5709 14175,5709 Z"/>
  <text fill="rgb(0,0,0)" stroke="none" x="13369" y="6418">
   <tspan x="13369 13720 13957 14189 14426 14515 14752">Mapping</tspan></text>
  <text fill="rgb(0,0,0)" stroke="none" x="13348" y="6925">
   <tspan x="13348 13699 13936 14168 14405 14633 14870">Manager</tspan></text>
  <text fill="rgb(129,138,143)" stroke="none" x="13881" y="2365">
   <tspan x="13881 14092 14324 14561 14700 14932 15169">Journal</tspan></text>
  <text fill="rgb(129,138,143)" stroke="none" x="13737" y="2872">
   <tspan x="13737 14088 14325 14557 14794 15022 15259">Manager</tspan></text>
  <path fill="rgb(129,138,143)" stroke="none" d="M 14562,1655 C 13746,1655 13083,2010 13083,2448 13083,2886 13746,3242 14562,3242 15379,3242 16042,2886 16042,2448 16042,2010 15379,1655 14562,1655 Z"/>
  <path fill="rgb(204,255,255)" stroke="none" d="M 14492,1584 C 13675,1584 13012,1940 13012,2377 13012,2816 13675,3171 14492,3171 15309,3171 15971,2816 15971,2377 15971,1940 15309,1584 14492,1584 Z"/>
  <path stroke-width="26" fill="none" stroke="rgb(0,0,0)" d="M 14492,1584 C 13675,1584 13012,1940 13012,2377 13012,2816 13675,3171 14492,3171 15309,3171 15971,2816 15971,2377 15971,1940 15309,1584 14492,1584 Z"/>
  <text fill="rgb(0,0,0)" stroke="none" x="13809" y="2293">
   <tspan x="13809 14020 14252 14489 14628 14860 15097">Journal</tspan></text>
  <text fill="rgb(0,0,0)" stroke="none" x="13665" y="2800">
   <tspan x="13665 14016 14253 14485 14722 14950 15187">Manager</tspan></text>
  <text fill="rgb(129,138,143)" stroke="none" x="14050" y="3951">
   <tspan x="14050 14333 14426 14663 14874">Block</tspan></text>
  <text fill="rgb(129,138,143)" stroke="none" x="13737" y="4459">
   <tspan x="13737 14088 14325 14557 14794 15022 15259">Manager</tspan></text>
  <path fill="rgb(129,138,143)" stroke="none" d="M 14562,3242 C 13746,3242 13083,3597 13083,4035 13083,4473 13746,4828 14562,4828 15379,4828 16042,4473 16042,4035 16042,3597 15379,3242 14562,3242 Z"/>
  <path fill="rgb(204,255,255)" stroke="none" d="M 14492,3171 C 13675,3171 13012,3526 13012,3964 13012,4403 13675,4757 14492,4757 15309,4757 15971,4403 15971,3964 15971,3526 15309,3171 14492,3171 Z"/>
  <path stroke-width="26" fill="none" stroke="rgb(0,0,0)" d="M 14492,3171 C 13675,3171 13012,3526 13012,3964 13012,4403 13675,4757 14492,4757 15309,4757 15971,4403 15971,3964 15971,3526 15309,3171 14492,3171 Z"/>
  <text fill="rgb(0,0,0)" stroke="none" x="13978" y="3879">
   <tspan x="13978 14261 14354 14591 14802">Block</tspan></text>
  <text fill="rgb(0,0,0)" stroke="none" x="13665" y="4387">
   <tspan x="13665 14016 14253 14485 14722 14950 15187">Manager</tspan></text>
  <text fill="rgb(129,138,143)" stroke="none" x="13682" y="8076">
   <tspan x="13682 13986 14223 14430 14667 14874 15111 15250">Recovery</tspan></text>
  <text fill="rgb(129,138,143)" stroke="none" x="13737" y="8584">
   <tspan x="13737 14088 14325 14557 14794 15022 15259">Manager</tspan></text>
  <path fill="rgb(129,138,143)" stroke="none" d="M 14562,7367 C 13746,7367 13083,7722 13083,8160 13083,8598 13746,8953 14562,8953 15379,8953 16042,8598 16042,8160 16042,7722 15379,7367 14562,7367 Z"/>
  <path fill="rgb(204,255,255)" stroke="none" d="M 14492,7296 C 13675,7296 13012,7651 13012,8089 13012,8528 13675,8882 14492,8882 15309,8882 15971,8528 15971,8089 15971,7651 15309,7296 14492,7296 Z"/>
  <path stroke-width="26" fill="none" stroke="rgb(0,0,0)" d="M 14492,7296 C 13675,7296 13012,7651 13012,8089 13012,8528 13675,8882 14492,8882 15309,8882 15971,8528 15971,8089 15971,7651 15309,7296 14492,7296 Z"/>
  <text fill="rgb(0,0,0)" stroke="none" x="13610" y="8004">
   <tspan x="13610 13914 14151 14358 14595 14802 15039 15178">Recovery</tspan></text>
  <text fill="rgb(0,0,0)" stroke="none" x="13665" y="8512">
   <tspan x="13665 14016 14253 14485 14722 14950 15187">Manager</tspan></text>
  <text fill="rgb(129,138,143)" stroke="none" x="13682" y="8394">
   <tspan x="13682 13986 14223 14430 14667 14874 15111 15250">Recovery</tspan></text>
  <text fill="rgb(129,138,143)" stroke="none" x="13737" y="8901">
   <tspan x="13737 14088 14325 14557 14794 15022 15259">Manager</tspan></text>
  <path fill="rgb(129,138,143)" stroke="none" d="M 14562,7684 C 13746,7684 13083,8039 13083,8477 13083,8915 13746,9270 14562,9270 15379,9270 16042,8915 16042,8477 16042,8039 15379,7684 14562,7684 Z"/>
  <path fill="rgb(204,255,255)" stroke="none" d="M 14492,7613 C 13675,7613 13012,7968 13012,8406 13012,8845 13675,9200 14492,9200 15309,9200 15971,8845 15971,8406 15971,7968 15309,7613 14492,7613 Z"/>
  <path stroke-width="26" fill="none" stroke="rgb(0,0,0)" d="M 14492,7613 C 13675,7613 13012,7968 13012,8406 13012,8845 13675,9200 14492,9200 15309,9200 15971,8845 15971,8406 15971,7968 15309,7613 14492,7613 Z"/>
  <text fill="rgb(0,0,0)" stroke="none" x="13610" y="8322">
   <tspan x="13610 13914 14151 14358 14595 14802 15039 15178">Recovery</tspan></text>
  <text fill="rgb(0,0,0)" stroke="none" x="13665" y="8829">
   <tspan x="13665 14016 14253 14485 14722 14950 15187">Manager</tspan></text>
  <text fill="rgb(129,138,143)" stroke="none" x="13682" y="8076">
   <tspan x="13682 13986 14223 14430 14667 14874 15111 15250">Recovery</tspan></text>
  <text fill="rgb(129,138,143)" stroke="none" x="13737" y="8584">
   <tspan x="13737 14088 14325 14557 14794 15022 15259">Manager</tspan></text>
  <path fill="rgb(129,138,143)" stroke="none" d="M 14562,7367 C 13746,7367 13083,7722 13083,8160 13083,8598 13746,8953 14562,8953 15379,8953 16042,8598 16042,8160 16042,7722 15379,7367 14562,7367 Z"/>
  <path fill="rgb(204,255,255)" stroke="none" d="M 14492,7296 C 13675,7296 13012,7651 13012,8089 13012,8528 13675,8882 14492,8882 15309,8882 15971,8528 15971,8089 15971,7651 15309,7296 14492,7296 Z"/>
  <path stroke-width="26" fill="none" stroke="rgb(0,0,0)" d="M 14492,7296 C 13675,7296 13012,7651 13012,8089 13012,8528 13675,8882 14492,8882 15309,8882 15971,8528 15971,8089 15971,7651 15309,7296 14492,7296 Z"/>
  <text fill="rgb(0,0,0)" stroke="none" x="13610" y="8004">
   <tspan x="13610 13914 14151 14358 14595 14802 15039 15178">Recovery</tspan></text>
  <text fill="rgb(0,0,0)" stroke="none" x="13665" y="8512">
   <tspan x="13665 14016 14253 14485 14722 14950 15187">Manager</tspan></text>
  <text fill="rgb(129,138,143)" stroke="none" x="13682" y="8394">
   <tspan x="13682 13986 14223 14430 14667 14874 15111 15250">Recovery</tspan></text>
  <text fill="rgb(129,138,143)" stroke="none" x="13737" y="8901">
   <tspan x="13737 14088 14325 14557 14794 15022 15259">Manager</tspan></text>
  <path fill="rgb(129,138,143)" stroke="none" d="M 14562,7684 C 13746,7684 13083,8039 13083,8477 13083,8915 13746,9270 14562,9270 15379,9270 16042,8915 16042,8477 16042,8039 15379,7684 14562,7684 Z"/>
  <path fill="rgb(204,255,255)" stroke="none" d="M 14492,7613 C 13675,7613 13012,7968 13012,8406 13012,8845 13675,9200 14492,9200 15309,9200 15971,8845 15971,8406 15971,7968 15309,7613 14492,7613 Z"/>
  <path stroke-width="26" fill="none" stroke="rgb(0,0,0)" d="M 14492,7613 C 13675,7613 13012,7968 13012,8406 13012,8845 13675,9200 14492,9200 15309,9200 15971,8845 15971,8406 15971,7968 15309,7613 14492,7613 Z"/>
  <text fill="rgb(0,0,0)" stroke="none" x="13610" y="8322">
   <tspan x="13610 13914 14151 14358 14595 14802 15039 15178">Recovery</tspan></text>
  <text fill="rgb(0,0,0)" stroke="none" x="13665" y="8829">
   <tspan x="13665 14016 14253 14485 14722 14950 15187">Manager</tspan></text>
 </g>
 <g fill="rgb(129,138,143)" stroke="none" font-family="Tahoma" font-size="495" font-style="normal" font-weight="400">
  <text x="4079" y="4395">1</text>
  <path fill="rgb(129,138,143)" stroke="none" d="M 4207,3876 C 4031,3876 3890,4018 3890,4193 3890,4368 4031,4510 4207,4510 4382,4510 4524,4368 4524,4193 4524,4018 4382,3876 4207,3876 Z"/>
  <path fill="rgb(255,255,255)" stroke="none" d="M 4136,3805 C 3961,3805 3819,3948 3819,4123 3819,4298 3961,4440 4136,4440 4311,4440 4453,4298 4453,4123 4453,3948 4311,3805 4136,3805 Z"/>
  <path stroke-width="35" fill="none" stroke="rgb(255,0,0)" d="M 4136,3805 C 3961,3805 3819,3948 3819,4123 3819,4298 3961,4440 4136,4440 4311,4440 4453,4298 4453,4123 4453,3948 4311,3805 4136,3805 Z"/>
  <text fill="rgb(0,0,0)" stroke="none" x="4007" y="4324">1</text>
  <text fill="rgb(129,138,143)" stroke="none" x="7883" y="5347">2</text>
  <path fill="rgb(129,138,143)" stroke="none" d="M 8011,4828 C 7835,4828 7694,4970 7694,5145 7694,5320 7835,5463 8011,5463 8186,5463 8328,5320 8328,5145 8328,4970 8186,4828 8011,4828 Z"/>
  <path fill="rgb(255,255,255)" stroke="none" d="M 7940,4757 C 7765,4757 7623,4899 7623,5075 7623,5250 7765,5392 7940,5392 8116,5392 8257,5250 8257,5075 8257,4899 8116,4757 7940,4757 Z"/>
  <path stroke-width="35" fill="none" stroke="rgb(255,0,0)" d="M 7940,4757 C 7765,4757 7623,4899 7623,5075 7623,5250 7765,5392 7940,5392 8116,5392 8257,5250 8257,5075 8257,4899 8116,4757 7940,4757 Z"/>
  <text fill="rgb(0,0,0)" stroke="none" x="7811" y="5275">2</text>
  <text fill="rgb(129,138,143)" stroke="none" x="3128" y="8203">3</text>
  <path fill="rgb(129,138,143)" stroke="none" d="M 3256,7684 C 3080,7684 2939,7826 2939,8001 2939,8176 3080,8318 3256,8318 3431,8318 3573,8176 3573,8001 3573,7826 3431,7684 3256,7684 Z"/>
  <path fill="rgb(255,255,255)" stroke="none" d="M 3185,7613 C 3010,7613 2868,7755 2868,7930 2868,8106 3010,8248 3185,8248 3360,8248 3502,8106 3502,7930 3502,7755 3360,7613 3185,7613 Z"/>
  <path stroke-width="35" fill="none" stroke="rgb(255,0,0)" d="M 3185,7613 C 3010,7613 2868,7755 2868,7930 2868,8106 3010,8248 3185,8248 3360,8248 3502,8106 3502,7930 3502,7755 3360,7613 3185,7613 Z"/>
  <text fill="rgb(0,0,0)" stroke="none" x="3056" y="8131">3</text>
  <text fill="rgb(129,138,143)" stroke="none" x="8200" y="8203">4</text>
  <path fill="rgb(129,138,143)" stroke="none" d="M 8328,7684 C 8153,7684 8011,7826 8011,8001 8011,8176 8153,8318 8328,8318 8503,8318 8645,8176 8645,8001 8645,7826 8503,7684 8328,7684 Z"/>
  <path fill="rgb(255,255,255)" stroke="none" d="M 8257,7613 C 8082,7613 7940,7755 7940,7930 7940,8106 8082,8248 8257,8248 8433,8248 8574,8106 8574,7930 8574,7755 8433,7613 8257,7613 Z"/>
  <path stroke-width="35" fill="none" stroke="rgb(255,0,0)" d="M 8257,7613 C 8082,7613 7940,7755 7940,7930 7940,8106 8082,8248 8257,8248 8433,8248 8574,8106 8574,7930 8574,7755 8433,7613 8257,7613 Z"/>
  <text fill="rgb(0,0,0)" stroke="none" x="8128" y="8131">4</text>
 </g>
</svg>