<?xml version="1.0" encoding="UTF-8"?><!DOCTYPE svg PUBLIC "-//W3C//DTD SVG 1.1//EN" "/SysSchema/SVG11/svg11.dtd">
<svg xmlns:xlink="http://www.w3.org/1999/xlink" xmlns="http://www.w3.org/2000/svg" width="200mm" height="142mm" viewBox="0 0 20000 14200" stroke-width="28.222" stroke-linejoin="round" xml:space="preserve" preserveAspectRatio="xMidYMid meet" zoomAndPan="magnify" version="1.1" contentScriptType="text/ecmascript" contentStyleType="text/css">
 <path fill="rgb(153,204,255)" stroke="none" d="M 10159,9834 L 10159,13325 16499,13325 16499,9834 10159,9834 Z"/>
 <path fill="none" stroke="none" d="M 10159,9834 L 10159,13325 16499,13325 16499,9834 10159,9834 Z"/>
 <path stroke-width="35" fill="none" stroke="rgb(0,0,0)" d="M 10159,9834 L 10159,13325 16499,13325 16499,9834 10159,9834 Z"/>
 <rect fill="rgb(192,192,192)" stroke="none" x="3817" y="947" width="12685" height="8889"/>
 <rect fill="rgb(127,127,127)" stroke="none" x="3819" y="950" width="12681" height="8886"/>
 <rect fill="rgb(192,192,192)" stroke="none" x="3817" y="947" width="12685" height="8889"/>
 <path fill="none" stroke="none" d="M 3819,950 L 3819,9834 16499,9834 16499,950 3819,950 Z"/>
 <path stroke-width="35" fill="none" stroke="rgb(0,0,0)" d="M 3819,950 L 3819,9834 16499,9834 16499,950 3819,950 Z"/>
 <g fill="rgb(129,138,143)" stroke="none" font-family="Arial" font-size="423" font-style="normal" font-weight="400">
  <text x="5224" y="8715">
   <tspan x="5224 5507 5811 5929">PCIe</tspan></text>
  <text fill="rgb(129,138,143)" stroke="none" x="4861" y="9219">
   <tspan x="4861 5212 5449 5681 5918 6146 6383">Manager</tspan></text>
  <path fill="rgb(129,138,143)" stroke="none" d="M 5686,8001 C 4869,8001 4207,8356 4207,8794 4207,9232 4869,9588 5686,9588 6503,9588 7166,9232 7166,8794 7166,8356 6503,8001 5686,8001 Z"/>
  <path fill="rgb(204,255,255)" stroke="none" d="M 5615,7930 C 4799,7930 4136,8286 4136,8724 4136,9162 4799,9517 5615,9517 6433,9517 7095,9162 7095,8724 7095,8286 6433,7930 5615,7930 Z"/>
  <path stroke-width="26" fill="none" stroke="rgb(0,0,0)" d="M 5615,7930 C 4799,7930 4136,8286 4136,8724 4136,9162 4799,9517 5615,9517 6433,9517 7095,9162 7095,8724 7095,8286 6433,7930 5615,7930 Z"/>
  <text fill="rgb(0,0,0)" stroke="none" x="5153" y="8643">
   <tspan x="5153 5436 5740 5858">PCIe</tspan></text>
  <text fill="rgb(0,0,0)" stroke="none" x="4789" y="9147">
   <tspan x="4789 5140 5377 5609 5846 6074 6311">Manager</tspan></text>
  <text fill="rgb(129,138,143)" stroke="none" x="5199" y="4907">
   <tspan x="5199 5503 5740 5854 6091">Datal</tspan></text>
  <text fill="rgb(129,138,143)" stroke="none" x="4861" y="5411">
   <tspan x="4861 5212 5449 5681 5918 6146 6383">Manager</tspan></text>
  <path fill="rgb(129,138,143)" stroke="none" d="M 5686,4193 C 4869,4193 4207,4548 4207,4987 4207,5425 4869,5780 5686,5780 6503,5780 7166,5425 7166,4987 7166,4548 6503,4193 5686,4193 Z"/>
  <path fill="rgb(204,255,255)" stroke="none" d="M 5615,4123 C 4799,4123 4136,4478 4136,4916 4136,5354 4799,5709 5615,5709 6433,5709 7095,5354 7095,4916 7095,4478 6433,4123 5615,4123 Z"/>
  <path stroke-width="26" fill="none" stroke="rgb(0,0,0)" d="M 5615,4123 C 4799,4123 4136,4478 4136,4916 4136,5354 4799,5709 5615,5709 6433,5709 7095,5354 7095,4916 7095,4478 6433,4123 5615,4123 Z"/>
  <text fill="rgb(0,0,0)" stroke="none" x="5127" y="4835">
   <tspan x="5127 5431 5668 5782 6019">Datal</tspan></text>
  <text fill="rgb(0,0,0)" stroke="none" x="4789" y="5339">
   <tspan x="4789 5140 5377 5609 5846 6074 6311">Manager</tspan></text>
  <text fill="rgb(129,138,143)" stroke="none" x="5199" y="5225">
   <tspan x="5199 5503 5740 5854 6091">Datal</tspan></text>
  <text fill="rgb(129,138,143)" stroke="none" x="4861" y="5728">
   <tspan x="4861 5212 5449 5681 5918 6146 6383">Manager</tspan></text>
  <path fill="rgb(129,138,143)" stroke="none" d="M 5686,4511 C 4869,4511 4207,4866 4207,5304 4207,5742 4869,6097 5686,6097 6503,6097 7166,5742 7166,5304 7166,4866 6503,4511 5686,4511 Z"/>
  <path fill="rgb(204,255,255)" stroke="none" d="M 5615,4440 C 4799,4440 4136,4795 4136,5233 4136,5672 4799,6026 5615,6026 6433,6026 7095,5672 7095,5233 7095,4795 6433,4440 5615,4440 Z"/>
  <path stroke-width="26" fill="none" stroke="rgb(0,0,0)" d="M 5615,4440 C 4799,4440 4136,4795 4136,5233 4136,5672 4799,6026 5615,6026 6433,6026 7095,5672 7095,5233 7095,4795 6433,4440 5615,4440 Z"/>
  <text fill="rgb(0,0,0)" stroke="none" x="5127" y="5153">
   <tspan x="5127 5431 5668 5782 6019">Datal</tspan></text>
  <text fill="rgb(0,0,0)" stroke="none" x="4789" y="5656">
   <tspan x="4789 5140 5377 5609 5846 6074 6311">Manager</tspan></text>
  <text fill="rgb(129,138,143)" stroke="none" x="5199" y="5542">
   <tspan x="5199 5503 5740 5854 6091">Datal</tspan></text>
  <text fill="rgb(129,138,143)" stroke="none" x="4861" y="6045">
   <tspan x="4861 5212 5449 5681 5918 6146 6383">Manager</tspan></text>
  <path fill="rgb(129,138,143)" stroke="none" d="M 5686,4828 C 4869,4828 4207,5183 4207,5621 4207,6059 4869,6415 5686,6415 6503,6415 7166,6059 7166,5621 7166,5183 6503,4828 5686,4828 Z"/>
  <path fill="rgb(204,255,255)" stroke="none" d="M 5615,4757 C 4799,4757 4136,5113 4136,5550 4136,5989 4799,6344 5615,6344 6433,6344 7095,5989 7095,5550 7095,5113 6433,4757 5615,4757 Z"/>
  <path stroke-width="26" fill="none" stroke="rgb(0,0,0)" d="M 5615,4757 C 4799,4757 4136,5113 4136,5550 4136,5989 4799,6344 5615,6344 6433,6344 7095,5989 7095,5550 7095,5113 6433,4757 5615,4757 Z"/>
  <text fill="rgb(0,0,0)" stroke="none" x="5127" y="5470">
   <tspan x="5127 5431 5668 5782 6019">Datal</tspan></text>
  <text fill="rgb(0,0,0)" stroke="none" x="4789" y="5974">
   <tspan x="4789 5140 5377 5609 5846 6074 6311">Manager</tspan></text>
  <text fill="rgb(129,138,143)" stroke="none" x="5246" y="5859">
   <tspan x="5246 5550 5787 5901">Data</tspan></text>
  <text fill="rgb(129,138,143)" stroke="none" x="4861" y="6363">
   <tspan x="4861 5212 5449 5681 5918 6146 6383">Manager</tspan></text>
  <path fill="rgb(129,138,143)" stroke="none" d="M 5686,5145 C 4869,5145 4207,5500 4207,5939 4207,6377 4869,6732 5686,6732 6503,6732 7166,6377 7166,5939 7166,5500 6503,5145 5686,5145 Z"/>
  <path fill="rgb(204,255,255)" stroke="none" d="M 5615,5075 C 4799,5075 4136,5430 4136,5868 4136,6306 4799,6661 5615,6661 6433,6661 7095,6306 7095,5868 7095,5430 6433,5075 5615,5075 Z"/>
  <path stroke-width="26" fill="none" stroke="rgb(0,0,0)" d="M 5615,5075 C 4799,5075 4136,5430 4136,5868 4136,6306 4799,6661 5615,6661 6433,6661 7095,6306 7095,5868 7095,5430 6433,5075 5615,5075 Z"/>
  <text fill="rgb(0,0,0)" stroke="none" x="5174" y="5787">
   <tspan x="5174 5478 5715 5829">Data</tspan></text>
  <text fill="rgb(0,0,0)" stroke="none" x="4789" y="6291">
   <tspan x="4789 5140 5377 5609 5846 6074 6311">Manager</tspan></text>
  <text fill="rgb(129,138,143)" stroke="none" x="5199" y="4907">
   <tspan x="5199 5503 5740 5854 6091">Datal</tspan></text>
  <text fill="rgb(129,138,143)" stroke="none" x="4861" y="5411">
   <tspan x="4861 5212 5449 5681 5918 6146 6383">Manager</tspan></text>
  <path fill="rgb(129,138,143)" stroke="none" d="M 5686,4193 C 4869,4193 4207,4548 4207,4987 4207,5425 4869,5780 5686,5780 6503,5780 7166,5425 7166,4987 7166,4548 6503,4193 5686,4193 Z"/>
  <path fill="rgb(204,255,255)" stroke="none" d="M 5615,4123 C 4799,4123 4136,4478 4136,4916 4136,5354 4799,5709 5615,5709 6433,5709 7095,5354 7095,4916 7095,4478 6433,4123 5615,4123 Z"/>
  <path stroke-width="26" fill="none" stroke="rgb(0,0,0)" d="M 5615,4123 C 4799,4123 4136,4478 4136,4916 4136,5354 4799,5709 5615,5709 6433,5709 7095,5354 7095,4916 7095,4478 6433,4123 5615,4123 Z"/>
  <text fill="rgb(0,0,0)" stroke="none" x="5127" y="4835">
   <tspan x="5127 5431 5668 5782 6019">Datal</tspan></text>
  <text fill="rgb(0,0,0)" stroke="none" x="4789" y="5339">
   <tspan x="4789 5140 5377 5609 5846 6074 6311">Manager</tspan></text>
  <text fill="rgb(129,138,143)" stroke="none" x="5199" y="5225">
   <tspan x="5199 5503 5740 5854 6091">Datal</tspan></text>
  <text fill="rgb(129,138,143)" stroke="none" x="4861" y="5728">
   <tspan x="4861 5212 5449 5681 5918 6146 6383">Manager</tspan></text>
  <path fill="rgb(129,138,143)" stroke="none" d="M 5686,4511 C 4869,4511 4207,4866 4207,5304 4207,5742 4869,6097 5686,6097 6503,6097 7166,5742 7166,5304 7166,4866 6503,4511 5686,4511 Z"/>
  <path fill="rgb(204,255,255)" stroke="none" d="M 5615,4440 C 4799,4440 4136,4795 4136,5233 4136,5672 4799,6026 5615,6026 6433,6026 7095,5672 7095,5233 7095,4795 6433,4440 5615,4440 Z"/>
  <path stroke-width="26" fill="none" stroke="rgb(0,0,0)" d="M 5615,4440 C 4799,4440 4136,4795 4136,5233 4136,5672 4799,6026 5615,6026 6433,6026 7095,5672 7095,5233 7095,4795 6433,4440 5615,4440 Z"/>
  <text fill="rgb(0,0,0)" stroke="none" x="5127" y="5153">
   <tspan x="5127 5431 5668 5782 6019">Datal</tspan></text>
  <text fill="rgb(0,0,0)" stroke="none" x="4789" y="5656">
   <tspan x="4789 5140 5377 5609 5846 6074 6311">Manager</tspan></text>
  <text fill="rgb(129,138,143)" stroke="none" x="5199" y="5542">
   <tspan x="5199 5503 5740 5854 6091">Datal</tspan></text>
  <text fill="rgb(129,138,143)" stroke="none" x="4861" y="6045">
   <tspan x="4861 5212 5449 5681 5918 6146 6383">Manager</tspan></text>
  <path fill="rgb(129,138,143)" stroke="none" d="M 5686,4828 C 4869,4828 4207,5183 4207,5621 4207,6059 4869,6415 5686,6415 6503,6415 7166,6059 7166,5621 7166,5183 6503,4828 5686,4828 Z"/>
  <path fill="rgb(204,255,255)" stroke="none" d="M 5615,4757 C 4799,4757 4136,5113 4136,5550 4136,5989 4799,6344 5615,6344 6433,6344 7095,5989 7095,5550 7095,5113 6433,4757 5615,4757 Z"/>
  <path stroke-width="26" fill="none" stroke="rgb(0,0,0)" d="M 5615,4757 C 4799,4757 4136,5113 4136,5550 4136,5989 4799,6344 5615,6344 6433,6344 7095,5989 7095,5550 7095,5113 6433,4757 5615,4757 Z"/>
  <text fill="rgb(0,0,0)" stroke="none" x="5127" y="5470">
   <tspan x="5127 5431 5668 5782 6019">Datal</tspan></text>
  <text fill="rgb(0,0,0)" stroke="none" x="4789" y="5974">
   <tspan x="4789 5140 5377 5609 5846 6074 6311">Manager</tspan></text>
  <text fill="rgb(129,138,143)" stroke="none" x="5246" y="5859">
   <tspan x="5246 5550 5787 5901">Data</tspan></text>
  <text fill="rgb(129,138,143)" stroke="none" x="4861" y="6363">
   <tspan x="4861 5212 5449 5681 5918 6146 6383">Manager</tspan></text>
  <path fill="rgb(129,138,143)" stroke="none" d="M 5686,5145 C 4869,5145 4207,5500 4207,5939 4207,6377 4869,6732 5686,6732 6503,6732 7166,6377 7166,5939 7166,5500 6503,5145 5686,5145 Z"/>
  <path fill="rgb(204,255,255)" stroke="none" d="M 5615,5075 C 4799,5075 4136,5430 4136,5868 4136,6306 4799,6661 5615,6661 6433,6661 7095,6306 7095,5868 7095,5430 6433,5075 5615,5075 Z"/>
  <path stroke-width="26" fill="none" stroke="rgb(0,0,0)" d="M 5615,5075 C 4799,5075 4136,5430 4136,5868 4136,6306 4799,6661 5615,6661 6433,6661 7095,6306 7095,5868 7095,5430 6433,5075 5615,5075 Z"/>
  <text fill="rgb(0,0,0)" stroke="none" x="5174" y="5787">
   <tspan x="5174 5478 5715 5829">Data</tspan></text>
  <text fill="rgb(0,0,0)" stroke="none" x="4789" y="6291">
   <tspan x="4789 5140 5377 5609 5846 6074 6311">Manager</tspan></text>
  <path fill="rgb(153,204,255)" stroke="none" d="M 16499,950 L 16499,9834 19986,9834 19986,950 16499,950 Z"/>
  <path fill="none" stroke="none" d="M 16499,950 L 16499,9834 19986,9834 19986,950 16499,950 Z"/>
  <path stroke-width="35" fill="none" stroke="rgb(0,0,0)" d="M 16499,950 L 16499,9834 19986,9834 19986,950 16499,950 Z"/>
  <path fill="rgb(153,204,255)" stroke="none" d="M 15,950 L 15,9834 3819,9834 3819,950 15,950 Z"/>
  <path fill="none" stroke="none" d="M 15,950 L 15,9834 3819,9834 3819,950 15,950 Z"/>
  <path stroke-width="35" fill="none" stroke="rgb(0,0,0)" d="M 15,950 L 15,9834 3819,9834 3819,950 15,950 Z"/>
  <text fill="rgb(129,138,143)" stroke="none" x="474" y="2052">i</text>
  <text fill="rgb(129,138,143)" stroke="none" x="567" y="2052">-</text>
  <text fill="rgb(129,138,143)" stroke="none" x="706" y="2052">
   <tspan x="706 1010 1361 1644 1762 1880">DMA, e</tspan></text>
  <text fill="rgb(129,138,143)" stroke="none" x="2118" y="2052">-</text>
  <text fill="rgb(129,138,143)" stroke="none" x="2257" y="2052">
   <tspan x="2257 2561 2912">DMA</tspan></text>
  <text fill="rgb(129,138,143)" stroke="none" x="1006" y="2555">
   <tspan x="1006 1357 1594 1826 2063 2291 2528">Manager</tspan></text>
  <path fill="rgb(129,138,143)" stroke="none" d="M 1829,1337 C 1041,1337 402,1693 402,2131 402,2569 1041,2924 1829,2924 2617,2924 3256,2569 3256,2131 3256,1693 2617,1337 1829,1337 Z"/>
  <path fill="rgb(255,204,153)" stroke="none" d="M 1758,1267 C 971,1267 332,1622 332,2060 332,2498 971,2853 1758,2853 2546,2853 3185,2498 3185,2060 3185,1622 2546,1267 1758,1267 Z"/>
  <path stroke-width="26" fill="none" stroke="rgb(0,0,0)" d="M 1758,1267 C 971,1267 332,1622 332,2060 332,2498 971,2853 1758,2853 2546,2853 3185,2498 3185,2060 3185,1622 2546,1267 1758,1267 Z"/>
  <text fill="rgb(0,0,0)" stroke="none" x="402" y="1980">i</text>
  <text fill="rgb(0,0,0)" stroke="none" x="495" y="1980">-</text>
  <text fill="rgb(0,0,0)" stroke="none" x="634" y="1980">
   <tspan x="634 938 1289 1572 1690 1808">DMA, e</tspan></text>
  <text fill="rgb(0,0,0)" stroke="none" x="2046" y="1980">-</text>
  <text fill="rgb(0,0,0)" stroke="none" x="2185" y="1980">
   <tspan x="2185 2489 2840">DMA</tspan></text>
  <text fill="rgb(0,0,0)" stroke="none" x="934" y="2483">
   <tspan x="934 1285 1522 1754 1991 2219 2456">Manager</tspan></text>
  <text fill="rgb(129,138,143)" stroke="none" x="803" y="4273">
   <tspan x="803 1086 1318 1550 1905 1998 2209 2420 2509 2746">Submission</tspan></text>
  <text fill="rgb(129,138,143)" stroke="none" x="1057" y="4776">
   <tspan x="1057 1408 1645 1877 2114 2342 2579">Manager</tspan></text>
  <path fill="rgb(129,138,143)" stroke="none" d="M 1882,3559 C 1065,3559 403,3914 403,4352 403,4790 1065,5145 1882,5145 2699,5145 3361,4790 3361,4352 3361,3914 2699,3559 1882,3559 Z"/>
  <path fill="rgb(255,204,153)" stroke="none" d="M 1811,3488 C 994,3488 332,3843 332,4281 332,4720 994,5075 1811,5075 2629,5075 3291,4720 3291,4281 3291,3843 2629,3488 1811,3488 Z"/>
  <path stroke-width="26" fill="none" stroke="rgb(0,0,0)" d="M 1811,3488 C 994,3488 332,3843 332,4281 332,4720 994,5075 1811,5075 2629,5075 3291,4720 3291,4281 3291,3843 2629,3488 1811,3488 Z"/>
  <text fill="rgb(0,0,0)" stroke="none" x="731" y="4201">
   <tspan x="731 1014 1246 1478 1833 1926 2137 2348 2437 2674">Submission</tspan></text>
  <text fill="rgb(0,0,0)" stroke="none" x="985" y="4704">
   <tspan x="985 1336 1573 1805 2042 2270 2507">Manager</tspan></text>
  <text fill="rgb(129,138,143)" stroke="none" x="824" y="6494">
   <tspan x="824 1128 1360 1715 1947 2040 2277 2395 2484 2716">Completion</tspan></text>
  <text fill="rgb(129,138,143)" stroke="none" x="1057" y="6997">
   <tspan x="1057 1408 1645 1877 2114 2342 2579">Manager</tspan></text>
  <path fill="rgb(129,138,143)" stroke="none" d="M 1882,5780 C 1065,5780 403,6135 403,6573 403,7011 1065,7367 1882,7367 2699,7367 3361,7011 3361,6573 3361,6135 2699,5780 1882,5780 Z"/>
  <path fill="rgb(255,204,153)" stroke="none" d="M 1811,5709 C 994,5709 332,6065 332,6502 332,6941 994,7296 1811,7296 2629,7296 3291,6941 3291,6502 3291,6065 2629,5709 1811,5709 Z"/>
  <path stroke-width="26" fill="none" stroke="rgb(0,0,0)" d="M 1811,5709 C 994,5709 332,6065 332,6502 332,6941 994,7296 1811,7296 2629,7296 3291,6941 3291,6502 3291,6065 2629,5709 1811,5709 Z"/>
  <text fill="rgb(0,0,0)" stroke="none" x="753" y="6422">
   <tspan x="753 1057 1289 1644 1876 1969 2206 2324 2413 2645">Completion</tspan></text>
  <text fill="rgb(0,0,0)" stroke="none" x="985" y="6925">
   <tspan x="985 1336 1573 1805 2042 2270 2507">Manager</tspan></text>
  <text fill="rgb(129,138,143)" stroke="none" x="1454" y="8715">
   <tspan x="1454 1758 1995 2206">Host</tspan></text>
  <text fill="rgb(129,138,143)" stroke="none" x="1057" y="9219">
   <tspan x="1057 1408 1645 1877 2114 2342 2579">Manager</tspan></text>
  <path fill="rgb(129,138,143)" stroke="none" d="M 1882,8001 C 1065,8001 403,8356 403,8794 403,9232 1065,9588 1882,9588 2699,9588 3361,9232 3361,8794 3361,8356 2699,8001 1882,8001 Z"/>
  <path fill="rgb(255,204,153)" stroke="none" d="M 1811,7930 C 994,7930 332,8286 332,8724 332,9162 994,9517 1811,9517 2629,9517 3291,9162 3291,8724 3291,8286 2629,7930 1811,7930 Z"/>
  <path stroke-width="26" fill="none" stroke="rgb(0,0,0)" d="M 1811,7930 C 994,7930 332,8286 332,8724 332,9162 994,9517 1811,9517 2629,9517 3291,9162 3291,8724 3291,8286 2629,7930 1811,7930 Z"/>
  <text fill="rgb(0,0,0)" stroke="none" x="1382" y="8643">
   <tspan x="1382 1686 1923 2134">Host</tspan></text>
  <text fill="rgb(0,0,0)" stroke="none" x="985" y="9147">
   <tspan x="985 1336 1573 1805 2042 2270 2507">Manager</tspan></text>
 </g>
 <g fill="rgb(0,0,0)" stroke="none" font-family="Tahoma" font-size="495" font-style="normal" font-weight="400">
  <text x="8196" y="617">
   <tspan x="8196 8467 8645 8916 9144 9406 9626 9846 10117 10290 10446 10742 11008 11422 11697 11811 12069">Processor Complex</tspan></text>
  <text fill="rgb(0,0,0)" stroke="none" x="905" y="617">
   <tspan x="905 1239 1510 1730 1895 2051 2233 2423">Host I/F</tspan></text>
  <text fill="rgb(0,0,0)" stroke="none" x="17389" y="617">
   <tspan x="17389 17647 17761 18019 18239 18514 18670 18856 19042">Flash I/F</tspan></text>
 </g>
 <g fill="rgb(129,138,143)" stroke="none" font-family="Arial" font-size="423" font-style="normal" font-weight="400">
  <text x="17854" y="5542">
   <tspan x="17854 18112 18205 18442 18653">Flash</tspan></text>
  <text fill="rgb(129,138,143)" stroke="none" x="17550" y="6045">
   <tspan x="17550 17668 17905 18023 18260 18395 18513 18750 18961">Interface</tspan></text>
  <path fill="rgb(129,138,143)" stroke="none" d="M 18366,4828 C 17550,4828 16887,5183 16887,5621 16887,6059 17550,6415 18366,6415 19183,6415 19846,6059 19846,5621 19846,5183 19183,4828 18366,4828 Z"/>
  <path fill="rgb(255,204,153)" stroke="none" d="M 18296,4757 C 17479,4757 16816,5113 16816,5550 16816,5989 17479,6344 18296,6344 19114,6344 19775,5989 19775,5550 19775,5113 19114,4757 18296,4757 Z"/>
  <path stroke-width="26" fill="none" stroke="rgb(0,0,0)" d="M 18296,4757 C 17479,4757 16816,5113 16816,5550 16816,5989 17479,6344 18296,6344 19114,6344 19775,5989 19775,5550 19775,5113 19114,4757 18296,4757 Z"/>
  <text fill="rgb(0,0,0)" stroke="none" x="17782" y="5470">
   <tspan x="17782 18040 18133 18370 18581">Flash</tspan></text>
  <text fill="rgb(0,0,0)" stroke="none" x="17478" y="5974">
   <tspan x="17478 17596 17833 17951 18188 18323 18441 18678 18889">Interface</tspan></text>
  <path fill="rgb(153,204,255)" stroke="none" d="M 3819,9834 L 3819,13325 10159,13325 10159,9834 3819,9834 Z"/>
  <path fill="none" stroke="none" d="M 3819,9834 L 3819,13325 10159,13325 10159,9834 3819,9834 Z"/>
  <path stroke-width="35" fill="none" stroke="rgb(0,0,0)" d="M 3819,9834 L 3819,13325 10159,13325 10159,9834 3819,9834 Z"/>
  <text fill="rgb(129,138,143)" stroke="none" x="5119" y="11186">
   <tspan x="5119 5423 5727 6031">DDR3</tspan></text>
  <path fill="rgb(129,138,143)" stroke="none" d="M 5686,10222 C 4869,10222 4207,10577 4207,11016 4207,11453 4869,11809 5686,11809 6503,11809 7166,11453 7166,11016 7166,10577 6503,10222 5686,10222 Z"/>
  <path fill="rgb(255,204,153)" stroke="none" d="M 5615,10151 C 4799,10151 4136,10507 4136,10945 4136,11383 4799,11738 5615,11738 6433,11738 7095,11383 7095,10945 7095,10507 6433,10151 5615,10151 Z"/>
  <path stroke-width="26" fill="none" stroke="rgb(0,0,0)" d="M 5615,10151 C 4799,10151 4136,10507 4136,10945 4136,11383 4799,11738 5615,11738 6433,11738 7095,11383 7095,10945 7095,10507 6433,10151 5615,10151 Z"/>
  <text fill="rgb(0,0,0)" stroke="none" x="5047" y="11114">
   <tspan x="5047 5351 5655 5959">DDR3</tspan></text>
 </g>
 <g fill="rgb(0,0,0)" stroke="none" font-family="Tahoma" font-size="495" font-style="normal" font-weight="400">
  <text x="5026" y="13944">
   <tspan x="5026 5406 5668 6078 6349 6527 6772 6928 7220 7491 7762 7927 8105 8376 8490 8600 8862">Memory Controller</tspan></text>
 </g>
 <g fill="rgb(129,138,143)" stroke="none" font-family="Arial" font-size="423" font-style="normal" font-weight="400">
  <text x="4967" y="2052">
   <tspan x="4967 5199 5436 5647 5858 5947 6184">Locking</tspan></text>
  <text fill="rgb(129,138,143)" stroke="none" x="4861" y="2555">
   <tspan x="4861 5212 5449 5681 5918 6146 6383">Manager</tspan></text>
  <path fill="rgb(129,138,143)" stroke="none" d="M 5686,1338 C 4869,1338 4207,1693 4207,2131 4207,2569 4869,2924 5686,2924 6503,2924 7166,2569 7166,2131 7166,1693 6503,1338 5686,1338 Z"/>
  <path fill="rgb(204,255,255)" stroke="none" d="M 5615,1267 C 4799,1267 4136,1622 4136,2060 4136,2498 4799,2853 5615,2853 6433,2853 7095,2498 7095,2060 7095,1622 6433,1267 5615,1267 Z"/>
  <path stroke-width="26" fill="none" stroke="rgb(0,0,0)" d="M 5615,1267 C 4799,1267 4136,1622 4136,2060 4136,2498 4799,2853 5615,2853 6433,2853 7095,2498 7095,2060 7095,1622 6433,1267 5615,1267 Z"/>
  <text fill="rgb(0,0,0)" stroke="none" x="4895" y="1980">
   <tspan x="4895 5127 5364 5575 5786 5875 6112">Locking</tspan></text>
  <text fill="rgb(0,0,0)" stroke="none" x="4789" y="2483">
   <tspan x="4789 5140 5377 5609 5846 6074 6311">Manager</tspan></text>
  <text fill="rgb(129,138,143)" stroke="none" x="8716" y="6494">
   <tspan x="8716 8999 9231 9586 9675 9912">Admin </tspan></text>
  <text fill="rgb(129,138,143)" stroke="none" x="10030" y="6494">
   <tspan x="10030 10334 10685">Cmd</tspan></text>
  <text fill="rgb(129,138,143)" stroke="none" x="8982" y="6997">
   <tspan x="8982 9333 9570 9802 10039 10267 10504">Manager</tspan></text>
  <path fill="rgb(129,138,143)" stroke="none" d="M 9807,5780 C 8990,5780 8328,6135 8328,6573 8328,7011 8990,7367 9807,7367 10624,7367 11287,7011 11287,6573 11287,6135 10624,5780 9807,5780 Z"/>
  <path fill="rgb(204,255,255)" stroke="none" d="M 9736,5709 C 8920,5709 8257,6065 8257,6502 8257,6941 8920,7296 9736,7296 10554,7296 11216,6941 11216,6502 11216,6065 10554,5709 9736,5709 Z"/>
  <path stroke-width="26" fill="none" stroke="rgb(0,0,0)" d="M 9736,5709 C 8920,5709 8257,6065 8257,6502 8257,6941 8920,7296 9736,7296 10554,7296 11216,6941 11216,6502 11216,6065 10554,5709 9736,5709 Z"/>
  <text fill="rgb(0,0,0)" stroke="none" x="8644" y="6422">
   <tspan x="8644 8927 9159 9514 9603 9840">Admin </tspan></text>
  <text fill="rgb(0,0,0)" stroke="none" x="9958" y="6422">
   <tspan x="9958 10262 10613">Cmd</tspan></text>
  <text fill="rgb(0,0,0)" stroke="none" x="8910" y="6925">
   <tspan x="8910 9261 9498 9730 9967 10195 10432">Manager</tspan></text>
  <rect fill="rgb(204,255,204)" stroke="none" x="12376" y="1265" width="3808" height="8254"/>
  <rect fill="rgb(127,127,127)" stroke="none" x="12378" y="1267" width="3805" height="8251"/>
  <rect fill="rgb(204,255,204)" stroke="none" x="12376" y="1265" width="3808" height="8254"/>
  <path fill="rgb(0,0,0)" stroke="rgb(0,0,0)" d="M 16182,1285 L 15901,1285 15901,1250 16182,1250 16182,1285 Z M 15796,1285 L 15513,1285 15513,1250 15796,1250 15796,1285 Z M 15408,1285 L 15126,1285 15126,1250 15408,1250 15408,1285 Z M 15020,1285 L 14739,1285 14739,1250 15020,1250 15020,1285 Z M 14633,1285 L 14351,1285 14351,1250 14633,1250 14633,1285 Z M 14245,1285 L 13963,1285 13963,1250 14245,1250 14245,1285 Z M 13858,1285 L 13576,1285 13576,1250 13858,1250 13858,1285 Z M 13471,1285 L 13189,1285 13189,1250 13471,1250 13471,1285 Z M 13083,1285 L 12801,1285 12801,1250 13083,1250 13083,1285 Z M 12695,1285 L 12414,1285 12414,1250 12695,1250 12695,1285 Z M 12396,1338 L 12396,1620 12361,1620 12361,1338 12396,1338 Z M 12396,1726 L 12396,2007 12361,2007 12361,1726 12396,1726 Z M 12396,2113 L 12396,2395 12361,2395 12361,2113 12396,2113 Z M 12396,2501 L 12396,2784 12361,2784 12361,2501 12396,2501 Z M 12396,2889 L 12396,3171 12361,3171 12361,2889 12396,2889 Z M 12396,3276 L 12396,3559 12361,3559 12361,3276 12396,3276 Z M 12396,3665 L 12396,3947 12361,3947 12361,3665 12396,3665 Z M 12396,4053 L 12396,4334 12361,4334 12361,4053 12396,4053 Z M 12396,4440 L 12396,4722 12361,4722 12361,4440 12396,4440 Z M 12396,4828 L 12396,5110 12361,5110 12361,4828 12396,4828 Z M 12396,5216 L 12396,5498 12361,5498 12361,5216 12396,5216 Z M 12396,5603 L 12396,5886 12361,5886 12361,5603 12396,5603 Z M 12396,5992 L 12396,6274 12361,6274 12361,5992 12396,5992 Z M 12396,6380 L 12396,6661 12361,6661 12361,6380 12396,6380 Z M 12396,6767 L 12396,7049 12361,7049 12361,6767 12396,6767 Z M 12396,7155 L 12396,7437 12361,7437 12361,7155 12396,7155 Z M 12396,7543 L 12396,7825 12361,7825 12361,7543 12396,7543 Z M 12396,7930 L 12396,8213 12361,8213 12361,7930 12396,7930 Z M 12396,8318 L 12396,8601 12361,8601 12361,8318 12396,8318 Z M 12396,8707 L 12396,8988 12361,8988 12361,8707 12396,8707 Z M 12396,9094 L 12396,9376 12361,9376 12361,9094 12396,9094 Z M 12396,9482 L 12396,9517 12378,9500 12625,9500 12625,9535 12361,9535 12361,9482 12396,9482 Z M 12731,9500 L 13012,9500 13012,9535 12731,9535 12731,9500 Z M 13118,9500 L 13400,9500 13400,9535 13118,9535 13118,9500 Z M 13506,9500 L 13788,9500 13788,9535 13506,9535 13506,9500 Z M 13894,9500 L 14175,9500 14175,9535 13894,9535 13894,9500 Z M 14280,9500 L 14562,9500 14562,9535 14280,9535 14280,9500 Z M 14668,9500 L 14950,9500 14950,9535 14668,9535 14668,9500 Z M 15056,9500 L 15337,9500 15337,9535 15056,9535 15056,9500 Z M 15443,9500 L 15725,9500 15725,9535 15443,9535 15443,9500 Z M 15830,9500 L 16113,9500 16113,9535 15830,9535 15830,9500 Z M 16165,9482 L 16165,9200 16200,9200 16200,9482 16165,9482 Z M 16165,9094 L 16165,8812 16200,8812 16200,9094 16165,9094 Z M 16165,8707 L 16165,8424 16200,8424 16200,8707 16165,8707 Z M 16165,8318 L 16165,8036 16200,8036 16200,8318 16165,8318 Z M 16165,7930 L 16165,7649 16200,7649 16200,7930 16165,7930 Z M 16165,7543 L 16165,7261 16200,7261 16200,7543 16165,7543 Z M 16165,7155 L 16165,6873 16200,6873 16200,7155 16165,7155 Z M 16165,6767 L 16165,6485 16200,6485 16200,6767 16165,6767 Z M 16165,6380 L 16165,6097 16200,6097 16200,6380 16165,6380 Z M 16165,5992 L 16165,5709 16200,5709 16200,5992 16165,5992 Z M 16165,5603 L 16165,5322 16200,5322 16200,5603 16165,5603 Z M 16165,5216 L 16165,4934 16200,4934 16200,5216 16165,5216 Z M 16165,4828 L 16165,4546 16200,4546 16200,4828 16165,4828 Z M 16165,4440 L 16165,4159 16200,4159 16200,4440 16165,4440 Z M 16165,4053 L 16165,3770 16200,3770 16200,4053 16165,4053 Z M 16165,3665 L 16165,3382 16200,3382 16200,3665 16165,3665 Z M 16165,3276 L 16165,2995 16200,2995 16200,3276 16165,3276 Z M 16165,2889 L 16165,2607 16200,2607 16200,2889 16165,2889 Z M 16165,2501 L 16165,2219 16200,2219 16200,2501 16165,2501 Z M 16165,2113 L 16165,1832 16200,1832 16200,2113 16165,2113 Z M 16165,1726 L 16165,1443 16200,1443 16200,1726 16165,1726 Z M 16165,1338 L 16165,1267 16200,1267 16200,1338 16165,1338 Z"/>
 </g>
 <g fill="rgb(0,0,0)" stroke="none" font-family="Tahoma" font-size="495" font-style="normal" font-weight="400">
  <text x="13885" y="5589">
   <tspan x="13885 14143 14430">FTL</tspan></text>
 </g>
 <g fill="rgb(129,138,143)" stroke="none" font-family="Arial" font-size="423" font-style="normal" font-weight="400">
  <text x="11573" y="10936">
   <tspan x="11573 11852 12182">XOR</tspan></text>
  <text fill="rgb(129,138,143)" stroke="none" x="11379" y="11440">
   <tspan x="11379 11662 11899 12131 12220 12452">Engine</tspan></text>
  <path fill="rgb(129,138,143)" stroke="none" d="M 12026,10222 C 11209,10222 10547,10577 10547,11016 10547,11453 11209,11809 12026,11809 12843,11809 13506,11453 13506,11016 13506,10577 12843,10222 12026,10222 Z"/>
  <path fill="rgb(255,204,153)" stroke="none" d="M 11956,10151 C 11139,10151 10476,10507 10476,10945 10476,11383 11139,11738 11956,11738 12773,11738 13435,11383 13435,10945 13435,10507 12773,10151 11956,10151 Z"/>
  <path stroke-width="26" fill="none" stroke="rgb(0,0,0)" d="M 11956,10151 C 11139,10151 10476,10507 10476,10945 10476,11383 11139,11738 11956,11738 12773,11738 13435,11383 13435,10945 13435,10507 12773,10151 11956,10151 Z"/>
  <text fill="rgb(0,0,0)" stroke="none" x="11501" y="10864">
   <tspan x="11501 11780 12110">XOR</tspan></text>
  <text fill="rgb(0,0,0)" stroke="none" x="11307" y="11368">
   <tspan x="11307 11590 11827 12059 12148 12380">Engine</tspan></text>
  <text fill="rgb(129,138,143)" stroke="none" x="12972" y="12205">
   <tspan x="12972 13209 13302 13513">List</tspan></text>
  <text fill="rgb(129,138,143)" stroke="none" x="12647" y="12709">
   <tspan x="12647 12930 13167 13399 13488 13720">Engine</tspan></text>
  <path fill="rgb(129,138,143)" stroke="none" d="M 13294,11492 C 12477,11492 11815,11846 11815,12285 11815,12723 12477,13078 13294,13078 14111,13078 14774,12723 14774,12285 14774,11846 14111,11492 13294,11492 Z"/>
  <path fill="rgb(255,204,153)" stroke="none" d="M 13224,11421 C 12407,11421 11744,11776 11744,12214 11744,12652 12407,13007 13224,13007 14041,13007 14703,12652 14703,12214 14703,11776 14041,11421 13224,11421 Z"/>
  <path stroke-width="26" fill="none" stroke="rgb(0,0,0)" d="M 13224,11421 C 12407,11421 11744,11776 11744,12214 11744,12652 12407,13007 13224,13007 14041,13007 14703,12652 14703,12214 14703,11776 14041,11421 13224,11421 Z"/>
  <text fill="rgb(0,0,0)" stroke="none" x="12900" y="12134">
   <tspan x="12900 13137 13230 13441">List</tspan></text>
  <text fill="rgb(0,0,0)" stroke="none" x="12575" y="12637">
   <tspan x="12575 12858 13095 13327 13416 13648">Engine</tspan></text>
  <text fill="rgb(129,138,143)" stroke="none" x="7980" y="10936">
   <tspan x="7980 8263 8495 8613 8731 8968">Buffer</tspan></text>
  <text fill="rgb(129,138,143)" stroke="none" x="7934" y="11440">
   <tspan x="7934 8217 8521 8804">SRAM</tspan></text>
  <path fill="rgb(129,138,143)" stroke="none" d="M 8539,10222 C 7722,10222 7060,10577 7060,11016 7060,11453 7722,11809 8539,11809 9356,11809 10019,11453 10019,11016 10019,10577 9356,10222 8539,10222 Z"/>
  <path fill="rgb(255,204,153)" stroke="none" d="M 8468,10151 C 7652,10151 6989,10507 6989,10945 6989,11383 7652,11738 8468,11738 9286,11738 9948,11383 9948,10945 9948,10507 9286,10151 8468,10151 Z"/>
  <path stroke-width="26" fill="none" stroke="rgb(0,0,0)" d="M 8468,10151 C 7652,10151 6989,10507 6989,10945 6989,11383 7652,11738 8468,11738 9286,11738 9948,11383 9948,10945 9948,10507 9286,10151 8468,10151 Z"/>
  <text fill="rgb(0,0,0)" stroke="none" x="7908" y="10864">
   <tspan x="7908 8191 8423 8541 8659 8896">Buffer</tspan></text>
  <text fill="rgb(0,0,0)" stroke="none" x="7862" y="11368">
   <tspan x="7862 8145 8449 8732">SRAM</tspan></text>
 </g>
 <g fill="rgb(0,0,0)" stroke="none" font-family="Tahoma" font-size="495" font-style="normal" font-weight="400">
  <text x="10935" y="13944">
   <tspan x="10935 11269 11527 11705 11980 12348 12606 12784 13042 13198 13494 13722 13950 14212 14322 14584 14762 15020 15181 15452 15630">Hardware Accelerators</tspan></text>
 </g>
 <g fill="rgb(129,138,143)" stroke="none" font-family="Arial" font-size="423" font-style="normal" font-weight="400">
  <text x="14320" y="10936">
   <tspan x="14320 14603 14835 14953 15071 15308">Buffer</tspan></text>
  <text fill="rgb(129,138,143)" stroke="none" x="14054" y="11440">
   <tspan x="14054 14405 14642 14874 15111 15339 15576">Manager</tspan></text>
  <path fill="rgb(129,138,143)" stroke="none" d="M 14879,10222 C 14063,10222 13400,10578 13400,11016 13400,11453 14063,11809 14879,11809 15696,11809 16359,11453 16359,11016 16359,10578 15696,10222 14879,10222 Z"/>
  <path fill="rgb(255,204,153)" stroke="none" d="M 14809,10151 C 13992,10151 13329,10507 13329,10945 13329,11384 13992,11738 14809,11738 15626,11738 16288,11384 16288,10945 16288,10507 15626,10151 14809,10151 Z"/>
  <path stroke-width="26" fill="none" stroke="rgb(0,0,0)" d="M 14809,10151 C 13992,10151 13329,10507 13329,10945 13329,11384 13992,11738 14809,11738 15626,11738 16288,11384 16288,10945 16288,10507 15626,10151 14809,10151 Z"/>
  <text fill="rgb(0,0,0)" stroke="none" x="14249" y="10864">
   <tspan x="14249 14532 14764 14882 15000 15237">Buffer</tspan></text>
  <text fill="rgb(0,0,0)" stroke="none" x="13982" y="11368">
   <tspan x="13982 14333 14570 14802 15039 15267 15504">Manager</tspan></text>
  <path fill="rgb(0,0,0)" stroke="rgb(0,0,0)" d="M 3291,4264 L 3291,4264 3351,4265 3412,4270 3472,4277 3532,4287 3592,4300 3650,4315 3709,4333 3766,4353 3822,4375 3877,4400 3931,4427 3984,4456 4035,4486 4085,4519 4133,4553 4179,4588 4224,4626 4267,4665 4307,4704 4345,4746 4381,4788 4414,4832 4445,4877 4473,4922 4498,4968 4521,5015 4540,5063 4540,5063 C 4540,5064 4540,5065 4541,5066 L 4541,5066 4556,5131 4522,5138 4506,5074 4507,5076 4489,5031 4467,4985 4443,4941 4416,4897 4386,4853 4354,4811 4319,4770 4282,4730 4243,4691 4202,4653 4158,4617 4113,4582 4066,4548 4017,4517 3967,4486 3916,4458 3863,4432 3809,4408 3754,4386 3698,4366 3641,4349 3584,4335 3526,4322 3468,4312 3410,4305 3350,4301 3291,4299 3291,4264 Z M 4638,5082 L 4638,5082 4568,5308 4429,5117 4638,5082 Z"/>
  <path fill="rgb(0,0,0)" stroke="rgb(0,0,0)" d="M 7096,5850 L 7096,5850 7150,5852 7205,5858 7259,5866 7312,5878 7364,5893 7412,5910 7459,5930 7503,5951 7543,5975 7579,6001 7611,6028 7639,6057 7662,6087 7662,6087 C 7662,6087 7662,6088 7663,6089 L 7663,6089 7679,6118 7685,6135 7690,6151 7693,6168 7694,6185 7694,6199 7697,6212 7701,6225 7706,6238 7720,6265 7719,6263 7740,6291 7765,6317 7795,6342 7829,6366 7867,6388 7908,6409 7953,6428 8000,6445 8049,6458 8046,6458 8085,6463 8080,6498 8042,6493 8042,6493 C 8040,6493 8040,6492 8039,6492 L 8039,6492 7988,6478 7939,6461 7892,6441 7849,6419 7809,6395 7772,6369 7740,6342 7712,6313 7691,6284 7691,6284 C 7690,6283 7690,6283 7690,6282 L 7690,6282 7673,6251 7666,6234 7662,6218 7660,6201 7659,6186 7658,6173 7656,6160 7652,6147 7648,6134 7632,6105 7633,6107 7614,6081 7588,6055 7559,6030 7524,6006 7487,5983 7446,5962 7401,5943 7354,5926 7305,5913 7254,5901 7201,5893 7149,5887 7094,5886 7096,5850 Z M 8061,6371 L 8061,6371 8257,6502 8035,6581 8061,6371 Z"/>
  <path fill="rgb(0,0,0)" stroke="rgb(0,0,0)" d="M 8629,7231 L 8603,7273 8603,7273 C 8602,7275 8601,7276 8600,7277 L 8600,7277 8579,7297 8557,7317 8532,7337 8506,7357 8478,7377 8448,7396 8417,7415 8384,7434 8315,7472 8239,7508 8158,7544 8072,7579 7980,7612 7884,7645 7783,7676 7679,7706 7569,7735 7457,7762 7340,7787 7222,7811 7099,7833 6974,7854 6847,7873 6718,7890 6586,7905 6453,7918 6319,7928 6183,7937 6047,7942 5911,7946 5774,7947 5638,7947 5501,7943 5364,7937 5229,7929 5095,7918 4962,7905 4831,7891 4702,7874 4575,7855 4450,7835 4327,7812 4208,7789 4092,7763 3980,7736 3871,7708 3766,7677 3665,7646 3569,7615 3478,7581 3391,7546 3310,7511 3234,7474 3164,7437 3132,7418 3100,7399 3071,7380 3043,7360 3017,7341 2993,7321 2969,7300 2948,7280 2948,7280 C 2947,7279 2946,7278 2946,7277 L 2946,7277 2921,7235 2951,7217 2976,7259 2973,7255 2993,7274 3014,7293 3039,7312 3063,7331 3090,7350 3119,7369 3150,7388 3181,7406 3249,7443 3324,7479 3404,7514 3489,7548 3580,7581 3675,7613 3775,7644 3879,7673 3988,7702 4100,7728 4215,7754 4334,7777 4455,7800 4579,7820 4706,7839 4835,7856 4966,7871 5098,7883 5231,7894 5366,7902 5502,7908 5638,7912 5773,7912 5910,7911 6045,7908 6181,7901 6316,7893 6450,7882 6582,7869 6713,7855 6842,7838 6968,7820 7093,7799 7214,7777 7333,7753 7448,7728 7560,7701 7669,7672 7773,7643 7872,7611 7968,7579 8058,7546 8144,7511 8224,7477 8298,7441 8366,7404 8399,7385 8429,7367 8457,7347 8484,7328 8510,7310 8533,7290 8555,7271 8576,7251 8573,7255 8598,7213 8629,7231 Z M 8503,7208 L 8503,7208 8689,7062 8694,7299 8503,7208 Z M 2856,7304 L 2856,7304 2860,7067 3047,7212 2856,7304 Z"/>
  <path fill="rgb(0,0,0)" stroke="rgb(0,0,0)" d="M 3361,2046 L 3492,2048 3799,2064 4105,2089 4409,2125 4711,2170 5009,2223 5304,2286 5595,2357 5881,2436 6162,2522 6436,2616 6704,2717 6965,2825 7218,2939 7462,3060 7698,3185 7924,3317 8139,3453 8344,3593 8538,3739 8720,3888 8889,4042 9045,4198 9187,4358 9315,4520 9427,4685 9525,4852 9605,5021 9640,5107 9669,5192 9695,5278 9716,5364 9733,5449 9742,5531 9707,5536 9698,5456 9682,5372 9661,5288 9637,5204 9607,5119 9574,5036 9494,4870 9398,4705 9287,4542 9161,4381 9020,4223 8865,4068 8697,3916 8517,3767 8325,3622 8121,3483 7906,3347 7681,3216 7447,3091 7203,2971 6951,2858 6692,2750 6425,2650 6151,2556 5872,2470 5587,2391 5297,2320 5003,2258 4706,2204 4405,2160 4102,2125 3798,2099 3492,2083 3361,2081 3361,2046 Z M 3395,2170 L 3185,2060 3398,1958 3395,2170 Z M 9827,5491 L 9736,5709 9617,5506 9827,5491 Z"/>
  <path fill="rgb(0,0,0)" stroke="rgb(0,0,0)" d="M 11391,6478 L 11391,6478 11486,6471 11550,6464 11610,6456 11668,6446 11721,6436 11770,6425 11814,6412 11853,6399 11870,6392 11885,6386 11899,6379 11911,6373 11920,6366 11928,6360 11933,6354 11932,6356 11937,6348 11935,6352 11939,6344 11937,6349 11938,6342 11939,6334 11939,6334 C 11940,6333 11940,6331 11941,6329 L 11944,6322 11944,6322 C 11944,6321 11945,6320 11945,6319 L 11951,6311 11951,6311 C 11951,6311 11952,6310 11952,6309 L 11952,6309 11960,6302 11970,6293 11982,6285 11996,6277 12012,6270 12028,6263 12046,6255 12087,6242 12133,6230 12183,6218 12238,6207 12296,6197 12358,6189 12422,6181 12518,6175 12521,6210 12426,6217 12362,6224 12302,6232 12245,6242 12191,6252 12142,6263 12098,6276 12059,6288 12042,6295 12027,6302 12014,6308 12002,6314 11993,6321 11985,6327 11978,6334 11980,6332 11975,6340 11976,6336 11973,6344 11974,6339 11973,6346 11972,6354 11972,6354 C 11972,6355 11971,6357 11971,6359 L 11968,6366 11968,6366 C 11967,6367 11967,6368 11966,6369 L 11961,6377 11961,6377 C 11960,6377 11960,6378 11959,6379 L 11959,6379 11950,6388 11940,6395 11928,6403 11914,6411 11899,6418 11883,6425 11865,6433 11824,6446 11779,6458 11728,6471 11673,6481 11615,6491 11553,6499 11489,6507 11393,6513 11391,6478 Z M 11431,6600 L 11431,6600 11216,6502 11423,6389 11431,6600 Z M 12480,6088 L 12480,6088 12695,6185 12489,6299 12480,6088 Z"/>
  <path fill="rgb(0,0,0)" stroke="rgb(0,0,0)" d="M 16640,5549 L 16640,5549 16597,5543 16573,5538 16553,5531 16535,5524 16519,5517 16507,5508 16507,5508 C 16506,5508 16505,5507 16504,5507 L 16495,5500 16495,5500 C 16494,5499 16493,5498 16493,5497 L 16488,5489 16488,5489 C 16486,5487 16486,5486 16485,5484 L 16485,5484 16482,5476 16481,5469 16483,5474 16478,5467 16481,5470 16473,5463 16475,5465 16463,5457 16451,5451 16435,5446 16417,5439 16396,5434 16356,5429 16360,5394 16405,5400 16427,5407 16448,5413 16465,5419 16481,5428 16493,5435 16493,5435 C 16494,5435 16495,5435 16495,5436 L 16504,5444 16504,5444 C 16506,5445 16506,5446 16507,5447 L 16512,5454 16512,5454 C 16513,5455 16514,5457 16515,5460 L 16515,5460 16517,5467 16518,5474 16516,5469 16521,5476 16518,5473 16527,5480 16525,5479 16534,5485 16548,5491 16564,5498 16582,5503 16601,5508 16644,5515 16640,5549 Z M 16619,5422 L 16619,5422 16816,5550 16595,5633 16619,5422 Z M 16381,5521 L 16381,5521 16182,5392 16404,5310 16381,5521 Z"/>
  <text fill="rgb(129,138,143)" stroke="none" x="13441" y="5542">
   <tspan x="13441 13792 14029 14261 14498 14587 14824">Mapping</tspan></text>
  <text fill="rgb(129,138,143)" stroke="none" x="13420" y="6045">
   <tspan x="13420 13771 14008 14240 14477 14705 14942">Manager</tspan></text>
  <path fill="rgb(129,138,143)" stroke="none" d="M 14245,4828 C 13429,4828 12766,5183 12766,5621 12766,6059 13429,6415 14245,6415 15062,6415 15725,6059 15725,5621 15725,5183 15062,4828 14245,4828 Z"/>
  <path fill="rgb(204,255,255)" stroke="none" d="M 14175,4757 C 13358,4757 12695,5113 12695,5550 12695,5989 13358,6344 14175,6344 14992,6344 15654,5989 15654,5550 15654,5113 14992,4757 14175,4757 Z"/>
  <path stroke-width="26" fill="none" stroke="rgb(0,0,0)" d="M 14175,4757 C 13358,4757 12695,5113 12695,5550 12695,5989 13358,6344 14175,6344 14992,6344 15654,5989 15654,5550 15654,5113 14992,4757 14175,4757 Z"/>
  <text fill="rgb(0,0,0)" stroke="none" x="13369" y="5470">
   <tspan x="13369 13720 13957 14189 14426 14515 14752">Mapping</tspan></text>
  <text fill="rgb(0,0,0)" stroke="none" x="13348" y="5974">
   <tspan x="13348 13699 13936 14168 14405 14633 14870">Manager</tspan></text>
  <text fill="rgb(129,138,143)" stroke="none" x="13441" y="5859">
   <tspan x="13441 13792 14029 14261 14498 14587 14824">Mapping</tspan></text>
  <text fill="rgb(129,138,143)" stroke="none" x="13420" y="6363">
   <tspan x="13420 13771 14008 14240 14477 14705 14942">Manager</tspan></text>
  <path fill="rgb(129,138,143)" stroke="none" d="M 14245,5145 C 13429,5145 12766,5501 12766,5939 12766,6377 13429,6732 14245,6732 15062,6732 15725,6377 15725,5939 15725,5501 15062,5145 14245,5145 Z"/>
  <path fill="rgb(204,255,255)" stroke="none" d="M 14175,5075 C 13358,5075 12695,5430 12695,5868 12695,6307 13358,6661 14175,6661 14992,6661 15654,6307 15654,5868 15654,5430 14992,5075 14175,5075 Z"/>
  <path stroke-width="26" fill="none" stroke="rgb(0,0,0)" d="M 14175,5075 C 13358,5075 12695,5430 12695,5868 12695,6307 13358,6661 14175,6661 14992,6661 15654,6307 15654,5868 15654,5430 14992,5075 14175,5075 Z"/>
  <text fill="rgb(0,0,0)" stroke="none" x="13369" y="5787">
   <tspan x="13369 13720 13957 14189 14426 14515 14752">Mapping</tspan></text>
  <text fill="rgb(0,0,0)" stroke="none" x="13348" y="6291">
   <tspan x="13348 13699 13936 14168 14405 14633 14870">Manager</tspan></text>
  <text fill="rgb(129,138,143)" stroke="none" x="13441" y="6177">
   <tspan x="13441 13792 14029 14261 14498 14587 14824">Mapping</tspan></text>
  <text fill="rgb(129,138,143)" stroke="none" x="13420" y="6680">
   <tspan x="13420 13771 14008 14240 14477 14705 14942">Manager</tspan></text>
  <path fill="rgb(129,138,143)" stroke="none" d="M 14245,5463 C 13429,5463 12766,5818 12766,6256 12766,6694 13429,7049 14245,7049 15062,7049 15725,6694 15725,6256 15725,5818 15062,5463 14245,5463 Z"/>
  <path fill="rgb(204,255,255)" stroke="none" d="M 14175,5392 C 13358,5392 12695,5747 12695,6185 12695,6624 13358,6978 14175,6978 14992,6978 15654,6624 15654,6185 15654,5747 14992,5392 14175,5392 Z"/>
  <path stroke-width="26" fill="none" stroke="rgb(0,0,0)" d="M 14175,5392 C 13358,5392 12695,5747 12695,6185 12695,6624 13358,6978 14175,6978 14992,6978 15654,6624 15654,6185 15654,5747 14992,5392 14175,5392 Z"/>
  <text fill="rgb(0,0,0)" stroke="none" x="13369" y="6105">
   <tspan x="13369 13720 13957 14189 14426 14515 14752">Mapping</tspan></text>
  <text fill="rgb(0,0,0)" stroke="none" x="13348" y="6608">
   <tspan x="13348 13699 13936 14168 14405 14633 14870">Manager</tspan></text>
  <text fill="rgb(129,138,143)" stroke="none" x="13441" y="6494">
   <tspan x="13441 13792 14029 14261 14498 14587 14824">Mapping</tspan></text>
  <text fill="rgb(129,138,143)" stroke="none" x="13420" y="6997">
   <tspan x="13420 13771 14008 14240 14477 14705 14942">Manager</tspan></text>
  <path fill="rgb(129,138,143)" stroke="none" d="M 14245,5780 C 13429,5780 12766,6135 12766,6573 12766,7011 13429,7367 14245,7367 15062,7367 15725,7011 15725,6573 15725,6135 15062,5780 14245,5780 Z"/>
  <path fill="rgb(204,255,255)" stroke="none" d="M 14175,5709 C 13358,5709 12695,6065 12695,6502 12695,6941 13358,7296 14175,7296 14992,7296 15654,6941 15654,6502 15654,6065 14992,5709 14175,5709 Z"/>
  <path stroke-width="26" fill="none" stroke="rgb(0,0,0)" d="M 14175,5709 C 13358,5709 12695,6065 12695,6502 12695,6941 13358,7296 14175,7296 14992,7296 15654,6941 15654,6502 15654,6065 14992,5709 14175,5709 Z"/>
  <text fill="rgb(0,0,0)" stroke="none" x="13369" y="6422">
   <tspan x="13369 13720 13957 14189 14426 14515 14752">Mapping</tspan></text>
  <text fill="rgb(0,0,0)" stroke="none" x="13348" y="6925">
   <tspan x="13348 13699 13936 14168 14405 14633 14870">Manager</tspan></text>
  <text fill="rgb(129,138,143)" stroke="none" x="13441" y="5542">
   <tspan x="13441 13792 14029 14261 14498 14587 14824">Mapping</tspan></text>
  <text fill="rgb(129,138,143)" stroke="none" x="13420" y="6045">
   <tspan x="13420 13771 14008 14240 14477 14705 14942">Manager</tspan></text>
  <path fill="rgb(129,138,143)" stroke="none" d="M 14245,4828 C 13429,4828 12766,5183 12766,5621 12766,6059 13429,6415 14245,6415 15062,6415 15725,6059 15725,5621 15725,5183 15062,4828 14245,4828 Z"/>
  <path fill="rgb(204,255,255)" stroke="none" d="M 14175,4757 C 13358,4757 12695,5113 12695,5550 12695,5989 13358,6344 14175,6344 14992,6344 15654,5989 15654,5550 15654,5113 14992,4757 14175,4757 Z"/>
  <path stroke-width="26" fill="none" stroke="rgb(0,0,0)" d="M 14175,4757 C 13358,4757 12695,5113 12695,5550 12695,5989 13358,6344 14175,6344 14992,6344 15654,5989 15654,5550 15654,5113 14992,4757 14175,4757 Z"/>
  <text fill="rgb(0,0,0)" stroke="none" x="13369" y="5470">
   <tspan x="13369 13720 13957 14189 14426 14515 14752">Mapping</tspan></text>
  <text fill="rgb(0,0,0)" stroke="none" x="13348" y="5974">
   <tspan x="13348 13699 13936 14168 14405 14633 14870">Manager</tspan></text>
  <text fill="rgb(129,138,143)" stroke="none" x="13441" y="5859">
   <tspan x="13441 13792 14029 14261 14498 14587 14824">Mapping</tspan></text>
  <text fill="rgb(129,138,143)" stroke="none" x="13420" y="6363">
   <tspan x="13420 13771 14008 14240 14477 14705 14942">Manager</tspan></text>
  <path fill="rgb(129,138,143)" stroke="none" d="M 14245,5145 C 13429,5145 12766,5501 12766,5939 12766,6377 13429,6732 14245,6732 15062,6732 15725,6377 15725,5939 15725,5501 15062,5145 14245,5145 Z"/>
  <path fill="rgb(204,255,255)" stroke="none" d="M 14175,5075 C 13358,5075 12695,5430 12695,5868 12695,6307 13358,6661 14175,6661 14992,6661 15654,6307 15654,5868 15654,5430 14992,5075 14175,5075 Z"/>
  <path stroke-width="26" fill="none" stroke="rgb(0,0,0)" d="M 14175,5075 C 13358,5075 12695,5430 12695,5868 12695,6307 13358,6661 14175,6661 14992,6661 15654,6307 15654,5868 15654,5430 14992,5075 14175,5075 Z"/>
  <text fill="rgb(0,0,0)" stroke="none" x="13369" y="5787">
   <tspan x="13369 13720 13957 14189 14426 14515 14752">Mapping</tspan></text>
  <text fill="rgb(0,0,0)" stroke="none" x="13348" y="6291">
   <tspan x="13348 13699 13936 14168 14405 14633 14870">Manager</tspan></text>
  <text fill="rgb(129,138,143)" stroke="none" x="13441" y="6177">
   <tspan x="13441 13792 14029 14261 14498 14587 14824">Mapping</tspan></text>
  <text fill="rgb(129,138,143)" stroke="none" x="13420" y="6680">
   <tspan x="13420 13771 14008 14240 14477 14705 14942">Manager</tspan></text>
  <path fill="rgb(129,138,143)" stroke="none" d="M 14245,5463 C 13429,5463 12766,5818 12766,6256 12766,6694 13429,7049 14245,7049 15062,7049 15725,6694 15725,6256 15725,5818 15062,5463 14245,5463 Z"/>
  <path fill="rgb(204,255,255)" stroke="none" d="M 14175,5392 C 13358,5392 12695,5747 12695,6185 12695,6624 13358,6978 14175,6978 14992,6978 15654,6624 15654,6185 15654,5747 14992,5392 14175,5392 Z"/>
  <path stroke-width="26" fill="none" stroke="rgb(0,0,0)" d="M 14175,5392 C 13358,5392 12695,5747 12695,6185 12695,6624 13358,6978 14175,6978 14992,6978 15654,6624 15654,6185 15654,5747 14992,5392 14175,5392 Z"/>
  <text fill="rgb(0,0,0)" stroke="none" x="13369" y="6105">
   <tspan x="13369 13720 13957 14189 14426 14515 14752">Mapping</tspan></text>
  <text fill="rgb(0,0,0)" stroke="none" x="13348" y="6608">
   <tspan x="13348 13699 13936 14168 14405 14633 14870">Manager</tspan></text>
  <text fill="rgb(129,138,143)" stroke="none" x="13441" y="6494">
   <tspan x="13441 13792 14029 14261 14498 14587 14824">Mapping</tspan></text>
  <text fill="rgb(129,138,143)" stroke="none" x="13420" y="6997">
   <tspan x="13420 13771 14008 14240 14477 14705 14942">Manager</tspan></text>
  <path fill="rgb(129,138,143)" stroke="none" d="M 14245,5780 C 13429,5780 12766,6135 12766,6573 12766,7011 13429,7367 14245,7367 15062,7367 15725,7011 15725,6573 15725,6135 15062,5780 14245,5780 Z"/>
  <path fill="rgb(204,255,255)" stroke="none" d="M 14175,5709 C 13358,5709 12695,6065 12695,6502 12695,6941 13358,7296 14175,7296 14992,7296 15654,6941 15654,6502 15654,6065 14992,5709 14175,5709 Z"/>
  <path stroke-width="26" fill="none" stroke="rgb(0,0,0)" d="M 14175,5709 C 13358,5709 12695,6065 12695,6502 12695,6941 13358,7296 14175,7296 14992,7296 15654,6941 15654,6502 15654,6065 14992,5709 14175,5709 Z"/>
  <text fill="rgb(0,0,0)" stroke="none" x="13369" y="6422">
   <tspan x="13369 13720 13957 14189 14426 14515 14752">Mapping</tspan></text>
  <text fill="rgb(0,0,0)" stroke="none" x="13348" y="6925">
   <tspan x="13348 13699 13936 14168 14405 14633 14870">Manager</tspan></text>
  <text fill="rgb(129,138,143)" stroke="none" x="13881" y="2369">
   <tspan x="13881 14092 14324 14561 14700 14932 15169">Journal</tspan></text>
  <text fill="rgb(129,138,143)" stroke="none" x="13737" y="2872">
   <tspan x="13737 14088 14325 14557 14794 15022 15259">Manager</tspan></text>
  <path fill="rgb(129,138,143)" stroke="none" d="M 14562,1655 C 13746,1655 13083,2010 13083,2448 13083,2886 13746,3242 14562,3242 15379,3242 16042,2886 16042,2448 16042,2010 15379,1655 14562,1655 Z"/>
  <path fill="rgb(204,255,255)" stroke="none" d="M 14492,1584 C 13675,1584 13012,1940 13012,2377 13012,2816 13675,3171 14492,3171 15309,3171 15971,2816 15971,2377 15971,1940 15309,1584 14492,1584 Z"/>
  <path stroke-width="26" fill="none" stroke="rgb(0,0,0)" d="M 14492,1584 C 13675,1584 13012,1940 13012,2377 13012,2816 13675,3171 14492,3171 15309,3171 15971,2816 15971,2377 15971,1940 15309,1584 14492,1584 Z"/>
  <text fill="rgb(0,0,0)" stroke="none" x="13809" y="2297">
   <tspan x="13809 14020 14252 14489 14628 14860 15097">Journal</tspan></text>
  <text fill="rgb(0,0,0)" stroke="none" x="13665" y="2800">
   <tspan x="13665 14016 14253 14485 14722 14950 15187">Manager</tspan></text>
  <text fill="rgb(129,138,143)" stroke="none" x="14050" y="3955">
   <tspan x="14050 14333 14426 14663 14874">Block</tspan></text>
  <text fill="rgb(129,138,143)" stroke="none" x="13737" y="4459">
   <tspan x="13737 14088 14325 14557 14794 15022 15259">Manager</tspan></text>
  <path fill="rgb(129,138,143)" stroke="none" d="M 14562,3242 C 13746,3242 13083,3597 13083,4035 13083,4473 13746,4828 14562,4828 15379,4828 16042,4473 16042,4035 16042,3597 15379,3242 14562,3242 Z"/>
  <path fill="rgb(204,255,255)" stroke="none" d="M 14492,3171 C 13675,3171 13012,3526 13012,3964 13012,4403 13675,4757 14492,4757 15309,4757 15971,4403 15971,3964 15971,3526 15309,3171 14492,3171 Z"/>
  <path stroke-width="26" fill="none" stroke="rgb(0,0,0)" d="M 14492,3171 C 13675,3171 13012,3526 13012,3964 13012,4403 13675,4757 14492,4757 15309,4757 15971,4403 15971,3964 15971,3526 15309,3171 14492,3171 Z"/>
  <text fill="rgb(0,0,0)" stroke="none" x="13978" y="3884">
   <tspan x="13978 14261 14354 14591 14802">Block</tspan></text>
  <text fill="rgb(0,0,0)" stroke="none" x="13665" y="4387">
   <tspan x="13665 14016 14253 14485 14722 14950 15187">Manager</tspan></text>
  <text fill="rgb(129,138,143)" stroke="none" x="13682" y="8080">
   <tspan x="13682 13986 14223 14430 14667 14874 15111 15250">Recovery</tspan></text>
  <text fill="rgb(129,138,143)" stroke="none" x="13737" y="8584">
   <tspan x="13737 14088 14325 14557 14794 15022 15259">Manager</tspan></text>
  <path fill="rgb(129,138,143)" stroke="none" d="M 14562,7367 C 13746,7367 13083,7722 13083,8160 13083,8598 13746,8953 14562,8953 15379,8953 16042,8598 16042,8160 16042,7722 15379,7367 14562,7367 Z"/>
  <path fill="rgb(204,255,255)" stroke="none" d="M 14492,7296 C 13675,7296 13012,7651 13012,8089 13012,8528 13675,8882 14492,8882 15309,8882 15971,8528 15971,8089 15971,7651 15309,7296 14492,7296 Z"/>
  <path stroke-width="26" fill="none" stroke="rgb(0,0,0)" d="M 14492,7296 C 13675,7296 13012,7651 13012,8089 13012,8528 13675,8882 14492,8882 15309,8882 15971,8528 15971,8089 15971,7651 15309,7296 14492,7296 Z"/>
  <text fill="rgb(0,0,0)" stroke="none" x="13610" y="8009">
   <tspan x="13610 13914 14151 14358 14595 14802 15039 15178">Recovery</tspan></text>
  <text fill="rgb(0,0,0)" stroke="none" x="13665" y="8512">
   <tspan x="13665 14016 14253 14485 14722 14950 15187">Manager</tspan></text>
  <text fill="rgb(129,138,143)" stroke="none" x="13682" y="8398">
   <tspan x="13682 13986 14223 14430 14667 14874 15111 15250">Recovery</tspan></text>
  <text fill="rgb(129,138,143)" stroke="none" x="13737" y="8901">
   <tspan x="13737 14088 14325 14557 14794 15022 15259">Manager</tspan></text>
  <path fill="rgb(129,138,143)" stroke="none" d="M 14562,7684 C 13746,7684 13083,8039 13083,8477 13083,8915 13746,9270 14562,9270 15379,9270 16042,8915 16042,8477 16042,8039 15379,7684 14562,7684 Z"/>
  <path fill="rgb(204,255,255)" stroke="none" d="M 14492,7613 C 13675,7613 13012,7968 13012,8406 13012,8845 13675,9200 14492,9200 15309,9200 15971,8845 15971,8406 15971,7968 15309,7613 14492,7613 Z"/>
  <path stroke-width="26" fill="none" stroke="rgb(0,0,0)" d="M 14492,7613 C 13675,7613 13012,7968 13012,8406 13012,8845 13675,9200 14492,9200 15309,9200 15971,8845 15971,8406 15971,7968 15309,7613 14492,7613 Z"/>
  <text fill="rgb(0,0,0)" stroke="none" x="13610" y="8326">
   <tspan x="13610 13914 14151 14358 14595 14802 15039 15178">Recovery</tspan></text>
  <text fill="rgb(0,0,0)" stroke="none" x="13665" y="8829">
   <tspan x="13665 14016 14253 14485 14722 14950 15187">Manager</tspan></text>
  <text fill="rgb(129,138,143)" stroke="none" x="13682" y="8080">
   <tspan x="13682 13986 14223 14430 14667 14874 15111 15250">Recovery</tspan></text>
  <text fill="rgb(129,138,143)" stroke="none" x="13737" y="8584">
   <tspan x="13737 14088 14325 14557 14794 15022 15259">Manager</tspan></text>
  <path fill="rgb(129,138,143)" stroke="none" d="M 14562,7367 C 13746,7367 13083,7722 13083,8160 13083,8598 13746,8953 14562,8953 15379,8953 16042,8598 16042,8160 16042,7722 15379,7367 14562,7367 Z"/>
  <path fill="rgb(204,255,255)" stroke="none" d="M 14492,7296 C 13675,7296 13012,7651 13012,8089 13012,8528 13675,8882 14492,8882 15309,8882 15971,8528 15971,8089 15971,7651 15309,7296 14492,7296 Z"/>
  <path stroke-width="26" fill="none" stroke="rgb(0,0,0)" d="M 14492,7296 C 13675,7296 13012,7651 13012,8089 13012,8528 13675,8882 14492,8882 15309,8882 15971,8528 15971,8089 15971,7651 15309,7296 14492,7296 Z"/>
  <text fill="rgb(0,0,0)" stroke="none" x="13610" y="8009">
   <tspan x="13610 13914 14151 14358 14595 14802 15039 15178">Recovery</tspan></text>
  <text fill="rgb(0,0,0)" stroke="none" x="13665" y="8512">
   <tspan x="13665 14016 14253 14485 14722 14950 15187">Manager</tspan></text>
  <text fill="rgb(129,138,143)" stroke="none" x="13682" y="8398">
   <tspan x="13682 13986 14223 14430 14667 14874 15111 15250">Recovery</tspan></text>
  <text fill="rgb(129,138,143)" stroke="none" x="13737" y="8901">
   <tspan x="13737 14088 14325 14557 14794 15022 15259">Manager</tspan></text>
  <path fill="rgb(129,138,143)" stroke="none" d="M 14562,7684 C 13746,7684 13083,8039 13083,8477 13083,8915 13746,9270 14562,9270 15379,9270 16042,8915 16042,8477 16042,8039 15379,7684 14562,7684 Z"/>
  <path fill="rgb(204,255,255)" stroke="none" d="M 14492,7613 C 13675,7613 13012,7968 13012,8406 13012,8845 13675,9200 14492,9200 15309,9200 15971,8845 15971,8406 15971,7968 15309,7613 14492,7613 Z"/>
  <path stroke-width="26" fill="none" stroke="rgb(0,0,0)" d="M 14492,7613 C 13675,7613 13012,7968 13012,8406 13012,8845 13675,9200 14492,9200 15309,9200 15971,8845 15971,8406 15971,7968 15309,7613 14492,7613 Z"/>
  <text fill="rgb(0,0,0)" stroke="none" x="13610" y="8326">
   <tspan x="13610 13914 14151 14358 14595 14802 15039 15178">Recovery</tspan></text>
  <text fill="rgb(0,0,0)" stroke="none" x="13665" y="8829">
   <tspan x="13665 14016 14253 14485 14722 14950 15187">Manager</tspan></text>
 </g>
 <g fill="rgb(129,138,143)" stroke="none" font-family="Tahoma" font-size="495" font-style="normal" font-weight="400">
  <text x="4079" y="4395">1</text>
  <path fill="rgb(129,138,143)" stroke="none" d="M 4207,3876 C 4031,3876 3890,4018 3890,4193 3890,4368 4031,4510 4207,4510 4382,4510 4524,4368 4524,4193 4524,4018 4382,3876 4207,3876 Z"/>
  <path fill="rgb(255,255,255)" stroke="none" d="M 4136,3805 C 3961,3805 3819,3948 3819,4123 3819,4298 3961,4440 4136,4440 4311,4440 4453,4298 4453,4123 4453,3948 4311,3805 4136,3805 Z"/>
  <path stroke-width="35" fill="none" stroke="rgb(255,0,0)" d="M 4136,3805 C 3961,3805 3819,3948 3819,4123 3819,4298 3961,4440 4136,4440 4311,4440 4453,4298 4453,4123 4453,3948 4311,3805 4136,3805 Z"/>
  <text fill="rgb(0,0,0)" stroke="none" x="4007" y="4324">1</text>
  <text fill="rgb(129,138,143)" stroke="none" x="7566" y="6934">2</text>
  <path fill="rgb(129,138,143)" stroke="none" d="M 7694,6415 C 7518,6415 7377,6556 7377,6732 7377,6907 7518,7049 7694,7049 7869,7049 8011,6907 8011,6732 8011,6556 7869,6415 7694,6415 Z"/>
  <path fill="rgb(255,255,255)" stroke="none" d="M 7623,6344 C 7448,6344 7306,6486 7306,6661 7306,6837 7448,6978 7623,6978 7799,6978 7940,6837 7940,6661 7940,6486 7799,6344 7623,6344 Z"/>
  <path stroke-width="35" fill="none" stroke="rgb(255,0,0)" d="M 7623,6344 C 7448,6344 7306,6486 7306,6661 7306,6837 7448,6978 7623,6978 7799,6978 7940,6837 7940,6661 7940,6486 7799,6344 7623,6344 Z"/>
  <text fill="rgb(0,0,0)" stroke="none" x="7494" y="6862">2</text>
  <path fill="rgb(0,0,0)" stroke="rgb(0,0,0)" d="M 8655,5769 L 8655,5769 8652,5734 8637,5667 8619,5599 8596,5531 8570,5464 8541,5399 8508,5334 8472,5270 8433,5208 8391,5147 8346,5088 8298,5031 8249,4976 8196,4922 8141,4871 8085,4822 8026,4776 7965,4732 7904,4691 7840,4652 7775,4617 7709,4585 7642,4556 7573,4531 7504,4509 7434,4491 7364,4477 7294,4466 7223,4460 7152,4458 7080,4458 7009,4462 6938,4466 6867,4472 6797,4480 6728,4489 6591,4512 6459,4541 6396,4557 6333,4574 6273,4593 6214,4613 6157,4633 6103,4655 6050,4677 6000,4701 5952,4725 5908,4750 5866,4776 5827,4802 5791,4829 5759,4856 5730,4883 5733,4879 5706,4924 5676,4906 5703,4861 5703,4861 C 5704,4859 5705,4858 5706,4857 L 5706,4857 5736,4828 5770,4800 5807,4773 5848,4746 5891,4719 5937,4694 5985,4669 6036,4645 6089,4622 6145,4600 6202,4579 6262,4559 6324,4540 6387,4523 6452,4506 6585,4477 6723,4454 6793,4445 6864,4437 6936,4431 7008,4426 7080,4423 7153,4422 7226,4425 7299,4431 7372,4442 7443,4457 7515,4475 7586,4498 7655,4524 7725,4553 7792,4586 7858,4622 7923,4661 7987,4703 8048,4748 8108,4795 8166,4846 8221,4897 8275,4952 8326,5008 8374,5067 8420,5127 8463,5189 8503,5253 8539,5318 8573,5384 8603,5452 8630,5520 8653,5589 8672,5659 8687,5731 8690,5766 8655,5769 Z M 8775,5723 L 8775,5723 8689,5943 8564,5742 8775,5723 Z M 5801,4929 L 5801,4929 5615,5075 5610,4838 5801,4929 Z"/>
  <path fill="rgb(0,0,0)" stroke="rgb(0,0,0)" d="M 8660,5769 L 8660,5769 8652,5690 8637,5607 8619,5524 8596,5442 8570,5361 8540,5281 8508,5202 8472,5125 8432,5050 8390,4976 8345,4904 8297,4835 8248,4767 8195,4703 8140,4641 8084,4581 8025,4525 7964,4472 7903,4422 7839,4376 7774,4333 7708,4294 7641,4260 7572,4229 7503,4202 7433,4181 7364,4163 7293,4151 7223,4143 7152,4141 7080,4141 7009,4144 6938,4148 6867,4155 6797,4162 6728,4172 6591,4195 6459,4224 6396,4239 6333,4257 6273,4275 6214,4296 6157,4316 6103,4337 6050,4360 6000,4384 5952,4408 5908,4433 5866,4458 5827,4484 5791,4511 5759,4538 5730,4565 5733,4562 5706,4607 5676,4589 5703,4544 5703,4544 C 5704,4542 5705,4541 5706,4540 L 5706,4540 5736,4511 5770,4483 5807,4455 5848,4428 5891,4402 5937,4376 5985,4352 6036,4328 6089,4305 6145,4283 6202,4262 6262,4242 6324,4223 6387,4206 6452,4189 6585,4160 6723,4137 6793,4127 6864,4119 6936,4114 7008,4109 7080,4106 7153,4105 7226,4108 7299,4116 7372,4129 7444,4147 7516,4170 7587,4197 7656,4228 7726,4264 7793,4304 7860,4347 7924,4395 7988,4446 8049,4500 8109,4557 8167,4617 8222,4681 8276,4747 8326,4815 8375,4886 8420,4958 8464,5033 8503,5110 8540,5189 8574,5269 8604,5350 8630,5433 8653,5516 8672,5601 8687,5686 8695,5766 8660,5769 Z M 8781,5725 L 8781,5725 8689,5943 8570,5739 8781,5725 Z M 5801,4611 L 5801,4611 5615,4757 5610,4521 5801,4611 Z"/>
  <path fill="rgb(0,0,0)" stroke="rgb(0,0,0)" d="M 8663,5769 L 8663,5769 8652,5645 8637,5547 8619,5449 8596,5353 8570,5257 8540,5164 8507,5071 8471,4980 8432,4892 8390,4805 8345,4721 8297,4639 8247,4560 8194,4484 8139,4411 8083,4341 8024,4275 7963,4212 7902,4154 7838,4100 7773,4050 7707,4004 7639,3963 7571,3927 7502,3896 7433,3870 7363,3850 7293,3835 7222,3826 7152,3823 7080,3824 7009,3827 6938,3832 6867,3838 6797,3845 6728,3854 6591,3878 6459,3906 6396,3923 6333,3940 6273,3959 6213,3978 6157,3999 6103,4021 6050,4043 6000,4067 5952,4091 5908,4116 5866,4141 5827,4167 5791,4194 5759,4221 5730,4248 5733,4244 5706,4290 5676,4272 5703,4226 5703,4226 C 5704,4225 5705,4224 5706,4223 L 5706,4223 5736,4193 5770,4165 5807,4138 5848,4111 5891,4085 5937,4059 5985,4034 6036,4010 6089,3988 6145,3966 6203,3944 6262,3925 6324,3906 6387,3888 6452,3872 6585,3843 6723,3820 6793,3810 6864,3803 6936,3796 7008,3792 7080,3789 7153,3788 7227,3792 7300,3801 7373,3816 7445,3838 7517,3864 7588,3896 7657,3933 7727,3975 7794,4022 7861,4073 7925,4128 7989,4188 8051,4252 8110,4319 8168,4390 8223,4464 8277,4541 8327,4621 8375,4704 8421,4789 8464,4877 8504,4967 8540,5059 8574,5153 8604,5248 8630,5345 8653,5443 8672,5541 8687,5642 8698,5765 8663,5769 Z M 8784,5727 L 8784,5727 8689,5943 8574,5737 8784,5727 Z M 5801,4294 L 5801,4294 5615,4440 5610,4203 5801,4294 Z"/>
  <path fill="rgb(0,0,0)" stroke="rgb(0,0,0)" d="M 8665,5768 L 8665,5768 8663,5714 8652,5601 8637,5488 8619,5375 8596,5264 8570,5154 8540,5046 8507,4940 8471,4835 8431,4733 8389,4634 8344,4537 8296,4443 8246,4352 8194,4265 8139,4181 8082,4100 8024,4025 7963,3953 7900,3886 7837,3823 7772,3766 7706,3713 7638,3666 7570,3625 7502,3590 7432,3560 7397,3547 7363,3537 7327,3528 7292,3520 7257,3514 7222,3510 7187,3507 7152,3506 7080,3507 7009,3510 6938,3514 6867,3520 6797,3528 6728,3537 6591,3560 6459,3589 6396,3605 6333,3623 6273,3641 6213,3661 6157,3682 6103,3703 6050,3726 6000,3749 5952,3774 5908,3798 5866,3824 5827,3850 5791,3877 5759,3904 5730,3931 5733,3927 5706,3972 5676,3954 5703,3909 5703,3909 C 5704,3907 5705,3906 5706,3905 L 5706,3905 5736,3876 5770,3848 5807,3821 5848,3794 5891,3767 5937,3742 5985,3717 6036,3693 6089,3670 6145,3648 6203,3627 6262,3607 6324,3588 6387,3571 6452,3555 6585,3526 6723,3502 6793,3493 6864,3485 6936,3479 7008,3475 7080,3472 7153,3471 7189,3472 7227,3474 7263,3479 7300,3485 7336,3493 7373,3503 7409,3514 7446,3527 7517,3558 7589,3595 7659,3638 7728,3686 7795,3739 7861,3798 7926,3862 7989,3930 8051,4003 8111,4080 8168,4161 8224,4246 8277,4335 8328,4427 8376,4522 8421,4620 8464,4721 8504,4824 8540,4930 8574,5037 8604,5146 8630,5257 8653,5370 8672,5483 8687,5597 8698,5713 8700,5766 8665,5768 Z M 8787,5728 L 8787,5728 8689,5943 8576,5736 8787,5728 Z M 5801,3977 L 5801,3977 5615,4123 5610,3886 5801,3977 Z"/>
  <text fill="rgb(129,138,143)" stroke="none" x="6298" y="4395">3</text>
  <path fill="rgb(129,138,143)" stroke="none" d="M 6426,3876 C 6250,3876 6109,4018 6109,4193 6109,4368 6250,4510 6426,4510 6601,4510 6743,4368 6743,4193 6743,4018 6601,3876 6426,3876 Z"/>
  <path fill="rgb(255,255,255)" stroke="none" d="M 6355,3805 C 6180,3805 6038,3948 6038,4123 6038,4298 6180,4440 6355,4440 6530,4440 6672,4298 6672,4123 6672,3948 6530,3805 6355,3805 Z"/>
  <path stroke-width="35" fill="none" stroke="rgb(255,0,0)" d="M 6355,3805 C 6180,3805 6038,3948 6038,4123 6038,4298 6180,4440 6355,4440 6530,4440 6672,4298 6672,4123 6672,3948 6530,3805 6355,3805 Z"/>
  <text fill="rgb(0,0,0)" stroke="none" x="6226" y="4324">3</text>
  <text fill="rgb(129,138,143)" stroke="none" x="8517" y="5347">4</text>
  <path fill="rgb(129,138,143)" stroke="none" d="M 8645,4828 C 8470,4828 8328,4970 8328,5145 8328,5320 8470,5463 8645,5463 8820,5463 8962,5320 8962,5145 8962,4970 8820,4828 8645,4828 Z"/>
  <path fill="rgb(255,255,255)" stroke="none" d="M 8574,4757 C 8399,4757 8257,4899 8257,5075 8257,5250 8399,5392 8574,5392 8750,5392 8891,5250 8891,5075 8891,4899 8750,4757 8574,4757 Z"/>
  <path stroke-width="35" fill="none" stroke="rgb(255,0,0)" d="M 8574,4757 C 8399,4757 8257,4899 8257,5075 8257,5250 8399,5392 8574,5392 8750,5392 8891,5250 8891,5075 8891,4899 8750,4757 8574,4757 Z"/>
  <text fill="rgb(0,0,0)" stroke="none" x="8445" y="5275">4</text>
  <text fill="rgb(129,138,143)" stroke="none" x="11370" y="7251">6</text>
  <path fill="rgb(129,138,143)" stroke="none" d="M 11498,6732 C 11323,6732 11181,6874 11181,7049 11181,7224 11323,7367 11498,7367 11673,7367 11815,7224 11815,7049 11815,6874 11673,6732 11498,6732 Z"/>
  <path fill="rgb(255,255,255)" stroke="none" d="M 11427,6661 C 11252,6661 11110,6803 11110,6978 11110,7154 11252,7296 11427,7296 11603,7296 11744,7154 11744,6978 11744,6803 11603,6661 11427,6661 Z"/>
  <path stroke-width="35" fill="none" stroke="rgb(255,0,0)" d="M 11427,6661 C 11252,6661 11110,6803 11110,6978 11110,7154 11252,7296 11427,7296 11603,7296 11744,7154 11744,6978 11744,6803 11603,6661 11427,6661 Z"/>
  <text fill="rgb(0,0,0)" stroke="none" x="11298" y="7179">6</text>
  <text fill="rgb(129,138,143)" stroke="none" x="12321" y="5982">5</text>
  <path fill="rgb(129,138,143)" stroke="none" d="M 12449,5463 C 12274,5463 12132,5604 12132,5780 12132,5955 12274,6097 12449,6097 12624,6097 12766,5955 12766,5780 12766,5604 12624,5463 12449,5463 Z"/>
  <path fill="rgb(255,255,255)" stroke="none" d="M 12378,5392 C 12203,5392 12061,5534 12061,5709 12061,5885 12203,6026 12378,6026 12554,6026 12695,5885 12695,5709 12695,5534 12554,5392 12378,5392 Z"/>
  <path stroke-width="35" fill="none" stroke="rgb(255,0,0)" d="M 12378,5392 C 12203,5392 12061,5534 12061,5709 12061,5885 12203,6026 12378,6026 12554,6026 12695,5885 12695,5709 12695,5534 12554,5392 12378,5392 Z"/>
  <text fill="rgb(0,0,0)" stroke="none" x="12249" y="5910">5</text>
  <text fill="rgb(129,138,143)" stroke="none" x="12321" y="6934">7</text>
  <path fill="rgb(129,138,143)" stroke="none" d="M 12449,6415 C 12274,6415 12132,6556 12132,6732 12132,6907 12274,7049 12449,7049 12624,7049 12766,6907 12766,6732 12766,6556 12624,6415 12449,6415 Z"/>
  <path fill="rgb(255,255,255)" stroke="none" d="M 12378,6344 C 12203,6344 12061,6486 12061,6661 12061,6837 12203,6978 12378,6978 12554,6978 12695,6837 12695,6661 12695,6486 12554,6344 12378,6344 Z"/>
  <path stroke-width="35" fill="none" stroke="rgb(255,0,0)" d="M 12378,6344 C 12203,6344 12061,6486 12061,6661 12061,6837 12203,6978 12378,6978 12554,6978 12695,6837 12695,6661 12695,6486 12554,6344 12378,6344 Z"/>
  <text fill="rgb(0,0,0)" stroke="none" x="12249" y="6862">7</text>
  <text fill="rgb(129,138,143)" stroke="none" x="16759" y="5347">8</text>
  <path fill="rgb(129,138,143)" stroke="none" d="M 16887,4828 C 16712,4828 16570,4970 16570,5145 16570,5321 16712,5463 16887,5463 17063,5463 17204,5321 17204,5145 17204,4970 17063,4828 16887,4828 Z"/>
  <path fill="rgb(255,255,255)" stroke="none" d="M 16816,4757 C 16642,4757 16499,4900 16499,5075 16499,5250 16642,5392 16816,5392 16992,5392 17133,5250 17133,5075 17133,4900 16992,4757 16816,4757 Z"/>
  <path stroke-width="35" fill="none" stroke="rgb(255,0,0)" d="M 16816,4757 C 16642,4757 16499,4900 16499,5075 16499,5250 16642,5392 16816,5392 16992,5392 17133,5250 17133,5075 17133,4900 16992,4757 16816,4757 Z"/>
  <text fill="rgb(0,0,0)" stroke="none" x="16687" y="5275">8</text>
  <text fill="rgb(129,138,143)" stroke="none" x="16125" y="5982">9</text>
  <path fill="rgb(129,138,143)" stroke="none" d="M 16253,5463 C 16078,5463 15936,5604 15936,5780 15936,5956 16078,6097 16253,6097 16429,6097 16570,5956 16570,5780 16570,5604 16429,5463 16253,5463 Z"/>
  <path fill="rgb(255,255,255)" stroke="none" d="M 16182,5392 C 16008,5392 15865,5535 15865,5709 15865,5885 16008,6026 16182,6026 16358,6026 16499,5885 16499,5709 16499,5535 16358,5392 16182,5392 Z"/>
  <path stroke-width="35" fill="none" stroke="rgb(255,0,0)" d="M 16182,5392 C 16008,5392 15865,5535 15865,5709 15865,5885 16008,6026 16182,6026 16358,6026 16499,5885 16499,5709 16499,5535 16358,5392 16182,5392 Z"/>
  <text fill="rgb(0,0,0)" stroke="none" x="16053" y="5910">9</text>
  <text fill="rgb(129,138,143)" stroke="none" x="11231" y="6299">
   <tspan x="11231 11502">10</tspan></text>
  <path fill="rgb(129,138,143)" stroke="none" d="M 11498,5780 C 11323,5780 11181,5922 11181,6097 11181,6272 11323,6415 11498,6415 11673,6415 11815,6272 11815,6097 11815,5922 11673,5780 11498,5780 Z"/>
  <path fill="rgb(255,255,255)" stroke="none" d="M 11427,5709 C 11252,5709 11110,5851 11110,6026 11110,6202 11252,6344 11427,6344 11603,6344 11744,6202 11744,6026 11744,5851 11603,5709 11427,5709 Z"/>
  <path stroke-width="35" fill="none" stroke="rgb(255,0,0)" d="M 11427,5709 C 11252,5709 11110,5851 11110,6026 11110,6202 11252,6344 11427,6344 11603,6344 11744,6202 11744,6026 11744,5851 11603,5709 11427,5709 Z"/>
  <text fill="rgb(0,0,0)" stroke="none" x="11159" y="6227">
   <tspan x="11159 11430">10</tspan></text>
  <text fill="rgb(129,138,143)" stroke="none" x="3622" y="1857">
   <tspan x="3622 3893">11</tspan></text>
  <path fill="rgb(129,138,143)" stroke="none" d="M 3890,1337 C 3714,1337 3573,1479 3573,1655 3573,1830 3714,1972 3890,1972 4065,1972 4207,1830 4207,1655 4207,1479 4065,1337 3890,1337 Z"/>
  <path fill="rgb(255,255,255)" stroke="none" d="M 3819,1267 C 3644,1267 3502,1409 3502,1584 3502,1759 3644,1901 3819,1901 3994,1901 4136,1759 4136,1584 4136,1409 3994,1267 3819,1267 Z"/>
  <path stroke-width="35" fill="none" stroke="rgb(255,0,0)" d="M 3819,1267 C 3644,1267 3502,1409 3502,1584 3502,1759 3644,1901 3819,1901 3994,1901 4136,1759 4136,1584 4136,1409 3994,1267 3819,1267 Z"/>
  <text fill="rgb(0,0,0)" stroke="none" x="3551" y="1785">
   <tspan x="3551 3822">11</tspan></text>
  <text fill="rgb(129,138,143)" stroke="none" x="9646" y="5347">
   <tspan x="9646 9917">12</tspan></text>
  <path fill="rgb(129,138,143)" stroke="none" d="M 9913,4828 C 9738,4828 9596,4970 9596,5145 9596,5320 9738,5463 9913,5463 10088,5463 10230,5320 10230,5145 10230,4970 10088,4828 9913,4828 Z"/>
  <path fill="rgb(255,255,255)" stroke="none" d="M 9842,4757 C 9667,4757 9525,4899 9525,5075 9525,5250 9667,5392 9842,5392 10018,5392 10159,5250 10159,5075 10159,4899 10018,4757 9842,4757 Z"/>
  <path stroke-width="35" fill="none" stroke="rgb(255,0,0)" d="M 9842,4757 C 9667,4757 9525,4899 9525,5075 9525,5250 9667,5392 9842,5392 10018,5392 10159,5250 10159,5075 10159,4899 10018,4757 9842,4757 Z"/>
  <text fill="rgb(0,0,0)" stroke="none" x="9574" y="5275">
   <tspan x="9574 9845">12</tspan></text>
  <text fill="rgb(129,138,143)" stroke="none" x="3305" y="7251">
   <tspan x="3305 3576">13</tspan></text>
  <path fill="rgb(129,138,143)" stroke="none" d="M 3573,6732 C 3397,6732 3256,6874 3256,7049 3256,7224 3397,7367 3573,7367 3748,7367 3890,7224 3890,7049 3890,6874 3748,6732 3573,6732 Z"/>
  <path fill="rgb(255,255,255)" stroke="none" d="M 3502,6661 C 3327,6661 3185,6803 3185,6978 3185,7154 3327,7296 3502,7296 3677,7296 3819,7154 3819,6978 3819,6803 3677,6661 3502,6661 Z"/>
  <path stroke-width="35" fill="none" stroke="rgb(255,0,0)" d="M 3502,6661 C 3327,6661 3185,6803 3185,6978 3185,7154 3327,7296 3502,7296 3677,7296 3819,7154 3819,6978 3819,6803 3677,6661 3502,6661 Z"/>
  <text fill="rgb(0,0,0)" stroke="none" x="3234" y="7179">
   <tspan x="3234 3505">13</tspan></text>
  <text fill="rgb(129,138,143)" stroke="none" x="8378" y="8203">
   <tspan x="8378 8649">14</tspan></text>
  <path fill="rgb(129,138,143)" stroke="none" d="M 8645,7684 C 8470,7684 8328,7826 8328,8001 8328,8176 8470,8318 8645,8318 8820,8318 8962,8176 8962,8001 8962,7826 8820,7684 8645,7684 Z"/>
  <path fill="rgb(255,255,255)" stroke="none" d="M 8574,7613 C 8399,7613 8257,7755 8257,7930 8257,8106 8399,8248 8574,8248 8750,8248 8891,8106 8891,7930 8891,7755 8750,7613 8574,7613 Z"/>
  <path stroke-width="35" fill="none" stroke="rgb(255,0,0)" d="M 8574,7613 C 8399,7613 8257,7755 8257,7930 8257,8106 8399,8248 8574,8248 8750,8248 8891,8106 8891,7930 8891,7755 8750,7613 8574,7613 Z"/>
  <text fill="rgb(0,0,0)" stroke="none" x="8306" y="8131">
   <tspan x="8306 8577">14</tspan></text>
 </g>
</svg>