<?xml version="1.0" encoding="UTF-8"?><!DOCTYPE svg PUBLIC "-//W3C//DTD SVG 1.1//EN" "/SysSchema/SVG11/svg11.dtd">
<svg xmlns:xlink="http://www.w3.org/1999/xlink" xmlns="http://www.w3.org/2000/svg" width="201mm" height="134mm" viewBox="0 0 20100 13400" stroke-width="28.222" stroke-linejoin="round" xml:space="preserve" preserveAspectRatio="xMidYMid meet" zoomAndPan="magnify" version="1.1" contentScriptType="text/ecmascript" contentStyleType="text/css">
 <path fill="rgb(153,204,255)" stroke="none" d="M 10170,9855 L 10170,13353 16517,13353 16517,9855 10170,9855 Z"/>
 <path fill="none" stroke="none" d="M 10170,9855 L 10170,13353 16517,13353 16517,9855 10170,9855 Z"/>
 <path stroke-width="35" fill="none" stroke="rgb(0,0,0)" d="M 10170,9855 L 10170,13353 16517,13353 16517,9855 10170,9855 Z"/>
 <rect fill="rgb(192,192,192)" stroke="none" x="3821" y="949" width="12698" height="8908"/>
 <rect fill="rgb(127,127,127)" stroke="none" x="3823" y="952" width="12695" height="8904"/>
 <rect fill="rgb(192,192,192)" stroke="none" x="3821" y="949" width="12698" height="8908"/>
 <path fill="none" stroke="none" d="M 3823,952 L 3823,9855 16517,9855 16517,952 3823,952 Z"/>
 <path stroke-width="35" fill="none" stroke="rgb(0,0,0)" d="M 3823,952 L 3823,9855 16517,9855 16517,952 3823,952 Z"/>
 <g fill="rgb(129,138,143)" stroke="none" font-family="Arial" font-size="424" font-style="normal" font-weight="400">
  <text x="5230" y="8733">
   <tspan x="5230 5514 5819 5937">PCIe</tspan></text>
  <text fill="rgb(129,138,143)" stroke="none" x="4866" y="9238">
   <tspan x="4866 5217 5454 5687 5924 6152 6389">Manager</tspan></text>
  <path fill="rgb(129,138,143)" stroke="none" d="M 5692,8018 C 4874,8018 4212,8374 4212,8813 4212,9252 4874,9608 5692,9608 6510,9608 7173,9252 7173,8813 7173,8374 6510,8018 5692,8018 Z"/>
  <path fill="rgb(204,255,255)" stroke="none" d="M 5622,7947 C 4804,7947 4141,8303 4141,8742 4141,9181 4804,9537 5622,9537 6440,9537 7103,9181 7103,8742 7103,8303 6440,7947 5622,7947 Z"/>
  <path stroke-width="26" fill="none" stroke="rgb(0,0,0)" d="M 5622,7947 C 4804,7947 4141,8303 4141,8742 4141,9181 4804,9537 5622,9537 6440,9537 7103,9181 7103,8742 7103,8303 6440,7947 5622,7947 Z"/>
  <text fill="rgb(0,0,0)" stroke="none" x="5158" y="8661">
   <tspan x="5158 5442 5747 5865">PCIe</tspan></text>
  <text fill="rgb(0,0,0)" stroke="none" x="4794" y="9166">
   <tspan x="4794 5145 5382 5615 5852 6080 6317">Manager</tspan></text>
  <text fill="rgb(129,138,143)" stroke="none" x="5205" y="4918">
   <tspan x="5205 5510 5747 5861 6098">Datal</tspan></text>
  <text fill="rgb(129,138,143)" stroke="none" x="4866" y="5422">
   <tspan x="4866 5217 5454 5687 5924 6152 6389">Manager</tspan></text>
  <path fill="rgb(129,138,143)" stroke="none" d="M 5692,4202 C 4874,4202 4212,4558 4212,4997 4212,5436 4874,5792 5692,5792 6510,5792 7173,5436 7173,4997 7173,4558 6510,4202 5692,4202 Z"/>
  <path fill="rgb(204,255,255)" stroke="none" d="M 5622,4131 C 4804,4131 4141,4487 4141,4926 4141,5366 4804,5721 5622,5721 6440,5721 7103,5366 7103,4926 7103,4487 6440,4131 5622,4131 Z"/>
  <path stroke-width="26" fill="none" stroke="rgb(0,0,0)" d="M 5622,4131 C 4804,4131 4141,4487 4141,4926 4141,5366 4804,5721 5622,5721 6440,5721 7103,5366 7103,4926 7103,4487 6440,4131 5622,4131 Z"/>
  <text fill="rgb(0,0,0)" stroke="none" x="5133" y="4846">
   <tspan x="5133 5438 5675 5789 6026">Datal</tspan></text>
  <text fill="rgb(0,0,0)" stroke="none" x="4794" y="5350">
   <tspan x="4794 5145 5382 5615 5852 6080 6317">Manager</tspan></text>
  <text fill="rgb(129,138,143)" stroke="none" x="5205" y="5236">
   <tspan x="5205 5510 5747 5861 6098">Datal</tspan></text>
  <text fill="rgb(129,138,143)" stroke="none" x="4866" y="5740">
   <tspan x="4866 5217 5454 5687 5924 6152 6389">Manager</tspan></text>
  <path fill="rgb(129,138,143)" stroke="none" d="M 5692,4520 C 4874,4520 4212,4876 4212,5315 4212,5754 4874,6110 5692,6110 6510,6110 7173,5754 7173,5315 7173,4876 6510,4520 5692,4520 Z"/>
  <path fill="rgb(204,255,255)" stroke="none" d="M 5622,4449 C 4804,4449 4141,4805 4141,5244 4141,5684 4804,6039 5622,6039 6440,6039 7103,5684 7103,5244 7103,4805 6440,4449 5622,4449 Z"/>
  <path stroke-width="26" fill="none" stroke="rgb(0,0,0)" d="M 5622,4449 C 4804,4449 4141,4805 4141,5244 4141,5684 4804,6039 5622,6039 6440,6039 7103,5684 7103,5244 7103,4805 6440,4449 5622,4449 Z"/>
  <text fill="rgb(0,0,0)" stroke="none" x="5133" y="5164">
   <tspan x="5133 5438 5675 5789 6026">Datal</tspan></text>
  <text fill="rgb(0,0,0)" stroke="none" x="4794" y="5668">
   <tspan x="4794 5145 5382 5615 5852 6080 6317">Manager</tspan></text>
  <text fill="rgb(129,138,143)" stroke="none" x="5205" y="5554">
   <tspan x="5205 5510 5747 5861 6098">Datal</tspan></text>
  <text fill="rgb(129,138,143)" stroke="none" x="4866" y="6058">
   <tspan x="4866 5217 5454 5687 5924 6152 6389">Manager</tspan></text>
  <path fill="rgb(129,138,143)" stroke="none" d="M 5692,4838 C 4874,4838 4212,5194 4212,5633 4212,6072 4874,6428 5692,6428 6510,6428 7173,6072 7173,5633 7173,5194 6510,4838 5692,4838 Z"/>
  <path fill="rgb(204,255,255)" stroke="none" d="M 5622,4767 C 4804,4767 4141,5123 4141,5562 4141,6001 4804,6357 5622,6357 6440,6357 7103,6001 7103,5562 7103,5123 6440,4767 5622,4767 Z"/>
  <path stroke-width="26" fill="none" stroke="rgb(0,0,0)" d="M 5622,4767 C 4804,4767 4141,5123 4141,5562 4141,6001 4804,6357 5622,6357 6440,6357 7103,6001 7103,5562 7103,5123 6440,4767 5622,4767 Z"/>
  <text fill="rgb(0,0,0)" stroke="none" x="5133" y="5482">
   <tspan x="5133 5438 5675 5789 6026">Datal</tspan></text>
  <text fill="rgb(0,0,0)" stroke="none" x="4794" y="5986">
   <tspan x="4794 5145 5382 5615 5852 6080 6317">Manager</tspan></text>
  <text fill="rgb(129,138,143)" stroke="none" x="5251" y="5872">
   <tspan x="5251 5556 5793 5907">Data</tspan></text>
  <text fill="rgb(129,138,143)" stroke="none" x="4866" y="6376">
   <tspan x="4866 5217 5454 5687 5924 6152 6389">Manager</tspan></text>
  <path fill="rgb(129,138,143)" stroke="none" d="M 5692,5156 C 4874,5156 4212,5512 4212,5951 4212,6390 4874,6746 5692,6746 6510,6746 7173,6390 7173,5951 7173,5512 6510,5156 5692,5156 Z"/>
  <path fill="rgb(204,255,255)" stroke="none" d="M 5622,5085 C 4804,5085 4141,5441 4141,5880 4141,6319 4804,6675 5622,6675 6440,6675 7103,6319 7103,5880 7103,5441 6440,5085 5622,5085 Z"/>
  <path stroke-width="26" fill="none" stroke="rgb(0,0,0)" d="M 5622,5085 C 4804,5085 4141,5441 4141,5880 4141,6319 4804,6675 5622,6675 6440,6675 7103,6319 7103,5880 7103,5441 6440,5085 5622,5085 Z"/>
  <text fill="rgb(0,0,0)" stroke="none" x="5179" y="5800">
   <tspan x="5179 5484 5721 5835">Data</tspan></text>
  <text fill="rgb(0,0,0)" stroke="none" x="4794" y="6304">
   <tspan x="4794 5145 5382 5615 5852 6080 6317">Manager</tspan></text>
  <text fill="rgb(129,138,143)" stroke="none" x="5205" y="4918">
   <tspan x="5205 5510 5747 5861 6098">Datal</tspan></text>
  <text fill="rgb(129,138,143)" stroke="none" x="4866" y="5422">
   <tspan x="4866 5217 5454 5687 5924 6152 6389">Manager</tspan></text>
  <path fill="rgb(129,138,143)" stroke="none" d="M 5692,4202 C 4874,4202 4212,4558 4212,4997 4212,5436 4874,5792 5692,5792 6510,5792 7173,5436 7173,4997 7173,4558 6510,4202 5692,4202 Z"/>
  <path fill="rgb(204,255,255)" stroke="none" d="M 5622,4131 C 4804,4131 4141,4487 4141,4926 4141,5366 4804,5721 5622,5721 6440,5721 7103,5366 7103,4926 7103,4487 6440,4131 5622,4131 Z"/>
  <path stroke-width="26" fill="none" stroke="rgb(0,0,0)" d="M 5622,4131 C 4804,4131 4141,4487 4141,4926 4141,5366 4804,5721 5622,5721 6440,5721 7103,5366 7103,4926 7103,4487 6440,4131 5622,4131 Z"/>
  <text fill="rgb(0,0,0)" stroke="none" x="5133" y="4846">
   <tspan x="5133 5438 5675 5789 6026">Datal</tspan></text>
  <text fill="rgb(0,0,0)" stroke="none" x="4794" y="5350">
   <tspan x="4794 5145 5382 5615 5852 6080 6317">Manager</tspan></text>
  <text fill="rgb(129,138,143)" stroke="none" x="5205" y="5236">
   <tspan x="5205 5510 5747 5861 6098">Datal</tspan></text>
  <text fill="rgb(129,138,143)" stroke="none" x="4866" y="5740">
   <tspan x="4866 5217 5454 5687 5924 6152 6389">Manager</tspan></text>
  <path fill="rgb(129,138,143)" stroke="none" d="M 5692,4520 C 4874,4520 4212,4876 4212,5315 4212,5754 4874,6110 5692,6110 6510,6110 7173,5754 7173,5315 7173,4876 6510,4520 5692,4520 Z"/>
  <path fill="rgb(204,255,255)" stroke="none" d="M 5622,4449 C 4804,4449 4141,4805 4141,5244 4141,5684 4804,6039 5622,6039 6440,6039 7103,5684 7103,5244 7103,4805 6440,4449 5622,4449 Z"/>
  <path stroke-width="26" fill="none" stroke="rgb(0,0,0)" d="M 5622,4449 C 4804,4449 4141,4805 4141,5244 4141,5684 4804,6039 5622,6039 6440,6039 7103,5684 7103,5244 7103,4805 6440,4449 5622,4449 Z"/>
  <text fill="rgb(0,0,0)" stroke="none" x="5133" y="5164">
   <tspan x="5133 5438 5675 5789 6026">Datal</tspan></text>
  <text fill="rgb(0,0,0)" stroke="none" x="4794" y="5668">
   <tspan x="4794 5145 5382 5615 5852 6080 6317">Manager</tspan></text>
  <text fill="rgb(129,138,143)" stroke="none" x="5205" y="5554">
   <tspan x="5205 5510 5747 5861 6098">Datal</tspan></text>
  <text fill="rgb(129,138,143)" stroke="none" x="4866" y="6058">
   <tspan x="4866 5217 5454 5687 5924 6152 6389">Manager</tspan></text>
  <path fill="rgb(129,138,143)" stroke="none" d="M 5692,4838 C 4874,4838 4212,5194 4212,5633 4212,6072 4874,6428 5692,6428 6510,6428 7173,6072 7173,5633 7173,5194 6510,4838 5692,4838 Z"/>
  <path fill="rgb(204,255,255)" stroke="none" d="M 5622,4767 C 4804,4767 4141,5123 4141,5562 4141,6001 4804,6357 5622,6357 6440,6357 7103,6001 7103,5562 7103,5123 6440,4767 5622,4767 Z"/>
  <path stroke-width="26" fill="none" stroke="rgb(0,0,0)" d="M 5622,4767 C 4804,4767 4141,5123 4141,5562 4141,6001 4804,6357 5622,6357 6440,6357 7103,6001 7103,5562 7103,5123 6440,4767 5622,4767 Z"/>
  <text fill="rgb(0,0,0)" stroke="none" x="5133" y="5482">
   <tspan x="5133 5438 5675 5789 6026">Datal</tspan></text>
  <text fill="rgb(0,0,0)" stroke="none" x="4794" y="5986">
   <tspan x="4794 5145 5382 5615 5852 6080 6317">Manager</tspan></text>
  <text fill="rgb(129,138,143)" stroke="none" x="5251" y="5872">
   <tspan x="5251 5556 5793 5907">Data</tspan></text>
  <text fill="rgb(129,138,143)" stroke="none" x="4866" y="6376">
   <tspan x="4866 5217 5454 5687 5924 6152 6389">Manager</tspan></text>
  <path fill="rgb(129,138,143)" stroke="none" d="M 5692,5156 C 4874,5156 4212,5512 4212,5951 4212,6390 4874,6746 5692,6746 6510,6746 7173,6390 7173,5951 7173,5512 6510,5156 5692,5156 Z"/>
  <path fill="rgb(204,255,255)" stroke="none" d="M 5622,5085 C 4804,5085 4141,5441 4141,5880 4141,6319 4804,6675 5622,6675 6440,6675 7103,6319 7103,5880 7103,5441 6440,5085 5622,5085 Z"/>
  <path stroke-width="26" fill="none" stroke="rgb(0,0,0)" d="M 5622,5085 C 4804,5085 4141,5441 4141,5880 4141,6319 4804,6675 5622,6675 6440,6675 7103,6319 7103,5880 7103,5441 6440,5085 5622,5085 Z"/>
  <text fill="rgb(0,0,0)" stroke="none" x="5179" y="5800">
   <tspan x="5179 5484 5721 5835">Data</tspan></text>
  <text fill="rgb(0,0,0)" stroke="none" x="4794" y="6304">
   <tspan x="4794 5145 5382 5615 5852 6080 6317">Manager</tspan></text>
  <path fill="rgb(153,204,255)" stroke="none" d="M 16517,952 L 16517,9855 20008,9855 20008,952 16517,952 Z"/>
  <path fill="none" stroke="none" d="M 16517,952 L 16517,9855 20008,9855 20008,952 16517,952 Z"/>
  <path stroke-width="35" fill="none" stroke="rgb(0,0,0)" d="M 16517,952 L 16517,9855 20008,9855 20008,952 16517,952 Z"/>
  <path fill="rgb(153,204,255)" stroke="none" d="M 15,952 L 15,9855 3823,9855 3823,952 15,952 Z"/>
  <path fill="none" stroke="none" d="M 15,952 L 15,9855 3823,9855 3823,952 15,952 Z"/>
  <path stroke-width="35" fill="none" stroke="rgb(0,0,0)" d="M 15,952 L 15,9855 3823,9855 3823,952 15,952 Z"/>
  <text fill="rgb(129,138,143)" stroke="none" x="474" y="2056">i</text>
  <text fill="rgb(129,138,143)" stroke="none" x="567" y="2056">-</text>
  <text fill="rgb(129,138,143)" stroke="none" x="707" y="2056">
   <tspan x="707 1012 1363 1647 1765 1883">DMA, e</tspan></text>
  <text fill="rgb(129,138,143)" stroke="none" x="2120" y="2056">-</text>
  <text fill="rgb(129,138,143)" stroke="none" x="2260" y="2056">
   <tspan x="2260 2565 2916">DMA</tspan></text>
  <text fill="rgb(129,138,143)" stroke="none" x="1007" y="2560">
   <tspan x="1007 1358 1595 1828 2065 2293 2530">Manager</tspan></text>
  <path fill="rgb(129,138,143)" stroke="none" d="M 1831,1340 C 1042,1340 403,1696 403,2135 403,2574 1042,2930 1831,2930 2620,2930 3259,2574 3259,2135 3259,1696 2620,1340 1831,1340 Z"/>
  <path fill="rgb(255,204,153)" stroke="none" d="M 1760,1269 C 972,1269 332,1626 332,2064 332,2503 972,2859 1760,2859 2549,2859 3189,2503 3189,2064 3189,1626 2549,1269 1760,1269 Z"/>
  <path stroke-width="26" fill="none" stroke="rgb(0,0,0)" d="M 1760,1269 C 972,1269 332,1626 332,2064 332,2503 972,2859 1760,2859 2549,2859 3189,2503 3189,2064 3189,1626 2549,1269 1760,1269 Z"/>
  <text fill="rgb(0,0,0)" stroke="none" x="402" y="1984">i</text>
  <text fill="rgb(0,0,0)" stroke="none" x="495" y="1984">-</text>
  <text fill="rgb(0,0,0)" stroke="none" x="635" y="1984">
   <tspan x="635 940 1291 1575 1693 1811">DMA, e</tspan></text>
  <text fill="rgb(0,0,0)" stroke="none" x="2048" y="1984">-</text>
  <text fill="rgb(0,0,0)" stroke="none" x="2188" y="1984">
   <tspan x="2188 2493 2844">DMA</tspan></text>
  <text fill="rgb(0,0,0)" stroke="none" x="935" y="2488">
   <tspan x="935 1286 1523 1756 1993 2221 2458">Manager</tspan></text>
  <text fill="rgb(129,138,143)" stroke="none" x="804" y="4282">
   <tspan x="804 1088 1321 1554 1909 2002 2214 2426 2515 2752">Submission</tspan></text>
  <text fill="rgb(129,138,143)" stroke="none" x="1058" y="4786">
   <tspan x="1058 1409 1646 1879 2116 2344 2581">Manager</tspan></text>
  <path fill="rgb(129,138,143)" stroke="none" d="M 1884,3566 C 1066,3566 403,3922 403,4361 403,4800 1066,5156 1884,5156 2702,5156 3365,4800 3365,4361 3365,3922 2702,3566 1884,3566 Z"/>
  <path fill="rgb(255,204,153)" stroke="none" d="M 1813,3495 C 996,3495 332,3851 332,4290 332,4730 996,5085 1813,5085 2632,5085 3294,4730 3294,4290 3294,3851 2632,3495 1813,3495 Z"/>
  <path stroke-width="26" fill="none" stroke="rgb(0,0,0)" d="M 1813,3495 C 996,3495 332,3851 332,4290 332,4730 996,5085 1813,5085 2632,5085 3294,4730 3294,4290 3294,3851 2632,3495 1813,3495 Z"/>
  <text fill="rgb(0,0,0)" stroke="none" x="732" y="4210">
   <tspan x="732 1016 1249 1482 1837 1930 2142 2354 2443 2680">Submission</tspan></text>
  <text fill="rgb(0,0,0)" stroke="none" x="986" y="4714">
   <tspan x="986 1337 1574 1807 2044 2272 2509">Manager</tspan></text>
  <text fill="rgb(129,138,143)" stroke="none" x="825" y="6508">
   <tspan x="825 1130 1363 1718 1951 2044 2281 2399 2488 2721">Completion</tspan></text>
  <text fill="rgb(129,138,143)" stroke="none" x="1058" y="7012">
   <tspan x="1058 1409 1646 1879 2116 2344 2581">Manager</tspan></text>
  <path fill="rgb(129,138,143)" stroke="none" d="M 1884,5792 C 1066,5792 403,6148 403,6587 403,7026 1066,7382 1884,7382 2702,7382 3365,7026 3365,6587 3365,6148 2702,5792 1884,5792 Z"/>
  <path fill="rgb(255,204,153)" stroke="none" d="M 1813,5721 C 996,5721 332,6077 332,6516 332,6955 996,7311 1813,7311 2632,7311 3294,6955 3294,6516 3294,6077 2632,5721 1813,5721 Z"/>
  <path stroke-width="26" fill="none" stroke="rgb(0,0,0)" d="M 1813,5721 C 996,5721 332,6077 332,6516 332,6955 996,7311 1813,7311 2632,7311 3294,6955 3294,6516 3294,6077 2632,5721 1813,5721 Z"/>
  <text fill="rgb(0,0,0)" stroke="none" x="753" y="6436">
   <tspan x="753 1058 1291 1646 1879 1972 2209 2327 2416 2649">Completion</tspan></text>
  <text fill="rgb(0,0,0)" stroke="none" x="986" y="6940">
   <tspan x="986 1337 1574 1807 2044 2272 2509">Manager</tspan></text>
  <text fill="rgb(129,138,143)" stroke="none" x="1456" y="8733">
   <tspan x="1456 1761 1998 2210">Host</tspan></text>
  <text fill="rgb(129,138,143)" stroke="none" x="1058" y="9238">
   <tspan x="1058 1409 1646 1879 2116 2344 2581">Manager</tspan></text>
  <path fill="rgb(129,138,143)" stroke="none" d="M 1884,8018 C 1066,8018 403,8374 403,8813 403,9252 1066,9608 1884,9608 2702,9608 3365,9252 3365,8813 3365,8374 2702,8018 1884,8018 Z"/>
  <path fill="rgb(255,204,153)" stroke="none" d="M 1813,7947 C 996,7947 332,8303 332,8742 332,9181 996,9537 1813,9537 2632,9537 3294,9181 3294,8742 3294,8303 2632,7947 1813,7947 Z"/>
  <path stroke-width="26" fill="none" stroke="rgb(0,0,0)" d="M 1813,7947 C 996,7947 332,8303 332,8742 332,9181 996,9537 1813,9537 2632,9537 3294,9181 3294,8742 3294,8303 2632,7947 1813,7947 Z"/>
  <text fill="rgb(0,0,0)" stroke="none" x="1384" y="8661">
   <tspan x="1384 1689 1926 2138">Host</tspan></text>
  <text fill="rgb(0,0,0)" stroke="none" x="986" y="9166">
   <tspan x="986 1337 1574 1807 2044 2272 2509">Manager</tspan></text>
 </g>
 <g fill="rgb(0,0,0)" stroke="none" font-family="Tahoma" font-size="496" font-style="normal" font-weight="400">
  <text x="8205" y="619">
   <tspan x="8205 8476 8654 8925 9153 9415 9635 9855 10126 10299 10456 10752 11019 11434 11709 11823 12081">Processor Complex</tspan></text>
  <text fill="rgb(0,0,0)" stroke="none" x="906" y="619">
   <tspan x="906 1240 1511 1731 1896 2053 2235 2425">Host I/F</tspan></text>
  <text fill="rgb(0,0,0)" stroke="none" x="17408" y="619">
   <tspan x="17408 17666 17780 18038 18258 18533 18690 18876 19062">Flash I/F</tspan></text>
 </g>
 <g fill="rgb(129,138,143)" stroke="none" font-family="Arial" font-size="424" font-style="normal" font-weight="400">
  <text x="17874" y="5554">
   <tspan x="17874 18132 18225 18462 18674">Flash</tspan></text>
  <text fill="rgb(129,138,143)" stroke="none" x="17569" y="6058">
   <tspan x="17569 17687 17924 18042 18279 18414 18532 18769 18981">Interface</tspan></text>
  <path fill="rgb(129,138,143)" stroke="none" d="M 18387,4838 C 17569,4838 16906,5194 16906,5633 16906,6072 17569,6428 18387,6428 19204,6428 19868,6072 19868,5633 19868,5194 19204,4838 18387,4838 Z"/>
  <path fill="rgb(255,204,153)" stroke="none" d="M 18316,4767 C 17498,4767 16835,5123 16835,5562 16835,6002 17498,6357 18316,6357 19135,6357 19797,6002 19797,5562 19797,5123 19135,4767 18316,4767 Z"/>
  <path stroke-width="26" fill="none" stroke="rgb(0,0,0)" d="M 18316,4767 C 17498,4767 16835,5123 16835,5562 16835,6002 17498,6357 18316,6357 19135,6357 19797,6002 19797,5562 19797,5123 19135,4767 18316,4767 Z"/>
  <text fill="rgb(0,0,0)" stroke="none" x="17802" y="5482">
   <tspan x="17802 18060 18153 18390 18602">Flash</tspan></text>
  <text fill="rgb(0,0,0)" stroke="none" x="17497" y="5986">
   <tspan x="17497 17615 17852 17970 18207 18342 18460 18697 18909">Interface</tspan></text>
  <path fill="rgb(153,204,255)" stroke="none" d="M 3823,9855 L 3823,13353 10170,13353 10170,9855 3823,9855 Z"/>
  <path fill="none" stroke="none" d="M 3823,9855 L 3823,13353 10170,13353 10170,9855 3823,9855 Z"/>
  <path stroke-width="35" fill="none" stroke="rgb(0,0,0)" d="M 3823,9855 L 3823,13353 10170,13353 10170,9855 3823,9855 Z"/>
  <text fill="rgb(129,138,143)" stroke="none" x="5124" y="11209">
   <tspan x="5124 5429 5734 6039">DDR3</tspan></text>
  <path fill="rgb(129,138,143)" stroke="none" d="M 5692,10244 C 4874,10244 4212,10599 4212,11039 4212,11478 4874,11834 5692,11834 6510,11834 7173,11478 7173,11039 7173,10599 6510,10244 5692,10244 Z"/>
  <path fill="rgb(255,204,153)" stroke="none" d="M 5622,10173 C 4804,10173 4141,10529 4141,10968 4141,11407 4804,11763 5622,11763 6440,11763 7103,11407 7103,10968 7103,10529 6440,10173 5622,10173 Z"/>
  <path stroke-width="26" fill="none" stroke="rgb(0,0,0)" d="M 5622,10173 C 4804,10173 4141,10529 4141,10968 4141,11407 4804,11763 5622,11763 6440,11763 7103,11407 7103,10968 7103,10529 6440,10173 5622,10173 Z"/>
  <text fill="rgb(0,0,0)" stroke="none" x="5052" y="11137">
   <tspan x="5052 5357 5662 5967">DDR3</tspan></text>
  <text fill="rgb(129,138,143)" stroke="none" x="4972" y="2056">
   <tspan x="4972 5205 5442 5654 5866 5955 6192">Locking</tspan></text>
  <text fill="rgb(129,138,143)" stroke="none" x="4866" y="2560">
   <tspan x="4866 5217 5454 5687 5924 6152 6389">Manager</tspan></text>
  <path fill="rgb(129,138,143)" stroke="none" d="M 5692,1341 C 4874,1341 4212,1696 4212,2135 4212,2574 4874,2930 5692,2930 6510,2930 7173,2574 7173,2135 7173,1696 6510,1341 5692,1341 Z"/>
  <path fill="rgb(204,255,255)" stroke="none" d="M 5622,1269 C 4804,1269 4141,1626 4141,2064 4141,2504 4804,2859 5622,2859 6440,2859 7103,2504 7103,2064 7103,1626 6440,1269 5622,1269 Z"/>
  <path stroke-width="26" fill="none" stroke="rgb(0,0,0)" d="M 5622,1269 C 4804,1269 4141,1626 4141,2064 4141,2504 4804,2859 5622,2859 6440,2859 7103,2504 7103,2064 7103,1626 6440,1269 5622,1269 Z"/>
  <text fill="rgb(0,0,0)" stroke="none" x="4900" y="1984">
   <tspan x="4900 5133 5370 5582 5794 5883 6120">Locking</tspan></text>
  <text fill="rgb(0,0,0)" stroke="none" x="4794" y="2488">
   <tspan x="4794 5145 5382 5615 5852 6080 6317">Manager</tspan></text>
  <text fill="rgb(129,138,143)" stroke="none" x="8725" y="6508">
   <tspan x="8725 9009 9242 9597 9686 9923 10041 10346 10697">Admin Cmd</tspan></text>
  <text fill="rgb(129,138,143)" stroke="none" x="8992" y="7012">
   <tspan x="8992 9343 9580 9813 10050 10278 10515">Manager</tspan></text>
  <path fill="rgb(129,138,143)" stroke="none" d="M 9818,5792 C 9000,5792 8337,6148 8337,6587 8337,7026 9000,7382 9818,7382 10636,7382 11299,7026 11299,6587 11299,6148 10636,5792 9818,5792 Z"/>
  <path fill="rgb(204,255,255)" stroke="none" d="M 9747,5721 C 8930,5721 8266,6077 8266,6516 8266,6955 8930,7311 9747,7311 10565,7311 11228,6955 11228,6516 11228,6077 10565,5721 9747,5721 Z"/>
  <path stroke-width="26" fill="none" stroke="rgb(0,0,0)" d="M 9747,5721 C 8930,5721 8266,6077 8266,6516 8266,6955 8930,7311 9747,7311 10565,7311 11228,6955 11228,6516 11228,6077 10565,5721 9747,5721 Z"/>
  <text fill="rgb(0,0,0)" stroke="none" x="8653" y="6436">
   <tspan x="8653 8937 9170 9525 9614 9851 9969 10274 10625">Admin Cmd</tspan></text>
  <text fill="rgb(0,0,0)" stroke="none" x="8920" y="6940">
   <tspan x="8920 9271 9508 9741 9978 10206 10443">Manager</tspan></text>
  <rect fill="rgb(204,255,204)" stroke="none" x="12390" y="1267" width="3812" height="8272"/>
  <rect fill="rgb(127,127,127)" stroke="none" x="12392" y="1269" width="3809" height="8268"/>
  <rect fill="rgb(204,255,204)" stroke="none" x="12390" y="1267" width="3812" height="8272"/>
  <path fill="rgb(0,0,0)" stroke="rgb(0,0,0)" d="M 16200,1288 L 15919,1288 15919,1253 16200,1253 16200,1288 Z M 15813,1288 L 15530,1288 15530,1253 15813,1253 15813,1288 Z M 15425,1288 L 15142,1288 15142,1253 15425,1253 15425,1288 Z M 15036,1288 L 14755,1288 14755,1253 15036,1253 15036,1288 Z M 14649,1288 L 14367,1288 14367,1253 14649,1253 14649,1288 Z M 14261,1288 L 13979,1288 13979,1253 14261,1253 14261,1288 Z M 13873,1288 L 13591,1288 13591,1253 13873,1253 13873,1288 Z M 13486,1288 L 13203,1288 13203,1253 13486,1253 13486,1288 Z M 13097,1288 L 12815,1288 12815,1253 13097,1253 13097,1288 Z M 12709,1288 L 12428,1288 12428,1253 12709,1253 12709,1288 Z M 12410,1341 L 12410,1624 12375,1624 12375,1341 12410,1341 Z M 12410,1729 L 12410,2011 12375,2011 12375,1729 12410,1729 Z M 12410,2117 L 12410,2400 12375,2400 12375,2117 12410,2117 Z M 12410,2506 L 12410,2789 12375,2789 12375,2506 12410,2506 Z M 12410,2895 L 12410,3177 12375,3177 12375,2895 12410,2895 Z M 12410,3283 L 12410,3566 12375,3566 12375,3283 12410,3283 Z M 12410,3672 L 12410,3955 12375,3955 12375,3672 12410,3672 Z M 12410,4061 L 12410,4343 12375,4343 12375,4061 12410,4061 Z M 12410,4449 L 12410,4732 12375,4732 12375,4449 12410,4449 Z M 12410,4838 L 12410,5121 12375,5121 12375,4838 12410,4838 Z M 12410,5227 L 12410,5509 12375,5509 12375,5227 12410,5227 Z M 12410,5615 L 12410,5898 12375,5898 12375,5615 12410,5615 Z M 12410,6004 L 12410,6287 12375,6287 12375,6004 12410,6004 Z M 12410,6393 L 12410,6675 12375,6675 12375,6393 12410,6393 Z M 12410,6781 L 12410,7064 12375,7064 12375,6781 12410,6781 Z M 12410,7170 L 12410,7453 12375,7453 12375,7170 12410,7170 Z M 12410,7559 L 12410,7841 12375,7841 12375,7559 12410,7559 Z M 12410,7947 L 12410,8230 12375,8230 12375,7947 12410,7947 Z M 12410,8336 L 12410,8619 12375,8619 12375,8336 12410,8336 Z M 12410,8725 L 12410,9007 12375,9007 12375,8725 12410,8725 Z M 12410,9113 L 12410,9396 12375,9396 12375,9113 12410,9113 Z M 12410,9502 L 12410,9537 12392,9520 12639,9520 12639,9555 12375,9555 12375,9502 12410,9502 Z M 12745,9520 L 13027,9520 13027,9555 12745,9555 12745,9520 Z M 13132,9520 L 13415,9520 13415,9555 13132,9555 13132,9520 Z M 13521,9520 L 13803,9520 13803,9555 13521,9555 13521,9520 Z M 13909,9520 L 14190,9520 14190,9555 13909,9555 13909,9520 Z M 14296,9520 L 14578,9520 14578,9555 14296,9555 14296,9520 Z M 14684,9520 L 14967,9520 14967,9555 14684,9555 14684,9520 Z M 15072,9520 L 15354,9520 15354,9555 15072,9555 15072,9520 Z M 15460,9520 L 15742,9520 15742,9555 15460,9555 15460,9520 Z M 15848,9520 L 16130,9520 16130,9555 15848,9555 15848,9520 Z M 16183,9502 L 16183,9219 16218,9219 16218,9502 16183,9502 Z M 16183,9113 L 16183,8831 16218,8831 16218,9113 16183,9113 Z M 16183,8725 L 16183,8442 16218,8442 16218,8725 16183,8725 Z M 16183,8336 L 16183,8053 16218,8053 16218,8336 16183,8336 Z M 16183,7947 L 16183,7665 16218,7665 16218,7947 16183,7947 Z M 16183,7559 L 16183,7276 16218,7276 16218,7559 16183,7559 Z M 16183,7170 L 16183,6887 16218,6887 16218,7170 16183,7170 Z M 16183,6781 L 16183,6499 16218,6499 16218,6781 16183,6781 Z M 16183,6393 L 16183,6110 16218,6110 16218,6393 16183,6393 Z M 16183,6004 L 16183,5721 16218,5721 16218,6004 16183,6004 Z M 16183,5615 L 16183,5333 16218,5333 16218,5615 16183,5615 Z M 16183,5227 L 16183,4944 16218,4944 16218,5227 16183,5227 Z M 16183,4838 L 16183,4555 16218,4555 16218,4838 16183,4838 Z M 16183,4449 L 16183,4167 16218,4167 16218,4449 16183,4449 Z M 16183,4061 L 16183,3778 16218,3778 16218,4061 16183,4061 Z M 16183,3672 L 16183,3389 16218,3389 16218,3672 16183,3672 Z M 16183,3283 L 16183,3001 16218,3001 16218,3283 16183,3283 Z M 16183,2895 L 16183,2612 16218,2612 16218,2895 16183,2895 Z M 16183,2506 L 16183,2223 16218,2223 16218,2506 16183,2506 Z M 16183,2117 L 16183,1835 16218,1835 16218,2117 16183,2117 Z M 16183,1729 L 16183,1446 16218,1446 16218,1729 16183,1729 Z M 16183,1341 L 16183,1269 16218,1269 16218,1341 16183,1341 Z"/>
 </g>
 <g fill="rgb(0,0,0)" stroke="none" font-family="Tahoma" font-size="496" font-style="normal" font-weight="400">
  <text x="13900" y="5600">
   <tspan x="13900 14158 14446">FTL</tspan></text>
 </g>
 <g fill="rgb(129,138,143)" stroke="none" font-family="Arial" font-size="424" font-style="normal" font-weight="400">
  <text x="11586" y="10959">
   <tspan x="11586 11865 12195">XOR</tspan></text>
  <text fill="rgb(129,138,143)" stroke="none" x="11391" y="11464">
   <tspan x="11391 11675 11912 12145 12234 12467">Engine</tspan></text>
  <path fill="rgb(129,138,143)" stroke="none" d="M 12040,10244 C 11221,10244 10559,10599 10559,11039 10559,11478 11221,11834 12040,11834 12857,11834 13521,11478 13521,11039 13521,10599 12857,10244 12040,10244 Z"/>
  <path fill="rgb(255,204,153)" stroke="none" d="M 11969,10173 C 11151,10173 10488,10529 10488,10968 10488,11407 11151,11763 11969,11763 12787,11763 13450,11407 13450,10968 13450,10529 12787,10173 11969,10173 Z"/>
  <path stroke-width="26" fill="none" stroke="rgb(0,0,0)" d="M 11969,10173 C 11151,10173 10488,10529 10488,10968 10488,11407 11151,11763 11969,11763 12787,11763 13450,11407 13450,10968 13450,10529 12787,10173 11969,10173 Z"/>
  <text fill="rgb(0,0,0)" stroke="none" x="11514" y="10887">
   <tspan x="11514 11793 12123">XOR</tspan></text>
  <text fill="rgb(0,0,0)" stroke="none" x="11319" y="11392">
   <tspan x="11319 11603 11840 12073 12162 12395">Engine</tspan></text>
  <text fill="rgb(129,138,143)" stroke="none" x="12986" y="12231">
   <tspan x="12986 13223 13316 13528">List</tspan></text>
  <text fill="rgb(129,138,143)" stroke="none" x="12661" y="12736">
   <tspan x="12661 12945 13182 13415 13504 13737">Engine</tspan></text>
  <path fill="rgb(129,138,143)" stroke="none" d="M 13309,11516 C 12491,11516 11828,11871 11828,12311 11828,12749 12491,13106 13309,13106 14127,13106 14790,12749 14790,12311 14790,11871 14127,11516 13309,11516 Z"/>
  <path fill="rgb(255,204,153)" stroke="none" d="M 13238,11445 C 12420,11445 11757,11801 11757,12240 11757,12679 12420,13035 13238,13035 14056,13035 14719,12679 14719,12240 14719,11801 14056,11445 13238,11445 Z"/>
  <path stroke-width="26" fill="none" stroke="rgb(0,0,0)" d="M 13238,11445 C 12420,11445 11757,11801 11757,12240 11757,12679 12420,13035 13238,13035 14056,13035 14719,12679 14719,12240 14719,11801 14056,11445 13238,11445 Z"/>
  <text fill="rgb(0,0,0)" stroke="none" x="12914" y="12159">
   <tspan x="12914 13151 13244 13456">List</tspan></text>
  <text fill="rgb(0,0,0)" stroke="none" x="12589" y="12664">
   <tspan x="12589 12873 13110 13343 13432 13665">Engine</tspan></text>
  <text fill="rgb(129,138,143)" stroke="none" x="7989" y="10959">
   <tspan x="7989 8273 8506 8624 8742 8979">Buffer</tspan></text>
  <text fill="rgb(129,138,143)" stroke="none" x="7943" y="11464">
   <tspan x="7943 8227 8532 8816">SRAM</tspan></text>
  <path fill="rgb(129,138,143)" stroke="none" d="M 8549,10244 C 7730,10244 7068,10599 7068,11039 7068,11478 7730,11834 8549,11834 9366,11834 10030,11478 10030,11039 10030,10599 9366,10244 8549,10244 Z"/>
  <path fill="rgb(255,204,153)" stroke="none" d="M 8478,10173 C 7660,10173 6997,10529 6997,10968 6997,11407 7660,11763 8478,11763 9296,11763 9959,11407 9959,10968 9959,10529 9296,10173 8478,10173 Z"/>
  <path stroke-width="26" fill="none" stroke="rgb(0,0,0)" d="M 8478,10173 C 7660,10173 6997,10529 6997,10968 6997,11407 7660,11763 8478,11763 9296,11763 9959,11407 9959,10968 9959,10529 9296,10173 8478,10173 Z"/>
  <text fill="rgb(0,0,0)" stroke="none" x="7917" y="10887">
   <tspan x="7917 8201 8434 8552 8670 8907">Buffer</tspan></text>
  <text fill="rgb(0,0,0)" stroke="none" x="7871" y="11392">
   <tspan x="7871 8155 8460 8744">SRAM</tspan></text>
  <text fill="rgb(129,138,143)" stroke="none" x="14336" y="10959">
   <tspan x="14336 14620 14853 14971 15089 15326">Buffer</tspan></text>
  <text fill="rgb(129,138,143)" stroke="none" x="14070" y="11464">
   <tspan x="14070 14421 14658 14891 15128 15356 15593">Manager</tspan></text>
  <path fill="rgb(129,138,143)" stroke="none" d="M 14896,10244 C 14078,10244 13415,10600 13415,11039 13415,11478 14078,11834 14896,11834 15714,11834 16377,11478 16377,11039 16377,10600 15714,10244 14896,10244 Z"/>
  <path fill="rgb(255,204,153)" stroke="none" d="M 14825,10173 C 14007,10173 13344,10529 13344,10968 13344,11408 14007,11763 14825,11763 15644,11763 16306,11408 16306,10968 16306,10529 15644,10173 14825,10173 Z"/>
  <path stroke-width="26" fill="none" stroke="rgb(0,0,0)" d="M 14825,10173 C 14007,10173 13344,10529 13344,10968 13344,11408 14007,11763 14825,11763 15644,11763 16306,11408 16306,10968 16306,10529 15644,10173 14825,10173 Z"/>
  <text fill="rgb(0,0,0)" stroke="none" x="14264" y="10887">
   <tspan x="14264 14548 14781 14899 15017 15254">Buffer</tspan></text>
  <text fill="rgb(0,0,0)" stroke="none" x="13998" y="11392">
   <tspan x="13998 14349 14586 14819 15056 15284 15521">Manager</tspan></text>
  <path fill="rgb(0,0,0)" stroke="rgb(0,0,0)" d="M 3295,4273 L 3295,4273 3355,4274 3415,4279 3476,4286 3536,4296 3596,4309 3655,4324 3713,4342 3770,4362 3826,4385 3881,4409 3935,4437 3988,4465 4040,4495 4090,4528 4138,4562 4184,4598 4229,4635 4271,4674 4311,4714 4350,4756 4386,4798 4419,4842 4450,4887 4478,4933 4503,4979 4526,5026 4545,5074 4545,5074 C 4545,5075 4545,5076 4546,5076 L 4546,5076 4561,5141 4527,5149 4511,5085 4512,5087 4494,5041 4472,4996 4448,4951 4421,4907 4391,4864 4359,4821 4324,4780 4287,4740 4247,4700 4206,4663 4163,4626 4117,4591 4070,4558 4022,4526 3972,4496 3920,4468 3867,4442 3813,4417 3758,4396 3702,4376 3646,4359 3588,4344 3530,4331 3472,4322 3413,4314 3354,4310 3294,4308 3295,4273 Z M 4643,5093 L 4643,5093 4573,5319 4434,5128 4643,5093 Z"/>
  <path fill="rgb(0,0,0)" stroke="rgb(0,0,0)" d="M 7104,5863 L 7104,5863 7158,5865 7213,5870 7267,5879 7321,5890 7372,5905 7420,5923 7467,5942 7511,5964 7551,5988 7588,6014 7620,6041 7647,6069 7670,6100 7670,6100 C 7671,6100 7671,6101 7671,6102 L 7671,6102 7687,6131 7694,6148 7698,6164 7701,6181 7702,6198 7703,6212 7706,6225 7709,6238 7714,6252 7729,6279 7728,6277 7749,6305 7774,6330 7803,6356 7838,6379 7876,6402 7917,6423 7962,6441 8009,6458 8058,6472 8055,6472 8094,6477 8089,6512 8050,6507 8050,6507 C 8049,6507 8049,6506 8048,6506 L 8048,6506 7996,6491 7948,6474 7901,6454 7857,6432 7817,6408 7781,6382 7748,6355 7720,6326 7699,6297 7699,6297 C 7699,6297 7698,6296 7698,6295 L 7698,6295 7681,6264 7675,6247 7671,6231 7668,6214 7667,6199 7666,6186 7664,6173 7661,6160 7656,6147 7641,6118 7642,6120 7622,6094 7597,6068 7567,6042 7533,6018 7495,5996 7454,5974 7409,5955 7362,5939 7313,5925 7262,5914 7209,5905 7157,5900 7102,5898 7104,5863 Z M 8070,6385 L 8070,6385 8266,6516 8044,6595 8070,6385 Z"/>
  <path fill="rgb(0,0,0)" stroke="rgb(0,0,0)" d="M 8638,7246 L 8613,7289 8613,7289 C 8612,7290 8611,7291 8610,7292 L 8610,7292 8589,7312 8566,7332 8541,7352 8515,7373 8487,7392 8458,7412 8427,7431 8394,7450 8324,7488 8248,7524 8167,7560 8081,7595 7989,7628 7893,7661 7792,7692 7687,7722 7578,7751 7465,7778 7349,7804 7230,7828 7107,7850 6981,7871 6855,7890 6725,7907 6593,7922 6460,7934 6326,7945 6190,7953 6054,7959 5917,7963 5780,7964 5644,7963 5507,7960 5370,7954 5235,7945 5101,7935 4968,7922 4837,7907 4707,7890 4580,7872 4455,7851 4332,7829 4213,7805 4097,7780 3984,7752 3875,7724 3770,7694 3669,7662 3573,7631 3482,7597 3395,7562 3314,7527 3238,7490 3168,7453 3135,7434 3104,7414 3075,7395 3047,7376 3020,7356 2996,7336 2973,7316 2952,7296 2952,7296 C 2951,7295 2949,7294 2949,7292 L 2949,7292 2924,7250 2954,7232 2979,7274 2976,7270 2997,7289 3018,7308 3042,7327 3067,7347 3094,7366 3123,7385 3153,7403 3185,7422 3253,7458 3328,7494 3408,7529 3493,7564 3584,7597 3679,7629 3779,7660 3884,7689 3992,7718 4104,7745 4220,7770 4338,7794 4460,7816 4584,7837 4711,7855 4840,7872 4972,7887 5104,7900 5237,7910 5372,7918 5508,7925 5644,7928 5780,7929 5916,7928 6052,7924 6188,7918 6323,7910 6457,7899 6590,7886 6720,7871 6849,7855 6976,7836 7100,7816 7222,7793 7341,7769 7456,7744 7569,7717 7677,7688 7782,7659 7881,7627 7977,7595 8067,7562 8153,7527 8233,7492 8307,7456 8376,7420 8408,7401 8438,7382 8467,7363 8494,7344 8519,7325 8542,7306 8565,7287 8585,7267 8582,7270 8607,7228 8638,7246 Z M 8512,7223 L 8512,7223 8698,7077 8703,7314 8512,7223 Z M 2859,7319 L 2859,7319 2863,7082 3050,7227 2859,7319 Z"/>
  <path fill="rgb(0,0,0)" stroke="rgb(0,0,0)" d="M 11400,6478 L 11497,6458 11559,6437 11619,6412 11676,6384 11729,6352 11777,6318 11821,6281 11859,6243 11876,6224 11891,6204 11905,6183 11917,6163 11927,6142 11936,6122 11943,6101 11948,6080 11950,6059 11951,6039 11952,6016 11955,5992 11961,5969 11969,5945 11978,5922 11990,5899 12003,5876 12018,5854 12035,5833 12053,5812 12093,5771 12140,5733 12190,5697 12246,5664 12305,5635 12367,5609 12432,5587 12531,5566 12538,5600 12443,5620 12380,5641 12320,5666 12263,5695 12210,5726 12162,5760 12118,5796 12079,5835 12062,5854 12047,5874 12033,5894 12021,5915 12011,5935 12003,5956 11996,5977 11990,5997 11988,6018 11987,6040 11985,6064 11982,6088 11976,6112 11969,6135 11959,6158 11948,6181 11934,6203 11919,6225 11903,6247 11884,6268 11843,6309 11797,6347 11747,6383 11691,6415 11632,6445 11570,6471 11504,6493 11407,6513 11400,6478 Z M 11451,6597 L 11228,6516 11426,6386 11451,6597 Z M 12487,5482 L 12709,5562 12512,5693 12487,5482 Z"/>
  <path fill="rgb(0,0,0)" stroke="rgb(0,0,0)" d="M 16378,5405 L 16378,5405 16421,5411 16444,5417 16465,5423 16483,5431 16498,5438 16511,5447 16511,5447 C 16512,5447 16513,5447 16513,5448 L 16522,5455 16522,5455 C 16524,5456 16524,5457 16525,5458 L 16530,5466 16530,5466 C 16531,5467 16532,5469 16533,5471 L 16533,5471 16535,5478 16537,5486 16534,5481 16540,5488 16537,5485 16545,5491 16543,5490 16554,5498 16567,5503 16583,5509 16601,5516 16622,5521 16662,5526 16658,5561 16613,5555 16590,5548 16570,5542 16551,5535 16537,5527 16525,5520 16525,5520 C 16524,5520 16523,5519 16522,5519 L 16513,5511 16513,5511 C 16512,5510 16511,5509 16511,5508 L 16506,5501 16506,5501 C 16504,5499 16504,5498 16503,5495 L 16503,5495 16501,5488 16499,5481 16502,5486 16496,5478 16499,5482 16491,5474 16493,5476 16483,5470 16470,5464 16454,5457 16436,5452 16417,5446 16374,5440 16378,5405 Z M 16399,5532 L 16399,5532 16200,5403 16422,5322 16399,5532 Z M 16637,5434 L 16637,5434 16835,5562 16614,5645 16637,5434 Z"/>
  <text fill="rgb(129,138,143)" stroke="none" x="13456" y="5554">
   <tspan x="13456 13807 14044 14277 14514 14603 14840">Mapping</tspan></text>
  <text fill="rgb(129,138,143)" stroke="none" x="13435" y="6058">
   <tspan x="13435 13786 14023 14256 14493 14721 14958">Manager</tspan></text>
  <path fill="rgb(129,138,143)" stroke="none" d="M 14261,4838 C 13443,4838 12780,5194 12780,5633 12780,6072 13443,6428 14261,6428 15079,6428 15742,6072 15742,5633 15742,5194 15079,4838 14261,4838 Z"/>
  <path fill="rgb(204,255,255)" stroke="none" d="M 14190,4767 C 13372,4767 12709,5123 12709,5562 12709,6002 13372,6357 14190,6357 15009,6357 15671,6002 15671,5562 15671,5123 15009,4767 14190,4767 Z"/>
  <path stroke-width="26" fill="none" stroke="rgb(0,0,0)" d="M 14190,4767 C 13372,4767 12709,5123 12709,5562 12709,6002 13372,6357 14190,6357 15009,6357 15671,6002 15671,5562 15671,5123 15009,4767 14190,4767 Z"/>
  <text fill="rgb(0,0,0)" stroke="none" x="13384" y="5482">
   <tspan x="13384 13735 13972 14205 14442 14531 14768">Mapping</tspan></text>
  <text fill="rgb(0,0,0)" stroke="none" x="13363" y="5986">
   <tspan x="13363 13714 13951 14184 14421 14649 14886">Manager</tspan></text>
  <text fill="rgb(129,138,143)" stroke="none" x="13456" y="5872">
   <tspan x="13456 13807 14044 14277 14514 14603 14840">Mapping</tspan></text>
  <text fill="rgb(129,138,143)" stroke="none" x="13435" y="6376">
   <tspan x="13435 13786 14023 14256 14493 14721 14958">Manager</tspan></text>
  <path fill="rgb(129,138,143)" stroke="none" d="M 14261,5156 C 13443,5156 12780,5512 12780,5951 12780,6390 13443,6746 14261,6746 15079,6746 15742,6390 15742,5951 15742,5512 15079,5156 14261,5156 Z"/>
  <path fill="rgb(204,255,255)" stroke="none" d="M 14190,5085 C 13372,5085 12709,5441 12709,5880 12709,6320 13372,6675 14190,6675 15009,6675 15671,6320 15671,5880 15671,5441 15009,5085 14190,5085 Z"/>
  <path stroke-width="26" fill="none" stroke="rgb(0,0,0)" d="M 14190,5085 C 13372,5085 12709,5441 12709,5880 12709,6320 13372,6675 14190,6675 15009,6675 15671,6320 15671,5880 15671,5441 15009,5085 14190,5085 Z"/>
  <text fill="rgb(0,0,0)" stroke="none" x="13384" y="5800">
   <tspan x="13384 13735 13972 14205 14442 14531 14768">Mapping</tspan></text>
  <text fill="rgb(0,0,0)" stroke="none" x="13363" y="6304">
   <tspan x="13363 13714 13951 14184 14421 14649 14886">Manager</tspan></text>
  <text fill="rgb(129,138,143)" stroke="none" x="13456" y="6190">
   <tspan x="13456 13807 14044 14277 14514 14603 14840">Mapping</tspan></text>
  <text fill="rgb(129,138,143)" stroke="none" x="13435" y="6694">
   <tspan x="13435 13786 14023 14256 14493 14721 14958">Manager</tspan></text>
  <path fill="rgb(129,138,143)" stroke="none" d="M 14261,5474 C 13443,5474 12780,5830 12780,6269 12780,6708 13443,7064 14261,7064 15079,7064 15742,6708 15742,6269 15742,5830 15079,5474 14261,5474 Z"/>
  <path fill="rgb(204,255,255)" stroke="none" d="M 14190,5403 C 13372,5403 12709,5759 12709,6198 12709,6638 13372,6993 14190,6993 15009,6993 15671,6638 15671,6198 15671,5759 15009,5403 14190,5403 Z"/>
  <path stroke-width="26" fill="none" stroke="rgb(0,0,0)" d="M 14190,5403 C 13372,5403 12709,5759 12709,6198 12709,6638 13372,6993 14190,6993 15009,6993 15671,6638 15671,6198 15671,5759 15009,5403 14190,5403 Z"/>
  <text fill="rgb(0,0,0)" stroke="none" x="13384" y="6118">
   <tspan x="13384 13735 13972 14205 14442 14531 14768">Mapping</tspan></text>
  <text fill="rgb(0,0,0)" stroke="none" x="13363" y="6622">
   <tspan x="13363 13714 13951 14184 14421 14649 14886">Manager</tspan></text>
  <text fill="rgb(129,138,143)" stroke="none" x="13456" y="6508">
   <tspan x="13456 13807 14044 14277 14514 14603 14840">Mapping</tspan></text>
  <text fill="rgb(129,138,143)" stroke="none" x="13435" y="7012">
   <tspan x="13435 13786 14023 14256 14493 14721 14958">Manager</tspan></text>
  <path fill="rgb(129,138,143)" stroke="none" d="M 14261,5792 C 13443,5792 12780,6148 12780,6587 12780,7026 13443,7382 14261,7382 15079,7382 15742,7026 15742,6587 15742,6148 15079,5792 14261,5792 Z"/>
  <path fill="rgb(204,255,255)" stroke="none" d="M 14190,5721 C 13372,5721 12709,6077 12709,6516 12709,6956 13372,7311 14190,7311 15009,7311 15671,6956 15671,6516 15671,6077 15009,5721 14190,5721 Z"/>
  <path stroke-width="26" fill="none" stroke="rgb(0,0,0)" d="M 14190,5721 C 13372,5721 12709,6077 12709,6516 12709,6956 13372,7311 14190,7311 15009,7311 15671,6956 15671,6516 15671,6077 15009,5721 14190,5721 Z"/>
  <text fill="rgb(0,0,0)" stroke="none" x="13384" y="6436">
   <tspan x="13384 13735 13972 14205 14442 14531 14768">Mapping</tspan></text>
  <text fill="rgb(0,0,0)" stroke="none" x="13363" y="6940">
   <tspan x="13363 13714 13951 14184 14421 14649 14886">Manager</tspan></text>
  <text fill="rgb(129,138,143)" stroke="none" x="13456" y="5554">
   <tspan x="13456 13807 14044 14277 14514 14603 14840">Mapping</tspan></text>
  <text fill="rgb(129,138,143)" stroke="none" x="13435" y="6058">
   <tspan x="13435 13786 14023 14256 14493 14721 14958">Manager</tspan></text>
  <path fill="rgb(129,138,143)" stroke="none" d="M 14261,4838 C 13443,4838 12780,5194 12780,5633 12780,6072 13443,6428 14261,6428 15079,6428 15742,6072 15742,5633 15742,5194 15079,4838 14261,4838 Z"/>
  <path fill="rgb(204,255,255)" stroke="none" d="M 14190,4767 C 13372,4767 12709,5123 12709,5562 12709,6002 13372,6357 14190,6357 15009,6357 15671,6002 15671,5562 15671,5123 15009,4767 14190,4767 Z"/>
  <path stroke-width="26" fill="none" stroke="rgb(0,0,0)" d="M 14190,4767 C 13372,4767 12709,5123 12709,5562 12709,6002 13372,6357 14190,6357 15009,6357 15671,6002 15671,5562 15671,5123 15009,4767 14190,4767 Z"/>
  <text fill="rgb(0,0,0)" stroke="none" x="13384" y="5482">
   <tspan x="13384 13735 13972 14205 14442 14531 14768">Mapping</tspan></text>
  <text fill="rgb(0,0,0)" stroke="none" x="13363" y="5986">
   <tspan x="13363 13714 13951 14184 14421 14649 14886">Manager</tspan></text>
  <text fill="rgb(129,138,143)" stroke="none" x="13456" y="5872">
   <tspan x="13456 13807 14044 14277 14514 14603 14840">Mapping</tspan></text>
  <text fill="rgb(129,138,143)" stroke="none" x="13435" y="6376">
   <tspan x="13435 13786 14023 14256 14493 14721 14958">Manager</tspan></text>
  <path fill="rgb(129,138,143)" stroke="none" d="M 14261,5156 C 13443,5156 12780,5512 12780,5951 12780,6390 13443,6746 14261,6746 15079,6746 15742,6390 15742,5951 15742,5512 15079,5156 14261,5156 Z"/>
  <path fill="rgb(204,255,255)" stroke="none" d="M 14190,5085 C 13372,5085 12709,5441 12709,5880 12709,6320 13372,6675 14190,6675 15009,6675 15671,6320 15671,5880 15671,5441 15009,5085 14190,5085 Z"/>
  <path stroke-width="26" fill="none" stroke="rgb(0,0,0)" d="M 14190,5085 C 13372,5085 12709,5441 12709,5880 12709,6320 13372,6675 14190,6675 15009,6675 15671,6320 15671,5880 15671,5441 15009,5085 14190,5085 Z"/>
  <text fill="rgb(0,0,0)" stroke="none" x="13384" y="5800">
   <tspan x="13384 13735 13972 14205 14442 14531 14768">Mapping</tspan></text>
  <text fill="rgb(0,0,0)" stroke="none" x="13363" y="6304">
   <tspan x="13363 13714 13951 14184 14421 14649 14886">Manager</tspan></text>
  <text fill="rgb(129,138,143)" stroke="none" x="13456" y="6190">
   <tspan x="13456 13807 14044 14277 14514 14603 14840">Mapping</tspan></text>
  <text fill="rgb(129,138,143)" stroke="none" x="13435" y="6694">
   <tspan x="13435 13786 14023 14256 14493 14721 14958">Manager</tspan></text>
  <path fill="rgb(129,138,143)" stroke="none" d="M 14261,5474 C 13443,5474 12780,5830 12780,6269 12780,6708 13443,7064 14261,7064 15079,7064 15742,6708 15742,6269 15742,5830 15079,5474 14261,5474 Z"/>
  <path fill="rgb(204,255,255)" stroke="none" d="M 14190,5403 C 13372,5403 12709,5759 12709,6198 12709,6638 13372,6993 14190,6993 15009,6993 15671,6638 15671,6198 15671,5759 15009,5403 14190,5403 Z"/>
  <path stroke-width="26" fill="none" stroke="rgb(0,0,0)" d="M 14190,5403 C 13372,5403 12709,5759 12709,6198 12709,6638 13372,6993 14190,6993 15009,6993 15671,6638 15671,6198 15671,5759 15009,5403 14190,5403 Z"/>
  <text fill="rgb(0,0,0)" stroke="none" x="13384" y="6118">
   <tspan x="13384 13735 13972 14205 14442 14531 14768">Mapping</tspan></text>
  <text fill="rgb(0,0,0)" stroke="none" x="13363" y="6622">
   <tspan x="13363 13714 13951 14184 14421 14649 14886">Manager</tspan></text>
  <text fill="rgb(129,138,143)" stroke="none" x="13456" y="6508">
   <tspan x="13456 13807 14044 14277 14514 14603 14840">Mapping</tspan></text>
  <text fill="rgb(129,138,143)" stroke="none" x="13435" y="7012">
   <tspan x="13435 13786 14023 14256 14493 14721 14958">Manager</tspan></text>
  <path fill="rgb(129,138,143)" stroke="none" d="M 14261,5792 C 13443,5792 12780,6148 12780,6587 12780,7026 13443,7382 14261,7382 15079,7382 15742,7026 15742,6587 15742,6148 15079,5792 14261,5792 Z"/>
  <path fill="rgb(204,255,255)" stroke="none" d="M 14190,5721 C 13372,5721 12709,6077 12709,6516 12709,6956 13372,7311 14190,7311 15009,7311 15671,6956 15671,6516 15671,6077 15009,5721 14190,5721 Z"/>
  <path stroke-width="26" fill="none" stroke="rgb(0,0,0)" d="M 14190,5721 C 13372,5721 12709,6077 12709,6516 12709,6956 13372,7311 14190,7311 15009,7311 15671,6956 15671,6516 15671,6077 15009,5721 14190,5721 Z"/>
  <text fill="rgb(0,0,0)" stroke="none" x="13384" y="6436">
   <tspan x="13384 13735 13972 14205 14442 14531 14768">Mapping</tspan></text>
  <text fill="rgb(0,0,0)" stroke="none" x="13363" y="6940">
   <tspan x="13363 13714 13951 14184 14421 14649 14886">Manager</tspan></text>
  <text fill="rgb(129,138,143)" stroke="none" x="13896" y="2374">
   <tspan x="13896 14108 14341 14578 14718 14951 15188">Journal</tspan></text>
  <text fill="rgb(129,138,143)" stroke="none" x="13752" y="2878">
   <tspan x="13752 14103 14340 14573 14810 15038 15275">Manager</tspan></text>
  <path fill="rgb(129,138,143)" stroke="none" d="M 14578,1658 C 13761,1658 13097,2015 13097,2453 13097,2892 13761,3248 14578,3248 15396,3248 16059,2892 16059,2453 16059,2015 15396,1658 14578,1658 Z"/>
  <path fill="rgb(204,255,255)" stroke="none" d="M 14508,1587 C 13690,1587 13027,1944 13027,2382 13027,2822 13690,3177 14508,3177 15326,3177 15989,2822 15989,2382 15989,1944 15326,1587 14508,1587 Z"/>
  <path stroke-width="26" fill="none" stroke="rgb(0,0,0)" d="M 14508,1587 C 13690,1587 13027,1944 13027,2382 13027,2822 13690,3177 14508,3177 15326,3177 15989,2822 15989,2382 15989,1944 15326,1587 14508,1587 Z"/>
  <text fill="rgb(0,0,0)" stroke="none" x="13824" y="2302">
   <tspan x="13824 14036 14269 14506 14646 14879 15116">Journal</tspan></text>
  <text fill="rgb(0,0,0)" stroke="none" x="13680" y="2806">
   <tspan x="13680 14031 14268 14501 14738 14966 15203">Manager</tspan></text>
  <text fill="rgb(129,138,143)" stroke="none" x="14065" y="3964">
   <tspan x="14065 14349 14442 14679 14891">Block</tspan></text>
  <text fill="rgb(129,138,143)" stroke="none" x="13752" y="4468">
   <tspan x="13752 14103 14340 14573 14810 15038 15275">Manager</tspan></text>
  <path fill="rgb(129,138,143)" stroke="none" d="M 14578,3248 C 13761,3248 13097,3604 13097,4043 13097,4482 13761,4838 14578,4838 15396,4838 16059,4482 16059,4043 16059,3604 15396,3248 14578,3248 Z"/>
  <path fill="rgb(204,255,255)" stroke="none" d="M 14508,3177 C 13690,3177 13027,3533 13027,3972 13027,4412 13690,4767 14508,4767 15326,4767 15989,4412 15989,3972 15989,3533 15326,3177 14508,3177 Z"/>
  <path stroke-width="26" fill="none" stroke="rgb(0,0,0)" d="M 14508,3177 C 13690,3177 13027,3533 13027,3972 13027,4412 13690,4767 14508,4767 15326,4767 15989,4412 15989,3972 15989,3533 15326,3177 14508,3177 Z"/>
  <text fill="rgb(0,0,0)" stroke="none" x="13993" y="3892">
   <tspan x="13993 14277 14370 14607 14819">Block</tspan></text>
  <text fill="rgb(0,0,0)" stroke="none" x="13680" y="4396">
   <tspan x="13680 14031 14268 14501 14738 14966 15203">Manager</tspan></text>
  <text fill="rgb(129,138,143)" stroke="none" x="13697" y="8097">
   <tspan x="13697 14002 14239 14446 14683 14890 15127 15267">Recovery</tspan></text>
  <text fill="rgb(129,138,143)" stroke="none" x="13752" y="8602">
   <tspan x="13752 14103 14340 14573 14810 15038 15275">Manager</tspan></text>
  <path fill="rgb(129,138,143)" stroke="none" d="M 14578,7382 C 13761,7382 13097,7738 13097,8177 13097,8616 13761,8972 14578,8972 15396,8972 16059,8616 16059,8177 16059,7738 15396,7382 14578,7382 Z"/>
  <path fill="rgb(204,255,255)" stroke="none" d="M 14508,7311 C 13690,7311 13027,7667 13027,8106 13027,8546 13690,8901 14508,8901 15326,8901 15989,8546 15989,8106 15989,7667 15326,7311 14508,7311 Z"/>
  <path stroke-width="26" fill="none" stroke="rgb(0,0,0)" d="M 14508,7311 C 13690,7311 13027,7667 13027,8106 13027,8546 13690,8901 14508,8901 15326,8901 15989,8546 15989,8106 15989,7667 15326,7311 14508,7311 Z"/>
  <text fill="rgb(0,0,0)" stroke="none" x="13625" y="8025">
   <tspan x="13625 13930 14167 14374 14611 14818 15055 15195">Recovery</tspan></text>
  <text fill="rgb(0,0,0)" stroke="none" x="13680" y="8530">
   <tspan x="13680 14031 14268 14501 14738 14966 15203">Manager</tspan></text>
  <text fill="rgb(129,138,143)" stroke="none" x="13697" y="8415">
   <tspan x="13697 14002 14239 14446 14683 14890 15127 15267">Recovery</tspan></text>
  <text fill="rgb(129,138,143)" stroke="none" x="13752" y="8920">
   <tspan x="13752 14103 14340 14573 14810 15038 15275">Manager</tspan></text>
  <path fill="rgb(129,138,143)" stroke="none" d="M 14578,7700 C 13761,7700 13097,8056 13097,8495 13097,8934 13761,9290 14578,9290 15396,9290 16059,8934 16059,8495 16059,8056 15396,7700 14578,7700 Z"/>
  <path fill="rgb(204,255,255)" stroke="none" d="M 14508,7629 C 13690,7629 13027,7985 13027,8424 13027,8864 13690,9219 14508,9219 15326,9219 15989,8864 15989,8424 15989,7985 15326,7629 14508,7629 Z"/>
  <path stroke-width="26" fill="none" stroke="rgb(0,0,0)" d="M 14508,7629 C 13690,7629 13027,7985 13027,8424 13027,8864 13690,9219 14508,9219 15326,9219 15989,8864 15989,8424 15989,7985 15326,7629 14508,7629 Z"/>
  <text fill="rgb(0,0,0)" stroke="none" x="13625" y="8343">
   <tspan x="13625 13930 14167 14374 14611 14818 15055 15195">Recovery</tspan></text>
  <text fill="rgb(0,0,0)" stroke="none" x="13680" y="8848">
   <tspan x="13680 14031 14268 14501 14738 14966 15203">Manager</tspan></text>
  <text fill="rgb(129,138,143)" stroke="none" x="13697" y="8097">
   <tspan x="13697 14002 14239 14446 14683 14890 15127 15267">Recovery</tspan></text>
  <text fill="rgb(129,138,143)" stroke="none" x="13752" y="8602">
   <tspan x="13752 14103 14340 14573 14810 15038 15275">Manager</tspan></text>
  <path fill="rgb(129,138,143)" stroke="none" d="M 14578,7382 C 13761,7382 13097,7738 13097,8177 13097,8616 13761,8972 14578,8972 15396,8972 16059,8616 16059,8177 16059,7738 15396,7382 14578,7382 Z"/>
  <path fill="rgb(204,255,255)" stroke="none" d="M 14508,7311 C 13690,7311 13027,7667 13027,8106 13027,8546 13690,8901 14508,8901 15326,8901 15989,8546 15989,8106 15989,7667 15326,7311 14508,7311 Z"/>
  <path stroke-width="26" fill="none" stroke="rgb(0,0,0)" d="M 14508,7311 C 13690,7311 13027,7667 13027,8106 13027,8546 13690,8901 14508,8901 15326,8901 15989,8546 15989,8106 15989,7667 15326,7311 14508,7311 Z"/>
  <text fill="rgb(0,0,0)" stroke="none" x="13625" y="8025">
   <tspan x="13625 13930 14167 14374 14611 14818 15055 15195">Recovery</tspan></text>
  <text fill="rgb(0,0,0)" stroke="none" x="13680" y="8530">
   <tspan x="13680 14031 14268 14501 14738 14966 15203">Manager</tspan></text>
  <text fill="rgb(129,138,143)" stroke="none" x="13697" y="8415">
   <tspan x="13697 14002 14239 14446 14683 14890 15127 15267">Recovery</tspan></text>
  <text fill="rgb(129,138,143)" stroke="none" x="13752" y="8920">
   <tspan x="13752 14103 14340 14573 14810 15038 15275">Manager</tspan></text>
  <path fill="rgb(129,138,143)" stroke="none" d="M 14578,7700 C 13761,7700 13097,8056 13097,8495 13097,8934 13761,9290 14578,9290 15396,9290 16059,8934 16059,8495 16059,8056 15396,7700 14578,7700 Z"/>
  <path fill="rgb(204,255,255)" stroke="none" d="M 14508,7629 C 13690,7629 13027,7985 13027,8424 13027,8864 13690,9219 14508,9219 15326,9219 15989,8864 15989,8424 15989,7985 15326,7629 14508,7629 Z"/>
  <path stroke-width="26" fill="none" stroke="rgb(0,0,0)" d="M 14508,7629 C 13690,7629 13027,7985 13027,8424 13027,8864 13690,9219 14508,9219 15326,9219 15989,8864 15989,8424 15989,7985 15326,7629 14508,7629 Z"/>
  <text fill="rgb(0,0,0)" stroke="none" x="13625" y="8343">
   <tspan x="13625 13930 14167 14374 14611 14818 15055 15195">Recovery</tspan></text>
  <text fill="rgb(0,0,0)" stroke="none" x="13680" y="8848">
   <tspan x="13680 14031 14268 14501 14738 14966 15203">Manager</tspan></text>
 </g>
 <g fill="rgb(129,138,143)" stroke="none" font-family="Tahoma" font-size="496" font-style="normal" font-weight="400">
  <text x="4084" y="4405">1</text>
  <path fill="rgb(129,138,143)" stroke="none" d="M 4211,3884 C 4036,3884 3894,4026 3894,4202 3894,4378 4036,4520 4211,4520 4387,4520 4529,4378 4529,4202 4529,4026 4387,3884 4211,3884 Z"/>
  <path fill="rgb(255,255,255)" stroke="none" d="M 4141,3813 C 3966,3813 3823,3956 3823,4131 3823,4307 3966,4449 4141,4449 4316,4449 4458,4307 4458,4131 4458,3956 4316,3813 4141,3813 Z"/>
  <path stroke-width="35" fill="none" stroke="rgb(255,0,0)" d="M 4141,3813 C 3966,3813 3823,3956 3823,4131 3823,4307 3966,4449 4141,4449 4316,4449 4458,4307 4458,4131 4458,3956 4316,3813 4141,3813 Z"/>
  <text fill="rgb(0,0,0)" stroke="none" x="4012" y="4333">1</text>
  <text fill="rgb(129,138,143)" stroke="none" x="7892" y="5995">2</text>
  <path fill="rgb(129,138,143)" stroke="none" d="M 8020,5474 C 7844,5474 7702,5616 7702,5792 7702,5968 7844,6110 8020,6110 8195,6110 8337,5968 8337,5792 8337,5616 8195,5474 8020,5474 Z"/>
  <path fill="rgb(255,255,255)" stroke="none" d="M 7949,5403 C 7774,5403 7632,5546 7632,5721 7632,5897 7774,6039 7949,6039 8124,6039 8266,5897 8266,5721 8266,5546 8124,5403 7949,5403 Z"/>
  <path stroke-width="35" fill="none" stroke="rgb(255,0,0)" d="M 7949,5403 C 7774,5403 7632,5546 7632,5721 7632,5897 7774,6039 7949,6039 8124,6039 8266,5897 8266,5721 8266,5546 8124,5403 7949,5403 Z"/>
  <text fill="rgb(0,0,0)" stroke="none" x="7820" y="5923">2</text>
  <path fill="rgb(0,0,0)" stroke="rgb(0,0,0)" d="M 8665,5782 L 8665,5782 8661,5746 8647,5679 8628,5610 8606,5543 8580,5476 8550,5410 8517,5345 8482,5281 8442,5219 8400,5158 8355,5099 8307,5042 8258,4986 8205,4933 8150,4881 8094,4832 8035,4786 7974,4742 7912,4700 7849,4662 7784,4627 7717,4594 7650,4566 7582,4540 7513,4519 7443,4501 7372,4486 7302,4476 7231,4469 7160,4467 7088,4468 7017,4471 6946,4475 6875,4482 6805,4489 6735,4499 6598,4521 6466,4550 6403,4566 6340,4584 6280,4602 6221,4623 6164,4643 6109,4664 6057,4687 6007,4711 5959,4735 5915,4760 5872,4786 5833,4812 5798,4839 5765,4866 5736,4893 5740,4889 5712,4935 5682,4917 5709,4871 5709,4871 C 5710,4870 5711,4868 5712,4867 L 5712,4867 5743,4838 5777,4810 5814,4783 5854,4756 5897,4729 5943,4704 5992,4679 6043,4655 6096,4632 6152,4610 6209,4589 6269,4569 6331,4550 6394,4532 6459,4515 6592,4487 6730,4464 6801,4454 6872,4446 6943,4440 7015,4435 7088,4433 7161,4432 7234,4434 7307,4441 7380,4451 7452,4466 7523,4485 7594,4508 7664,4534 7733,4563 7800,4596 7867,4632 7932,4671 7995,4713 8057,4758 8117,4805 8175,4856 8230,4908 8284,4962 8335,5019 8384,5078 8429,5138 8472,5200 8512,5264 8549,5329 8583,5395 8613,5463 8639,5531 8662,5601 8681,5671 8697,5743 8700,5778 8665,5782 Z M 8785,5735 L 8785,5735 8698,5955 8574,5755 8785,5735 Z M 5808,4939 L 5808,4939 5622,5085 5616,4848 5808,4939 Z"/>
  <path fill="rgb(0,0,0)" stroke="rgb(0,0,0)" d="M 8669,5781 L 8669,5781 8661,5702 8647,5618 8628,5536 8605,5454 8579,5372 8550,5292 8517,5213 8481,5136 8441,5060 8400,4987 8355,4915 8306,4845 8257,4777 8204,4713 8149,4651 8093,4591 8034,4535 7973,4482 7911,4431 7847,4385 7782,4342 7716,4304 7649,4269 7581,4238 7511,4211 7442,4190 7372,4172 7301,4159 7231,4152 7160,4149 7088,4150 7017,4153 6946,4157 6875,4164 6805,4171 6735,4181 6598,4203 6466,4232 6403,4248 6340,4266 6280,4284 6221,4305 6164,4325 6109,4346 6057,4369 6007,4393 5959,4417 5915,4442 5872,4468 5833,4494 5798,4521 5765,4548 5736,4575 5740,4571 5712,4617 5682,4599 5709,4553 5709,4553 C 5710,4552 5711,4550 5712,4549 L 5712,4549 5743,4520 5777,4492 5814,4465 5854,4438 5897,4411 5943,4386 5992,4361 6043,4337 6096,4314 6152,4292 6209,4271 6269,4251 6331,4232 6394,4214 6459,4198 6592,4169 6730,4146 6801,4136 6872,4128 6943,4122 7015,4117 7088,4115 7161,4114 7234,4116 7307,4124 7380,4138 7452,4156 7524,4178 7595,4205 7665,4237 7734,4273 7802,4313 7868,4357 7933,4404 7996,4455 8058,4509 8118,4566 8176,4627 8231,4690 8285,4757 8336,4825 8384,4896 8430,4969 8473,5044 8513,5121 8549,5200 8583,5280 8613,5361 8640,5444 8662,5528 8681,5613 8697,5698 8705,5778 8669,5781 Z M 8790,5737 L 8790,5737 8698,5955 8579,5751 8790,5737 Z M 5808,4621 L 5808,4621 5622,4767 5616,4530 5808,4621 Z"/>
  <path fill="rgb(0,0,0)" stroke="rgb(0,0,0)" d="M 8673,5781 L 8673,5781 8661,5657 8647,5558 8628,5461 8605,5364 8579,5269 8550,5175 8516,5082 8480,4991 8441,4902 8399,4815 8354,4731 8306,4649 8256,4570 8203,4493 8148,4420 8092,4350 8033,4284 7972,4221 7910,4163 7846,4108 7781,4058 7715,4013 7648,3971 7580,3935 7510,3904 7441,3878 7371,3858 7301,3844 7230,3834 7160,3831 7088,3832 7017,3835 6946,3840 6875,3846 6805,3854 6735,3863 6598,3886 6466,3915 6403,3931 6340,3948 6280,3967 6220,3987 6164,4007 6109,4029 6057,4052 6007,4075 5959,4099 5915,4124 5872,4150 5833,4176 5798,4203 5765,4230 5736,4257 5740,4253 5712,4299 5682,4281 5709,4235 5709,4235 C 5710,4234 5711,4232 5712,4231 L 5712,4231 5743,4202 5777,4174 5814,4147 5854,4120 5897,4093 5943,4068 5992,4043 6043,4019 6096,3996 6152,3974 6210,3953 6269,3933 6331,3914 6394,3896 6459,3880 6592,3851 6730,3828 6801,3818 6872,3811 6943,3804 7015,3800 7088,3797 7161,3796 7235,3800 7308,3809 7381,3824 7453,3846 7525,3872 7596,3904 7666,3941 7735,3983 7803,4030 7870,4081 7934,4137 7998,4197 8059,4261 8119,4328 8177,4399 8232,4473 8286,4550 8337,4631 8385,4714 8430,4800 8473,4888 8513,4978 8550,5070 8583,5164 8613,5260 8640,5356 8662,5455 8681,5553 8697,5654 8708,5777 8673,5781 Z M 8794,5739 L 8794,5739 8698,5955 8583,5749 8794,5739 Z M 5808,4303 L 5808,4303 5622,4449 5616,4212 5808,4303 Z"/>
  <path fill="rgb(0,0,0)" stroke="rgb(0,0,0)" d="M 8675,5780 L 8675,5780 8672,5726 8661,5613 8647,5499 8628,5387 8605,5275 8579,5165 8549,5057 8516,4951 8480,4846 8441,4743 8398,4644 8354,4546 8305,4452 8255,4361 8203,4274 8148,4190 8091,4109 8032,4033 7972,3961 7909,3894 7846,3831 7780,3774 7714,3721 7647,3674 7579,3633 7510,3597 7440,3567 7406,3555 7371,3544 7335,3535 7300,3527 7266,3521 7230,3517 7195,3514 7160,3513 7088,3514 7017,3517 6946,3522 6875,3528 6805,3536 6735,3545 6598,3568 6466,3597 6403,3613 6340,3630 6280,3649 6220,3669 6164,3689 6109,3711 6057,3734 6007,3757 5959,3781 5915,3806 5872,3832 5833,3858 5798,3885 5765,3912 5736,3939 5740,3935 5712,3981 5682,3963 5709,3917 5709,3917 C 5710,3916 5711,3915 5712,3913 L 5712,3913 5743,3884 5777,3856 5814,3829 5854,3802 5897,3775 5943,3750 5992,3725 6043,3701 6096,3678 6152,3656 6210,3635 6269,3615 6331,3596 6394,3579 6459,3562 6592,3533 6730,3510 6801,3500 6872,3493 6943,3486 7015,3482 7088,3479 7161,3478 7197,3479 7235,3482 7271,3486 7308,3493 7344,3501 7381,3511 7417,3522 7454,3535 7526,3565 7597,3602 7667,3645 7736,3694 7804,3747 7870,3806 7935,3870 7998,3938 8060,4011 8120,4089 8177,4170 8233,4255 8286,4344 8337,4437 8385,4531 8431,4630 8474,4731 8513,4835 8550,4940 8584,5048 8613,5157 8640,5269 8662,5381 8681,5494 8697,5609 8707,5725 8710,5778 8675,5780 Z M 8797,5740 L 8797,5740 8698,5955 8585,5748 8797,5740 Z M 5808,3985 L 5808,3985 5622,4131 5616,3894 5808,3985 Z"/>
  <text fill="rgb(129,138,143)" stroke="none" x="6165" y="4405">
   <tspan x="6165 6436">19</tspan></text>
  <path fill="rgb(129,138,143)" stroke="none" d="M 6433,3884 C 6257,3884 6115,4026 6115,4202 6115,4378 6257,4520 6433,4520 6608,4520 6750,4378 6750,4202 6750,4026 6608,3884 6433,3884 Z"/>
  <path fill="rgb(255,255,255)" stroke="none" d="M 6362,3813 C 6187,3813 6045,3956 6045,4131 6045,4307 6187,4449 6362,4449 6537,4449 6679,4307 6679,4131 6679,3956 6537,3813 6362,3813 Z"/>
  <path stroke-width="35" fill="none" stroke="rgb(255,0,0)" d="M 6362,3813 C 6187,3813 6045,3956 6045,4131 6045,4307 6187,4449 6362,4449 6537,4449 6679,4307 6679,4131 6679,3956 6537,3813 6362,3813 Z"/>
  <text fill="rgb(0,0,0)" stroke="none" x="6093" y="4333">
   <tspan x="6093 6364">19</tspan></text>
  <text fill="rgb(129,138,143)" stroke="none" x="8387" y="5359">
   <tspan x="8387 8658">20</tspan></text>
  <path fill="rgb(129,138,143)" stroke="none" d="M 8654,4838 C 8479,4838 8337,4980 8337,5156 8337,5332 8479,5474 8654,5474 8830,5474 8972,5332 8972,5156 8972,4980 8830,4838 8654,4838 Z"/>
  <path fill="rgb(255,255,255)" stroke="none" d="M 8584,4767 C 8409,4767 8266,4910 8266,5085 8266,5261 8409,5403 8584,5403 8759,5403 8901,5261 8901,5085 8901,4910 8759,4767 8584,4767 Z"/>
  <path stroke-width="35" fill="none" stroke="rgb(255,0,0)" d="M 8584,4767 C 8409,4767 8266,4910 8266,5085 8266,5261 8409,5403 8584,5403 8759,5403 8901,5261 8901,5085 8901,4910 8759,4767 8584,4767 Z"/>
  <text fill="rgb(0,0,0)" stroke="none" x="8315" y="5287">
   <tspan x="8315 8586">20</tspan></text>
  <text fill="rgb(129,138,143)" stroke="none" x="3309" y="7267">
   <tspan x="3309 3580">22</tspan></text>
  <path fill="rgb(129,138,143)" stroke="none" d="M 3577,6746 C 3401,6746 3259,6888 3259,7064 3259,7239 3401,7382 3577,7382 3752,7382 3894,7239 3894,7064 3894,6888 3752,6746 3577,6746 Z"/>
  <path fill="rgb(255,255,255)" stroke="none" d="M 3506,6675 C 3331,6675 3189,6818 3189,6993 3189,7169 3331,7311 3506,7311 3682,7311 3823,7169 3823,6993 3823,6818 3682,6675 3506,6675 Z"/>
  <path stroke-width="35" fill="none" stroke="rgb(255,0,0)" d="M 3506,6675 C 3331,6675 3189,6818 3189,6993 3189,7169 3331,7311 3506,7311 3682,7311 3823,7169 3823,6993 3823,6818 3682,6675 3506,6675 Z"/>
  <text fill="rgb(0,0,0)" stroke="none" x="3237" y="7194">
   <tspan x="3237 3508">22</tspan></text>
  <path fill="rgb(0,0,0)" stroke="rgb(0,0,0)" d="M 9725,5546 L 9721,5465 9715,5380 9707,5296 9696,5211 9684,5127 9671,5042 9655,4958 9638,4875 9620,4792 9600,4709 9555,4545 9503,4384 9447,4226 9384,4070 9317,3917 9244,3769 9166,3624 9083,3484 8997,3348 8907,3217 8812,3092 8714,2973 8613,2859 8561,2804 8508,2752 8455,2701 8401,2652 8346,2604 8291,2558 8235,2514 8178,2471 8121,2432 8064,2393 8006,2357 7948,2323 7889,2291 7829,2261 7770,2233 7710,2208 7650,2184 7590,2162 7529,2144 7469,2127 7408,2114 7346,2102 7276,2094 7280,2059 7353,2068 7415,2079 7478,2094 7539,2111 7601,2130 7663,2151 7724,2175 7785,2201 7845,2229 7906,2259 7965,2292 8025,2327 8083,2364 8142,2403 8199,2443 8257,2486 8313,2531 8369,2577 8424,2625 8479,2675 8533,2727 8586,2780 8639,2836 8741,2950 8840,3071 8935,3197 9027,3329 9114,3466 9197,3607 9275,3753 9348,3903 9417,4057 9480,4213 9537,4373 9589,4536 9634,4701 9654,4784 9673,4868 9690,4952 9705,5036 9719,5121 9731,5207 9741,5292 9750,5378 9757,5464 9760,5544 9725,5546 Z M 9847,5507 L 9747,5721 9636,5512 9847,5507 Z M 7305,2185 L 7102,2063 7321,1974 7305,2185 Z"/>
  <text fill="rgb(129,138,143)" stroke="none" x="7892" y="2179">3</text>
  <path fill="rgb(129,138,143)" stroke="none" d="M 8020,1658 C 7844,1658 7702,1801 7702,1976 7702,2152 7844,2294 8020,2294 8195,2294 8337,2152 8337,1976 8337,1801 8195,1658 8020,1658 Z"/>
  <path fill="rgb(255,255,255)" stroke="none" d="M 7949,1587 C 7774,1587 7632,1730 7632,1905 7632,2081 7774,2223 7949,2223 8124,2223 8266,2081 8266,1905 8266,1730 8124,1587 7949,1587 Z"/>
  <path stroke-width="35" fill="none" stroke="rgb(255,0,0)" d="M 7949,1587 C 7774,1587 7632,1730 7632,1905 7632,2081 7774,2223 7949,2223 8124,2223 8266,2081 8266,1905 8266,1730 8124,1587 7949,1587 Z"/>
  <text fill="rgb(0,0,0)" stroke="none" x="7820" y="2107">3</text>
  <text fill="rgb(129,138,143)" stroke="none" x="9796" y="5359">4</text>
  <path fill="rgb(129,138,143)" stroke="none" d="M 9924,4838 C 9748,4838 9607,4980 9607,5156 9607,5332 9748,5474 9924,5474 10099,5474 10241,5332 10241,5156 10241,4980 10099,4838 9924,4838 Z"/>
  <path fill="rgb(255,255,255)" stroke="none" d="M 9853,4767 C 9678,4767 9536,4910 9536,5085 9536,5261 9678,5403 9853,5403 10029,5403 10170,5261 10170,5085 10170,4910 10029,4767 9853,4767 Z"/>
  <path stroke-width="35" fill="none" stroke="rgb(255,0,0)" d="M 9853,4767 C 9678,4767 9536,4910 9536,5085 9536,5261 9678,5403 9853,5403 10029,5403 10170,5261 10170,5085 10170,4910 10029,4767 9853,4767 Z"/>
  <text fill="rgb(0,0,0)" stroke="none" x="9724" y="5287">4</text>
  <text fill="rgb(129,138,143)" stroke="none" x="8890" y="3184">
   <tspan x="8890 9161">21</tspan></text>
  <path fill="rgb(129,138,143)" stroke="none" d="M 9157,2665 C 8981,2665 8840,2807 8840,2983 8840,3159 8981,3301 9157,3301 9332,3301 9474,3159 9474,2983 9474,2807 9332,2665 9157,2665 Z"/>
  <path fill="rgb(255,255,255)" stroke="none" d="M 9086,2594 C 8911,2594 8769,2737 8769,2912 8769,3088 8911,3230 9086,3230 9262,3230 9403,3088 9403,2912 9403,2737 9262,2594 9086,2594 Z"/>
  <path stroke-width="35" fill="none" stroke="rgb(255,0,0)" d="M 9086,2594 C 8911,2594 8769,2737 8769,2912 8769,3088 8911,3230 9086,3230 9262,3230 9403,3088 9403,2912 9403,2737 9262,2594 9086,2594 Z"/>
  <text fill="rgb(0,0,0)" stroke="none" x="8818" y="3112">
   <tspan x="8818 9089">21</tspan></text>
  <text fill="rgb(129,138,143)" stroke="none" x="16727" y="5041">
   <tspan x="16727 16998 17146 17303 17570 17841 17989 18146 18413">6, 10, 14</tspan></text>
  <path fill="rgb(129,138,143)" stroke="none" d="M 16946,4520 L 16946,4520 C 16748,4520 16588,4662 16588,4838 16588,5014 16748,5156 16946,5156 L 18452,5156 18452,5156 C 18650,5156 18810,5014 18810,4838 18810,4662 18650,4520 18452,4520 L 16946,4520 Z"/>
  <path fill="rgb(255,255,255)" stroke="none" d="M 16875,4449 L 16875,4449 C 16678,4449 16517,4592 16517,4767 16517,4943 16678,5085 16875,5085 L 18382,5085 18382,5085 C 18579,5085 18739,4943 18739,4767 18739,4592 18579,4449 18382,4449 L 16875,4449 Z"/>
  <path stroke-width="35" fill="none" stroke="rgb(255,0,0)" d="M 16875,4449 L 16875,4449 C 16678,4449 16517,4592 16517,4767 16517,4943 16678,5085 16875,5085 L 18382,5085 18382,5085 C 18579,5085 18739,4943 18739,4767 18739,4592 18579,4449 18382,4449 L 16875,4449 Z"/>
  <text fill="rgb(0,0,0)" stroke="none" x="16655" y="4969">
   <tspan x="16655 16926 17074 17231 17498 17769 17917 18074 18341">6, 10, 14</tspan></text>
  <text fill="rgb(129,138,143)" stroke="none" x="11539" y="5359">
   <tspan x="11539 11810 11958 12115 12382 12539 12806">5, 9 13</tspan></text>
  <path fill="rgb(129,138,143)" stroke="none" d="M 11766,4838 L 11766,4838 C 11625,4838 11511,4980 11511,5156 11511,5332 11625,5474 11766,5474 L 12842,5474 12842,5474 C 12983,5474 13097,5332 13097,5156 13097,4980 12983,4838 12842,4838 L 11766,4838 Z"/>
  <path fill="rgb(255,255,255)" stroke="none" d="M 11695,4767 L 11695,4767 C 11555,4767 11440,4910 11440,5085 11440,5261 11555,5403 11695,5403 L 12772,5403 12772,5403 C 12912,5403 13027,5261 13027,5085 13027,4910 12912,4767 12772,4767 L 11695,4767 Z"/>
  <path stroke-width="35" fill="none" stroke="rgb(255,0,0)" d="M 11695,4767 L 11695,4767 C 11555,4767 11440,4910 11440,5085 11440,5261 11555,5403 11695,5403 L 12772,5403 12772,5403 C 12912,5403 13027,5261 13027,5085 13027,4910 12912,4767 12772,4767 L 11695,4767 Z"/>
  <text fill="rgb(0,0,0)" stroke="none" x="11467" y="5287">
   <tspan x="11467 11738 11886 12043 12310 12467 12734">5, 9 13</tspan></text>
  <text fill="rgb(129,138,143)" stroke="none" x="11175" y="7267">
   <tspan x="11175 11446 11594 11751 12018 12289 12437 12594 12861">8, 12, 16</tspan></text>
  <path fill="rgb(129,138,143)" stroke="none" d="M 11500,6746 L 11500,6746 C 11330,6746 11193,6888 11193,7064 11193,7239 11330,7382 11500,7382 L 12791,7382 12791,7382 C 12960,7382 13097,7239 13097,7064 13097,6888 12960,6746 12791,6746 L 11500,6746 Z"/>
  <path fill="rgb(255,255,255)" stroke="none" d="M 11429,6675 L 11429,6675 C 11260,6675 11122,6818 11122,6993 11122,7169 11260,7311 11429,7311 L 12720,7311 12720,7311 C 12890,7311 13027,7169 13027,6993 13027,6818 12890,6675 12720,6675 L 11429,6675 Z"/>
  <path stroke-width="35" fill="none" stroke="rgb(255,0,0)" d="M 11429,6675 L 11429,6675 C 11260,6675 11122,6818 11122,6993 11122,7169 11260,7311 11429,7311 L 12720,7311 12720,7311 C 12890,7311 13027,7169 13027,6993 13027,6818 12890,6675 12720,6675 L 11429,6675 Z"/>
  <text fill="rgb(0,0,0)" stroke="none" x="11103" y="7194">
   <tspan x="11103 11374 11522 11679 11946 12217 12365 12522 12789">8, 12, 16</tspan></text>
  <text fill="rgb(129,138,143)" stroke="none" x="15618" y="6313">
   <tspan x="15618 15889 16037 16194 16461 16732 16880 17037 17304">7, 11, 15</tspan></text>
  <path fill="rgb(129,138,143)" stroke="none" d="M 15943,5792 L 15943,5792 C 15774,5792 15636,5934 15636,6110 15636,6286 15774,6428 15943,6428 L 17235,6428 17235,6428 C 17403,6428 17540,6286 17540,6110 17540,5934 17403,5792 17235,5792 L 15943,5792 Z"/>
  <path fill="rgb(255,255,255)" stroke="none" d="M 15872,5721 L 15872,5721 C 15703,5721 15565,5864 15565,6039 15565,6215 15703,6357 15872,6357 L 17164,6357 17164,6357 C 17333,6357 17470,6215 17470,6039 17470,5864 17333,5721 17164,5721 L 15872,5721 Z"/>
  <path stroke-width="35" fill="none" stroke="rgb(255,0,0)" d="M 15872,5721 L 15872,5721 C 15703,5721 15565,5864 15565,6039 15565,6215 15703,6357 15872,6357 L 17164,6357 17164,6357 C 17333,6357 17470,6215 17470,6039 17470,5864 17333,5721 17164,5721 L 15872,5721 Z"/>
  <text fill="rgb(0,0,0)" stroke="none" x="15546" y="6241">
   <tspan x="15546 15817 15965 16122 16389 16660 16808 16965 17232">7, 11, 15</tspan></text>
 </g>
 <g fill="rgb(129,138,143)" stroke="none" font-family="Arial" font-size="424" font-style="normal" font-weight="400">
  <text x="9178" y="8810">
   <tspan x="9178 9411 9648 9860 10072 10161 10398">Locking</tspan></text>
  <text fill="rgb(129,138,143)" stroke="none" x="9072" y="9319">
   <tspan x="9072 9423 9660 9893 10130 10358 10595">Manager</tspan></text>
  <path fill="rgb(129,138,143)" stroke="none" d="M 9897,8097 C 9079,8097 8416,8453 8416,8892 8416,9331 9079,9687 9897,9687 10715,9687 11378,9331 11378,8892 11378,8453 10715,8097 9897,8097 Z"/>
  <path fill="rgb(204,255,255)" stroke="none" d="M 9827,8026 C 9009,8026 8346,8383 8346,8821 8346,9261 9009,9616 9827,9616 10645,9616 11308,9261 11308,8821 11308,8383 10645,8026 9827,8026 Z"/>
  <path stroke-width="26" fill="none" stroke="rgb(0,0,0)" d="M 9827,8026 C 9009,8026 8346,8383 8346,8821 8346,9261 9009,9616 9827,9616 10645,9616 11308,9261 11308,8821 11308,8383 10645,8026 9827,8026 Z"/>
  <text fill="rgb(0,0,0)" stroke="none" x="9106" y="8738">
   <tspan x="9106 9339 9576 9788 10000 10089 10326">Locking</tspan></text>
  <text fill="rgb(0,0,0)" stroke="none" x="9000" y="9246">
   <tspan x="9000 9351 9588 9821 10058 10286 10523">Manager</tspan></text>
  <path fill="rgb(0,0,0)" stroke="rgb(0,0,0)" d="M 9773,7487 L 9773,7487 9775,7530 9777,7555 9781,7579 9783,7600 9786,7619 9790,7635 9793,7646 9796,7655 9795,7652 9799,7658 9792,7652 9796,7654 9800,7656 9800,7656 C 9802,7657 9804,7659 9806,7662 L 9810,7668 9810,7668 C 9810,7668 9811,7670 9811,7671 L 9811,7671 9815,7680 9819,7695 9822,7712 9826,7732 9829,7754 9832,7778 9835,7805 9837,7849 9802,7851 9800,7809 9797,7783 9794,7759 9791,7738 9788,7720 9785,7704 9782,7693 9778,7683 9779,7686 9776,7680 9782,7686 9778,7684 9775,7682 9775,7682 C 9772,7681 9770,7679 9768,7676 L 9765,7670 9765,7670 C 9764,7669 9764,7668 9763,7667 L 9763,7667 9759,7656 9755,7642 9752,7625 9748,7606 9745,7583 9742,7559 9740,7532 9738,7489 9773,7487 Z M 9651,7528 L 9651,7528 9747,7311 9863,7518 9651,7528 Z M 9923,7810 L 9923,7810 9827,8026 9712,7819 9923,7810 Z"/>
 </g>
 <g fill="rgb(129,138,143)" stroke="none" font-family="Tahoma" font-size="496" font-style="normal" font-weight="400">
  <text x="10003" y="7478">
   <tspan x="10003 10274">18</tspan></text>
  <path fill="rgb(129,138,143)" stroke="none" d="M 10268,6958 C 10092,6958 9950,7100 9950,7276 9950,7451 10092,7594 10268,7594 10443,7594 10585,7451 10585,7276 10585,7100 10443,6958 10268,6958 Z"/>
  <path fill="rgb(255,255,255)" stroke="none" d="M 10197,6887 C 10022,6887 9879,7030 9879,7205 9879,7381 10022,7523 10197,7523 10372,7523 10514,7381 10514,7205 10514,7030 10372,6887 10197,6887 Z"/>
  <path stroke-width="35" fill="none" stroke="rgb(255,0,0)" d="M 10197,6887 C 10022,6887 9879,7030 9879,7205 9879,7381 10022,7523 10197,7523 10372,7523 10514,7381 10514,7205 10514,7030 10372,6887 10197,6887 Z"/>
  <text fill="rgb(0,0,0)" stroke="none" x="9931" y="7406">
   <tspan x="9931 10202">18</tspan></text>
  <text fill="rgb(129,138,143)" stroke="none" x="10109" y="8377">
   <tspan x="10109 10380">17</tspan></text>
  <path fill="rgb(129,138,143)" stroke="none" d="M 10373,7859 C 10198,7859 10056,8001 10056,8177 10056,8352 10198,8495 10373,8495 10549,8495 10691,8352 10691,8177 10691,8001 10549,7859 10373,7859 Z"/>
  <path fill="rgb(255,255,255)" stroke="none" d="M 10303,7788 C 10128,7788 9985,7931 9985,8106 9985,8282 10128,8424 10303,8424 10478,8424 10620,8282 10620,8106 10620,7931 10478,7788 10303,7788 Z"/>
  <path stroke-width="35" fill="none" stroke="rgb(255,0,0)" d="M 10303,7788 C 10128,7788 9985,7931 9985,8106 9985,8282 10128,8424 10303,8424 10478,8424 10620,8282 10620,8106 10620,7931 10478,7788 10303,7788 Z"/>
  <text fill="rgb(0,0,0)" stroke="none" x="10037" y="8305">
   <tspan x="10037 10308">17</tspan></text>
  <text fill="rgb(129,138,143)" stroke="none" x="7888" y="7423">
   <tspan x="7888 8159">23</tspan></text>
  <path fill="rgb(129,138,143)" stroke="none" d="M 8152,6905 C 7976,6905 7835,7047 7835,7223 7835,7398 7976,7541 8152,7541 8327,7541 8469,7398 8469,7223 8469,7047 8327,6905 8152,6905 Z"/>
  <path fill="rgb(255,255,255)" stroke="none" d="M 8081,6834 C 7906,6834 7764,6977 7764,7152 7764,7328 7906,7470 8081,7470 8257,7470 8398,7328 8398,7152 8398,6977 8257,6834 8081,6834 Z"/>
  <path stroke-width="35" fill="none" stroke="rgb(255,0,0)" d="M 8081,6834 C 7906,6834 7764,6977 7764,7152 7764,7328 7906,7470 8081,7470 8257,7470 8398,7328 8398,7152 8398,6977 8257,6834 8081,6834 Z"/>
  <text fill="rgb(0,0,0)" stroke="none" x="7816" y="7351">
   <tspan x="7816 8087">23</tspan></text>
 </g>
</svg>