<?xml version="1.0" encoding="UTF-8"?><!DOCTYPE svg PUBLIC "-//W3C//DTD SVG 1.1//EN" "/SysSchema/SVG11/svg11.dtd">
<svg xmlns:xlink="http://www.w3.org/1999/xlink" xmlns="http://www.w3.org/2000/svg" width="200mm" height="142mm" viewBox="0 0 20000 14200" stroke-width="28.222" stroke-linejoin="round" xml:space="preserve" preserveAspectRatio="xMidYMid meet" zoomAndPan="magnify" version="1.1" contentScriptType="text/ecmascript" contentStyleType="text/css">
 <path fill="rgb(153,204,255)" stroke="none" d="M 10159,9834 L 10159,13325 16499,13325 16499,9834 10159,9834 Z"/>
 <path fill="none" stroke="none" d="M 10159,9834 L 10159,13325 16499,13325 16499,9834 10159,9834 Z"/>
 <path stroke-width="35" fill="none" stroke="rgb(0,0,0)" d="M 10159,9834 L 10159,13325 16499,13325 16499,9834 10159,9834 Z"/>
 <rect fill="rgb(192,192,192)" stroke="none" x="3817" y="947" width="12685" height="8889"/>
 <rect fill="rgb(127,127,127)" stroke="none" x="3819" y="950" width="12681" height="8886"/>
 <rect fill="rgb(192,192,192)" stroke="none" x="3817" y="947" width="12685" height="8889"/>
 <path fill="none" stroke="none" d="M 3819,950 L 3819,9834 16499,9834 16499,950 3819,950 Z"/>
 <path stroke-width="35" fill="none" stroke="rgb(0,0,0)" d="M 3819,950 L 3819,9834 16499,9834 16499,950 3819,950 Z"/>
 <g fill="rgb(129,138,143)" stroke="none" font-family="Arial" font-size="423" font-style="normal" font-weight="400">
  <text x="5224" y="8711">
   <tspan x="5224 5507 5811 5929">PCIe</tspan></text>
  <text fill="rgb(129,138,143)" stroke="none" x="4861" y="9219">
   <tspan x="4861 5212 5449 5681 5918 6146 6383">Manager</tspan></text>
  <path fill="rgb(129,138,143)" stroke="none" d="M 5686,8001 C 4869,8001 4207,8356 4207,8794 4207,9232 4869,9588 5686,9588 6503,9588 7166,9232 7166,8794 7166,8356 6503,8001 5686,8001 Z"/>
  <path fill="rgb(204,255,255)" stroke="none" d="M 5615,7930 C 4799,7930 4136,8286 4136,8724 4136,9162 4799,9517 5615,9517 6433,9517 7095,9162 7095,8724 7095,8286 6433,7930 5615,7930 Z"/>
  <path stroke-width="26" fill="none" stroke="rgb(0,0,0)" d="M 5615,7930 C 4799,7930 4136,8286 4136,8724 4136,9162 4799,9517 5615,9517 6433,9517 7095,9162 7095,8724 7095,8286 6433,7930 5615,7930 Z"/>
  <text fill="rgb(0,0,0)" stroke="none" x="5153" y="8639">
   <tspan x="5153 5436 5740 5858">PCIe</tspan></text>
  <text fill="rgb(0,0,0)" stroke="none" x="4789" y="9147">
   <tspan x="4789 5140 5377 5609 5846 6074 6311">Manager</tspan></text>
  <text fill="rgb(129,138,143)" stroke="none" x="5199" y="4903">
   <tspan x="5199 5503 5740 5854 6091">Datal</tspan></text>
  <text fill="rgb(129,138,143)" stroke="none" x="4861" y="5411">
   <tspan x="4861 5212 5449 5681 5918 6146 6383">Manager</tspan></text>
  <path fill="rgb(129,138,143)" stroke="none" d="M 5686,4193 C 4869,4193 4207,4548 4207,4987 4207,5425 4869,5780 5686,5780 6503,5780 7166,5425 7166,4987 7166,4548 6503,4193 5686,4193 Z"/>
  <path fill="rgb(204,255,255)" stroke="none" d="M 5615,4123 C 4799,4123 4136,4478 4136,4916 4136,5354 4799,5709 5615,5709 6433,5709 7095,5354 7095,4916 7095,4478 6433,4123 5615,4123 Z"/>
  <path stroke-width="26" fill="none" stroke="rgb(0,0,0)" d="M 5615,4123 C 4799,4123 4136,4478 4136,4916 4136,5354 4799,5709 5615,5709 6433,5709 7095,5354 7095,4916 7095,4478 6433,4123 5615,4123 Z"/>
  <text fill="rgb(0,0,0)" stroke="none" x="5127" y="4831">
   <tspan x="5127 5431 5668 5782 6019">Datal</tspan></text>
  <text fill="rgb(0,0,0)" stroke="none" x="4789" y="5339">
   <tspan x="4789 5140 5377 5609 5846 6074 6311">Manager</tspan></text>
  <text fill="rgb(129,138,143)" stroke="none" x="5199" y="5220">
   <tspan x="5199 5503 5740 5854 6091">Datal</tspan></text>
  <text fill="rgb(129,138,143)" stroke="none" x="4861" y="5728">
   <tspan x="4861 5212 5449 5681 5918 6146 6383">Manager</tspan></text>
  <path fill="rgb(129,138,143)" stroke="none" d="M 5686,4511 C 4869,4511 4207,4866 4207,5304 4207,5742 4869,6097 5686,6097 6503,6097 7166,5742 7166,5304 7166,4866 6503,4511 5686,4511 Z"/>
  <path fill="rgb(204,255,255)" stroke="none" d="M 5615,4440 C 4799,4440 4136,4795 4136,5233 4136,5672 4799,6026 5615,6026 6433,6026 7095,5672 7095,5233 7095,4795 6433,4440 5615,4440 Z"/>
  <path stroke-width="26" fill="none" stroke="rgb(0,0,0)" d="M 5615,4440 C 4799,4440 4136,4795 4136,5233 4136,5672 4799,6026 5615,6026 6433,6026 7095,5672 7095,5233 7095,4795 6433,4440 5615,4440 Z"/>
  <text fill="rgb(0,0,0)" stroke="none" x="5127" y="5149">
   <tspan x="5127 5431 5668 5782 6019">Datal</tspan></text>
  <text fill="rgb(0,0,0)" stroke="none" x="4789" y="5656">
   <tspan x="4789 5140 5377 5609 5846 6074 6311">Manager</tspan></text>
  <text fill="rgb(129,138,143)" stroke="none" x="5199" y="5538">
   <tspan x="5199 5503 5740 5854 6091">Datal</tspan></text>
  <text fill="rgb(129,138,143)" stroke="none" x="4861" y="6045">
   <tspan x="4861 5212 5449 5681 5918 6146 6383">Manager</tspan></text>
  <path fill="rgb(129,138,143)" stroke="none" d="M 5686,4828 C 4869,4828 4207,5183 4207,5621 4207,6059 4869,6415 5686,6415 6503,6415 7166,6059 7166,5621 7166,5183 6503,4828 5686,4828 Z"/>
  <path fill="rgb(204,255,255)" stroke="none" d="M 5615,4757 C 4799,4757 4136,5113 4136,5550 4136,5989 4799,6344 5615,6344 6433,6344 7095,5989 7095,5550 7095,5113 6433,4757 5615,4757 Z"/>
  <path stroke-width="26" fill="none" stroke="rgb(0,0,0)" d="M 5615,4757 C 4799,4757 4136,5113 4136,5550 4136,5989 4799,6344 5615,6344 6433,6344 7095,5989 7095,5550 7095,5113 6433,4757 5615,4757 Z"/>
  <text fill="rgb(0,0,0)" stroke="none" x="5127" y="5466">
   <tspan x="5127 5431 5668 5782 6019">Datal</tspan></text>
  <text fill="rgb(0,0,0)" stroke="none" x="4789" y="5974">
   <tspan x="4789 5140 5377 5609 5846 6074 6311">Manager</tspan></text>
  <text fill="rgb(129,138,143)" stroke="none" x="5246" y="5855">
   <tspan x="5246 5550 5787 5901">Data</tspan></text>
  <text fill="rgb(129,138,143)" stroke="none" x="4861" y="6363">
   <tspan x="4861 5212 5449 5681 5918 6146 6383">Manager</tspan></text>
  <path fill="rgb(129,138,143)" stroke="none" d="M 5686,5145 C 4869,5145 4207,5500 4207,5939 4207,6377 4869,6732 5686,6732 6503,6732 7166,6377 7166,5939 7166,5500 6503,5145 5686,5145 Z"/>
  <path fill="rgb(204,255,255)" stroke="none" d="M 5615,5075 C 4799,5075 4136,5430 4136,5868 4136,6306 4799,6661 5615,6661 6433,6661 7095,6306 7095,5868 7095,5430 6433,5075 5615,5075 Z"/>
  <path stroke-width="26" fill="none" stroke="rgb(0,0,0)" d="M 5615,5075 C 4799,5075 4136,5430 4136,5868 4136,6306 4799,6661 5615,6661 6433,6661 7095,6306 7095,5868 7095,5430 6433,5075 5615,5075 Z"/>
  <text fill="rgb(0,0,0)" stroke="none" x="5174" y="5783">
   <tspan x="5174 5478 5715 5829">Data</tspan></text>
  <text fill="rgb(0,0,0)" stroke="none" x="4789" y="6291">
   <tspan x="4789 5140 5377 5609 5846 6074 6311">Manager</tspan></text>
  <text fill="rgb(129,138,143)" stroke="none" x="5199" y="4903">
   <tspan x="5199 5503 5740 5854 6091">Datal</tspan></text>
  <text fill="rgb(129,138,143)" stroke="none" x="4861" y="5411">
   <tspan x="4861 5212 5449 5681 5918 6146 6383">Manager</tspan></text>
  <path fill="rgb(129,138,143)" stroke="none" d="M 5686,4193 C 4869,4193 4207,4548 4207,4987 4207,5425 4869,5780 5686,5780 6503,5780 7166,5425 7166,4987 7166,4548 6503,4193 5686,4193 Z"/>
  <path fill="rgb(204,255,255)" stroke="none" d="M 5615,4123 C 4799,4123 4136,4478 4136,4916 4136,5354 4799,5709 5615,5709 6433,5709 7095,5354 7095,4916 7095,4478 6433,4123 5615,4123 Z"/>
  <path stroke-width="26" fill="none" stroke="rgb(0,0,0)" d="M 5615,4123 C 4799,4123 4136,4478 4136,4916 4136,5354 4799,5709 5615,5709 6433,5709 7095,5354 7095,4916 7095,4478 6433,4123 5615,4123 Z"/>
  <text fill="rgb(0,0,0)" stroke="none" x="5127" y="4831">
   <tspan x="5127 5431 5668 5782 6019">Datal</tspan></text>
  <text fill="rgb(0,0,0)" stroke="none" x="4789" y="5339">
   <tspan x="4789 5140 5377 5609 5846 6074 6311">Manager</tspan></text>
  <text fill="rgb(129,138,143)" stroke="none" x="5199" y="5220">
   <tspan x="5199 5503 5740 5854 6091">Datal</tspan></text>
  <text fill="rgb(129,138,143)" stroke="none" x="4861" y="5728">
   <tspan x="4861 5212 5449 5681 5918 6146 6383">Manager</tspan></text>
  <path fill="rgb(129,138,143)" stroke="none" d="M 5686,4511 C 4869,4511 4207,4866 4207,5304 4207,5742 4869,6097 5686,6097 6503,6097 7166,5742 7166,5304 7166,4866 6503,4511 5686,4511 Z"/>
  <path fill="rgb(204,255,255)" stroke="none" d="M 5615,4440 C 4799,4440 4136,4795 4136,5233 4136,5672 4799,6026 5615,6026 6433,6026 7095,5672 7095,5233 7095,4795 6433,4440 5615,4440 Z"/>
  <path stroke-width="26" fill="none" stroke="rgb(0,0,0)" d="M 5615,4440 C 4799,4440 4136,4795 4136,5233 4136,5672 4799,6026 5615,6026 6433,6026 7095,5672 7095,5233 7095,4795 6433,4440 5615,4440 Z"/>
  <text fill="rgb(0,0,0)" stroke="none" x="5127" y="5149">
   <tspan x="5127 5431 5668 5782 6019">Datal</tspan></text>
  <text fill="rgb(0,0,0)" stroke="none" x="4789" y="5656">
   <tspan x="4789 5140 5377 5609 5846 6074 6311">Manager</tspan></text>
  <text fill="rgb(129,138,143)" stroke="none" x="5199" y="5538">
   <tspan x="5199 5503 5740 5854 6091">Datal</tspan></text>
  <text fill="rgb(129,138,143)" stroke="none" x="4861" y="6045">
   <tspan x="4861 5212 5449 5681 5918 6146 6383">Manager</tspan></text>
  <path fill="rgb(129,138,143)" stroke="none" d="M 5686,4828 C 4869,4828 4207,5183 4207,5621 4207,6059 4869,6415 5686,6415 6503,6415 7166,6059 7166,5621 7166,5183 6503,4828 5686,4828 Z"/>
  <path fill="rgb(204,255,255)" stroke="none" d="M 5615,4757 C 4799,4757 4136,5113 4136,5550 4136,5989 4799,6344 5615,6344 6433,6344 7095,5989 7095,5550 7095,5113 6433,4757 5615,4757 Z"/>
  <path stroke-width="26" fill="none" stroke="rgb(0,0,0)" d="M 5615,4757 C 4799,4757 4136,5113 4136,5550 4136,5989 4799,6344 5615,6344 6433,6344 7095,5989 7095,5550 7095,5113 6433,4757 5615,4757 Z"/>
  <text fill="rgb(0,0,0)" stroke="none" x="5127" y="5466">
   <tspan x="5127 5431 5668 5782 6019">Datal</tspan></text>
  <text fill="rgb(0,0,0)" stroke="none" x="4789" y="5974">
   <tspan x="4789 5140 5377 5609 5846 6074 6311">Manager</tspan></text>
  <text fill="rgb(129,138,143)" stroke="none" x="5246" y="5855">
   <tspan x="5246 5550 5787 5901">Data</tspan></text>
  <text fill="rgb(129,138,143)" stroke="none" x="4861" y="6363">
   <tspan x="4861 5212 5449 5681 5918 6146 6383">Manager</tspan></text>
  <path fill="rgb(129,138,143)" stroke="none" d="M 5686,5145 C 4869,5145 4207,5500 4207,5939 4207,6377 4869,6732 5686,6732 6503,6732 7166,6377 7166,5939 7166,5500 6503,5145 5686,5145 Z"/>
  <path fill="rgb(204,255,255)" stroke="none" d="M 5615,5075 C 4799,5075 4136,5430 4136,5868 4136,6306 4799,6661 5615,6661 6433,6661 7095,6306 7095,5868 7095,5430 6433,5075 5615,5075 Z"/>
  <path stroke-width="26" fill="none" stroke="rgb(0,0,0)" d="M 5615,5075 C 4799,5075 4136,5430 4136,5868 4136,6306 4799,6661 5615,6661 6433,6661 7095,6306 7095,5868 7095,5430 6433,5075 5615,5075 Z"/>
  <text fill="rgb(0,0,0)" stroke="none" x="5174" y="5783">
   <tspan x="5174 5478 5715 5829">Data</tspan></text>
  <text fill="rgb(0,0,0)" stroke="none" x="4789" y="6291">
   <tspan x="4789 5140 5377 5609 5846 6074 6311">Manager</tspan></text>
  <path fill="rgb(153,204,255)" stroke="none" d="M 16499,950 L 16499,9834 19986,9834 19986,950 16499,950 Z"/>
  <path fill="none" stroke="none" d="M 16499,950 L 16499,9834 19986,9834 19986,950 16499,950 Z"/>
  <path stroke-width="35" fill="none" stroke="rgb(0,0,0)" d="M 16499,950 L 16499,9834 19986,9834 19986,950 16499,950 Z"/>
  <path fill="rgb(153,204,255)" stroke="none" d="M 15,950 L 15,9834 3819,9834 3819,950 15,950 Z"/>
  <path fill="none" stroke="none" d="M 15,950 L 15,9834 3819,9834 3819,950 15,950 Z"/>
  <path stroke-width="35" fill="none" stroke="rgb(0,0,0)" d="M 15,950 L 15,9834 3819,9834 3819,950 15,950 Z"/>
  <text fill="rgb(129,138,143)" stroke="none" x="474" y="2047">i</text>
  <text fill="rgb(129,138,143)" stroke="none" x="567" y="2047">-</text>
  <text fill="rgb(129,138,143)" stroke="none" x="706" y="2047">
   <tspan x="706 1010 1361 1644 1762 1880">DMA, e</tspan></text>
  <text fill="rgb(129,138,143)" stroke="none" x="2118" y="2047">-</text>
  <text fill="rgb(129,138,143)" stroke="none" x="2257" y="2047">
   <tspan x="2257 2561 2912">DMA</tspan></text>
  <text fill="rgb(129,138,143)" stroke="none" x="1006" y="2555">
   <tspan x="1006 1357 1594 1826 2063 2291 2528">Manager</tspan></text>
  <path fill="rgb(129,138,143)" stroke="none" d="M 1829,1337 C 1041,1337 402,1693 402,2131 402,2569 1041,2924 1829,2924 2617,2924 3256,2569 3256,2131 3256,1693 2617,1337 1829,1337 Z"/>
  <path fill="rgb(255,204,153)" stroke="none" d="M 1758,1267 C 971,1267 332,1622 332,2060 332,2498 971,2853 1758,2853 2546,2853 3185,2498 3185,2060 3185,1622 2546,1267 1758,1267 Z"/>
  <path stroke-width="26" fill="none" stroke="rgb(0,0,0)" d="M 1758,1267 C 971,1267 332,1622 332,2060 332,2498 971,2853 1758,2853 2546,2853 3185,2498 3185,2060 3185,1622 2546,1267 1758,1267 Z"/>
  <text fill="rgb(0,0,0)" stroke="none" x="402" y="1975">i</text>
  <text fill="rgb(0,0,0)" stroke="none" x="495" y="1975">-</text>
  <text fill="rgb(0,0,0)" stroke="none" x="634" y="1975">
   <tspan x="634 938 1289 1572 1690 1808">DMA, e</tspan></text>
  <text fill="rgb(0,0,0)" stroke="none" x="2046" y="1975">-</text>
  <text fill="rgb(0,0,0)" stroke="none" x="2185" y="1975">
   <tspan x="2185 2489 2840">DMA</tspan></text>
  <text fill="rgb(0,0,0)" stroke="none" x="934" y="2483">
   <tspan x="934 1285 1522 1754 1991 2219 2456">Manager</tspan></text>
  <text fill="rgb(129,138,143)" stroke="none" x="803" y="4269">
   <tspan x="803 1086 1318 1550 1905 1998 2209 2420 2509 2746">Submission</tspan></text>
  <text fill="rgb(129,138,143)" stroke="none" x="1057" y="4776">
   <tspan x="1057 1408 1645 1877 2114 2342 2579">Manager</tspan></text>
  <path fill="rgb(129,138,143)" stroke="none" d="M 1882,3559 C 1065,3559 403,3914 403,4352 403,4790 1065,5145 1882,5145 2699,5145 3361,4790 3361,4352 3361,3914 2699,3559 1882,3559 Z"/>
  <path fill="rgb(255,204,153)" stroke="none" d="M 1811,3488 C 994,3488 332,3843 332,4281 332,4720 994,5075 1811,5075 2629,5075 3291,4720 3291,4281 3291,3843 2629,3488 1811,3488 Z"/>
  <path stroke-width="26" fill="none" stroke="rgb(0,0,0)" d="M 1811,3488 C 994,3488 332,3843 332,4281 332,4720 994,5075 1811,5075 2629,5075 3291,4720 3291,4281 3291,3843 2629,3488 1811,3488 Z"/>
  <text fill="rgb(0,0,0)" stroke="none" x="731" y="4197">
   <tspan x="731 1014 1246 1478 1833 1926 2137 2348 2437 2674">Submission</tspan></text>
  <text fill="rgb(0,0,0)" stroke="none" x="985" y="4704">
   <tspan x="985 1336 1573 1805 2042 2270 2507">Manager</tspan></text>
  <text fill="rgb(129,138,143)" stroke="none" x="824" y="6490">
   <tspan x="824 1128 1360 1715 1947 2040 2277 2395 2484 2716">Completion</tspan></text>
  <text fill="rgb(129,138,143)" stroke="none" x="1057" y="6997">
   <tspan x="1057 1408 1645 1877 2114 2342 2579">Manager</tspan></text>
  <path fill="rgb(129,138,143)" stroke="none" d="M 1882,5780 C 1065,5780 403,6135 403,6573 403,7011 1065,7367 1882,7367 2699,7367 3361,7011 3361,6573 3361,6135 2699,5780 1882,5780 Z"/>
  <path fill="rgb(255,204,153)" stroke="none" d="M 1811,5709 C 994,5709 332,6065 332,6502 332,6941 994,7296 1811,7296 2629,7296 3291,6941 3291,6502 3291,6065 2629,5709 1811,5709 Z"/>
  <path stroke-width="26" fill="none" stroke="rgb(0,0,0)" d="M 1811,5709 C 994,5709 332,6065 332,6502 332,6941 994,7296 1811,7296 2629,7296 3291,6941 3291,6502 3291,6065 2629,5709 1811,5709 Z"/>
  <text fill="rgb(0,0,0)" stroke="none" x="753" y="6418">
   <tspan x="753 1057 1289 1644 1876 1969 2206 2324 2413 2645">Completion</tspan></text>
  <text fill="rgb(0,0,0)" stroke="none" x="985" y="6925">
   <tspan x="985 1336 1573 1805 2042 2270 2507">Manager</tspan></text>
  <text fill="rgb(129,138,143)" stroke="none" x="1454" y="8711">
   <tspan x="1454 1758 1995 2206">Host</tspan></text>
  <text fill="rgb(129,138,143)" stroke="none" x="1057" y="9219">
   <tspan x="1057 1408 1645 1877 2114 2342 2579">Manager</tspan></text>
  <path fill="rgb(129,138,143)" stroke="none" d="M 1882,8001 C 1065,8001 403,8356 403,8794 403,9232 1065,9588 1882,9588 2699,9588 3361,9232 3361,8794 3361,8356 2699,8001 1882,8001 Z"/>
  <path fill="rgb(255,204,153)" stroke="none" d="M 1811,7930 C 994,7930 332,8286 332,8724 332,9162 994,9517 1811,9517 2629,9517 3291,9162 3291,8724 3291,8286 2629,7930 1811,7930 Z"/>
  <path stroke-width="26" fill="none" stroke="rgb(0,0,0)" d="M 1811,7930 C 994,7930 332,8286 332,8724 332,9162 994,9517 1811,9517 2629,9517 3291,9162 3291,8724 3291,8286 2629,7930 1811,7930 Z"/>
  <text fill="rgb(0,0,0)" stroke="none" x="1382" y="8639">
   <tspan x="1382 1686 1923 2134">Host</tspan></text>
  <text fill="rgb(0,0,0)" stroke="none" x="985" y="9147">
   <tspan x="985 1336 1573 1805 2042 2270 2507">Manager</tspan></text>
 </g>
 <g fill="rgb(0,0,0)" stroke="none" font-family="Tahoma" font-size="495" font-style="normal" font-weight="400">
  <text x="8196" y="617">
   <tspan x="8196 8467 8645 8916 9144 9406 9626 9846 10117 10290 10446 10742 11008 11422 11697 11811 12069">Processor Complex</tspan></text>
  <text fill="rgb(0,0,0)" stroke="none" x="905" y="617">
   <tspan x="905 1239 1510 1730 1895 2051 2233 2423">Host I/F</tspan></text>
  <text fill="rgb(0,0,0)" stroke="none" x="17389" y="617">
   <tspan x="17389 17647 17761 18019 18239 18514 18670 18856 19042">Flash I/F</tspan></text>
 </g>
 <g fill="rgb(129,138,143)" stroke="none" font-family="Arial" font-size="423" font-style="normal" font-weight="400">
  <text x="17854" y="5220">
   <tspan x="17854 18112 18205 18442 18653">Flash</tspan></text>
  <text fill="rgb(129,138,143)" stroke="none" x="17550" y="5728">
   <tspan x="17550 17668 17905 18023 18260 18395 18513 18750 18961">Interface</tspan></text>
  <path fill="rgb(129,138,143)" stroke="none" d="M 18366,4511 C 17550,4511 16887,4866 16887,5304 16887,5742 17550,6097 18366,6097 19183,6097 19846,5742 19846,5304 19846,4866 19183,4511 18366,4511 Z"/>
  <path fill="rgb(255,204,153)" stroke="none" d="M 18296,4440 C 17479,4440 16816,4795 16816,5233 16816,5672 17479,6026 18296,6026 19114,6026 19775,5672 19775,5233 19775,4795 19114,4440 18296,4440 Z"/>
  <path stroke-width="26" fill="none" stroke="rgb(0,0,0)" d="M 18296,4440 C 17479,4440 16816,4795 16816,5233 16816,5672 17479,6026 18296,6026 19114,6026 19775,5672 19775,5233 19775,4795 19114,4440 18296,4440 Z"/>
  <text fill="rgb(0,0,0)" stroke="none" x="17782" y="5149">
   <tspan x="17782 18040 18133 18370 18581">Flash</tspan></text>
  <text fill="rgb(0,0,0)" stroke="none" x="17478" y="5656">
   <tspan x="17478 17596 17833 17951 18188 18323 18441 18678 18889">Interface</tspan></text>
  <path fill="rgb(153,204,255)" stroke="none" d="M 3819,9834 L 3819,13325 10159,13325 10159,9834 3819,9834 Z"/>
  <path fill="none" stroke="none" d="M 3819,9834 L 3819,13325 10159,13325 10159,9834 3819,9834 Z"/>
  <path stroke-width="35" fill="none" stroke="rgb(0,0,0)" d="M 3819,9834 L 3819,13325 10159,13325 10159,9834 3819,9834 Z"/>
  <text fill="rgb(129,138,143)" stroke="none" x="5119" y="11186">
   <tspan x="5119 5423 5727 6031">DDR3</tspan></text>
  <path fill="rgb(129,138,143)" stroke="none" d="M 5686,10222 C 4869,10222 4207,10577 4207,11016 4207,11453 4869,11809 5686,11809 6503,11809 7166,11453 7166,11016 7166,10577 6503,10222 5686,10222 Z"/>
  <path fill="rgb(255,204,153)" stroke="none" d="M 5615,10151 C 4799,10151 4136,10507 4136,10945 4136,11383 4799,11738 5615,11738 6433,11738 7095,11383 7095,10945 7095,10507 6433,10151 5615,10151 Z"/>
  <path stroke-width="26" fill="none" stroke="rgb(0,0,0)" d="M 5615,10151 C 4799,10151 4136,10507 4136,10945 4136,11383 4799,11738 5615,11738 6433,11738 7095,11383 7095,10945 7095,10507 6433,10151 5615,10151 Z"/>
  <text fill="rgb(0,0,0)" stroke="none" x="5047" y="11114">
   <tspan x="5047 5351 5655 5959">DDR3</tspan></text>
 </g>
 <g fill="rgb(0,0,0)" stroke="none" font-family="Tahoma" font-size="495" font-style="normal" font-weight="400">
  <text x="5026" y="13944">
   <tspan x="5026 5406 5668 6078 6349 6527 6772 6928 7220 7491 7762 7927 8105 8376 8490 8600 8862">Memory Controller</tspan></text>
 </g>
 <g fill="rgb(129,138,143)" stroke="none" font-family="Arial" font-size="423" font-style="normal" font-weight="400">
  <text x="4967" y="2047">
   <tspan x="4967 5199 5436 5647 5858 5947 6184">Locking</tspan></text>
  <text fill="rgb(129,138,143)" stroke="none" x="4861" y="2555">
   <tspan x="4861 5212 5449 5681 5918 6146 6383">Manager</tspan></text>
  <path fill="rgb(129,138,143)" stroke="none" d="M 5686,1338 C 4869,1338 4207,1693 4207,2131 4207,2569 4869,2924 5686,2924 6503,2924 7166,2569 7166,2131 7166,1693 6503,1338 5686,1338 Z"/>
  <path fill="rgb(204,255,255)" stroke="none" d="M 5615,1267 C 4799,1267 4136,1622 4136,2060 4136,2498 4799,2853 5615,2853 6433,2853 7095,2498 7095,2060 7095,1622 6433,1267 5615,1267 Z"/>
  <path stroke-width="26" fill="none" stroke="rgb(0,0,0)" d="M 5615,1267 C 4799,1267 4136,1622 4136,2060 4136,2498 4799,2853 5615,2853 6433,2853 7095,2498 7095,2060 7095,1622 6433,1267 5615,1267 Z"/>
  <text fill="rgb(0,0,0)" stroke="none" x="4895" y="1975">
   <tspan x="4895 5127 5364 5575 5786 5875 6112">Locking</tspan></text>
  <text fill="rgb(0,0,0)" stroke="none" x="4789" y="2483">
   <tspan x="4789 5140 5377 5609 5846 6074 6311">Manager</tspan></text>
  <text fill="rgb(129,138,143)" stroke="none" x="8716" y="6490">
   <tspan x="8716 8999 9231 9586 9675 9912">Admin </tspan></text>
  <text fill="rgb(129,138,143)" stroke="none" x="10030" y="6490">
   <tspan x="10030 10334 10685">Cmd</tspan></text>
  <text fill="rgb(129,138,143)" stroke="none" x="8982" y="6997">
   <tspan x="8982 9333 9570 9802 10039 10267 10504">Manager</tspan></text>
  <path fill="rgb(129,138,143)" stroke="none" d="M 9807,5780 C 8990,5780 8328,6135 8328,6573 8328,7011 8990,7367 9807,7367 10624,7367 11287,7011 11287,6573 11287,6135 10624,5780 9807,5780 Z"/>
  <path fill="rgb(204,255,255)" stroke="none" d="M 9736,5709 C 8920,5709 8257,6065 8257,6502 8257,6941 8920,7296 9736,7296 10554,7296 11216,6941 11216,6502 11216,6065 10554,5709 9736,5709 Z"/>
  <path stroke-width="26" fill="none" stroke="rgb(0,0,0)" d="M 9736,5709 C 8920,5709 8257,6065 8257,6502 8257,6941 8920,7296 9736,7296 10554,7296 11216,6941 11216,6502 11216,6065 10554,5709 9736,5709 Z"/>
  <text fill="rgb(0,0,0)" stroke="none" x="8644" y="6418">
   <tspan x="8644 8927 9159 9514 9603 9840">Admin </tspan></text>
  <text fill="rgb(0,0,0)" stroke="none" x="9958" y="6418">
   <tspan x="9958 10262 10613">Cmd</tspan></text>
  <text fill="rgb(0,0,0)" stroke="none" x="8910" y="6925">
   <tspan x="8910 9261 9498 9730 9967 10195 10432">Manager</tspan></text>
  <rect fill="rgb(204,255,204)" stroke="none" x="12376" y="1265" width="3808" height="8254"/>
  <rect fill="rgb(127,127,127)" stroke="none" x="12378" y="1267" width="3805" height="8251"/>
  <rect fill="rgb(204,255,204)" stroke="none" x="12376" y="1265" width="3808" height="8254"/>
  <path fill="rgb(0,0,0)" stroke="rgb(0,0,0)" d="M 16182,1285 L 15901,1285 15901,1250 16182,1250 16182,1285 Z M 15796,1285 L 15513,1285 15513,1250 15796,1250 15796,1285 Z M 15408,1285 L 15126,1285 15126,1250 15408,1250 15408,1285 Z M 15020,1285 L 14739,1285 14739,1250 15020,1250 15020,1285 Z M 14633,1285 L 14351,1285 14351,1250 14633,1250 14633,1285 Z M 14245,1285 L 13963,1285 13963,1250 14245,1250 14245,1285 Z M 13858,1285 L 13576,1285 13576,1250 13858,1250 13858,1285 Z M 13471,1285 L 13189,1285 13189,1250 13471,1250 13471,1285 Z M 13083,1285 L 12801,1285 12801,1250 13083,1250 13083,1285 Z M 12695,1285 L 12414,1285 12414,1250 12695,1250 12695,1285 Z M 12396,1338 L 12396,1620 12361,1620 12361,1338 12396,1338 Z M 12396,1726 L 12396,2007 12361,2007 12361,1726 12396,1726 Z M 12396,2113 L 12396,2395 12361,2395 12361,2113 12396,2113 Z M 12396,2501 L 12396,2784 12361,2784 12361,2501 12396,2501 Z M 12396,2889 L 12396,3171 12361,3171 12361,2889 12396,2889 Z M 12396,3276 L 12396,3559 12361,3559 12361,3276 12396,3276 Z M 12396,3665 L 12396,3947 12361,3947 12361,3665 12396,3665 Z M 12396,4053 L 12396,4334 12361,4334 12361,4053 12396,4053 Z M 12396,4440 L 12396,4722 12361,4722 12361,4440 12396,4440 Z M 12396,4828 L 12396,5110 12361,5110 12361,4828 12396,4828 Z M 12396,5216 L 12396,5498 12361,5498 12361,5216 12396,5216 Z M 12396,5603 L 12396,5886 12361,5886 12361,5603 12396,5603 Z M 12396,5992 L 12396,6274 12361,6274 12361,5992 12396,5992 Z M 12396,6380 L 12396,6661 12361,6661 12361,6380 12396,6380 Z M 12396,6767 L 12396,7049 12361,7049 12361,6767 12396,6767 Z M 12396,7155 L 12396,7437 12361,7437 12361,7155 12396,7155 Z M 12396,7543 L 12396,7825 12361,7825 12361,7543 12396,7543 Z M 12396,7930 L 12396,8213 12361,8213 12361,7930 12396,7930 Z M 12396,8318 L 12396,8601 12361,8601 12361,8318 12396,8318 Z M 12396,8707 L 12396,8988 12361,8988 12361,8707 12396,8707 Z M 12396,9094 L 12396,9376 12361,9376 12361,9094 12396,9094 Z M 12396,9482 L 12396,9517 12378,9500 12625,9500 12625,9535 12361,9535 12361,9482 12396,9482 Z M 12731,9500 L 13012,9500 13012,9535 12731,9535 12731,9500 Z M 13118,9500 L 13400,9500 13400,9535 13118,9535 13118,9500 Z M 13506,9500 L 13788,9500 13788,9535 13506,9535 13506,9500 Z M 13894,9500 L 14175,9500 14175,9535 13894,9535 13894,9500 Z M 14280,9500 L 14562,9500 14562,9535 14280,9535 14280,9500 Z M 14668,9500 L 14950,9500 14950,9535 14668,9535 14668,9500 Z M 15056,9500 L 15337,9500 15337,9535 15056,9535 15056,9500 Z M 15443,9500 L 15725,9500 15725,9535 15443,9535 15443,9500 Z M 15830,9500 L 16113,9500 16113,9535 15830,9535 15830,9500 Z M 16165,9482 L 16165,9200 16200,9200 16200,9482 16165,9482 Z M 16165,9094 L 16165,8812 16200,8812 16200,9094 16165,9094 Z M 16165,8707 L 16165,8424 16200,8424 16200,8707 16165,8707 Z M 16165,8318 L 16165,8036 16200,8036 16200,8318 16165,8318 Z M 16165,7930 L 16165,7649 16200,7649 16200,7930 16165,7930 Z M 16165,7543 L 16165,7261 16200,7261 16200,7543 16165,7543 Z M 16165,7155 L 16165,6873 16200,6873 16200,7155 16165,7155 Z M 16165,6767 L 16165,6485 16200,6485 16200,6767 16165,6767 Z M 16165,6380 L 16165,6097 16200,6097 16200,6380 16165,6380 Z M 16165,5992 L 16165,5709 16200,5709 16200,5992 16165,5992 Z M 16165,5603 L 16165,5322 16200,5322 16200,5603 16165,5603 Z M 16165,5216 L 16165,4934 16200,4934 16200,5216 16165,5216 Z M 16165,4828 L 16165,4546 16200,4546 16200,4828 16165,4828 Z M 16165,4440 L 16165,4159 16200,4159 16200,4440 16165,4440 Z M 16165,4053 L 16165,3770 16200,3770 16200,4053 16165,4053 Z M 16165,3665 L 16165,3382 16200,3382 16200,3665 16165,3665 Z M 16165,3276 L 16165,2995 16200,2995 16200,3276 16165,3276 Z M 16165,2889 L 16165,2607 16200,2607 16200,2889 16165,2889 Z M 16165,2501 L 16165,2219 16200,2219 16200,2501 16165,2501 Z M 16165,2113 L 16165,1832 16200,1832 16200,2113 16165,2113 Z M 16165,1726 L 16165,1443 16200,1443 16200,1726 16165,1726 Z M 16165,1338 L 16165,1267 16200,1267 16200,1338 16165,1338 Z"/>
 </g>
 <g fill="rgb(0,0,0)" stroke="none" font-family="Tahoma" font-size="495" font-style="normal" font-weight="400">
  <text x="13885" y="5589">
   <tspan x="13885 14143 14430">FTL</tspan></text>
 </g>
 <g fill="rgb(129,138,143)" stroke="none" font-family="Arial" font-size="423" font-style="normal" font-weight="400">
  <text x="11573" y="10932">
   <tspan x="11573 11852 12182">XOR</tspan></text>
  <text fill="rgb(129,138,143)" stroke="none" x="11379" y="11440">
   <tspan x="11379 11662 11899 12131 12220 12452">Engine</tspan></text>
  <path fill="rgb(129,138,143)" stroke="none" d="M 12026,10222 C 11209,10222 10547,10577 10547,11016 10547,11453 11209,11809 12026,11809 12843,11809 13506,11453 13506,11016 13506,10577 12843,10222 12026,10222 Z"/>
  <path fill="rgb(255,204,153)" stroke="none" d="M 11956,10151 C 11139,10151 10476,10507 10476,10945 10476,11383 11139,11738 11956,11738 12773,11738 13435,11383 13435,10945 13435,10507 12773,10151 11956,10151 Z"/>
  <path stroke-width="26" fill="none" stroke="rgb(0,0,0)" d="M 11956,10151 C 11139,10151 10476,10507 10476,10945 10476,11383 11139,11738 11956,11738 12773,11738 13435,11383 13435,10945 13435,10507 12773,10151 11956,10151 Z"/>
  <text fill="rgb(0,0,0)" stroke="none" x="11501" y="10860">
   <tspan x="11501 11780 12110">XOR</tspan></text>
  <text fill="rgb(0,0,0)" stroke="none" x="11307" y="11368">
   <tspan x="11307 11590 11827 12059 12148 12380">Engine</tspan></text>
  <text fill="rgb(129,138,143)" stroke="none" x="12972" y="12201">
   <tspan x="12972 13209 13302 13513">List</tspan></text>
  <text fill="rgb(129,138,143)" stroke="none" x="12647" y="12709">
   <tspan x="12647 12930 13167 13399 13488 13720">Engine</tspan></text>
  <path fill="rgb(129,138,143)" stroke="none" d="M 13294,11492 C 12477,11492 11815,11846 11815,12285 11815,12723 12477,13078 13294,13078 14111,13078 14774,12723 14774,12285 14774,11846 14111,11492 13294,11492 Z"/>
  <path fill="rgb(255,204,153)" stroke="none" d="M 13224,11421 C 12407,11421 11744,11776 11744,12214 11744,12652 12407,13007 13224,13007 14041,13007 14703,12652 14703,12214 14703,11776 14041,11421 13224,11421 Z"/>
  <path stroke-width="26" fill="none" stroke="rgb(0,0,0)" d="M 13224,11421 C 12407,11421 11744,11776 11744,12214 11744,12652 12407,13007 13224,13007 14041,13007 14703,12652 14703,12214 14703,11776 14041,11421 13224,11421 Z"/>
  <text fill="rgb(0,0,0)" stroke="none" x="12900" y="12129">
   <tspan x="12900 13137 13230 13441">List</tspan></text>
  <text fill="rgb(0,0,0)" stroke="none" x="12575" y="12637">
   <tspan x="12575 12858 13095 13327 13416 13648">Engine</tspan></text>
  <text fill="rgb(129,138,143)" stroke="none" x="7980" y="10932">
   <tspan x="7980 8263 8495 8613 8731 8968">Buffer</tspan></text>
  <text fill="rgb(129,138,143)" stroke="none" x="7934" y="11440">
   <tspan x="7934 8217 8521 8804">SRAM</tspan></text>
  <path fill="rgb(129,138,143)" stroke="none" d="M 8539,10222 C 7722,10222 7060,10577 7060,11016 7060,11453 7722,11809 8539,11809 9356,11809 10019,11453 10019,11016 10019,10577 9356,10222 8539,10222 Z"/>
  <path fill="rgb(255,204,153)" stroke="none" d="M 8468,10151 C 7652,10151 6989,10507 6989,10945 6989,11383 7652,11738 8468,11738 9286,11738 9948,11383 9948,10945 9948,10507 9286,10151 8468,10151 Z"/>
  <path stroke-width="26" fill="none" stroke="rgb(0,0,0)" d="M 8468,10151 C 7652,10151 6989,10507 6989,10945 6989,11383 7652,11738 8468,11738 9286,11738 9948,11383 9948,10945 9948,10507 9286,10151 8468,10151 Z"/>
  <text fill="rgb(0,0,0)" stroke="none" x="7908" y="10860">
   <tspan x="7908 8191 8423 8541 8659 8896">Buffer</tspan></text>
  <text fill="rgb(0,0,0)" stroke="none" x="7862" y="11368">
   <tspan x="7862 8145 8449 8732">SRAM</tspan></text>
 </g>
 <g fill="rgb(0,0,0)" stroke="none" font-family="Tahoma" font-size="495" font-style="normal" font-weight="400">
  <text x="10935" y="13944">
   <tspan x="10935 11269 11527 11705 11980 12348 12606 12784 13042 13198 13494 13722 13950 14212 14322 14584 14762 15020 15181 15452 15630">Hardware Accelerators</tspan></text>
 </g>
 <g fill="rgb(129,138,143)" stroke="none" font-family="Arial" font-size="423" font-style="normal" font-weight="400">
  <text x="14320" y="10932">
   <tspan x="14320 14603 14835 14953 15071 15308">Buffer</tspan></text>
  <text fill="rgb(129,138,143)" stroke="none" x="14054" y="11440">
   <tspan x="14054 14405 14642 14874 15111 15339 15576">Manager</tspan></text>
  <path fill="rgb(129,138,143)" stroke="none" d="M 14879,10222 C 14063,10222 13400,10578 13400,11016 13400,11453 14063,11809 14879,11809 15696,11809 16359,11453 16359,11016 16359,10578 15696,10222 14879,10222 Z"/>
  <path fill="rgb(255,204,153)" stroke="none" d="M 14809,10151 C 13992,10151 13329,10507 13329,10945 13329,11384 13992,11738 14809,11738 15626,11738 16288,11384 16288,10945 16288,10507 15626,10151 14809,10151 Z"/>
  <path stroke-width="26" fill="none" stroke="rgb(0,0,0)" d="M 14809,10151 C 13992,10151 13329,10507 13329,10945 13329,11384 13992,11738 14809,11738 15626,11738 16288,11384 16288,10945 16288,10507 15626,10151 14809,10151 Z"/>
  <text fill="rgb(0,0,0)" stroke="none" x="14249" y="10860">
   <tspan x="14249 14532 14764 14882 15000 15237">Buffer</tspan></text>
  <text fill="rgb(0,0,0)" stroke="none" x="13982" y="11368">
   <tspan x="13982 14333 14570 14802 15039 15267 15504">Manager</tspan></text>
  <path fill="rgb(0,0,0)" stroke="rgb(0,0,0)" d="M 3291,4264 L 3291,4264 3351,4265 3412,4270 3472,4277 3532,4287 3592,4300 3650,4315 3709,4333 3766,4353 3822,4375 3877,4400 3931,4427 3984,4456 4035,4486 4085,4519 4133,4553 4179,4588 4224,4626 4267,4665 4307,4704 4345,4746 4381,4788 4414,4832 4445,4877 4473,4922 4498,4968 4521,5015 4540,5063 4540,5063 C 4540,5064 4540,5065 4541,5066 L 4541,5066 4556,5131 4522,5138 4506,5074 4507,5076 4489,5031 4467,4985 4443,4941 4416,4897 4386,4853 4354,4811 4319,4770 4282,4730 4243,4691 4202,4653 4158,4617 4113,4582 4066,4548 4017,4517 3967,4486 3916,4458 3863,4432 3809,4408 3754,4386 3698,4366 3641,4349 3584,4335 3526,4322 3468,4312 3410,4305 3350,4301 3291,4299 3291,4264 Z M 4638,5082 L 4638,5082 4568,5308 4429,5117 4638,5082 Z"/>
  <path fill="rgb(0,0,0)" stroke="rgb(0,0,0)" d="M 5612,6839 L 5612,6839 5602,6901 5585,6961 5564,7020 5540,7078 5513,7135 5483,7191 5450,7246 5414,7300 5376,7352 5334,7403 5291,7453 5245,7501 5197,7547 5147,7591 5095,7633 5042,7673 4986,7711 4930,7746 4871,7780 4812,7810 4751,7838 4689,7863 4626,7884 4563,7903 4499,7919 4434,7932 4369,7940 4304,7946 4238,7948 4172,7947 4107,7943 4043,7937 3979,7929 3914,7918 3851,7905 3788,7890 3727,7873 3666,7854 3607,7833 3549,7811 3492,7786 3436,7761 3383,7734 3331,7704 3281,7674 3233,7643 3187,7610 3144,7576 3103,7541 3064,7505 3028,7469 2994,7431 2964,7392 2937,7353 2912,7313 2912,7313 C 2912,7312 2912,7311 2911,7310 L 2911,7310 2884,7240 2918,7227 2944,7298 2942,7295 2966,7333 2992,7370 3021,7407 3053,7444 3088,7480 3125,7515 3165,7548 3208,7581 3253,7613 3299,7644 3348,7674 3399,7702 3452,7729 3506,7754 3561,7778 3618,7800 3677,7820 3736,7839 3797,7856 3858,7871 3920,7883 3983,7893 4046,7902 4110,7908 4174,7912 4237,7913 4301,7911 4364,7905 4428,7897 4491,7885 4553,7869 4615,7851 4676,7830 4736,7805 4795,7778 4854,7748 4911,7717 4967,7682 5021,7645 5073,7606 5124,7564 5173,7521 5220,7476 5265,7429 5307,7381 5347,7331 5385,7280 5420,7228 5452,7175 5481,7120 5508,7065 5531,7008 5551,6951 5567,6895 5577,6833 5612,6839 Z M 5486,6859 L 5486,6859 5615,6661 5696,6884 5486,6859 Z M 2807,7293 L 2807,7293 2860,7062 3012,7243 2807,7293 Z"/>
  <text fill="rgb(129,138,143)" stroke="none" x="13441" y="5538">
   <tspan x="13441 13792 14029 14261 14498 14587 14824">Mapping</tspan></text>
  <text fill="rgb(129,138,143)" stroke="none" x="13420" y="6045">
   <tspan x="13420 13771 14008 14240 14477 14705 14942">Manager</tspan></text>
  <path fill="rgb(129,138,143)" stroke="none" d="M 14245,4828 C 13429,4828 12766,5183 12766,5621 12766,6059 13429,6415 14245,6415 15062,6415 15725,6059 15725,5621 15725,5183 15062,4828 14245,4828 Z"/>
  <path fill="rgb(204,255,255)" stroke="none" d="M 14175,4757 C 13358,4757 12695,5113 12695,5550 12695,5989 13358,6344 14175,6344 14992,6344 15654,5989 15654,5550 15654,5113 14992,4757 14175,4757 Z"/>
  <path stroke-width="26" fill="none" stroke="rgb(0,0,0)" d="M 14175,4757 C 13358,4757 12695,5113 12695,5550 12695,5989 13358,6344 14175,6344 14992,6344 15654,5989 15654,5550 15654,5113 14992,4757 14175,4757 Z"/>
  <text fill="rgb(0,0,0)" stroke="none" x="13369" y="5466">
   <tspan x="13369 13720 13957 14189 14426 14515 14752">Mapping</tspan></text>
  <text fill="rgb(0,0,0)" stroke="none" x="13348" y="5974">
   <tspan x="13348 13699 13936 14168 14405 14633 14870">Manager</tspan></text>
  <text fill="rgb(129,138,143)" stroke="none" x="13441" y="5855">
   <tspan x="13441 13792 14029 14261 14498 14587 14824">Mapping</tspan></text>
  <text fill="rgb(129,138,143)" stroke="none" x="13420" y="6363">
   <tspan x="13420 13771 14008 14240 14477 14705 14942">Manager</tspan></text>
  <path fill="rgb(129,138,143)" stroke="none" d="M 14245,5145 C 13429,5145 12766,5501 12766,5939 12766,6377 13429,6732 14245,6732 15062,6732 15725,6377 15725,5939 15725,5501 15062,5145 14245,5145 Z"/>
  <path fill="rgb(204,255,255)" stroke="none" d="M 14175,5075 C 13358,5075 12695,5430 12695,5868 12695,6307 13358,6661 14175,6661 14992,6661 15654,6307 15654,5868 15654,5430 14992,5075 14175,5075 Z"/>
  <path stroke-width="26" fill="none" stroke="rgb(0,0,0)" d="M 14175,5075 C 13358,5075 12695,5430 12695,5868 12695,6307 13358,6661 14175,6661 14992,6661 15654,6307 15654,5868 15654,5430 14992,5075 14175,5075 Z"/>
  <text fill="rgb(0,0,0)" stroke="none" x="13369" y="5783">
   <tspan x="13369 13720 13957 14189 14426 14515 14752">Mapping</tspan></text>
  <text fill="rgb(0,0,0)" stroke="none" x="13348" y="6291">
   <tspan x="13348 13699 13936 14168 14405 14633 14870">Manager</tspan></text>
  <text fill="rgb(129,138,143)" stroke="none" x="13441" y="6172">
   <tspan x="13441 13792 14029 14261 14498 14587 14824">Mapping</tspan></text>
  <text fill="rgb(129,138,143)" stroke="none" x="13420" y="6680">
   <tspan x="13420 13771 14008 14240 14477 14705 14942">Manager</tspan></text>
  <path fill="rgb(129,138,143)" stroke="none" d="M 14245,5463 C 13429,5463 12766,5818 12766,6256 12766,6694 13429,7049 14245,7049 15062,7049 15725,6694 15725,6256 15725,5818 15062,5463 14245,5463 Z"/>
  <path fill="rgb(204,255,255)" stroke="none" d="M 14175,5392 C 13358,5392 12695,5747 12695,6185 12695,6624 13358,6978 14175,6978 14992,6978 15654,6624 15654,6185 15654,5747 14992,5392 14175,5392 Z"/>
  <path stroke-width="26" fill="none" stroke="rgb(0,0,0)" d="M 14175,5392 C 13358,5392 12695,5747 12695,6185 12695,6624 13358,6978 14175,6978 14992,6978 15654,6624 15654,6185 15654,5747 14992,5392 14175,5392 Z"/>
  <text fill="rgb(0,0,0)" stroke="none" x="13369" y="6100">
   <tspan x="13369 13720 13957 14189 14426 14515 14752">Mapping</tspan></text>
  <text fill="rgb(0,0,0)" stroke="none" x="13348" y="6608">
   <tspan x="13348 13699 13936 14168 14405 14633 14870">Manager</tspan></text>
  <text fill="rgb(129,138,143)" stroke="none" x="13441" y="6490">
   <tspan x="13441 13792 14029 14261 14498 14587 14824">Mapping</tspan></text>
  <text fill="rgb(129,138,143)" stroke="none" x="13420" y="6997">
   <tspan x="13420 13771 14008 14240 14477 14705 14942">Manager</tspan></text>
  <path fill="rgb(129,138,143)" stroke="none" d="M 14245,5780 C 13429,5780 12766,6135 12766,6573 12766,7011 13429,7367 14245,7367 15062,7367 15725,7011 15725,6573 15725,6135 15062,5780 14245,5780 Z"/>
  <path fill="rgb(204,255,255)" stroke="none" d="M 14175,5709 C 13358,5709 12695,6065 12695,6502 12695,6941 13358,7296 14175,7296 14992,7296 15654,6941 15654,6502 15654,6065 14992,5709 14175,5709 Z"/>
  <path stroke-width="26" fill="none" stroke="rgb(0,0,0)" d="M 14175,5709 C 13358,5709 12695,6065 12695,6502 12695,6941 13358,7296 14175,7296 14992,7296 15654,6941 15654,6502 15654,6065 14992,5709 14175,5709 Z"/>
  <text fill="rgb(0,0,0)" stroke="none" x="13369" y="6418">
   <tspan x="13369 13720 13957 14189 14426 14515 14752">Mapping</tspan></text>
  <text fill="rgb(0,0,0)" stroke="none" x="13348" y="6925">
   <tspan x="13348 13699 13936 14168 14405 14633 14870">Manager</tspan></text>
  <text fill="rgb(129,138,143)" stroke="none" x="13441" y="5538">
   <tspan x="13441 13792 14029 14261 14498 14587 14824">Mapping</tspan></text>
  <text fill="rgb(129,138,143)" stroke="none" x="13420" y="6045">
   <tspan x="13420 13771 14008 14240 14477 14705 14942">Manager</tspan></text>
  <path fill="rgb(129,138,143)" stroke="none" d="M 14245,4828 C 13429,4828 12766,5183 12766,5621 12766,6059 13429,6415 14245,6415 15062,6415 15725,6059 15725,5621 15725,5183 15062,4828 14245,4828 Z"/>
  <path fill="rgb(204,255,255)" stroke="none" d="M 14175,4757 C 13358,4757 12695,5113 12695,5550 12695,5989 13358,6344 14175,6344 14992,6344 15654,5989 15654,5550 15654,5113 14992,4757 14175,4757 Z"/>
  <path stroke-width="26" fill="none" stroke="rgb(0,0,0)" d="M 14175,4757 C 13358,4757 12695,5113 12695,5550 12695,5989 13358,6344 14175,6344 14992,6344 15654,5989 15654,5550 15654,5113 14992,4757 14175,4757 Z"/>
  <text fill="rgb(0,0,0)" stroke="none" x="13369" y="5466">
   <tspan x="13369 13720 13957 14189 14426 14515 14752">Mapping</tspan></text>
  <text fill="rgb(0,0,0)" stroke="none" x="13348" y="5974">
   <tspan x="13348 13699 13936 14168 14405 14633 14870">Manager</tspan></text>
  <text fill="rgb(129,138,143)" stroke="none" x="13441" y="5855">
   <tspan x="13441 13792 14029 14261 14498 14587 14824">Mapping</tspan></text>
  <text fill="rgb(129,138,143)" stroke="none" x="13420" y="6363">
   <tspan x="13420 13771 14008 14240 14477 14705 14942">Manager</tspan></text>
  <path fill="rgb(129,138,143)" stroke="none" d="M 14245,5145 C 13429,5145 12766,5501 12766,5939 12766,6377 13429,6732 14245,6732 15062,6732 15725,6377 15725,5939 15725,5501 15062,5145 14245,5145 Z"/>
  <path fill="rgb(204,255,255)" stroke="none" d="M 14175,5075 C 13358,5075 12695,5430 12695,5868 12695,6307 13358,6661 14175,6661 14992,6661 15654,6307 15654,5868 15654,5430 14992,5075 14175,5075 Z"/>
  <path stroke-width="26" fill="none" stroke="rgb(0,0,0)" d="M 14175,5075 C 13358,5075 12695,5430 12695,5868 12695,6307 13358,6661 14175,6661 14992,6661 15654,6307 15654,5868 15654,5430 14992,5075 14175,5075 Z"/>
  <text fill="rgb(0,0,0)" stroke="none" x="13369" y="5783">
   <tspan x="13369 13720 13957 14189 14426 14515 14752">Mapping</tspan></text>
  <text fill="rgb(0,0,0)" stroke="none" x="13348" y="6291">
   <tspan x="13348 13699 13936 14168 14405 14633 14870">Manager</tspan></text>
  <text fill="rgb(129,138,143)" stroke="none" x="13441" y="6172">
   <tspan x="13441 13792 14029 14261 14498 14587 14824">Mapping</tspan></text>
  <text fill="rgb(129,138,143)" stroke="none" x="13420" y="6680">
   <tspan x="13420 13771 14008 14240 14477 14705 14942">Manager</tspan></text>
  <path fill="rgb(129,138,143)" stroke="none" d="M 14245,5463 C 13429,5463 12766,5818 12766,6256 12766,6694 13429,7049 14245,7049 15062,7049 15725,6694 15725,6256 15725,5818 15062,5463 14245,5463 Z"/>
  <path fill="rgb(204,255,255)" stroke="none" d="M 14175,5392 C 13358,5392 12695,5747 12695,6185 12695,6624 13358,6978 14175,6978 14992,6978 15654,6624 15654,6185 15654,5747 14992,5392 14175,5392 Z"/>
  <path stroke-width="26" fill="none" stroke="rgb(0,0,0)" d="M 14175,5392 C 13358,5392 12695,5747 12695,6185 12695,6624 13358,6978 14175,6978 14992,6978 15654,6624 15654,6185 15654,5747 14992,5392 14175,5392 Z"/>
  <text fill="rgb(0,0,0)" stroke="none" x="13369" y="6100">
   <tspan x="13369 13720 13957 14189 14426 14515 14752">Mapping</tspan></text>
  <text fill="rgb(0,0,0)" stroke="none" x="13348" y="6608">
   <tspan x="13348 13699 13936 14168 14405 14633 14870">Manager</tspan></text>
  <text fill="rgb(129,138,143)" stroke="none" x="13441" y="6490">
   <tspan x="13441 13792 14029 14261 14498 14587 14824">Mapping</tspan></text>
  <text fill="rgb(129,138,143)" stroke="none" x="13420" y="6997">
   <tspan x="13420 13771 14008 14240 14477 14705 14942">Manager</tspan></text>
  <path fill="rgb(129,138,143)" stroke="none" d="M 14245,5780 C 13429,5780 12766,6135 12766,6573 12766,7011 13429,7367 14245,7367 15062,7367 15725,7011 15725,6573 15725,6135 15062,5780 14245,5780 Z"/>
  <path fill="rgb(204,255,255)" stroke="none" d="M 14175,5709 C 13358,5709 12695,6065 12695,6502 12695,6941 13358,7296 14175,7296 14992,7296 15654,6941 15654,6502 15654,6065 14992,5709 14175,5709 Z"/>
  <path stroke-width="26" fill="none" stroke="rgb(0,0,0)" d="M 14175,5709 C 13358,5709 12695,6065 12695,6502 12695,6941 13358,7296 14175,7296 14992,7296 15654,6941 15654,6502 15654,6065 14992,5709 14175,5709 Z"/>
  <text fill="rgb(0,0,0)" stroke="none" x="13369" y="6418">
   <tspan x="13369 13720 13957 14189 14426 14515 14752">Mapping</tspan></text>
  <text fill="rgb(0,0,0)" stroke="none" x="13348" y="6925">
   <tspan x="13348 13699 13936 14168 14405 14633 14870">Manager</tspan></text>
  <text fill="rgb(129,138,143)" stroke="none" x="13881" y="2365">
   <tspan x="13881 14092 14324 14561 14700 14932 15169">Journal</tspan></text>
  <text fill="rgb(129,138,143)" stroke="none" x="13737" y="2872">
   <tspan x="13737 14088 14325 14557 14794 15022 15259">Manager</tspan></text>
  <path fill="rgb(129,138,143)" stroke="none" d="M 14562,1655 C 13746,1655 13083,2010 13083,2448 13083,2886 13746,3242 14562,3242 15379,3242 16042,2886 16042,2448 16042,2010 15379,1655 14562,1655 Z"/>
  <path fill="rgb(204,255,255)" stroke="none" d="M 14492,1584 C 13675,1584 13012,1940 13012,2377 13012,2816 13675,3171 14492,3171 15309,3171 15971,2816 15971,2377 15971,1940 15309,1584 14492,1584 Z"/>
  <path stroke-width="26" fill="none" stroke="rgb(0,0,0)" d="M 14492,1584 C 13675,1584 13012,1940 13012,2377 13012,2816 13675,3171 14492,3171 15309,3171 15971,2816 15971,2377 15971,1940 15309,1584 14492,1584 Z"/>
  <text fill="rgb(0,0,0)" stroke="none" x="13809" y="2293">
   <tspan x="13809 14020 14252 14489 14628 14860 15097">Journal</tspan></text>
  <text fill="rgb(0,0,0)" stroke="none" x="13665" y="2800">
   <tspan x="13665 14016 14253 14485 14722 14950 15187">Manager</tspan></text>
  <text fill="rgb(129,138,143)" stroke="none" x="14050" y="3951">
   <tspan x="14050 14333 14426 14663 14874">Block</tspan></text>
  <text fill="rgb(129,138,143)" stroke="none" x="13737" y="4459">
   <tspan x="13737 14088 14325 14557 14794 15022 15259">Manager</tspan></text>
  <path fill="rgb(129,138,143)" stroke="none" d="M 14562,3242 C 13746,3242 13083,3597 13083,4035 13083,4473 13746,4828 14562,4828 15379,4828 16042,4473 16042,4035 16042,3597 15379,3242 14562,3242 Z"/>
  <path fill="rgb(204,255,255)" stroke="none" d="M 14492,3171 C 13675,3171 13012,3526 13012,3964 13012,4403 13675,4757 14492,4757 15309,4757 15971,4403 15971,3964 15971,3526 15309,3171 14492,3171 Z"/>
  <path stroke-width="26" fill="none" stroke="rgb(0,0,0)" d="M 14492,3171 C 13675,3171 13012,3526 13012,3964 13012,4403 13675,4757 14492,4757 15309,4757 15971,4403 15971,3964 15971,3526 15309,3171 14492,3171 Z"/>
  <text fill="rgb(0,0,0)" stroke="none" x="13978" y="3879">
   <tspan x="13978 14261 14354 14591 14802">Block</tspan></text>
  <text fill="rgb(0,0,0)" stroke="none" x="13665" y="4387">
   <tspan x="13665 14016 14253 14485 14722 14950 15187">Manager</tspan></text>
  <text fill="rgb(129,138,143)" stroke="none" x="13682" y="8076">
   <tspan x="13682 13986 14223 14430 14667 14874 15111 15250">Recovery</tspan></text>
  <text fill="rgb(129,138,143)" stroke="none" x="13737" y="8584">
   <tspan x="13737 14088 14325 14557 14794 15022 15259">Manager</tspan></text>
  <path fill="rgb(129,138,143)" stroke="none" d="M 14562,7367 C 13746,7367 13083,7722 13083,8160 13083,8598 13746,8953 14562,8953 15379,8953 16042,8598 16042,8160 16042,7722 15379,7367 14562,7367 Z"/>
  <path fill="rgb(204,255,255)" stroke="none" d="M 14492,7296 C 13675,7296 13012,7651 13012,8089 13012,8528 13675,8882 14492,8882 15309,8882 15971,8528 15971,8089 15971,7651 15309,7296 14492,7296 Z"/>
  <path stroke-width="26" fill="none" stroke="rgb(0,0,0)" d="M 14492,7296 C 13675,7296 13012,7651 13012,8089 13012,8528 13675,8882 14492,8882 15309,8882 15971,8528 15971,8089 15971,7651 15309,7296 14492,7296 Z"/>
  <text fill="rgb(0,0,0)" stroke="none" x="13610" y="8004">
   <tspan x="13610 13914 14151 14358 14595 14802 15039 15178">Recovery</tspan></text>
  <text fill="rgb(0,0,0)" stroke="none" x="13665" y="8512">
   <tspan x="13665 14016 14253 14485 14722 14950 15187">Manager</tspan></text>
  <text fill="rgb(129,138,143)" stroke="none" x="13682" y="8394">
   <tspan x="13682 13986 14223 14430 14667 14874 15111 15250">Recovery</tspan></text>
  <text fill="rgb(129,138,143)" stroke="none" x="13737" y="8901">
   <tspan x="13737 14088 14325 14557 14794 15022 15259">Manager</tspan></text>
  <path fill="rgb(129,138,143)" stroke="none" d="M 14562,7684 C 13746,7684 13083,8039 13083,8477 13083,8915 13746,9270 14562,9270 15379,9270 16042,8915 16042,8477 16042,8039 15379,7684 14562,7684 Z"/>
  <path fill="rgb(204,255,255)" stroke="none" d="M 14492,7613 C 13675,7613 13012,7968 13012,8406 13012,8845 13675,9200 14492,9200 15309,9200 15971,8845 15971,8406 15971,7968 15309,7613 14492,7613 Z"/>
  <path stroke-width="26" fill="none" stroke="rgb(0,0,0)" d="M 14492,7613 C 13675,7613 13012,7968 13012,8406 13012,8845 13675,9200 14492,9200 15309,9200 15971,8845 15971,8406 15971,7968 15309,7613 14492,7613 Z"/>
  <text fill="rgb(0,0,0)" stroke="none" x="13610" y="8322">
   <tspan x="13610 13914 14151 14358 14595 14802 15039 15178">Recovery</tspan></text>
  <text fill="rgb(0,0,0)" stroke="none" x="13665" y="8829">
   <tspan x="13665 14016 14253 14485 14722 14950 15187">Manager</tspan></text>
  <text fill="rgb(129,138,143)" stroke="none" x="13682" y="8076">
   <tspan x="13682 13986 14223 14430 14667 14874 15111 15250">Recovery</tspan></text>
  <text fill="rgb(129,138,143)" stroke="none" x="13737" y="8584">
   <tspan x="13737 14088 14325 14557 14794 15022 15259">Manager</tspan></text>
  <path fill="rgb(129,138,143)" stroke="none" d="M 14562,7367 C 13746,7367 13083,7722 13083,8160 13083,8598 13746,8953 14562,8953 15379,8953 16042,8598 16042,8160 16042,7722 15379,7367 14562,7367 Z"/>
  <path fill="rgb(204,255,255)" stroke="none" d="M 14492,7296 C 13675,7296 13012,7651 13012,8089 13012,8528 13675,8882 14492,8882 15309,8882 15971,8528 15971,8089 15971,7651 15309,7296 14492,7296 Z"/>
  <path stroke-width="26" fill="none" stroke="rgb(0,0,0)" d="M 14492,7296 C 13675,7296 13012,7651 13012,8089 13012,8528 13675,8882 14492,8882 15309,8882 15971,8528 15971,8089 15971,7651 15309,7296 14492,7296 Z"/>
  <text fill="rgb(0,0,0)" stroke="none" x="13610" y="8004">
   <tspan x="13610 13914 14151 14358 14595 14802 15039 15178">Recovery</tspan></text>
  <text fill="rgb(0,0,0)" stroke="none" x="13665" y="8512">
   <tspan x="13665 14016 14253 14485 14722 14950 15187">Manager</tspan></text>
  <text fill="rgb(129,138,143)" stroke="none" x="13682" y="8394">
   <tspan x="13682 13986 14223 14430 14667 14874 15111 15250">Recovery</tspan></text>
  <text fill="rgb(129,138,143)" stroke="none" x="13737" y="8901">
   <tspan x="13737 14088 14325 14557 14794 15022 15259">Manager</tspan></text>
  <path fill="rgb(129,138,143)" stroke="none" d="M 14562,7684 C 13746,7684 13083,8039 13083,8477 13083,8915 13746,9270 14562,9270 15379,9270 16042,8915 16042,8477 16042,8039 15379,7684 14562,7684 Z"/>
  <path fill="rgb(204,255,255)" stroke="none" d="M 14492,7613 C 13675,7613 13012,7968 13012,8406 13012,8845 13675,9200 14492,9200 15309,9200 15971,8845 15971,8406 15971,7968 15309,7613 14492,7613 Z"/>
  <path stroke-width="26" fill="none" stroke="rgb(0,0,0)" d="M 14492,7613 C 13675,7613 13012,7968 13012,8406 13012,8845 13675,9200 14492,9200 15309,9200 15971,8845 15971,8406 15971,7968 15309,7613 14492,7613 Z"/>
  <text fill="rgb(0,0,0)" stroke="none" x="13610" y="8322">
   <tspan x="13610 13914 14151 14358 14595 14802 15039 15178">Recovery</tspan></text>
  <text fill="rgb(0,0,0)" stroke="none" x="13665" y="8829">
   <tspan x="13665 14016 14253 14485 14722 14950 15187">Manager</tspan></text>
  <path fill="rgb(0,0,0)" stroke="rgb(0,0,0)" d="M 5598,4898 L 5598,3030 5633,3030 5633,4898 5598,4898 Z M 5721,4863 L 5615,5075 5510,4863 5721,4863 Z M 5510,3065 L 5615,2853 5721,3065 5510,3065 Z"/>
  <path fill="rgb(0,0,0)" stroke="rgb(0,0,0)" d="M 6703,6600 L 6713,6656 6726,6700 6741,6746 6760,6790 6780,6835 6803,6880 6827,6924 6854,6969 6883,7013 6914,7057 6947,7100 6982,7143 7019,7186 7058,7228 7099,7271 7142,7313 7186,7354 7232,7395 7280,7435 7329,7475 7381,7515 7433,7553 7544,7629 7660,7702 7782,7773 7908,7841 8040,7905 8176,7967 8316,8025 8461,8079 8608,8130 8760,8177 8914,8219 9070,8257 9229,8291 9390,8320 9553,8344 9716,8363 9881,8377 10047,8385 10212,8388 10379,8392 10545,8400 10711,8414 10876,8433 11040,8458 11202,8487 11362,8521 11520,8560 11674,8602 11827,8650 11976,8700 12121,8755 12263,8814 12400,8876 12532,8941 12660,9010 12783,9081 12900,9155 13012,9231 13065,9271 13117,9311 13167,9351 13216,9391 13263,9433 13308,9475 13351,9517 13392,9560 13432,9604 13469,9647 13505,9691 13539,9736 13571,9781 13600,9826 13628,9871 13653,9917 13676,9963 13697,10009 13716,10056 13732,10102 13746,10149 13757,10207 13722,10213 13713,10159 13699,10114 13683,10068 13665,10023 13645,9979 13622,9934 13598,9890 13571,9845 13542,9801 13511,9757 13478,9714 13443,9670 13406,9627 13367,9585 13326,9543 13283,9501 13239,9460 13193,9418 13145,9378 13095,9339 13044,9299 12992,9260 12881,9185 12765,9111 12644,9040 12517,8973 12386,8908 12249,8846 12109,8788 11965,8734 11817,8683 11665,8636 11511,8593 11355,8555 11196,8522 11035,8492 10872,8469 10709,8450 10544,8435 10378,8427 10211,8423 10045,8421 9878,8412 9712,8398 9547,8379 9384,8354 9222,8325 9062,8291 8904,8253 8750,8210 8597,8163 8448,8112 8303,8057 8161,7999 8024,7937 7892,7872 7764,7803 7641,7732 7524,7658 7413,7581 7359,7542 7308,7502 7257,7462 7209,7421 7162,7380 7117,7338 7074,7295 7032,7252 6993,7209 6955,7166 6919,7122 6886,7077 6854,7032 6824,6987 6796,6941 6771,6896 6748,6850 6727,6803 6708,6757 6692,6710 6678,6662 6668,6606 6703,6600 Z M 6585,6651 L 6664,6428 6795,6625 6585,6651 Z M 13840,10163 L 13761,10385 13630,10188 13840,10163 Z"/>
  <path fill="rgb(0,0,0)" stroke="rgb(0,0,0)" d="M 6693,5131 L 6723,5060 6723,5060 C 6724,5059 6724,5058 6725,5057 L 6725,5057 6751,5018 6782,4979 6815,4940 6853,4903 6893,4865 6936,4829 6982,4794 7030,4760 7082,4728 7135,4696 7190,4666 7249,4637 7308,4610 7369,4584 7433,4560 7497,4537 7564,4517 7631,4498 7700,4481 7769,4466 7840,4453 7911,4443 7983,4434 8055,4428 8127,4424 8200,4422 8344,4425 8487,4433 8629,4446 8766,4464 8900,4485 8965,4498 9027,4511 9089,4525 9148,4540 9206,4556 9262,4572 9315,4589 9366,4607 9414,4626 9460,4645 9503,4664 9543,4685 9580,4705 9614,4727 9645,4748 9672,4770 9695,4793 9715,4816 9732,4840 9744,4863 9744,4863 C 9744,4865 9744,4866 9745,4867 L 9751,4889 9751,4889 C 9752,4890 9752,4891 9752,4892 L 9752,4892 9754,4914 9756,4925 9758,4934 9757,4931 9761,4942 9767,4952 9774,4961 9784,4970 9795,4981 9807,4991 9822,5002 9838,5012 9856,5022 9875,5033 9920,5054 9971,5075 10027,5095 10089,5115 10156,5135 10229,5154 10306,5173 10388,5191 10475,5209 10565,5226 10660,5242 10758,5258 10860,5272 10964,5287 11072,5300 11182,5312 11295,5323 11410,5334 11527,5343 11645,5351 11886,5364 12131,5372 12202,5372 12201,5408 12130,5407 11884,5399 11643,5386 11524,5378 11407,5369 11291,5358 11178,5347 11067,5335 10960,5321 10854,5307 10752,5292 10654,5277 10559,5261 10468,5244 10381,5226 10298,5207 10220,5188 10146,5169 10078,5149 10015,5128 9957,5107 9905,5086 9859,5064 9838,5053 9819,5042 9801,5030 9785,5018 9770,5007 9758,4995 9746,4982 9736,4970 9729,4957 9724,4945 9724,4945 C 9724,4944 9723,4943 9723,4942 L 9723,4942 9720,4929 9719,4918 9717,4896 9717,4899 9711,4876 9712,4879 9703,4859 9689,4839 9671,4819 9649,4797 9624,4777 9595,4756 9563,4736 9527,4716 9488,4696 9446,4677 9402,4658 9354,4640 9304,4623 9251,4606 9197,4590 9140,4574 9081,4559 9021,4545 8958,4532 8894,4520 8762,4499 8625,4481 8486,4468 8344,4461 8201,4458 8129,4459 8057,4463 7987,4469 7916,4477 7846,4487 7777,4500 7708,4515 7641,4532 7574,4550 7509,4571 7445,4593 7383,4617 7322,4642 7264,4669 7207,4697 7152,4727 7100,4758 7050,4789 7003,4823 6958,4857 6917,4891 6878,4927 6842,4963 6809,5000 6780,5038 6755,5077 6756,5074 6725,5145 6693,5131 Z M 6821,5132 L 6821,5132 6664,5308 6617,5077 6821,5132 Z M 12167,5284 L 12167,5284 12378,5392 12165,5495 12167,5284 Z"/>
  <path fill="rgb(0,0,0)" stroke="rgb(0,0,0)" d="M 5592,4899 L 5590,4863 5584,4794 5576,4724 5567,4655 5556,4585 5544,4516 5514,4377 5479,4241 5437,4107 5390,3974 5338,3843 5281,3715 5219,3590 5152,3467 5080,3348 5005,3233 4925,3120 4842,3013 4755,2910 4665,2811 4572,2718 4476,2629 4377,2547 4277,2469 4174,2399 4121,2366 4068,2334 4015,2304 3962,2276 3907,2249 3853,2225 3798,2202 3743,2181 3689,2162 3633,2144 3577,2129 3522,2115 3466,2104 3409,2094 3358,2090 3361,2054 3415,2060 3472,2069 3529,2081 3587,2094 3644,2110 3700,2128 3756,2148 3812,2170 3868,2193 3923,2218 3978,2245 4032,2273 4086,2304 4140,2336 4193,2369 4298,2441 4400,2520 4500,2603 4597,2693 4691,2787 4782,2887 4870,2991 4954,3100 5034,3213 5111,3330 5183,3450 5250,3574 5313,3701 5371,3830 5423,3962 5471,4096 5512,4233 5549,4371 5578,4509 5591,4580 5602,4650 5612,4720 5619,4791 5625,4862 5626,4898 5592,4899 Z M 5713,4859 L 5615,5075 5502,4867 5713,4859 Z M 3388,2180 L 3184,2059 3403,1969 3388,2180 Z"/>
  <path fill="rgb(0,0,0)" stroke="rgb(0,0,0)" d="M 14298,9516 L 14298,9516 14300,9546 14304,9574 14310,9601 14320,9628 14332,9654 14345,9679 14360,9702 14377,9725 14395,9745 14415,9763 14436,9779 14457,9792 14479,9803 14501,9811 14523,9815 14546,9817 14571,9819 14598,9824 14624,9834 14650,9846 14674,9861 14697,9879 14719,9899 14739,9921 14739,9921 C 14740,9923 14741,9924 14742,9926 L 14742,9926 14767,9977 14736,9993 14711,9941 14713,9945 14695,9925 14675,9907 14655,9891 14634,9877 14612,9866 14590,9859 14568,9854 14543,9852 14516,9850 14489,9844 14464,9835 14438,9822 14414,9807 14391,9789 14370,9769 14349,9746 14330,9721 14314,9696 14299,9668 14287,9640 14277,9609 14269,9579 14264,9547 14263,9518 14298,9516 Z M 14840,9917 L 14840,9917 14809,10151 14640,9986 14840,9917 Z"/>
  <path fill="rgb(0,0,0)" stroke="rgb(0,0,0)" d="M 16356,5356 L 16356,5356 16399,5350 16418,5344 16436,5339 16452,5333 16464,5326 16475,5320 16473,5321 16481,5315 16478,5318 16483,5310 16481,5316 16482,5308 16485,5301 16485,5301 C 16486,5299 16486,5297 16488,5296 L 16493,5288 16493,5288 C 16493,5287 16494,5286 16495,5285 L 16504,5278 16504,5278 C 16505,5277 16506,5277 16507,5277 L 16507,5277 16518,5269 16533,5261 16552,5254 16572,5248 16594,5242 16640,5235 16644,5270 16604,5275 16583,5281 16565,5287 16549,5292 16536,5299 16525,5306 16527,5304 16518,5311 16521,5308 16516,5316 16518,5310 16517,5318 16515,5325 16515,5325 C 16514,5327 16513,5328 16512,5330 L 16507,5338 16507,5338 C 16506,5339 16506,5340 16504,5341 L 16495,5348 16495,5348 C 16495,5348 16494,5350 16493,5350 L 16493,5350 16480,5358 16464,5365 16446,5373 16426,5379 16403,5384 16360,5391 16356,5356 Z M 16404,5474 L 16404,5474 16182,5392 16381,5264 16404,5474 Z M 16595,5152 L 16595,5152 16816,5233 16619,5362 16595,5152 Z"/>
 </g>
 <g fill="rgb(129,138,143)" stroke="none" font-family="Tahoma" font-size="495" font-style="normal" font-weight="400">
  <text x="4079" y="4395">1</text>
  <path fill="rgb(129,138,143)" stroke="none" d="M 4207,3876 C 4031,3876 3890,4018 3890,4193 3890,4368 4031,4510 4207,4510 4382,4510 4524,4368 4524,4193 4524,4018 4382,3876 4207,3876 Z"/>
  <path fill="rgb(255,255,255)" stroke="none" d="M 4136,3805 C 3961,3805 3819,3948 3819,4123 3819,4298 3961,4440 4136,4440 4311,4440 4453,4298 4453,4123 4453,3948 4311,3805 4136,3805 Z"/>
  <path stroke-width="35" fill="none" stroke="rgb(255,0,0)" d="M 4136,3805 C 3961,3805 3819,3948 3819,4123 3819,4298 3961,4440 4136,4440 4311,4440 4453,4298 4453,4123 4453,3948 4311,3805 4136,3805 Z"/>
  <text fill="rgb(0,0,0)" stroke="none" x="4007" y="4324">1</text>
  <text fill="rgb(129,138,143)" stroke="none" x="5981" y="5030">3</text>
  <path fill="rgb(129,138,143)" stroke="none" d="M 6109,4511 C 5933,4511 5792,4652 5792,4828 5792,5003 5933,5145 6109,5145 6284,5145 6426,5003 6426,4828 6426,4652 6284,4511 6109,4511 Z"/>
  <path fill="rgb(255,255,255)" stroke="none" d="M 6038,4440 C 5863,4440 5721,4582 5721,4757 5721,4933 5863,5075 6038,5075 6213,5075 6355,4933 6355,4757 6355,4582 6213,4440 6038,4440 Z"/>
  <path stroke-width="35" fill="none" stroke="rgb(255,0,0)" d="M 6038,4440 C 5863,4440 5721,4582 5721,4757 5721,4933 5863,5075 6038,5075 6213,5075 6355,4933 6355,4757 6355,4582 6213,4440 6038,4440 Z"/>
  <text fill="rgb(0,0,0)" stroke="none" x="5909" y="4958">3</text>
  <text fill="rgb(129,138,143)" stroke="none" x="13272" y="10424">4</text>
  <path fill="rgb(129,138,143)" stroke="none" d="M 13400,9905 C 13225,9905 13083,10047 13083,10222 13083,10397 13225,10540 13400,10540 13575,10540 13717,10397 13717,10222 13717,10047 13575,9905 13400,9905 Z"/>
  <path fill="rgb(255,255,255)" stroke="none" d="M 13329,9834 C 13154,9834 13012,9976 13012,10151 13012,10327 13154,10469 13329,10469 13505,10469 13646,10327 13646,10151 13646,9976 13505,9834 13329,9834 Z"/>
  <path stroke-width="35" fill="none" stroke="rgb(255,0,0)" d="M 13329,9834 C 13154,9834 13012,9976 13012,10151 13012,10327 13154,10469 13329,10469 13505,10469 13646,10327 13646,10151 13646,9976 13505,9834 13329,9834 Z"/>
  <text fill="rgb(0,0,0)" stroke="none" x="13200" y="10352">4</text>
  <text fill="rgb(129,138,143)" stroke="none" x="6615" y="7569">5</text>
  <path fill="rgb(129,138,143)" stroke="none" d="M 6743,7049 C 6567,7049 6426,7191 6426,7367 6426,7542 6567,7684 6743,7684 6918,7684 7060,7542 7060,7367 7060,7191 6918,7049 6743,7049 Z"/>
  <path fill="rgb(255,255,255)" stroke="none" d="M 6672,6978 C 6497,6978 6355,7121 6355,7296 6355,7471 6497,7613 6672,7613 6847,7613 6989,7471 6989,7296 6989,7121 6847,6978 6672,6978 Z"/>
  <path stroke-width="35" fill="none" stroke="rgb(255,0,0)" d="M 6672,6978 C 6497,6978 6355,7121 6355,7296 6355,7471 6497,7613 6672,7613 6847,7613 6989,7471 6989,7296 6989,7121 6847,6978 6672,6978 Z"/>
  <text fill="rgb(0,0,0)" stroke="none" x="6543" y="7497">5</text>
  <text fill="rgb(129,138,143)" stroke="none" x="11687" y="5982">8</text>
  <path fill="rgb(129,138,143)" stroke="none" d="M 11815,5463 C 11640,5463 11498,5604 11498,5780 11498,5955 11640,6097 11815,6097 11990,6097 12132,5955 12132,5780 12132,5604 11990,5463 11815,5463 Z"/>
  <path fill="rgb(255,255,255)" stroke="none" d="M 11744,5392 C 11569,5392 11427,5534 11427,5709 11427,5885 11569,6026 11744,6026 11920,6026 12061,5885 12061,5709 12061,5534 11920,5392 11744,5392 Z"/>
  <path stroke-width="35" fill="none" stroke="rgb(255,0,0)" d="M 11744,5392 C 11569,5392 11427,5534 11427,5709 11427,5885 11569,6026 11744,6026 11920,6026 12061,5885 12061,5709 12061,5534 11920,5392 11744,5392 Z"/>
  <text fill="rgb(0,0,0)" stroke="none" x="11615" y="5910">8</text>
  <text fill="rgb(129,138,143)" stroke="none" x="16759" y="5030">9</text>
  <path fill="rgb(129,138,143)" stroke="none" d="M 16887,4511 C 16712,4511 16570,4652 16570,4828 16570,5004 16712,5145 16887,5145 17063,5145 17204,5004 17204,4828 17204,4652 17063,4511 16887,4511 Z"/>
  <path fill="rgb(255,255,255)" stroke="none" d="M 16816,4440 C 16642,4440 16499,4583 16499,4757 16499,4933 16642,5075 16816,5075 16992,5075 17133,4933 17133,4757 17133,4583 16992,4440 16816,4440 Z"/>
  <path stroke-width="35" fill="none" stroke="rgb(255,0,0)" d="M 16816,4440 C 16642,4440 16499,4583 16499,4757 16499,4933 16642,5075 16816,5075 16992,5075 17133,4933 17133,4757 17133,4583 16992,4440 16816,4440 Z"/>
  <text fill="rgb(0,0,0)" stroke="none" x="16687" y="4958">9</text>
  <text fill="rgb(129,138,143)" stroke="none" x="15986" y="5982">
   <tspan x="15986 16257">10</tspan></text>
  <path fill="rgb(129,138,143)" stroke="none" d="M 16253,5463 C 16078,5463 15936,5604 15936,5780 15936,5956 16078,6097 16253,6097 16429,6097 16570,5956 16570,5780 16570,5604 16429,5463 16253,5463 Z"/>
  <path fill="rgb(255,255,255)" stroke="none" d="M 16182,5392 C 16008,5392 15865,5535 15865,5709 15865,5885 16008,6026 16182,6026 16358,6026 16499,5885 16499,5709 16499,5535 16358,5392 16182,5392 Z"/>
  <path stroke-width="35" fill="none" stroke="rgb(255,0,0)" d="M 16182,5392 C 16008,5392 15865,5535 15865,5709 15865,5885 16008,6026 16182,6026 16358,6026 16499,5885 16499,5709 16499,5535 16358,5392 16182,5392 Z"/>
  <text fill="rgb(0,0,0)" stroke="none" x="15914" y="5910">
   <tspan x="15914 16185">10</tspan></text>
  <text fill="rgb(129,138,143)" stroke="none" x="7110" y="5347">
   <tspan x="7110 7381">11</tspan></text>
  <path fill="rgb(129,138,143)" stroke="none" d="M 7377,4828 C 7201,4828 7060,4970 7060,5145 7060,5320 7201,5463 7377,5463 7552,5463 7694,5320 7694,5145 7694,4970 7552,4828 7377,4828 Z"/>
  <path fill="rgb(255,255,255)" stroke="none" d="M 7306,4757 C 7131,4757 6989,4899 6989,5075 6989,5250 7131,5392 7306,5392 7482,5392 7623,5250 7623,5075 7623,4899 7482,4757 7306,4757 Z"/>
  <path stroke-width="35" fill="none" stroke="rgb(255,0,0)" d="M 7306,4757 C 7131,4757 6989,4899 6989,5075 6989,5250 7131,5392 7306,5392 7482,5392 7623,5250 7623,5075 7623,4899 7482,4757 7306,4757 Z"/>
  <text fill="rgb(0,0,0)" stroke="none" x="7038" y="5275">
   <tspan x="7038 7309">11</tspan></text>
  <text fill="rgb(129,138,143)" stroke="none" x="3305" y="7569">
   <tspan x="3305 3576">13</tspan></text>
  <path fill="rgb(129,138,143)" stroke="none" d="M 3573,7049 C 3397,7049 3256,7191 3256,7367 3256,7542 3397,7684 3573,7684 3748,7684 3890,7542 3890,7367 3890,7191 3748,7049 3573,7049 Z"/>
  <path fill="rgb(255,255,255)" stroke="none" d="M 3502,6978 C 3327,6978 3185,7121 3185,7296 3185,7471 3327,7613 3502,7613 3677,7613 3819,7471 3819,7296 3819,7121 3677,6978 3502,6978 Z"/>
  <path stroke-width="35" fill="none" stroke="rgb(255,0,0)" d="M 3502,6978 C 3327,6978 3185,7121 3185,7296 3185,7471 3327,7613 3502,7613 3677,7613 3819,7471 3819,7296 3819,7121 3677,6978 3502,6978 Z"/>
  <text fill="rgb(0,0,0)" stroke="none" x="3234" y="7497">
   <tspan x="3234 3505">13</tspan></text>
  <text fill="rgb(129,138,143)" stroke="none" x="15035" y="10107">
   <tspan x="15035 15306">15</tspan></text>
  <path fill="rgb(129,138,143)" stroke="none" d="M 15302,9588 C 15127,9588 14985,9729 14985,9905 14985,10081 15127,10222 15302,10222 15477,10222 15619,10081 15619,9905 15619,9729 15477,9588 15302,9588 Z"/>
  <path fill="rgb(255,255,255)" stroke="none" d="M 15231,9517 C 15057,9517 14914,9660 14914,9834 14914,10010 15057,10151 15231,10151 15407,10151 15548,10010 15548,9834 15548,9660 15407,9517 15231,9517 Z"/>
  <path stroke-width="35" fill="none" stroke="rgb(255,0,0)" d="M 15231,9517 C 15057,9517 14914,9660 14914,9834 14914,10010 15057,10151 15231,10151 15407,10151 15548,10010 15548,9834 15548,9660 15407,9517 15231,9517 Z"/>
  <text fill="rgb(0,0,0)" stroke="none" x="14963" y="10035">
   <tspan x="14963 15234">15</tspan></text>
  <text fill="rgb(129,138,143)" stroke="none" x="3445" y="2809">6</text>
  <path fill="rgb(129,138,143)" stroke="none" d="M 3573,2289 C 3397,2289 3256,2431 3256,2607 3256,2782 3397,2924 3573,2924 3748,2924 3890,2782 3890,2607 3890,2431 3748,2289 3573,2289 Z"/>
  <path fill="rgb(255,255,255)" stroke="none" d="M 3502,2219 C 3327,2219 3185,2361 3185,2536 3185,2711 3327,2853 3502,2853 3677,2853 3819,2711 3819,2536 3819,2361 3677,2219 3502,2219 Z"/>
  <path stroke-width="35" fill="none" stroke="rgb(255,0,0)" d="M 3502,2219 C 3327,2219 3185,2361 3185,2536 3185,2711 3327,2853 3502,2853 3677,2853 3819,2711 3819,2536 3819,2361 3677,2219 3502,2219 Z"/>
  <text fill="rgb(0,0,0)" stroke="none" x="3373" y="2737">6</text>
  <text fill="rgb(129,138,143)" stroke="none" x="5030" y="4395">7</text>
  <path fill="rgb(129,138,143)" stroke="none" d="M 5158,3876 C 4982,3876 4841,4018 4841,4193 4841,4368 4982,4510 5158,4510 5333,4510 5475,4368 5475,4193 5475,4018 5333,3876 5158,3876 Z"/>
  <path fill="rgb(255,255,255)" stroke="none" d="M 5087,3805 C 4912,3805 4770,3948 4770,4123 4770,4298 4912,4440 5087,4440 5262,4440 5404,4298 5404,4123 5404,3948 5262,3805 5087,3805 Z"/>
  <path stroke-width="35" fill="none" stroke="rgb(255,0,0)" d="M 5087,3805 C 4912,3805 4770,3948 4770,4123 4770,4298 4912,4440 5087,4440 5262,4440 5404,4298 5404,4123 5404,3948 5262,3805 5087,3805 Z"/>
  <text fill="rgb(0,0,0)" stroke="none" x="4958" y="4324">7</text>
  <text fill="rgb(129,138,143)" stroke="none" x="4891" y="7251">
   <tspan x="4891 5162">14</tspan></text>
  <path fill="rgb(129,138,143)" stroke="none" d="M 5158,6732 C 4982,6732 4841,6874 4841,7049 4841,7224 4982,7367 5158,7367 5333,7367 5475,7224 5475,7049 5475,6874 5333,6732 5158,6732 Z"/>
  <path fill="rgb(255,255,255)" stroke="none" d="M 5087,6661 C 4912,6661 4770,6803 4770,6978 4770,7154 4912,7296 5087,7296 5262,7296 5404,7154 5404,6978 5404,6803 5262,6661 5087,6661 Z"/>
  <path stroke-width="35" fill="none" stroke="rgb(255,0,0)" d="M 5087,6661 C 4912,6661 4770,6803 4770,6978 4770,7154 4912,7296 5087,7296 5262,7296 5404,7154 5404,6978 5404,6803 5262,6661 5087,6661 Z"/>
  <text fill="rgb(0,0,0)" stroke="none" x="4819" y="7179">
   <tspan x="4819 5090">14</tspan></text>
  <text fill="rgb(129,138,143)" stroke="none" x="5880" y="3444">
   <tspan x="5880 6151 6299 6455 6721">2, 12</tspan></text>
  <path fill="rgb(129,138,143)" stroke="none" d="M 5996,2924 L 5996,2924 C 5883,2924 5792,3066 5792,3242 5792,3417 5883,3559 5996,3559 L 6856,3559 6856,3559 C 6968,3559 7060,3417 7060,3242 7060,3066 6968,2924 6856,2924 L 5996,2924 Z"/>
  <path fill="rgb(255,255,255)" stroke="none" d="M 5926,2853 L 5926,2853 C 5812,2853 5721,2996 5721,3171 5721,3346 5812,3488 5926,3488 L 6785,3488 6785,3488 C 6898,3488 6989,3346 6989,3171 6989,2996 6898,2853 6785,2853 L 5926,2853 Z"/>
  <path stroke-width="35" fill="none" stroke="rgb(255,0,0)" d="M 5926,2853 L 5926,2853 C 5812,2853 5721,2996 5721,3171 5721,3346 5812,3488 5926,3488 L 6785,3488 6785,3488 C 6898,3488 6989,3346 6989,3171 6989,2996 6898,2853 6785,2853 L 5926,2853 Z"/>
  <text fill="rgb(0,0,0)" stroke="none" x="5808" y="3372">
   <tspan x="5808 6079 6227 6383 6649">2, 12</tspan></text>
 </g>
</svg>